%TF.GenerationSoftware,KiCad,Pcbnew,8.0.5-1.fc40*%
%TF.CreationDate,2024-11-16T16:52:44-05:00*%
%TF.ProjectId,OS-41,4f532d34-312e-46b6-9963-61645f706362,rev?*%
%TF.SameCoordinates,Original*%
%TF.FileFunction,Soldermask,Top*%
%TF.FilePolarity,Negative*%
%FSLAX46Y46*%
G04 Gerber Fmt 4.6, Leading zero omitted, Abs format (unit mm)*
G04 Created by KiCad (PCBNEW 8.0.5-1.fc40) date 2024-11-16 16:52:44*
%MOMM*%
%LPD*%
G01*
G04 APERTURE LIST*
G04 Aperture macros list*
%AMRoundRect*
0 Rectangle with rounded corners*
0 $1 Rounding radius*
0 $2 $3 $4 $5 $6 $7 $8 $9 X,Y pos of 4 corners*
0 Add a 4 corners polygon primitive as box body*
4,1,4,$2,$3,$4,$5,$6,$7,$8,$9,$2,$3,0*
0 Add four circle primitives for the rounded corners*
1,1,$1+$1,$2,$3*
1,1,$1+$1,$4,$5*
1,1,$1+$1,$6,$7*
1,1,$1+$1,$8,$9*
0 Add four rect primitives between the rounded corners*
20,1,$1+$1,$2,$3,$4,$5,0*
20,1,$1+$1,$4,$5,$6,$7,0*
20,1,$1+$1,$6,$7,$8,$9,0*
20,1,$1+$1,$8,$9,$2,$3,0*%
G04 Aperture macros list end*
%ADD10RoundRect,0.237500X-0.250000X-0.237500X0.250000X-0.237500X0.250000X0.237500X-0.250000X0.237500X0*%
%ADD11C,2.050000*%
%ADD12C,2.250000*%
%ADD13R,2.500000X1.000000*%
%ADD14R,1.000000X1.800000*%
%ADD15R,1.700000X1.700000*%
%ADD16O,1.700000X1.700000*%
%ADD17R,1.000000X1.700000*%
%ADD18O,1.770000X0.700000*%
%ADD19RoundRect,0.237500X0.300000X0.237500X-0.300000X0.237500X-0.300000X-0.237500X0.300000X-0.237500X0*%
%ADD20RoundRect,0.237500X-0.008839X-0.344715X0.344715X0.008839X0.008839X0.344715X-0.344715X-0.008839X0*%
%ADD21RoundRect,0.237500X-0.300000X-0.237500X0.300000X-0.237500X0.300000X0.237500X-0.300000X0.237500X0*%
%ADD22C,2.100000*%
%ADD23RoundRect,0.237500X0.237500X-0.300000X0.237500X0.300000X-0.237500X0.300000X-0.237500X-0.300000X0*%
%ADD24RoundRect,0.198500X-0.508500X-0.198500X0.508500X-0.198500X0.508500X0.198500X-0.508500X0.198500X0*%
%ADD25R,1.050000X1.500000*%
%ADD26O,1.050000X1.500000*%
%ADD27RoundRect,0.237500X0.237500X-0.287500X0.237500X0.287500X-0.237500X0.287500X-0.237500X-0.287500X0*%
%ADD28RoundRect,0.237500X-0.237500X0.250000X-0.237500X-0.250000X0.237500X-0.250000X0.237500X0.250000X0*%
%ADD29RoundRect,0.237500X-0.237500X0.300000X-0.237500X-0.300000X0.237500X-0.300000X0.237500X0.300000X0*%
%ADD30RoundRect,0.237500X0.250000X0.237500X-0.250000X0.237500X-0.250000X-0.237500X0.250000X-0.237500X0*%
%ADD31RoundRect,0.102000X-0.380000X-0.140000X0.380000X-0.140000X0.380000X0.140000X-0.380000X0.140000X0*%
%ADD32RoundRect,0.102000X-0.140000X-0.380000X0.140000X-0.380000X0.140000X0.380000X-0.140000X0.380000X0*%
%ADD33RoundRect,0.102000X-1.125000X-1.150000X1.125000X-1.150000X1.125000X1.150000X-1.125000X1.150000X0*%
%ADD34RoundRect,0.237500X0.237500X-0.250000X0.237500X0.250000X-0.237500X0.250000X-0.237500X-0.250000X0*%
%ADD35RoundRect,0.237500X0.287500X0.237500X-0.287500X0.237500X-0.287500X-0.237500X0.287500X-0.237500X0*%
%ADD36R,3.500000X1.750000*%
%ADD37R,1.400000X1.200000*%
%ADD38RoundRect,0.150000X-0.512500X-0.150000X0.512500X-0.150000X0.512500X0.150000X-0.512500X0.150000X0*%
G04 APERTURE END LIST*
D10*
%TO.C,R7*%
X134887500Y-91500000D03*
X136712500Y-91500000D03*
%TD*%
D11*
%TO.C,J1*%
X106460000Y-107360000D03*
D12*
X103920000Y-104820000D03*
X103920000Y-109900000D03*
X109000000Y-104820000D03*
X109000000Y-109900000D03*
%TD*%
D13*
%TO.C,U1*%
X139012500Y-98612500D03*
X139012500Y-100612500D03*
X139012500Y-102612500D03*
X139012500Y-104612500D03*
X139012500Y-106612500D03*
X139012500Y-108612500D03*
X139012500Y-110612500D03*
X139012500Y-112612500D03*
D14*
X141612500Y-114112500D03*
X143612500Y-114112500D03*
X145612500Y-114112500D03*
X147612500Y-114112500D03*
X149612500Y-114112500D03*
X151612500Y-114112500D03*
D13*
X154212500Y-112612500D03*
X154212500Y-110612500D03*
X154212500Y-108612500D03*
X154212500Y-106612500D03*
X154212500Y-104612500D03*
X154212500Y-102612500D03*
X154212500Y-100612500D03*
X154212500Y-98612500D03*
%TD*%
D15*
%TO.C,J5*%
X159712500Y-121512500D03*
D16*
X162252500Y-121512500D03*
%TD*%
D17*
%TO.C,SW3*%
X166162500Y-109912500D03*
X166162500Y-116512500D03*
X162462500Y-109912500D03*
X162462500Y-116512500D03*
%TD*%
%TO.C,SW2*%
X129862500Y-92012500D03*
X129862500Y-98612500D03*
X126162500Y-92012500D03*
X126162500Y-98612500D03*
%TD*%
D18*
%TO.C,U2*%
X166992500Y-97812500D03*
X166992500Y-98912500D03*
X166992499Y-100012500D03*
X166992500Y-101112500D03*
X166992499Y-102212500D03*
X166992500Y-103312500D03*
X166992499Y-104412500D03*
X166992500Y-105512500D03*
X166992500Y-106612500D03*
X176612500Y-106612500D03*
X176612500Y-105512500D03*
X176612501Y-104412500D03*
X176612500Y-103312500D03*
X176612501Y-102212500D03*
X176612500Y-101112500D03*
X176612501Y-100012500D03*
X176612500Y-98912500D03*
X176612500Y-97812500D03*
%TD*%
D19*
%TO.C,C4*%
X129175001Y-111012500D03*
X127449999Y-111012500D03*
%TD*%
D20*
%TO.C,R12*%
X157809530Y-115290470D03*
X159100000Y-114000000D03*
%TD*%
D21*
%TO.C,C18*%
X110037500Y-114700000D03*
X111762500Y-114700000D03*
%TD*%
D15*
%TO.C,J4*%
X133850000Y-121675000D03*
D16*
X136390000Y-121675000D03*
%TD*%
D22*
%TO.C,REF\u002A\u002A*%
X179500000Y-95500000D03*
%TD*%
D15*
%TO.C,J2*%
X179737500Y-105562500D03*
D16*
X179737500Y-108102500D03*
%TD*%
D23*
%TO.C,C5*%
X124412500Y-105712500D03*
X124412500Y-103987498D03*
%TD*%
D19*
%TO.C,C9*%
X123262501Y-107600000D03*
X121537499Y-107600000D03*
%TD*%
D24*
%TO.C,U6*%
X112230000Y-116630000D03*
X112230000Y-117580000D03*
X112230000Y-118530000D03*
X114740000Y-118530000D03*
X114740000Y-116630000D03*
%TD*%
D25*
%TO.C,U3*%
X144530000Y-119960000D03*
D26*
X145800000Y-119960000D03*
X147070000Y-119960000D03*
%TD*%
D23*
%TO.C,C3*%
X135012500Y-97475001D03*
X135012500Y-95749999D03*
%TD*%
D22*
%TO.C,REF\u002A\u002A*%
X179500000Y-121000000D03*
%TD*%
D10*
%TO.C,R3*%
X134800000Y-102600000D03*
X136625000Y-102600000D03*
%TD*%
D27*
%TO.C,L1*%
X124900000Y-110674999D03*
X124900000Y-108925001D03*
%TD*%
D28*
%TO.C,R14*%
X117100000Y-114787500D03*
X117100000Y-116612500D03*
%TD*%
D29*
%TO.C,C17*%
X114740000Y-120300000D03*
X114740000Y-122025002D03*
%TD*%
D30*
%TO.C,R2*%
X158312500Y-110700000D03*
X156487500Y-110700000D03*
%TD*%
D21*
%TO.C,C7*%
X132687500Y-110512500D03*
X134412500Y-110512500D03*
%TD*%
D29*
%TO.C,C16*%
X135900000Y-114637499D03*
X135900000Y-116362501D03*
%TD*%
D31*
%TO.C,IC1*%
X126332500Y-106732500D03*
X126332500Y-107232500D03*
X126332500Y-107732500D03*
X126332500Y-108232500D03*
X126332500Y-108732500D03*
D32*
X127112500Y-109512500D03*
X127612500Y-109512500D03*
X128112500Y-109512500D03*
X128612500Y-109512500D03*
X129112500Y-109512500D03*
D31*
X129892500Y-108732500D03*
X129892500Y-108232500D03*
X129892500Y-107732500D03*
X129892500Y-107232500D03*
X129892500Y-106732500D03*
D32*
X129112500Y-105952500D03*
X128612500Y-105952500D03*
X128112500Y-105952500D03*
X127612500Y-105952500D03*
X127112500Y-105952500D03*
D33*
X128112500Y-107732500D03*
%TD*%
D21*
%TO.C,C1*%
X140312500Y-116312500D03*
X142037500Y-116312500D03*
%TD*%
D30*
%TO.C,R5*%
X154825000Y-116300000D03*
X153000000Y-116300000D03*
%TD*%
D34*
%TO.C,R6*%
X166200000Y-120525000D03*
X166200000Y-118700000D03*
%TD*%
D28*
%TO.C,R10*%
X128000000Y-118487500D03*
X128000000Y-120312500D03*
%TD*%
D23*
%TO.C,C6*%
X121612500Y-105675001D03*
X121612500Y-103949999D03*
%TD*%
D35*
%TO.C,L5*%
X116500000Y-107600000D03*
X114750002Y-107600000D03*
%TD*%
D29*
%TO.C,C11*%
X116500000Y-103137499D03*
X116500000Y-104862501D03*
%TD*%
D15*
%TO.C,J3*%
X159912500Y-95932500D03*
D16*
X159912500Y-98472500D03*
X159912500Y-101012500D03*
X159912500Y-103552500D03*
%TD*%
D28*
%TO.C,R9*%
X128000000Y-114487500D03*
X128000000Y-116312500D03*
%TD*%
D23*
%TO.C,C13*%
X113000000Y-110862501D03*
X113000000Y-109137499D03*
%TD*%
D10*
%TO.C,R4*%
X133187500Y-99600000D03*
X135012500Y-99600000D03*
%TD*%
D27*
%TO.C,L7*%
X109900000Y-118674999D03*
X109900000Y-116925001D03*
%TD*%
D21*
%TO.C,C8*%
X131850000Y-108512500D03*
X133575000Y-108512500D03*
%TD*%
D36*
%TO.C,L3*%
X120200000Y-117400000D03*
X120200000Y-114660000D03*
%TD*%
D15*
%TO.C,J7*%
X104060000Y-121600000D03*
D16*
X106600000Y-121600000D03*
%TD*%
D37*
%TO.C,X1*%
X127000000Y-103200000D03*
X129200000Y-103200000D03*
X129200000Y-101500000D03*
X127000000Y-101500000D03*
%TD*%
D35*
%TO.C,L6*%
X113174999Y-107600000D03*
X111425001Y-107600000D03*
%TD*%
D34*
%TO.C,R1*%
X158200000Y-108500000D03*
X158200000Y-106675000D03*
%TD*%
D23*
%TO.C,C10*%
X118700000Y-111562501D03*
X118700000Y-109837499D03*
%TD*%
D21*
%TO.C,C12*%
X121937499Y-119600000D03*
X123662501Y-119600000D03*
%TD*%
D29*
%TO.C,C14*%
X130700000Y-114637499D03*
X130700000Y-116362501D03*
%TD*%
D35*
%TO.C,L4*%
X119800000Y-107600000D03*
X118050002Y-107600000D03*
%TD*%
D38*
%TO.C,U5*%
X123725000Y-115000000D03*
X123725000Y-115950000D03*
X123725000Y-116900000D03*
X126000000Y-116900000D03*
X126000000Y-115950000D03*
X126000000Y-115000000D03*
%TD*%
D29*
%TO.C,C15*%
X133400000Y-114637499D03*
X133400000Y-116362501D03*
%TD*%
D21*
%TO.C,C2*%
X140350000Y-118412500D03*
X142075000Y-118412500D03*
%TD*%
D25*
%TO.C,U4*%
X150060000Y-120000000D03*
D26*
X151330000Y-120000000D03*
X152600000Y-120000000D03*
%TD*%
D28*
%TO.C,R13*%
X117100000Y-118287500D03*
X117100000Y-120112500D03*
%TD*%
D15*
%TO.C,J6*%
X170500000Y-121600000D03*
D16*
X173040000Y-121600000D03*
%TD*%
D30*
%TO.C,R8*%
X136712500Y-93100000D03*
X134887500Y-93100000D03*
%TD*%
D10*
%TO.C,R11*%
X114487500Y-111600000D03*
X116312500Y-111600000D03*
%TD*%
D27*
%TO.C,L2*%
X121600000Y-111800000D03*
X121600000Y-110050002D03*
%TD*%
D17*
%TO.C,SW1*%
X123962500Y-92112500D03*
X123962500Y-98712500D03*
X120262500Y-92112500D03*
X120262500Y-98712500D03*
%TD*%
M02*
