%TF.GenerationSoftware,KiCad,Pcbnew,8.0.8-2.fc41*%
%TF.CreationDate,2025-02-14T21:39:48-05:00*%
%TF.ProjectId,OS-41,4f532d34-312e-46b6-9963-61645f706362,rev?*%
%TF.SameCoordinates,Original*%
%TF.FileFunction,Copper,L3,Inr*%
%TF.FilePolarity,Positive*%
%FSLAX46Y46*%
G04 Gerber Fmt 4.6, Leading zero omitted, Abs format (unit mm)*
G04 Created by KiCad (PCBNEW 8.0.8-2.fc41) date 2025-02-14 21:39:48*
%MOMM*%
%LPD*%
G01*
G04 APERTURE LIST*
%TA.AperFunction,ComponentPad*%
%ADD10C,2.050000*%
%TD*%
%TA.AperFunction,ComponentPad*%
%ADD11C,2.250000*%
%TD*%
%TA.AperFunction,ComponentPad*%
%ADD12R,1.700000X1.700000*%
%TD*%
%TA.AperFunction,ComponentPad*%
%ADD13O,1.700000X1.700000*%
%TD*%
%TA.AperFunction,ComponentPad*%
%ADD14O,1.300000X2.200000*%
%TD*%
%TA.AperFunction,ComponentPad*%
%ADD15C,1.250000*%
%TD*%
%TA.AperFunction,ComponentPad*%
%ADD16R,1.500000X1.050000*%
%TD*%
%TA.AperFunction,ComponentPad*%
%ADD17O,1.500000X1.050000*%
%TD*%
%TA.AperFunction,ViaPad*%
%ADD18C,0.600000*%
%TD*%
%TA.AperFunction,Conductor*%
%ADD19C,0.800000*%
%TD*%
%TA.AperFunction,Conductor*%
%ADD20C,0.200000*%
%TD*%
%TA.AperFunction,Conductor*%
%ADD21C,0.300000*%
%TD*%
G04 APERTURE END LIST*
D10*
%TO.N,Net-(J4-In)*%
%TO.C,J4*%
X98100000Y-123850000D03*
D11*
%TO.N,GND*%
X95560000Y-121310000D03*
X95560000Y-126390000D03*
X100640000Y-121310000D03*
X100640000Y-126390000D03*
%TD*%
D12*
%TO.N,GND*%
%TO.C,J7*%
X96000000Y-97520001D03*
D13*
%TO.N,VCC*%
X96000000Y-100060001D03*
%TO.N,GPIO10*%
X96000000Y-102600000D03*
%TO.N,GPIO11*%
X96000000Y-105140001D03*
%TO.N,GPIO12*%
X96000000Y-107680001D03*
%TO.N,GPIO13*%
X96000000Y-110220001D03*
%TO.N,GPIO14*%
X96000000Y-112760001D03*
%TO.N,GPIO15*%
X96000000Y-115300002D03*
%TO.N,GPIO27_ADC1*%
X96000000Y-117840001D03*
%TD*%
D12*
%TO.N,GPS_ANT*%
%TO.C,J5*%
X135400000Y-87800000D03*
D13*
%TO.N,GND*%
X132860000Y-87800000D03*
%TD*%
D14*
%TO.N,GND*%
%TO.C,J6*%
X116019998Y-88500000D03*
D15*
X114839998Y-91300000D03*
X110000000Y-91300000D03*
D14*
X108820000Y-88500000D03*
%TD*%
D12*
%TO.N,VCC*%
%TO.C,J2*%
X129850000Y-126150000D03*
D13*
%TO.N,GND*%
X132390000Y-126150000D03*
%TD*%
D12*
%TO.N,BATT*%
%TO.C,J3*%
X136000000Y-114860000D03*
D13*
%TO.N,GND*%
X136000000Y-117400000D03*
%TD*%
D12*
%TO.N,VCC*%
%TO.C,J1*%
X136025000Y-121500000D03*
D13*
%TO.N,GND*%
X136025000Y-124040000D03*
%TD*%
D16*
%TO.N,GND*%
%TO.C,U5*%
X135700000Y-105200000D03*
D17*
%TO.N,DQ*%
X135700000Y-103929999D03*
%TO.N,VCC*%
X135700000Y-102660000D03*
%TD*%
D18*
%TO.N,QSPI_SS*%
X98100000Y-101060000D03*
X97660000Y-96660000D03*
%TO.N,GND*%
X122280000Y-91030000D03*
X106290000Y-87410000D03*
X121875000Y-121325000D03*
X104400000Y-87500000D03*
X135500000Y-93000000D03*
X132700000Y-122090000D03*
X124450000Y-126775000D03*
X96500000Y-90000000D03*
X133500000Y-93000000D03*
X134500000Y-97000000D03*
X112400000Y-104548406D03*
X135500000Y-95000000D03*
X113800000Y-106400000D03*
X118800000Y-100000000D03*
X136500000Y-97000000D03*
X132500000Y-94000000D03*
X116300000Y-115800000D03*
X98100000Y-126290000D03*
X122014385Y-101985615D03*
X117200000Y-89400000D03*
X135500000Y-97000000D03*
X134620000Y-112330000D03*
X127500000Y-87000000D03*
X123480000Y-112070000D03*
X129500000Y-89000000D03*
X127120000Y-119250000D03*
X98160000Y-120650000D03*
X136500000Y-96000000D03*
X129840000Y-122440000D03*
X122530000Y-87750000D03*
X119500000Y-98600000D03*
X115538470Y-117660924D03*
X105800000Y-118200000D03*
X108500000Y-96000000D03*
X127500000Y-95000000D03*
X130500000Y-93000000D03*
X117620000Y-123410000D03*
X120200000Y-106200000D03*
X99230000Y-105390000D03*
X110830000Y-88640000D03*
X129500000Y-97000000D03*
X129500000Y-87000000D03*
X123200000Y-100600000D03*
X136500000Y-95000000D03*
X121000000Y-103200000D03*
X100370000Y-118320000D03*
X100770000Y-114480000D03*
X120710000Y-94850000D03*
X119260000Y-124280000D03*
X127540000Y-112980000D03*
X115940000Y-95120000D03*
X130500000Y-97000000D03*
X134800000Y-126410000D03*
X133850000Y-104690000D03*
X111705302Y-116906648D03*
X125800000Y-103500000D03*
X129500000Y-96000000D03*
X102300000Y-96490000D03*
X134500000Y-96000000D03*
X117144435Y-96708835D03*
X120200000Y-109400000D03*
X130500000Y-88000000D03*
X102400000Y-106000000D03*
X122600000Y-99600000D03*
X128500000Y-88000000D03*
X99790000Y-106540000D03*
X134500000Y-98000000D03*
X124400000Y-108060000D03*
X133500000Y-96000000D03*
X114120000Y-88880000D03*
X102500000Y-116700000D03*
X107900000Y-93770000D03*
X130500000Y-89000000D03*
X107910000Y-117720000D03*
X135500000Y-98000000D03*
X136500000Y-98000000D03*
X132500000Y-95000000D03*
X107600000Y-101090000D03*
X134440000Y-119830000D03*
X128300000Y-119720000D03*
X135500000Y-94000000D03*
X110870000Y-87720000D03*
X128500000Y-122800000D03*
X95130000Y-90950000D03*
X120400000Y-110200000D03*
X102400000Y-87500000D03*
X127500000Y-96000000D03*
X119600000Y-113200000D03*
X130500000Y-87000000D03*
X129500000Y-98000000D03*
X127500000Y-88000000D03*
X105340000Y-100000000D03*
X123360000Y-118570000D03*
X118890000Y-127270000D03*
X134010000Y-111330000D03*
X101800000Y-107200000D03*
X117650000Y-125140000D03*
X128500000Y-97000000D03*
X111200000Y-118700000D03*
X116800000Y-92000000D03*
X117330000Y-127220000D03*
X102600000Y-108200000D03*
X112910000Y-87810000D03*
X133810000Y-112950000D03*
X107530000Y-91420000D03*
X127500000Y-94000000D03*
X133500000Y-97000000D03*
X106590000Y-100500000D03*
X128500000Y-89000000D03*
X131500000Y-94000000D03*
X135960000Y-126220000D03*
X94200000Y-93200000D03*
X111200000Y-92600000D03*
X131220000Y-122380000D03*
X119400000Y-114000000D03*
X130600000Y-102800000D03*
X103787502Y-104308002D03*
X104600000Y-116800000D03*
X128500000Y-87000000D03*
X106630000Y-89330000D03*
X125330000Y-107620000D03*
X134500000Y-95000000D03*
X127500000Y-97000000D03*
X128500000Y-98000000D03*
X133500000Y-98000000D03*
X129500000Y-88000000D03*
X103166765Y-100883234D03*
X94200000Y-89400000D03*
X132500000Y-93000000D03*
X133500000Y-94000000D03*
X128500000Y-95000000D03*
X134500000Y-94000000D03*
X133500000Y-95000000D03*
X135500000Y-96000000D03*
X128500000Y-96000000D03*
X125760000Y-127350000D03*
X102300000Y-94790000D03*
X136500000Y-94000000D03*
X119175000Y-125150000D03*
X128200000Y-114400000D03*
X110600000Y-93400000D03*
X121630000Y-95520000D03*
X127500000Y-98000000D03*
X131590000Y-102450000D03*
X133400000Y-124500000D03*
X134500000Y-93000000D03*
X103400000Y-88400000D03*
X127500000Y-89000000D03*
X130500000Y-98000000D03*
X109600000Y-95200000D03*
X115100000Y-94550000D03*
X132600000Y-103100000D03*
X119400000Y-106800000D03*
X95420000Y-123840000D03*
X118475000Y-124295000D03*
X106672794Y-96927206D03*
X94400000Y-87600000D03*
X131500000Y-93000000D03*
X136710000Y-127290000D03*
X105240000Y-98930000D03*
X112000000Y-118700000D03*
X129710000Y-121370000D03*
X136500000Y-93000000D03*
X127450000Y-123774994D03*
%TO.N,VCC*%
X114925000Y-120575002D03*
X99400000Y-103200000D03*
X128440000Y-125016370D03*
X130100000Y-109200000D03*
X111600000Y-102200000D03*
X135500000Y-111000000D03*
X98800000Y-96920001D03*
X116209999Y-121860001D03*
X108300000Y-103800000D03*
X125900000Y-108200000D03*
X105000000Y-105000000D03*
X116700000Y-111200000D03*
X121185120Y-102004880D03*
X121135002Y-125400000D03*
X111715606Y-109250216D03*
X114600000Y-102600000D03*
X116500000Y-117500000D03*
X107173770Y-107543135D03*
%TO.N,BATT*%
X115875000Y-105990175D03*
X128800000Y-111300000D03*
%TO.N,1V1*%
X111550000Y-104300000D03*
X114300000Y-111800000D03*
%TO.N,SDI*%
X116275000Y-109800000D03*
X121200000Y-123475000D03*
%TO.N,SCLK*%
X120312132Y-122640785D03*
X115475000Y-110525000D03*
%TO.N,SDO*%
X115150000Y-111850000D03*
X121331812Y-124317976D03*
%TO.N,NSEL*%
X119992732Y-121896724D03*
X108912911Y-106490321D03*
%TO.N,NIRQ*%
X119240000Y-121590000D03*
X109125000Y-108725000D03*
%TO.N,SDN*%
X106325000Y-108700000D03*
X117471300Y-120445464D03*
%TO.N,GPIO15*%
X109816094Y-109141255D03*
%TO.N,GPIO13*%
X108168122Y-110847254D03*
%TO.N,GPIO12*%
X108173339Y-109952542D03*
%TO.N,GPIO11*%
X105475000Y-109546004D03*
%TO.N,GPIO14*%
X107805284Y-112500000D03*
%TO.N,GPIO10*%
X106869159Y-109302990D03*
%TO.N,GPIO27_ADC1*%
X116000000Y-105200000D03*
%TO.N,USB_BOOT*%
X121470000Y-109190000D03*
X97830000Y-92040000D03*
%TO.N,DQ*%
X133000000Y-103900000D03*
X117400000Y-105200000D03*
%TO.N,LED_ERR*%
X107039883Y-112145627D03*
X108913914Y-107291827D03*
%TO.N,RESET*%
X102400000Y-109038589D03*
X99600000Y-117600000D03*
X113201359Y-109197404D03*
%TO.N,TXD*%
X128415565Y-102080597D03*
X109500000Y-104548406D03*
%TO.N,RXD*%
X110185836Y-104136544D03*
X129500000Y-102050000D03*
%TO.N,SCL*%
X121400000Y-106400000D03*
X116475000Y-108400000D03*
X121765177Y-103433467D03*
%TO.N,SDA*%
X122600000Y-107400000D03*
X117337499Y-109000000D03*
%TO.N,Net-(D3-A)*%
X120300000Y-116900000D03*
X127600000Y-110800000D03*
%TO.N,Net-(U6-CSB)*%
X124344853Y-106555147D03*
X125650000Y-101750000D03*
%TD*%
D19*
%TO.N,GND*%
X125800000Y-103200000D02*
X123200000Y-100600000D01*
X125800000Y-103500000D02*
X125800000Y-103200000D01*
D20*
%TO.N,VCC*%
X133700000Y-109200000D02*
X130100000Y-109200000D01*
X135500000Y-111000000D02*
X133700000Y-109200000D01*
%TO.N,BATT*%
X115875000Y-105990175D02*
X115875000Y-105923529D01*
D19*
X136000000Y-114860000D02*
X132360000Y-114860000D01*
D20*
X128800000Y-107800000D02*
X128800000Y-111300000D01*
X125200000Y-104200000D02*
X128800000Y-107800000D01*
X115751471Y-105800000D02*
X119551471Y-105800000D01*
X115875000Y-105923529D02*
X115751471Y-105800000D01*
D19*
X132360000Y-114860000D02*
X128800000Y-111300000D01*
D20*
X121151471Y-104200000D02*
X125200000Y-104200000D01*
X119551471Y-105800000D02*
X121151471Y-104200000D01*
%TO.N,1V1*%
X113801359Y-111301359D02*
X113801359Y-107251359D01*
X113801359Y-107251359D02*
X111550000Y-105000000D01*
X111550000Y-105000000D02*
X111550000Y-104300000D01*
X114300000Y-111800000D02*
X113801359Y-111301359D01*
%TO.N,NSEL*%
X109513914Y-107013914D02*
X109513914Y-107990546D01*
X108912911Y-106490321D02*
X108990321Y-106490321D01*
X108990321Y-106490321D02*
X109513914Y-107013914D01*
X109513914Y-107990546D02*
X119992732Y-118469364D01*
X119992732Y-118469364D02*
X119992732Y-121896724D01*
%TO.N,NIRQ*%
X117740539Y-119795464D02*
X119240000Y-121294925D01*
X116695465Y-119995464D02*
X117002061Y-119995464D01*
X117002061Y-119995464D02*
X117202061Y-119795464D01*
X109125000Y-112424999D02*
X116695465Y-119995464D01*
X117202061Y-119795464D02*
X117740539Y-119795464D01*
X109125000Y-108725000D02*
X109125000Y-112424999D01*
X119240000Y-121294925D02*
X119240000Y-121590000D01*
D21*
%TO.N,SDN*%
X107104306Y-113200000D02*
X108988604Y-113200000D01*
X108988604Y-113200000D02*
X116234068Y-120445464D01*
X106125000Y-112220694D02*
X107104306Y-113200000D01*
X106325000Y-108700000D02*
X106125000Y-108900000D01*
X116234068Y-120445464D02*
X117471300Y-120445464D01*
X106125000Y-108900000D02*
X106125000Y-112220694D01*
D20*
%TO.N,RESET*%
X104692172Y-109038589D02*
X102400000Y-109038589D01*
X113201359Y-109197404D02*
X109844276Y-105840321D01*
X108308993Y-106175000D02*
X107555761Y-106175000D01*
X107555761Y-106175000D02*
X104692172Y-109038589D01*
X108643672Y-105840321D02*
X108308993Y-106175000D01*
X109844276Y-105840321D02*
X108643672Y-105840321D01*
D21*
%TO.N,Net-(D3-A)*%
X121500000Y-116900000D02*
X127600000Y-110800000D01*
X120300000Y-116900000D02*
X121500000Y-116900000D01*
%TD*%
%TA.AperFunction,Conductor*%
%TO.N,GND*%
G36*
X137354846Y-85929973D02*
G01*
X137401589Y-85981905D01*
X137409561Y-86003441D01*
X137433609Y-86093190D01*
X137433610Y-86093191D01*
X137472886Y-86161217D01*
X137489500Y-86223218D01*
X137489500Y-113656538D01*
X137469815Y-113723577D01*
X137417011Y-113769332D01*
X137347853Y-113779276D01*
X137284297Y-113750251D01*
X137266234Y-113730850D01*
X137210603Y-113656538D01*
X137207546Y-113652454D01*
X137207544Y-113652453D01*
X137207544Y-113652452D01*
X137092335Y-113566206D01*
X137092328Y-113566202D01*
X136957482Y-113515908D01*
X136957483Y-113515908D01*
X136897883Y-113509501D01*
X136897881Y-113509500D01*
X136897873Y-113509500D01*
X136897864Y-113509500D01*
X135102129Y-113509500D01*
X135102123Y-113509501D01*
X135042516Y-113515908D01*
X134907671Y-113566202D01*
X134907664Y-113566206D01*
X134792455Y-113652452D01*
X134792452Y-113652455D01*
X134706206Y-113767664D01*
X134706202Y-113767671D01*
X134664742Y-113878833D01*
X134622871Y-113934767D01*
X134557407Y-113959184D01*
X134548560Y-113959500D01*
X132784361Y-113959500D01*
X132717322Y-113939815D01*
X132696680Y-113923181D01*
X129436819Y-110663319D01*
X129403334Y-110601996D01*
X129400500Y-110575638D01*
X129400500Y-109930012D01*
X129420185Y-109862973D01*
X129472989Y-109817218D01*
X129542147Y-109807274D01*
X129590532Y-109828194D01*
X129591842Y-109826111D01*
X129597737Y-109829815D01*
X129597738Y-109829816D01*
X129620557Y-109844154D01*
X129734561Y-109915788D01*
X129750478Y-109925789D01*
X129903258Y-109979249D01*
X129920745Y-109985368D01*
X129920750Y-109985369D01*
X130099996Y-110005565D01*
X130100000Y-110005565D01*
X130100004Y-110005565D01*
X130279249Y-109985369D01*
X130279252Y-109985368D01*
X130279255Y-109985368D01*
X130449522Y-109925789D01*
X130602262Y-109829816D01*
X130602267Y-109829810D01*
X130605097Y-109827555D01*
X130607275Y-109826665D01*
X130608158Y-109826111D01*
X130608255Y-109826265D01*
X130669783Y-109801145D01*
X130682412Y-109800500D01*
X133399903Y-109800500D01*
X133466942Y-109820185D01*
X133487584Y-109836819D01*
X134669298Y-111018533D01*
X134702783Y-111079856D01*
X134704837Y-111092330D01*
X134714630Y-111179249D01*
X134774210Y-111349521D01*
X134823215Y-111427511D01*
X134870184Y-111502262D01*
X134997738Y-111629816D01*
X135019478Y-111643476D01*
X135143661Y-111721506D01*
X135150478Y-111725789D01*
X135259602Y-111763973D01*
X135320745Y-111785368D01*
X135320750Y-111785369D01*
X135499996Y-111805565D01*
X135500000Y-111805565D01*
X135500004Y-111805565D01*
X135679249Y-111785369D01*
X135679252Y-111785368D01*
X135679255Y-111785368D01*
X135849522Y-111725789D01*
X136002262Y-111629816D01*
X136129816Y-111502262D01*
X136225789Y-111349522D01*
X136285368Y-111179255D01*
X136295162Y-111092330D01*
X136305565Y-111000003D01*
X136305565Y-110999996D01*
X136285369Y-110820750D01*
X136285368Y-110820745D01*
X136244604Y-110704249D01*
X136225789Y-110650478D01*
X136207106Y-110620745D01*
X136149392Y-110528893D01*
X136129816Y-110497738D01*
X136002262Y-110370184D01*
X135886965Y-110297738D01*
X135849521Y-110274210D01*
X135679249Y-110214630D01*
X135592330Y-110204837D01*
X135527916Y-110177770D01*
X135518533Y-110169298D01*
X134187590Y-108838355D01*
X134187588Y-108838352D01*
X134068717Y-108719481D01*
X134068709Y-108719475D01*
X133966936Y-108660717D01*
X133966934Y-108660716D01*
X133931790Y-108640425D01*
X133931789Y-108640424D01*
X133919263Y-108637067D01*
X133779057Y-108599499D01*
X133620943Y-108599499D01*
X133613347Y-108599499D01*
X133613331Y-108599500D01*
X130682412Y-108599500D01*
X130615373Y-108579815D01*
X130605097Y-108572445D01*
X130602263Y-108570185D01*
X130602262Y-108570184D01*
X130529439Y-108524426D01*
X130449523Y-108474211D01*
X130279254Y-108414631D01*
X130279249Y-108414630D01*
X130100004Y-108394435D01*
X130099996Y-108394435D01*
X129920750Y-108414630D01*
X129920745Y-108414631D01*
X129750476Y-108474211D01*
X129591842Y-108573889D01*
X129590402Y-108571598D01*
X129537096Y-108593346D01*
X129468404Y-108580573D01*
X129417522Y-108532690D01*
X129400500Y-108469987D01*
X129400500Y-107889059D01*
X129400501Y-107889046D01*
X129400501Y-107720945D01*
X129400501Y-107720943D01*
X129359577Y-107568215D01*
X129325982Y-107510027D01*
X129280520Y-107431284D01*
X129168716Y-107319480D01*
X129168715Y-107319479D01*
X129164385Y-107315149D01*
X129164374Y-107315139D01*
X125749231Y-103899996D01*
X132194435Y-103899996D01*
X132194435Y-103900003D01*
X132214630Y-104079249D01*
X132214631Y-104079254D01*
X132274211Y-104249523D01*
X132347802Y-104366642D01*
X132370184Y-104402262D01*
X132497738Y-104529816D01*
X132557914Y-104567627D01*
X132599962Y-104594048D01*
X132650478Y-104625789D01*
X132765509Y-104666040D01*
X132820745Y-104685368D01*
X132820750Y-104685369D01*
X132999996Y-104705565D01*
X133000000Y-104705565D01*
X133000004Y-104705565D01*
X133179249Y-104685369D01*
X133179252Y-104685368D01*
X133179255Y-104685368D01*
X133349522Y-104625789D01*
X133502262Y-104529816D01*
X133629816Y-104402262D01*
X133725789Y-104249522D01*
X133785368Y-104079255D01*
X133785369Y-104079249D01*
X133805565Y-103900003D01*
X133805565Y-103899996D01*
X133785369Y-103720750D01*
X133785368Y-103720745D01*
X133784201Y-103717410D01*
X133725789Y-103550478D01*
X133725188Y-103549522D01*
X133676098Y-103471395D01*
X133629816Y-103397738D01*
X133502262Y-103270184D01*
X133476843Y-103254212D01*
X133349523Y-103174211D01*
X133179254Y-103114631D01*
X133179249Y-103114630D01*
X133000004Y-103094435D01*
X132999996Y-103094435D01*
X132820750Y-103114630D01*
X132820745Y-103114631D01*
X132650476Y-103174211D01*
X132497737Y-103270184D01*
X132370184Y-103397737D01*
X132274211Y-103550476D01*
X132214631Y-103720745D01*
X132214630Y-103720750D01*
X132194435Y-103899996D01*
X125749231Y-103899996D01*
X125687590Y-103838355D01*
X125687588Y-103838352D01*
X125568717Y-103719481D01*
X125568716Y-103719480D01*
X125481904Y-103669360D01*
X125481904Y-103669359D01*
X125481900Y-103669358D01*
X125431785Y-103640423D01*
X125279057Y-103599499D01*
X125120943Y-103599499D01*
X125113347Y-103599499D01*
X125113331Y-103599500D01*
X122690791Y-103599500D01*
X122623752Y-103579815D01*
X122577997Y-103527011D01*
X122567571Y-103461618D01*
X122570742Y-103433472D01*
X122570742Y-103433463D01*
X122550546Y-103254217D01*
X122550545Y-103254212D01*
X122521142Y-103170184D01*
X122490966Y-103083945D01*
X122394993Y-102931205D01*
X122267439Y-102803651D01*
X122263615Y-102801248D01*
X122114700Y-102707678D01*
X121944430Y-102648098D01*
X121936885Y-102647248D01*
X121872472Y-102620179D01*
X121832918Y-102562583D01*
X121830783Y-102492746D01*
X121845779Y-102458055D01*
X121873065Y-102414631D01*
X121895293Y-102379255D01*
X121910908Y-102354404D01*
X121943993Y-102259852D01*
X121970488Y-102184135D01*
X121971602Y-102174247D01*
X121990685Y-102004883D01*
X121990685Y-102004876D01*
X121970489Y-101825630D01*
X121970488Y-101825625D01*
X121956548Y-101785788D01*
X121944024Y-101749996D01*
X124844435Y-101749996D01*
X124844435Y-101750003D01*
X124864630Y-101929249D01*
X124864631Y-101929254D01*
X124924211Y-102099523D01*
X124987347Y-102200003D01*
X125020184Y-102252262D01*
X125147738Y-102379816D01*
X125212876Y-102420745D01*
X125297966Y-102474211D01*
X125300478Y-102475789D01*
X125390080Y-102507142D01*
X125470745Y-102535368D01*
X125470750Y-102535369D01*
X125649996Y-102555565D01*
X125650000Y-102555565D01*
X125650004Y-102555565D01*
X125829249Y-102535369D01*
X125829252Y-102535368D01*
X125829255Y-102535368D01*
X125999522Y-102475789D01*
X126152262Y-102379816D01*
X126279816Y-102252262D01*
X126375789Y-102099522D01*
X126382413Y-102080593D01*
X127610000Y-102080593D01*
X127610000Y-102080600D01*
X127630195Y-102259846D01*
X127630196Y-102259851D01*
X127689776Y-102430120D01*
X127768599Y-102555565D01*
X127785749Y-102582859D01*
X127913303Y-102710413D01*
X127993818Y-102761004D01*
X128041710Y-102791097D01*
X128066043Y-102806386D01*
X128192045Y-102850476D01*
X128236310Y-102865965D01*
X128236315Y-102865966D01*
X128415561Y-102886162D01*
X128415565Y-102886162D01*
X128415569Y-102886162D01*
X128594814Y-102865966D01*
X128594817Y-102865965D01*
X128594820Y-102865965D01*
X128765087Y-102806386D01*
X128790771Y-102790248D01*
X128837307Y-102761007D01*
X128916158Y-102711461D01*
X128983393Y-102692461D01*
X129048100Y-102711460D01*
X129150478Y-102775789D01*
X129304878Y-102829816D01*
X129320745Y-102835368D01*
X129320750Y-102835369D01*
X129499996Y-102855565D01*
X129500000Y-102855565D01*
X129500004Y-102855565D01*
X129679249Y-102835369D01*
X129679252Y-102835368D01*
X129679255Y-102835368D01*
X129849522Y-102775789D01*
X130002262Y-102679816D01*
X130123086Y-102558992D01*
X134449500Y-102558992D01*
X134449500Y-102761007D01*
X134488907Y-102959119D01*
X134488909Y-102959127D01*
X134566214Y-103145756D01*
X134619903Y-103226110D01*
X134640780Y-103292787D01*
X134622295Y-103360167D01*
X134619903Y-103363888D01*
X134566214Y-103444241D01*
X134488909Y-103630871D01*
X134488907Y-103630879D01*
X134449500Y-103828991D01*
X134449500Y-104031006D01*
X134488907Y-104229118D01*
X134488910Y-104229130D01*
X134522547Y-104310337D01*
X134530016Y-104379806D01*
X134510406Y-104424860D01*
X134510897Y-104425128D01*
X134507908Y-104430600D01*
X134507260Y-104432091D01*
X134506649Y-104432907D01*
X134506645Y-104432913D01*
X134456403Y-104567620D01*
X134456401Y-104567627D01*
X134450000Y-104627155D01*
X134450000Y-104950000D01*
X135334139Y-104950000D01*
X135358331Y-104952383D01*
X135361222Y-104952958D01*
X135373995Y-104955498D01*
X135373996Y-104955499D01*
X135373997Y-104955499D01*
X135414171Y-104955499D01*
X135399925Y-104969745D01*
X135350556Y-105055255D01*
X135325000Y-105150630D01*
X135325000Y-105249370D01*
X135350556Y-105344745D01*
X135399925Y-105430255D01*
X135419670Y-105450000D01*
X134450000Y-105450000D01*
X134450000Y-105772844D01*
X134456401Y-105832372D01*
X134456403Y-105832378D01*
X134506645Y-105967086D01*
X134506649Y-105967093D01*
X134592809Y-106082187D01*
X134592812Y-106082190D01*
X134707906Y-106168350D01*
X134707913Y-106168354D01*
X134842620Y-106218596D01*
X134842627Y-106218598D01*
X134902155Y-106224999D01*
X134902172Y-106225000D01*
X135450000Y-106225000D01*
X135450000Y-105480330D01*
X135469745Y-105500075D01*
X135555255Y-105549444D01*
X135650630Y-105575000D01*
X135749370Y-105575000D01*
X135844745Y-105549444D01*
X135930255Y-105500075D01*
X135950000Y-105480330D01*
X135950000Y-106225000D01*
X136497828Y-106225000D01*
X136497844Y-106224999D01*
X136557372Y-106218598D01*
X136557379Y-106218596D01*
X136692086Y-106168354D01*
X136692093Y-106168350D01*
X136807187Y-106082190D01*
X136807190Y-106082187D01*
X136893350Y-105967093D01*
X136893354Y-105967086D01*
X136943597Y-105832378D01*
X136943598Y-105832372D01*
X136949999Y-105772844D01*
X136950000Y-105772827D01*
X136950000Y-105450000D01*
X135980330Y-105450000D01*
X136000075Y-105430255D01*
X136049444Y-105344745D01*
X136075000Y-105249370D01*
X136075000Y-105150630D01*
X136049444Y-105055255D01*
X136000075Y-104969745D01*
X135985829Y-104955499D01*
X136026004Y-104955499D01*
X136026004Y-104955498D01*
X136039390Y-104952836D01*
X136041669Y-104952383D01*
X136065861Y-104950000D01*
X136950000Y-104950000D01*
X136950000Y-104627172D01*
X136949999Y-104627155D01*
X136943598Y-104567627D01*
X136943597Y-104567623D01*
X136893351Y-104432910D01*
X136892749Y-104432105D01*
X136892395Y-104431158D01*
X136889101Y-104425124D01*
X136889968Y-104424650D01*
X136868328Y-104366642D01*
X136877452Y-104310337D01*
X136911091Y-104229126D01*
X136950500Y-104031002D01*
X136950500Y-103828996D01*
X136911091Y-103630872D01*
X136833786Y-103444243D01*
X136780095Y-103363888D01*
X136759218Y-103297212D01*
X136777703Y-103229832D01*
X136780066Y-103226152D01*
X136833786Y-103145756D01*
X136911091Y-102959127D01*
X136950500Y-102761003D01*
X136950500Y-102558997D01*
X136911091Y-102360873D01*
X136833786Y-102174244D01*
X136833784Y-102174241D01*
X136833782Y-102174237D01*
X136721558Y-102006281D01*
X136578718Y-101863441D01*
X136410762Y-101751217D01*
X136410752Y-101751212D01*
X136224127Y-101673909D01*
X136224119Y-101673907D01*
X136026007Y-101634500D01*
X136026003Y-101634500D01*
X135373997Y-101634500D01*
X135373992Y-101634500D01*
X135175880Y-101673907D01*
X135175872Y-101673909D01*
X134989247Y-101751212D01*
X134989237Y-101751217D01*
X134821281Y-101863441D01*
X134678441Y-102006281D01*
X134566217Y-102174237D01*
X134566212Y-102174247D01*
X134488909Y-102360872D01*
X134488907Y-102360880D01*
X134449500Y-102558992D01*
X130123086Y-102558992D01*
X130129816Y-102552262D01*
X130225789Y-102399522D01*
X130285368Y-102229255D01*
X130288664Y-102200003D01*
X130305565Y-102050003D01*
X130305565Y-102049996D01*
X130285369Y-101870750D01*
X130285368Y-101870745D01*
X130276488Y-101845368D01*
X130225789Y-101700478D01*
X130224067Y-101697738D01*
X130144272Y-101570745D01*
X130129816Y-101547738D01*
X130002262Y-101420184D01*
X129993426Y-101414632D01*
X129849523Y-101324211D01*
X129679254Y-101264631D01*
X129679249Y-101264630D01*
X129500004Y-101244435D01*
X129499996Y-101244435D01*
X129320750Y-101264630D01*
X129320745Y-101264631D01*
X129150476Y-101324211D01*
X128999407Y-101419135D01*
X128932170Y-101438135D01*
X128867463Y-101419135D01*
X128765088Y-101354808D01*
X128594819Y-101295228D01*
X128594814Y-101295227D01*
X128415569Y-101275032D01*
X128415561Y-101275032D01*
X128236315Y-101295227D01*
X128236310Y-101295228D01*
X128066041Y-101354808D01*
X127913302Y-101450781D01*
X127785749Y-101578334D01*
X127689776Y-101731073D01*
X127630196Y-101901342D01*
X127630195Y-101901347D01*
X127610000Y-102080593D01*
X126382413Y-102080593D01*
X126435368Y-101929255D01*
X126436166Y-101922171D01*
X126455565Y-101750003D01*
X126455565Y-101749996D01*
X126435369Y-101570750D01*
X126435368Y-101570745D01*
X126432135Y-101561505D01*
X126375789Y-101400478D01*
X126279816Y-101247738D01*
X126152262Y-101120184D01*
X126056480Y-101060000D01*
X125999523Y-101024211D01*
X125829254Y-100964631D01*
X125829249Y-100964630D01*
X125650004Y-100944435D01*
X125649996Y-100944435D01*
X125470750Y-100964630D01*
X125470745Y-100964631D01*
X125300476Y-101024211D01*
X125147737Y-101120184D01*
X125020184Y-101247737D01*
X124924211Y-101400476D01*
X124864631Y-101570745D01*
X124864630Y-101570750D01*
X124844435Y-101749996D01*
X121944024Y-101749996D01*
X121910909Y-101655358D01*
X121814936Y-101502618D01*
X121687382Y-101375064D01*
X121651472Y-101352500D01*
X121534643Y-101279091D01*
X121364374Y-101219511D01*
X121364369Y-101219510D01*
X121185124Y-101199315D01*
X121185116Y-101199315D01*
X121005870Y-101219510D01*
X121005865Y-101219511D01*
X120835596Y-101279091D01*
X120682857Y-101375064D01*
X120555304Y-101502617D01*
X120459331Y-101655356D01*
X120399751Y-101825625D01*
X120399750Y-101825630D01*
X120379555Y-102004876D01*
X120379555Y-102004883D01*
X120399750Y-102184129D01*
X120399751Y-102184134D01*
X120459331Y-102354403D01*
X120546258Y-102492746D01*
X120555304Y-102507142D01*
X120682858Y-102634696D01*
X120754666Y-102679816D01*
X120805028Y-102711461D01*
X120835598Y-102730669D01*
X121005865Y-102790248D01*
X121013405Y-102791097D01*
X121077818Y-102818162D01*
X121117375Y-102875756D01*
X121119515Y-102945592D01*
X121104518Y-102980290D01*
X121039388Y-103083943D01*
X120979808Y-103254212D01*
X120979807Y-103254217D01*
X120959612Y-103433463D01*
X120959612Y-103433472D01*
X120969976Y-103525464D01*
X120957921Y-103594285D01*
X120910571Y-103645664D01*
X120908756Y-103646733D01*
X120782758Y-103719477D01*
X120782753Y-103719481D01*
X119339055Y-105163181D01*
X119277732Y-105196666D01*
X119251374Y-105199500D01*
X118316322Y-105199500D01*
X118249283Y-105179815D01*
X118203528Y-105127011D01*
X118193102Y-105089383D01*
X118185369Y-105020750D01*
X118185368Y-105020748D01*
X118185368Y-105020745D01*
X118125789Y-104850478D01*
X118029816Y-104697738D01*
X117902262Y-104570184D01*
X117838017Y-104529816D01*
X117749523Y-104474211D01*
X117579254Y-104414631D01*
X117579249Y-104414630D01*
X117400004Y-104394435D01*
X117399996Y-104394435D01*
X117220750Y-104414630D01*
X117220745Y-104414631D01*
X117050476Y-104474211D01*
X116897737Y-104570184D01*
X116787681Y-104680241D01*
X116726358Y-104713726D01*
X116656666Y-104708742D01*
X116612319Y-104680241D01*
X116502262Y-104570184D01*
X116349523Y-104474211D01*
X116179254Y-104414631D01*
X116179249Y-104414630D01*
X116000004Y-104394435D01*
X115999996Y-104394435D01*
X115820750Y-104414630D01*
X115820745Y-104414631D01*
X115650476Y-104474211D01*
X115497737Y-104570184D01*
X115370184Y-104697737D01*
X115274211Y-104850476D01*
X115214631Y-105020745D01*
X115214630Y-105020750D01*
X115194435Y-105199996D01*
X115194435Y-105200003D01*
X115214630Y-105379250D01*
X115228433Y-105418695D01*
X115231994Y-105488474D01*
X115218779Y-105521649D01*
X115191888Y-105568225D01*
X115190408Y-105571798D01*
X115180852Y-105590292D01*
X115149210Y-105640653D01*
X115089633Y-105810912D01*
X115089630Y-105810925D01*
X115069435Y-105990171D01*
X115069435Y-105990178D01*
X115089630Y-106169424D01*
X115089631Y-106169429D01*
X115149211Y-106339698D01*
X115245184Y-106492437D01*
X115372738Y-106619991D01*
X115525478Y-106715964D01*
X115680430Y-106770184D01*
X115695745Y-106775543D01*
X115695750Y-106775544D01*
X115874996Y-106795740D01*
X115875000Y-106795740D01*
X115875004Y-106795740D01*
X116054249Y-106775544D01*
X116054252Y-106775543D01*
X116054255Y-106775543D01*
X116224522Y-106715964D01*
X116377262Y-106619991D01*
X116504816Y-106492437D01*
X116526123Y-106458527D01*
X116578456Y-106412237D01*
X116631116Y-106400500D01*
X119464802Y-106400500D01*
X119464818Y-106400501D01*
X119472414Y-106400501D01*
X119630525Y-106400501D01*
X119630528Y-106400501D01*
X119632413Y-106399996D01*
X120594435Y-106399996D01*
X120594435Y-106400003D01*
X120614630Y-106579249D01*
X120614631Y-106579254D01*
X120674211Y-106749523D01*
X120767341Y-106897737D01*
X120770184Y-106902262D01*
X120897738Y-107029816D01*
X121050478Y-107125789D01*
X121183405Y-107172302D01*
X121220745Y-107185368D01*
X121220750Y-107185369D01*
X121399996Y-107205565D01*
X121400000Y-107205565D01*
X121400004Y-107205565D01*
X121579249Y-107185369D01*
X121579252Y-107185368D01*
X121579255Y-107185368D01*
X121579256Y-107185367D01*
X121579259Y-107185367D01*
X121642170Y-107163353D01*
X121711949Y-107159790D01*
X121772577Y-107194519D01*
X121804804Y-107256512D01*
X121806346Y-107294277D01*
X121794435Y-107399995D01*
X121794435Y-107400003D01*
X121814630Y-107579249D01*
X121814631Y-107579254D01*
X121874211Y-107749523D01*
X121937646Y-107850478D01*
X121970184Y-107902262D01*
X122097738Y-108029816D01*
X122250478Y-108125789D01*
X122405433Y-108180010D01*
X122420745Y-108185368D01*
X122420750Y-108185369D01*
X122599996Y-108205565D01*
X122600000Y-108205565D01*
X122600004Y-108205565D01*
X122649430Y-108199996D01*
X125094435Y-108199996D01*
X125094435Y-108200003D01*
X125114630Y-108379249D01*
X125114631Y-108379254D01*
X125174211Y-108549523D01*
X125250784Y-108671387D01*
X125270184Y-108702262D01*
X125397738Y-108829816D01*
X125550478Y-108925789D01*
X125629580Y-108953468D01*
X125720745Y-108985368D01*
X125720750Y-108985369D01*
X125899996Y-109005565D01*
X125900000Y-109005565D01*
X125900004Y-109005565D01*
X126079249Y-108985369D01*
X126079252Y-108985368D01*
X126079255Y-108985368D01*
X126249522Y-108925789D01*
X126402262Y-108829816D01*
X126529816Y-108702262D01*
X126625789Y-108549522D01*
X126685368Y-108379255D01*
X126686968Y-108365056D01*
X126705565Y-108200003D01*
X126705565Y-108199996D01*
X126685369Y-108020750D01*
X126685368Y-108020745D01*
X126648509Y-107915409D01*
X126625789Y-107850478D01*
X126529816Y-107697738D01*
X126402262Y-107570184D01*
X126359214Y-107543135D01*
X126249523Y-107474211D01*
X126079254Y-107414631D01*
X126079249Y-107414630D01*
X125900004Y-107394435D01*
X125899996Y-107394435D01*
X125720750Y-107414630D01*
X125720745Y-107414631D01*
X125550476Y-107474211D01*
X125397737Y-107570184D01*
X125270184Y-107697737D01*
X125174211Y-107850476D01*
X125114631Y-108020745D01*
X125114630Y-108020750D01*
X125094435Y-108199996D01*
X122649430Y-108199996D01*
X122779249Y-108185369D01*
X122779252Y-108185368D01*
X122779255Y-108185368D01*
X122949522Y-108125789D01*
X123102262Y-108029816D01*
X123229816Y-107902262D01*
X123325789Y-107749522D01*
X123385368Y-107579255D01*
X123393168Y-107510026D01*
X123405565Y-107400003D01*
X123405565Y-107399996D01*
X123385369Y-107220750D01*
X123385368Y-107220745D01*
X123352141Y-107125788D01*
X123325789Y-107050478D01*
X123229816Y-106897738D01*
X123102262Y-106770184D01*
X123069379Y-106749522D01*
X122949523Y-106674211D01*
X122779254Y-106614631D01*
X122779249Y-106614630D01*
X122600004Y-106594435D01*
X122599996Y-106594435D01*
X122420750Y-106614630D01*
X122420742Y-106614632D01*
X122357827Y-106636647D01*
X122288048Y-106640208D01*
X122227421Y-106605479D01*
X122201254Y-106555143D01*
X123539288Y-106555143D01*
X123539288Y-106555150D01*
X123559483Y-106734396D01*
X123559484Y-106734401D01*
X123619064Y-106904670D01*
X123697699Y-107029816D01*
X123715037Y-107057409D01*
X123842591Y-107184963D01*
X123995331Y-107280936D01*
X124165598Y-107340515D01*
X124165603Y-107340516D01*
X124344849Y-107360712D01*
X124344853Y-107360712D01*
X124344857Y-107360712D01*
X124524102Y-107340516D01*
X124524105Y-107340515D01*
X124524108Y-107340515D01*
X124694375Y-107280936D01*
X124847115Y-107184963D01*
X124974669Y-107057409D01*
X125070642Y-106904669D01*
X125130221Y-106734402D01*
X125130222Y-106734396D01*
X125150418Y-106555150D01*
X125150418Y-106555143D01*
X125130222Y-106375897D01*
X125130221Y-106375892D01*
X125096848Y-106280518D01*
X125070642Y-106205625D01*
X125053594Y-106178494D01*
X125031435Y-106143227D01*
X124974669Y-106052885D01*
X124847115Y-105925331D01*
X124803201Y-105897738D01*
X124694376Y-105829358D01*
X124524107Y-105769778D01*
X124524102Y-105769777D01*
X124344857Y-105749582D01*
X124344849Y-105749582D01*
X124165603Y-105769777D01*
X124165598Y-105769778D01*
X123995329Y-105829358D01*
X123842590Y-105925331D01*
X123715037Y-106052884D01*
X123619064Y-106205623D01*
X123559484Y-106375892D01*
X123559483Y-106375897D01*
X123539288Y-106555143D01*
X122201254Y-106555143D01*
X122195194Y-106543485D01*
X122193653Y-106505721D01*
X122205565Y-106400002D01*
X122205565Y-106399996D01*
X122185369Y-106220750D01*
X122185368Y-106220745D01*
X122163588Y-106158501D01*
X122125789Y-106050478D01*
X122029816Y-105897738D01*
X121902262Y-105770184D01*
X121831608Y-105725789D01*
X121749523Y-105674211D01*
X121579254Y-105614631D01*
X121579249Y-105614630D01*
X121400004Y-105594435D01*
X121399996Y-105594435D01*
X121220750Y-105614630D01*
X121220745Y-105614631D01*
X121050476Y-105674211D01*
X120897737Y-105770184D01*
X120770184Y-105897737D01*
X120674211Y-106050476D01*
X120614631Y-106220745D01*
X120614630Y-106220750D01*
X120594435Y-106399996D01*
X119632413Y-106399996D01*
X119783256Y-106359577D01*
X119850348Y-106320841D01*
X119920187Y-106280520D01*
X120031991Y-106168716D01*
X120031991Y-106168714D01*
X120042195Y-106158511D01*
X120042198Y-106158506D01*
X121363888Y-104836819D01*
X121425211Y-104803334D01*
X121451569Y-104800500D01*
X124899903Y-104800500D01*
X124966942Y-104820185D01*
X124987584Y-104836819D01*
X128163181Y-108012416D01*
X128196666Y-108073739D01*
X128199500Y-108100097D01*
X128199500Y-110006921D01*
X128179815Y-110073960D01*
X128127011Y-110119715D01*
X128057853Y-110129659D01*
X128009528Y-110111915D01*
X127949523Y-110074211D01*
X127779254Y-110014631D01*
X127779249Y-110014630D01*
X127600004Y-109994435D01*
X127599996Y-109994435D01*
X127420750Y-110014630D01*
X127420745Y-110014631D01*
X127250476Y-110074211D01*
X127097737Y-110170184D01*
X126970184Y-110297737D01*
X126874210Y-110450478D01*
X126814632Y-110620744D01*
X126814630Y-110620752D01*
X126813815Y-110627988D01*
X126786743Y-110692400D01*
X126778277Y-110701775D01*
X121266873Y-116213181D01*
X121205550Y-116246666D01*
X121179192Y-116249500D01*
X120805068Y-116249500D01*
X120739096Y-116230494D01*
X120649522Y-116174210D01*
X120649518Y-116174209D01*
X120479262Y-116114633D01*
X120479249Y-116114630D01*
X120300004Y-116094435D01*
X120299996Y-116094435D01*
X120120750Y-116114630D01*
X120120745Y-116114631D01*
X119950476Y-116174211D01*
X119797737Y-116270184D01*
X119670184Y-116397737D01*
X119574211Y-116550476D01*
X119514631Y-116720745D01*
X119514630Y-116720749D01*
X119500800Y-116843498D01*
X119473733Y-116907912D01*
X119416138Y-116947467D01*
X119346301Y-116949604D01*
X119289899Y-116917295D01*
X115222578Y-112849974D01*
X115189093Y-112788651D01*
X115194077Y-112718959D01*
X115235949Y-112663026D01*
X115296376Y-112639073D01*
X115329249Y-112635369D01*
X115329252Y-112635368D01*
X115329255Y-112635368D01*
X115499522Y-112575789D01*
X115652262Y-112479816D01*
X115779816Y-112352262D01*
X115875789Y-112199522D01*
X115935368Y-112029255D01*
X115935369Y-112029249D01*
X115953303Y-111870080D01*
X115980369Y-111805666D01*
X116037964Y-111766111D01*
X116107801Y-111763973D01*
X116164204Y-111796282D01*
X116197738Y-111829816D01*
X116350478Y-111925789D01*
X116520745Y-111985368D01*
X116520750Y-111985369D01*
X116699996Y-112005565D01*
X116700000Y-112005565D01*
X116700004Y-112005565D01*
X116879249Y-111985369D01*
X116879252Y-111985368D01*
X116879255Y-111985368D01*
X117049522Y-111925789D01*
X117202262Y-111829816D01*
X117329816Y-111702262D01*
X117425789Y-111549522D01*
X117485368Y-111379255D01*
X117485735Y-111376000D01*
X117505565Y-111200003D01*
X117505565Y-111199996D01*
X117485369Y-111020750D01*
X117485368Y-111020745D01*
X117478108Y-110999996D01*
X117425789Y-110850478D01*
X117411825Y-110828255D01*
X117333907Y-110704249D01*
X117329816Y-110697738D01*
X117202262Y-110570184D01*
X117130357Y-110525003D01*
X117049523Y-110474211D01*
X116989093Y-110453066D01*
X116932317Y-110412344D01*
X116906570Y-110347391D01*
X116920026Y-110278830D01*
X116925049Y-110270060D01*
X116984265Y-110175820D01*
X117000788Y-110149524D01*
X117000789Y-110149522D01*
X117060368Y-109979255D01*
X117064271Y-109944620D01*
X117069283Y-109900131D01*
X117096349Y-109835716D01*
X117153943Y-109796161D01*
X117206386Y-109790793D01*
X117337495Y-109805565D01*
X117337499Y-109805565D01*
X117337503Y-109805565D01*
X117516748Y-109785369D01*
X117516751Y-109785368D01*
X117516754Y-109785368D01*
X117687021Y-109725789D01*
X117839761Y-109629816D01*
X117967315Y-109502262D01*
X118063288Y-109349522D01*
X118119109Y-109189996D01*
X120664435Y-109189996D01*
X120664435Y-109190003D01*
X120684630Y-109369249D01*
X120684631Y-109369254D01*
X120744211Y-109539523D01*
X120806773Y-109639089D01*
X120840184Y-109692262D01*
X120967738Y-109819816D01*
X121006472Y-109844154D01*
X121088229Y-109895526D01*
X121120478Y-109915789D01*
X121209160Y-109946820D01*
X121290745Y-109975368D01*
X121290750Y-109975369D01*
X121469996Y-109995565D01*
X121470000Y-109995565D01*
X121470004Y-109995565D01*
X121649249Y-109975369D01*
X121649252Y-109975368D01*
X121649255Y-109975368D01*
X121819522Y-109915789D01*
X121972262Y-109819816D01*
X122099816Y-109692262D01*
X122195789Y-109539522D01*
X122255368Y-109369255D01*
X122255369Y-109369249D01*
X122275565Y-109190003D01*
X122275565Y-109189996D01*
X122255369Y-109010750D01*
X122255368Y-109010745D01*
X122226240Y-108927501D01*
X122195789Y-108840478D01*
X122099816Y-108687738D01*
X121972262Y-108560184D01*
X121955294Y-108549522D01*
X121819523Y-108464211D01*
X121649254Y-108404631D01*
X121649249Y-108404630D01*
X121470004Y-108384435D01*
X121469996Y-108384435D01*
X121290750Y-108404630D01*
X121290745Y-108404631D01*
X121120476Y-108464211D01*
X120967737Y-108560184D01*
X120840184Y-108687737D01*
X120744211Y-108840476D01*
X120684631Y-109010745D01*
X120684630Y-109010750D01*
X120664435Y-109189996D01*
X118119109Y-109189996D01*
X118122867Y-109179255D01*
X118123889Y-109170184D01*
X118143064Y-109000003D01*
X118143064Y-108999996D01*
X118122868Y-108820750D01*
X118122867Y-108820745D01*
X118087431Y-108719475D01*
X118063288Y-108650478D01*
X117967315Y-108497738D01*
X117839761Y-108370184D01*
X117806252Y-108349129D01*
X117687022Y-108274211D01*
X117516753Y-108214631D01*
X117516748Y-108214630D01*
X117330580Y-108193655D01*
X117330769Y-108191975D01*
X117272106Y-108174750D01*
X117226351Y-108121946D01*
X117222104Y-108111390D01*
X117200790Y-108050481D01*
X117200789Y-108050477D01*
X117119837Y-107921644D01*
X117104816Y-107897738D01*
X116977262Y-107770184D01*
X116932105Y-107741810D01*
X116824523Y-107674211D01*
X116654254Y-107614631D01*
X116654249Y-107614630D01*
X116475004Y-107594435D01*
X116474996Y-107594435D01*
X116295750Y-107614630D01*
X116295745Y-107614631D01*
X116125476Y-107674211D01*
X115972737Y-107770184D01*
X115845184Y-107897737D01*
X115749211Y-108050476D01*
X115689631Y-108220745D01*
X115689630Y-108220750D01*
X115669435Y-108399996D01*
X115669435Y-108400003D01*
X115689630Y-108579249D01*
X115689631Y-108579254D01*
X115749211Y-108749523D01*
X115845184Y-108902262D01*
X115871816Y-108928894D01*
X115905301Y-108990217D01*
X115900317Y-109059909D01*
X115858445Y-109115842D01*
X115850108Y-109121568D01*
X115772740Y-109170182D01*
X115772737Y-109170184D01*
X115645184Y-109297737D01*
X115549210Y-109450478D01*
X115489629Y-109620752D01*
X115489627Y-109620779D01*
X115489620Y-109620795D01*
X115488080Y-109627541D01*
X115486898Y-109627271D01*
X115462555Y-109685191D01*
X115404957Y-109724741D01*
X115380292Y-109730105D01*
X115295749Y-109739630D01*
X115295745Y-109739631D01*
X115125476Y-109799211D01*
X114972737Y-109895184D01*
X114845184Y-110022737D01*
X114749211Y-110175476D01*
X114689631Y-110345745D01*
X114689630Y-110345750D01*
X114669435Y-110524996D01*
X114669435Y-110525003D01*
X114689630Y-110704249D01*
X114689631Y-110704254D01*
X114730391Y-110820738D01*
X114733021Y-110828255D01*
X114749212Y-110874524D01*
X114749606Y-110875152D01*
X114749737Y-110875617D01*
X114752231Y-110880795D01*
X114751323Y-110881231D01*
X114768602Y-110942389D01*
X114748232Y-111009224D01*
X114694962Y-111054435D01*
X114625705Y-111063670D01*
X114603655Y-111058161D01*
X114484905Y-111016609D01*
X114428129Y-110975887D01*
X114402381Y-110910935D01*
X114401859Y-110899567D01*
X114401859Y-107172304D01*
X114401859Y-107172302D01*
X114360936Y-107019575D01*
X114360932Y-107019568D01*
X114281883Y-106882649D01*
X114281880Y-106882645D01*
X114281879Y-106882643D01*
X114170075Y-106770839D01*
X114170074Y-106770838D01*
X114165744Y-106766508D01*
X114165733Y-106766498D01*
X112258105Y-104858870D01*
X112224620Y-104797547D01*
X112229604Y-104727855D01*
X112240791Y-104705219D01*
X112275789Y-104649522D01*
X112335368Y-104479255D01*
X112335369Y-104479249D01*
X112355565Y-104300003D01*
X112355565Y-104299996D01*
X112335369Y-104120750D01*
X112335368Y-104120745D01*
X112303966Y-104031003D01*
X112275789Y-103950478D01*
X112179816Y-103797738D01*
X112052262Y-103670184D01*
X112001834Y-103638498D01*
X111899523Y-103574211D01*
X111729254Y-103514631D01*
X111729249Y-103514630D01*
X111550004Y-103494435D01*
X111549996Y-103494435D01*
X111370750Y-103514630D01*
X111370745Y-103514631D01*
X111200476Y-103574211D01*
X111047737Y-103670184D01*
X111029009Y-103688912D01*
X110967686Y-103722396D01*
X110897994Y-103717410D01*
X110842061Y-103675537D01*
X110836336Y-103667201D01*
X110822803Y-103645664D01*
X110815652Y-103634282D01*
X110688098Y-103506728D01*
X110631877Y-103471402D01*
X110535359Y-103410755D01*
X110365090Y-103351175D01*
X110365085Y-103351174D01*
X110185840Y-103330979D01*
X110185832Y-103330979D01*
X110006586Y-103351174D01*
X110006581Y-103351175D01*
X109836312Y-103410755D01*
X109683573Y-103506728D01*
X109556021Y-103634280D01*
X109518648Y-103693758D01*
X109466312Y-103740048D01*
X109427539Y-103751004D01*
X109320748Y-103763036D01*
X109256484Y-103785523D01*
X109186705Y-103789084D01*
X109126078Y-103754354D01*
X109093852Y-103692360D01*
X109092311Y-103682364D01*
X109085369Y-103620749D01*
X109085368Y-103620745D01*
X109069085Y-103574211D01*
X109025789Y-103450478D01*
X109021871Y-103444243D01*
X108963392Y-103351174D01*
X108929816Y-103297738D01*
X108802262Y-103170184D01*
X108713852Y-103114632D01*
X108649523Y-103074211D01*
X108479254Y-103014631D01*
X108479249Y-103014630D01*
X108300004Y-102994435D01*
X108299996Y-102994435D01*
X108120750Y-103014630D01*
X108120745Y-103014631D01*
X107950476Y-103074211D01*
X107797737Y-103170184D01*
X107670184Y-103297737D01*
X107574211Y-103450476D01*
X107514631Y-103620745D01*
X107514630Y-103620750D01*
X107494435Y-103799996D01*
X107494435Y-103800003D01*
X107514630Y-103979249D01*
X107514631Y-103979254D01*
X107574211Y-104149523D01*
X107624232Y-104229130D01*
X107670184Y-104302262D01*
X107797738Y-104429816D01*
X107802667Y-104432913D01*
X107905833Y-104497737D01*
X107950478Y-104525789D01*
X107961984Y-104529815D01*
X108120745Y-104585368D01*
X108120750Y-104585369D01*
X108299996Y-104605565D01*
X108300000Y-104605565D01*
X108300004Y-104605565D01*
X108479249Y-104585369D01*
X108479251Y-104585368D01*
X108479255Y-104585368D01*
X108543513Y-104562882D01*
X108613290Y-104559320D01*
X108673918Y-104594048D01*
X108706146Y-104656041D01*
X108707688Y-104666040D01*
X108714630Y-104727656D01*
X108714631Y-104727660D01*
X108774212Y-104897932D01*
X108869669Y-105049849D01*
X108888670Y-105117085D01*
X108868303Y-105183920D01*
X108815035Y-105229135D01*
X108764676Y-105239821D01*
X108730342Y-105239821D01*
X108730326Y-105239820D01*
X108722730Y-105239820D01*
X108564615Y-105239820D01*
X108488251Y-105260282D01*
X108411886Y-105280744D01*
X108411881Y-105280747D01*
X108274962Y-105359796D01*
X108274954Y-105359802D01*
X108096576Y-105538181D01*
X108035253Y-105571666D01*
X108008895Y-105574500D01*
X107476701Y-105574500D01*
X107435780Y-105585464D01*
X107435780Y-105585465D01*
X107417766Y-105590292D01*
X107323975Y-105615423D01*
X107323970Y-105615426D01*
X107187051Y-105694475D01*
X107187043Y-105694481D01*
X107111748Y-105769777D01*
X107075241Y-105806284D01*
X107075239Y-105806286D01*
X105768954Y-107112572D01*
X104479756Y-108401770D01*
X104418433Y-108435255D01*
X104392075Y-108438089D01*
X102982412Y-108438089D01*
X102915373Y-108418404D01*
X102905097Y-108411034D01*
X102902263Y-108408774D01*
X102902262Y-108408773D01*
X102821195Y-108357835D01*
X102749523Y-108312800D01*
X102579254Y-108253220D01*
X102579249Y-108253219D01*
X102400004Y-108233024D01*
X102399996Y-108233024D01*
X102220750Y-108253219D01*
X102220745Y-108253220D01*
X102050476Y-108312800D01*
X101897737Y-108408773D01*
X101770184Y-108536326D01*
X101674211Y-108689065D01*
X101614631Y-108859334D01*
X101614630Y-108859339D01*
X101594435Y-109038585D01*
X101594435Y-109038592D01*
X101614630Y-109217838D01*
X101614631Y-109217843D01*
X101674211Y-109388112D01*
X101745937Y-109502262D01*
X101770184Y-109540851D01*
X101897738Y-109668405D01*
X101967635Y-109712324D01*
X102037892Y-109756470D01*
X102050478Y-109764378D01*
X102141309Y-109796161D01*
X102220745Y-109823957D01*
X102220750Y-109823958D01*
X102399996Y-109844154D01*
X102400000Y-109844154D01*
X102400004Y-109844154D01*
X102579249Y-109823958D01*
X102579252Y-109823957D01*
X102579255Y-109823957D01*
X102749522Y-109764378D01*
X102902262Y-109668405D01*
X102902267Y-109668399D01*
X102905097Y-109666144D01*
X102907275Y-109665254D01*
X102908158Y-109664700D01*
X102908255Y-109664854D01*
X102969783Y-109639734D01*
X102982412Y-109639089D01*
X104571497Y-109639089D01*
X104638536Y-109658774D01*
X104684291Y-109711578D01*
X104688539Y-109722135D01*
X104689631Y-109725258D01*
X104689632Y-109725259D01*
X104691328Y-109730105D01*
X104749210Y-109895525D01*
X104805663Y-109985369D01*
X104845184Y-110048266D01*
X104972738Y-110175820D01*
X105034504Y-110214630D01*
X105122705Y-110270051D01*
X105125478Y-110271793D01*
X105295745Y-110331372D01*
X105364384Y-110339105D01*
X105428796Y-110366170D01*
X105468352Y-110423764D01*
X105474500Y-110462325D01*
X105474500Y-112284764D01*
X105486121Y-112343182D01*
X105486121Y-112343184D01*
X105499497Y-112410430D01*
X105499499Y-112410438D01*
X105548534Y-112528819D01*
X105619726Y-112635367D01*
X106689631Y-113705272D01*
X106689638Y-113705278D01*
X106772284Y-113760500D01*
X106772287Y-113760501D01*
X106780287Y-113765846D01*
X106796178Y-113776465D01*
X106845214Y-113796776D01*
X106914562Y-113825501D01*
X106914566Y-113825501D01*
X106914567Y-113825502D01*
X107040234Y-113850500D01*
X107040237Y-113850500D01*
X108276000Y-113850500D01*
X108343039Y-113870185D01*
X108388794Y-113922989D01*
X108400000Y-113974500D01*
X108400000Y-116400000D01*
X111217296Y-116400000D01*
X111284335Y-116419685D01*
X111304977Y-116436319D01*
X114031977Y-119163319D01*
X114065462Y-119224642D01*
X114060478Y-119294334D01*
X114018606Y-119350267D01*
X113953142Y-119374684D01*
X113944296Y-119375000D01*
X102325000Y-119375000D01*
X102325000Y-120510062D01*
X102305315Y-120577101D01*
X102252511Y-120622856D01*
X102183353Y-120632800D01*
X102119797Y-120603775D01*
X102096051Y-120573437D01*
X102094909Y-120574138D01*
X101958719Y-120351898D01*
X101958712Y-120351888D01*
X101955465Y-120348087D01*
X101955464Y-120348087D01*
X101394114Y-120909437D01*
X101393260Y-120907374D01*
X101300238Y-120768156D01*
X101181844Y-120649762D01*
X101042626Y-120556740D01*
X101040561Y-120555884D01*
X101601911Y-119994535D01*
X101601911Y-119994533D01*
X101598110Y-119991286D01*
X101598095Y-119991275D01*
X101380015Y-119857636D01*
X101380012Y-119857634D01*
X101143702Y-119759752D01*
X100894988Y-119700042D01*
X100894989Y-119700042D01*
X100640000Y-119679975D01*
X100385010Y-119700042D01*
X100136297Y-119759752D01*
X99899987Y-119857634D01*
X99899984Y-119857636D01*
X99681897Y-119991280D01*
X99678087Y-119994534D01*
X100239438Y-120555884D01*
X100237374Y-120556740D01*
X100098156Y-120649762D01*
X99979762Y-120768156D01*
X99886740Y-120907374D01*
X99885884Y-120909438D01*
X99324533Y-120348087D01*
X99321280Y-120351897D01*
X99187636Y-120569984D01*
X99187634Y-120569987D01*
X99089752Y-120806297D01*
X99030042Y-121055010D01*
X99009975Y-121310000D01*
X99030042Y-121564989D01*
X99089752Y-121813702D01*
X99187634Y-122050012D01*
X99187636Y-122050015D01*
X99321275Y-122268095D01*
X99321286Y-122268110D01*
X99324533Y-122271911D01*
X99324535Y-122271911D01*
X99885884Y-121710561D01*
X99886740Y-121712626D01*
X99979762Y-121851844D01*
X100098156Y-121970238D01*
X100237374Y-122063260D01*
X100239437Y-122064114D01*
X99678087Y-122625464D01*
X99678087Y-122625465D01*
X99681888Y-122628712D01*
X99681898Y-122628719D01*
X99899984Y-122762363D01*
X99899987Y-122762365D01*
X100136297Y-122860247D01*
X100385011Y-122919957D01*
X100385010Y-122919957D01*
X100640000Y-122940024D01*
X100894989Y-122919957D01*
X101143702Y-122860247D01*
X101380012Y-122762365D01*
X101380015Y-122762363D01*
X101598103Y-122628719D01*
X101601912Y-122625464D01*
X101040562Y-122064114D01*
X101042626Y-122063260D01*
X101181844Y-121970238D01*
X101300238Y-121851844D01*
X101393260Y-121712626D01*
X101394114Y-121710562D01*
X101955464Y-122271912D01*
X101958719Y-122268103D01*
X102094909Y-122045862D01*
X102096787Y-122047013D01*
X102138453Y-122002868D01*
X102206268Y-121986049D01*
X102272410Y-122008564D01*
X102315881Y-122063264D01*
X102325000Y-122109937D01*
X102325000Y-125590062D01*
X102305315Y-125657101D01*
X102252511Y-125702856D01*
X102183353Y-125712800D01*
X102119797Y-125683775D01*
X102096051Y-125653437D01*
X102094909Y-125654138D01*
X101958719Y-125431898D01*
X101958712Y-125431888D01*
X101955465Y-125428087D01*
X101955464Y-125428087D01*
X101394114Y-125989437D01*
X101393260Y-125987374D01*
X101300238Y-125848156D01*
X101181844Y-125729762D01*
X101042626Y-125636740D01*
X101040561Y-125635884D01*
X101601911Y-125074535D01*
X101601911Y-125074533D01*
X101598110Y-125071286D01*
X101598095Y-125071275D01*
X101380015Y-124937636D01*
X101380012Y-124937634D01*
X101143702Y-124839752D01*
X100894988Y-124780042D01*
X100894989Y-124780042D01*
X100640000Y-124759975D01*
X100385010Y-124780042D01*
X100136297Y-124839752D01*
X99899987Y-124937634D01*
X99899984Y-124937636D01*
X99681897Y-125071280D01*
X99678087Y-125074534D01*
X100239438Y-125635884D01*
X100237374Y-125636740D01*
X100098156Y-125729762D01*
X99979762Y-125848156D01*
X99886740Y-125987374D01*
X99885884Y-125989438D01*
X99324533Y-125428087D01*
X99321280Y-125431897D01*
X99187636Y-125649984D01*
X99187634Y-125649987D01*
X99089752Y-125886297D01*
X99030042Y-126135010D01*
X99009975Y-126390000D01*
X99030042Y-126644989D01*
X99089752Y-126893702D01*
X99187634Y-127130012D01*
X99187636Y-127130015D01*
X99321275Y-127348095D01*
X99321286Y-127348110D01*
X99324533Y-127351911D01*
X99324535Y-127351911D01*
X99885884Y-126790561D01*
X99886740Y-126792626D01*
X99979762Y-126931844D01*
X100098156Y-127050238D01*
X100237374Y-127143260D01*
X100239437Y-127144114D01*
X99678087Y-127705464D01*
X99678087Y-127705465D01*
X99681888Y-127708712D01*
X99681893Y-127708716D01*
X99699936Y-127719773D01*
X99746811Y-127771585D01*
X99758233Y-127840515D01*
X99730575Y-127904678D01*
X99672619Y-127943702D01*
X99635145Y-127949500D01*
X96564855Y-127949500D01*
X96497816Y-127929815D01*
X96452061Y-127877011D01*
X96442117Y-127807853D01*
X96471142Y-127744297D01*
X96500066Y-127719772D01*
X96518104Y-127708717D01*
X96521912Y-127705464D01*
X95960562Y-127144114D01*
X95962626Y-127143260D01*
X96101844Y-127050238D01*
X96220238Y-126931844D01*
X96313260Y-126792626D01*
X96314114Y-126790562D01*
X96875464Y-127351912D01*
X96878719Y-127348103D01*
X97012363Y-127130015D01*
X97012365Y-127130012D01*
X97110247Y-126893702D01*
X97169957Y-126644989D01*
X97190024Y-126390000D01*
X97169957Y-126135010D01*
X97110247Y-125886297D01*
X97012365Y-125649987D01*
X97012363Y-125649984D01*
X96878719Y-125431898D01*
X96878712Y-125431888D01*
X96875465Y-125428087D01*
X96875464Y-125428087D01*
X96314114Y-125989437D01*
X96313260Y-125987374D01*
X96220238Y-125848156D01*
X96101844Y-125729762D01*
X95962626Y-125636740D01*
X95960561Y-125635884D01*
X96521911Y-125074535D01*
X96521911Y-125074533D01*
X96518110Y-125071286D01*
X96518095Y-125071275D01*
X96300015Y-124937636D01*
X96300012Y-124937634D01*
X96063702Y-124839752D01*
X95814988Y-124780042D01*
X95814989Y-124780042D01*
X95560000Y-124759975D01*
X95305010Y-124780042D01*
X95056297Y-124839752D01*
X94819987Y-124937634D01*
X94819984Y-124937636D01*
X94601897Y-125071280D01*
X94598087Y-125074534D01*
X95159438Y-125635884D01*
X95157374Y-125636740D01*
X95018156Y-125729762D01*
X94899762Y-125848156D01*
X94806740Y-125987374D01*
X94805884Y-125989438D01*
X94244533Y-125428087D01*
X94241280Y-125431897D01*
X94107636Y-125649984D01*
X94107634Y-125649987D01*
X94009752Y-125886297D01*
X93950042Y-126135010D01*
X93929975Y-126390000D01*
X93950042Y-126644989D01*
X94009752Y-126893702D01*
X94107634Y-127130012D01*
X94107636Y-127130015D01*
X94241275Y-127348095D01*
X94241286Y-127348110D01*
X94244533Y-127351911D01*
X94244535Y-127351911D01*
X94805884Y-126790561D01*
X94806740Y-126792626D01*
X94899762Y-126931844D01*
X95018156Y-127050238D01*
X95157374Y-127143260D01*
X95159437Y-127144114D01*
X94598087Y-127705464D01*
X94598087Y-127705465D01*
X94601888Y-127708712D01*
X94601893Y-127708716D01*
X94619936Y-127719773D01*
X94666811Y-127771585D01*
X94678233Y-127840515D01*
X94650575Y-127904678D01*
X94592619Y-127943702D01*
X94555145Y-127949500D01*
X93826962Y-127949500D01*
X93813078Y-127948720D01*
X93800553Y-127947308D01*
X93722735Y-127938540D01*
X93695666Y-127932362D01*
X93616462Y-127904648D01*
X93591444Y-127892600D01*
X93520395Y-127847957D01*
X93498686Y-127830644D01*
X93439355Y-127771313D01*
X93422042Y-127749604D01*
X93418707Y-127744297D01*
X93377398Y-127678553D01*
X93365351Y-127653537D01*
X93337637Y-127574333D01*
X93331459Y-127547263D01*
X93321280Y-127456922D01*
X93320500Y-127443038D01*
X93320500Y-123850000D01*
X96569783Y-123850000D01*
X96588623Y-124089382D01*
X96644674Y-124322853D01*
X96644678Y-124322865D01*
X96736565Y-124544702D01*
X96848284Y-124727011D01*
X96862028Y-124749439D01*
X97017973Y-124932027D01*
X97200561Y-125087972D01*
X97275933Y-125134160D01*
X97405297Y-125213434D01*
X97502047Y-125253508D01*
X97627137Y-125305323D01*
X97860621Y-125361377D01*
X98100000Y-125380217D01*
X98339379Y-125361377D01*
X98572863Y-125305323D01*
X98777039Y-125220750D01*
X98794702Y-125213434D01*
X98823764Y-125195625D01*
X98999439Y-125087972D01*
X99182027Y-124932027D01*
X99337972Y-124749439D01*
X99463433Y-124544704D01*
X99465382Y-124540000D01*
X99483097Y-124497230D01*
X99555323Y-124322863D01*
X99611377Y-124089379D01*
X99630217Y-123850000D01*
X99611377Y-123610621D01*
X99555323Y-123377137D01*
X99469079Y-123168926D01*
X99463434Y-123155297D01*
X99337973Y-122950563D01*
X99337972Y-122950561D01*
X99182027Y-122767973D01*
X98999439Y-122612028D01*
X98999250Y-122611912D01*
X98794702Y-122486565D01*
X98580586Y-122397876D01*
X98572863Y-122394677D01*
X98572859Y-122394676D01*
X98572853Y-122394674D01*
X98339382Y-122338623D01*
X98100000Y-122319783D01*
X97860617Y-122338623D01*
X97627146Y-122394674D01*
X97627134Y-122394678D01*
X97405297Y-122486565D01*
X97200563Y-122612026D01*
X97017973Y-122767973D01*
X96862026Y-122950563D01*
X96736565Y-123155297D01*
X96644678Y-123377134D01*
X96644674Y-123377146D01*
X96588623Y-123610617D01*
X96569783Y-123850000D01*
X93320500Y-123850000D01*
X93320500Y-121310000D01*
X93929975Y-121310000D01*
X93950042Y-121564989D01*
X94009752Y-121813702D01*
X94107634Y-122050012D01*
X94107636Y-122050015D01*
X94241275Y-122268095D01*
X94241286Y-122268110D01*
X94244533Y-122271911D01*
X94244535Y-122271911D01*
X94805884Y-121710561D01*
X94806740Y-121712626D01*
X94899762Y-121851844D01*
X95018156Y-121970238D01*
X95157374Y-122063260D01*
X95159437Y-122064114D01*
X94598087Y-122625464D01*
X94598087Y-122625465D01*
X94601888Y-122628712D01*
X94601898Y-122628719D01*
X94819984Y-122762363D01*
X94819987Y-122762365D01*
X95056297Y-122860247D01*
X95305011Y-122919957D01*
X95305010Y-122919957D01*
X95560000Y-122940024D01*
X95814989Y-122919957D01*
X96063702Y-122860247D01*
X96300012Y-122762365D01*
X96300015Y-122762363D01*
X96518103Y-122628719D01*
X96521912Y-122625464D01*
X95960562Y-122064114D01*
X95962626Y-122063260D01*
X96101844Y-121970238D01*
X96220238Y-121851844D01*
X96313260Y-121712626D01*
X96314114Y-121710562D01*
X96875464Y-122271912D01*
X96878719Y-122268103D01*
X97012363Y-122050015D01*
X97012365Y-122050012D01*
X97110247Y-121813702D01*
X97169957Y-121564989D01*
X97190024Y-121310000D01*
X97169957Y-121055010D01*
X97110247Y-120806297D01*
X97012365Y-120569987D01*
X97012363Y-120569984D01*
X96878719Y-120351898D01*
X96878712Y-120351888D01*
X96875465Y-120348087D01*
X96875464Y-120348087D01*
X96314114Y-120909437D01*
X96313260Y-120907374D01*
X96220238Y-120768156D01*
X96101844Y-120649762D01*
X95962626Y-120556740D01*
X95960561Y-120555884D01*
X96521911Y-119994535D01*
X96521911Y-119994533D01*
X96518110Y-119991286D01*
X96518095Y-119991275D01*
X96300015Y-119857636D01*
X96300012Y-119857634D01*
X96063702Y-119759752D01*
X95814988Y-119700042D01*
X95814989Y-119700042D01*
X95560000Y-119679975D01*
X95305010Y-119700042D01*
X95056297Y-119759752D01*
X94819987Y-119857634D01*
X94819984Y-119857636D01*
X94601897Y-119991280D01*
X94598087Y-119994534D01*
X95159438Y-120555884D01*
X95157374Y-120556740D01*
X95018156Y-120649762D01*
X94899762Y-120768156D01*
X94806740Y-120907374D01*
X94805885Y-120909438D01*
X94244534Y-120348087D01*
X94241280Y-120351897D01*
X94107636Y-120569984D01*
X94107634Y-120569987D01*
X94009752Y-120806297D01*
X93950042Y-121055010D01*
X93929975Y-121310000D01*
X93320500Y-121310000D01*
X93320500Y-100060000D01*
X94644341Y-100060000D01*
X94644341Y-100060001D01*
X94664936Y-100295404D01*
X94664938Y-100295414D01*
X94726094Y-100523656D01*
X94726096Y-100523660D01*
X94726097Y-100523664D01*
X94735855Y-100544589D01*
X94825965Y-100737831D01*
X94825967Y-100737835D01*
X94926038Y-100880750D01*
X94961501Y-100931397D01*
X94961506Y-100931403D01*
X95128597Y-101098494D01*
X95128603Y-101098499D01*
X95214363Y-101158549D01*
X95272583Y-101199315D01*
X95314157Y-101228425D01*
X95357782Y-101283002D01*
X95364976Y-101352500D01*
X95333453Y-101414855D01*
X95314158Y-101431575D01*
X95128594Y-101561508D01*
X94961505Y-101728597D01*
X94825965Y-101922169D01*
X94825964Y-101922171D01*
X94726098Y-102136335D01*
X94726094Y-102136344D01*
X94664938Y-102364586D01*
X94664936Y-102364596D01*
X94644341Y-102599999D01*
X94644341Y-102600000D01*
X94664936Y-102835403D01*
X94664938Y-102835413D01*
X94726094Y-103063655D01*
X94726096Y-103063659D01*
X94726097Y-103063663D01*
X94803575Y-103229815D01*
X94825965Y-103277830D01*
X94825967Y-103277834D01*
X94961501Y-103471395D01*
X94961506Y-103471402D01*
X95128597Y-103638493D01*
X95128603Y-103638498D01*
X95314158Y-103768425D01*
X95357783Y-103823002D01*
X95364977Y-103892500D01*
X95333454Y-103954855D01*
X95314159Y-103971575D01*
X95128594Y-104101509D01*
X94961505Y-104268598D01*
X94825965Y-104462170D01*
X94825964Y-104462172D01*
X94726098Y-104676336D01*
X94726094Y-104676345D01*
X94664938Y-104904587D01*
X94664936Y-104904597D01*
X94644341Y-105140000D01*
X94644341Y-105140001D01*
X94664936Y-105375404D01*
X94664938Y-105375414D01*
X94726094Y-105603656D01*
X94726096Y-105603660D01*
X94726097Y-105603664D01*
X94803558Y-105769779D01*
X94825965Y-105817831D01*
X94825967Y-105817835D01*
X94961501Y-106011396D01*
X94961506Y-106011403D01*
X95128597Y-106178494D01*
X95128603Y-106178499D01*
X95314158Y-106308426D01*
X95357783Y-106363003D01*
X95364977Y-106432501D01*
X95333454Y-106494856D01*
X95314158Y-106511576D01*
X95128597Y-106641506D01*
X94961505Y-106808598D01*
X94825965Y-107002170D01*
X94825964Y-107002172D01*
X94726098Y-107216336D01*
X94726094Y-107216345D01*
X94664938Y-107444587D01*
X94664936Y-107444597D01*
X94644341Y-107680000D01*
X94644341Y-107680001D01*
X94664936Y-107915404D01*
X94664938Y-107915414D01*
X94726094Y-108143656D01*
X94726096Y-108143660D01*
X94726097Y-108143664D01*
X94784507Y-108268924D01*
X94825965Y-108357831D01*
X94825967Y-108357835D01*
X94907455Y-108474211D01*
X94960189Y-108549523D01*
X94961501Y-108551396D01*
X94961506Y-108551403D01*
X95128597Y-108718494D01*
X95128603Y-108718499D01*
X95314158Y-108848426D01*
X95357783Y-108903003D01*
X95364977Y-108972501D01*
X95333454Y-109034856D01*
X95314158Y-109051576D01*
X95128597Y-109181506D01*
X94961505Y-109348598D01*
X94825965Y-109542170D01*
X94825964Y-109542172D01*
X94726098Y-109756336D01*
X94726094Y-109756345D01*
X94664938Y-109984587D01*
X94664938Y-109984589D01*
X94664937Y-109984593D01*
X94650507Y-110149522D01*
X94644341Y-110220000D01*
X94644341Y-110220001D01*
X94664936Y-110455404D01*
X94664938Y-110455414D01*
X94726094Y-110683656D01*
X94726096Y-110683660D01*
X94726097Y-110683664D01*
X94802382Y-110847257D01*
X94825965Y-110897831D01*
X94825967Y-110897835D01*
X94912030Y-111020745D01*
X94953420Y-111079856D01*
X94961501Y-111091396D01*
X94961506Y-111091403D01*
X95128597Y-111258494D01*
X95128603Y-111258499D01*
X95314158Y-111388426D01*
X95357783Y-111443003D01*
X95364977Y-111512501D01*
X95333454Y-111574856D01*
X95314158Y-111591576D01*
X95128597Y-111721506D01*
X94961505Y-111888598D01*
X94825965Y-112082170D01*
X94825964Y-112082172D01*
X94726098Y-112296336D01*
X94726094Y-112296345D01*
X94664938Y-112524587D01*
X94664936Y-112524597D01*
X94644341Y-112760000D01*
X94644341Y-112760001D01*
X94664936Y-112995404D01*
X94664938Y-112995414D01*
X94726094Y-113223656D01*
X94726096Y-113223660D01*
X94726097Y-113223664D01*
X94773755Y-113325867D01*
X94825965Y-113437831D01*
X94825967Y-113437835D01*
X94961501Y-113631396D01*
X94961506Y-113631403D01*
X95128597Y-113798494D01*
X95128603Y-113798499D01*
X95314158Y-113928426D01*
X95357783Y-113983003D01*
X95364977Y-114052501D01*
X95333454Y-114114856D01*
X95314159Y-114131576D01*
X95128594Y-114261510D01*
X94961505Y-114428599D01*
X94825965Y-114622171D01*
X94825964Y-114622173D01*
X94726098Y-114836337D01*
X94726094Y-114836346D01*
X94664938Y-115064588D01*
X94664936Y-115064598D01*
X94644341Y-115300001D01*
X94644341Y-115300002D01*
X94664936Y-115535405D01*
X94664938Y-115535415D01*
X94726094Y-115763657D01*
X94726096Y-115763661D01*
X94726097Y-115763665D01*
X94762237Y-115841167D01*
X94825965Y-115977832D01*
X94825967Y-115977836D01*
X94885923Y-116063461D01*
X94949176Y-116153796D01*
X94961501Y-116171397D01*
X94961506Y-116171404D01*
X95128597Y-116338495D01*
X95128603Y-116338500D01*
X95314157Y-116468426D01*
X95357782Y-116523003D01*
X95364976Y-116592501D01*
X95333453Y-116654856D01*
X95314158Y-116671576D01*
X95128594Y-116801509D01*
X94961505Y-116968598D01*
X94825965Y-117162170D01*
X94825964Y-117162172D01*
X94726098Y-117376336D01*
X94726094Y-117376345D01*
X94664938Y-117604587D01*
X94664936Y-117604597D01*
X94644341Y-117840000D01*
X94644341Y-117840001D01*
X94664936Y-118075404D01*
X94664938Y-118075414D01*
X94726094Y-118303656D01*
X94726096Y-118303660D01*
X94726097Y-118303664D01*
X94788788Y-118438105D01*
X94825965Y-118517831D01*
X94825967Y-118517835D01*
X94934281Y-118672522D01*
X94961505Y-118711402D01*
X95128599Y-118878496D01*
X95225384Y-118946266D01*
X95322165Y-119014033D01*
X95322167Y-119014034D01*
X95322170Y-119014036D01*
X95536337Y-119113904D01*
X95764592Y-119175064D01*
X95952918Y-119191540D01*
X95999999Y-119195660D01*
X96000000Y-119195660D01*
X96000001Y-119195660D01*
X96039234Y-119192227D01*
X96235408Y-119175064D01*
X96463663Y-119113904D01*
X96677830Y-119014036D01*
X96871401Y-118878496D01*
X97038495Y-118711402D01*
X97174035Y-118517831D01*
X97273903Y-118303664D01*
X97335063Y-118075409D01*
X97355659Y-117840001D01*
X97335063Y-117604593D01*
X97333831Y-117599996D01*
X98794435Y-117599996D01*
X98794435Y-117600003D01*
X98814630Y-117779249D01*
X98814631Y-117779254D01*
X98874211Y-117949523D01*
X98944860Y-118061959D01*
X98970184Y-118102262D01*
X99097738Y-118229816D01*
X99186148Y-118285368D01*
X99215253Y-118303656D01*
X99250478Y-118325789D01*
X99374605Y-118369223D01*
X99420745Y-118385368D01*
X99420750Y-118385369D01*
X99599996Y-118405565D01*
X99600000Y-118405565D01*
X99600004Y-118405565D01*
X99779249Y-118385369D01*
X99779252Y-118385368D01*
X99779255Y-118385368D01*
X99949522Y-118325789D01*
X100102262Y-118229816D01*
X100229816Y-118102262D01*
X100325789Y-117949522D01*
X100385368Y-117779255D01*
X100385387Y-117779085D01*
X100405565Y-117600003D01*
X100405565Y-117599996D01*
X100385369Y-117420750D01*
X100385368Y-117420745D01*
X100384997Y-117419685D01*
X100325789Y-117250478D01*
X100229816Y-117097738D01*
X100102262Y-116970184D01*
X100048675Y-116936513D01*
X99949523Y-116874211D01*
X99779254Y-116814631D01*
X99779249Y-116814630D01*
X99600004Y-116794435D01*
X99599996Y-116794435D01*
X99420750Y-116814630D01*
X99420745Y-116814631D01*
X99250476Y-116874211D01*
X99097737Y-116970184D01*
X98970184Y-117097737D01*
X98874211Y-117250476D01*
X98814631Y-117420745D01*
X98814630Y-117420750D01*
X98794435Y-117599996D01*
X97333831Y-117599996D01*
X97273903Y-117376338D01*
X97174035Y-117162172D01*
X97165846Y-117150476D01*
X97038494Y-116968598D01*
X96871402Y-116801507D01*
X96871401Y-116801506D01*
X96685842Y-116671576D01*
X96642218Y-116616999D01*
X96635025Y-116547500D01*
X96666547Y-116485146D01*
X96685843Y-116468426D01*
X96871401Y-116338497D01*
X97038495Y-116171403D01*
X97174035Y-115977832D01*
X97273903Y-115763665D01*
X97335063Y-115535410D01*
X97355659Y-115300002D01*
X97335063Y-115064594D01*
X97273903Y-114836339D01*
X97174035Y-114622173D01*
X97038495Y-114428601D01*
X97038494Y-114428599D01*
X96871402Y-114261508D01*
X96871401Y-114261507D01*
X96685840Y-114131576D01*
X96642216Y-114076999D01*
X96635023Y-114007500D01*
X96666545Y-113945146D01*
X96685837Y-113928429D01*
X96871401Y-113798496D01*
X97038495Y-113631402D01*
X97174035Y-113437831D01*
X97273903Y-113223664D01*
X97335063Y-112995409D01*
X97355659Y-112760001D01*
X97335063Y-112524593D01*
X97273903Y-112296338D01*
X97174035Y-112082172D01*
X97136983Y-112029255D01*
X97038494Y-111888598D01*
X96871402Y-111721507D01*
X96871396Y-111721502D01*
X96685842Y-111591576D01*
X96642217Y-111536999D01*
X96635023Y-111467501D01*
X96666546Y-111405146D01*
X96685842Y-111388426D01*
X96708026Y-111372892D01*
X96871401Y-111258496D01*
X97038495Y-111091402D01*
X97174035Y-110897831D01*
X97273903Y-110683664D01*
X97335063Y-110455409D01*
X97355659Y-110220001D01*
X97335063Y-109984593D01*
X97281682Y-109785369D01*
X97273905Y-109756345D01*
X97273904Y-109756344D01*
X97273903Y-109756338D01*
X97174035Y-109542172D01*
X97172181Y-109539523D01*
X97038494Y-109348598D01*
X96871402Y-109181507D01*
X96871396Y-109181502D01*
X96685842Y-109051576D01*
X96642217Y-108996999D01*
X96635023Y-108927501D01*
X96666546Y-108865146D01*
X96685842Y-108848426D01*
X96725374Y-108820745D01*
X96871401Y-108718496D01*
X97038495Y-108551402D01*
X97174035Y-108357831D01*
X97273903Y-108143664D01*
X97335063Y-107915409D01*
X97355659Y-107680001D01*
X97355152Y-107674211D01*
X97346845Y-107579255D01*
X97335063Y-107444593D01*
X97273903Y-107216338D01*
X97174035Y-107002172D01*
X97100910Y-106897737D01*
X97038494Y-106808598D01*
X96871402Y-106641507D01*
X96871396Y-106641502D01*
X96685842Y-106511576D01*
X96642217Y-106456999D01*
X96635023Y-106387501D01*
X96666546Y-106325146D01*
X96685842Y-106308426D01*
X96804986Y-106225000D01*
X96871401Y-106178496D01*
X97038495Y-106011402D01*
X97174035Y-105817831D01*
X97273903Y-105603664D01*
X97335063Y-105375409D01*
X97355659Y-105140001D01*
X97354522Y-105127011D01*
X97350327Y-105079054D01*
X97343410Y-104999996D01*
X104194435Y-104999996D01*
X104194435Y-105000003D01*
X104214630Y-105179249D01*
X104214631Y-105179254D01*
X104274211Y-105349523D01*
X104356523Y-105480521D01*
X104370184Y-105502262D01*
X104497738Y-105629816D01*
X104650478Y-105725789D01*
X104820745Y-105785368D01*
X104820750Y-105785369D01*
X104999996Y-105805565D01*
X105000000Y-105805565D01*
X105000004Y-105805565D01*
X105179249Y-105785369D01*
X105179252Y-105785368D01*
X105179255Y-105785368D01*
X105349522Y-105725789D01*
X105502262Y-105629816D01*
X105629816Y-105502262D01*
X105725789Y-105349522D01*
X105785368Y-105179255D01*
X105785369Y-105179249D01*
X105805565Y-105000003D01*
X105805565Y-104999996D01*
X105785369Y-104820750D01*
X105785368Y-104820745D01*
X105779276Y-104803334D01*
X105725789Y-104650478D01*
X105725188Y-104649522D01*
X105670749Y-104562883D01*
X105629816Y-104497738D01*
X105502262Y-104370184D01*
X105496625Y-104366642D01*
X105349523Y-104274211D01*
X105179254Y-104214631D01*
X105179249Y-104214630D01*
X105000004Y-104194435D01*
X104999996Y-104194435D01*
X104820750Y-104214630D01*
X104820745Y-104214631D01*
X104650476Y-104274211D01*
X104497737Y-104370184D01*
X104370184Y-104497737D01*
X104274211Y-104650476D01*
X104214631Y-104820745D01*
X104214630Y-104820750D01*
X104194435Y-104999996D01*
X97343410Y-104999996D01*
X97335063Y-104904593D01*
X97281734Y-104705565D01*
X97273905Y-104676345D01*
X97273904Y-104676344D01*
X97273903Y-104676338D01*
X97174035Y-104462172D01*
X97152973Y-104432091D01*
X97038494Y-104268598D01*
X96871402Y-104101507D01*
X96871401Y-104101506D01*
X96839615Y-104079249D01*
X96685839Y-103971574D01*
X96642216Y-103916998D01*
X96635023Y-103847499D01*
X96666545Y-103785145D01*
X96685837Y-103768428D01*
X96871401Y-103638495D01*
X97038495Y-103471401D01*
X97174035Y-103277830D01*
X97210330Y-103199996D01*
X98594435Y-103199996D01*
X98594435Y-103200003D01*
X98614630Y-103379249D01*
X98614631Y-103379254D01*
X98674211Y-103549523D01*
X98757681Y-103682364D01*
X98770184Y-103702262D01*
X98897738Y-103829816D01*
X99050478Y-103925789D01*
X99181327Y-103971575D01*
X99220745Y-103985368D01*
X99220750Y-103985369D01*
X99399996Y-104005565D01*
X99400000Y-104005565D01*
X99400004Y-104005565D01*
X99579249Y-103985369D01*
X99579252Y-103985368D01*
X99579255Y-103985368D01*
X99749522Y-103925789D01*
X99902262Y-103829816D01*
X100029816Y-103702262D01*
X100125789Y-103549522D01*
X100185368Y-103379255D01*
X100185369Y-103379249D01*
X100205565Y-103200003D01*
X100205565Y-103199996D01*
X100185369Y-103020750D01*
X100185368Y-103020745D01*
X100159071Y-102945592D01*
X100125789Y-102850478D01*
X100116295Y-102835369D01*
X100078858Y-102775788D01*
X100029816Y-102697738D01*
X99902262Y-102570184D01*
X99884458Y-102558997D01*
X99749523Y-102474211D01*
X99579254Y-102414631D01*
X99579249Y-102414630D01*
X99400004Y-102394435D01*
X99399996Y-102394435D01*
X99220750Y-102414630D01*
X99220745Y-102414631D01*
X99050476Y-102474211D01*
X98897737Y-102570184D01*
X98770184Y-102697737D01*
X98674211Y-102850476D01*
X98614631Y-103020745D01*
X98614630Y-103020750D01*
X98594435Y-103199996D01*
X97210330Y-103199996D01*
X97273903Y-103063663D01*
X97335063Y-102835408D01*
X97355659Y-102600000D01*
X97335063Y-102364592D01*
X97290960Y-102199996D01*
X110794435Y-102199996D01*
X110794435Y-102200003D01*
X110814630Y-102379249D01*
X110814631Y-102379254D01*
X110874211Y-102549523D01*
X110935616Y-102647248D01*
X110970184Y-102702262D01*
X111097738Y-102829816D01*
X111250478Y-102925789D01*
X111318306Y-102949523D01*
X111420745Y-102985368D01*
X111420750Y-102985369D01*
X111599996Y-103005565D01*
X111600000Y-103005565D01*
X111600004Y-103005565D01*
X111779249Y-102985369D01*
X111779252Y-102985368D01*
X111779255Y-102985368D01*
X111949522Y-102925789D01*
X112102262Y-102829816D01*
X112229816Y-102702262D01*
X112294074Y-102599996D01*
X113794435Y-102599996D01*
X113794435Y-102600003D01*
X113814630Y-102779249D01*
X113814631Y-102779254D01*
X113874211Y-102949523D01*
X113945931Y-103063664D01*
X113970184Y-103102262D01*
X114097738Y-103229816D01*
X114136564Y-103254212D01*
X114205833Y-103297737D01*
X114250478Y-103325789D01*
X114403258Y-103379249D01*
X114420745Y-103385368D01*
X114420750Y-103385369D01*
X114599996Y-103405565D01*
X114600000Y-103405565D01*
X114600004Y-103405565D01*
X114779249Y-103385369D01*
X114779252Y-103385368D01*
X114779255Y-103385368D01*
X114949522Y-103325789D01*
X115102262Y-103229816D01*
X115229816Y-103102262D01*
X115325789Y-102949522D01*
X115385368Y-102779255D01*
X115387424Y-102761007D01*
X115405565Y-102600003D01*
X115405565Y-102599996D01*
X115385369Y-102420750D01*
X115385368Y-102420745D01*
X115364418Y-102360873D01*
X115325789Y-102250478D01*
X115229816Y-102097738D01*
X115102262Y-101970184D01*
X115037124Y-101929255D01*
X114949523Y-101874211D01*
X114779254Y-101814631D01*
X114779249Y-101814630D01*
X114600004Y-101794435D01*
X114599996Y-101794435D01*
X114420750Y-101814630D01*
X114420745Y-101814631D01*
X114250476Y-101874211D01*
X114097737Y-101970184D01*
X113970184Y-102097737D01*
X113874211Y-102250476D01*
X113814631Y-102420745D01*
X113814630Y-102420750D01*
X113794435Y-102599996D01*
X112294074Y-102599996D01*
X112325789Y-102549522D01*
X112385368Y-102379255D01*
X112387021Y-102364586D01*
X112405565Y-102200003D01*
X112405565Y-102199996D01*
X112385369Y-102020750D01*
X112385368Y-102020745D01*
X112343587Y-101901342D01*
X112325789Y-101850478D01*
X112303265Y-101814632D01*
X112249206Y-101728597D01*
X112229816Y-101697738D01*
X112102262Y-101570184D01*
X112088451Y-101561506D01*
X111949523Y-101474211D01*
X111779254Y-101414631D01*
X111779249Y-101414630D01*
X111600004Y-101394435D01*
X111599996Y-101394435D01*
X111420750Y-101414630D01*
X111420745Y-101414631D01*
X111250476Y-101474211D01*
X111097737Y-101570184D01*
X110970184Y-101697737D01*
X110874211Y-101850476D01*
X110814631Y-102020745D01*
X110814630Y-102020750D01*
X110794435Y-102199996D01*
X97290960Y-102199996D01*
X97273903Y-102136337D01*
X97174035Y-101922171D01*
X97159451Y-101901342D01*
X97038494Y-101728597D01*
X96871402Y-101561506D01*
X96871401Y-101561505D01*
X96685842Y-101431575D01*
X96642218Y-101376998D01*
X96635025Y-101307499D01*
X96666547Y-101245145D01*
X96685843Y-101228425D01*
X96698572Y-101219512D01*
X96871401Y-101098496D01*
X97038495Y-100931402D01*
X97081465Y-100870033D01*
X97136041Y-100826409D01*
X97205540Y-100819215D01*
X97267894Y-100850737D01*
X97303309Y-100910967D01*
X97306260Y-100955040D01*
X97294435Y-101059995D01*
X97294435Y-101060003D01*
X97314630Y-101239249D01*
X97314631Y-101239254D01*
X97374211Y-101409523D01*
X97432707Y-101502618D01*
X97470184Y-101562262D01*
X97597738Y-101689816D01*
X97750478Y-101785789D01*
X97832901Y-101814630D01*
X97920745Y-101845368D01*
X97920750Y-101845369D01*
X98099996Y-101865565D01*
X98100000Y-101865565D01*
X98100004Y-101865565D01*
X98279249Y-101845369D01*
X98279252Y-101845368D01*
X98279255Y-101845368D01*
X98449522Y-101785789D01*
X98602262Y-101689816D01*
X98729816Y-101562262D01*
X98825789Y-101409522D01*
X98885368Y-101239255D01*
X98885956Y-101234036D01*
X98905565Y-101060003D01*
X98905565Y-101059996D01*
X98885369Y-100880750D01*
X98885368Y-100880745D01*
X98863838Y-100819215D01*
X98825789Y-100710478D01*
X98729816Y-100557738D01*
X98602262Y-100430184D01*
X98602260Y-100430183D01*
X98449523Y-100334211D01*
X98279254Y-100274631D01*
X98279249Y-100274630D01*
X98100004Y-100254435D01*
X98099996Y-100254435D01*
X97920750Y-100274630D01*
X97920745Y-100274631D01*
X97750476Y-100334211D01*
X97597739Y-100430183D01*
X97516817Y-100511105D01*
X97455493Y-100544589D01*
X97385802Y-100539605D01*
X97329868Y-100497733D01*
X97305452Y-100432268D01*
X97309361Y-100391330D01*
X97335063Y-100295409D01*
X97355659Y-100060001D01*
X97335063Y-99824593D01*
X97273903Y-99596338D01*
X97174035Y-99382172D01*
X97038495Y-99188600D01*
X96916179Y-99066284D01*
X96882696Y-99004964D01*
X96887680Y-98935272D01*
X96929551Y-98879338D01*
X96960529Y-98862423D01*
X97092086Y-98813355D01*
X97092093Y-98813351D01*
X97207187Y-98727191D01*
X97207190Y-98727188D01*
X97293350Y-98612094D01*
X97293354Y-98612087D01*
X97343596Y-98477380D01*
X97343598Y-98477373D01*
X97349999Y-98417845D01*
X97350000Y-98417828D01*
X97350000Y-97770001D01*
X96433012Y-97770001D01*
X96465925Y-97712994D01*
X96500000Y-97585827D01*
X96500000Y-97454175D01*
X96465925Y-97327008D01*
X96433012Y-97270001D01*
X97090479Y-97270001D01*
X97156451Y-97289007D01*
X97157737Y-97289815D01*
X97157738Y-97289816D01*
X97310478Y-97385789D01*
X97480745Y-97445368D01*
X97480750Y-97445369D01*
X97659996Y-97465565D01*
X97660000Y-97465565D01*
X97660004Y-97465565D01*
X97839249Y-97445369D01*
X97839252Y-97445368D01*
X97839255Y-97445368D01*
X98009522Y-97385789D01*
X98009534Y-97385780D01*
X98015478Y-97382919D01*
X98084417Y-97371558D01*
X98148556Y-97399271D01*
X98166243Y-97417320D01*
X98170180Y-97422258D01*
X98170184Y-97422263D01*
X98297738Y-97549817D01*
X98450478Y-97645790D01*
X98620745Y-97705369D01*
X98620750Y-97705370D01*
X98799996Y-97725566D01*
X98800000Y-97725566D01*
X98800004Y-97725566D01*
X98979249Y-97705370D01*
X98979252Y-97705369D01*
X98979255Y-97705369D01*
X99149522Y-97645790D01*
X99302262Y-97549817D01*
X99429816Y-97422263D01*
X99525789Y-97269523D01*
X99585368Y-97099256D01*
X99594298Y-97020001D01*
X99605565Y-96920004D01*
X99605565Y-96919997D01*
X99585369Y-96740751D01*
X99585368Y-96740746D01*
X99557114Y-96660000D01*
X99525789Y-96570479D01*
X99520851Y-96562621D01*
X99429815Y-96417738D01*
X99302262Y-96290185D01*
X99149523Y-96194212D01*
X98979254Y-96134632D01*
X98979249Y-96134631D01*
X98800004Y-96114436D01*
X98799996Y-96114436D01*
X98620750Y-96134631D01*
X98620737Y-96134634D01*
X98450475Y-96194212D01*
X98444499Y-96197090D01*
X98375557Y-96208438D01*
X98311424Y-96180712D01*
X98293759Y-96162682D01*
X98289816Y-96157738D01*
X98162262Y-96030184D01*
X98009523Y-95934211D01*
X97839254Y-95874631D01*
X97839249Y-95874630D01*
X97660004Y-95854435D01*
X97659996Y-95854435D01*
X97480750Y-95874630D01*
X97480745Y-95874631D01*
X97310476Y-95934211D01*
X97157739Y-96030183D01*
X97048213Y-96139709D01*
X96986890Y-96173193D01*
X96947278Y-96175317D01*
X96897830Y-96170001D01*
X96250000Y-96170001D01*
X96250000Y-97086989D01*
X96192993Y-97054076D01*
X96065826Y-97020001D01*
X95934174Y-97020001D01*
X95807007Y-97054076D01*
X95750000Y-97086989D01*
X95750000Y-96170001D01*
X95102155Y-96170001D01*
X95042627Y-96176402D01*
X95042620Y-96176404D01*
X94907913Y-96226646D01*
X94907906Y-96226650D01*
X94792812Y-96312810D01*
X94792809Y-96312813D01*
X94706649Y-96427907D01*
X94706645Y-96427914D01*
X94656403Y-96562621D01*
X94656401Y-96562628D01*
X94650000Y-96622156D01*
X94650000Y-97270001D01*
X95566988Y-97270001D01*
X95534075Y-97327008D01*
X95500000Y-97454175D01*
X95500000Y-97585827D01*
X95534075Y-97712994D01*
X95566988Y-97770001D01*
X94650000Y-97770001D01*
X94650000Y-98417845D01*
X94656401Y-98477373D01*
X94656403Y-98477380D01*
X94706645Y-98612087D01*
X94706649Y-98612094D01*
X94792809Y-98727188D01*
X94792812Y-98727191D01*
X94907906Y-98813351D01*
X94907913Y-98813355D01*
X95039470Y-98862422D01*
X95095403Y-98904293D01*
X95119821Y-98969757D01*
X95104970Y-99038030D01*
X95083819Y-99066285D01*
X94961503Y-99188601D01*
X94825965Y-99382170D01*
X94825964Y-99382172D01*
X94726098Y-99596336D01*
X94726094Y-99596345D01*
X94664938Y-99824587D01*
X94664936Y-99824597D01*
X94644341Y-100060000D01*
X93320500Y-100060000D01*
X93320500Y-92039996D01*
X97024435Y-92039996D01*
X97024435Y-92040003D01*
X97044630Y-92219249D01*
X97044631Y-92219254D01*
X97104211Y-92389523D01*
X97126503Y-92425000D01*
X97200184Y-92542262D01*
X97327738Y-92669816D01*
X97480478Y-92765789D01*
X97650745Y-92825368D01*
X97650750Y-92825369D01*
X97829996Y-92845565D01*
X97830000Y-92845565D01*
X97830004Y-92845565D01*
X98009249Y-92825369D01*
X98009252Y-92825368D01*
X98009255Y-92825368D01*
X98179522Y-92765789D01*
X98332262Y-92669816D01*
X98459816Y-92542262D01*
X98555789Y-92389522D01*
X98603770Y-92252400D01*
X109401151Y-92252400D01*
X109401152Y-92252401D01*
X109496392Y-92311370D01*
X109496398Y-92311374D01*
X109690811Y-92386689D01*
X109895756Y-92425000D01*
X110104244Y-92425000D01*
X110309187Y-92386689D01*
X110309197Y-92386686D01*
X110503601Y-92311374D01*
X110503602Y-92311373D01*
X110598847Y-92252400D01*
X114241149Y-92252400D01*
X114241150Y-92252401D01*
X114336390Y-92311370D01*
X114336396Y-92311374D01*
X114530809Y-92386689D01*
X114735754Y-92425000D01*
X114944242Y-92425000D01*
X115149185Y-92386689D01*
X115149195Y-92386686D01*
X115343599Y-92311374D01*
X115343600Y-92311373D01*
X115438845Y-92252400D01*
X114839999Y-91653554D01*
X114839998Y-91653554D01*
X114241149Y-92252400D01*
X110598847Y-92252400D01*
X110000001Y-91653554D01*
X110000000Y-91653554D01*
X109401151Y-92252400D01*
X98603770Y-92252400D01*
X98615368Y-92219255D01*
X98635565Y-92040000D01*
X98619989Y-91901761D01*
X98615369Y-91860750D01*
X98615368Y-91860745D01*
X98561972Y-91708148D01*
X98555789Y-91690478D01*
X98459816Y-91537738D01*
X98332262Y-91410184D01*
X98179523Y-91314211D01*
X98138908Y-91299999D01*
X108870180Y-91299999D01*
X108870180Y-91300000D01*
X108889416Y-91507603D01*
X108889417Y-91507605D01*
X108946472Y-91708133D01*
X108946478Y-91708148D01*
X109039408Y-91894775D01*
X109044684Y-91901761D01*
X109646446Y-91300000D01*
X109600366Y-91253920D01*
X109649988Y-91253920D01*
X109649988Y-91346080D01*
X109673841Y-91435099D01*
X109719921Y-91514912D01*
X109785088Y-91580079D01*
X109864901Y-91626159D01*
X109953920Y-91650012D01*
X110046080Y-91650012D01*
X110135099Y-91626159D01*
X110214912Y-91580079D01*
X110280079Y-91514912D01*
X110326159Y-91435099D01*
X110350012Y-91346080D01*
X110350012Y-91299999D01*
X110353554Y-91299999D01*
X110353554Y-91300000D01*
X110955314Y-91901760D01*
X110955315Y-91901760D01*
X110960590Y-91894776D01*
X110960593Y-91894771D01*
X111053521Y-91708148D01*
X111053527Y-91708133D01*
X111110582Y-91507605D01*
X111110583Y-91507603D01*
X111129820Y-91300000D01*
X111129820Y-91299999D01*
X113710178Y-91299999D01*
X113710178Y-91300000D01*
X113729414Y-91507603D01*
X113729415Y-91507605D01*
X113786470Y-91708133D01*
X113786476Y-91708148D01*
X113879406Y-91894775D01*
X113884682Y-91901761D01*
X114486444Y-91300000D01*
X114440364Y-91253920D01*
X114489986Y-91253920D01*
X114489986Y-91346080D01*
X114513839Y-91435099D01*
X114559919Y-91514912D01*
X114625086Y-91580079D01*
X114704899Y-91626159D01*
X114793918Y-91650012D01*
X114886078Y-91650012D01*
X114975097Y-91626159D01*
X115054910Y-91580079D01*
X115120077Y-91514912D01*
X115166157Y-91435099D01*
X115190010Y-91346080D01*
X115190010Y-91299999D01*
X115193552Y-91299999D01*
X115193552Y-91300000D01*
X115795312Y-91901760D01*
X115795313Y-91901760D01*
X115800588Y-91894776D01*
X115800591Y-91894771D01*
X115893519Y-91708148D01*
X115893525Y-91708133D01*
X115950580Y-91507605D01*
X115950581Y-91507603D01*
X115969818Y-91300000D01*
X115969818Y-91299999D01*
X115950581Y-91092396D01*
X115950580Y-91092394D01*
X115893525Y-90891866D01*
X115893519Y-90891851D01*
X115800593Y-90705232D01*
X115800585Y-90705219D01*
X115795312Y-90698237D01*
X115193552Y-91299999D01*
X115190010Y-91299999D01*
X115190010Y-91253920D01*
X115166157Y-91164901D01*
X115120077Y-91085088D01*
X115054910Y-91019921D01*
X114975097Y-90973841D01*
X114886078Y-90949988D01*
X114793918Y-90949988D01*
X114704899Y-90973841D01*
X114625086Y-91019921D01*
X114559919Y-91085088D01*
X114513839Y-91164901D01*
X114489986Y-91253920D01*
X114440364Y-91253920D01*
X113884681Y-90698237D01*
X113879408Y-90705222D01*
X113879404Y-90705228D01*
X113786476Y-90891851D01*
X113786470Y-90891866D01*
X113729415Y-91092394D01*
X113729414Y-91092396D01*
X113710178Y-91299999D01*
X111129820Y-91299999D01*
X111110583Y-91092396D01*
X111110582Y-91092394D01*
X111053527Y-90891866D01*
X111053521Y-90891851D01*
X110960595Y-90705232D01*
X110960587Y-90705219D01*
X110955314Y-90698237D01*
X110353554Y-91299999D01*
X110350012Y-91299999D01*
X110350012Y-91253920D01*
X110326159Y-91164901D01*
X110280079Y-91085088D01*
X110214912Y-91019921D01*
X110135099Y-90973841D01*
X110046080Y-90949988D01*
X109953920Y-90949988D01*
X109864901Y-90973841D01*
X109785088Y-91019921D01*
X109719921Y-91085088D01*
X109673841Y-91164901D01*
X109649988Y-91253920D01*
X109600366Y-91253920D01*
X109044683Y-90698237D01*
X109039410Y-90705222D01*
X109039406Y-90705228D01*
X108946478Y-90891851D01*
X108946472Y-90891866D01*
X108889417Y-91092394D01*
X108889416Y-91092396D01*
X108870180Y-91299999D01*
X98138908Y-91299999D01*
X98009254Y-91254631D01*
X98009249Y-91254630D01*
X97830004Y-91234435D01*
X97829996Y-91234435D01*
X97650750Y-91254630D01*
X97650745Y-91254631D01*
X97480476Y-91314211D01*
X97327737Y-91410184D01*
X97200184Y-91537737D01*
X97104211Y-91690476D01*
X97044631Y-91860745D01*
X97044630Y-91860750D01*
X97024435Y-92039996D01*
X93320500Y-92039996D01*
X93320500Y-90347598D01*
X109401152Y-90347598D01*
X110000000Y-90946446D01*
X110000001Y-90946446D01*
X110598847Y-90347598D01*
X114241150Y-90347598D01*
X114839998Y-90946446D01*
X114839999Y-90946446D01*
X115438845Y-90347598D01*
X115343598Y-90288625D01*
X115149186Y-90213310D01*
X114944242Y-90175000D01*
X114735754Y-90175000D01*
X114530810Y-90213310D01*
X114530809Y-90213310D01*
X114336397Y-90288625D01*
X114241150Y-90347598D01*
X110598847Y-90347598D01*
X110503600Y-90288625D01*
X110309188Y-90213310D01*
X110104244Y-90175000D01*
X109895756Y-90175000D01*
X109690812Y-90213310D01*
X109690811Y-90213310D01*
X109496399Y-90288625D01*
X109401152Y-90347598D01*
X93320500Y-90347598D01*
X93320500Y-87376961D01*
X93321280Y-87363077D01*
X93324548Y-87334075D01*
X93331459Y-87272731D01*
X93337635Y-87245670D01*
X93365353Y-87166456D01*
X93377396Y-87141450D01*
X93422046Y-87070389D01*
X93439351Y-87048690D01*
X93498690Y-86989351D01*
X93520389Y-86972046D01*
X93591450Y-86927396D01*
X93616456Y-86915353D01*
X93695670Y-86887635D01*
X93722733Y-86881459D01*
X93785419Y-86874396D01*
X93813079Y-86871280D01*
X93826962Y-86870500D01*
X108105313Y-86870500D01*
X108172352Y-86890185D01*
X108218107Y-86942989D01*
X108228051Y-87012147D01*
X108199026Y-87075703D01*
X108178198Y-87094819D01*
X108070824Y-87172829D01*
X107942823Y-87300830D01*
X107836434Y-87447265D01*
X107754252Y-87608552D01*
X107754251Y-87608555D01*
X107698317Y-87780706D01*
X107670000Y-87959493D01*
X107670000Y-88250000D01*
X108469988Y-88250000D01*
X108469988Y-88750000D01*
X107670000Y-88750000D01*
X107670000Y-89040506D01*
X107698317Y-89219293D01*
X107754251Y-89391444D01*
X107754252Y-89391447D01*
X107836434Y-89552734D01*
X107942823Y-89699169D01*
X108070830Y-89827176D01*
X108217265Y-89933565D01*
X108378552Y-90015747D01*
X108378555Y-90015748D01*
X108550699Y-90071680D01*
X108550712Y-90071683D01*
X108570000Y-90074738D01*
X108570000Y-89145041D01*
X108605088Y-89180129D01*
X108684901Y-89226209D01*
X108773920Y-89250062D01*
X108866080Y-89250062D01*
X108955099Y-89226209D01*
X109034912Y-89180129D01*
X109070000Y-89145041D01*
X109070000Y-90074737D01*
X109089287Y-90071683D01*
X109089300Y-90071680D01*
X109261444Y-90015748D01*
X109261447Y-90015747D01*
X109422734Y-89933565D01*
X109569169Y-89827176D01*
X109697176Y-89699169D01*
X109803565Y-89552734D01*
X109885747Y-89391447D01*
X109885748Y-89391444D01*
X109941682Y-89219293D01*
X109970000Y-89040506D01*
X109970000Y-88750000D01*
X109170012Y-88750000D01*
X109170012Y-88250000D01*
X109970000Y-88250000D01*
X109970000Y-87959493D01*
X109941682Y-87780706D01*
X109885748Y-87608555D01*
X109885747Y-87608552D01*
X109803565Y-87447265D01*
X109697176Y-87300830D01*
X109569175Y-87172829D01*
X109461802Y-87094819D01*
X109419136Y-87039489D01*
X109413157Y-86969876D01*
X109445762Y-86908080D01*
X109506601Y-86873723D01*
X109534687Y-86870500D01*
X115305311Y-86870500D01*
X115372350Y-86890185D01*
X115418105Y-86942989D01*
X115428049Y-87012147D01*
X115399024Y-87075703D01*
X115378196Y-87094819D01*
X115270822Y-87172829D01*
X115142821Y-87300830D01*
X115036432Y-87447265D01*
X114954250Y-87608552D01*
X114954249Y-87608555D01*
X114898315Y-87780706D01*
X114869998Y-87959493D01*
X114869998Y-88250000D01*
X115669986Y-88250000D01*
X115669986Y-88750000D01*
X114869998Y-88750000D01*
X114869998Y-89040506D01*
X114898315Y-89219293D01*
X114954249Y-89391444D01*
X114954250Y-89391447D01*
X115036432Y-89552734D01*
X115142821Y-89699169D01*
X115270828Y-89827176D01*
X115417263Y-89933565D01*
X115578550Y-90015747D01*
X115578553Y-90015748D01*
X115750697Y-90071680D01*
X115750710Y-90071683D01*
X115769998Y-90074738D01*
X115769998Y-89145041D01*
X115805086Y-89180129D01*
X115884899Y-89226209D01*
X115973918Y-89250062D01*
X116066078Y-89250062D01*
X116155097Y-89226209D01*
X116234910Y-89180129D01*
X116269998Y-89145041D01*
X116269998Y-90074737D01*
X116289285Y-90071683D01*
X116289298Y-90071680D01*
X116461442Y-90015748D01*
X116461445Y-90015747D01*
X116622732Y-89933565D01*
X116769167Y-89827176D01*
X116897174Y-89699169D01*
X117003563Y-89552734D01*
X117085745Y-89391447D01*
X117085746Y-89391444D01*
X117141680Y-89219293D01*
X117169998Y-89040506D01*
X117169998Y-88750000D01*
X116370010Y-88750000D01*
X116370010Y-88250000D01*
X117169998Y-88250000D01*
X117169998Y-87959493D01*
X117141680Y-87780706D01*
X117085746Y-87608555D01*
X117085745Y-87608552D01*
X117003563Y-87447265D01*
X116897174Y-87300830D01*
X116769173Y-87172829D01*
X116661800Y-87094819D01*
X116619134Y-87039489D01*
X116613155Y-86969876D01*
X116645760Y-86908080D01*
X116706599Y-86873723D01*
X116734685Y-86870500D01*
X131624596Y-86870500D01*
X131691635Y-86890185D01*
X131737390Y-86942989D01*
X131747334Y-87012147D01*
X131726171Y-87065624D01*
X131686398Y-87122424D01*
X131586570Y-87336507D01*
X131586567Y-87336513D01*
X131529364Y-87549999D01*
X131529364Y-87550000D01*
X132426988Y-87550000D01*
X132394075Y-87607007D01*
X132360000Y-87734174D01*
X132360000Y-87865826D01*
X132394075Y-87992993D01*
X132426988Y-88050000D01*
X131529364Y-88050000D01*
X131586567Y-88263486D01*
X131586570Y-88263492D01*
X131686399Y-88477578D01*
X131821894Y-88671082D01*
X131988917Y-88838105D01*
X132182421Y-88973600D01*
X132396507Y-89073429D01*
X132396516Y-89073433D01*
X132610000Y-89130634D01*
X132610000Y-88233012D01*
X132667007Y-88265925D01*
X132794174Y-88300000D01*
X132925826Y-88300000D01*
X133052993Y-88265925D01*
X133110000Y-88233012D01*
X133110000Y-89130633D01*
X133323483Y-89073433D01*
X133323492Y-89073429D01*
X133537578Y-88973600D01*
X133731078Y-88838108D01*
X133853133Y-88716053D01*
X133914456Y-88682568D01*
X133984148Y-88687552D01*
X134040082Y-88729423D01*
X134056997Y-88760401D01*
X134106202Y-88892328D01*
X134106206Y-88892335D01*
X134192452Y-89007544D01*
X134192455Y-89007547D01*
X134307664Y-89093793D01*
X134307671Y-89093797D01*
X134442517Y-89144091D01*
X134442516Y-89144091D01*
X134449444Y-89144835D01*
X134502127Y-89150500D01*
X136297872Y-89150499D01*
X136357483Y-89144091D01*
X136492331Y-89093796D01*
X136607546Y-89007546D01*
X136693796Y-88892331D01*
X136744091Y-88757483D01*
X136750500Y-88697873D01*
X136750499Y-86902128D01*
X136744091Y-86842517D01*
X136743002Y-86839598D01*
X136693797Y-86707671D01*
X136693793Y-86707664D01*
X136607547Y-86592455D01*
X136607544Y-86592452D01*
X136492335Y-86506206D01*
X136492328Y-86506202D01*
X136357482Y-86455908D01*
X136357483Y-86455908D01*
X136297883Y-86449501D01*
X136297881Y-86449500D01*
X136297873Y-86449500D01*
X136297864Y-86449500D01*
X134502129Y-86449500D01*
X134502123Y-86449501D01*
X134442516Y-86455908D01*
X134307671Y-86506202D01*
X134307664Y-86506206D01*
X134192455Y-86592452D01*
X134192452Y-86592455D01*
X134106206Y-86707664D01*
X134106202Y-86707671D01*
X134056997Y-86839598D01*
X134015126Y-86895532D01*
X133949661Y-86919949D01*
X133881388Y-86905097D01*
X133853134Y-86883946D01*
X133731082Y-86761894D01*
X133537578Y-86626399D01*
X133323492Y-86526570D01*
X133323483Y-86526566D01*
X133095326Y-86465432D01*
X133095316Y-86465430D01*
X133031681Y-86459863D01*
X132966612Y-86434410D01*
X132925634Y-86377819D01*
X132921756Y-86308057D01*
X132935102Y-86274335D01*
X132948648Y-86250872D01*
X132948648Y-86250870D01*
X132948653Y-86250863D01*
X133023924Y-86069137D01*
X133023926Y-86069128D01*
X133025061Y-86066389D01*
X133068901Y-86011985D01*
X133135195Y-85989919D01*
X133137276Y-85989862D01*
X137287447Y-85911557D01*
X137354846Y-85929973D01*
G37*
%TD.AperFunction*%
%TA.AperFunction,Conductor*%
G36*
X101955464Y-127351912D02*
G01*
X101958719Y-127348103D01*
X102094909Y-127125862D01*
X102096787Y-127127013D01*
X102138453Y-127082868D01*
X102206268Y-127066049D01*
X102272410Y-127088564D01*
X102315881Y-127143264D01*
X102325000Y-127189937D01*
X102325000Y-127825500D01*
X102305315Y-127892539D01*
X102252511Y-127938294D01*
X102201000Y-127949500D01*
X101644855Y-127949500D01*
X101577816Y-127929815D01*
X101532061Y-127877011D01*
X101522117Y-127807853D01*
X101551142Y-127744297D01*
X101580066Y-127719772D01*
X101598104Y-127708717D01*
X101601912Y-127705464D01*
X101040562Y-127144114D01*
X101042626Y-127143260D01*
X101181844Y-127050238D01*
X101300238Y-126931844D01*
X101393260Y-126792626D01*
X101394114Y-126790562D01*
X101955464Y-127351912D01*
G37*
%TD.AperFunction*%
%TA.AperFunction,Conductor*%
G36*
X127942468Y-111605054D02*
G01*
X127967578Y-111643476D01*
X128001988Y-111726548D01*
X128100534Y-111874034D01*
X128100540Y-111874041D01*
X131660536Y-115434035D01*
X131761906Y-115535405D01*
X131785966Y-115559465D01*
X131933446Y-115658009D01*
X131933459Y-115658016D01*
X132056363Y-115708923D01*
X132097334Y-115725894D01*
X132139935Y-115734368D01*
X132271305Y-115760500D01*
X132271308Y-115760500D01*
X132271309Y-115760500D01*
X134548560Y-115760500D01*
X134615599Y-115780185D01*
X134661354Y-115832989D01*
X134664742Y-115841167D01*
X134706202Y-115952328D01*
X134706206Y-115952335D01*
X134792452Y-116067544D01*
X134792455Y-116067547D01*
X134907664Y-116153793D01*
X134907671Y-116153797D01*
X134962399Y-116174209D01*
X135039598Y-116203002D01*
X135095531Y-116244873D01*
X135119949Y-116310337D01*
X135105098Y-116378610D01*
X135083947Y-116406865D01*
X134961886Y-116528926D01*
X134826400Y-116722420D01*
X134826399Y-116722422D01*
X134726570Y-116936507D01*
X134726567Y-116936513D01*
X134669364Y-117149999D01*
X134669364Y-117150000D01*
X135566988Y-117150000D01*
X135534075Y-117207007D01*
X135500000Y-117334174D01*
X135500000Y-117465826D01*
X135534075Y-117592993D01*
X135566988Y-117650000D01*
X134669364Y-117650000D01*
X134726567Y-117863486D01*
X134726570Y-117863492D01*
X134826399Y-118077578D01*
X134961894Y-118271082D01*
X135128917Y-118438105D01*
X135322421Y-118573600D01*
X135536507Y-118673429D01*
X135536516Y-118673433D01*
X135750000Y-118730634D01*
X135750000Y-117833012D01*
X135807007Y-117865925D01*
X135934174Y-117900000D01*
X136065826Y-117900000D01*
X136192993Y-117865925D01*
X136250000Y-117833012D01*
X136250000Y-118730633D01*
X136463483Y-118673433D01*
X136463492Y-118673429D01*
X136677578Y-118573600D01*
X136871082Y-118438105D01*
X137038105Y-118271082D01*
X137173599Y-118077578D01*
X137253118Y-117907051D01*
X137299290Y-117854612D01*
X137366484Y-117835460D01*
X137433365Y-117855676D01*
X137478699Y-117908841D01*
X137489500Y-117959456D01*
X137489500Y-120263143D01*
X137469815Y-120330182D01*
X137417011Y-120375937D01*
X137347853Y-120385881D01*
X137284297Y-120356856D01*
X137266234Y-120337455D01*
X137237117Y-120298560D01*
X137232546Y-120292454D01*
X137232544Y-120292453D01*
X137232544Y-120292452D01*
X137117335Y-120206206D01*
X137117328Y-120206202D01*
X136982482Y-120155908D01*
X136982483Y-120155908D01*
X136922883Y-120149501D01*
X136922881Y-120149500D01*
X136922873Y-120149500D01*
X136922864Y-120149500D01*
X135127129Y-120149500D01*
X135127123Y-120149501D01*
X135067516Y-120155908D01*
X134932671Y-120206202D01*
X134932664Y-120206206D01*
X134817455Y-120292452D01*
X134817452Y-120292455D01*
X134731206Y-120407664D01*
X134731202Y-120407671D01*
X134680908Y-120542517D01*
X134674501Y-120602116D01*
X134674500Y-120602135D01*
X134674500Y-122397870D01*
X134674501Y-122397876D01*
X134680908Y-122457483D01*
X134731202Y-122592328D01*
X134731206Y-122592335D01*
X134817452Y-122707544D01*
X134817455Y-122707547D01*
X134932664Y-122793793D01*
X134932671Y-122793797D01*
X134932674Y-122793798D01*
X135064598Y-122843002D01*
X135120531Y-122884873D01*
X135144949Y-122950337D01*
X135130098Y-123018610D01*
X135108947Y-123046865D01*
X134986886Y-123168926D01*
X134851400Y-123362420D01*
X134851399Y-123362422D01*
X134751570Y-123576507D01*
X134751567Y-123576513D01*
X134694364Y-123789999D01*
X134694364Y-123790000D01*
X135591988Y-123790000D01*
X135559075Y-123847007D01*
X135525000Y-123974174D01*
X135525000Y-124105826D01*
X135559075Y-124232993D01*
X135591988Y-124290000D01*
X134694364Y-124290000D01*
X134751567Y-124503486D01*
X134751570Y-124503492D01*
X134851399Y-124717578D01*
X134986894Y-124911082D01*
X135153917Y-125078105D01*
X135347421Y-125213600D01*
X135561507Y-125313429D01*
X135561516Y-125313433D01*
X135775000Y-125370634D01*
X135775000Y-124473012D01*
X135832007Y-124505925D01*
X135959174Y-124540000D01*
X136090826Y-124540000D01*
X136217993Y-124505925D01*
X136275000Y-124473012D01*
X136275000Y-125370633D01*
X136488483Y-125313433D01*
X136488492Y-125313429D01*
X136702578Y-125213600D01*
X136896082Y-125078105D01*
X137063105Y-124911082D01*
X137198600Y-124717578D01*
X137253118Y-124600664D01*
X137299290Y-124548225D01*
X137366484Y-124529073D01*
X137433365Y-124549289D01*
X137478699Y-124602454D01*
X137489500Y-124653069D01*
X137489500Y-127443038D01*
X137488720Y-127456923D01*
X137478540Y-127547264D01*
X137472362Y-127574333D01*
X137444648Y-127653537D01*
X137432600Y-127678555D01*
X137387957Y-127749604D01*
X137370644Y-127771313D01*
X137311313Y-127830644D01*
X137289604Y-127847957D01*
X137218555Y-127892600D01*
X137193537Y-127904648D01*
X137114333Y-127932362D01*
X137087264Y-127938540D01*
X137007075Y-127947576D01*
X136996921Y-127948720D01*
X136983038Y-127949500D01*
X116649000Y-127949500D01*
X116581961Y-127929815D01*
X116536206Y-127877011D01*
X116525000Y-127825500D01*
X116525000Y-122676013D01*
X116544685Y-122608974D01*
X116583026Y-122571020D01*
X116712261Y-122489817D01*
X116839815Y-122362263D01*
X116935788Y-122209523D01*
X116995367Y-122039256D01*
X116995368Y-122039250D01*
X117015564Y-121860004D01*
X117015564Y-121859997D01*
X116995368Y-121680751D01*
X116995367Y-121680746D01*
X116989351Y-121663553D01*
X116935788Y-121510479D01*
X116839815Y-121357739D01*
X116789721Y-121307645D01*
X116756236Y-121246322D01*
X116761220Y-121176630D01*
X116803092Y-121120697D01*
X116868556Y-121096280D01*
X116877402Y-121095964D01*
X116966232Y-121095964D01*
X117032204Y-121114970D01*
X117121777Y-121171253D01*
X117121781Y-121171254D01*
X117292037Y-121230830D01*
X117292043Y-121230831D01*
X117292045Y-121230832D01*
X117292046Y-121230832D01*
X117292050Y-121230833D01*
X117471296Y-121251029D01*
X117471300Y-121251029D01*
X117471304Y-121251029D01*
X117650549Y-121230833D01*
X117650552Y-121230832D01*
X117650555Y-121230832D01*
X117820822Y-121171253D01*
X117973562Y-121075280D01*
X117984660Y-121064182D01*
X118045983Y-121030697D01*
X118115675Y-121035681D01*
X118160022Y-121064182D01*
X118417667Y-121321827D01*
X118451152Y-121383150D01*
X118453206Y-121423391D01*
X118434435Y-121589995D01*
X118434435Y-121590003D01*
X118454630Y-121769249D01*
X118454631Y-121769254D01*
X118514211Y-121939523D01*
X118583638Y-122050015D01*
X118610184Y-122092262D01*
X118737738Y-122219816D01*
X118890478Y-122315789D01*
X118955734Y-122338623D01*
X119060745Y-122375368D01*
X119060750Y-122375369D01*
X119239997Y-122395565D01*
X119240000Y-122395565D01*
X119288053Y-122390150D01*
X119356873Y-122402203D01*
X119389618Y-122425688D01*
X119474281Y-122510351D01*
X119507765Y-122571672D01*
X119509819Y-122611911D01*
X119507927Y-122628719D01*
X119506567Y-122640788D01*
X119526762Y-122820034D01*
X119526763Y-122820039D01*
X119586343Y-122990308D01*
X119671275Y-123125476D01*
X119682316Y-123143047D01*
X119809870Y-123270601D01*
X119962610Y-123366574D01*
X120132877Y-123426153D01*
X120132882Y-123426154D01*
X120245412Y-123438832D01*
X120293957Y-123444302D01*
X120358371Y-123471368D01*
X120397926Y-123528963D01*
X120403294Y-123553638D01*
X120414630Y-123654250D01*
X120414631Y-123654254D01*
X120474211Y-123824522D01*
X120559453Y-123960183D01*
X120578453Y-124027419D01*
X120571501Y-124067108D01*
X120546443Y-124138721D01*
X120546443Y-124138722D01*
X120526247Y-124317972D01*
X120526247Y-124317979D01*
X120546442Y-124497225D01*
X120546445Y-124497238D01*
X120606022Y-124667497D01*
X120609043Y-124673770D01*
X120606647Y-124674923D01*
X120622346Y-124730472D01*
X120601979Y-124797307D01*
X120586034Y-124816890D01*
X120505185Y-124897739D01*
X120409213Y-125050476D01*
X120349633Y-125220745D01*
X120349632Y-125220750D01*
X120329437Y-125399996D01*
X120329437Y-125400003D01*
X120349632Y-125579249D01*
X120349633Y-125579254D01*
X120409213Y-125749523D01*
X120503764Y-125899999D01*
X120505186Y-125902262D01*
X120632740Y-126029816D01*
X120785480Y-126125789D01*
X120955747Y-126185368D01*
X120955752Y-126185369D01*
X121134998Y-126205565D01*
X121135002Y-126205565D01*
X121135006Y-126205565D01*
X121314251Y-126185369D01*
X121314254Y-126185368D01*
X121314257Y-126185368D01*
X121484524Y-126125789D01*
X121637264Y-126029816D01*
X121764818Y-125902262D01*
X121860791Y-125749522D01*
X121920370Y-125579255D01*
X121932407Y-125472422D01*
X121940567Y-125400003D01*
X121940567Y-125399996D01*
X121920371Y-125220750D01*
X121920368Y-125220737D01*
X121860791Y-125050478D01*
X121857771Y-125044206D01*
X121860168Y-125043051D01*
X121852623Y-125016366D01*
X127634435Y-125016366D01*
X127634435Y-125016373D01*
X127654630Y-125195619D01*
X127654631Y-125195624D01*
X127714211Y-125365893D01*
X127755685Y-125431898D01*
X127810184Y-125518632D01*
X127937738Y-125646186D01*
X128090478Y-125742159D01*
X128260745Y-125801738D01*
X128260750Y-125801739D01*
X128389383Y-125816232D01*
X128453797Y-125843298D01*
X128493352Y-125900893D01*
X128499500Y-125939452D01*
X128499500Y-127047870D01*
X128499501Y-127047876D01*
X128505908Y-127107483D01*
X128556202Y-127242328D01*
X128556206Y-127242335D01*
X128642452Y-127357544D01*
X128642455Y-127357547D01*
X128757664Y-127443793D01*
X128757671Y-127443797D01*
X128892517Y-127494091D01*
X128892516Y-127494091D01*
X128899444Y-127494835D01*
X128952127Y-127500500D01*
X130747872Y-127500499D01*
X130807483Y-127494091D01*
X130942331Y-127443796D01*
X131057546Y-127357546D01*
X131143796Y-127242331D01*
X131144666Y-127240000D01*
X131164021Y-127188105D01*
X131193002Y-127110401D01*
X131234872Y-127054468D01*
X131300337Y-127030050D01*
X131368610Y-127044901D01*
X131396865Y-127066053D01*
X131518917Y-127188105D01*
X131712421Y-127323600D01*
X131926507Y-127423429D01*
X131926516Y-127423433D01*
X132140000Y-127480634D01*
X132140000Y-126583012D01*
X132197007Y-126615925D01*
X132324174Y-126650000D01*
X132455826Y-126650000D01*
X132582993Y-126615925D01*
X132640000Y-126583012D01*
X132640000Y-127480633D01*
X132853483Y-127423433D01*
X132853492Y-127423429D01*
X133067578Y-127323600D01*
X133261082Y-127188105D01*
X133428105Y-127021082D01*
X133563600Y-126827578D01*
X133663429Y-126613492D01*
X133663432Y-126613486D01*
X133720636Y-126400000D01*
X132823012Y-126400000D01*
X132855925Y-126342993D01*
X132890000Y-126215826D01*
X132890000Y-126084174D01*
X132855925Y-125957007D01*
X132823012Y-125900000D01*
X133720636Y-125900000D01*
X133720635Y-125899999D01*
X133663432Y-125686513D01*
X133663429Y-125686507D01*
X133563600Y-125472422D01*
X133563599Y-125472420D01*
X133428113Y-125278926D01*
X133428108Y-125278920D01*
X133261082Y-125111894D01*
X133067578Y-124976399D01*
X132853492Y-124876570D01*
X132853486Y-124876567D01*
X132640000Y-124819364D01*
X132640000Y-125716988D01*
X132582993Y-125684075D01*
X132455826Y-125650000D01*
X132324174Y-125650000D01*
X132197007Y-125684075D01*
X132140000Y-125716988D01*
X132140000Y-124819364D01*
X132139999Y-124819364D01*
X131926513Y-124876567D01*
X131926507Y-124876570D01*
X131712422Y-124976399D01*
X131712420Y-124976400D01*
X131518926Y-125111886D01*
X131396865Y-125233947D01*
X131335542Y-125267431D01*
X131265850Y-125262447D01*
X131209917Y-125220575D01*
X131193002Y-125189598D01*
X131143797Y-125057671D01*
X131143793Y-125057664D01*
X131057547Y-124942455D01*
X131057544Y-124942452D01*
X130942335Y-124856206D01*
X130942328Y-124856202D01*
X130807482Y-124805908D01*
X130807483Y-124805908D01*
X130747883Y-124799501D01*
X130747881Y-124799500D01*
X130747873Y-124799500D01*
X130747865Y-124799500D01*
X129300189Y-124799500D01*
X129233150Y-124779815D01*
X129187395Y-124727011D01*
X129183147Y-124716454D01*
X129165789Y-124666848D01*
X129157131Y-124653069D01*
X129069816Y-124514108D01*
X128942262Y-124386554D01*
X128890028Y-124353733D01*
X128789523Y-124290581D01*
X128619254Y-124231001D01*
X128619249Y-124231000D01*
X128440004Y-124210805D01*
X128439996Y-124210805D01*
X128260750Y-124231000D01*
X128260745Y-124231001D01*
X128090476Y-124290581D01*
X127989972Y-124353733D01*
X127935062Y-124369249D01*
X127918643Y-124405203D01*
X127912611Y-124411681D01*
X127810184Y-124514107D01*
X127714211Y-124666846D01*
X127654631Y-124837115D01*
X127654630Y-124837120D01*
X127634435Y-125016366D01*
X121852623Y-125016366D01*
X121844467Y-124987523D01*
X121864823Y-124920684D01*
X121880771Y-124901094D01*
X121961628Y-124820238D01*
X122057601Y-124667498D01*
X122117180Y-124497231D01*
X122127549Y-124405203D01*
X122137377Y-124317979D01*
X122137377Y-124317972D01*
X122124085Y-124200000D01*
X122600000Y-124200000D01*
X127800000Y-124200000D01*
X127800000Y-120000000D01*
X122600000Y-120000000D01*
X122600000Y-124200000D01*
X122124085Y-124200000D01*
X122117181Y-124138726D01*
X122117180Y-124138721D01*
X122108001Y-124112489D01*
X122057601Y-123968454D01*
X121972357Y-123832790D01*
X121953358Y-123765555D01*
X121960309Y-123725869D01*
X121985368Y-123654255D01*
X121997152Y-123549668D01*
X122005565Y-123475003D01*
X122005565Y-123474996D01*
X121985369Y-123295750D01*
X121985368Y-123295745D01*
X121936223Y-123155296D01*
X121925789Y-123125478D01*
X121829816Y-122972738D01*
X121702262Y-122845184D01*
X121620482Y-122793798D01*
X121549523Y-122749211D01*
X121379254Y-122689631D01*
X121379249Y-122689630D01*
X121218173Y-122671482D01*
X121153759Y-122644416D01*
X121114203Y-122586821D01*
X121108836Y-122562144D01*
X121097501Y-122461535D01*
X121097500Y-122461530D01*
X121084958Y-122425688D01*
X121037921Y-122291263D01*
X120941948Y-122138523D01*
X120830582Y-122027157D01*
X120797098Y-121965834D01*
X120795044Y-121925593D01*
X120798297Y-121896724D01*
X120794159Y-121860001D01*
X120778101Y-121717474D01*
X120778100Y-121717469D01*
X120759234Y-121663553D01*
X120718521Y-121547202D01*
X120622548Y-121394462D01*
X120622546Y-121394460D01*
X120622545Y-121394458D01*
X120620282Y-121391620D01*
X120619391Y-121389439D01*
X120618843Y-121388566D01*
X120618996Y-121388469D01*
X120593876Y-121326933D01*
X120593232Y-121314311D01*
X120593232Y-118558424D01*
X120593233Y-118558411D01*
X120593233Y-118390308D01*
X120591910Y-118385369D01*
X120552309Y-118237580D01*
X120552305Y-118237573D01*
X120473256Y-118100654D01*
X120473250Y-118100646D01*
X120282704Y-117910100D01*
X120249219Y-117848777D01*
X120254203Y-117779085D01*
X120296075Y-117723152D01*
X120356502Y-117699199D01*
X120479249Y-117685369D01*
X120479251Y-117685368D01*
X120479255Y-117685368D01*
X120479258Y-117685366D01*
X120479262Y-117685366D01*
X120580331Y-117650000D01*
X120649522Y-117625789D01*
X120739096Y-117569505D01*
X120805068Y-117550500D01*
X121564071Y-117550500D01*
X121648615Y-117533682D01*
X121689744Y-117525501D01*
X121808127Y-117476465D01*
X121857939Y-117443182D01*
X121914669Y-117405277D01*
X127698224Y-111621720D01*
X127759545Y-111588237D01*
X127772019Y-111586183D01*
X127779255Y-111585368D01*
X127812062Y-111573887D01*
X127881840Y-111570325D01*
X127942468Y-111605054D01*
G37*
%TD.AperFunction*%
%TA.AperFunction,Conductor*%
G36*
X114205203Y-113531516D02*
G01*
X114211681Y-113537548D01*
X119355913Y-118681780D01*
X119389398Y-118743103D01*
X119392232Y-118769461D01*
X119392232Y-120298560D01*
X119372547Y-120365599D01*
X119319743Y-120411354D01*
X119250585Y-120421298D01*
X119187029Y-120392273D01*
X119180551Y-120386241D01*
X118228129Y-119433819D01*
X118228127Y-119433816D01*
X118109256Y-119314945D01*
X118109255Y-119314944D01*
X118022443Y-119264824D01*
X118022443Y-119264823D01*
X118022439Y-119264822D01*
X117972324Y-119235887D01*
X117819596Y-119194963D01*
X117661482Y-119194963D01*
X117653886Y-119194963D01*
X117653870Y-119194964D01*
X117288731Y-119194964D01*
X117288715Y-119194963D01*
X117281119Y-119194963D01*
X117123004Y-119194963D01*
X117046640Y-119215425D01*
X116970275Y-119235887D01*
X116970274Y-119235888D01*
X116935291Y-119256085D01*
X116867391Y-119272555D01*
X116801364Y-119249702D01*
X116785613Y-119236377D01*
X115918459Y-118369223D01*
X115884974Y-118307900D01*
X115889958Y-118238208D01*
X115931830Y-118182275D01*
X115997294Y-118157858D01*
X116065567Y-118172710D01*
X116072113Y-118176549D01*
X116150475Y-118225788D01*
X116320745Y-118285368D01*
X116320750Y-118285369D01*
X116499996Y-118305565D01*
X116500000Y-118305565D01*
X116500004Y-118305565D01*
X116679249Y-118285369D01*
X116679252Y-118285368D01*
X116679255Y-118285368D01*
X116849522Y-118225789D01*
X117002262Y-118129816D01*
X117129816Y-118002262D01*
X117225789Y-117849522D01*
X117285368Y-117679255D01*
X117285369Y-117679249D01*
X117305565Y-117500003D01*
X117305565Y-117499996D01*
X117285369Y-117320750D01*
X117285368Y-117320745D01*
X117269011Y-117274000D01*
X117225789Y-117150478D01*
X117129816Y-116997738D01*
X117002262Y-116870184D01*
X116913852Y-116814632D01*
X116849523Y-116774211D01*
X116679254Y-116714631D01*
X116679249Y-116714630D01*
X116500004Y-116694435D01*
X116499996Y-116694435D01*
X116320750Y-116714630D01*
X116320745Y-116714631D01*
X116150476Y-116774211D01*
X115997737Y-116870184D01*
X115870184Y-116997737D01*
X115774211Y-117150476D01*
X115714631Y-117320745D01*
X115714630Y-117320750D01*
X115694435Y-117499996D01*
X115694435Y-117500003D01*
X115714630Y-117679249D01*
X115714631Y-117679254D01*
X115774211Y-117849523D01*
X115823451Y-117927887D01*
X115842451Y-117995123D01*
X115822083Y-118061959D01*
X115768816Y-118107173D01*
X115699559Y-118116411D01*
X115636303Y-118086739D01*
X115630776Y-118081540D01*
X114036319Y-116487083D01*
X114002834Y-116425760D01*
X114000000Y-116399402D01*
X114000000Y-113625229D01*
X114019685Y-113558190D01*
X114072489Y-113512435D01*
X114141647Y-113502491D01*
X114205203Y-113531516D01*
G37*
%TD.AperFunction*%
%TD*%
M02*
