%TF.GenerationSoftware,KiCad,Pcbnew,8.0.8-2.fc41*%
%TF.CreationDate,2025-02-14T21:39:48-05:00*%
%TF.ProjectId,OS-41,4f532d34-312e-46b6-9963-61645f706362,rev?*%
%TF.SameCoordinates,Original*%
%TF.FileFunction,Soldermask,Top*%
%TF.FilePolarity,Negative*%
%FSLAX46Y46*%
G04 Gerber Fmt 4.6, Leading zero omitted, Abs format (unit mm)*
G04 Created by KiCad (PCBNEW 8.0.8-2.fc41) date 2025-02-14 21:39:48*
%MOMM*%
%LPD*%
G01*
G04 APERTURE LIST*
G04 Aperture macros list*
%AMRoundRect*
0 Rectangle with rounded corners*
0 $1 Rounding radius*
0 $2 $3 $4 $5 $6 $7 $8 $9 X,Y pos of 4 corners*
0 Add a 4 corners polygon primitive as box body*
4,1,4,$2,$3,$4,$5,$6,$7,$8,$9,$2,$3,0*
0 Add four circle primitives for the rounded corners*
1,1,$1+$1,$2,$3*
1,1,$1+$1,$4,$5*
1,1,$1+$1,$6,$7*
1,1,$1+$1,$8,$9*
0 Add four rect primitives between the rounded corners*
20,1,$1+$1,$2,$3,$4,$5,0*
20,1,$1+$1,$4,$5,$6,$7,0*
20,1,$1+$1,$6,$7,$8,$9,0*
20,1,$1+$1,$8,$9,$2,$3,0*%
G04 Aperture macros list end*
%ADD10RoundRect,0.237500X-0.300000X-0.237500X0.300000X-0.237500X0.300000X0.237500X-0.300000X0.237500X0*%
%ADD11RoundRect,0.237500X-0.237500X0.250000X-0.237500X-0.250000X0.237500X-0.250000X0.237500X0.250000X0*%
%ADD12RoundRect,0.237500X0.287500X0.237500X-0.287500X0.237500X-0.287500X-0.237500X0.287500X-0.237500X0*%
%ADD13RoundRect,0.237500X-0.287500X-0.237500X0.287500X-0.237500X0.287500X0.237500X-0.287500X0.237500X0*%
%ADD14RoundRect,0.250000X-0.325000X-0.450000X0.325000X-0.450000X0.325000X0.450000X-0.325000X0.450000X0*%
%ADD15R,1.000000X1.700000*%
%ADD16RoundRect,0.237500X0.237500X-0.250000X0.237500X0.250000X-0.237500X0.250000X-0.237500X-0.250000X0*%
%ADD17RoundRect,0.237500X-0.237500X0.300000X-0.237500X-0.300000X0.237500X-0.300000X0.237500X0.300000X0*%
%ADD18RoundRect,0.237500X0.300000X0.237500X-0.300000X0.237500X-0.300000X-0.237500X0.300000X-0.237500X0*%
%ADD19R,0.300000X0.300000*%
%ADD20RoundRect,0.237500X0.237500X-0.300000X0.237500X0.300000X-0.237500X0.300000X-0.237500X-0.300000X0*%
%ADD21RoundRect,0.237500X0.250000X0.237500X-0.250000X0.237500X-0.250000X-0.237500X0.250000X-0.237500X0*%
%ADD22RoundRect,0.237500X-0.250000X-0.237500X0.250000X-0.237500X0.250000X0.237500X-0.250000X0.237500X0*%
%ADD23C,2.050000*%
%ADD24C,2.250000*%
%ADD25RoundRect,0.237500X-0.237500X0.287500X-0.237500X-0.287500X0.237500X-0.287500X0.237500X0.287500X0*%
%ADD26O,0.700000X1.770000*%
%ADD27R,1.700000X1.700000*%
%ADD28O,1.700000X1.700000*%
%ADD29RoundRect,0.237500X0.380070X-0.044194X-0.044194X0.380070X-0.380070X0.044194X0.044194X-0.380070X0*%
%ADD30R,1.400000X1.200000*%
%ADD31RoundRect,0.150000X0.150000X-0.512500X0.150000X0.512500X-0.150000X0.512500X-0.150000X-0.512500X0*%
%ADD32R,3.000000X1.750000*%
%ADD33RoundRect,0.237500X-0.044194X-0.380070X0.380070X0.044194X0.044194X0.380070X-0.380070X-0.044194X0*%
%ADD34RoundRect,0.102000X-0.380000X-0.140000X0.380000X-0.140000X0.380000X0.140000X-0.380000X0.140000X0*%
%ADD35RoundRect,0.102000X-0.140000X-0.380000X0.140000X-0.380000X0.140000X0.380000X-0.140000X0.380000X0*%
%ADD36RoundRect,0.102000X-1.200000X-1.200000X1.200000X-1.200000X1.200000X1.200000X-1.200000X1.200000X0*%
%ADD37RoundRect,0.375000X-0.625000X-0.375000X0.625000X-0.375000X0.625000X0.375000X-0.625000X0.375000X0*%
%ADD38RoundRect,0.500000X-0.500000X-1.400000X0.500000X-1.400000X0.500000X1.400000X-0.500000X1.400000X0*%
%ADD39R,0.450000X1.250000*%
%ADD40O,1.300000X2.200000*%
%ADD41C,1.250000*%
%ADD42RoundRect,0.150000X0.150000X-0.650000X0.150000X0.650000X-0.150000X0.650000X-0.150000X-0.650000X0*%
%ADD43RoundRect,0.050000X-0.387500X-0.050000X0.387500X-0.050000X0.387500X0.050000X-0.387500X0.050000X0*%
%ADD44RoundRect,0.050000X-0.050000X-0.387500X0.050000X-0.387500X0.050000X0.387500X-0.050000X0.387500X0*%
%ADD45R,3.200000X3.200000*%
%ADD46R,1.750000X3.500000*%
%ADD47R,1.500000X1.050000*%
%ADD48O,1.500000X1.050000*%
%ADD49RoundRect,0.237500X-0.380070X0.044194X0.044194X-0.380070X0.380070X-0.044194X-0.044194X0.380070X0*%
G04 APERTURE END LIST*
D10*
%TO.C,C8*%
X121637500Y-127100000D03*
X123362500Y-127100000D03*
%TD*%
D11*
%TO.C,R6*%
X112000000Y-98187500D03*
X112000000Y-100012500D03*
%TD*%
D12*
%TO.C,L3*%
X111574998Y-123850000D03*
X109825000Y-123850000D03*
%TD*%
D13*
%TO.C,L2*%
X111400000Y-125350000D03*
X113150000Y-125350000D03*
%TD*%
D14*
%TO.C,D2*%
X104150000Y-113200000D03*
X106200000Y-113200000D03*
%TD*%
%TO.C,D1*%
X104200000Y-111100000D03*
X106250000Y-111100000D03*
%TD*%
D15*
%TO.C,SW2*%
X121550000Y-118500000D03*
X121550000Y-111900000D03*
X125250000Y-118500000D03*
X125250000Y-111900000D03*
%TD*%
D16*
%TO.C,R7*%
X113500000Y-100012500D03*
X113500000Y-98187500D03*
%TD*%
D17*
%TO.C,C31*%
X114100000Y-117000000D03*
X114100000Y-118725002D03*
%TD*%
D18*
%TO.C,C19*%
X117762501Y-97600000D03*
X116037499Y-97600000D03*
%TD*%
D19*
%TO.C,U6*%
X122400000Y-105500000D03*
X122400000Y-106000000D03*
X122680000Y-106530000D03*
X123180000Y-106530000D03*
X123680000Y-106530000D03*
X123960000Y-106000000D03*
X123960000Y-105500000D03*
X123680000Y-104970000D03*
X123180000Y-104970000D03*
X122680000Y-104970000D03*
%TD*%
D20*
%TO.C,C12*%
X130100000Y-107462501D03*
X130100000Y-105737499D03*
%TD*%
%TO.C,C25*%
X110400000Y-98762501D03*
X110400000Y-97037499D03*
%TD*%
%TO.C,C10*%
X126900000Y-107362501D03*
X126900000Y-105637499D03*
%TD*%
D21*
%TO.C,R12*%
X119412500Y-118200000D03*
X117587500Y-118200000D03*
%TD*%
D22*
%TO.C,R1*%
X107937500Y-126825000D03*
X109762500Y-126825000D03*
%TD*%
%TO.C,R4*%
X133487500Y-108800000D03*
X135312500Y-108800000D03*
%TD*%
D11*
%TO.C,R16*%
X96540000Y-92067500D03*
X96540000Y-93892500D03*
%TD*%
D23*
%TO.C,J4*%
X98100000Y-123850000D03*
D24*
X95560000Y-121310000D03*
X95560000Y-126390000D03*
X100640000Y-121310000D03*
X100640000Y-126390000D03*
%TD*%
D25*
%TO.C,L1*%
X114925000Y-120575002D03*
X114925000Y-122325000D03*
%TD*%
D26*
%TO.C,U4*%
X127600000Y-100220001D03*
X128700000Y-100220001D03*
X129800000Y-100220002D03*
X130900000Y-100220001D03*
X132000000Y-100220002D03*
X133100000Y-100220001D03*
X134200000Y-100220002D03*
X135300000Y-100220001D03*
X136400000Y-100220001D03*
X136400000Y-90600001D03*
X135300000Y-90600001D03*
X134200000Y-90600000D03*
X133100000Y-90600001D03*
X132000000Y-90600000D03*
X130900000Y-90600001D03*
X129800000Y-90600000D03*
X128700000Y-90600001D03*
X127600000Y-90600001D03*
%TD*%
D27*
%TO.C,J7*%
X96000000Y-97520001D03*
D28*
X96000000Y-100060001D03*
X96000000Y-102600000D03*
X96000000Y-105140001D03*
X96000000Y-107680001D03*
X96000000Y-110220001D03*
X96000000Y-112760001D03*
X96000000Y-115300002D03*
X96000000Y-117840001D03*
%TD*%
D18*
%TO.C,C23*%
X104825002Y-104200000D03*
X103100000Y-104200000D03*
%TD*%
D29*
%TO.C,C17*%
X118509880Y-114809880D03*
X117290120Y-113590120D03*
%TD*%
D30*
%TO.C,U8*%
X110000000Y-114950000D03*
X112200000Y-114950000D03*
X112200000Y-113250000D03*
X110000000Y-113250000D03*
%TD*%
D31*
%TO.C,U3*%
X130050001Y-112875000D03*
X131000000Y-112875000D03*
X131949999Y-112875000D03*
X131949999Y-110600000D03*
X131000000Y-110600000D03*
X130050001Y-110600000D03*
%TD*%
D17*
%TO.C,C3*%
X104950000Y-120512499D03*
X104950000Y-122237501D03*
%TD*%
D32*
%TO.C,U1*%
X135500000Y-84225000D03*
X135500000Y-73975000D03*
%TD*%
D18*
%TO.C,C30*%
X120410001Y-88320000D03*
X118684999Y-88320000D03*
%TD*%
D33*
%TO.C,C27*%
X120090120Y-100909880D03*
X121309880Y-99690120D03*
%TD*%
D17*
%TO.C,C29*%
X110000000Y-117037499D03*
X110000000Y-118762501D03*
%TD*%
D11*
%TO.C,R8*%
X136900000Y-108775000D03*
X136900000Y-110600000D03*
%TD*%
D16*
%TO.C,R9*%
X125700000Y-99612500D03*
X125700000Y-97787500D03*
%TD*%
D34*
%TO.C,U2*%
X116695000Y-123295000D03*
X116695000Y-123795000D03*
X116695000Y-124295000D03*
X116695000Y-124795000D03*
X116695000Y-125295000D03*
D35*
X117475000Y-126075000D03*
X117975000Y-126075000D03*
X118475000Y-126075000D03*
X118975000Y-126075000D03*
X119475000Y-126075000D03*
D34*
X120255000Y-125295000D03*
X120255000Y-124795000D03*
X120255000Y-124295000D03*
X120255000Y-123795000D03*
X120255000Y-123295000D03*
D35*
X119475000Y-122515000D03*
X118975000Y-122515000D03*
X118475000Y-122515000D03*
X117975000Y-122515000D03*
X117475000Y-122515000D03*
D36*
X118475000Y-124295000D03*
%TD*%
D12*
%TO.C,L4*%
X108249999Y-123850000D03*
X106500001Y-123850000D03*
%TD*%
D30*
%TO.C,X1*%
X126100000Y-121300000D03*
X123900000Y-121300000D03*
X123900000Y-123000000D03*
X126100000Y-123000000D03*
%TD*%
D27*
%TO.C,J5*%
X135400000Y-87800000D03*
D28*
X132860000Y-87800000D03*
%TD*%
D18*
%TO.C,C6*%
X114875001Y-123850000D03*
X113149999Y-123850000D03*
%TD*%
D37*
%TO.C,U9*%
X118050000Y-90900000D03*
X118050000Y-93200000D03*
D38*
X124350000Y-93200000D03*
D37*
X118050000Y-95500000D03*
%TD*%
D39*
%TO.C,J6*%
X113729999Y-91440000D03*
X113079999Y-91439999D03*
X112429999Y-91440000D03*
X111779999Y-91440000D03*
X111129999Y-91440000D03*
D40*
X116019998Y-88500000D03*
D41*
X114839998Y-91300000D03*
X110000000Y-91300000D03*
D40*
X108820000Y-88500000D03*
%TD*%
D16*
%TO.C,R17*%
X98490000Y-103920000D03*
X98490000Y-102095000D03*
%TD*%
D12*
%TO.C,L5*%
X104949999Y-123850000D03*
X103200001Y-123850000D03*
%TD*%
D15*
%TO.C,SW1*%
X98600000Y-118000000D03*
X98600000Y-111400000D03*
X102300000Y-118000000D03*
X102300000Y-111400000D03*
%TD*%
D14*
%TO.C,D3*%
X125950000Y-109400000D03*
X128000000Y-109400000D03*
%TD*%
D18*
%TO.C,C18*%
X117762501Y-100300000D03*
X116037499Y-100300000D03*
%TD*%
D10*
%TO.C,C21*%
X119100000Y-104100000D03*
X120825002Y-104100000D03*
%TD*%
%TO.C,C1*%
X111400000Y-126825000D03*
X113125000Y-126825000D03*
%TD*%
D17*
%TO.C,C2*%
X108275000Y-120587499D03*
X108275000Y-122312501D03*
%TD*%
D27*
%TO.C,J2*%
X129850000Y-126150000D03*
D28*
X132390000Y-126150000D03*
%TD*%
D10*
%TO.C,C5*%
X130660000Y-119690000D03*
X132385000Y-119690000D03*
%TD*%
D11*
%TO.C,R5*%
X98600000Y-107487500D03*
X98600000Y-109312500D03*
%TD*%
D42*
%TO.C,U10*%
X98895000Y-99200000D03*
X100165000Y-99200000D03*
X101435000Y-99200000D03*
X102705000Y-99200000D03*
X102705000Y-92000000D03*
X101435000Y-92000000D03*
X100165000Y-92000000D03*
X98895000Y-92000000D03*
%TD*%
D22*
%TO.C,R2*%
X124150000Y-88400000D03*
X125975000Y-88400000D03*
%TD*%
D43*
%TO.C,U7*%
X108062500Y-104037500D03*
X108062500Y-104437500D03*
X108062500Y-104837500D03*
X108062500Y-105237500D03*
X108062500Y-105637500D03*
X108062500Y-106037500D03*
X108062500Y-106437500D03*
X108062500Y-106837500D03*
X108062500Y-107237500D03*
X108062500Y-107637500D03*
X108062500Y-108037500D03*
X108062500Y-108437500D03*
X108062500Y-108837500D03*
X108062500Y-109237500D03*
D44*
X108900000Y-110075000D03*
X109300000Y-110075000D03*
X109700000Y-110075000D03*
X110100000Y-110075000D03*
X110500000Y-110075000D03*
X110900000Y-110075000D03*
X111300000Y-110075000D03*
X111700000Y-110075000D03*
X112100000Y-110075000D03*
X112500000Y-110075000D03*
X112900000Y-110075000D03*
X113300000Y-110075000D03*
X113700000Y-110075000D03*
X114100000Y-110075000D03*
D43*
X114937500Y-109237500D03*
X114937500Y-108837500D03*
X114937500Y-108437500D03*
X114937500Y-108037500D03*
X114937500Y-107637500D03*
X114937500Y-107237500D03*
X114937500Y-106837500D03*
X114937500Y-106437500D03*
X114937500Y-106037500D03*
X114937500Y-105637500D03*
X114937500Y-105237500D03*
X114937500Y-104837500D03*
X114937500Y-104437500D03*
X114937500Y-104037500D03*
D44*
X114100000Y-103200000D03*
X113700000Y-103200000D03*
X113300000Y-103200000D03*
X112900000Y-103200000D03*
X112500000Y-103200000D03*
X112100000Y-103200000D03*
X111700000Y-103200000D03*
X111300000Y-103200000D03*
X110900000Y-103200000D03*
X110500000Y-103200000D03*
X110100000Y-103200000D03*
X109700000Y-103200000D03*
X109300000Y-103200000D03*
X108900000Y-103200000D03*
D45*
X111500000Y-106637500D03*
%TD*%
D33*
%TO.C,C32*%
X99190120Y-89709880D03*
X100409880Y-88490120D03*
%TD*%
D18*
%TO.C,C24*%
X119662501Y-110900000D03*
X117937499Y-110900000D03*
%TD*%
D27*
%TO.C,J3*%
X136000000Y-114860000D03*
D28*
X136000000Y-117400000D03*
%TD*%
D22*
%TO.C,R10*%
X103287500Y-107300000D03*
X105112500Y-107300000D03*
%TD*%
D27*
%TO.C,J1*%
X136025000Y-121500000D03*
D28*
X136025000Y-124040000D03*
%TD*%
D20*
%TO.C,C13*%
X128500000Y-107425002D03*
X128500000Y-105700000D03*
%TD*%
D16*
%TO.C,R11*%
X107850000Y-116262500D03*
X107850000Y-114437500D03*
%TD*%
D11*
%TO.C,R3*%
X132000000Y-105687500D03*
X132000000Y-107512500D03*
%TD*%
D18*
%TO.C,C20*%
X119462501Y-107700000D03*
X117737499Y-107700000D03*
%TD*%
D11*
%TO.C,R15*%
X114100000Y-113087500D03*
X114100000Y-114912500D03*
%TD*%
D46*
%TO.C,L6*%
X132370000Y-116800000D03*
X129630000Y-116800000D03*
%TD*%
D20*
%TO.C,C26*%
X101200000Y-105800000D03*
X101200000Y-104074998D03*
%TD*%
D10*
%TO.C,C28*%
X120687500Y-97700000D03*
X122412500Y-97700000D03*
%TD*%
D47*
%TO.C,U5*%
X135700000Y-105200000D03*
D48*
X135700000Y-103929999D03*
X135700000Y-102660000D03*
%TD*%
D49*
%TO.C,C22*%
X122900000Y-101400000D03*
X124119760Y-102619760D03*
%TD*%
M02*
