M48
; DRILL file {KiCad 8.0.5-1.fc40} date 2024-11-16T16:52:44-0500
; FORMAT={-:-/ absolute / inch / decimal}
; #@! TF.CreationDate,2024-11-16T16:52:44-05:00
; #@! TF.GenerationSoftware,Kicad,Pcbnew,8.0.5-1.fc40
; #@! TF.FileFunction,Plated,1,2,PTH
FMAT,2
INCH
; #@! TA.AperFunction,Plated,PTH,ViaDrill
T1C0.0118
; #@! TA.AperFunction,Plated,PTH,ComponentDrill
T2C0.0295
; #@! TA.AperFunction,Plated,PTH,ComponentDrill
T3C0.0394
; #@! TA.AperFunction,Plated,PTH,ComponentDrill
T4C0.0591
; #@! TA.AperFunction,Plated,PTH,ComponentDrill
T5C0.0669
%
G90
G05
T1
X4.0669Y-4.4646
X4.0906Y-4.6496
X4.0913Y-4.2244
X4.1024Y-4.5197
X4.1614Y-4.4843
X4.1614Y-4.5906
X4.1929Y-4.1268
X4.1929Y-4.3268
X4.2126Y-4.5315
X4.252Y-4.4764
X4.2598Y-4.5551
X4.3701Y-4.6142
X4.3858Y-4.815
X4.3898Y-4.4094
X4.3898Y-4.7323
X4.4094Y-4.0551
X4.4173Y-4.1142
X4.4213Y-4.5669
X4.4252Y-4.7402
X4.4252Y-4.811
X4.4606Y-4.437
X4.4646Y-4.0945
X4.4921Y-4.1457
X4.4921Y-4.4724
X4.5276Y-4.0551
X4.5669Y-4.2874
X4.5984Y-4.3425
X4.6063Y-4.2874
X4.6063Y-4.4488
X4.6457Y-4.0551
X4.6556Y-4.4386
X4.6732Y-4.689
X4.6772Y-4.1457
X4.685Y-3.622
X4.685Y-3.8386
X4.685Y-4.0157
X4.6969Y-4.1102
X4.7008Y-4.0591
X4.7047Y-3.9764
X4.7087Y-4.7677
X4.7165Y-4.7047
X4.7244Y-4.0354
X4.7283Y-4.811
X4.7328Y-3.9454
X4.748Y-4.689
X4.7835Y-3.7283
X4.7913Y-3.626
X4.7953Y-3.752
X4.7992Y-3.874
X4.7992Y-3.9134
X4.8031Y-3.9567
X4.8071Y-3.7756
X4.815Y-3.7283
X4.8189Y-4.563
X4.8228Y-3.622
X4.8268Y-3.878
X4.8307Y-3.9173
X4.8307Y-4.8071
X4.8346Y-3.7598
X4.8425Y-3.9961
X4.8898Y-4.0079
X4.8981Y-3.9611
X4.9331Y-4.6732
X4.9449Y-4.1378
X4.9488Y-4.7205
X4.9764Y-4.8071
X4.9792Y-4.1826
X4.9995Y-4.1422
X5.0Y-3.9961
X5.0084Y-4.2465
X5.0118Y-3.7441
X5.0197Y-4.4134
X5.0236Y-3.7795
X5.0286Y-4.2667
X5.0394Y-3.6024
X5.0394Y-3.6339
X5.0394Y-3.8898
X5.0433Y-3.7205
X5.0433Y-3.752
X5.0591Y-3.9055
X5.0674Y-4.0394
X5.0709Y-4.2087
X5.0945Y-4.815
X5.1063Y-4.7047
X5.1084Y-4.306
X5.1181Y-4.748
X5.1535Y-4.0709
X5.1575Y-4.3307
X5.1654Y-3.9921
X5.1772Y-3.8307
X5.1772Y-3.9213
X5.1811Y-4.6181
X5.185Y-4.4646
X5.1969Y-3.5827
X5.2087Y-4.6181
X5.2126Y-4.4685
X5.2205Y-4.0236
X5.2205Y-4.6732
X5.2288Y-4.3824
X5.2318Y-4.2743
X5.2362Y-3.7205
X5.2721Y-4.4665
X5.2918Y-4.4218
X5.2958Y-4.2464
X5.2992Y-4.6142
X5.3031Y-4.0832
X5.3346Y-3.7008
X5.3346Y-4.311
X5.3346Y-4.3898
X5.3514Y-4.5541
X5.3543Y-3.5669
X5.374Y-4.4094
X5.374Y-4.4488
X5.4021Y-4.1304
X5.4116Y-4.2744
X5.4331Y-4.7244
X5.4449Y-4.5591
X5.4729Y-4.4769
X5.4966Y-4.6816
X5.5197Y-4.8228
X5.5748Y-4.1929
X5.6496Y-4.0157
X5.689Y-3.9173
X5.7441Y-4.5709
X5.7992Y-4.5709
X5.8583Y-3.9134
X5.8858Y-4.6024
X5.9252Y-3.9961
X5.9291Y-4.5709
X5.9843Y-3.8583
X5.9843Y-3.9173
X5.9843Y-3.9764
X5.9926Y-4.1973
X6.1299Y-4.0787
X6.1299Y-4.6614
X6.1614Y-4.6024
X6.185Y-4.6693
X6.189Y-3.7244
X6.2008Y-3.7992
X6.2205Y-4.0748
X6.2323Y-4.311
X6.2323Y-4.6063
X6.2756Y-4.3701
X6.2835Y-4.5236
X6.3937Y-3.9173
X6.4252Y-4.0157
X6.4488Y-4.0827
X6.4567Y-3.8583
X6.4567Y-3.9961
X6.4567Y-4.1535
X6.4606Y-3.6614
X6.4724Y-3.7874
X6.4764Y-4.0354
X6.4764Y-4.1142
X6.4769Y-3.8981
X6.4961Y-3.9961
X6.5157Y-3.7598
X6.5241Y-4.2052
X6.5984Y-3.7913
X6.6654Y-3.8819
X6.6654Y-3.9606
X6.6732Y-3.8425
X6.685Y-4.1654
X6.689Y-3.7953
X6.689Y-4.2559
X6.6929Y-4.0945
X6.7047Y-4.0354
X6.7205Y-4.6457
X6.7244Y-4.1339
X6.7283Y-3.874
X6.7283Y-3.9291
X6.7323Y-4.311
X6.752Y-3.7598
X6.7638Y-4.0906
X6.7638Y-4.252
X6.7717Y-4.4094
X6.7756Y-4.1575
X6.7874Y-3.937
X6.7913Y-4.5
X6.7992Y-3.8543
X6.7992Y-4.1142
X6.8031Y-4.1929
X6.811Y-3.7835
X6.815Y-4.0
X6.8346Y-4.3031
X6.8504Y-3.8465
X6.8504Y-4.1535
X6.8543Y-4.0236
X6.8543Y-4.0748
X6.8543Y-4.2559
X6.8583Y-3.9331
X6.8701Y-3.9685
X6.8701Y-4.1929
X6.8701Y-4.4606
X6.9016Y-3.7953
X6.9173Y-4.3228
X6.9213Y-4.689
X6.9291Y-4.2717
X6.9685Y-4.4685
X6.9882Y-4.2913
X7.0315Y-4.0039
X7.0394Y-4.0551
X7.0472Y-3.878
X7.0472Y-3.9567
X7.0827Y-4.437
X7.0945Y-3.9803
T2
X5.6902Y-4.7228
X5.7402Y-4.7228
X5.7902Y-4.7228
X5.9079Y-4.7244
X5.9579Y-4.7244
X6.0079Y-4.7244
T3
X4.0969Y-4.7874
X4.1969Y-4.7874
X5.2697Y-4.7904
X5.3697Y-4.7904
X6.2879Y-4.784
X6.2958Y-3.7769
X6.2958Y-3.8769
X6.2958Y-3.9769
X6.2958Y-4.0769
X6.3879Y-4.784
X6.7126Y-4.7874
X6.8126Y-4.7874
X7.0763Y-4.156
X7.0763Y-4.256
T4
X4.1913Y-4.2268
T5
X4.0913Y-4.1268
X4.0913Y-4.3268
X4.2913Y-4.1268
X4.2913Y-4.3268
M30
