M48
; DRILL file {KiCad 8.0.9-1.fc41} date 2025-06-12T13:42:16-0400
; FORMAT={-:-/ absolute / inch / decimal}
; #@! TF.CreationDate,2025-06-12T13:42:16-04:00
; #@! TF.GenerationSoftware,Kicad,Pcbnew,8.0.9-1.fc41
; #@! TF.FileFunction,Plated,1,4,PTH
FMAT,2
INCH
; #@! TA.AperFunction,Plated,PTH,ViaDrill
T1C0.0118
; #@! TA.AperFunction,Plated,PTH,ComponentDrill
T2C0.0394
; #@! TA.AperFunction,Plated,PTH,ComponentDrill
T3C0.0591
; #@! TA.AperFunction,Plated,PTH,ComponentDrill
T4C0.0669
%
G90
G05
T1
X4.9724Y-4.5433
X4.9764Y-4.6457
X4.9783Y-3.4006
X5.0Y-4.878
X5.0315Y-3.6988
X5.0591Y-4.0866
X5.063Y-4.315
X5.1102Y-3.4026
X5.1142Y-4.9213
X5.122Y-4.5669
X5.1339Y-4.4291
X5.1457Y-4.7283
X5.1535Y-3.7441
X5.1575Y-3.8622
X5.2362Y-3.3967
X5.2441Y-4.185
X5.2638Y-4.1112
X5.2667Y-4.0197
X5.2677Y-4.9331
X5.2795Y-4.8819
X5.2835Y-3.8504
X5.2892Y-4.3268
X5.2892Y-4.4307
X5.2913Y-4.2835
X5.2992Y-4.6654
X5.3024Y-3.178
X5.3315Y-3.1768
X5.3366Y-3.9847
X5.338Y-3.1275
X5.3386Y-4.2598
X5.3425Y-4.4071
X5.3425Y-4.5906
X5.3618Y-3.3378
X5.3631Y-3.9677
X5.3661Y-4.0197
X5.3667Y-4.5339
X5.3677Y-3.2912
X5.372Y-3.8937
X5.3732Y-3.3839
X5.3774Y-4.5872
X5.378Y-4.3307
X5.381Y-3.8033
X5.3858Y-5.2165
X5.3917Y-3.4181
X5.3921Y-4.2983
X5.4056Y-3.2939
X5.4076Y-4.5505
X5.4094Y-3.6462
X5.4094Y-4.1654
X5.4101Y-4.0321
X5.4173Y-3.7992
X5.4232Y-3.4154
X5.4232Y-3.4449
X5.4232Y-3.4744
X5.4232Y-3.5039
X5.4232Y-3.5335
X5.4232Y-3.563
X5.4232Y-3.5925
X5.4331Y-4.2126
X5.4346Y-3.3764
X5.4415Y-4.4561
X5.4506Y-3.1352
X5.4567Y-4.3071
X5.4606Y-5.2047
X5.4627Y-3.8682
X5.4689Y-3.1752
X5.4724Y-3.4646
X5.4724Y-3.5039
X5.4724Y-3.5433
X5.4724Y-3.5827
X5.4764Y-4.3622
X5.488Y-3.3396
X5.4897Y-3.9671
X5.4957Y-4.5102
X5.498Y-3.174
X5.5Y-3.9055
X5.5015Y-4.1358
X5.5015Y-4.1358
X5.5039Y-4.3074
X5.508Y-4.4923
X5.5118Y-3.4646
X5.5118Y-3.5039
X5.5118Y-3.5433
X5.5118Y-3.5827
X5.5119Y-3.8763
X5.5152Y-4.3538
X5.5158Y-3.8378
X5.5264Y-3.289
X5.5299Y-3.1736
X5.5472Y-3.8386
X5.5484Y-3.2478
X5.5512Y-3.4646
X5.5512Y-3.5039
X5.5512Y-3.5433
X5.5512Y-3.5827
X5.5545Y-4.3537
X5.5551Y-4.878
X5.5633Y-3.3335
X5.5669Y-3.9606
X5.576Y-3.1213
X5.5787Y-4.0984
X5.5805Y-4.0568
X5.5831Y-3.1768
X5.5846Y-4.3087
X5.5906Y-3.4646
X5.5906Y-3.5039
X5.5906Y-3.5433
X5.5906Y-3.5827
X5.5906Y-3.622
X5.5906Y-3.6969
X5.5906Y-4.6339
X5.5945Y-4.6811
X5.6051Y-3.3323
X5.6063Y-4.815
X5.6102Y-4.6102
X5.6102Y-4.7283
X5.6181Y-3.7087
X5.6299Y-3.4646
X5.6299Y-3.5039
X5.6299Y-3.5433
X5.6299Y-3.6614
X5.6373Y-4.2712
X5.6441Y-3.3252
X5.6624Y-4.0254
X5.6624Y-4.2462
X5.6693Y-3.4646
X5.6693Y-3.5039
X5.6693Y-3.5433
X5.6744Y-3.3012
X5.6819Y-3.2039
X5.6996Y-3.322
X5.7067Y-3.2258
X5.7087Y-3.4646
X5.7087Y-3.5039
X5.7087Y-3.5433
X5.7087Y-3.5827
X5.7087Y-3.9291
X5.7096Y-4.248
X5.7105Y-3.1313
X5.7205Y-4.378
X5.7215Y-3.3522
X5.7283Y-4.4409
X5.7283Y-5.0906
X5.7358Y-3.2571
X5.748Y-3.5039
X5.748Y-3.5433
X5.748Y-3.5827
X5.7594Y-3.2843
X5.76Y-5.0878
X5.7638Y-4.6181
X5.7862Y-3.315
X5.7874Y-3.5039
X5.7874Y-3.5433
X5.7874Y-3.5827
X5.7874Y-3.7402
X5.7992Y-4.7008
X5.8169Y-3.3417
X5.8268Y-3.5039
X5.8268Y-3.5433
X5.8268Y-3.5827
X5.8605Y-3.3242
X5.8622Y-4.9213
X5.876Y-3.4252
X5.876Y-3.4547
X5.876Y-3.4843
X5.876Y-3.5138
X5.876Y-3.5433
X5.876Y-3.5728
X5.876Y-3.75
X5.876Y-3.7795
X5.8835Y-3.272
X5.8858Y-3.1929
T2
X4.9921Y-3.7953
X4.9921Y-3.8953
X4.9961Y-4.1992
X4.9961Y-4.2992
X5.7175Y-5.1969
X5.7795Y-3.9402
X5.7795Y-4.0402
X5.7795Y-4.1402
X5.7795Y-4.2402
X5.8175Y-5.1969
X5.8346Y-4.4079
X5.8346Y-4.5079
T3
X5.2189Y-5.089
T4
X5.1189Y-4.989
X5.1189Y-5.189
X5.3189Y-4.989
X5.3189Y-5.189
M30
