M48
; DRILL file {KiCad 8.0.8-2.fc41} date 2025-02-14T21:39:48-0500
; FORMAT={-:-/ absolute / inch / decimal}
; #@! TF.CreationDate,2025-02-14T21:39:48-05:00
; #@! TF.GenerationSoftware,Kicad,Pcbnew,8.0.8-2.fc41
; #@! TF.FileFunction,Plated,1,4,PTH
FMAT,2
INCH
; #@! TA.AperFunction,Plated,PTH,ViaDrill
T1C0.0118
; #@! TA.AperFunction,Plated,PTH,ComponentDrill
T2C0.0276
; #@! TA.AperFunction,Plated,PTH,ComponentDrill
T3C0.0295
; #@! TA.AperFunction,Plated,PTH,ComponentDrill
T4C0.0394
; #@! TA.AperFunction,Plated,PTH,ComponentDrill
T5C0.0591
; #@! TA.AperFunction,Plated,PTH,ComponentDrill
T6C0.0669
%
G90
G05
T1
X3.7087Y-3.5197
X3.7087Y-3.6693
X3.7165Y-3.4488
X3.7453Y-3.5807
X3.7567Y-4.8756
X3.7992Y-3.5433
X3.8449Y-3.8055
X3.8516Y-3.6236
X3.8622Y-3.9787
X3.8622Y-4.972
X3.8646Y-4.75
X3.8898Y-3.8157
X3.9067Y-4.1492
X3.9134Y-4.063
X3.9213Y-4.6299
X3.9287Y-4.1945
X3.9516Y-4.6583
X3.9673Y-4.5071
X4.0079Y-4.2205
X4.0276Y-3.7319
X4.0276Y-3.7988
X4.0315Y-3.4449
X4.0315Y-4.1732
X4.0315Y-4.2929
X4.0354Y-4.5945
X4.0394Y-4.2598
X4.0617Y-3.9718
X4.0709Y-3.4803
X4.0861Y-4.1066
X4.1102Y-3.4449
X4.1181Y-4.5984
X4.1339Y-4.1339
X4.1433Y-3.8949
X4.1472Y-3.937
X4.1526Y-4.3128
X4.1654Y-4.6535
X4.1846Y-3.4413
X4.186Y-4.2795
X4.1965Y-3.9567
X4.198Y-3.5169
X4.1997Y-3.816
X4.2074Y-4.3033
X4.2142Y-4.4152
X4.2194Y-4.234
X4.2335Y-3.5992
X4.2362Y-3.9799
X4.2443Y-4.4291
X4.248Y-3.6917
X4.2484Y-4.6346
X4.2586Y-4.3641
X4.2588Y-4.3288
X4.2638Y-4.0866
X4.2717Y-3.7795
X4.2879Y-4.1925
X4.2879Y-4.2241
X4.2963Y-4.2805
X4.311Y-4.1161
X4.315Y-3.748
X4.3235Y-4.2969
X4.338Y-4.0999
X4.3543Y-3.6772
X4.3634Y-3.4898
X4.365Y-3.4535
X4.378Y-3.6457
X4.378Y-4.6732
X4.3917Y-4.1063
X4.3937Y-4.0236
X4.3978Y-4.6026
X4.3983Y-4.3012
X4.4094Y-4.6732
X4.4252Y-4.1161
X4.4453Y-3.4571
X4.4567Y-4.2991
X4.4803Y-4.189
X4.4929Y-3.4992
X4.5Y-4.4016
X4.5118Y-4.0394
X4.5246Y-4.747
X4.5315Y-3.7224
X4.5335Y-4.4035
X4.5463Y-4.3514
X4.5488Y-4.6323
X4.562Y-4.1728
X4.5646Y-3.7449
X4.5669Y-4.1417
X4.5752Y-4.7976
X4.5778Y-4.3228
X4.5787Y-4.5591
X4.5856Y-4.2677
X4.5866Y-4.626
X4.5945Y-4.378
X4.5984Y-3.622
X4.612Y-3.8074
X4.6142Y-3.5197
X4.6193Y-5.0087
X4.6196Y-4.2913
X4.622Y-4.1417
X4.6249Y-4.7419
X4.6307Y-4.8587
X4.6319Y-4.9268
X4.6644Y-4.8935
X4.6772Y-3.937
X4.6807Y-5.0106
X4.6919Y-4.9272
X4.6945Y-4.787
X4.6953Y-4.8929
X4.7008Y-4.2047
X4.7008Y-4.4882
X4.7047Y-3.8819
X4.7087Y-4.4567
X4.7241Y-4.7991
X4.7323Y-4.1811
X4.7323Y-4.3071
X4.7362Y-4.6024
X4.7367Y-4.8284
X4.7402Y-4.3386
X4.7524Y-3.7343
X4.7638Y-4.063
X4.7691Y-4.937
X4.7711Y-4.0159
X4.7717Y-4.8612
X4.7768Y-4.8944
X4.7795Y-4.189
X4.7823Y-4.2988
X4.7886Y-3.7606
X4.7939Y-4.0722
X4.7982Y-4.7766
X4.8037Y-4.0152
X4.8142Y-3.5839
X4.824Y-3.4547
X4.8268Y-3.9213
X4.8268Y-4.2283
X4.8504Y-3.9606
X4.8567Y-4.6681
X4.8614Y-4.4122
X4.8955Y-4.1951
X4.8976Y-4.2543
X4.8996Y-4.9911
X4.9343Y-4.237
X4.9469Y-4.0059
X4.9512Y-5.0138
X4.9528Y-4.0748
X4.9567Y-4.2598
X5.0047Y-4.6949
X5.0177Y-4.873
X5.0197Y-3.4252
X5.0197Y-3.4646
X5.0197Y-3.5039
X5.0197Y-3.7008
X5.0197Y-3.7402
X5.0197Y-3.7795
X5.0197Y-3.8189
X5.0197Y-3.8583
X5.0213Y-4.448
X5.0236Y-4.3622
X5.0472Y-4.5039
X5.0512Y-4.7134
X5.0557Y-4.0189
X5.0567Y-4.9219
X5.0591Y-3.4252
X5.0591Y-3.4646
X5.0591Y-3.5039
X5.0591Y-3.7402
X5.0591Y-3.7795
X5.0591Y-3.8189
X5.0591Y-3.8583
X5.0591Y-4.8346
X5.0709Y-4.3819
X5.0984Y-3.4252
X5.0984Y-3.4646
X5.0984Y-3.5039
X5.0984Y-3.7795
X5.0984Y-3.8189
X5.0984Y-3.8583
X5.0984Y-4.0177
X5.1067Y-4.7783
X5.1118Y-4.8205
X5.122Y-4.2992
X5.1378Y-3.4252
X5.1378Y-3.4646
X5.1378Y-3.5039
X5.1378Y-3.6614
X5.1378Y-3.8189
X5.1378Y-3.8583
X5.1417Y-4.0472
X5.1661Y-4.8181
X5.1772Y-3.6614
X5.1772Y-3.7008
X5.1807Y-4.0335
X5.2165Y-3.6614
X5.2165Y-3.7008
X5.2165Y-3.7402
X5.2205Y-4.0591
X5.2244Y-4.8067
X5.2362Y-4.0906
X5.252Y-4.9016
X5.2559Y-3.6614
X5.2559Y-3.7008
X5.2559Y-3.7402
X5.2559Y-3.7795
X5.2559Y-3.8189
X5.2559Y-3.8583
X5.2681Y-4.4469
X5.2697Y-4.1217
X5.276Y-4.3831
X5.2929Y-4.7177
X5.2953Y-3.6614
X5.2953Y-3.7008
X5.2953Y-3.7402
X5.2953Y-3.7795
X5.2953Y-3.8189
X5.2953Y-3.8583
X5.3Y-4.4224
X5.3071Y-4.9768
X5.3346Y-3.6614
X5.3346Y-3.7008
X5.3346Y-3.7402
X5.3346Y-3.7795
X5.3346Y-3.8189
X5.3346Y-3.8583
X5.3346Y-4.3701
X5.3528Y-4.9693
X5.374Y-3.6614
X5.374Y-3.7008
X5.374Y-3.7402
X5.374Y-3.7795
X5.374Y-3.8189
X5.374Y-3.8583
X5.3823Y-5.0114
T2
X4.3307Y-3.5945
X4.5213Y-3.5945
T3
X5.3425Y-4.0417
X5.3425Y-4.0917
X5.3425Y-4.1417
T4
X3.7795Y-3.8394
X3.7795Y-3.9394
X3.7795Y-4.0394
X3.7795Y-4.1394
X3.7795Y-4.2394
X3.7795Y-4.3394
X3.7795Y-4.4394
X3.7795Y-4.5394
X3.7795Y-4.6394
X5.1122Y-4.9665
X5.2122Y-4.9665
X5.2307Y-3.4567
X5.3307Y-3.4567
X5.3543Y-4.522
X5.3543Y-4.622
X5.3553Y-4.7835
X5.3553Y-4.8835
T5
X3.8622Y-4.876
T6
X3.7622Y-4.776
X3.7622Y-4.976
X3.9622Y-4.776
X3.9622Y-4.976
T2
G00X4.2843Y-3.5
M15
G01X4.2843Y-3.4685
M16
G05
G00X4.5677Y-3.5
M15
G01X4.5677Y-3.4685
M16
G05
M30
