%TF.GenerationSoftware,KiCad,Pcbnew,8.0.9-1.fc41*%
%TF.CreationDate,2025-08-22T18:06:54-04:00*%
%TF.ProjectId,OS-41,4f532d34-312e-46b6-9963-61645f706362,rev?*%
%TF.SameCoordinates,Original*%
%TF.FileFunction,Copper,L4,Bot*%
%TF.FilePolarity,Positive*%
%FSLAX46Y46*%
G04 Gerber Fmt 4.6, Leading zero omitted, Abs format (unit mm)*
G04 Created by KiCad (PCBNEW 8.0.9-1.fc41) date 2025-08-22 18:06:54*
%MOMM*%
%LPD*%
G01*
G04 APERTURE LIST*
G04 Aperture macros list*
%AMRoundRect*
0 Rectangle with rounded corners*
0 $1 Rounding radius*
0 $2 $3 $4 $5 $6 $7 $8 $9 X,Y pos of 4 corners*
0 Add a 4 corners polygon primitive as box body*
4,1,4,$2,$3,$4,$5,$6,$7,$8,$9,$2,$3,0*
0 Add four circle primitives for the rounded corners*
1,1,$1+$1,$2,$3*
1,1,$1+$1,$4,$5*
1,1,$1+$1,$6,$7*
1,1,$1+$1,$8,$9*
0 Add four rect primitives between the rounded corners*
20,1,$1+$1,$2,$3,$4,$5,0*
20,1,$1+$1,$4,$5,$6,$7,0*
20,1,$1+$1,$6,$7,$8,$9,0*
20,1,$1+$1,$8,$9,$2,$3,0*%
G04 Aperture macros list end*
%TA.AperFunction,ComponentPad*%
%ADD10R,1.700000X1.700000*%
%TD*%
%TA.AperFunction,ComponentPad*%
%ADD11O,1.700000X1.700000*%
%TD*%
%TA.AperFunction,ComponentPad*%
%ADD12C,2.050000*%
%TD*%
%TA.AperFunction,ComponentPad*%
%ADD13C,2.250000*%
%TD*%
%TA.AperFunction,SMDPad,CuDef*%
%ADD14RoundRect,0.237500X0.044194X0.380070X-0.380070X-0.044194X-0.044194X-0.380070X0.380070X0.044194X0*%
%TD*%
%TA.AperFunction,SMDPad,CuDef*%
%ADD15RoundRect,0.237500X0.300000X0.237500X-0.300000X0.237500X-0.300000X-0.237500X0.300000X-0.237500X0*%
%TD*%
%TA.AperFunction,SMDPad,CuDef*%
%ADD16RoundRect,0.237500X-0.237500X0.300000X-0.237500X-0.300000X0.237500X-0.300000X0.237500X0.300000X0*%
%TD*%
%TA.AperFunction,SMDPad,CuDef*%
%ADD17RoundRect,0.237500X-0.300000X-0.237500X0.300000X-0.237500X0.300000X0.237500X-0.300000X0.237500X0*%
%TD*%
%TA.AperFunction,SMDPad,CuDef*%
%ADD18RoundRect,0.237500X-0.044194X-0.380070X0.380070X0.044194X0.044194X0.380070X-0.380070X-0.044194X0*%
%TD*%
%TA.AperFunction,SMDPad,CuDef*%
%ADD19RoundRect,0.237500X0.237500X-0.300000X0.237500X0.300000X-0.237500X0.300000X-0.237500X-0.300000X0*%
%TD*%
%TA.AperFunction,SMDPad,CuDef*%
%ADD20RoundRect,0.237500X-0.250000X-0.237500X0.250000X-0.237500X0.250000X0.237500X-0.250000X0.237500X0*%
%TD*%
%TA.AperFunction,ViaPad*%
%ADD21C,0.600000*%
%TD*%
%TA.AperFunction,Conductor*%
%ADD22C,0.200000*%
%TD*%
%TA.AperFunction,Conductor*%
%ADD23C,0.250000*%
%TD*%
%TA.AperFunction,Conductor*%
%ADD24C,0.100000*%
%TD*%
G04 APERTURE END LIST*
D10*
%TO.P,J2,1,Pin_1*%
%TO.N,VCC*%
X148200000Y-111960000D03*
D11*
%TO.P,J2,2,Pin_2*%
%TO.N,GND*%
X148200000Y-114500000D03*
%TD*%
D12*
%TO.P,J4,1,In*%
%TO.N,Net-(J4-In)*%
X132560000Y-129260000D03*
D13*
%TO.P,J4,2,Ext*%
%TO.N,GND*%
X130020000Y-126720000D03*
X130020000Y-131800000D03*
X135100000Y-126720000D03*
X135100000Y-131800000D03*
%TD*%
D10*
%TO.P,J9,1,Pin_1*%
%TO.N,GND*%
X126900000Y-106660000D03*
D11*
%TO.P,J9,2,Pin_2*%
%TO.N,NRST*%
X126900000Y-109200000D03*
%TD*%
D10*
%TO.P,J3,1,Pin_1*%
%TO.N,BATT*%
X145225000Y-132000000D03*
D11*
%TO.P,J3,2,Pin_2*%
%TO.N,GND*%
X147765000Y-132000000D03*
%TD*%
D10*
%TO.P,J8,1,Pin_1*%
%TO.N,VCC*%
X126800000Y-96400000D03*
D11*
%TO.P,J8,2,Pin_2*%
%TO.N,BOOT0*%
X126800000Y-98940000D03*
%TD*%
D10*
%TO.P,J6,1,Pin_1*%
%TO.N,VCC*%
X146800000Y-107700000D03*
D11*
%TO.P,J6,2,Pin_2*%
%TO.N,SWDIO*%
X146800000Y-105160000D03*
%TO.P,J6,3,Pin_3*%
%TO.N,SWCLK*%
X146800000Y-102620001D03*
%TO.P,J6,4,Pin_4*%
%TO.N,GND*%
X146800000Y-100080000D03*
%TD*%
D14*
%TO.P,C18,1*%
%TO.N,VCC*%
X141469880Y-106010120D03*
%TO.P,C18,2*%
%TO.N,GND*%
X140250120Y-107229880D03*
%TD*%
D15*
%TO.P,C16,1*%
%TO.N,GND*%
X141162500Y-95600000D03*
%TO.P,C16,2*%
%TO.N,VCC*%
X139437500Y-95600000D03*
%TD*%
D16*
%TO.P,C19,1*%
%TO.N,VREF*%
X128900000Y-116837499D03*
%TO.P,C19,2*%
%TO.N,GND*%
X128900000Y-118562501D03*
%TD*%
%TO.P,C17,1*%
%TO.N,VCC*%
X135900000Y-103937499D03*
%TO.P,C17,2*%
%TO.N,GND*%
X135900000Y-105662501D03*
%TD*%
D17*
%TO.P,C4,1*%
%TO.N,VCC*%
X138637499Y-118100000D03*
%TO.P,C4,2*%
%TO.N,GND*%
X140362501Y-118100000D03*
%TD*%
D18*
%TO.P,C7,1*%
%TO.N,VCC*%
X140990120Y-115809880D03*
%TO.P,C7,2*%
%TO.N,GND*%
X142209880Y-114590120D03*
%TD*%
D19*
%TO.P,C28,1*%
%TO.N,VCC*%
X148000000Y-94112501D03*
%TO.P,C28,2*%
%TO.N,GND*%
X148000000Y-92387499D03*
%TD*%
D16*
%TO.P,C15,1*%
%TO.N,VCC*%
X138700000Y-102037499D03*
%TO.P,C15,2*%
%TO.N,GND*%
X138700000Y-103762501D03*
%TD*%
D15*
%TO.P,C14,1*%
%TO.N,GND*%
X140472381Y-93790120D03*
%TO.P,C14,2*%
%TO.N,VCC*%
X138747379Y-93790120D03*
%TD*%
D18*
%TO.P,C21,1*%
%TO.N,Net-(U7-VCAP1)*%
X141070120Y-108769880D03*
%TO.P,C21,2*%
%TO.N,GND*%
X142289880Y-107550120D03*
%TD*%
D19*
%TO.P,C27,1*%
%TO.N,VCC*%
X146250000Y-94000000D03*
%TO.P,C27,2*%
%TO.N,GND*%
X146250000Y-92274998D03*
%TD*%
D20*
%TO.P,R18,1*%
%TO.N,VCC*%
X133087500Y-96600000D03*
%TO.P,R18,2*%
%TO.N,Net-(U6-SDO)*%
X134912500Y-96600000D03*
%TD*%
D16*
%TO.P,C20,1*%
%TO.N,VCC*%
X143300000Y-103737499D03*
%TO.P,C20,2*%
%TO.N,GND*%
X143300000Y-105462501D03*
%TD*%
D21*
%TO.N,GND*%
X135420000Y-80690000D03*
X133200000Y-106300000D03*
X137750000Y-89000000D03*
X140460000Y-80610000D03*
X146290000Y-83420000D03*
X136800000Y-132500000D03*
X137750000Y-87500000D03*
X146970000Y-84200000D03*
X134100000Y-124000000D03*
X143000000Y-88000000D03*
X145047142Y-79535329D03*
X142000000Y-117700000D03*
X145000000Y-90000000D03*
X135584945Y-79437637D03*
X148900000Y-125000000D03*
X147750000Y-84880000D03*
X139590000Y-114560000D03*
X136448529Y-98900000D03*
X137750000Y-88250000D03*
X141000000Y-88000000D03*
X137400000Y-105800000D03*
X137750000Y-91250000D03*
X139737500Y-105050000D03*
X147000000Y-91000000D03*
X148000000Y-90000000D03*
X149440000Y-83110000D03*
X143000000Y-89000000D03*
X134345735Y-112540000D03*
X149500000Y-81100000D03*
X141743750Y-103043750D03*
X142370000Y-84640000D03*
X145000000Y-89000000D03*
X128600000Y-109600000D03*
X133000000Y-86275001D03*
X142000000Y-92000000D03*
X134680000Y-80720000D03*
X138910000Y-80650000D03*
X138000000Y-107000000D03*
X139000000Y-90000000D03*
X144000000Y-89000000D03*
X140930109Y-82494010D03*
X149250000Y-87000000D03*
X139650000Y-80620000D03*
X142500000Y-117100000D03*
X143000000Y-93000000D03*
X144000000Y-88000000D03*
X133774999Y-102100000D03*
X142500000Y-120100000D03*
X141700000Y-104100000D03*
X142700000Y-94200000D03*
X148000000Y-89000000D03*
X130900000Y-95100000D03*
X137600000Y-96500000D03*
X145500000Y-112800000D03*
X149250000Y-90750000D03*
X149250000Y-95250000D03*
X140000000Y-89000000D03*
X136190000Y-84780000D03*
X139904159Y-114104368D03*
X147000000Y-90000000D03*
X138445934Y-79633021D03*
X138215000Y-113185000D03*
X139000000Y-88000000D03*
X149250000Y-89250000D03*
X145300000Y-111200000D03*
X136480000Y-85950000D03*
X149250000Y-87750000D03*
X142400000Y-122300000D03*
X139000000Y-91000000D03*
X142000000Y-89000000D03*
X144320000Y-81380000D03*
X126400000Y-118000000D03*
X139737500Y-105050000D03*
X128500000Y-103800000D03*
X137750000Y-90500000D03*
X145500000Y-129300000D03*
X148000000Y-91000000D03*
X144130000Y-83850000D03*
X140000000Y-91000000D03*
X146000000Y-91000000D03*
X142000000Y-88000000D03*
X140000000Y-90000000D03*
X133700000Y-104425000D03*
X126450000Y-86375001D03*
X141000000Y-91000000D03*
X142000000Y-90000000D03*
X137301538Y-83666318D03*
X129800000Y-86425001D03*
X143000000Y-90000000D03*
X146000000Y-89000000D03*
X146305000Y-129230000D03*
X144770000Y-84380000D03*
X148857142Y-84433901D03*
X144000000Y-90000000D03*
X138700000Y-132200000D03*
X145000000Y-88000000D03*
X142000000Y-91000000D03*
X142000000Y-93900000D03*
X137750000Y-89750000D03*
X144949450Y-81935769D03*
X138040000Y-85760000D03*
X137750000Y-86750000D03*
X140370000Y-83540000D03*
X145326263Y-85145659D03*
X127000000Y-123900000D03*
X145000000Y-91000000D03*
X139000000Y-89000000D03*
X141000000Y-90000000D03*
X147000000Y-89000000D03*
X141306923Y-84671153D03*
X141810000Y-80690000D03*
X145690000Y-82730000D03*
X149250000Y-88500000D03*
X143360000Y-84460000D03*
X139394945Y-84824670D03*
X137416433Y-102415600D03*
X140000000Y-88000000D03*
X149250000Y-96000000D03*
X133800000Y-125300000D03*
X130700000Y-120100000D03*
X141630000Y-79280000D03*
X136338571Y-83596538D03*
X136950000Y-86820000D03*
X146000000Y-90000000D03*
X141000000Y-89000000D03*
X149250000Y-90000000D03*
X129900000Y-125000000D03*
%TO.N,VCC*%
X126300000Y-115400000D03*
X136300000Y-102100000D03*
X137352083Y-115583421D03*
X136222465Y-100780477D03*
X135700000Y-116600000D03*
X147000000Y-95000000D03*
X140086381Y-110586381D03*
X137400000Y-92612500D03*
X136678335Y-96603578D03*
X147300000Y-119400000D03*
X145000000Y-99800000D03*
X134600000Y-118500000D03*
X146400000Y-117300000D03*
X141085395Y-110584586D03*
X136585802Y-116514198D03*
X130100000Y-116000000D03*
X142100000Y-118900000D03*
X143825014Y-102245978D03*
X143187406Y-108487407D03*
%TO.N,BATT*%
X141100000Y-123900000D03*
X134400000Y-108800000D03*
%TO.N,VREF*%
X130400000Y-112500000D03*
%TO.N,Net-(U7-VCAP1)*%
X141850000Y-109440000D03*
%TO.N,Net-(U6-CSB)*%
X138751471Y-98251471D03*
X141400000Y-100600000D03*
%TO.N,LED_OK*%
X135549006Y-101212283D03*
X127800000Y-93950000D03*
%TO.N,LED_ERR*%
X136600000Y-110000000D03*
X139800000Y-109408664D03*
X134345735Y-109900000D03*
X131000000Y-98100000D03*
%TO.N,SDA*%
X139438832Y-100765266D03*
X134200000Y-97800000D03*
X139700000Y-99200001D03*
%TO.N,Net-(U6-SDO)*%
X140001470Y-98457217D03*
%TO.N,NIRQ*%
X143825014Y-107854024D03*
X135700000Y-111940000D03*
%TO.N,SDO*%
X138600000Y-109400000D03*
X139100000Y-110800000D03*
%TO.N,SDN*%
X136313239Y-115160428D03*
X145025014Y-107900000D03*
%TO.N,RXD*%
X135600000Y-108200000D03*
X140900000Y-97500000D03*
%TO.N,TXD*%
X136958321Y-109176539D03*
X140100277Y-97478956D03*
%TD*%
D22*
%TO.N,GND*%
X140362501Y-118100000D02*
X141600000Y-118100000D01*
X141162500Y-95600000D02*
X141300000Y-95600000D01*
X138700000Y-104500000D02*
X137400000Y-105800000D01*
X138700000Y-103762501D02*
X138700000Y-104500000D01*
X141890120Y-93790120D02*
X142000000Y-93900000D01*
X146250000Y-91250000D02*
X146000000Y-91000000D01*
X140219760Y-108019760D02*
X140480240Y-108019760D01*
X128900000Y-118562501D02*
X130437499Y-120100000D01*
X141600000Y-118100000D02*
X142000000Y-117700000D01*
X140472381Y-93790120D02*
X141890120Y-93790120D01*
X136662501Y-105662501D02*
X138000000Y-107000000D01*
X145462501Y-114962501D02*
X145500000Y-115000000D01*
X141300000Y-95600000D02*
X142700000Y-94200000D01*
X130437499Y-120100000D02*
X130700000Y-120100000D01*
X143062501Y-105462501D02*
X141700000Y-104100000D01*
X143300000Y-105462501D02*
X143062501Y-105462501D01*
X148000000Y-92387499D02*
X148000000Y-91000000D01*
X146250000Y-92274998D02*
X146250000Y-91250000D01*
X135900000Y-105662501D02*
X136662501Y-105662501D01*
%TO.N,VCC*%
X137200000Y-118100000D02*
X135700000Y-116600000D01*
X142083312Y-106010120D02*
X143212103Y-107138911D01*
X146250000Y-94250000D02*
X147000000Y-95000000D01*
X143300000Y-103737499D02*
X143300000Y-102770992D01*
X143212103Y-108462710D02*
X143187406Y-108487407D01*
X143212103Y-107138911D02*
X143212103Y-108462710D01*
X135900000Y-103937499D02*
X135900000Y-102500000D01*
X138747379Y-93790120D02*
X136678335Y-95859164D01*
X141469880Y-106010120D02*
X142083312Y-106010120D01*
X135575000Y-92612500D02*
X137400000Y-92612500D01*
X147887499Y-94112501D02*
X147000000Y-95000000D01*
X143187406Y-108287406D02*
X143187406Y-108487407D01*
X143300000Y-102770992D02*
X143825014Y-102245978D01*
X140100000Y-116700000D02*
X136771604Y-116700000D01*
X133087500Y-95100000D02*
X135575000Y-92612500D01*
X146250000Y-94000000D02*
X146250000Y-94250000D01*
X138700000Y-102037499D02*
X137442978Y-100780477D01*
X137651471Y-95600000D02*
X139437500Y-95600000D01*
X137442978Y-100780477D02*
X136222465Y-100780477D01*
X136678335Y-96603578D02*
X136678335Y-96573136D01*
X136678335Y-95859164D02*
X136678335Y-96603578D01*
X136678335Y-96573136D02*
X137651471Y-95600000D01*
X133087500Y-96600000D02*
X133087500Y-95100000D01*
X148000000Y-94112501D02*
X147887499Y-94112501D01*
X136771604Y-116700000D02*
X136585802Y-116514198D01*
X138637499Y-118100000D02*
X137200000Y-118100000D01*
X140990120Y-115809880D02*
X140100000Y-116700000D01*
X135900000Y-102500000D02*
X136300000Y-102100000D01*
D23*
%TO.N,BATT*%
X134970735Y-110529265D02*
X133720735Y-111779265D01*
X134400000Y-108800000D02*
X134970735Y-109370735D01*
X133720735Y-116520735D02*
X141100000Y-123900000D01*
X134970735Y-109370735D02*
X134970735Y-110529265D01*
X133720735Y-111779265D02*
X133720735Y-116520735D01*
D22*
%TO.N,VREF*%
X128900000Y-116837499D02*
X128900000Y-114000000D01*
X128900000Y-114000000D02*
X130400000Y-112500000D01*
%TO.N,Net-(U7-VCAP1)*%
X141179880Y-108769880D02*
X141850000Y-109440000D01*
X141070120Y-108769880D02*
X141179880Y-108769880D01*
D23*
%TO.N,LED_OK*%
X135090000Y-98800000D02*
X133136723Y-98800000D01*
X135549006Y-99259006D02*
X135090000Y-98800000D01*
X133136723Y-98800000D02*
X128286723Y-93950000D01*
X135549006Y-101212283D02*
X135549006Y-99259006D01*
X127800000Y-93950000D02*
X128286723Y-93950000D01*
%TO.N,LED_ERR*%
X134345735Y-109900000D02*
X131000000Y-106554265D01*
X139091336Y-108700000D02*
X139800000Y-109408664D01*
X130370381Y-106554265D02*
X127630000Y-103813884D01*
X138318744Y-108700000D02*
X139091336Y-108700000D01*
X136600000Y-110000000D02*
X137018744Y-110000000D01*
X131000000Y-106554265D02*
X130370381Y-106554265D01*
X128990000Y-98820000D02*
X130280000Y-98820000D01*
X137018744Y-110000000D02*
X138318744Y-108700000D01*
X127630000Y-103813884D02*
X127630000Y-100180000D01*
X130280000Y-98820000D02*
X131000000Y-98100000D01*
X127630000Y-100180000D02*
X128990000Y-98820000D01*
D22*
%TO.N,SDA*%
X136234314Y-97651471D02*
X139000000Y-97651471D01*
X139401470Y-98052941D02*
X139401470Y-98901471D01*
X139000000Y-97651471D02*
X139401470Y-98052941D01*
X139700000Y-99200001D02*
X139700000Y-100504098D01*
X139401470Y-98901471D02*
X139700000Y-99200001D01*
X136085785Y-97800000D02*
X136234314Y-97651471D01*
X139700000Y-100504098D02*
X139438832Y-100765266D01*
X136085785Y-97800000D02*
X134200000Y-97800000D01*
D24*
%TO.N,Net-(U6-SDO)*%
X138997081Y-97153578D02*
X135466078Y-97153578D01*
X140001470Y-98457217D02*
X140001470Y-98157967D01*
X135466078Y-97153578D02*
X134912500Y-96600000D01*
X140001470Y-98157967D02*
X138997081Y-97153578D01*
D22*
%TO.N,NIRQ*%
X140583343Y-111940000D02*
X143825014Y-108698329D01*
X135700000Y-111940000D02*
X140583343Y-111940000D01*
X143825014Y-108698329D02*
X143825014Y-107854024D01*
%TO.N,SDO*%
X139100000Y-110800000D02*
X139100000Y-109900000D01*
X139100000Y-109900000D02*
X138600000Y-109400000D01*
%TO.N,SDN*%
X137220133Y-116300000D02*
X136313239Y-115393106D01*
X145025014Y-109973515D02*
X138698529Y-116300000D01*
X145025014Y-107900000D02*
X145025014Y-109973515D01*
X138698529Y-116300000D02*
X137220133Y-116300000D01*
X136313239Y-115393106D02*
X136313239Y-115160428D01*
%TO.N,RXD*%
X144425014Y-109174986D02*
X144425014Y-101025014D01*
X135451471Y-112540000D02*
X141060000Y-112540000D01*
X141060000Y-112540000D02*
X144425014Y-109174986D01*
X144425014Y-101025014D02*
X140900000Y-97500000D01*
X135600000Y-108200000D02*
X135600000Y-110501040D01*
X135600000Y-110501040D02*
X135100000Y-111001040D01*
X135600000Y-108200000D02*
X135500000Y-108100000D01*
X135100000Y-111001040D02*
X135100000Y-112188529D01*
X135100000Y-112188529D02*
X135451471Y-112540000D01*
D23*
%TO.N,TXD*%
X140100277Y-97478956D02*
X140100277Y-97672140D01*
X140626470Y-105508390D02*
X136958321Y-109176539D01*
X140626470Y-98198333D02*
X140626470Y-105508390D01*
X140100277Y-97672140D02*
X140626470Y-98198333D01*
%TD*%
%TA.AperFunction,Conductor*%
%TO.N,GND*%
G36*
X134718834Y-111344007D02*
G01*
X134774767Y-111385879D01*
X134799184Y-111451343D01*
X134799500Y-111460189D01*
X134799500Y-112228091D01*
X134816910Y-112293067D01*
X134815247Y-112362917D01*
X134776084Y-112420779D01*
X134711856Y-112448283D01*
X134696412Y-112449157D01*
X134295029Y-112446803D01*
X134169508Y-112446067D01*
X134102585Y-112425989D01*
X134057140Y-112372918D01*
X134046235Y-112322069D01*
X134046235Y-111965454D01*
X134065920Y-111898415D01*
X134082554Y-111877773D01*
X134587819Y-111372508D01*
X134649142Y-111339023D01*
X134718834Y-111344007D01*
G37*
%TD.AperFunction*%
%TA.AperFunction,Conductor*%
G36*
X140270683Y-99521982D02*
G01*
X140299708Y-99585538D01*
X140300970Y-99603185D01*
X140300970Y-105322201D01*
X140281285Y-105389240D01*
X140264651Y-105409882D01*
X137034813Y-108639720D01*
X136973490Y-108673205D01*
X136947132Y-108676039D01*
X136886357Y-108676039D01*
X136748270Y-108716584D01*
X136627194Y-108794395D01*
X136532944Y-108903165D01*
X136532943Y-108903167D01*
X136473155Y-109034082D01*
X136452674Y-109176539D01*
X136473155Y-109318995D01*
X136492884Y-109362194D01*
X136502828Y-109431353D01*
X136473803Y-109494909D01*
X136415025Y-109532683D01*
X136389948Y-109540045D01*
X136268873Y-109617856D01*
X136174623Y-109726626D01*
X136174622Y-109726628D01*
X136137294Y-109808365D01*
X136091539Y-109861169D01*
X136024500Y-109880853D01*
X135957460Y-109861168D01*
X135911705Y-109808364D01*
X135900500Y-109756853D01*
X135900500Y-108663738D01*
X135920185Y-108596699D01*
X135930787Y-108582535D01*
X135931124Y-108582144D01*
X135931128Y-108582143D01*
X136025377Y-108473373D01*
X136085165Y-108342457D01*
X136105647Y-108200000D01*
X136085165Y-108057543D01*
X136025377Y-107926627D01*
X135931128Y-107817857D01*
X135810053Y-107740047D01*
X135810051Y-107740046D01*
X135810049Y-107740045D01*
X135810050Y-107740045D01*
X135671963Y-107699500D01*
X135671961Y-107699500D01*
X135528039Y-107699500D01*
X135528036Y-107699500D01*
X135389949Y-107740045D01*
X135268873Y-107817856D01*
X135174623Y-107926626D01*
X135174622Y-107926628D01*
X135114834Y-108057543D01*
X135094353Y-108200000D01*
X135114834Y-108342456D01*
X135159170Y-108439537D01*
X135174623Y-108473373D01*
X135268872Y-108582143D01*
X135268875Y-108582144D01*
X135269213Y-108582535D01*
X135298238Y-108646091D01*
X135299500Y-108663738D01*
X135299500Y-108939811D01*
X135279815Y-109006850D01*
X135227011Y-109052605D01*
X135157853Y-109062549D01*
X135094297Y-109033524D01*
X135087819Y-109027492D01*
X134941966Y-108881639D01*
X134908481Y-108820316D01*
X134907235Y-108808732D01*
X134906909Y-108808779D01*
X134905078Y-108796046D01*
X134885165Y-108657543D01*
X134825377Y-108526627D01*
X134731128Y-108417857D01*
X134610053Y-108340047D01*
X134610051Y-108340046D01*
X134610049Y-108340045D01*
X134610050Y-108340045D01*
X134471963Y-108299500D01*
X134471961Y-108299500D01*
X134328039Y-108299500D01*
X134328036Y-108299500D01*
X134189949Y-108340045D01*
X134068873Y-108417856D01*
X133974623Y-108526626D01*
X133974622Y-108526628D01*
X133914835Y-108657543D01*
X133905937Y-108719425D01*
X133876911Y-108782980D01*
X133818132Y-108820754D01*
X133748263Y-108820753D01*
X133695518Y-108789457D01*
X133326000Y-108419939D01*
X132736319Y-107830257D01*
X132702834Y-107768934D01*
X132700000Y-107742576D01*
X132700000Y-106011655D01*
X134925001Y-106011655D01*
X134935319Y-106112653D01*
X134989546Y-106276301D01*
X134989551Y-106276312D01*
X135080052Y-106423035D01*
X135080055Y-106423039D01*
X135201961Y-106544945D01*
X135201965Y-106544948D01*
X135348688Y-106635449D01*
X135348699Y-106635454D01*
X135512347Y-106689681D01*
X135613352Y-106700000D01*
X135650000Y-106700000D01*
X136150000Y-106700000D01*
X136186640Y-106700000D01*
X136186654Y-106699999D01*
X136287652Y-106689681D01*
X136451300Y-106635454D01*
X136451311Y-106635449D01*
X136598034Y-106544948D01*
X136598038Y-106544945D01*
X136719944Y-106423039D01*
X136719947Y-106423035D01*
X136810448Y-106276312D01*
X136810453Y-106276301D01*
X136864680Y-106112653D01*
X136874999Y-106011655D01*
X136875000Y-106011642D01*
X136875000Y-105912501D01*
X136150000Y-105912501D01*
X136150000Y-106700000D01*
X135650000Y-106700000D01*
X135650000Y-105912501D01*
X134925001Y-105912501D01*
X134925001Y-106011655D01*
X132700000Y-106011655D01*
X132700000Y-104000000D01*
X129300000Y-104000000D01*
X129300000Y-104724195D01*
X129280315Y-104791234D01*
X129227511Y-104836989D01*
X129158353Y-104846933D01*
X129094797Y-104817908D01*
X129088319Y-104811876D01*
X127991819Y-103715376D01*
X127958334Y-103654053D01*
X127955500Y-103627695D01*
X127955500Y-103524000D01*
X127975185Y-103456961D01*
X128027989Y-103411206D01*
X128079500Y-103400000D01*
X135107155Y-103400000D01*
X135174194Y-103419685D01*
X135219949Y-103472489D01*
X135229893Y-103541647D01*
X135228299Y-103550459D01*
X135227274Y-103555149D01*
X135224500Y-103584738D01*
X135224500Y-104290259D01*
X135227274Y-104319848D01*
X135270883Y-104444473D01*
X135291733Y-104472724D01*
X135324122Y-104516610D01*
X135339495Y-104537439D01*
X135363465Y-104603068D01*
X135348149Y-104671238D01*
X135304822Y-104716610D01*
X135201962Y-104780055D01*
X135080055Y-104901962D01*
X135080052Y-104901966D01*
X134989551Y-105048689D01*
X134989546Y-105048700D01*
X134935319Y-105212348D01*
X134925000Y-105313346D01*
X134925000Y-105412501D01*
X136874999Y-105412501D01*
X136874999Y-105313361D01*
X136874998Y-105313346D01*
X136864680Y-105212348D01*
X136810453Y-105048700D01*
X136810448Y-105048689D01*
X136719947Y-104901966D01*
X136719944Y-104901962D01*
X136598038Y-104780056D01*
X136598034Y-104780053D01*
X136495178Y-104716610D01*
X136448453Y-104664662D01*
X136437232Y-104595699D01*
X136460505Y-104537439D01*
X136529116Y-104444474D01*
X136572725Y-104319848D01*
X136575500Y-104290255D01*
X136575500Y-104111655D01*
X137725001Y-104111655D01*
X137735319Y-104212653D01*
X137789546Y-104376301D01*
X137789551Y-104376312D01*
X137880052Y-104523035D01*
X137880055Y-104523039D01*
X138001961Y-104644945D01*
X138001965Y-104644948D01*
X138148688Y-104735449D01*
X138148699Y-104735454D01*
X138312347Y-104789681D01*
X138413352Y-104800000D01*
X138450000Y-104800000D01*
X138950000Y-104800000D01*
X138986640Y-104800000D01*
X138986654Y-104799999D01*
X139087652Y-104789681D01*
X139251300Y-104735454D01*
X139251311Y-104735449D01*
X139398034Y-104644948D01*
X139398038Y-104644945D01*
X139519944Y-104523039D01*
X139519947Y-104523035D01*
X139610448Y-104376312D01*
X139610453Y-104376301D01*
X139664680Y-104212653D01*
X139674999Y-104111655D01*
X139675000Y-104111642D01*
X139675000Y-104012501D01*
X138950000Y-104012501D01*
X138950000Y-104800000D01*
X138450000Y-104800000D01*
X138450000Y-104012501D01*
X137725001Y-104012501D01*
X137725001Y-104111655D01*
X136575500Y-104111655D01*
X136575500Y-103584743D01*
X136572725Y-103555150D01*
X136529116Y-103430524D01*
X136516449Y-103413361D01*
X136450711Y-103324288D01*
X136450710Y-103324287D01*
X136344476Y-103245883D01*
X136344475Y-103245882D01*
X136283545Y-103224562D01*
X136226769Y-103183840D01*
X136201022Y-103118887D01*
X136200500Y-103107521D01*
X136200500Y-102724500D01*
X136220185Y-102657461D01*
X136272989Y-102611706D01*
X136324500Y-102600500D01*
X136371962Y-102600500D01*
X136371962Y-102600499D01*
X136510053Y-102559953D01*
X136631128Y-102482143D01*
X136725377Y-102373373D01*
X136785165Y-102242457D01*
X136805647Y-102100000D01*
X136785165Y-101957543D01*
X136725377Y-101826627D01*
X136631128Y-101717857D01*
X136510053Y-101640047D01*
X136510051Y-101640046D01*
X136510049Y-101640045D01*
X136510050Y-101640045D01*
X136371963Y-101599500D01*
X136371961Y-101599500D01*
X136228039Y-101599500D01*
X136135581Y-101626647D01*
X136065712Y-101626646D01*
X136006934Y-101588871D01*
X135977910Y-101525315D01*
X135987853Y-101456159D01*
X136034171Y-101354740D01*
X136034171Y-101354739D01*
X136034753Y-101353465D01*
X136080508Y-101300661D01*
X136147547Y-101280977D01*
X136294427Y-101280977D01*
X136294427Y-101280976D01*
X136432518Y-101240430D01*
X136553593Y-101162620D01*
X136587253Y-101123773D01*
X136646032Y-101086000D01*
X136680966Y-101080977D01*
X137267145Y-101080977D01*
X137334184Y-101100662D01*
X137354826Y-101117296D01*
X137988181Y-101750651D01*
X138021666Y-101811974D01*
X138024500Y-101838332D01*
X138024500Y-102390259D01*
X138027274Y-102419848D01*
X138070883Y-102544473D01*
X138139495Y-102637439D01*
X138163465Y-102703068D01*
X138148149Y-102771238D01*
X138104822Y-102816610D01*
X138001962Y-102880055D01*
X137880055Y-103001962D01*
X137880052Y-103001966D01*
X137789551Y-103148689D01*
X137789546Y-103148700D01*
X137735319Y-103312348D01*
X137725000Y-103413346D01*
X137725000Y-103512501D01*
X139674999Y-103512501D01*
X139674999Y-103413361D01*
X139674998Y-103413346D01*
X139664680Y-103312348D01*
X139610453Y-103148700D01*
X139610448Y-103148689D01*
X139519947Y-103001966D01*
X139519944Y-103001962D01*
X139398038Y-102880056D01*
X139398034Y-102880053D01*
X139295178Y-102816610D01*
X139248453Y-102764662D01*
X139237232Y-102695699D01*
X139260505Y-102637439D01*
X139329116Y-102544474D01*
X139372725Y-102419848D01*
X139375500Y-102390255D01*
X139375500Y-101684743D01*
X139374327Y-101672236D01*
X139372725Y-101655149D01*
X139353252Y-101599500D01*
X139329116Y-101530524D01*
X139279575Y-101463398D01*
X139255605Y-101397771D01*
X139270920Y-101329600D01*
X139320661Y-101280532D01*
X139379346Y-101265766D01*
X139510794Y-101265766D01*
X139510794Y-101265765D01*
X139648885Y-101225219D01*
X139769960Y-101147409D01*
X139864209Y-101038639D01*
X139923997Y-100907723D01*
X139944479Y-100765266D01*
X139940961Y-100740799D01*
X139950904Y-100671641D01*
X139956312Y-100661152D01*
X139978449Y-100622809D01*
X139980021Y-100620087D01*
X140000500Y-100543660D01*
X140000500Y-99663739D01*
X140020185Y-99596700D01*
X140030787Y-99582537D01*
X140032986Y-99580000D01*
X140083257Y-99521982D01*
X140142035Y-99484208D01*
X140211904Y-99484208D01*
X140270683Y-99521982D01*
G37*
%TD.AperFunction*%
%TA.AperFunction,Conductor*%
G36*
X140116677Y-107112283D02*
G01*
X140161024Y-107140784D01*
X140339215Y-107318975D01*
X140372700Y-107380298D01*
X140367716Y-107449990D01*
X140339215Y-107494337D01*
X139693274Y-108140278D01*
X139693274Y-108140279D01*
X139719179Y-108166184D01*
X139719188Y-108166192D01*
X139797905Y-108230318D01*
X139951965Y-108307690D01*
X140119728Y-108347450D01*
X140240178Y-108347450D01*
X140307217Y-108367135D01*
X140352972Y-108419939D01*
X140362916Y-108489097D01*
X140335660Y-108550565D01*
X140324070Y-108564551D01*
X140266782Y-108683513D01*
X140266781Y-108683514D01*
X140247103Y-108814073D01*
X140247103Y-108814075D01*
X140254162Y-108860910D01*
X140244689Y-108930135D01*
X140199294Y-108983248D01*
X140132390Y-109003388D01*
X140065218Y-108984160D01*
X140064508Y-108983707D01*
X140016434Y-108952812D01*
X140010053Y-108948711D01*
X140010051Y-108948710D01*
X140010049Y-108948709D01*
X140010050Y-108948709D01*
X139871963Y-108908164D01*
X139871961Y-108908164D01*
X139811189Y-108908164D01*
X139744150Y-108888479D01*
X139723508Y-108871845D01*
X139291200Y-108439537D01*
X139291198Y-108439535D01*
X139253649Y-108417856D01*
X139216976Y-108396682D01*
X139175582Y-108385591D01*
X139134189Y-108374500D01*
X139134188Y-108374500D01*
X138520048Y-108374500D01*
X138453009Y-108354815D01*
X138407254Y-108302011D01*
X138397310Y-108232853D01*
X138426335Y-108169297D01*
X138432367Y-108162819D01*
X138695186Y-107900000D01*
X139015731Y-107579454D01*
X139077052Y-107545971D01*
X139146743Y-107550955D01*
X139202677Y-107592826D01*
X139214220Y-107611485D01*
X139249681Y-107682093D01*
X139313806Y-107760811D01*
X139339720Y-107786725D01*
X139985662Y-107140784D01*
X140046985Y-107107299D01*
X140116677Y-107112283D01*
G37*
%TD.AperFunction*%
%TA.AperFunction,Conductor*%
G36*
X141157173Y-98182590D02*
G01*
X141163651Y-98188622D01*
X144088195Y-101113166D01*
X144121680Y-101174489D01*
X144124514Y-101200847D01*
X144124514Y-101646644D01*
X144104829Y-101713683D01*
X144052025Y-101759438D01*
X143982867Y-101769382D01*
X143965580Y-101765621D01*
X143896978Y-101745478D01*
X143896975Y-101745478D01*
X143753053Y-101745478D01*
X143753050Y-101745478D01*
X143614963Y-101786023D01*
X143493887Y-101863834D01*
X143399637Y-101972604D01*
X143399636Y-101972606D01*
X143339848Y-102103521D01*
X143319367Y-102245978D01*
X143319367Y-102245979D01*
X143320675Y-102255081D01*
X143310727Y-102324239D01*
X143285617Y-102360402D01*
X143115489Y-102530532D01*
X143059541Y-102586479D01*
X143059535Y-102586487D01*
X143019982Y-102654996D01*
X143019979Y-102655001D01*
X143019320Y-102657461D01*
X143000121Y-102729115D01*
X142999500Y-102731431D01*
X142999500Y-102907521D01*
X142979815Y-102974560D01*
X142927011Y-103020315D01*
X142916455Y-103024562D01*
X142855524Y-103045882D01*
X142855523Y-103045883D01*
X142749289Y-103124287D01*
X142749288Y-103124288D01*
X142670884Y-103230522D01*
X142627274Y-103355149D01*
X142624500Y-103384738D01*
X142624500Y-104090259D01*
X142627274Y-104119848D01*
X142670883Y-104244473D01*
X142739495Y-104337439D01*
X142763465Y-104403068D01*
X142748149Y-104471238D01*
X142704822Y-104516610D01*
X142601962Y-104580055D01*
X142480055Y-104701962D01*
X142480052Y-104701966D01*
X142389551Y-104848689D01*
X142389546Y-104848700D01*
X142335319Y-105012348D01*
X142325000Y-105113346D01*
X142325000Y-105212501D01*
X143176000Y-105212501D01*
X143243039Y-105232186D01*
X143288794Y-105284990D01*
X143300000Y-105336501D01*
X143300000Y-105462501D01*
X143426000Y-105462501D01*
X143493039Y-105482186D01*
X143538794Y-105534990D01*
X143550000Y-105586501D01*
X143550000Y-106500000D01*
X143586640Y-106500000D01*
X143586654Y-106499999D01*
X143687652Y-106489681D01*
X143851300Y-106435454D01*
X143851307Y-106435451D01*
X143935416Y-106383571D01*
X144002808Y-106365130D01*
X144069472Y-106386052D01*
X144114242Y-106439693D01*
X144124514Y-106489109D01*
X144124514Y-107254690D01*
X144104829Y-107321729D01*
X144052025Y-107367484D01*
X143982867Y-107377428D01*
X143965580Y-107373667D01*
X143896978Y-107353524D01*
X143896975Y-107353524D01*
X143753053Y-107353524D01*
X143753049Y-107353524D01*
X143671537Y-107377458D01*
X143601667Y-107377458D01*
X143542889Y-107339683D01*
X143513865Y-107276127D01*
X143512603Y-107258481D01*
X143512603Y-107099351D01*
X143512603Y-107099349D01*
X143495338Y-107034916D01*
X143495338Y-107034915D01*
X143495337Y-107034909D01*
X143492128Y-107022930D01*
X143492125Y-107022925D01*
X143492125Y-107022923D01*
X143452563Y-106954400D01*
X143086319Y-106588156D01*
X143052834Y-106526833D01*
X143050000Y-106500475D01*
X143050000Y-105712501D01*
X142297437Y-105712501D01*
X142296834Y-105712830D01*
X142292234Y-105712501D01*
X142273639Y-105712501D01*
X142273639Y-105711171D01*
X142227142Y-105707846D01*
X142182795Y-105679345D01*
X141786483Y-105283033D01*
X141774815Y-105273366D01*
X141763595Y-105264070D01*
X141763593Y-105264069D01*
X141763592Y-105264068D01*
X141763588Y-105264066D01*
X141644637Y-105206782D01*
X141644633Y-105206781D01*
X141514075Y-105187103D01*
X141514073Y-105187103D01*
X141383514Y-105206781D01*
X141383513Y-105206782D01*
X141264551Y-105264070D01*
X141241669Y-105283030D01*
X141163651Y-105361048D01*
X141102327Y-105394532D01*
X141032636Y-105389547D01*
X140976702Y-105347676D01*
X140952286Y-105282211D01*
X140951970Y-105273366D01*
X140951970Y-101134103D01*
X140971655Y-101067064D01*
X141024459Y-101021309D01*
X141093617Y-101011365D01*
X141143008Y-101029787D01*
X141156779Y-101038637D01*
X141189948Y-101059954D01*
X141328036Y-101100499D01*
X141328038Y-101100500D01*
X141328039Y-101100500D01*
X141471962Y-101100500D01*
X141471962Y-101100499D01*
X141610053Y-101059953D01*
X141731128Y-100982143D01*
X141825377Y-100873373D01*
X141885165Y-100742457D01*
X141905647Y-100600000D01*
X141885165Y-100457543D01*
X141825377Y-100326627D01*
X141731128Y-100217857D01*
X141610053Y-100140047D01*
X141610051Y-100140046D01*
X141610049Y-100140045D01*
X141610050Y-100140045D01*
X141471963Y-100099500D01*
X141471961Y-100099500D01*
X141328039Y-100099500D01*
X141328036Y-100099500D01*
X141189949Y-100140045D01*
X141143009Y-100170212D01*
X141075969Y-100189896D01*
X141008930Y-100170211D01*
X140963175Y-100117407D01*
X140951970Y-100065896D01*
X140951970Y-98276303D01*
X140971655Y-98209264D01*
X141024459Y-98163509D01*
X141093617Y-98153565D01*
X141157173Y-98182590D01*
G37*
%TD.AperFunction*%
%TA.AperFunction,Conductor*%
G36*
X138213812Y-97971656D02*
G01*
X138259567Y-98024460D01*
X138269511Y-98093618D01*
X138266587Y-98107058D01*
X138245824Y-98251471D01*
X138266305Y-98393927D01*
X138300808Y-98469477D01*
X138326094Y-98524844D01*
X138420343Y-98633614D01*
X138541418Y-98711424D01*
X138541421Y-98711425D01*
X138541420Y-98711425D01*
X138648578Y-98742888D01*
X138670631Y-98749364D01*
X138679507Y-98751970D01*
X138679509Y-98751971D01*
X138679510Y-98751971D01*
X138823432Y-98751971D01*
X138942036Y-98717146D01*
X139011905Y-98717146D01*
X139070683Y-98754920D01*
X139099708Y-98818476D01*
X139100970Y-98836123D01*
X139100970Y-98941033D01*
X139114622Y-98991984D01*
X139121449Y-99017461D01*
X139121450Y-99017462D01*
X139145515Y-99059144D01*
X139161010Y-99085982D01*
X139161014Y-99085986D01*
X139165957Y-99092428D01*
X139164821Y-99093299D01*
X139194089Y-99146899D01*
X139195661Y-99190903D01*
X139194353Y-99200000D01*
X139214834Y-99342457D01*
X139242219Y-99402420D01*
X139274623Y-99473374D01*
X139368872Y-99582144D01*
X139368875Y-99582145D01*
X139369213Y-99582536D01*
X139398238Y-99646092D01*
X139399500Y-99663739D01*
X139399500Y-100162359D01*
X139379815Y-100229398D01*
X139327011Y-100275153D01*
X139310435Y-100281336D01*
X139228781Y-100305311D01*
X139107705Y-100383122D01*
X139013455Y-100491892D01*
X139013454Y-100491894D01*
X138953666Y-100622809D01*
X138933185Y-100765266D01*
X138953666Y-100907722D01*
X139009413Y-101029788D01*
X139013455Y-101038639D01*
X139031924Y-101059954D01*
X139061682Y-101094296D01*
X139090707Y-101157852D01*
X139080763Y-101227011D01*
X139035008Y-101279815D01*
X138967969Y-101299499D01*
X138438333Y-101299499D01*
X138371294Y-101279814D01*
X138350652Y-101263180D01*
X137627488Y-100540016D01*
X137619929Y-100535652D01*
X137604811Y-100526924D01*
X137604810Y-100526923D01*
X137581889Y-100513690D01*
X137558968Y-100500456D01*
X137527006Y-100491892D01*
X137482540Y-100479977D01*
X137482538Y-100479977D01*
X136680966Y-100479977D01*
X136613927Y-100460292D01*
X136587253Y-100437180D01*
X136553593Y-100398334D01*
X136432518Y-100320524D01*
X136432516Y-100320523D01*
X136432514Y-100320522D01*
X136432515Y-100320522D01*
X136294428Y-100279977D01*
X136294426Y-100279977D01*
X136150504Y-100279977D01*
X136033439Y-100314349D01*
X135963570Y-100314348D01*
X135904792Y-100276573D01*
X135875768Y-100213017D01*
X135874506Y-100195371D01*
X135874506Y-99311861D01*
X135874507Y-99311848D01*
X135874507Y-99216155D01*
X135872570Y-99208926D01*
X135852324Y-99133368D01*
X135846522Y-99123318D01*
X135809471Y-99059144D01*
X135748868Y-98998541D01*
X135748867Y-98998540D01*
X135744537Y-98994210D01*
X135744526Y-98994200D01*
X135289864Y-98539537D01*
X135289863Y-98539536D01*
X135289862Y-98539535D01*
X135250280Y-98516682D01*
X135215640Y-98496682D01*
X135174246Y-98485591D01*
X135132853Y-98474500D01*
X135132852Y-98474500D01*
X134498517Y-98474500D01*
X134431478Y-98454815D01*
X134385723Y-98402011D01*
X134375779Y-98332853D01*
X134404804Y-98269297D01*
X134431478Y-98246185D01*
X134531123Y-98182146D01*
X134531126Y-98182144D01*
X134531125Y-98182144D01*
X134531128Y-98182143D01*
X134564788Y-98143296D01*
X134623567Y-98105523D01*
X134658501Y-98100500D01*
X136125345Y-98100500D01*
X136125347Y-98100500D01*
X136201774Y-98080021D01*
X136270296Y-98040460D01*
X136322466Y-97988290D01*
X136383789Y-97954805D01*
X136410147Y-97951971D01*
X138146773Y-97951971D01*
X138213812Y-97971656D01*
G37*
%TD.AperFunction*%
%TA.AperFunction,Conductor*%
G36*
X148143778Y-76934399D02*
G01*
X148189533Y-76987203D01*
X148199477Y-77056361D01*
X148170452Y-77119917D01*
X148164420Y-77126395D01*
X148048032Y-77242782D01*
X148048028Y-77242786D01*
X147927715Y-77408386D01*
X147834781Y-77590776D01*
X147771522Y-77785465D01*
X147739500Y-77987648D01*
X147739500Y-78192351D01*
X147771522Y-78394534D01*
X147834781Y-78589223D01*
X147927715Y-78771613D01*
X148048028Y-78937213D01*
X148192786Y-79081971D01*
X148347749Y-79194556D01*
X148358390Y-79202287D01*
X148474607Y-79261503D01*
X148540776Y-79295218D01*
X148540778Y-79295218D01*
X148540781Y-79295220D01*
X148645137Y-79329127D01*
X148735465Y-79358477D01*
X148836557Y-79374488D01*
X148937648Y-79390500D01*
X148937649Y-79390500D01*
X149142351Y-79390500D01*
X149142352Y-79390500D01*
X149344534Y-79358477D01*
X149539219Y-79295220D01*
X149721610Y-79202287D01*
X149887219Y-79081966D01*
X149887218Y-79081966D01*
X149887785Y-79081555D01*
X149953591Y-79058075D01*
X150021645Y-79073901D01*
X150070340Y-79124006D01*
X150084670Y-79181972D01*
X150042058Y-132395706D01*
X150042000Y-132396604D01*
X150042000Y-132465565D01*
X150041684Y-132474411D01*
X150027369Y-132674556D01*
X150024851Y-132692068D01*
X149983146Y-132883787D01*
X149978162Y-132900763D01*
X149909590Y-133084609D01*
X149902240Y-133100701D01*
X149808211Y-133272904D01*
X149798646Y-133287789D01*
X149681058Y-133444867D01*
X149669472Y-133458237D01*
X149530737Y-133596972D01*
X149517367Y-133608558D01*
X149360289Y-133726146D01*
X149345404Y-133735711D01*
X149173201Y-133829740D01*
X149157109Y-133837090D01*
X148973263Y-133905662D01*
X148956287Y-133910646D01*
X148764568Y-133952351D01*
X148747057Y-133954869D01*
X148566279Y-133967799D01*
X148546917Y-133969184D01*
X148538072Y-133969500D01*
X126461928Y-133969500D01*
X126453082Y-133969184D01*
X126431122Y-133967613D01*
X126252942Y-133954869D01*
X126235431Y-133952351D01*
X126043712Y-133910646D01*
X126026736Y-133905662D01*
X125842890Y-133837090D01*
X125826798Y-133829740D01*
X125654595Y-133735711D01*
X125639710Y-133726146D01*
X125482632Y-133608558D01*
X125469262Y-133596972D01*
X125330527Y-133458237D01*
X125318941Y-133444867D01*
X125233426Y-133330633D01*
X125201349Y-133287784D01*
X125191788Y-133272904D01*
X125097759Y-133100701D01*
X125090409Y-133084609D01*
X125077687Y-133050500D01*
X125021834Y-132900755D01*
X125016855Y-132883797D01*
X124975147Y-132692063D01*
X124972630Y-132674556D01*
X124968818Y-132621252D01*
X124958318Y-132474452D01*
X124958003Y-132465539D01*
X124958536Y-131800000D01*
X128389975Y-131800000D01*
X128410042Y-132054989D01*
X128469752Y-132303702D01*
X128567634Y-132540012D01*
X128567636Y-132540015D01*
X128701275Y-132758095D01*
X128701286Y-132758110D01*
X128704533Y-132761911D01*
X128704535Y-132761911D01*
X129265884Y-132200561D01*
X129266740Y-132202626D01*
X129359762Y-132341844D01*
X129478156Y-132460238D01*
X129617374Y-132553260D01*
X129619437Y-132554114D01*
X129058087Y-133115464D01*
X129058087Y-133115465D01*
X129061888Y-133118712D01*
X129061898Y-133118719D01*
X129279984Y-133252363D01*
X129279987Y-133252365D01*
X129516297Y-133350247D01*
X129765011Y-133409957D01*
X129765010Y-133409957D01*
X130020000Y-133430024D01*
X130274989Y-133409957D01*
X130523702Y-133350247D01*
X130760012Y-133252365D01*
X130760015Y-133252363D01*
X130978103Y-133118719D01*
X130981912Y-133115464D01*
X130420562Y-132554114D01*
X130422626Y-132553260D01*
X130561844Y-132460238D01*
X130680238Y-132341844D01*
X130773260Y-132202626D01*
X130774114Y-132200562D01*
X131335464Y-132761912D01*
X131338719Y-132758103D01*
X131472363Y-132540015D01*
X131472365Y-132540012D01*
X131570247Y-132303702D01*
X131629957Y-132054989D01*
X131650024Y-131800000D01*
X133469975Y-131800000D01*
X133490042Y-132054989D01*
X133549752Y-132303702D01*
X133647634Y-132540012D01*
X133647636Y-132540015D01*
X133781275Y-132758095D01*
X133781286Y-132758110D01*
X133784533Y-132761911D01*
X133784535Y-132761911D01*
X134345884Y-132200561D01*
X134346740Y-132202626D01*
X134439762Y-132341844D01*
X134558156Y-132460238D01*
X134697374Y-132553260D01*
X134699437Y-132554114D01*
X134138087Y-133115464D01*
X134138087Y-133115465D01*
X134141888Y-133118712D01*
X134141898Y-133118719D01*
X134359984Y-133252363D01*
X134359987Y-133252365D01*
X134596297Y-133350247D01*
X134845011Y-133409957D01*
X134845010Y-133409957D01*
X135100000Y-133430024D01*
X135354989Y-133409957D01*
X135603702Y-133350247D01*
X135840012Y-133252365D01*
X135840015Y-133252363D01*
X136058103Y-133118719D01*
X136061912Y-133115464D01*
X135500562Y-132554114D01*
X135502626Y-132553260D01*
X135641844Y-132460238D01*
X135760238Y-132341844D01*
X135853260Y-132202626D01*
X135854114Y-132200562D01*
X136415464Y-132761912D01*
X136418719Y-132758103D01*
X136552363Y-132540015D01*
X136552365Y-132540012D01*
X136650247Y-132303702D01*
X136709957Y-132054989D01*
X136730024Y-131800000D01*
X136709957Y-131545010D01*
X136650247Y-131296297D01*
X136581467Y-131130247D01*
X144174500Y-131130247D01*
X144174500Y-132869752D01*
X144186131Y-132928229D01*
X144186132Y-132928230D01*
X144230447Y-132994552D01*
X144296769Y-133038867D01*
X144296770Y-133038868D01*
X144355247Y-133050499D01*
X144355250Y-133050500D01*
X144355252Y-133050500D01*
X146094750Y-133050500D01*
X146094751Y-133050499D01*
X146109568Y-133047552D01*
X146153229Y-133038868D01*
X146153229Y-133038867D01*
X146153231Y-133038867D01*
X146219552Y-132994552D01*
X146263867Y-132928231D01*
X146263867Y-132928229D01*
X146263868Y-132928229D01*
X146272707Y-132883787D01*
X146275500Y-132869748D01*
X146275500Y-132559456D01*
X146295185Y-132492417D01*
X146347989Y-132446662D01*
X146417147Y-132436718D01*
X146480703Y-132465743D01*
X146511882Y-132507051D01*
X146591400Y-132677578D01*
X146726894Y-132871082D01*
X146893917Y-133038105D01*
X147087421Y-133173600D01*
X147301507Y-133273429D01*
X147301516Y-133273433D01*
X147515000Y-133330634D01*
X147515000Y-132433012D01*
X147572007Y-132465925D01*
X147699174Y-132500000D01*
X147830826Y-132500000D01*
X147957993Y-132465925D01*
X148015000Y-132433012D01*
X148015000Y-133330633D01*
X148228483Y-133273433D01*
X148228492Y-133273429D01*
X148442578Y-133173600D01*
X148636082Y-133038105D01*
X148803105Y-132871082D01*
X148938600Y-132677578D01*
X149038429Y-132463492D01*
X149038432Y-132463486D01*
X149095636Y-132250000D01*
X148198012Y-132250000D01*
X148230925Y-132192993D01*
X148265000Y-132065826D01*
X148265000Y-131934174D01*
X148230925Y-131807007D01*
X148198012Y-131750000D01*
X149095636Y-131750000D01*
X149095635Y-131749999D01*
X149038432Y-131536513D01*
X149038429Y-131536507D01*
X148938600Y-131322422D01*
X148938599Y-131322420D01*
X148803113Y-131128926D01*
X148803108Y-131128920D01*
X148636082Y-130961894D01*
X148442578Y-130826399D01*
X148228492Y-130726570D01*
X148228486Y-130726567D01*
X148015000Y-130669364D01*
X148015000Y-131566988D01*
X147957993Y-131534075D01*
X147830826Y-131500000D01*
X147699174Y-131500000D01*
X147572007Y-131534075D01*
X147515000Y-131566988D01*
X147515000Y-130669364D01*
X147514999Y-130669364D01*
X147301513Y-130726567D01*
X147301507Y-130726570D01*
X147087422Y-130826399D01*
X147087420Y-130826400D01*
X146893926Y-130961886D01*
X146893920Y-130961891D01*
X146726891Y-131128920D01*
X146726886Y-131128926D01*
X146591400Y-131322420D01*
X146591399Y-131322422D01*
X146511882Y-131492948D01*
X146465710Y-131545387D01*
X146398516Y-131564539D01*
X146331635Y-131544323D01*
X146286300Y-131491158D01*
X146275500Y-131440543D01*
X146275500Y-131130249D01*
X146275499Y-131130247D01*
X146263868Y-131071770D01*
X146263867Y-131071769D01*
X146219552Y-131005447D01*
X146153230Y-130961132D01*
X146153229Y-130961131D01*
X146094752Y-130949500D01*
X146094748Y-130949500D01*
X144355252Y-130949500D01*
X144355247Y-130949500D01*
X144296770Y-130961131D01*
X144296769Y-130961132D01*
X144230447Y-131005447D01*
X144186132Y-131071769D01*
X144186131Y-131071770D01*
X144174500Y-131130247D01*
X136581467Y-131130247D01*
X136552365Y-131059987D01*
X136552363Y-131059984D01*
X136418719Y-130841898D01*
X136418712Y-130841888D01*
X136415465Y-130838087D01*
X136415464Y-130838087D01*
X135854114Y-131399437D01*
X135853260Y-131397374D01*
X135760238Y-131258156D01*
X135641844Y-131139762D01*
X135502626Y-131046740D01*
X135500561Y-131045884D01*
X136061911Y-130484535D01*
X136061911Y-130484533D01*
X136058110Y-130481286D01*
X136058095Y-130481275D01*
X135840015Y-130347636D01*
X135840012Y-130347634D01*
X135603702Y-130249752D01*
X135354988Y-130190042D01*
X135354989Y-130190042D01*
X135100000Y-130169975D01*
X134845010Y-130190042D01*
X134596297Y-130249752D01*
X134359987Y-130347634D01*
X134359984Y-130347636D01*
X134141897Y-130481280D01*
X134138087Y-130484534D01*
X134699438Y-131045884D01*
X134697374Y-131046740D01*
X134558156Y-131139762D01*
X134439762Y-131258156D01*
X134346740Y-131397374D01*
X134345884Y-131399438D01*
X133784533Y-130838087D01*
X133781280Y-130841897D01*
X133647636Y-131059984D01*
X133647634Y-131059987D01*
X133549752Y-131296297D01*
X133490042Y-131545010D01*
X133469975Y-131800000D01*
X131650024Y-131800000D01*
X131629957Y-131545010D01*
X131570247Y-131296297D01*
X131472365Y-131059987D01*
X131472363Y-131059984D01*
X131338719Y-130841898D01*
X131338712Y-130841888D01*
X131335465Y-130838087D01*
X131335464Y-130838087D01*
X130774114Y-131399437D01*
X130773260Y-131397374D01*
X130680238Y-131258156D01*
X130561844Y-131139762D01*
X130422626Y-131046740D01*
X130420561Y-131045884D01*
X130981911Y-130484535D01*
X130981911Y-130484533D01*
X130978110Y-130481286D01*
X130978095Y-130481275D01*
X130760015Y-130347636D01*
X130760012Y-130347634D01*
X130523702Y-130249752D01*
X130274988Y-130190042D01*
X130274989Y-130190042D01*
X130020000Y-130169975D01*
X129765010Y-130190042D01*
X129516297Y-130249752D01*
X129279987Y-130347634D01*
X129279984Y-130347636D01*
X129061897Y-130481280D01*
X129058087Y-130484534D01*
X129619438Y-131045884D01*
X129617374Y-131046740D01*
X129478156Y-131139762D01*
X129359762Y-131258156D01*
X129266740Y-131397374D01*
X129265885Y-131399438D01*
X128704534Y-130838087D01*
X128701280Y-130841897D01*
X128567636Y-131059984D01*
X128567634Y-131059987D01*
X128469752Y-131296297D01*
X128410042Y-131545010D01*
X128389975Y-131800000D01*
X124958536Y-131800000D01*
X124960570Y-129259998D01*
X131329819Y-129259998D01*
X131329819Y-129260001D01*
X131348507Y-129473613D01*
X131348509Y-129473624D01*
X131404005Y-129680739D01*
X131404007Y-129680743D01*
X131404008Y-129680747D01*
X131449320Y-129777919D01*
X131494631Y-129875090D01*
X131494632Y-129875091D01*
X131617627Y-130050745D01*
X131769255Y-130202373D01*
X131944909Y-130325368D01*
X132139253Y-130415992D01*
X132346381Y-130471492D01*
X132495442Y-130484533D01*
X132559998Y-130490181D01*
X132560000Y-130490181D01*
X132560002Y-130490181D01*
X132613404Y-130485508D01*
X132773619Y-130471492D01*
X132980747Y-130415992D01*
X133175091Y-130325368D01*
X133350745Y-130202373D01*
X133502373Y-130050745D01*
X133625368Y-129875091D01*
X133715992Y-129680747D01*
X133771492Y-129473619D01*
X133790181Y-129260000D01*
X133771492Y-129046381D01*
X133715992Y-128839253D01*
X133625368Y-128644910D01*
X133502373Y-128469255D01*
X133350745Y-128317627D01*
X133175091Y-128194632D01*
X133175092Y-128194632D01*
X133175090Y-128194631D01*
X133077919Y-128149320D01*
X132980747Y-128104008D01*
X132980743Y-128104007D01*
X132980739Y-128104005D01*
X132773624Y-128048509D01*
X132773620Y-128048508D01*
X132773619Y-128048508D01*
X132773618Y-128048507D01*
X132773613Y-128048507D01*
X132560002Y-128029819D01*
X132559998Y-128029819D01*
X132346386Y-128048507D01*
X132346375Y-128048509D01*
X132139260Y-128104005D01*
X132139251Y-128104009D01*
X131944910Y-128194631D01*
X131944908Y-128194632D01*
X131769259Y-128317623D01*
X131769253Y-128317628D01*
X131617628Y-128469253D01*
X131617623Y-128469259D01*
X131494632Y-128644908D01*
X131494631Y-128644910D01*
X131404009Y-128839251D01*
X131404005Y-128839260D01*
X131348509Y-129046375D01*
X131348507Y-129046386D01*
X131329819Y-129259998D01*
X124960570Y-129259998D01*
X124962604Y-126720000D01*
X128389975Y-126720000D01*
X128410042Y-126974989D01*
X128469752Y-127223702D01*
X128567634Y-127460012D01*
X128567636Y-127460015D01*
X128701275Y-127678095D01*
X128701286Y-127678110D01*
X128704533Y-127681911D01*
X128704535Y-127681911D01*
X129265884Y-127120561D01*
X129266740Y-127122626D01*
X129359762Y-127261844D01*
X129478156Y-127380238D01*
X129617374Y-127473260D01*
X129619437Y-127474114D01*
X129058087Y-128035464D01*
X129058087Y-128035465D01*
X129061888Y-128038712D01*
X129061898Y-128038719D01*
X129279984Y-128172363D01*
X129279987Y-128172365D01*
X129516297Y-128270247D01*
X129765011Y-128329957D01*
X129765010Y-128329957D01*
X130020000Y-128350024D01*
X130274989Y-128329957D01*
X130523702Y-128270247D01*
X130760012Y-128172365D01*
X130760015Y-128172363D01*
X130978103Y-128038719D01*
X130981912Y-128035464D01*
X130420562Y-127474114D01*
X130422626Y-127473260D01*
X130561844Y-127380238D01*
X130680238Y-127261844D01*
X130773260Y-127122626D01*
X130774114Y-127120562D01*
X131335464Y-127681912D01*
X131338719Y-127678103D01*
X131472363Y-127460015D01*
X131472365Y-127460012D01*
X131570247Y-127223702D01*
X131629957Y-126974989D01*
X131650024Y-126720000D01*
X133469975Y-126720000D01*
X133490042Y-126974989D01*
X133549752Y-127223702D01*
X133647634Y-127460012D01*
X133647636Y-127460015D01*
X133781275Y-127678095D01*
X133781286Y-127678110D01*
X133784533Y-127681911D01*
X133784535Y-127681911D01*
X134345884Y-127120561D01*
X134346740Y-127122626D01*
X134439762Y-127261844D01*
X134558156Y-127380238D01*
X134697374Y-127473260D01*
X134699437Y-127474114D01*
X134138087Y-128035464D01*
X134138087Y-128035465D01*
X134141888Y-128038712D01*
X134141898Y-128038719D01*
X134359984Y-128172363D01*
X134359987Y-128172365D01*
X134596297Y-128270247D01*
X134845011Y-128329957D01*
X134845010Y-128329957D01*
X135100000Y-128350024D01*
X135354989Y-128329957D01*
X135603702Y-128270247D01*
X135840012Y-128172365D01*
X135840015Y-128172363D01*
X136058103Y-128038719D01*
X136061912Y-128035464D01*
X135500562Y-127474114D01*
X135502626Y-127473260D01*
X135641844Y-127380238D01*
X135760238Y-127261844D01*
X135853260Y-127122626D01*
X135854114Y-127120562D01*
X136415464Y-127681912D01*
X136418719Y-127678103D01*
X136552363Y-127460015D01*
X136552365Y-127460012D01*
X136650247Y-127223702D01*
X136709957Y-126974989D01*
X136730024Y-126720000D01*
X136709957Y-126465010D01*
X136650247Y-126216297D01*
X136552365Y-125979987D01*
X136552363Y-125979984D01*
X136418719Y-125761898D01*
X136418712Y-125761888D01*
X136415465Y-125758087D01*
X136415464Y-125758087D01*
X135854114Y-126319437D01*
X135853260Y-126317374D01*
X135760238Y-126178156D01*
X135641844Y-126059762D01*
X135502626Y-125966740D01*
X135500561Y-125965884D01*
X136061911Y-125404535D01*
X136061911Y-125404533D01*
X136058110Y-125401286D01*
X136058095Y-125401275D01*
X135840015Y-125267636D01*
X135840012Y-125267634D01*
X135603702Y-125169752D01*
X135354988Y-125110042D01*
X135354989Y-125110042D01*
X135100000Y-125089975D01*
X134845010Y-125110042D01*
X134596297Y-125169752D01*
X134359987Y-125267634D01*
X134359984Y-125267636D01*
X134141897Y-125401280D01*
X134138087Y-125404534D01*
X134699438Y-125965884D01*
X134697374Y-125966740D01*
X134558156Y-126059762D01*
X134439762Y-126178156D01*
X134346740Y-126317374D01*
X134345884Y-126319438D01*
X133784533Y-125758087D01*
X133781280Y-125761897D01*
X133647636Y-125979984D01*
X133647634Y-125979987D01*
X133549752Y-126216297D01*
X133490042Y-126465010D01*
X133469975Y-126720000D01*
X131650024Y-126720000D01*
X131629957Y-126465010D01*
X131570247Y-126216297D01*
X131472365Y-125979987D01*
X131472363Y-125979984D01*
X131338719Y-125761898D01*
X131338712Y-125761888D01*
X131335465Y-125758087D01*
X131335464Y-125758087D01*
X130774114Y-126319437D01*
X130773260Y-126317374D01*
X130680238Y-126178156D01*
X130561844Y-126059762D01*
X130422626Y-125966740D01*
X130420561Y-125965884D01*
X130981911Y-125404535D01*
X130981911Y-125404533D01*
X130978110Y-125401286D01*
X130978095Y-125401275D01*
X130760015Y-125267636D01*
X130760012Y-125267634D01*
X130523702Y-125169752D01*
X130274988Y-125110042D01*
X130274989Y-125110042D01*
X130020000Y-125089975D01*
X129765010Y-125110042D01*
X129516297Y-125169752D01*
X129279987Y-125267634D01*
X129279984Y-125267636D01*
X129061897Y-125401280D01*
X129058087Y-125404534D01*
X129619438Y-125965884D01*
X129617374Y-125966740D01*
X129478156Y-126059762D01*
X129359762Y-126178156D01*
X129266740Y-126317374D01*
X129265885Y-126319438D01*
X128704534Y-125758087D01*
X128701280Y-125761897D01*
X128567636Y-125979984D01*
X128567634Y-125979987D01*
X128469752Y-126216297D01*
X128410042Y-126465010D01*
X128389975Y-126720000D01*
X124962604Y-126720000D01*
X124968856Y-118911655D01*
X127925001Y-118911655D01*
X127935319Y-119012653D01*
X127989546Y-119176301D01*
X127989551Y-119176312D01*
X128080052Y-119323035D01*
X128080055Y-119323039D01*
X128201961Y-119444945D01*
X128201965Y-119444948D01*
X128348688Y-119535449D01*
X128348699Y-119535454D01*
X128512347Y-119589681D01*
X128613352Y-119600000D01*
X128650000Y-119600000D01*
X129150000Y-119600000D01*
X129186640Y-119600000D01*
X129186654Y-119599999D01*
X129287652Y-119589681D01*
X129451300Y-119535454D01*
X129451311Y-119535449D01*
X129598034Y-119444948D01*
X129598038Y-119444945D01*
X129719944Y-119323039D01*
X129719947Y-119323035D01*
X129810448Y-119176312D01*
X129810453Y-119176301D01*
X129864680Y-119012653D01*
X129874999Y-118911655D01*
X129875000Y-118911642D01*
X129875000Y-118812501D01*
X129150000Y-118812501D01*
X129150000Y-119600000D01*
X128650000Y-119600000D01*
X128650000Y-118812501D01*
X127925001Y-118812501D01*
X127925001Y-118911655D01*
X124968856Y-118911655D01*
X124969415Y-118213346D01*
X127925000Y-118213346D01*
X127925000Y-118312501D01*
X129874999Y-118312501D01*
X129874999Y-118213361D01*
X129874998Y-118213346D01*
X129864680Y-118112348D01*
X129810453Y-117948700D01*
X129810448Y-117948689D01*
X129719947Y-117801966D01*
X129719944Y-117801962D01*
X129598038Y-117680056D01*
X129598034Y-117680053D01*
X129495178Y-117616610D01*
X129448453Y-117564662D01*
X129437232Y-117495699D01*
X129460505Y-117437439D01*
X129529116Y-117344474D01*
X129572725Y-117219848D01*
X129573444Y-117212181D01*
X129575500Y-117190259D01*
X129575500Y-116484959D01*
X129595185Y-116417920D01*
X129647989Y-116372165D01*
X129717147Y-116362221D01*
X129766540Y-116380644D01*
X129768871Y-116382142D01*
X129768872Y-116382143D01*
X129795880Y-116399500D01*
X129889948Y-116459954D01*
X130028036Y-116500499D01*
X130028038Y-116500500D01*
X130028039Y-116500500D01*
X130171962Y-116500500D01*
X130171962Y-116500499D01*
X130310053Y-116459953D01*
X130431128Y-116382143D01*
X130525377Y-116273373D01*
X130585165Y-116142457D01*
X130605647Y-116000000D01*
X130585165Y-115857543D01*
X130525377Y-115726627D01*
X130431128Y-115617857D01*
X130310053Y-115540047D01*
X130310051Y-115540046D01*
X130310049Y-115540045D01*
X130310050Y-115540045D01*
X130171963Y-115499500D01*
X130171961Y-115499500D01*
X130028039Y-115499500D01*
X130028036Y-115499500D01*
X129889949Y-115540045D01*
X129768873Y-115617856D01*
X129674623Y-115726626D01*
X129674622Y-115726628D01*
X129614834Y-115857543D01*
X129594353Y-116000000D01*
X129605283Y-116076023D01*
X129595339Y-116145181D01*
X129549584Y-116197985D01*
X129482544Y-116217669D01*
X129415505Y-116197984D01*
X129408921Y-116193446D01*
X129344475Y-116145883D01*
X129344473Y-116145882D01*
X129283545Y-116124562D01*
X129226769Y-116083840D01*
X129201022Y-116018887D01*
X129200500Y-116007521D01*
X129200500Y-114175832D01*
X129220185Y-114108793D01*
X129236814Y-114088155D01*
X130288151Y-113036818D01*
X130349474Y-113003334D01*
X130375832Y-113000500D01*
X130471962Y-113000500D01*
X130471962Y-113000499D01*
X130610053Y-112959953D01*
X130731128Y-112882143D01*
X130825377Y-112773373D01*
X130885165Y-112642457D01*
X130905647Y-112500000D01*
X130885165Y-112357543D01*
X130825377Y-112226627D01*
X130731128Y-112117857D01*
X130610053Y-112040047D01*
X130610051Y-112040046D01*
X130610049Y-112040045D01*
X130610050Y-112040045D01*
X130471963Y-111999500D01*
X130471961Y-111999500D01*
X130328039Y-111999500D01*
X130328036Y-111999500D01*
X130189949Y-112040045D01*
X130068873Y-112117856D01*
X129974623Y-112226626D01*
X129974622Y-112226628D01*
X129914834Y-112357543D01*
X129894353Y-112500000D01*
X129894353Y-112500001D01*
X129895661Y-112509103D01*
X129885713Y-112578261D01*
X129860603Y-112614424D01*
X128715489Y-113759540D01*
X128659541Y-113815487D01*
X128659535Y-113815495D01*
X128619982Y-113884004D01*
X128619979Y-113884009D01*
X128599500Y-113960439D01*
X128599500Y-116007521D01*
X128579815Y-116074560D01*
X128527011Y-116120315D01*
X128516455Y-116124562D01*
X128455524Y-116145882D01*
X128455523Y-116145883D01*
X128349289Y-116224287D01*
X128349288Y-116224288D01*
X128270884Y-116330522D01*
X128227274Y-116455149D01*
X128224500Y-116484738D01*
X128224500Y-117190259D01*
X128227274Y-117219848D01*
X128270883Y-117344473D01*
X128270884Y-117344474D01*
X128331993Y-117427275D01*
X128339495Y-117437439D01*
X128363465Y-117503068D01*
X128348149Y-117571238D01*
X128304822Y-117616610D01*
X128201962Y-117680055D01*
X128080055Y-117801962D01*
X128080052Y-117801966D01*
X127989551Y-117948689D01*
X127989546Y-117948700D01*
X127935319Y-118112348D01*
X127925000Y-118213346D01*
X124969415Y-118213346D01*
X124971668Y-115400000D01*
X125794353Y-115400000D01*
X125814834Y-115542456D01*
X125862390Y-115646587D01*
X125874623Y-115673373D01*
X125968872Y-115782143D01*
X126089947Y-115859953D01*
X126089950Y-115859954D01*
X126089949Y-115859954D01*
X126149700Y-115877498D01*
X126213554Y-115896247D01*
X126228036Y-115900499D01*
X126228038Y-115900500D01*
X126228039Y-115900500D01*
X126371962Y-115900500D01*
X126371962Y-115900499D01*
X126510053Y-115859953D01*
X126631128Y-115782143D01*
X126725377Y-115673373D01*
X126785165Y-115542457D01*
X126805647Y-115400000D01*
X126785165Y-115257543D01*
X126725377Y-115126627D01*
X126631128Y-115017857D01*
X126510053Y-114940047D01*
X126510051Y-114940046D01*
X126510049Y-114940045D01*
X126510050Y-114940045D01*
X126371963Y-114899500D01*
X126371961Y-114899500D01*
X126228039Y-114899500D01*
X126228036Y-114899500D01*
X126089949Y-114940045D01*
X125968873Y-115017856D01*
X125874623Y-115126626D01*
X125874622Y-115126628D01*
X125814834Y-115257543D01*
X125794353Y-115400000D01*
X124971668Y-115400000D01*
X124979386Y-105762155D01*
X125550000Y-105762155D01*
X125550000Y-106410000D01*
X126466988Y-106410000D01*
X126434075Y-106467007D01*
X126400000Y-106594174D01*
X126400000Y-106725826D01*
X126434075Y-106852993D01*
X126466988Y-106910000D01*
X125550000Y-106910000D01*
X125550000Y-107557844D01*
X125556401Y-107617372D01*
X125556403Y-107617379D01*
X125606645Y-107752086D01*
X125606649Y-107752093D01*
X125692809Y-107867187D01*
X125692812Y-107867190D01*
X125807906Y-107953350D01*
X125807913Y-107953354D01*
X125942620Y-108003596D01*
X125942627Y-108003598D01*
X126002155Y-108009999D01*
X126002172Y-108010000D01*
X126402813Y-108010000D01*
X126469852Y-108029685D01*
X126515607Y-108082489D01*
X126525551Y-108151647D01*
X126496526Y-108215203D01*
X126461267Y-108243357D01*
X126313550Y-108322315D01*
X126313548Y-108322316D01*
X126313547Y-108322317D01*
X126153589Y-108453589D01*
X126022317Y-108613547D01*
X126022315Y-108613550D01*
X125988914Y-108676039D01*
X125924769Y-108796043D01*
X125864699Y-108994067D01*
X125844417Y-109200000D01*
X125864699Y-109405932D01*
X125877937Y-109449571D01*
X125924768Y-109603954D01*
X126022315Y-109786450D01*
X126022317Y-109786452D01*
X126153589Y-109946410D01*
X126204453Y-109988152D01*
X126313550Y-110077685D01*
X126496046Y-110175232D01*
X126694066Y-110235300D01*
X126694065Y-110235300D01*
X126712529Y-110237118D01*
X126900000Y-110255583D01*
X127105934Y-110235300D01*
X127303954Y-110175232D01*
X127486450Y-110077685D01*
X127646410Y-109946410D01*
X127777685Y-109786450D01*
X127875232Y-109603954D01*
X127935300Y-109405934D01*
X127955583Y-109200000D01*
X127935300Y-108994066D01*
X127875232Y-108796046D01*
X127777685Y-108613550D01*
X127718692Y-108541666D01*
X127646410Y-108453589D01*
X127510992Y-108342456D01*
X127486450Y-108322315D01*
X127338732Y-108243357D01*
X127288889Y-108194395D01*
X127273429Y-108126257D01*
X127297261Y-108060578D01*
X127352819Y-108018209D01*
X127397187Y-108010000D01*
X127797828Y-108010000D01*
X127797844Y-108009999D01*
X127857372Y-108003598D01*
X127857379Y-108003596D01*
X127992086Y-107953354D01*
X127992093Y-107953350D01*
X128107187Y-107867190D01*
X128107190Y-107867187D01*
X128193350Y-107752093D01*
X128193354Y-107752086D01*
X128243596Y-107617379D01*
X128243598Y-107617372D01*
X128249999Y-107557844D01*
X128250000Y-107557827D01*
X128250000Y-106910000D01*
X127333012Y-106910000D01*
X127365925Y-106852993D01*
X127400000Y-106725826D01*
X127400000Y-106594174D01*
X127365925Y-106467007D01*
X127333012Y-106410000D01*
X128250000Y-106410000D01*
X128250000Y-105762172D01*
X128249999Y-105762155D01*
X128243598Y-105702627D01*
X128243596Y-105702620D01*
X128193354Y-105567913D01*
X128193350Y-105567906D01*
X128107190Y-105452812D01*
X128107187Y-105452809D01*
X127992093Y-105366649D01*
X127992086Y-105366645D01*
X127857379Y-105316403D01*
X127857372Y-105316401D01*
X127797844Y-105310000D01*
X127150000Y-105310000D01*
X127150000Y-106226988D01*
X127092993Y-106194075D01*
X126965826Y-106160000D01*
X126834174Y-106160000D01*
X126707007Y-106194075D01*
X126650000Y-106226988D01*
X126650000Y-105310000D01*
X126002155Y-105310000D01*
X125942627Y-105316401D01*
X125942620Y-105316403D01*
X125807913Y-105366645D01*
X125807906Y-105366649D01*
X125692812Y-105452809D01*
X125692809Y-105452812D01*
X125606649Y-105567906D01*
X125606645Y-105567913D01*
X125556403Y-105702620D01*
X125556401Y-105702627D01*
X125550000Y-105762155D01*
X124979386Y-105762155D01*
X124984849Y-98940000D01*
X125744417Y-98940000D01*
X125764699Y-99145932D01*
X125781101Y-99200001D01*
X125824768Y-99343954D01*
X125922315Y-99526450D01*
X125922461Y-99526628D01*
X126053589Y-99686410D01*
X126150209Y-99765702D01*
X126213550Y-99817685D01*
X126396046Y-99915232D01*
X126594066Y-99975300D01*
X126594065Y-99975300D01*
X126612529Y-99977118D01*
X126800000Y-99995583D01*
X127005934Y-99975300D01*
X127164599Y-99927169D01*
X127234464Y-99926546D01*
X127293577Y-99963794D01*
X127323168Y-100027088D01*
X127320368Y-100077921D01*
X127304500Y-100137142D01*
X127304500Y-103856736D01*
X127326682Y-103939524D01*
X127348108Y-103976634D01*
X127369535Y-104013746D01*
X127369537Y-104013748D01*
X129263681Y-105907892D01*
X129297166Y-105969215D01*
X129300000Y-105995573D01*
X129300000Y-111300000D01*
X132700000Y-111300000D01*
X132700000Y-109013953D01*
X132719685Y-108946914D01*
X132772489Y-108901159D01*
X132841647Y-108891215D01*
X132905203Y-108920240D01*
X132911678Y-108926269D01*
X133803770Y-109818362D01*
X133837254Y-109879683D01*
X133838499Y-109891268D01*
X133838826Y-109891222D01*
X133860569Y-110042456D01*
X133920357Y-110173371D01*
X133920358Y-110173373D01*
X134014607Y-110282143D01*
X134135682Y-110359953D01*
X134135685Y-110359954D01*
X134135684Y-110359954D01*
X134203391Y-110379834D01*
X134253128Y-110394438D01*
X134273771Y-110400499D01*
X134273773Y-110400500D01*
X134339811Y-110400500D01*
X134406850Y-110420185D01*
X134452605Y-110472989D01*
X134462549Y-110542147D01*
X134433524Y-110605703D01*
X134427492Y-110612181D01*
X133460272Y-111579400D01*
X133460268Y-111579406D01*
X133417416Y-111653627D01*
X133417415Y-111653628D01*
X133405115Y-111699538D01*
X133405115Y-111699539D01*
X133395235Y-111736411D01*
X133395235Y-112316796D01*
X133375550Y-112383835D01*
X133322746Y-112429590D01*
X133270508Y-112440794D01*
X131452093Y-112430129D01*
X131430000Y-112430000D01*
X131429999Y-112430000D01*
X131419999Y-112479999D01*
X131459999Y-116699998D01*
X131460000Y-116700000D01*
X133394382Y-116705705D01*
X133461361Y-116725587D01*
X133481695Y-116742023D01*
X134543470Y-117803797D01*
X134576955Y-117865120D01*
X134571971Y-117934812D01*
X134530099Y-117990745D01*
X134490725Y-118010455D01*
X134389948Y-118040046D01*
X134268873Y-118117856D01*
X134174623Y-118226626D01*
X134174622Y-118226628D01*
X134114834Y-118357543D01*
X134094353Y-118500000D01*
X134114834Y-118642456D01*
X134174327Y-118772725D01*
X134174623Y-118773373D01*
X134268872Y-118882143D01*
X134389947Y-118959953D01*
X134389950Y-118959954D01*
X134389949Y-118959954D01*
X134528036Y-119000499D01*
X134528038Y-119000500D01*
X134528039Y-119000500D01*
X134671962Y-119000500D01*
X134671962Y-119000499D01*
X134810053Y-118959953D01*
X134931128Y-118882143D01*
X135025377Y-118773373D01*
X135085165Y-118642457D01*
X135087240Y-118628020D01*
X135116262Y-118564467D01*
X135175038Y-118526690D01*
X135244908Y-118526687D01*
X135297659Y-118557985D01*
X140558034Y-123818360D01*
X140591519Y-123879683D01*
X140592764Y-123891268D01*
X140593091Y-123891222D01*
X140614834Y-124042456D01*
X140674622Y-124173371D01*
X140674623Y-124173373D01*
X140768872Y-124282143D01*
X140889947Y-124359953D01*
X140889950Y-124359954D01*
X140889949Y-124359954D01*
X141028036Y-124400499D01*
X141028038Y-124400500D01*
X141028039Y-124400500D01*
X141171962Y-124400500D01*
X141171962Y-124400499D01*
X141310053Y-124359953D01*
X141431128Y-124282143D01*
X141525377Y-124173373D01*
X141585165Y-124042457D01*
X141605647Y-123900000D01*
X141585165Y-123757543D01*
X141525377Y-123626627D01*
X141431128Y-123517857D01*
X141310053Y-123440047D01*
X141310051Y-123440046D01*
X141310049Y-123440045D01*
X141310050Y-123440045D01*
X141171963Y-123399500D01*
X141171961Y-123399500D01*
X141111188Y-123399500D01*
X141044149Y-123379815D01*
X141023507Y-123363181D01*
X134581474Y-116921147D01*
X134547989Y-116859824D01*
X134552973Y-116790132D01*
X134594845Y-116734199D01*
X134660309Y-116709782D01*
X134669513Y-116709467D01*
X134848234Y-116709994D01*
X134849999Y-116710000D01*
X134849998Y-116709999D01*
X134850000Y-116710000D01*
X134840477Y-112653626D01*
X134860004Y-112586545D01*
X134912701Y-112540666D01*
X134981836Y-112530560D01*
X135045460Y-112559436D01*
X135052158Y-112565658D01*
X135211011Y-112724511D01*
X135266960Y-112780460D01*
X135266962Y-112780461D01*
X135266966Y-112780464D01*
X135335475Y-112820017D01*
X135335482Y-112820021D01*
X135411909Y-112840500D01*
X135411911Y-112840500D01*
X141099560Y-112840500D01*
X141099562Y-112840500D01*
X141175989Y-112820021D01*
X141244511Y-112780460D01*
X141300460Y-112724511D01*
X144512833Y-109512138D01*
X144574156Y-109478653D01*
X144643848Y-109483637D01*
X144699781Y-109525509D01*
X144724198Y-109590973D01*
X144724514Y-109599819D01*
X144724514Y-109797682D01*
X144704829Y-109864721D01*
X144688195Y-109885363D01*
X138610377Y-115963181D01*
X138549054Y-115996666D01*
X138522696Y-115999500D01*
X137905236Y-115999500D01*
X137838197Y-115979815D01*
X137792442Y-115927011D01*
X137782498Y-115857853D01*
X137792442Y-115823988D01*
X137836905Y-115726628D01*
X137837248Y-115725878D01*
X137857730Y-115583421D01*
X137837248Y-115440964D01*
X137777460Y-115310048D01*
X137683211Y-115201278D01*
X137562136Y-115123468D01*
X137562134Y-115123467D01*
X137562132Y-115123466D01*
X137562133Y-115123466D01*
X137424046Y-115082921D01*
X137424044Y-115082921D01*
X137280122Y-115082921D01*
X137280119Y-115082921D01*
X137142032Y-115123466D01*
X137020955Y-115201277D01*
X137018115Y-115203739D01*
X137014697Y-115205299D01*
X137013494Y-115206073D01*
X137013382Y-115205899D01*
X136954559Y-115232762D01*
X136885400Y-115222817D01*
X136832597Y-115177061D01*
X136814176Y-115127670D01*
X136798404Y-115017971D01*
X136744573Y-114900099D01*
X136738616Y-114887055D01*
X136644367Y-114778285D01*
X136523292Y-114700475D01*
X136523290Y-114700474D01*
X136523288Y-114700473D01*
X136523289Y-114700473D01*
X136385202Y-114659928D01*
X136385200Y-114659928D01*
X136241278Y-114659928D01*
X136241275Y-114659928D01*
X136103188Y-114700473D01*
X135982112Y-114778284D01*
X135887862Y-114887054D01*
X135887861Y-114887056D01*
X135828073Y-115017971D01*
X135807592Y-115160428D01*
X135828073Y-115302884D01*
X135859219Y-115371082D01*
X135887862Y-115433801D01*
X135982111Y-115542571D01*
X135982113Y-115542572D01*
X135982115Y-115542574D01*
X136103180Y-115620378D01*
X136103184Y-115620380D01*
X136103186Y-115620381D01*
X136103187Y-115620381D01*
X136105571Y-115621470D01*
X136141749Y-115646587D01*
X136372660Y-115877498D01*
X136406145Y-115938821D01*
X136401161Y-116008513D01*
X136359289Y-116064446D01*
X136352019Y-116069494D01*
X136254676Y-116132053D01*
X136254674Y-116132054D01*
X136254674Y-116132055D01*
X136242693Y-116145882D01*
X136197323Y-116198242D01*
X136138545Y-116236016D01*
X136068675Y-116236016D01*
X136036571Y-116221355D01*
X135994468Y-116194297D01*
X135910053Y-116140047D01*
X135910051Y-116140046D01*
X135910049Y-116140045D01*
X135910050Y-116140045D01*
X135771963Y-116099500D01*
X135771961Y-116099500D01*
X135628039Y-116099500D01*
X135628036Y-116099500D01*
X135489949Y-116140045D01*
X135368873Y-116217856D01*
X135274623Y-116326626D01*
X135274622Y-116326628D01*
X135214834Y-116457543D01*
X135194353Y-116600000D01*
X135214834Y-116742456D01*
X135240886Y-116799500D01*
X135274623Y-116873373D01*
X135368872Y-116982143D01*
X135489947Y-117059953D01*
X135489950Y-117059954D01*
X135489949Y-117059954D01*
X135597107Y-117091417D01*
X135625280Y-117099690D01*
X135628036Y-117100499D01*
X135628038Y-117100500D01*
X135724167Y-117100500D01*
X135791206Y-117120185D01*
X135811848Y-117136819D01*
X136959540Y-118284511D01*
X137015489Y-118340460D01*
X137015491Y-118340461D01*
X137015495Y-118340464D01*
X137084004Y-118380017D01*
X137084011Y-118380021D01*
X137160438Y-118400500D01*
X137807521Y-118400500D01*
X137874560Y-118420185D01*
X137920315Y-118472989D01*
X137924562Y-118483545D01*
X137945882Y-118544475D01*
X137945883Y-118544476D01*
X138024287Y-118650710D01*
X138024288Y-118650711D01*
X138130522Y-118729115D01*
X138130523Y-118729115D01*
X138130524Y-118729116D01*
X138255150Y-118772725D01*
X138255149Y-118772725D01*
X138284739Y-118775500D01*
X138284743Y-118775500D01*
X138990259Y-118775500D01*
X139019848Y-118772725D01*
X139144474Y-118729116D01*
X139237440Y-118660503D01*
X139303067Y-118636534D01*
X139371237Y-118651849D01*
X139416610Y-118695178D01*
X139480053Y-118798034D01*
X139480056Y-118798038D01*
X139601962Y-118919944D01*
X139601966Y-118919947D01*
X139748689Y-119010448D01*
X139748700Y-119010453D01*
X139912348Y-119064680D01*
X140013352Y-119074999D01*
X140612501Y-119074999D01*
X140711641Y-119074999D01*
X140711655Y-119074998D01*
X140812653Y-119064680D01*
X140976301Y-119010453D01*
X140976312Y-119010448D01*
X141123035Y-118919947D01*
X141123039Y-118919944D01*
X141142983Y-118900000D01*
X141594353Y-118900000D01*
X141614834Y-119042456D01*
X141653275Y-119126628D01*
X141674623Y-119173373D01*
X141768872Y-119282143D01*
X141889947Y-119359953D01*
X141889950Y-119359954D01*
X141889949Y-119359954D01*
X141997107Y-119391417D01*
X142026336Y-119400000D01*
X142028036Y-119400499D01*
X142028038Y-119400500D01*
X142028039Y-119400500D01*
X142171962Y-119400500D01*
X142171962Y-119400499D01*
X142173661Y-119400000D01*
X146794353Y-119400000D01*
X146814834Y-119542456D01*
X146841114Y-119599999D01*
X146874623Y-119673373D01*
X146968872Y-119782143D01*
X147089947Y-119859953D01*
X147089950Y-119859954D01*
X147089949Y-119859954D01*
X147228036Y-119900499D01*
X147228038Y-119900500D01*
X147228039Y-119900500D01*
X147371962Y-119900500D01*
X147371962Y-119900499D01*
X147510053Y-119859953D01*
X147631128Y-119782143D01*
X147725377Y-119673373D01*
X147785165Y-119542457D01*
X147805647Y-119400000D01*
X147785165Y-119257543D01*
X147725377Y-119126627D01*
X147631128Y-119017857D01*
X147510053Y-118940047D01*
X147510051Y-118940046D01*
X147510049Y-118940045D01*
X147510050Y-118940045D01*
X147371963Y-118899500D01*
X147371961Y-118899500D01*
X147228039Y-118899500D01*
X147228036Y-118899500D01*
X147089949Y-118940045D01*
X146968873Y-119017856D01*
X146874623Y-119126626D01*
X146874622Y-119126628D01*
X146814834Y-119257543D01*
X146794353Y-119400000D01*
X142173661Y-119400000D01*
X142310053Y-119359953D01*
X142431128Y-119282143D01*
X142525377Y-119173373D01*
X142585165Y-119042457D01*
X142605647Y-118900000D01*
X142585165Y-118757543D01*
X142525377Y-118626627D01*
X142431128Y-118517857D01*
X142310053Y-118440047D01*
X142310051Y-118440046D01*
X142310049Y-118440045D01*
X142310050Y-118440045D01*
X142171963Y-118399500D01*
X142171961Y-118399500D01*
X142028039Y-118399500D01*
X142028036Y-118399500D01*
X141889949Y-118440045D01*
X141768873Y-118517856D01*
X141674623Y-118626626D01*
X141674622Y-118626628D01*
X141614834Y-118757543D01*
X141594353Y-118900000D01*
X141142983Y-118900000D01*
X141244945Y-118798038D01*
X141244948Y-118798034D01*
X141335449Y-118651311D01*
X141335454Y-118651300D01*
X141389681Y-118487652D01*
X141400000Y-118386654D01*
X141400001Y-118386641D01*
X141400001Y-118350000D01*
X140612501Y-118350000D01*
X140612501Y-119074999D01*
X140013352Y-119074999D01*
X140112501Y-119074998D01*
X140112501Y-117850000D01*
X140612501Y-117850000D01*
X141400000Y-117850000D01*
X141400000Y-117813360D01*
X141399999Y-117813345D01*
X141389681Y-117712347D01*
X141335454Y-117548699D01*
X141335449Y-117548688D01*
X141244948Y-117401965D01*
X141244945Y-117401961D01*
X141142984Y-117300000D01*
X145894353Y-117300000D01*
X145914834Y-117442456D01*
X145963624Y-117549289D01*
X145974623Y-117573373D01*
X146068872Y-117682143D01*
X146189947Y-117759953D01*
X146189950Y-117759954D01*
X146189949Y-117759954D01*
X146297107Y-117791417D01*
X146324633Y-117799500D01*
X146328036Y-117800499D01*
X146328038Y-117800500D01*
X146328039Y-117800500D01*
X146471962Y-117800500D01*
X146471962Y-117800499D01*
X146579121Y-117769035D01*
X146610050Y-117759954D01*
X146610050Y-117759953D01*
X146610053Y-117759953D01*
X146731128Y-117682143D01*
X146825377Y-117573373D01*
X146885165Y-117442457D01*
X146905647Y-117300000D01*
X146885165Y-117157543D01*
X146825377Y-117026627D01*
X146731128Y-116917857D01*
X146610053Y-116840047D01*
X146610051Y-116840046D01*
X146610049Y-116840045D01*
X146610050Y-116840045D01*
X146471963Y-116799500D01*
X146471961Y-116799500D01*
X146328039Y-116799500D01*
X146328036Y-116799500D01*
X146189949Y-116840045D01*
X146068873Y-116917856D01*
X145974623Y-117026626D01*
X145974622Y-117026628D01*
X145914834Y-117157543D01*
X145894353Y-117300000D01*
X141142984Y-117300000D01*
X141123039Y-117280055D01*
X141123035Y-117280052D01*
X140976312Y-117189551D01*
X140976301Y-117189546D01*
X140812653Y-117135319D01*
X140711655Y-117125000D01*
X140612501Y-117125000D01*
X140612501Y-117850000D01*
X140112501Y-117850000D01*
X140112501Y-117102898D01*
X140132186Y-117035859D01*
X140184990Y-116990104D01*
X140204399Y-116983126D01*
X140215989Y-116980021D01*
X140284511Y-116940460D01*
X140340460Y-116884511D01*
X140615724Y-116609245D01*
X140677043Y-116575763D01*
X140746735Y-116580747D01*
X140757203Y-116585209D01*
X140815362Y-116613217D01*
X140815363Y-116613217D01*
X140815365Y-116613218D01*
X140880645Y-116623057D01*
X140945925Y-116632897D01*
X140945926Y-116632897D01*
X140945927Y-116632897D01*
X140989446Y-116626337D01*
X141076487Y-116613218D01*
X141195447Y-116555930D01*
X141218334Y-116536967D01*
X141717207Y-116038094D01*
X141736170Y-116015207D01*
X141793458Y-115896247D01*
X141810678Y-115781993D01*
X141840134Y-115718639D01*
X141899167Y-115681265D01*
X141961889Y-115679819D01*
X142079488Y-115707690D01*
X142251884Y-115707690D01*
X142419644Y-115667931D01*
X142573706Y-115590557D01*
X142573709Y-115590555D01*
X142652417Y-115526440D01*
X142652421Y-115526436D01*
X142722531Y-115456324D01*
X142120784Y-114854577D01*
X142087299Y-114793254D01*
X142092283Y-114723562D01*
X142120784Y-114679214D01*
X142209879Y-114590119D01*
X142563434Y-114590119D01*
X142563434Y-114590121D01*
X143076084Y-115102771D01*
X143076086Y-115102771D01*
X143146180Y-115032677D01*
X143146188Y-115032668D01*
X143210315Y-114953950D01*
X143210318Y-114953945D01*
X143287691Y-114799884D01*
X143327450Y-114632124D01*
X143327450Y-114459727D01*
X143287690Y-114291965D01*
X143266614Y-114249999D01*
X146869364Y-114249999D01*
X146869364Y-114250000D01*
X147766988Y-114250000D01*
X147734075Y-114307007D01*
X147700000Y-114434174D01*
X147700000Y-114565826D01*
X147734075Y-114692993D01*
X147766988Y-114750000D01*
X146869364Y-114750000D01*
X146926567Y-114963486D01*
X146926570Y-114963492D01*
X147026399Y-115177578D01*
X147161894Y-115371082D01*
X147328917Y-115538105D01*
X147522421Y-115673600D01*
X147736507Y-115773429D01*
X147736516Y-115773433D01*
X147950000Y-115830634D01*
X147950000Y-114933012D01*
X148007007Y-114965925D01*
X148134174Y-115000000D01*
X148265826Y-115000000D01*
X148392993Y-114965925D01*
X148450000Y-114933012D01*
X148450000Y-115830633D01*
X148663483Y-115773433D01*
X148663492Y-115773429D01*
X148877578Y-115673600D01*
X149071082Y-115538105D01*
X149238105Y-115371082D01*
X149373600Y-115177578D01*
X149473429Y-114963492D01*
X149473432Y-114963486D01*
X149530636Y-114750000D01*
X148633012Y-114750000D01*
X148665925Y-114692993D01*
X148700000Y-114565826D01*
X148700000Y-114434174D01*
X148665925Y-114307007D01*
X148633012Y-114250000D01*
X149530636Y-114250000D01*
X149530635Y-114249999D01*
X149473432Y-114036513D01*
X149473429Y-114036507D01*
X149373600Y-113822422D01*
X149373599Y-113822420D01*
X149238113Y-113628926D01*
X149238108Y-113628920D01*
X149071082Y-113461894D01*
X148877578Y-113326399D01*
X148707052Y-113246882D01*
X148654613Y-113200710D01*
X148635461Y-113133516D01*
X148655677Y-113066635D01*
X148708842Y-113021300D01*
X148759457Y-113010500D01*
X149069750Y-113010500D01*
X149069751Y-113010499D01*
X149084568Y-113007552D01*
X149128229Y-112998868D01*
X149128229Y-112998867D01*
X149128231Y-112998867D01*
X149194552Y-112954552D01*
X149238867Y-112888231D01*
X149238867Y-112888229D01*
X149238868Y-112888229D01*
X149250499Y-112829752D01*
X149250500Y-112829750D01*
X149250500Y-111090249D01*
X149250499Y-111090247D01*
X149238868Y-111031770D01*
X149238867Y-111031769D01*
X149194552Y-110965447D01*
X149128230Y-110921132D01*
X149128229Y-110921131D01*
X149069752Y-110909500D01*
X149069748Y-110909500D01*
X147330252Y-110909500D01*
X147330247Y-110909500D01*
X147271770Y-110921131D01*
X147271769Y-110921132D01*
X147205447Y-110965447D01*
X147161132Y-111031769D01*
X147161131Y-111031770D01*
X147149500Y-111090247D01*
X147149500Y-112829752D01*
X147161131Y-112888229D01*
X147161132Y-112888230D01*
X147205447Y-112954552D01*
X147271769Y-112998867D01*
X147271770Y-112998868D01*
X147330247Y-113010499D01*
X147330250Y-113010500D01*
X147640543Y-113010500D01*
X147707582Y-113030185D01*
X147753337Y-113082989D01*
X147763281Y-113152147D01*
X147734256Y-113215703D01*
X147692948Y-113246882D01*
X147522422Y-113326399D01*
X147522420Y-113326400D01*
X147328926Y-113461886D01*
X147328920Y-113461891D01*
X147161891Y-113628920D01*
X147161886Y-113628926D01*
X147026400Y-113822420D01*
X147026399Y-113822422D01*
X146926570Y-114036507D01*
X146926567Y-114036513D01*
X146869364Y-114249999D01*
X143266614Y-114249999D01*
X143210318Y-114137906D01*
X143146193Y-114059188D01*
X143120278Y-114033274D01*
X142563434Y-114590119D01*
X142209879Y-114590119D01*
X142120783Y-114501023D01*
X142087298Y-114439700D01*
X142092282Y-114370008D01*
X142120783Y-114325661D01*
X142766724Y-113679720D01*
X142740810Y-113653806D01*
X142662094Y-113589681D01*
X142508034Y-113512309D01*
X142340272Y-113472550D01*
X142250312Y-113472550D01*
X142183273Y-113452865D01*
X142137518Y-113400061D01*
X142127574Y-113330903D01*
X142156599Y-113267347D01*
X142162631Y-113260869D01*
X145265471Y-110158029D01*
X145265474Y-110158026D01*
X145275616Y-110140460D01*
X145305035Y-110089504D01*
X145325514Y-110013077D01*
X145325514Y-108363738D01*
X145345199Y-108296699D01*
X145355801Y-108282535D01*
X145356138Y-108282144D01*
X145356142Y-108282143D01*
X145450391Y-108173373D01*
X145510179Y-108042457D01*
X145510179Y-108042455D01*
X145512706Y-108036923D01*
X145558461Y-107984119D01*
X145625500Y-107964435D01*
X145692540Y-107984120D01*
X145738294Y-108036924D01*
X145749500Y-108088435D01*
X145749500Y-108569752D01*
X145761131Y-108628229D01*
X145761132Y-108628230D01*
X145805447Y-108694552D01*
X145871769Y-108738867D01*
X145871770Y-108738868D01*
X145930247Y-108750499D01*
X145930250Y-108750500D01*
X145930252Y-108750500D01*
X147669750Y-108750500D01*
X147669751Y-108750499D01*
X147684568Y-108747552D01*
X147728229Y-108738868D01*
X147728229Y-108738867D01*
X147728231Y-108738867D01*
X147794552Y-108694552D01*
X147838867Y-108628231D01*
X147838867Y-108628229D01*
X147838868Y-108628229D01*
X147847552Y-108584568D01*
X147850500Y-108569748D01*
X147850500Y-106830252D01*
X147850500Y-106830249D01*
X147850499Y-106830247D01*
X147838868Y-106771770D01*
X147838867Y-106771769D01*
X147794552Y-106705447D01*
X147728230Y-106661132D01*
X147728229Y-106661131D01*
X147669752Y-106649500D01*
X147669748Y-106649500D01*
X145930252Y-106649500D01*
X145930247Y-106649500D01*
X145871770Y-106661131D01*
X145871769Y-106661132D01*
X145805447Y-106705447D01*
X145761132Y-106771769D01*
X145761131Y-106771770D01*
X145749500Y-106830247D01*
X145749500Y-107711564D01*
X145729815Y-107778603D01*
X145677011Y-107824358D01*
X145607853Y-107834302D01*
X145544297Y-107805277D01*
X145512706Y-107763076D01*
X145450391Y-107626628D01*
X145450390Y-107626626D01*
X145356142Y-107517857D01*
X145235067Y-107440047D01*
X145235065Y-107440046D01*
X145235063Y-107440045D01*
X145235064Y-107440045D01*
X145096977Y-107399500D01*
X145096975Y-107399500D01*
X144953053Y-107399500D01*
X144953049Y-107399500D01*
X144884448Y-107419643D01*
X144814578Y-107419643D01*
X144755800Y-107381868D01*
X144726776Y-107318312D01*
X144725514Y-107300666D01*
X144725514Y-105160000D01*
X145744417Y-105160000D01*
X145764699Y-105365932D01*
X145771863Y-105389547D01*
X145824768Y-105563954D01*
X145922315Y-105746450D01*
X145922317Y-105746452D01*
X146053589Y-105906410D01*
X146150209Y-105985702D01*
X146213550Y-106037685D01*
X146396046Y-106135232D01*
X146594066Y-106195300D01*
X146594065Y-106195300D01*
X146612529Y-106197118D01*
X146800000Y-106215583D01*
X147005934Y-106195300D01*
X147203954Y-106135232D01*
X147386450Y-106037685D01*
X147546410Y-105906410D01*
X147677685Y-105746450D01*
X147775232Y-105563954D01*
X147835300Y-105365934D01*
X147855583Y-105160000D01*
X147835300Y-104954066D01*
X147775232Y-104756046D01*
X147677685Y-104573550D01*
X147594940Y-104472724D01*
X147546410Y-104413589D01*
X147386452Y-104282317D01*
X147386453Y-104282317D01*
X147386450Y-104282315D01*
X147203954Y-104184768D01*
X147005934Y-104124700D01*
X147005932Y-104124699D01*
X147005934Y-104124699D01*
X146800000Y-104104417D01*
X146594067Y-104124699D01*
X146396043Y-104184769D01*
X146343877Y-104212653D01*
X146213550Y-104282315D01*
X146213548Y-104282316D01*
X146213547Y-104282317D01*
X146053589Y-104413589D01*
X145922317Y-104573547D01*
X145824769Y-104756043D01*
X145764699Y-104954067D01*
X145744417Y-105160000D01*
X144725514Y-105160000D01*
X144725514Y-100985454D01*
X144725514Y-100985452D01*
X144710133Y-100928050D01*
X144710133Y-100928049D01*
X144710133Y-100928048D01*
X144705036Y-100909026D01*
X144693355Y-100888794D01*
X144665474Y-100840503D01*
X143624971Y-99800000D01*
X144494353Y-99800000D01*
X144514834Y-99942456D01*
X144571208Y-100065896D01*
X144574623Y-100073373D01*
X144668872Y-100182143D01*
X144789947Y-100259953D01*
X144789950Y-100259954D01*
X144789949Y-100259954D01*
X144897107Y-100291417D01*
X144923441Y-100299150D01*
X144928036Y-100300499D01*
X144928038Y-100300500D01*
X144928039Y-100300500D01*
X145071962Y-100300500D01*
X145071962Y-100300499D01*
X145210050Y-100259954D01*
X145210051Y-100259954D01*
X145213853Y-100257511D01*
X145274572Y-100218488D01*
X145341612Y-100198804D01*
X145408651Y-100218488D01*
X145454406Y-100271292D01*
X145465140Y-100311993D01*
X145465430Y-100315317D01*
X145465432Y-100315326D01*
X145526566Y-100543483D01*
X145526570Y-100543492D01*
X145626399Y-100757578D01*
X145761894Y-100951082D01*
X145928917Y-101118105D01*
X146122421Y-101253600D01*
X146336507Y-101353429D01*
X146336516Y-101353433D01*
X146458650Y-101386158D01*
X146518310Y-101422522D01*
X146548840Y-101485369D01*
X146540546Y-101554745D01*
X146496061Y-101608623D01*
X146462554Y-101624593D01*
X146396045Y-101644769D01*
X146319590Y-101685636D01*
X146213550Y-101742316D01*
X146213548Y-101742317D01*
X146213547Y-101742318D01*
X146053589Y-101873590D01*
X145922317Y-102033548D01*
X145824769Y-102216044D01*
X145764699Y-102414068D01*
X145744417Y-102620001D01*
X145764699Y-102825933D01*
X145794734Y-102924945D01*
X145824768Y-103023955D01*
X145922315Y-103206451D01*
X145942071Y-103230524D01*
X146053589Y-103366411D01*
X146110799Y-103413361D01*
X146213550Y-103497686D01*
X146396046Y-103595233D01*
X146594066Y-103655301D01*
X146594065Y-103655301D01*
X146612529Y-103657119D01*
X146800000Y-103675584D01*
X147005934Y-103655301D01*
X147203954Y-103595233D01*
X147386450Y-103497686D01*
X147546410Y-103366411D01*
X147677685Y-103206451D01*
X147775232Y-103023955D01*
X147835300Y-102825935D01*
X147855583Y-102620001D01*
X147835300Y-102414067D01*
X147775232Y-102216047D01*
X147677685Y-102033551D01*
X147615307Y-101957543D01*
X147546410Y-101873590D01*
X147386452Y-101742318D01*
X147386453Y-101742318D01*
X147386450Y-101742316D01*
X147203954Y-101644769D01*
X147137445Y-101624593D01*
X147079007Y-101586295D01*
X147050551Y-101522483D01*
X147061112Y-101453416D01*
X147107337Y-101401023D01*
X147141350Y-101386158D01*
X147263481Y-101353434D01*
X147263492Y-101353429D01*
X147477578Y-101253600D01*
X147671082Y-101118105D01*
X147838105Y-100951082D01*
X147973600Y-100757578D01*
X148073429Y-100543492D01*
X148073432Y-100543486D01*
X148130636Y-100330000D01*
X147233012Y-100330000D01*
X147265925Y-100272993D01*
X147300000Y-100145826D01*
X147300000Y-100014174D01*
X147265925Y-99887007D01*
X147233012Y-99830000D01*
X148130636Y-99830000D01*
X148130635Y-99829999D01*
X148073432Y-99616513D01*
X148073429Y-99616507D01*
X147973600Y-99402422D01*
X147973599Y-99402420D01*
X147838113Y-99208926D01*
X147838108Y-99208920D01*
X147671082Y-99041894D01*
X147477578Y-98906399D01*
X147263492Y-98806570D01*
X147263486Y-98806567D01*
X147050000Y-98749364D01*
X147050000Y-99646988D01*
X146992993Y-99614075D01*
X146865826Y-99580000D01*
X146734174Y-99580000D01*
X146607007Y-99614075D01*
X146550000Y-99646988D01*
X146550000Y-98749364D01*
X146549999Y-98749364D01*
X146336513Y-98806567D01*
X146336507Y-98806570D01*
X146122422Y-98906399D01*
X146122420Y-98906400D01*
X145928926Y-99041886D01*
X145928920Y-99041891D01*
X145761891Y-99208920D01*
X145761886Y-99208926D01*
X145626401Y-99402419D01*
X145599250Y-99460644D01*
X145553077Y-99513083D01*
X145485883Y-99532234D01*
X145419002Y-99512017D01*
X145393155Y-99489441D01*
X145379233Y-99473374D01*
X145331128Y-99417857D01*
X145210053Y-99340047D01*
X145210051Y-99340046D01*
X145210049Y-99340045D01*
X145210050Y-99340045D01*
X145071963Y-99299500D01*
X145071961Y-99299500D01*
X144928039Y-99299500D01*
X144928036Y-99299500D01*
X144789949Y-99340045D01*
X144668873Y-99417856D01*
X144574623Y-99526626D01*
X144574622Y-99526628D01*
X144514834Y-99657543D01*
X144494353Y-99800000D01*
X143624971Y-99800000D01*
X141439395Y-97614424D01*
X141405910Y-97553101D01*
X141404339Y-97509094D01*
X141405647Y-97500000D01*
X141385165Y-97357543D01*
X141325377Y-97226627D01*
X141231128Y-97117857D01*
X141110053Y-97040047D01*
X141110051Y-97040046D01*
X141110049Y-97040045D01*
X141110050Y-97040045D01*
X140971963Y-96999500D01*
X140971961Y-96999500D01*
X140828039Y-96999500D01*
X140828036Y-96999500D01*
X140689949Y-97040045D01*
X140601619Y-97096812D01*
X140581979Y-97109434D01*
X140581977Y-97109435D01*
X140514938Y-97129119D01*
X140447898Y-97109434D01*
X140433736Y-97098833D01*
X140431404Y-97096812D01*
X140384779Y-97066848D01*
X140310330Y-97019003D01*
X140310328Y-97019002D01*
X140310326Y-97019001D01*
X140310327Y-97019001D01*
X140172240Y-96978456D01*
X140172238Y-96978456D01*
X140028316Y-96978456D01*
X140028313Y-96978456D01*
X139890226Y-97019001D01*
X139769150Y-97096812D01*
X139674900Y-97205582D01*
X139663955Y-97229549D01*
X139618199Y-97282352D01*
X139551159Y-97302036D01*
X139484120Y-97282351D01*
X139463480Y-97265717D01*
X139365259Y-97167496D01*
X139138978Y-96941214D01*
X139046910Y-96903078D01*
X139046909Y-96903078D01*
X137283033Y-96903078D01*
X137215994Y-96883393D01*
X137170239Y-96830589D01*
X137160295Y-96761431D01*
X137163218Y-96747990D01*
X137163498Y-96746037D01*
X137163500Y-96746035D01*
X137183982Y-96603578D01*
X137178847Y-96567863D01*
X137188791Y-96498706D01*
X137213901Y-96462539D01*
X137739623Y-95936819D01*
X137800946Y-95903334D01*
X137827304Y-95900500D01*
X138607522Y-95900500D01*
X138674561Y-95920185D01*
X138720316Y-95972989D01*
X138724563Y-95983545D01*
X138745883Y-96044475D01*
X138745884Y-96044476D01*
X138824288Y-96150710D01*
X138824289Y-96150711D01*
X138930523Y-96229115D01*
X138930524Y-96229115D01*
X138930525Y-96229116D01*
X139055151Y-96272725D01*
X139055150Y-96272725D01*
X139084740Y-96275500D01*
X139084744Y-96275500D01*
X139790260Y-96275500D01*
X139819849Y-96272725D01*
X139944475Y-96229116D01*
X140037440Y-96160505D01*
X140103067Y-96136535D01*
X140171238Y-96151850D01*
X140216610Y-96195179D01*
X140280052Y-96298034D01*
X140280055Y-96298038D01*
X140401961Y-96419944D01*
X140401965Y-96419947D01*
X140548688Y-96510448D01*
X140548699Y-96510453D01*
X140712347Y-96564680D01*
X140813351Y-96574999D01*
X141412500Y-96574999D01*
X141511640Y-96574999D01*
X141511654Y-96574998D01*
X141612652Y-96564680D01*
X141776300Y-96510453D01*
X141776311Y-96510448D01*
X141923034Y-96419947D01*
X141923038Y-96419944D01*
X142044944Y-96298038D01*
X142044947Y-96298034D01*
X142135448Y-96151311D01*
X142135453Y-96151300D01*
X142189680Y-95987652D01*
X142199999Y-95886654D01*
X142200000Y-95886641D01*
X142200000Y-95850000D01*
X141412500Y-95850000D01*
X141412500Y-96574999D01*
X140813351Y-96574999D01*
X140912500Y-96574998D01*
X140912500Y-95724000D01*
X140932185Y-95656961D01*
X140984989Y-95611206D01*
X141036500Y-95600000D01*
X141162500Y-95600000D01*
X141162500Y-95474000D01*
X141182185Y-95406961D01*
X141234989Y-95361206D01*
X141286500Y-95350000D01*
X142199999Y-95350000D01*
X142199999Y-95313360D01*
X142199998Y-95313345D01*
X142189680Y-95212347D01*
X142135453Y-95048699D01*
X142135448Y-95048688D01*
X142044947Y-94901965D01*
X142044944Y-94901961D01*
X141923038Y-94780055D01*
X141923034Y-94780052D01*
X141776311Y-94689551D01*
X141776300Y-94689546D01*
X141612652Y-94635319D01*
X141511654Y-94625000D01*
X141492596Y-94625000D01*
X141425557Y-94605315D01*
X141379802Y-94552511D01*
X141369858Y-94483353D01*
X141387058Y-94435903D01*
X141445329Y-94341431D01*
X141445334Y-94341420D01*
X141499561Y-94177772D01*
X141509880Y-94076774D01*
X141509881Y-94076761D01*
X141509881Y-94040120D01*
X140596381Y-94040120D01*
X140529342Y-94020435D01*
X140483587Y-93967631D01*
X140472381Y-93916120D01*
X140472381Y-93790120D01*
X140346381Y-93790120D01*
X140279342Y-93770435D01*
X140233587Y-93717631D01*
X140222381Y-93666120D01*
X140222381Y-93540120D01*
X140722381Y-93540120D01*
X141509880Y-93540120D01*
X141509880Y-93503480D01*
X141509879Y-93503465D01*
X141499561Y-93402467D01*
X141445334Y-93238819D01*
X141445329Y-93238808D01*
X141354828Y-93092085D01*
X141354825Y-93092081D01*
X141232919Y-92970175D01*
X141232915Y-92970172D01*
X141086192Y-92879671D01*
X141086181Y-92879666D01*
X140922533Y-92825439D01*
X140821535Y-92815120D01*
X140722381Y-92815120D01*
X140722381Y-93540120D01*
X140222381Y-93540120D01*
X140222381Y-92815119D01*
X140123241Y-92815120D01*
X140123225Y-92815121D01*
X140022228Y-92825439D01*
X139858580Y-92879666D01*
X139858569Y-92879671D01*
X139711846Y-92970172D01*
X139711842Y-92970175D01*
X139589935Y-93092082D01*
X139526490Y-93194942D01*
X139474542Y-93241666D01*
X139405579Y-93252887D01*
X139347319Y-93229615D01*
X139335494Y-93220888D01*
X139254354Y-93161004D01*
X139254353Y-93161003D01*
X139129727Y-93117394D01*
X139129728Y-93117394D01*
X139100139Y-93114620D01*
X139100135Y-93114620D01*
X138394623Y-93114620D01*
X138394619Y-93114620D01*
X138365029Y-93117394D01*
X138240402Y-93161004D01*
X138134168Y-93239408D01*
X138134167Y-93239409D01*
X138055763Y-93345643D01*
X138012153Y-93470270D01*
X138009379Y-93499859D01*
X138009379Y-94051786D01*
X137989694Y-94118825D01*
X137973060Y-94139467D01*
X136493824Y-95618704D01*
X136437876Y-95674651D01*
X136437870Y-95674659D01*
X136398317Y-95743168D01*
X136398314Y-95743173D01*
X136377835Y-95819603D01*
X136377835Y-96139838D01*
X136358150Y-96206877D01*
X136347548Y-96221040D01*
X136252960Y-96330200D01*
X136252957Y-96330206D01*
X136193169Y-96461121D01*
X136172688Y-96603578D01*
X136194432Y-96754813D01*
X136192614Y-96755074D01*
X136192613Y-96814016D01*
X136154837Y-96872793D01*
X136091280Y-96901816D01*
X136073637Y-96903078D01*
X135724500Y-96903078D01*
X135657461Y-96883393D01*
X135611706Y-96830589D01*
X135600500Y-96779078D01*
X135600500Y-96309739D01*
X135597725Y-96280150D01*
X135554115Y-96155523D01*
X135475711Y-96049289D01*
X135475710Y-96049288D01*
X135369476Y-95970884D01*
X135244848Y-95927274D01*
X135244849Y-95927274D01*
X135215260Y-95924500D01*
X135215256Y-95924500D01*
X134609744Y-95924500D01*
X134609740Y-95924500D01*
X134580150Y-95927274D01*
X134455523Y-95970884D01*
X134349289Y-96049288D01*
X134349288Y-96049289D01*
X134270884Y-96155523D01*
X134227274Y-96280150D01*
X134224500Y-96309739D01*
X134224500Y-96890260D01*
X134227274Y-96919849D01*
X134270883Y-97044474D01*
X134313241Y-97101867D01*
X134337211Y-97167496D01*
X134321895Y-97235666D01*
X134272155Y-97284734D01*
X134213470Y-97299500D01*
X134128036Y-97299500D01*
X133989949Y-97340045D01*
X133868873Y-97417856D01*
X133774623Y-97526626D01*
X133774622Y-97526628D01*
X133714834Y-97657543D01*
X133694353Y-97800000D01*
X133714834Y-97942456D01*
X133752285Y-98024460D01*
X133774623Y-98073373D01*
X133868872Y-98182143D01*
X133868874Y-98182144D01*
X133868876Y-98182146D01*
X133968522Y-98246185D01*
X134014277Y-98298988D01*
X134024221Y-98368147D01*
X133995196Y-98431703D01*
X133936418Y-98469477D01*
X133901483Y-98474500D01*
X133322911Y-98474500D01*
X133255872Y-98454815D01*
X133235230Y-98438181D01*
X131106788Y-96309739D01*
X132399500Y-96309739D01*
X132399500Y-96890260D01*
X132402274Y-96919849D01*
X132445884Y-97044476D01*
X132524288Y-97150710D01*
X132524289Y-97150711D01*
X132630523Y-97229115D01*
X132630524Y-97229115D01*
X132630525Y-97229116D01*
X132755151Y-97272725D01*
X132755150Y-97272725D01*
X132784740Y-97275500D01*
X132784744Y-97275500D01*
X133390260Y-97275500D01*
X133419849Y-97272725D01*
X133439876Y-97265717D01*
X133544475Y-97229116D01*
X133650711Y-97150711D01*
X133729116Y-97044475D01*
X133772725Y-96919849D01*
X133775500Y-96890256D01*
X133775500Y-96309744D01*
X133774402Y-96298038D01*
X133772725Y-96280150D01*
X133729115Y-96155523D01*
X133650711Y-96049289D01*
X133650710Y-96049288D01*
X133544477Y-95970885D01*
X133544475Y-95970884D01*
X133523509Y-95963547D01*
X133471043Y-95945188D01*
X133414268Y-95904465D01*
X133388522Y-95839512D01*
X133388000Y-95828147D01*
X133388000Y-95275833D01*
X133407685Y-95208794D01*
X133424319Y-95188152D01*
X135663152Y-92949319D01*
X135724475Y-92915834D01*
X135750833Y-92913000D01*
X136941499Y-92913000D01*
X137008538Y-92932685D01*
X137035211Y-92955796D01*
X137068872Y-92994643D01*
X137189947Y-93072453D01*
X137189950Y-93072454D01*
X137189949Y-93072454D01*
X137328036Y-93112999D01*
X137328038Y-93113000D01*
X137328039Y-93113000D01*
X137471962Y-93113000D01*
X137471962Y-93112999D01*
X137610053Y-93072453D01*
X137731128Y-92994643D01*
X137825377Y-92885873D01*
X137885165Y-92754957D01*
X137903972Y-92624152D01*
X145275001Y-92624152D01*
X145285319Y-92725150D01*
X145339546Y-92888798D01*
X145339551Y-92888809D01*
X145430052Y-93035532D01*
X145430055Y-93035536D01*
X145551961Y-93157442D01*
X145551965Y-93157445D01*
X145654821Y-93220888D01*
X145701546Y-93272836D01*
X145712767Y-93341798D01*
X145689495Y-93400059D01*
X145620883Y-93493025D01*
X145577274Y-93617650D01*
X145574500Y-93647239D01*
X145574500Y-94352760D01*
X145577274Y-94382349D01*
X145620884Y-94506976D01*
X145699288Y-94613210D01*
X145699289Y-94613211D01*
X145805523Y-94691615D01*
X145805524Y-94691615D01*
X145805525Y-94691616D01*
X145930151Y-94735225D01*
X145930150Y-94735225D01*
X145959740Y-94738000D01*
X145959744Y-94738000D01*
X146261667Y-94738000D01*
X146328706Y-94757685D01*
X146349348Y-94774319D01*
X146460604Y-94885575D01*
X146494089Y-94946898D01*
X146495661Y-94990902D01*
X146494353Y-94999999D01*
X146514834Y-95142456D01*
X146520803Y-95155525D01*
X146574623Y-95273373D01*
X146668872Y-95382143D01*
X146789947Y-95459953D01*
X146789950Y-95459954D01*
X146789949Y-95459954D01*
X146928036Y-95500499D01*
X146928038Y-95500500D01*
X146928039Y-95500500D01*
X147071962Y-95500500D01*
X147071962Y-95500499D01*
X147210053Y-95459953D01*
X147331128Y-95382143D01*
X147425377Y-95273373D01*
X147485165Y-95142457D01*
X147505647Y-95000000D01*
X147504339Y-94990905D01*
X147514279Y-94921749D01*
X147539392Y-94885577D01*
X147548826Y-94876143D01*
X147610147Y-94842660D01*
X147672694Y-94846493D01*
X147672777Y-94846116D01*
X147675213Y-94846648D01*
X147677463Y-94846786D01*
X147680150Y-94847726D01*
X147709740Y-94850501D01*
X147709744Y-94850501D01*
X148290260Y-94850501D01*
X148319849Y-94847726D01*
X148324450Y-94846116D01*
X148444475Y-94804117D01*
X148550711Y-94725712D01*
X148629116Y-94619476D01*
X148672725Y-94494850D01*
X148673803Y-94483353D01*
X148675500Y-94465261D01*
X148675500Y-93759740D01*
X148672725Y-93730151D01*
X148629115Y-93605524D01*
X148560505Y-93512560D01*
X148536534Y-93446931D01*
X148551850Y-93378761D01*
X148595178Y-93333388D01*
X148698039Y-93269942D01*
X148819944Y-93148037D01*
X148819947Y-93148033D01*
X148910448Y-93001310D01*
X148910453Y-93001299D01*
X148964680Y-92837651D01*
X148974999Y-92736653D01*
X148975000Y-92736640D01*
X148975000Y-92637499D01*
X147019000Y-92637499D01*
X146951961Y-92617814D01*
X146906206Y-92565010D01*
X146898197Y-92528195D01*
X146895000Y-92524998D01*
X145275001Y-92524998D01*
X145275001Y-92624152D01*
X137903972Y-92624152D01*
X137905647Y-92612500D01*
X137885165Y-92470043D01*
X137825377Y-92339127D01*
X137731128Y-92230357D01*
X137610053Y-92152547D01*
X137610051Y-92152546D01*
X137610049Y-92152545D01*
X137610050Y-92152545D01*
X137471963Y-92112000D01*
X137471961Y-92112000D01*
X137328039Y-92112000D01*
X137328036Y-92112000D01*
X137189949Y-92152545D01*
X137068873Y-92230356D01*
X137035212Y-92269203D01*
X136976433Y-92306977D01*
X136941499Y-92312000D01*
X135535438Y-92312000D01*
X135497224Y-92322239D01*
X135459009Y-92332479D01*
X135459004Y-92332482D01*
X135390495Y-92372035D01*
X135390487Y-92372041D01*
X132847041Y-94915487D01*
X132847035Y-94915495D01*
X132807482Y-94984004D01*
X132807479Y-94984009D01*
X132793826Y-95034962D01*
X132789988Y-95049289D01*
X132787000Y-95060439D01*
X132787000Y-95828147D01*
X132767315Y-95895186D01*
X132714511Y-95940941D01*
X132703957Y-95945188D01*
X132630522Y-95970885D01*
X132524289Y-96049288D01*
X132524288Y-96049289D01*
X132445884Y-96155523D01*
X132402274Y-96280150D01*
X132399500Y-96309739D01*
X131106788Y-96309739D01*
X128486587Y-93689537D01*
X128486586Y-93689536D01*
X128486585Y-93689535D01*
X128446029Y-93666120D01*
X128412363Y-93646682D01*
X128370969Y-93635591D01*
X128329576Y-93624500D01*
X128329575Y-93624500D01*
X128236838Y-93624500D01*
X128169799Y-93604815D01*
X128143127Y-93581704D01*
X128131128Y-93567857D01*
X128010053Y-93490047D01*
X128010051Y-93490046D01*
X128010049Y-93490045D01*
X128010050Y-93490045D01*
X127871963Y-93449500D01*
X127871961Y-93449500D01*
X127728039Y-93449500D01*
X127728036Y-93449500D01*
X127589949Y-93490045D01*
X127468873Y-93567856D01*
X127374623Y-93676626D01*
X127374622Y-93676628D01*
X127314834Y-93807543D01*
X127294353Y-93950000D01*
X127314834Y-94092456D01*
X127326877Y-94118825D01*
X127374623Y-94223373D01*
X127468872Y-94332143D01*
X127589947Y-94409953D01*
X127589950Y-94409954D01*
X127589949Y-94409954D01*
X127728036Y-94450499D01*
X127728038Y-94450500D01*
X127728039Y-94450500D01*
X127871962Y-94450500D01*
X127871962Y-94450499D01*
X128010050Y-94409954D01*
X128010051Y-94409954D01*
X128010053Y-94409953D01*
X128094191Y-94355880D01*
X128161229Y-94336196D01*
X128228269Y-94355880D01*
X128248911Y-94372515D01*
X130479974Y-96603578D01*
X131300273Y-97423876D01*
X131333758Y-97485199D01*
X131328774Y-97554891D01*
X131286902Y-97610824D01*
X131221438Y-97635241D01*
X131177658Y-97630534D01*
X131071964Y-97599500D01*
X131071961Y-97599500D01*
X130928039Y-97599500D01*
X130928036Y-97599500D01*
X130789949Y-97640045D01*
X130668873Y-97717856D01*
X130574623Y-97826626D01*
X130574622Y-97826628D01*
X130514834Y-97957543D01*
X130493091Y-98108778D01*
X130490126Y-98108351D01*
X130474668Y-98160996D01*
X130458034Y-98181638D01*
X130181492Y-98458181D01*
X130120169Y-98491666D01*
X130093811Y-98494500D01*
X128947147Y-98494500D01*
X128864362Y-98516682D01*
X128864355Y-98516685D01*
X128790144Y-98559530D01*
X128790136Y-98559536D01*
X128024912Y-99324760D01*
X127963589Y-99358245D01*
X127893897Y-99353261D01*
X127837964Y-99311389D01*
X127813547Y-99245925D01*
X127818571Y-99201083D01*
X127822604Y-99187787D01*
X127835300Y-99145934D01*
X127855583Y-98940000D01*
X127835300Y-98734066D01*
X127775232Y-98536046D01*
X127677685Y-98353550D01*
X127625702Y-98290209D01*
X127546410Y-98193589D01*
X127386452Y-98062317D01*
X127386453Y-98062317D01*
X127386450Y-98062315D01*
X127203954Y-97964768D01*
X127005934Y-97904700D01*
X127005932Y-97904699D01*
X127005934Y-97904699D01*
X126800000Y-97884417D01*
X126594067Y-97904699D01*
X126396043Y-97964769D01*
X126285898Y-98023643D01*
X126213550Y-98062315D01*
X126213548Y-98062316D01*
X126213547Y-98062317D01*
X126053589Y-98193589D01*
X125939300Y-98332853D01*
X125922315Y-98353550D01*
X125900733Y-98393927D01*
X125824769Y-98536043D01*
X125764699Y-98734067D01*
X125744417Y-98940000D01*
X124984849Y-98940000D01*
X124987579Y-95530247D01*
X125749500Y-95530247D01*
X125749500Y-97269752D01*
X125761131Y-97328229D01*
X125761132Y-97328230D01*
X125805447Y-97394552D01*
X125871769Y-97438867D01*
X125871770Y-97438868D01*
X125930247Y-97450499D01*
X125930250Y-97450500D01*
X125930252Y-97450500D01*
X127669750Y-97450500D01*
X127669751Y-97450499D01*
X127684568Y-97447552D01*
X127728229Y-97438868D01*
X127728229Y-97438867D01*
X127728231Y-97438867D01*
X127794552Y-97394552D01*
X127838867Y-97328231D01*
X127838867Y-97328229D01*
X127838868Y-97328229D01*
X127850499Y-97269752D01*
X127850500Y-97269750D01*
X127850500Y-95530249D01*
X127850499Y-95530247D01*
X127838868Y-95471770D01*
X127838867Y-95471769D01*
X127794552Y-95405447D01*
X127728230Y-95361132D01*
X127728229Y-95361131D01*
X127669752Y-95349500D01*
X127669748Y-95349500D01*
X125930252Y-95349500D01*
X125930247Y-95349500D01*
X125871770Y-95361131D01*
X125871769Y-95361132D01*
X125805447Y-95405447D01*
X125761132Y-95471769D01*
X125761131Y-95471770D01*
X125749500Y-95530247D01*
X124987579Y-95530247D01*
X124990465Y-91925843D01*
X145275000Y-91925843D01*
X145275000Y-92024998D01*
X146000000Y-92024998D01*
X146500000Y-92024998D01*
X147231000Y-92024998D01*
X147298039Y-92044683D01*
X147343794Y-92097487D01*
X147351802Y-92134301D01*
X147355000Y-92137499D01*
X147750000Y-92137499D01*
X148250000Y-92137499D01*
X148974999Y-92137499D01*
X148974999Y-92038359D01*
X148974998Y-92038344D01*
X148964680Y-91937346D01*
X148910453Y-91773698D01*
X148910448Y-91773687D01*
X148819947Y-91626964D01*
X148819944Y-91626960D01*
X148698038Y-91505054D01*
X148698034Y-91505051D01*
X148551311Y-91414550D01*
X148551300Y-91414545D01*
X148387652Y-91360318D01*
X148286654Y-91349999D01*
X148250000Y-91349999D01*
X148250000Y-92137499D01*
X147750000Y-92137499D01*
X147750000Y-91349999D01*
X147713361Y-91349999D01*
X147713343Y-91350000D01*
X147612347Y-91360318D01*
X147448699Y-91414545D01*
X147448688Y-91414550D01*
X147301965Y-91505051D01*
X147301961Y-91505054D01*
X147265760Y-91541255D01*
X147204437Y-91574740D01*
X147134745Y-91569754D01*
X147078812Y-91527882D01*
X147072540Y-91518668D01*
X147069943Y-91514458D01*
X146948038Y-91392553D01*
X146948034Y-91392550D01*
X146801311Y-91302049D01*
X146801300Y-91302044D01*
X146637652Y-91247817D01*
X146536654Y-91237498D01*
X146500000Y-91237498D01*
X146500000Y-92024998D01*
X146000000Y-92024998D01*
X146000000Y-91237498D01*
X145963361Y-91237498D01*
X145963343Y-91237499D01*
X145862347Y-91247817D01*
X145698699Y-91302044D01*
X145698688Y-91302049D01*
X145551965Y-91392550D01*
X145551961Y-91392553D01*
X145430055Y-91514459D01*
X145430052Y-91514463D01*
X145339551Y-91661186D01*
X145339546Y-91661197D01*
X145285319Y-91824845D01*
X145275000Y-91925843D01*
X124990465Y-91925843D01*
X124996546Y-84332522D01*
X125016284Y-84265502D01*
X125069125Y-84219789D01*
X125120289Y-84208625D01*
X134210000Y-84190000D01*
X134226867Y-77038421D01*
X134246710Y-76971429D01*
X134299622Y-76925798D01*
X134350867Y-76914714D01*
X148076739Y-76914714D01*
X148143778Y-76934399D01*
G37*
%TD.AperFunction*%
%TD*%
M02*
