%TF.GenerationSoftware,KiCad,Pcbnew,8.0.8-2.fc41*%
%TF.CreationDate,2025-02-20T20:02:19-05:00*%
%TF.ProjectId,OS-41,4f532d34-312e-46b6-9963-61645f706362,rev?*%
%TF.SameCoordinates,Original*%
%TF.FileFunction,Copper,L2,Inr*%
%TF.FilePolarity,Positive*%
%FSLAX46Y46*%
G04 Gerber Fmt 4.6, Leading zero omitted, Abs format (unit mm)*
G04 Created by KiCad (PCBNEW 8.0.8-2.fc41) date 2025-02-20 20:02:19*
%MOMM*%
%LPD*%
G01*
G04 APERTURE LIST*
%TA.AperFunction,ComponentPad*%
%ADD10C,2.050000*%
%TD*%
%TA.AperFunction,ComponentPad*%
%ADD11C,2.250000*%
%TD*%
%TA.AperFunction,ComponentPad*%
%ADD12R,1.700000X1.700000*%
%TD*%
%TA.AperFunction,ComponentPad*%
%ADD13O,1.700000X1.700000*%
%TD*%
%TA.AperFunction,ComponentPad*%
%ADD14O,1.300000X2.200000*%
%TD*%
%TA.AperFunction,ComponentPad*%
%ADD15C,1.250000*%
%TD*%
%TA.AperFunction,ComponentPad*%
%ADD16R,1.500000X1.050000*%
%TD*%
%TA.AperFunction,ComponentPad*%
%ADD17O,1.500000X1.050000*%
%TD*%
%TA.AperFunction,ViaPad*%
%ADD18C,0.600000*%
%TD*%
%TA.AperFunction,Conductor*%
%ADD19C,0.200000*%
%TD*%
%TA.AperFunction,Conductor*%
%ADD20C,0.300000*%
%TD*%
%TA.AperFunction,Conductor*%
%ADD21C,0.250000*%
%TD*%
G04 APERTURE END LIST*
D10*
%TO.N,Net-(J4-In)*%
%TO.C,J4*%
X98100000Y-123850000D03*
D11*
%TO.N,GND*%
X95560000Y-121310000D03*
X95560000Y-126390000D03*
X100640000Y-121310000D03*
X100640000Y-126390000D03*
%TD*%
D12*
%TO.N,GND*%
%TO.C,J7*%
X96000000Y-97520001D03*
D13*
%TO.N,VCC*%
X96000000Y-100060001D03*
%TO.N,GPIO10*%
X96000000Y-102600000D03*
%TO.N,GPIO11*%
X96000000Y-105140001D03*
%TO.N,GPIO12*%
X96000000Y-107680001D03*
%TO.N,GPIO13*%
X96000000Y-110220001D03*
%TO.N,GPIO14*%
X96000000Y-112760001D03*
%TO.N,GPIO15*%
X96000000Y-115300002D03*
%TO.N,GPIO27_ADC1*%
X96000000Y-117840001D03*
%TD*%
D12*
%TO.N,GPS_ANT*%
%TO.C,J5*%
X135400000Y-87800000D03*
D13*
%TO.N,GND*%
X132860000Y-87800000D03*
%TD*%
D14*
%TO.N,GND*%
%TO.C,J6*%
X116019998Y-88500000D03*
D15*
X114839998Y-91300000D03*
X110000000Y-91300000D03*
D14*
X108820000Y-88500000D03*
%TD*%
D12*
%TO.N,VCC*%
%TO.C,J2*%
X129850000Y-126150000D03*
D13*
%TO.N,GND*%
X132390000Y-126150000D03*
%TD*%
D12*
%TO.N,BATT*%
%TO.C,J3*%
X136000000Y-114860000D03*
D13*
%TO.N,GND*%
X136000000Y-117400000D03*
%TD*%
D12*
%TO.N,VCC*%
%TO.C,J1*%
X136025000Y-121500000D03*
D13*
%TO.N,GND*%
X136025000Y-124040000D03*
%TD*%
D16*
%TO.N,GND*%
%TO.C,U5*%
X135700000Y-105200000D03*
D17*
%TO.N,DQ*%
X135700000Y-103929999D03*
%TO.N,VCC*%
X135700000Y-102660000D03*
%TD*%
D18*
%TO.N,GND*%
X122280000Y-91030000D03*
X106290000Y-87410000D03*
X121875000Y-121325000D03*
X104400000Y-87500000D03*
X135500000Y-93000000D03*
X132700000Y-122090000D03*
X124450000Y-126775000D03*
X96500000Y-90000000D03*
X133500000Y-93000000D03*
X134500000Y-97000000D03*
X112400000Y-104548406D03*
X135500000Y-95000000D03*
X113800000Y-106400000D03*
X118800000Y-100000000D03*
X136500000Y-97000000D03*
X132500000Y-94000000D03*
X116300000Y-115800000D03*
X98100000Y-126290000D03*
X122014385Y-101985615D03*
X117200000Y-89400000D03*
X135500000Y-97000000D03*
X134620000Y-112330000D03*
X127500000Y-87000000D03*
X123480000Y-112070000D03*
X129500000Y-89000000D03*
X127120000Y-119250000D03*
X98160000Y-120650000D03*
X136500000Y-96000000D03*
X129840000Y-122440000D03*
X122530000Y-87750000D03*
X119500000Y-98600000D03*
X115538470Y-117660924D03*
X105800000Y-118200000D03*
X108500000Y-96000000D03*
X127500000Y-95000000D03*
X130500000Y-93000000D03*
X117620000Y-123410000D03*
X120200000Y-106200000D03*
X99230000Y-105390000D03*
X110830000Y-88640000D03*
X129500000Y-97000000D03*
X129500000Y-87000000D03*
X123200000Y-100600000D03*
X136500000Y-95000000D03*
X121000000Y-103200000D03*
X100370000Y-118320000D03*
X100770000Y-114480000D03*
X120710000Y-94850000D03*
X119260000Y-124280000D03*
X127540000Y-112980000D03*
X115940000Y-95120000D03*
X130500000Y-97000000D03*
X134800000Y-126410000D03*
X133850000Y-104690000D03*
X111705302Y-116906648D03*
X125800000Y-103500000D03*
X129500000Y-96000000D03*
X102300000Y-96490000D03*
X134500000Y-96000000D03*
X117144435Y-96708835D03*
X120200000Y-109400000D03*
X130500000Y-88000000D03*
X102400000Y-106000000D03*
X122600000Y-99600000D03*
X128500000Y-88000000D03*
X99790000Y-106540000D03*
X134500000Y-98000000D03*
X124400000Y-108060000D03*
X133500000Y-96000000D03*
X114120000Y-88880000D03*
X102500000Y-116700000D03*
X107900000Y-93770000D03*
X130500000Y-89000000D03*
X107910000Y-117720000D03*
X135500000Y-98000000D03*
X136500000Y-98000000D03*
X132500000Y-95000000D03*
X107600000Y-101090000D03*
X134440000Y-119830000D03*
X128300000Y-119720000D03*
X135500000Y-94000000D03*
X110870000Y-87720000D03*
X128500000Y-122800000D03*
X95130000Y-90950000D03*
X120400000Y-110200000D03*
X102400000Y-87500000D03*
X127500000Y-96000000D03*
X119600000Y-113200000D03*
X130500000Y-87000000D03*
X129500000Y-98000000D03*
X127500000Y-88000000D03*
X105340000Y-100000000D03*
X123360000Y-118570000D03*
X118890000Y-127270000D03*
X134010000Y-111330000D03*
X101800000Y-107200000D03*
X117650000Y-125140000D03*
X128500000Y-97000000D03*
X111200000Y-118700000D03*
X116800000Y-92000000D03*
X117330000Y-127220000D03*
X102600000Y-108200000D03*
X112910000Y-87810000D03*
X133810000Y-112950000D03*
X107530000Y-91420000D03*
X127500000Y-94000000D03*
X133500000Y-97000000D03*
X106590000Y-100500000D03*
X128500000Y-89000000D03*
X131500000Y-94000000D03*
X135960000Y-126220000D03*
X94200000Y-93200000D03*
X111200000Y-92600000D03*
X131220000Y-122380000D03*
X119400000Y-114000000D03*
X130600000Y-102800000D03*
X103787502Y-104308002D03*
X104600000Y-116800000D03*
X128500000Y-87000000D03*
X106630000Y-89330000D03*
X125330000Y-107620000D03*
X134500000Y-95000000D03*
X127500000Y-97000000D03*
X128500000Y-98000000D03*
X133500000Y-98000000D03*
X129500000Y-88000000D03*
X103166765Y-100883234D03*
X94200000Y-89400000D03*
X132500000Y-93000000D03*
X133500000Y-94000000D03*
X128500000Y-95000000D03*
X134500000Y-94000000D03*
X133500000Y-95000000D03*
X135500000Y-96000000D03*
X128500000Y-96000000D03*
X125760000Y-127350000D03*
X102300000Y-94790000D03*
X136500000Y-94000000D03*
X119175000Y-125150000D03*
X128200000Y-114400000D03*
X110600000Y-93400000D03*
X121630000Y-95520000D03*
X127500000Y-98000000D03*
X131590000Y-102450000D03*
X133400000Y-124500000D03*
X134500000Y-93000000D03*
X103400000Y-88400000D03*
X127500000Y-89000000D03*
X130500000Y-98000000D03*
X109600000Y-95200000D03*
X115100000Y-94550000D03*
X132600000Y-103100000D03*
X119400000Y-106800000D03*
X95420000Y-123840000D03*
X118475000Y-124295000D03*
X106672794Y-96927206D03*
X94400000Y-87600000D03*
X131500000Y-93000000D03*
X136710000Y-127290000D03*
X105240000Y-98930000D03*
X112000000Y-118700000D03*
X129710000Y-121370000D03*
X136500000Y-93000000D03*
X127450000Y-123774994D03*
%TO.N,VCC*%
X114925000Y-120575002D03*
X99400000Y-103200000D03*
X128440000Y-125016370D03*
X130100000Y-109200000D03*
X111600000Y-102200000D03*
X135500000Y-111000000D03*
X98800000Y-96920001D03*
X116209999Y-121860001D03*
X108300000Y-103800000D03*
X125900000Y-108200000D03*
X105000000Y-105000000D03*
X116700000Y-111200000D03*
X121185120Y-102004880D03*
X121135002Y-125400000D03*
X111715606Y-109250216D03*
X114600000Y-102600000D03*
X116500000Y-117500000D03*
X107173770Y-107543135D03*
%TO.N,BATT*%
X115875000Y-105990175D03*
X128800000Y-111300000D03*
%TO.N,1V1*%
X111550000Y-104300000D03*
X114300000Y-111800000D03*
%TO.N,SDI*%
X116275000Y-109800000D03*
X121200000Y-123475000D03*
%TO.N,SCLK*%
X120312132Y-122640785D03*
X115475000Y-110525000D03*
%TO.N,SDO*%
X115150000Y-111850000D03*
X121331812Y-124317976D03*
%TO.N,NSEL*%
X119992732Y-121896724D03*
X108912911Y-106490321D03*
%TO.N,NIRQ*%
X119240000Y-121590000D03*
X109125000Y-108725000D03*
%TO.N,SDN*%
X106325000Y-108700000D03*
X117471300Y-120445464D03*
%TO.N,GPIO15*%
X109816094Y-109141255D03*
%TO.N,GPIO13*%
X108168122Y-110847254D03*
%TO.N,GPIO12*%
X108173339Y-109952542D03*
%TO.N,GPIO11*%
X105475000Y-109546004D03*
%TO.N,GPIO14*%
X107805284Y-112500000D03*
%TO.N,GPIO10*%
X106869159Y-109302990D03*
%TO.N,GPIO27_ADC1*%
X116000000Y-105200000D03*
%TO.N,USB_BOOT*%
X121470000Y-109190000D03*
X97830000Y-92040000D03*
%TO.N,DQ*%
X133000000Y-103900000D03*
X117400000Y-105200000D03*
%TO.N,LED_ERR*%
X107039883Y-112145627D03*
X108913914Y-107291827D03*
%TO.N,RESET*%
X102400000Y-109038589D03*
X99600000Y-117600000D03*
X113201359Y-109197404D03*
%TO.N,QSPI_SS*%
X98100000Y-101060000D03*
X97660000Y-96660000D03*
%TO.N,TXD*%
X128415565Y-102080597D03*
X109500000Y-104548406D03*
%TO.N,RXD*%
X110185836Y-104136544D03*
X129500000Y-102050000D03*
%TO.N,SCL*%
X121400000Y-106400000D03*
X116475000Y-108400000D03*
X121765177Y-103433467D03*
%TO.N,SDA*%
X122600000Y-107400000D03*
X117337499Y-109000000D03*
%TO.N,Net-(D3-A)*%
X120300000Y-116900000D03*
X127600000Y-110800000D03*
%TO.N,Net-(U6-CSB)*%
X124344853Y-106555147D03*
X125650000Y-101750000D03*
%TD*%
D19*
%TO.N,GND*%
X116019998Y-90120000D02*
X116019998Y-88500000D01*
X121875000Y-121325000D02*
X121981715Y-121431715D01*
X105800000Y-118000000D02*
X105800000Y-118200000D01*
X112000000Y-118700000D02*
X111200000Y-118700000D01*
X103400000Y-88400000D02*
X103800000Y-88400000D01*
X121981715Y-124306715D02*
X124450000Y-126775000D01*
X103166765Y-100883234D02*
X103600000Y-101316469D01*
X103800000Y-88400000D02*
X103900000Y-88500000D01*
X102600000Y-108200000D02*
X102600000Y-108000000D01*
D20*
X131190000Y-127350000D02*
X132390000Y-126150000D01*
D19*
X122600000Y-99600000D02*
X122600000Y-100000000D01*
X110600000Y-93200000D02*
X111200000Y-92600000D01*
D20*
X127450000Y-126150000D02*
X128650000Y-127350000D01*
D19*
X119500000Y-99300000D02*
X118800000Y-100000000D01*
D20*
X127450000Y-123775000D02*
X127450000Y-123774994D01*
D19*
X121981715Y-121431715D02*
X121981715Y-124306715D01*
X103787502Y-104612498D02*
X103787502Y-104308002D01*
X112000000Y-118700000D02*
X112000000Y-117201346D01*
X119500000Y-98600000D02*
X119500000Y-99300000D01*
X103600000Y-101316469D02*
X103600000Y-104024996D01*
X119600000Y-113200000D02*
X119600000Y-113800000D01*
D21*
X137275000Y-122790000D02*
X136025000Y-124040000D01*
D19*
X116300000Y-115800000D02*
X115538470Y-116561530D01*
X103787502Y-104212498D02*
X103787502Y-104308002D01*
X106672794Y-99445046D02*
X105234606Y-100883234D01*
X115538470Y-116561530D02*
X115538470Y-117660924D01*
X120200000Y-110000000D02*
X120400000Y-110200000D01*
X103600000Y-104024996D02*
X103787502Y-104212498D01*
X102400000Y-106000000D02*
X103787502Y-104612498D01*
X116800000Y-92000000D02*
X116800000Y-96364400D01*
X122014385Y-102185615D02*
X121000000Y-103200000D01*
D21*
X137275000Y-118675000D02*
X137275000Y-122790000D01*
D19*
X120200000Y-106200000D02*
X120000000Y-106200000D01*
D21*
X136000000Y-117400000D02*
X137275000Y-118675000D01*
D20*
X127450000Y-123775000D02*
X127450000Y-126150000D01*
D19*
X110000000Y-91300000D02*
X110000000Y-92800000D01*
X110000000Y-91300000D02*
X114839998Y-91300000D01*
X110000000Y-92800000D02*
X110600000Y-93400000D01*
X104600000Y-116800000D02*
X105800000Y-118000000D01*
D20*
X132390000Y-126150000D02*
X133915000Y-126150000D01*
D19*
X116800000Y-96364400D02*
X117144435Y-96708835D01*
X119600000Y-113800000D02*
X119400000Y-114000000D01*
X105234606Y-100883234D02*
X103166765Y-100883234D01*
X120200000Y-109400000D02*
X120200000Y-110000000D01*
X106672794Y-96927206D02*
X106672794Y-99445046D01*
D20*
X128650000Y-127350000D02*
X131190000Y-127350000D01*
D19*
X110600000Y-93400000D02*
X110600000Y-93200000D01*
X114839998Y-91300000D02*
X116019998Y-90120000D01*
D20*
X124450000Y-126775000D02*
X127450000Y-123775000D01*
X133915000Y-126150000D02*
X136025000Y-124040000D01*
D19*
X102600000Y-108000000D02*
X101800000Y-107200000D01*
X116019998Y-88500000D02*
X116300000Y-88500000D01*
X112000000Y-117201346D02*
X111705302Y-116906648D01*
X108820000Y-88500000D02*
X108820000Y-90120000D01*
X122600000Y-100000000D02*
X123200000Y-100600000D01*
X103900000Y-88500000D02*
X108820000Y-88500000D01*
X120000000Y-106200000D02*
X119400000Y-106800000D01*
X122014385Y-101985615D02*
X122014385Y-102185615D01*
X108820000Y-90120000D02*
X110000000Y-91300000D01*
X116300000Y-88500000D02*
X117200000Y-89400000D01*
%TO.N,VCC*%
X98460001Y-100060001D02*
X99400000Y-101000000D01*
D20*
X129850000Y-126150000D02*
X134500000Y-121500000D01*
D19*
X135500000Y-111000000D02*
X134650000Y-110150000D01*
D20*
X134500000Y-121500000D02*
X136025000Y-121500000D01*
D19*
X99400000Y-101000000D02*
X99400000Y-103200000D01*
X134650000Y-110150000D02*
X134650000Y-102950000D01*
X98800000Y-96920001D02*
X98800000Y-99720002D01*
X98800000Y-99720002D02*
X98460001Y-100060001D01*
X96000000Y-100060001D02*
X98460001Y-100060001D01*
X134940000Y-102660000D02*
X135700000Y-102660000D01*
X134650000Y-102950000D02*
X134940000Y-102660000D01*
%TO.N,SDI*%
X121200000Y-123475000D02*
X121200000Y-116825000D01*
X121200000Y-116825000D02*
X117700000Y-113325000D01*
X117700000Y-113325000D02*
X117700000Y-111225000D01*
X117700000Y-111225000D02*
X116275000Y-109800000D01*
%TO.N,SCLK*%
X120642732Y-122310185D02*
X120312132Y-122640785D01*
X117300000Y-112648529D02*
X117300000Y-118284753D01*
X115475000Y-110525000D02*
X115475000Y-110823529D01*
X120642732Y-121627485D02*
X120642732Y-122310185D01*
X117300000Y-118284753D02*
X120642732Y-121627485D01*
X115475000Y-110823529D02*
X117300000Y-112648529D01*
%TO.N,SDO*%
X114900000Y-118793404D02*
X114900000Y-112100000D01*
X120424572Y-124317976D02*
X114900000Y-118793404D01*
X114900000Y-112100000D02*
X115150000Y-111850000D01*
X121331812Y-124317976D02*
X120424572Y-124317976D01*
%TO.N,GPIO27_ADC1*%
X108530761Y-105200000D02*
X116000000Y-105200000D01*
X96000000Y-117730761D02*
X108530761Y-105200000D01*
X96000000Y-117840001D02*
X96000000Y-117730761D01*
%TO.N,DQ*%
X119200000Y-105300000D02*
X117500000Y-105300000D01*
X117500000Y-105300000D02*
X117400000Y-105200000D01*
X133000000Y-103900000D02*
X127200000Y-103900000D01*
X127200000Y-103900000D02*
X126600000Y-104500000D01*
X126600000Y-104500000D02*
X120000000Y-104500000D01*
X120000000Y-104500000D02*
X119200000Y-105300000D01*
%TO.N,LED_ERR*%
X107039883Y-110051547D02*
X107039883Y-112145627D01*
X108475000Y-108455761D02*
X108475000Y-108616430D01*
X108855761Y-107349980D02*
X108855761Y-108075000D01*
X108913914Y-107291827D02*
X108855761Y-107349980D01*
X108855761Y-108075000D02*
X108475000Y-108455761D01*
X108475000Y-108616430D02*
X107039883Y-110051547D01*
%TO.N,SCL*%
X121400000Y-106400000D02*
X119400000Y-108400000D01*
X119400000Y-108400000D02*
X116475000Y-108400000D01*
%TO.N,SDA*%
X117537499Y-108800000D02*
X117337499Y-109000000D01*
X120940761Y-108800000D02*
X117537499Y-108800000D01*
X122340761Y-107400000D02*
X120940761Y-108800000D01*
X122600000Y-107400000D02*
X122340761Y-107400000D01*
%TD*%
%TA.AperFunction,Conductor*%
%TO.N,GND*%
G36*
X137354846Y-85929973D02*
G01*
X137401589Y-85981905D01*
X137409561Y-86003441D01*
X137433609Y-86093190D01*
X137433610Y-86093191D01*
X137472886Y-86161217D01*
X137489500Y-86223218D01*
X137489500Y-113656538D01*
X137469815Y-113723577D01*
X137417011Y-113769332D01*
X137347853Y-113779276D01*
X137284297Y-113750251D01*
X137266234Y-113730850D01*
X137210603Y-113656538D01*
X137207546Y-113652454D01*
X137207544Y-113652453D01*
X137207544Y-113652452D01*
X137092335Y-113566206D01*
X137092328Y-113566202D01*
X136957482Y-113515908D01*
X136957483Y-113515908D01*
X136897883Y-113509501D01*
X136897881Y-113509500D01*
X136897873Y-113509500D01*
X136897864Y-113509500D01*
X135102129Y-113509500D01*
X135102123Y-113509501D01*
X135042516Y-113515908D01*
X134907671Y-113566202D01*
X134907664Y-113566206D01*
X134792455Y-113652452D01*
X134792452Y-113652455D01*
X134706206Y-113767664D01*
X134706202Y-113767671D01*
X134655908Y-113902517D01*
X134649501Y-113962116D01*
X134649500Y-113962135D01*
X134649500Y-115757870D01*
X134649501Y-115757876D01*
X134655908Y-115817483D01*
X134706202Y-115952328D01*
X134706206Y-115952335D01*
X134792452Y-116067544D01*
X134792455Y-116067547D01*
X134907664Y-116153793D01*
X134907671Y-116153797D01*
X134969902Y-116177007D01*
X135039598Y-116203002D01*
X135095531Y-116244873D01*
X135119949Y-116310337D01*
X135105098Y-116378610D01*
X135083947Y-116406865D01*
X134961886Y-116528926D01*
X134826400Y-116722420D01*
X134826399Y-116722422D01*
X134726570Y-116936507D01*
X134726567Y-116936513D01*
X134669364Y-117149999D01*
X134669364Y-117150000D01*
X135566988Y-117150000D01*
X135534075Y-117207007D01*
X135500000Y-117334174D01*
X135500000Y-117465826D01*
X135534075Y-117592993D01*
X135566988Y-117650000D01*
X134669364Y-117650000D01*
X134726567Y-117863486D01*
X134726570Y-117863492D01*
X134826399Y-118077578D01*
X134961894Y-118271082D01*
X135128917Y-118438105D01*
X135322421Y-118573600D01*
X135536507Y-118673429D01*
X135536516Y-118673433D01*
X135750000Y-118730634D01*
X135750000Y-117833012D01*
X135807007Y-117865925D01*
X135934174Y-117900000D01*
X136065826Y-117900000D01*
X136192993Y-117865925D01*
X136250000Y-117833012D01*
X136250000Y-118730633D01*
X136463483Y-118673433D01*
X136463492Y-118673429D01*
X136677578Y-118573600D01*
X136871082Y-118438105D01*
X137038105Y-118271082D01*
X137173599Y-118077578D01*
X137253118Y-117907051D01*
X137299290Y-117854612D01*
X137366484Y-117835460D01*
X137433365Y-117855676D01*
X137478699Y-117908841D01*
X137489500Y-117959456D01*
X137489500Y-120263143D01*
X137469815Y-120330182D01*
X137417011Y-120375937D01*
X137347853Y-120385881D01*
X137284297Y-120356856D01*
X137266234Y-120337455D01*
X137238424Y-120300306D01*
X137232546Y-120292454D01*
X137232544Y-120292453D01*
X137232544Y-120292452D01*
X137117335Y-120206206D01*
X137117328Y-120206202D01*
X136982482Y-120155908D01*
X136982483Y-120155908D01*
X136922883Y-120149501D01*
X136922881Y-120149500D01*
X136922873Y-120149500D01*
X136922864Y-120149500D01*
X135127129Y-120149500D01*
X135127123Y-120149501D01*
X135067516Y-120155908D01*
X134932671Y-120206202D01*
X134932664Y-120206206D01*
X134817455Y-120292452D01*
X134817452Y-120292455D01*
X134731206Y-120407664D01*
X134731202Y-120407671D01*
X134680908Y-120542517D01*
X134674501Y-120602116D01*
X134674500Y-120602135D01*
X134674500Y-120725500D01*
X134654815Y-120792539D01*
X134602011Y-120838294D01*
X134550500Y-120849500D01*
X134435929Y-120849500D01*
X134310261Y-120874497D01*
X134310255Y-120874499D01*
X134191874Y-120923534D01*
X134085326Y-120994726D01*
X134085325Y-120994727D01*
X130316872Y-124763181D01*
X130255549Y-124796666D01*
X130229191Y-124799500D01*
X129300189Y-124799500D01*
X129233150Y-124779815D01*
X129187395Y-124727011D01*
X129183147Y-124716454D01*
X129165789Y-124666848D01*
X129157131Y-124653069D01*
X129069816Y-124514108D01*
X128942262Y-124386554D01*
X128890028Y-124353733D01*
X128789523Y-124290581D01*
X128619254Y-124231001D01*
X128619249Y-124231000D01*
X128440004Y-124210805D01*
X128439996Y-124210805D01*
X128260750Y-124231000D01*
X128260745Y-124231001D01*
X128090476Y-124290581D01*
X127989972Y-124353733D01*
X127935062Y-124369249D01*
X127918643Y-124405203D01*
X127912611Y-124411681D01*
X127810184Y-124514107D01*
X127714211Y-124666846D01*
X127654631Y-124837115D01*
X127654630Y-124837120D01*
X127634435Y-125016366D01*
X127634435Y-125016373D01*
X127654630Y-125195619D01*
X127654631Y-125195624D01*
X127714211Y-125365893D01*
X127755685Y-125431898D01*
X127810184Y-125518632D01*
X127937738Y-125646186D01*
X128001918Y-125686513D01*
X128054330Y-125719446D01*
X128090478Y-125742159D01*
X128260745Y-125801738D01*
X128260750Y-125801739D01*
X128389383Y-125816232D01*
X128453797Y-125843298D01*
X128493352Y-125900893D01*
X128499500Y-125939452D01*
X128499500Y-127047870D01*
X128499501Y-127047876D01*
X128505908Y-127107483D01*
X128556202Y-127242328D01*
X128556206Y-127242335D01*
X128642452Y-127357544D01*
X128642455Y-127357547D01*
X128757664Y-127443793D01*
X128757671Y-127443797D01*
X128892517Y-127494091D01*
X128892516Y-127494091D01*
X128899444Y-127494835D01*
X128952127Y-127500500D01*
X130747872Y-127500499D01*
X130807483Y-127494091D01*
X130942331Y-127443796D01*
X131057546Y-127357546D01*
X131143796Y-127242331D01*
X131144666Y-127240000D01*
X131164021Y-127188105D01*
X131193002Y-127110401D01*
X131234872Y-127054468D01*
X131300337Y-127030050D01*
X131368610Y-127044901D01*
X131396865Y-127066053D01*
X131518917Y-127188105D01*
X131712421Y-127323600D01*
X131926507Y-127423429D01*
X131926516Y-127423433D01*
X132140000Y-127480634D01*
X132140000Y-126583012D01*
X132197007Y-126615925D01*
X132324174Y-126650000D01*
X132455826Y-126650000D01*
X132582993Y-126615925D01*
X132640000Y-126583012D01*
X132640000Y-127480633D01*
X132853483Y-127423433D01*
X132853492Y-127423429D01*
X133067578Y-127323600D01*
X133261082Y-127188105D01*
X133428105Y-127021082D01*
X133563600Y-126827578D01*
X133663429Y-126613492D01*
X133663432Y-126613486D01*
X133720636Y-126400000D01*
X132823012Y-126400000D01*
X132855925Y-126342993D01*
X132890000Y-126215826D01*
X132890000Y-126084174D01*
X132855925Y-125957007D01*
X132823012Y-125900000D01*
X133720636Y-125900000D01*
X133720635Y-125899999D01*
X133663432Y-125686513D01*
X133663429Y-125686507D01*
X133563600Y-125472422D01*
X133563599Y-125472420D01*
X133428113Y-125278926D01*
X133428108Y-125278920D01*
X133261082Y-125111894D01*
X133067578Y-124976399D01*
X132853492Y-124876570D01*
X132853486Y-124876567D01*
X132640000Y-124819364D01*
X132640000Y-125716988D01*
X132582993Y-125684075D01*
X132455826Y-125650000D01*
X132324174Y-125650000D01*
X132197007Y-125684075D01*
X132140000Y-125716988D01*
X132140000Y-124831306D01*
X132159685Y-124764267D01*
X132176314Y-124743630D01*
X134485133Y-122434811D01*
X134546454Y-122401328D01*
X134616146Y-122406312D01*
X134672079Y-122448184D01*
X134688994Y-122479161D01*
X134731202Y-122592328D01*
X134731206Y-122592335D01*
X134817452Y-122707544D01*
X134817455Y-122707547D01*
X134932664Y-122793793D01*
X134932671Y-122793797D01*
X134932674Y-122793798D01*
X135064598Y-122843002D01*
X135120531Y-122884873D01*
X135144949Y-122950337D01*
X135130098Y-123018610D01*
X135108947Y-123046865D01*
X134986886Y-123168926D01*
X134851400Y-123362420D01*
X134851399Y-123362422D01*
X134751570Y-123576507D01*
X134751567Y-123576513D01*
X134694364Y-123789999D01*
X134694364Y-123790000D01*
X135591988Y-123790000D01*
X135559075Y-123847007D01*
X135525000Y-123974174D01*
X135525000Y-124105826D01*
X135559075Y-124232993D01*
X135591988Y-124290000D01*
X134694364Y-124290000D01*
X134751567Y-124503486D01*
X134751570Y-124503492D01*
X134851399Y-124717578D01*
X134986894Y-124911082D01*
X135153917Y-125078105D01*
X135347421Y-125213600D01*
X135561507Y-125313429D01*
X135561516Y-125313433D01*
X135775000Y-125370634D01*
X135775000Y-124473012D01*
X135832007Y-124505925D01*
X135959174Y-124540000D01*
X136090826Y-124540000D01*
X136217993Y-124505925D01*
X136275000Y-124473012D01*
X136275000Y-125370633D01*
X136488483Y-125313433D01*
X136488492Y-125313429D01*
X136702578Y-125213600D01*
X136896082Y-125078105D01*
X137063105Y-124911082D01*
X137198600Y-124717578D01*
X137253118Y-124600664D01*
X137299290Y-124548225D01*
X137366484Y-124529073D01*
X137433365Y-124549289D01*
X137478699Y-124602454D01*
X137489500Y-124653069D01*
X137489500Y-127443038D01*
X137488720Y-127456923D01*
X137478540Y-127547264D01*
X137472362Y-127574333D01*
X137444648Y-127653537D01*
X137432600Y-127678555D01*
X137387957Y-127749604D01*
X137370644Y-127771313D01*
X137311313Y-127830644D01*
X137289604Y-127847957D01*
X137218555Y-127892600D01*
X137193537Y-127904648D01*
X137114333Y-127932362D01*
X137087264Y-127938540D01*
X137007075Y-127947576D01*
X136996921Y-127948720D01*
X136983038Y-127949500D01*
X116649000Y-127949500D01*
X116581961Y-127929815D01*
X116536206Y-127877011D01*
X116525000Y-127825500D01*
X116525000Y-122676013D01*
X116544685Y-122608974D01*
X116583026Y-122571020D01*
X116712261Y-122489817D01*
X116839815Y-122362263D01*
X116935788Y-122209523D01*
X116995367Y-122039256D01*
X116997042Y-122024383D01*
X117024107Y-121959970D01*
X117081701Y-121920413D01*
X117151538Y-121918274D01*
X117207944Y-121950584D01*
X120055856Y-124798496D01*
X120055858Y-124798497D01*
X120055862Y-124798500D01*
X120122755Y-124837120D01*
X120192788Y-124877553D01*
X120316898Y-124910809D01*
X120376555Y-124947172D01*
X120407084Y-125010019D01*
X120401843Y-125071536D01*
X120349634Y-125220742D01*
X120349632Y-125220750D01*
X120329437Y-125399996D01*
X120329437Y-125400003D01*
X120349632Y-125579249D01*
X120349633Y-125579254D01*
X120409213Y-125749523D01*
X120503764Y-125899999D01*
X120505186Y-125902262D01*
X120632740Y-126029816D01*
X120785480Y-126125789D01*
X120955747Y-126185368D01*
X120955752Y-126185369D01*
X121134998Y-126205565D01*
X121135002Y-126205565D01*
X121135006Y-126205565D01*
X121314251Y-126185369D01*
X121314254Y-126185368D01*
X121314257Y-126185368D01*
X121484524Y-126125789D01*
X121637264Y-126029816D01*
X121764818Y-125902262D01*
X121860791Y-125749522D01*
X121920370Y-125579255D01*
X121932407Y-125472422D01*
X121940567Y-125400003D01*
X121940567Y-125399996D01*
X121920371Y-125220750D01*
X121920368Y-125220737D01*
X121860791Y-125050478D01*
X121857771Y-125044206D01*
X121860168Y-125043051D01*
X121844467Y-124987523D01*
X121864823Y-124920684D01*
X121880771Y-124901094D01*
X121961628Y-124820238D01*
X122057601Y-124667498D01*
X122117180Y-124497231D01*
X122127549Y-124405203D01*
X122137377Y-124317979D01*
X122137377Y-124317972D01*
X122124085Y-124200000D01*
X122600000Y-124200000D01*
X127800000Y-124200000D01*
X127800000Y-120000000D01*
X122600000Y-120000000D01*
X122600000Y-124200000D01*
X122124085Y-124200000D01*
X122117181Y-124138726D01*
X122117180Y-124138721D01*
X122108001Y-124112489D01*
X122057601Y-123968454D01*
X121972357Y-123832790D01*
X121953358Y-123765555D01*
X121960309Y-123725869D01*
X121985368Y-123654255D01*
X121997152Y-123549668D01*
X122005565Y-123475003D01*
X122005565Y-123474996D01*
X121985369Y-123295750D01*
X121985368Y-123295745D01*
X121925788Y-123125476D01*
X121829813Y-122972734D01*
X121827550Y-122969896D01*
X121826659Y-122967715D01*
X121826111Y-122966842D01*
X121826264Y-122966745D01*
X121801144Y-122905209D01*
X121800500Y-122892587D01*
X121800500Y-116745945D01*
X121800500Y-116745943D01*
X121759577Y-116593216D01*
X121746174Y-116570001D01*
X121680524Y-116456290D01*
X121680521Y-116456286D01*
X121680520Y-116456284D01*
X121568716Y-116344480D01*
X121568715Y-116344479D01*
X121564385Y-116340149D01*
X121564374Y-116340139D01*
X118336819Y-113112584D01*
X118303334Y-113051261D01*
X118300500Y-113024903D01*
X118300500Y-111145945D01*
X118300500Y-111145943D01*
X118259577Y-110993216D01*
X118251513Y-110979249D01*
X118180524Y-110856290D01*
X118180521Y-110856286D01*
X118180520Y-110856284D01*
X118124232Y-110799996D01*
X126794435Y-110799996D01*
X126794435Y-110800003D01*
X126814630Y-110979249D01*
X126814631Y-110979254D01*
X126874211Y-111149523D01*
X126903903Y-111196777D01*
X126970184Y-111302262D01*
X127097738Y-111429816D01*
X127250478Y-111525789D01*
X127420739Y-111585366D01*
X127420745Y-111585368D01*
X127420750Y-111585369D01*
X127599996Y-111605565D01*
X127600000Y-111605565D01*
X127600004Y-111605565D01*
X127779249Y-111585369D01*
X127779251Y-111585368D01*
X127779255Y-111585368D01*
X127779258Y-111585366D01*
X127779262Y-111585366D01*
X127904994Y-111541370D01*
X127974772Y-111537807D01*
X128035400Y-111572536D01*
X128062990Y-111617455D01*
X128074211Y-111649523D01*
X128074212Y-111649524D01*
X128119442Y-111721507D01*
X128170184Y-111802262D01*
X128297738Y-111929816D01*
X128450478Y-112025789D01*
X128611606Y-112082170D01*
X128620745Y-112085368D01*
X128620750Y-112085369D01*
X128799996Y-112105565D01*
X128800000Y-112105565D01*
X128800004Y-112105565D01*
X128979249Y-112085369D01*
X128979252Y-112085368D01*
X128979255Y-112085368D01*
X129149522Y-112025789D01*
X129302262Y-111929816D01*
X129429816Y-111802262D01*
X129525789Y-111649522D01*
X129585368Y-111479255D01*
X129585369Y-111479249D01*
X129605565Y-111300003D01*
X129605565Y-111299996D01*
X129585369Y-111120750D01*
X129585368Y-111120745D01*
X129569085Y-111074211D01*
X129525789Y-110950478D01*
X129520706Y-110942389D01*
X129431237Y-110800000D01*
X129429816Y-110797738D01*
X129302262Y-110670184D01*
X129239139Y-110630521D01*
X129149523Y-110574211D01*
X128979254Y-110514631D01*
X128979249Y-110514630D01*
X128800004Y-110494435D01*
X128799996Y-110494435D01*
X128620750Y-110514630D01*
X128620745Y-110514631D01*
X128495006Y-110558630D01*
X128425227Y-110562191D01*
X128364599Y-110527462D01*
X128337009Y-110482543D01*
X128327514Y-110455409D01*
X128325789Y-110450478D01*
X128295821Y-110402785D01*
X128250950Y-110331373D01*
X128229816Y-110297738D01*
X128102262Y-110170184D01*
X128055189Y-110140606D01*
X127949523Y-110074211D01*
X127779254Y-110014631D01*
X127779249Y-110014630D01*
X127600004Y-109994435D01*
X127599996Y-109994435D01*
X127420750Y-110014630D01*
X127420745Y-110014631D01*
X127250476Y-110074211D01*
X127097737Y-110170184D01*
X126970184Y-110297737D01*
X126874211Y-110450476D01*
X126814631Y-110620745D01*
X126814630Y-110620750D01*
X126794435Y-110799996D01*
X118124232Y-110799996D01*
X118068716Y-110744480D01*
X118068715Y-110744479D01*
X118064385Y-110740149D01*
X118064374Y-110740139D01*
X117332904Y-110008669D01*
X117299419Y-109947346D01*
X117304403Y-109877654D01*
X117346275Y-109821721D01*
X117406702Y-109797768D01*
X117516748Y-109785369D01*
X117516751Y-109785368D01*
X117516754Y-109785368D01*
X117687021Y-109725789D01*
X117839761Y-109629816D01*
X117967315Y-109502262D01*
X117979075Y-109483546D01*
X117994796Y-109458527D01*
X118047130Y-109412237D01*
X118099789Y-109400500D01*
X120607582Y-109400500D01*
X120674621Y-109420185D01*
X120720376Y-109472989D01*
X120724624Y-109483546D01*
X120744210Y-109539521D01*
X120802368Y-109632079D01*
X120840184Y-109692262D01*
X120967738Y-109819816D01*
X120983653Y-109829816D01*
X121097361Y-109901264D01*
X121120478Y-109915789D01*
X121182762Y-109937583D01*
X121290745Y-109975368D01*
X121290750Y-109975369D01*
X121469996Y-109995565D01*
X121470000Y-109995565D01*
X121470004Y-109995565D01*
X121649249Y-109975369D01*
X121649252Y-109975368D01*
X121649255Y-109975368D01*
X121819522Y-109915789D01*
X121972262Y-109819816D01*
X122099816Y-109692262D01*
X122195789Y-109539522D01*
X122255368Y-109369255D01*
X122255369Y-109369249D01*
X122274439Y-109199996D01*
X129294435Y-109199996D01*
X129294435Y-109200003D01*
X129314630Y-109379249D01*
X129314631Y-109379254D01*
X129374211Y-109549523D01*
X129463901Y-109692262D01*
X129470184Y-109702262D01*
X129597738Y-109829816D01*
X129656986Y-109867044D01*
X129734561Y-109915788D01*
X129750478Y-109925789D01*
X129893984Y-109976004D01*
X129920745Y-109985368D01*
X129920750Y-109985369D01*
X130099996Y-110005565D01*
X130100000Y-110005565D01*
X130100004Y-110005565D01*
X130279249Y-109985369D01*
X130279252Y-109985368D01*
X130279255Y-109985368D01*
X130449522Y-109925789D01*
X130602262Y-109829816D01*
X130729816Y-109702262D01*
X130825789Y-109549522D01*
X130885368Y-109379255D01*
X130885369Y-109379249D01*
X130905565Y-109200003D01*
X130905565Y-109199996D01*
X130885369Y-109020750D01*
X130885368Y-109020745D01*
X130864812Y-108962000D01*
X130825789Y-108850478D01*
X130819504Y-108840476D01*
X130786582Y-108788080D01*
X130729816Y-108697738D01*
X130602262Y-108570184D01*
X130449523Y-108474211D01*
X130279254Y-108414631D01*
X130279249Y-108414630D01*
X130100004Y-108394435D01*
X130099996Y-108394435D01*
X129920750Y-108414630D01*
X129920745Y-108414631D01*
X129750476Y-108474211D01*
X129597737Y-108570184D01*
X129470184Y-108697737D01*
X129374211Y-108850476D01*
X129314631Y-109020745D01*
X129314630Y-109020750D01*
X129294435Y-109199996D01*
X122274439Y-109199996D01*
X122275565Y-109190003D01*
X122275565Y-109189996D01*
X122255369Y-109010750D01*
X122255368Y-109010745D01*
X122226240Y-108927501D01*
X122195789Y-108840478D01*
X122165160Y-108791733D01*
X122119144Y-108718499D01*
X122099816Y-108687738D01*
X122088717Y-108676639D01*
X122055232Y-108615316D01*
X122060216Y-108545624D01*
X122088713Y-108501281D01*
X122364035Y-108225959D01*
X122425356Y-108192476D01*
X122465597Y-108190422D01*
X122599996Y-108205565D01*
X122600000Y-108205565D01*
X122600004Y-108205565D01*
X122649430Y-108199996D01*
X125094435Y-108199996D01*
X125094435Y-108200003D01*
X125114630Y-108379249D01*
X125114631Y-108379254D01*
X125174211Y-108549523D01*
X125230429Y-108638992D01*
X125270184Y-108702262D01*
X125397738Y-108829816D01*
X125488080Y-108886582D01*
X125510539Y-108900694D01*
X125550478Y-108925789D01*
X125683973Y-108972501D01*
X125720745Y-108985368D01*
X125720750Y-108985369D01*
X125899996Y-109005565D01*
X125900000Y-109005565D01*
X125900004Y-109005565D01*
X126079249Y-108985369D01*
X126079252Y-108985368D01*
X126079255Y-108985368D01*
X126249522Y-108925789D01*
X126402262Y-108829816D01*
X126529816Y-108702262D01*
X126625789Y-108549522D01*
X126685368Y-108379255D01*
X126687042Y-108364398D01*
X126705565Y-108200003D01*
X126705565Y-108199996D01*
X126685369Y-108020750D01*
X126685368Y-108020745D01*
X126648509Y-107915409D01*
X126625789Y-107850478D01*
X126617203Y-107836814D01*
X126576758Y-107772445D01*
X126529816Y-107697738D01*
X126402262Y-107570184D01*
X126359214Y-107543135D01*
X126249523Y-107474211D01*
X126079254Y-107414631D01*
X126079249Y-107414630D01*
X125900004Y-107394435D01*
X125899996Y-107394435D01*
X125720750Y-107414630D01*
X125720745Y-107414631D01*
X125550476Y-107474211D01*
X125397737Y-107570184D01*
X125270184Y-107697737D01*
X125174211Y-107850476D01*
X125114631Y-108020745D01*
X125114630Y-108020750D01*
X125094435Y-108199996D01*
X122649430Y-108199996D01*
X122779249Y-108185369D01*
X122779252Y-108185368D01*
X122779255Y-108185368D01*
X122949522Y-108125789D01*
X123102262Y-108029816D01*
X123229816Y-107902262D01*
X123325789Y-107749522D01*
X123385368Y-107579255D01*
X123397556Y-107471082D01*
X123405565Y-107400003D01*
X123405565Y-107399996D01*
X123385369Y-107220750D01*
X123385368Y-107220745D01*
X123347518Y-107112577D01*
X123325789Y-107050478D01*
X123229816Y-106897738D01*
X123102262Y-106770184D01*
X123069379Y-106749522D01*
X122949523Y-106674211D01*
X122779254Y-106614631D01*
X122779249Y-106614630D01*
X122600004Y-106594435D01*
X122599996Y-106594435D01*
X122420750Y-106614630D01*
X122420742Y-106614632D01*
X122357827Y-106636647D01*
X122288048Y-106640208D01*
X122227421Y-106605479D01*
X122201254Y-106555143D01*
X123539288Y-106555143D01*
X123539288Y-106555150D01*
X123559483Y-106734396D01*
X123559484Y-106734401D01*
X123619064Y-106904670D01*
X123642712Y-106942305D01*
X123715037Y-107057409D01*
X123842591Y-107184963D01*
X123995331Y-107280936D01*
X124165598Y-107340515D01*
X124165603Y-107340516D01*
X124344849Y-107360712D01*
X124344853Y-107360712D01*
X124344857Y-107360712D01*
X124524102Y-107340516D01*
X124524105Y-107340515D01*
X124524108Y-107340515D01*
X124694375Y-107280936D01*
X124847115Y-107184963D01*
X124974669Y-107057409D01*
X125070642Y-106904669D01*
X125130221Y-106734402D01*
X125130222Y-106734396D01*
X125150418Y-106555150D01*
X125150418Y-106555143D01*
X125130222Y-106375897D01*
X125130221Y-106375892D01*
X125081343Y-106236206D01*
X125070642Y-106205625D01*
X125053594Y-106178494D01*
X125029908Y-106140797D01*
X124974669Y-106052885D01*
X124847115Y-105925331D01*
X124833613Y-105916847D01*
X124694376Y-105829358D01*
X124524107Y-105769778D01*
X124524102Y-105769777D01*
X124344857Y-105749582D01*
X124344849Y-105749582D01*
X124165603Y-105769777D01*
X124165598Y-105769778D01*
X123995329Y-105829358D01*
X123842590Y-105925331D01*
X123715037Y-106052884D01*
X123619064Y-106205623D01*
X123559484Y-106375892D01*
X123559483Y-106375897D01*
X123539288Y-106555143D01*
X122201254Y-106555143D01*
X122195194Y-106543485D01*
X122193653Y-106505721D01*
X122205565Y-106400002D01*
X122205565Y-106399996D01*
X122185369Y-106220750D01*
X122185368Y-106220745D01*
X122157393Y-106140797D01*
X122125789Y-106050478D01*
X122029816Y-105897738D01*
X121902262Y-105770184D01*
X121831608Y-105725789D01*
X121749523Y-105674211D01*
X121579254Y-105614631D01*
X121579249Y-105614630D01*
X121400004Y-105594435D01*
X121399996Y-105594435D01*
X121220750Y-105614630D01*
X121220745Y-105614631D01*
X121050476Y-105674211D01*
X120897737Y-105770184D01*
X120770184Y-105897737D01*
X120674210Y-106050478D01*
X120614630Y-106220750D01*
X120604837Y-106307668D01*
X120577770Y-106372082D01*
X120569298Y-106381465D01*
X119187584Y-107763181D01*
X119126261Y-107796666D01*
X119099903Y-107799500D01*
X117057412Y-107799500D01*
X116990373Y-107779815D01*
X116980097Y-107772445D01*
X116977263Y-107770185D01*
X116977262Y-107770184D01*
X116920496Y-107734515D01*
X116824523Y-107674211D01*
X116654254Y-107614631D01*
X116654249Y-107614630D01*
X116475004Y-107594435D01*
X116474996Y-107594435D01*
X116295750Y-107614630D01*
X116295745Y-107614631D01*
X116125476Y-107674211D01*
X115972737Y-107770184D01*
X115845184Y-107897737D01*
X115749211Y-108050476D01*
X115689631Y-108220745D01*
X115689630Y-108220750D01*
X115669435Y-108399996D01*
X115669435Y-108400003D01*
X115689630Y-108579249D01*
X115689631Y-108579254D01*
X115749211Y-108749523D01*
X115845184Y-108902262D01*
X115871816Y-108928894D01*
X115905301Y-108990217D01*
X115900317Y-109059909D01*
X115858445Y-109115842D01*
X115850108Y-109121568D01*
X115772740Y-109170182D01*
X115772737Y-109170184D01*
X115645184Y-109297737D01*
X115549210Y-109450478D01*
X115489629Y-109620752D01*
X115489627Y-109620779D01*
X115489620Y-109620795D01*
X115488080Y-109627541D01*
X115486898Y-109627271D01*
X115462555Y-109685191D01*
X115404957Y-109724741D01*
X115380292Y-109730105D01*
X115295749Y-109739630D01*
X115295745Y-109739631D01*
X115125476Y-109799211D01*
X114972737Y-109895184D01*
X114845184Y-110022737D01*
X114749211Y-110175476D01*
X114689631Y-110345745D01*
X114689630Y-110345750D01*
X114669435Y-110524996D01*
X114669435Y-110525003D01*
X114689630Y-110704249D01*
X114689631Y-110704254D01*
X114703707Y-110744480D01*
X114742831Y-110856290D01*
X114749212Y-110874524D01*
X114749606Y-110875152D01*
X114749737Y-110875617D01*
X114752231Y-110880795D01*
X114751323Y-110881231D01*
X114768602Y-110942389D01*
X114748232Y-111009224D01*
X114694962Y-111054435D01*
X114625705Y-111063670D01*
X114603654Y-111058161D01*
X114479254Y-111014631D01*
X114479249Y-111014630D01*
X114300004Y-110994435D01*
X114299996Y-110994435D01*
X114120750Y-111014630D01*
X114120745Y-111014631D01*
X113950476Y-111074211D01*
X113797737Y-111170184D01*
X113670184Y-111297737D01*
X113637646Y-111349522D01*
X113587195Y-111429815D01*
X113579556Y-111441972D01*
X113527221Y-111488263D01*
X113474562Y-111500000D01*
X108927744Y-111500000D01*
X108860705Y-111480315D01*
X108814950Y-111427511D01*
X108805006Y-111358353D01*
X108822750Y-111310028D01*
X108829051Y-111300000D01*
X108893911Y-111196776D01*
X108953490Y-111026509D01*
X108954389Y-111018533D01*
X108973687Y-110847257D01*
X108973687Y-110847250D01*
X108953491Y-110668004D01*
X108953490Y-110667999D01*
X108893910Y-110497729D01*
X108876500Y-110470022D01*
X108857499Y-110402785D01*
X108876500Y-110338076D01*
X108899127Y-110302066D01*
X108899128Y-110302064D01*
X108958707Y-110131797D01*
X108958841Y-110130607D01*
X108978904Y-109952545D01*
X108978904Y-109952538D01*
X108958708Y-109773292D01*
X108958705Y-109773279D01*
X108933713Y-109701857D01*
X108930150Y-109632079D01*
X108964879Y-109571451D01*
X109026872Y-109539223D01*
X109096448Y-109545628D01*
X109151516Y-109588631D01*
X109155747Y-109594929D01*
X109186275Y-109643513D01*
X109186276Y-109643515D01*
X109186278Y-109643517D01*
X109313832Y-109771071D01*
X109356320Y-109797768D01*
X109439290Y-109849902D01*
X109466572Y-109867044D01*
X109605877Y-109915789D01*
X109636839Y-109926623D01*
X109636844Y-109926624D01*
X109816090Y-109946820D01*
X109816094Y-109946820D01*
X109816098Y-109946820D01*
X109995343Y-109926624D01*
X109995346Y-109926623D01*
X109995349Y-109926623D01*
X110165616Y-109867044D01*
X110318356Y-109771071D01*
X110445910Y-109643517D01*
X110541883Y-109490777D01*
X110601462Y-109320510D01*
X110609383Y-109250212D01*
X110910041Y-109250212D01*
X110910041Y-109250219D01*
X110930236Y-109429465D01*
X110930237Y-109429470D01*
X110989817Y-109599739D01*
X111069020Y-109725789D01*
X111085790Y-109752478D01*
X111213344Y-109880032D01*
X111270251Y-109915789D01*
X111365071Y-109975369D01*
X111366084Y-109976005D01*
X111499639Y-110022738D01*
X111536351Y-110035584D01*
X111536356Y-110035585D01*
X111715602Y-110055781D01*
X111715606Y-110055781D01*
X111715610Y-110055781D01*
X111894855Y-110035585D01*
X111894858Y-110035584D01*
X111894861Y-110035584D01*
X112065128Y-109976005D01*
X112217868Y-109880032D01*
X112345422Y-109752478D01*
X112370654Y-109712321D01*
X112422985Y-109666033D01*
X112492039Y-109655383D01*
X112555888Y-109683758D01*
X112566579Y-109694781D01*
X112566619Y-109694742D01*
X112571543Y-109699666D01*
X112699097Y-109827220D01*
X112777144Y-109876260D01*
X112848421Y-109921047D01*
X112851837Y-109923193D01*
X113002762Y-109976004D01*
X113022104Y-109982772D01*
X113022109Y-109982773D01*
X113201355Y-110002969D01*
X113201359Y-110002969D01*
X113201363Y-110002969D01*
X113380608Y-109982773D01*
X113380611Y-109982772D01*
X113380614Y-109982772D01*
X113550881Y-109923193D01*
X113703621Y-109827220D01*
X113831175Y-109699666D01*
X113927148Y-109546926D01*
X113986727Y-109376659D01*
X113986728Y-109376653D01*
X114006924Y-109197407D01*
X114006924Y-109197400D01*
X113986728Y-109018154D01*
X113986727Y-109018149D01*
X113953475Y-108923121D01*
X113927148Y-108847882D01*
X113922494Y-108840476D01*
X113845848Y-108718494D01*
X113831175Y-108695142D01*
X113703621Y-108567588D01*
X113659814Y-108540062D01*
X113550882Y-108471615D01*
X113380613Y-108412035D01*
X113380608Y-108412034D01*
X113201363Y-108391839D01*
X113201355Y-108391839D01*
X113022109Y-108412034D01*
X113022104Y-108412035D01*
X112851835Y-108471615D01*
X112699096Y-108567588D01*
X112571543Y-108695141D01*
X112571541Y-108695144D01*
X112546311Y-108735297D01*
X112493976Y-108781588D01*
X112424922Y-108792235D01*
X112361074Y-108763859D01*
X112350385Y-108752838D01*
X112350346Y-108752878D01*
X112217868Y-108620400D01*
X112065129Y-108524427D01*
X111894860Y-108464847D01*
X111894855Y-108464846D01*
X111715610Y-108444651D01*
X111715602Y-108444651D01*
X111536356Y-108464846D01*
X111536351Y-108464847D01*
X111366082Y-108524427D01*
X111213343Y-108620400D01*
X111085790Y-108747953D01*
X110989817Y-108900692D01*
X110930237Y-109070961D01*
X110930236Y-109070966D01*
X110910041Y-109250212D01*
X110609383Y-109250212D01*
X110613030Y-109217843D01*
X110621659Y-109141258D01*
X110621659Y-109141251D01*
X110601463Y-108962005D01*
X110601462Y-108962000D01*
X110565539Y-108859339D01*
X110541883Y-108791733D01*
X110535508Y-108781588D01*
X110492282Y-108712793D01*
X110445910Y-108638993D01*
X110318356Y-108511439D01*
X110244207Y-108464848D01*
X110165615Y-108415465D01*
X110000916Y-108357835D01*
X109995349Y-108355887D01*
X109995348Y-108355886D01*
X109995343Y-108355885D01*
X109885866Y-108343550D01*
X109821452Y-108316483D01*
X109794756Y-108286302D01*
X109773969Y-108253220D01*
X109754816Y-108222738D01*
X109627262Y-108095184D01*
X109627260Y-108095182D01*
X109522711Y-108029489D01*
X109476421Y-107977154D01*
X109465773Y-107908101D01*
X109494148Y-107844253D01*
X109500992Y-107836826D01*
X109543730Y-107794089D01*
X109639703Y-107641349D01*
X109699282Y-107471082D01*
X109702267Y-107444593D01*
X109719479Y-107291830D01*
X109719479Y-107291823D01*
X109699283Y-107112577D01*
X109699282Y-107112572D01*
X109637403Y-106935732D01*
X109639015Y-106935167D01*
X109629084Y-106874912D01*
X109637353Y-106846749D01*
X109636400Y-106846416D01*
X109698277Y-106669583D01*
X109698280Y-106669570D01*
X109718476Y-106490324D01*
X109718476Y-106490317D01*
X109698280Y-106311071D01*
X109698279Y-106311066D01*
X109665922Y-106218596D01*
X109638700Y-106140799D01*
X109601873Y-106082190D01*
X109557394Y-106011402D01*
X109544242Y-105990471D01*
X109525243Y-105923236D01*
X109545611Y-105856400D01*
X109598878Y-105811186D01*
X109649237Y-105800500D01*
X114952050Y-105800500D01*
X115019089Y-105820185D01*
X115064844Y-105872989D01*
X115075270Y-105938383D01*
X115069435Y-105990171D01*
X115069435Y-105990178D01*
X115089630Y-106169424D01*
X115089631Y-106169429D01*
X115149211Y-106339698D01*
X115222917Y-106456999D01*
X115245184Y-106492437D01*
X115372738Y-106619991D01*
X115525478Y-106715964D01*
X115635719Y-106754539D01*
X115695745Y-106775543D01*
X115695750Y-106775544D01*
X115874996Y-106795740D01*
X115875000Y-106795740D01*
X115875004Y-106795740D01*
X116054249Y-106775544D01*
X116054252Y-106775543D01*
X116054255Y-106775543D01*
X116224522Y-106715964D01*
X116377262Y-106619991D01*
X116504816Y-106492437D01*
X116600789Y-106339697D01*
X116660368Y-106169430D01*
X116660369Y-106169424D01*
X116680565Y-105990178D01*
X116680565Y-105990172D01*
X116672303Y-105916847D01*
X116684357Y-105848025D01*
X116731706Y-105796645D01*
X116799316Y-105779021D01*
X116865722Y-105800747D01*
X116883204Y-105815282D01*
X116897738Y-105829816D01*
X116988080Y-105886582D01*
X117050474Y-105925787D01*
X117050478Y-105925789D01*
X117086470Y-105938383D01*
X117220745Y-105985368D01*
X117220750Y-105985369D01*
X117399996Y-106005565D01*
X117400000Y-106005565D01*
X117400004Y-106005565D01*
X117579249Y-105985369D01*
X117579252Y-105985368D01*
X117579255Y-105985368D01*
X117749522Y-105925789D01*
X117750488Y-105925181D01*
X117759523Y-105919506D01*
X117825494Y-105900500D01*
X119113331Y-105900500D01*
X119113347Y-105900501D01*
X119120943Y-105900501D01*
X119279054Y-105900501D01*
X119279057Y-105900501D01*
X119431785Y-105859577D01*
X119484125Y-105829358D01*
X119568716Y-105780520D01*
X119680520Y-105668716D01*
X119680520Y-105668714D01*
X119690724Y-105658511D01*
X119690727Y-105658506D01*
X120212416Y-105136819D01*
X120273739Y-105103334D01*
X120300097Y-105100500D01*
X126513331Y-105100500D01*
X126513347Y-105100501D01*
X126520943Y-105100501D01*
X126679054Y-105100501D01*
X126679057Y-105100501D01*
X126831785Y-105059577D01*
X126890307Y-105025789D01*
X126968716Y-104980520D01*
X127080520Y-104868716D01*
X127080520Y-104868714D01*
X127090721Y-104858514D01*
X127090724Y-104858509D01*
X127412417Y-104536816D01*
X127473739Y-104503334D01*
X127500097Y-104500500D01*
X132417588Y-104500500D01*
X132484627Y-104520185D01*
X132494903Y-104527555D01*
X132497736Y-104529814D01*
X132497738Y-104529816D01*
X132650478Y-104625789D01*
X132806093Y-104680241D01*
X132820745Y-104685368D01*
X132820750Y-104685369D01*
X132999996Y-104705565D01*
X133000000Y-104705565D01*
X133000004Y-104705565D01*
X133179249Y-104685369D01*
X133179252Y-104685368D01*
X133179255Y-104685368D01*
X133349522Y-104625789D01*
X133502262Y-104529816D01*
X133629816Y-104402262D01*
X133725789Y-104249522D01*
X133785368Y-104079255D01*
X133785369Y-104079249D01*
X133802280Y-103929159D01*
X133813425Y-103902633D01*
X133811667Y-103899897D01*
X134036891Y-103899897D01*
X134047640Y-103921648D01*
X134049500Y-103943042D01*
X134049500Y-110063330D01*
X134049499Y-110063348D01*
X134049499Y-110229054D01*
X134049498Y-110229054D01*
X134090423Y-110381785D01*
X134112637Y-110420259D01*
X134112638Y-110420263D01*
X134112639Y-110420263D01*
X134169479Y-110518714D01*
X134169481Y-110518717D01*
X134288349Y-110637585D01*
X134288355Y-110637590D01*
X134669298Y-111018533D01*
X134702783Y-111079856D01*
X134704837Y-111092330D01*
X134714630Y-111179249D01*
X134774210Y-111349521D01*
X134848342Y-111467501D01*
X134870184Y-111502262D01*
X134997738Y-111629816D01*
X135029103Y-111649524D01*
X135143661Y-111721506D01*
X135150478Y-111725789D01*
X135288860Y-111774211D01*
X135320745Y-111785368D01*
X135320750Y-111785369D01*
X135499996Y-111805565D01*
X135500000Y-111805565D01*
X135500004Y-111805565D01*
X135679249Y-111785369D01*
X135679252Y-111785368D01*
X135679255Y-111785368D01*
X135849522Y-111725789D01*
X136002262Y-111629816D01*
X136129816Y-111502262D01*
X136225789Y-111349522D01*
X136285368Y-111179255D01*
X136289121Y-111145945D01*
X136305565Y-111000003D01*
X136305565Y-110999996D01*
X136285369Y-110820750D01*
X136285368Y-110820745D01*
X136278108Y-110799996D01*
X136225789Y-110650478D01*
X136207106Y-110620745D01*
X136177867Y-110574211D01*
X136129816Y-110497738D01*
X136002262Y-110370184D01*
X135849521Y-110274210D01*
X135679249Y-110214630D01*
X135592330Y-110204837D01*
X135527916Y-110177770D01*
X135518533Y-110169298D01*
X135286819Y-109937583D01*
X135253334Y-109876260D01*
X135250500Y-109849902D01*
X135250500Y-106349000D01*
X135270185Y-106281961D01*
X135322989Y-106236206D01*
X135374500Y-106225000D01*
X135450000Y-106225000D01*
X135450000Y-105480330D01*
X135469745Y-105500075D01*
X135555255Y-105549444D01*
X135650630Y-105575000D01*
X135749370Y-105575000D01*
X135844745Y-105549444D01*
X135930255Y-105500075D01*
X135950000Y-105480330D01*
X135950000Y-106225000D01*
X136497828Y-106225000D01*
X136497844Y-106224999D01*
X136557372Y-106218598D01*
X136557379Y-106218596D01*
X136692086Y-106168354D01*
X136692093Y-106168350D01*
X136807187Y-106082190D01*
X136807190Y-106082187D01*
X136893350Y-105967093D01*
X136893354Y-105967086D01*
X136943597Y-105832378D01*
X136943598Y-105832372D01*
X136949999Y-105772844D01*
X136950000Y-105772827D01*
X136950000Y-105450000D01*
X135980330Y-105450000D01*
X136000075Y-105430255D01*
X136049444Y-105344745D01*
X136075000Y-105249370D01*
X136075000Y-105150630D01*
X136049444Y-105055255D01*
X136000075Y-104969745D01*
X135985829Y-104955499D01*
X136026004Y-104955499D01*
X136026004Y-104955498D01*
X136039390Y-104952836D01*
X136041669Y-104952383D01*
X136065861Y-104950000D01*
X136950000Y-104950000D01*
X136950000Y-104627172D01*
X136949999Y-104627155D01*
X136943598Y-104567627D01*
X136943597Y-104567623D01*
X136893351Y-104432910D01*
X136892749Y-104432105D01*
X136892395Y-104431158D01*
X136889101Y-104425124D01*
X136889968Y-104424650D01*
X136868328Y-104366642D01*
X136877451Y-104310338D01*
X136911091Y-104229126D01*
X136950500Y-104031002D01*
X136950500Y-103828996D01*
X136911091Y-103630872D01*
X136833786Y-103444243D01*
X136780095Y-103363889D01*
X136759218Y-103297212D01*
X136777703Y-103229832D01*
X136780066Y-103226152D01*
X136833786Y-103145756D01*
X136911091Y-102959127D01*
X136950500Y-102761003D01*
X136950500Y-102558997D01*
X136911091Y-102360873D01*
X136833786Y-102174244D01*
X136833784Y-102174241D01*
X136833782Y-102174237D01*
X136721558Y-102006281D01*
X136578718Y-101863441D01*
X136410762Y-101751217D01*
X136410752Y-101751212D01*
X136224127Y-101673909D01*
X136224119Y-101673907D01*
X136026007Y-101634500D01*
X136026003Y-101634500D01*
X135373997Y-101634500D01*
X135373992Y-101634500D01*
X135175880Y-101673907D01*
X135175872Y-101673909D01*
X134989247Y-101751212D01*
X134989237Y-101751217D01*
X134821281Y-101863441D01*
X134678443Y-102006279D01*
X134566211Y-102174248D01*
X134563343Y-102179615D01*
X134561861Y-102178823D01*
X134541488Y-102209273D01*
X134459480Y-102291283D01*
X134459478Y-102291286D01*
X134169481Y-102581282D01*
X134169479Y-102581284D01*
X134148521Y-102617587D01*
X134138739Y-102634530D01*
X134112593Y-102679816D01*
X134094928Y-102710413D01*
X134090423Y-102718215D01*
X134049499Y-102870943D01*
X134049499Y-102870945D01*
X134049499Y-103039046D01*
X134049500Y-103039059D01*
X134049500Y-103856957D01*
X134036891Y-103899897D01*
X133811667Y-103899897D01*
X133806523Y-103891892D01*
X133802280Y-103870840D01*
X133785369Y-103720750D01*
X133785368Y-103720745D01*
X133784201Y-103717410D01*
X133725789Y-103550478D01*
X133725188Y-103549522D01*
X133662955Y-103450478D01*
X133629816Y-103397738D01*
X133502262Y-103270184D01*
X133476843Y-103254212D01*
X133349523Y-103174211D01*
X133179254Y-103114631D01*
X133179249Y-103114630D01*
X133000004Y-103094435D01*
X132999996Y-103094435D01*
X132820750Y-103114630D01*
X132820745Y-103114631D01*
X132650476Y-103174211D01*
X132497736Y-103270185D01*
X132494903Y-103272445D01*
X132492724Y-103273334D01*
X132491842Y-103273889D01*
X132491744Y-103273734D01*
X132430217Y-103298855D01*
X132417588Y-103299500D01*
X127279057Y-103299500D01*
X127120943Y-103299500D01*
X126968215Y-103340423D01*
X126968214Y-103340423D01*
X126968212Y-103340424D01*
X126968209Y-103340425D01*
X126933066Y-103360716D01*
X126933064Y-103360717D01*
X126831290Y-103419475D01*
X126831282Y-103419481D01*
X126756329Y-103494435D01*
X126719480Y-103531284D01*
X126719478Y-103531286D01*
X126548503Y-103702262D01*
X126387584Y-103863181D01*
X126326261Y-103896666D01*
X126299903Y-103899500D01*
X122624959Y-103899500D01*
X122557920Y-103879815D01*
X122512165Y-103827011D01*
X122502221Y-103757853D01*
X122507918Y-103734545D01*
X122550543Y-103612729D01*
X122550546Y-103612716D01*
X122570742Y-103433470D01*
X122570742Y-103433463D01*
X122550546Y-103254217D01*
X122550545Y-103254212D01*
X122521142Y-103170184D01*
X122490966Y-103083945D01*
X122394993Y-102931205D01*
X122267439Y-102803651D01*
X122263615Y-102801248D01*
X122114700Y-102707678D01*
X121944430Y-102648098D01*
X121936885Y-102647248D01*
X121872472Y-102620179D01*
X121832918Y-102562583D01*
X121830783Y-102492746D01*
X121845779Y-102458055D01*
X121910908Y-102354404D01*
X121943993Y-102259852D01*
X121970488Y-102184135D01*
X121970489Y-102184129D01*
X121990685Y-102004883D01*
X121990685Y-102004876D01*
X121970489Y-101825630D01*
X121970488Y-101825625D01*
X121956548Y-101785788D01*
X121944024Y-101749996D01*
X124844435Y-101749996D01*
X124844435Y-101750003D01*
X124864630Y-101929249D01*
X124864631Y-101929254D01*
X124924211Y-102099523D01*
X124987347Y-102200003D01*
X125020184Y-102252262D01*
X125147738Y-102379816D01*
X125212876Y-102420745D01*
X125272254Y-102458055D01*
X125300478Y-102475789D01*
X125390080Y-102507142D01*
X125470745Y-102535368D01*
X125470750Y-102535369D01*
X125649996Y-102555565D01*
X125650000Y-102555565D01*
X125650004Y-102555565D01*
X125829249Y-102535369D01*
X125829252Y-102535368D01*
X125829255Y-102535368D01*
X125999522Y-102475789D01*
X126152262Y-102379816D01*
X126279816Y-102252262D01*
X126375789Y-102099522D01*
X126382413Y-102080593D01*
X127610000Y-102080593D01*
X127610000Y-102080600D01*
X127630195Y-102259846D01*
X127630196Y-102259851D01*
X127689776Y-102430120D01*
X127768599Y-102555565D01*
X127785749Y-102582859D01*
X127913303Y-102710413D01*
X127993818Y-102761004D01*
X128041710Y-102791097D01*
X128066043Y-102806386D01*
X128192045Y-102850476D01*
X128236310Y-102865965D01*
X128236315Y-102865966D01*
X128415561Y-102886162D01*
X128415565Y-102886162D01*
X128415569Y-102886162D01*
X128594814Y-102865966D01*
X128594817Y-102865965D01*
X128594820Y-102865965D01*
X128765087Y-102806386D01*
X128790771Y-102790248D01*
X128837307Y-102761007D01*
X128916158Y-102711461D01*
X128983393Y-102692461D01*
X129048100Y-102711460D01*
X129150478Y-102775789D01*
X129304878Y-102829816D01*
X129320745Y-102835368D01*
X129320750Y-102835369D01*
X129499996Y-102855565D01*
X129500000Y-102855565D01*
X129500004Y-102855565D01*
X129679249Y-102835369D01*
X129679252Y-102835368D01*
X129679255Y-102835368D01*
X129849522Y-102775789D01*
X130002262Y-102679816D01*
X130129816Y-102552262D01*
X130225789Y-102399522D01*
X130285368Y-102229255D01*
X130285369Y-102229249D01*
X130305565Y-102050003D01*
X130305565Y-102049996D01*
X130285369Y-101870750D01*
X130285368Y-101870745D01*
X130276488Y-101845368D01*
X130225789Y-101700478D01*
X130224067Y-101697738D01*
X130144272Y-101570745D01*
X130129816Y-101547738D01*
X130002262Y-101420184D01*
X129993426Y-101414632D01*
X129849523Y-101324211D01*
X129679254Y-101264631D01*
X129679249Y-101264630D01*
X129500004Y-101244435D01*
X129499996Y-101244435D01*
X129320750Y-101264630D01*
X129320745Y-101264631D01*
X129150476Y-101324211D01*
X128999407Y-101419135D01*
X128932170Y-101438135D01*
X128867463Y-101419135D01*
X128765088Y-101354808D01*
X128594819Y-101295228D01*
X128594814Y-101295227D01*
X128415569Y-101275032D01*
X128415561Y-101275032D01*
X128236315Y-101295227D01*
X128236310Y-101295228D01*
X128066041Y-101354808D01*
X127913302Y-101450781D01*
X127785749Y-101578334D01*
X127689776Y-101731073D01*
X127630196Y-101901342D01*
X127630195Y-101901347D01*
X127610000Y-102080593D01*
X126382413Y-102080593D01*
X126435368Y-101929255D01*
X126436166Y-101922171D01*
X126455565Y-101750003D01*
X126455565Y-101749996D01*
X126435369Y-101570750D01*
X126435368Y-101570745D01*
X126432135Y-101561505D01*
X126375789Y-101400478D01*
X126279816Y-101247738D01*
X126152262Y-101120184D01*
X126056472Y-101059995D01*
X125999523Y-101024211D01*
X125829254Y-100964631D01*
X125829249Y-100964630D01*
X125650004Y-100944435D01*
X125649996Y-100944435D01*
X125470750Y-100964630D01*
X125470745Y-100964631D01*
X125300476Y-101024211D01*
X125147737Y-101120184D01*
X125020184Y-101247737D01*
X124924211Y-101400476D01*
X124864631Y-101570745D01*
X124864630Y-101570750D01*
X124844435Y-101749996D01*
X121944024Y-101749996D01*
X121910909Y-101655358D01*
X121814936Y-101502618D01*
X121687382Y-101375064D01*
X121651472Y-101352500D01*
X121534643Y-101279091D01*
X121364374Y-101219511D01*
X121364369Y-101219510D01*
X121185124Y-101199315D01*
X121185116Y-101199315D01*
X121005870Y-101219510D01*
X121005865Y-101219511D01*
X120835596Y-101279091D01*
X120682857Y-101375064D01*
X120555304Y-101502617D01*
X120459331Y-101655356D01*
X120399751Y-101825625D01*
X120399750Y-101825630D01*
X120379555Y-102004876D01*
X120379555Y-102004883D01*
X120399750Y-102184129D01*
X120399751Y-102184134D01*
X120459331Y-102354403D01*
X120546258Y-102492746D01*
X120555304Y-102507142D01*
X120682858Y-102634696D01*
X120754666Y-102679816D01*
X120815777Y-102718215D01*
X120835598Y-102730669D01*
X121005865Y-102790248D01*
X121013405Y-102791097D01*
X121077818Y-102818162D01*
X121117375Y-102875756D01*
X121119515Y-102945592D01*
X121104518Y-102980290D01*
X121039388Y-103083943D01*
X120979808Y-103254212D01*
X120979807Y-103254217D01*
X120959612Y-103433463D01*
X120959612Y-103433470D01*
X120979807Y-103612716D01*
X120979810Y-103612729D01*
X121022436Y-103734545D01*
X121025998Y-103804324D01*
X120991270Y-103864951D01*
X120929276Y-103897179D01*
X120905395Y-103899500D01*
X120086669Y-103899500D01*
X120086653Y-103899499D01*
X120079057Y-103899499D01*
X119920943Y-103899499D01*
X119768215Y-103940423D01*
X119768214Y-103940423D01*
X119768212Y-103940424D01*
X119739004Y-103957288D01*
X119739003Y-103957289D01*
X119690368Y-103985368D01*
X119631285Y-104019479D01*
X119631282Y-104019481D01*
X119571515Y-104079249D01*
X119519480Y-104131284D01*
X119519478Y-104131286D01*
X119236133Y-104414632D01*
X118987584Y-104663181D01*
X118926261Y-104696666D01*
X118899903Y-104699500D01*
X118082941Y-104699500D01*
X118015902Y-104679815D01*
X117995260Y-104663182D01*
X117957866Y-104625788D01*
X117902262Y-104570184D01*
X117838014Y-104529814D01*
X117749523Y-104474211D01*
X117579254Y-104414631D01*
X117579249Y-104414630D01*
X117400004Y-104394435D01*
X117399996Y-104394435D01*
X117220750Y-104414630D01*
X117220745Y-104414631D01*
X117050476Y-104474211D01*
X116897737Y-104570184D01*
X116787681Y-104680241D01*
X116726358Y-104713726D01*
X116656666Y-104708742D01*
X116612319Y-104680241D01*
X116502262Y-104570184D01*
X116349523Y-104474211D01*
X116179254Y-104414631D01*
X116179249Y-104414630D01*
X116000004Y-104394435D01*
X115999996Y-104394435D01*
X115820750Y-104414630D01*
X115820745Y-104414631D01*
X115650476Y-104474211D01*
X115497736Y-104570185D01*
X115494903Y-104572445D01*
X115492724Y-104573334D01*
X115491842Y-104573889D01*
X115491744Y-104573734D01*
X115430217Y-104598855D01*
X115417588Y-104599500D01*
X112460576Y-104599500D01*
X112393537Y-104579815D01*
X112347782Y-104527011D01*
X112337356Y-104461617D01*
X112355565Y-104300003D01*
X112355565Y-104299996D01*
X112335369Y-104120750D01*
X112335368Y-104120745D01*
X112303966Y-104031003D01*
X112275789Y-103950478D01*
X112262393Y-103929159D01*
X112217026Y-103856957D01*
X112179816Y-103797738D01*
X112052262Y-103670184D01*
X112001834Y-103638498D01*
X111899523Y-103574211D01*
X111729254Y-103514631D01*
X111729249Y-103514630D01*
X111550004Y-103494435D01*
X111549996Y-103494435D01*
X111370750Y-103514630D01*
X111370745Y-103514631D01*
X111200476Y-103574211D01*
X111047737Y-103670184D01*
X111029009Y-103688912D01*
X110967686Y-103722396D01*
X110897994Y-103717410D01*
X110842061Y-103675537D01*
X110836336Y-103667201D01*
X110815651Y-103634281D01*
X110688098Y-103506728D01*
X110535359Y-103410755D01*
X110365090Y-103351175D01*
X110365085Y-103351174D01*
X110185840Y-103330979D01*
X110185832Y-103330979D01*
X110006586Y-103351174D01*
X110006581Y-103351175D01*
X109836312Y-103410755D01*
X109683573Y-103506728D01*
X109556021Y-103634280D01*
X109518648Y-103693758D01*
X109466312Y-103740048D01*
X109427539Y-103751004D01*
X109320748Y-103763036D01*
X109256484Y-103785523D01*
X109186705Y-103789084D01*
X109126078Y-103754354D01*
X109093852Y-103692360D01*
X109092311Y-103682364D01*
X109085369Y-103620749D01*
X109085368Y-103620745D01*
X109069085Y-103574211D01*
X109025789Y-103450478D01*
X109021871Y-103444243D01*
X108956637Y-103340423D01*
X108929816Y-103297738D01*
X108802262Y-103170184D01*
X108713852Y-103114632D01*
X108649523Y-103074211D01*
X108479254Y-103014631D01*
X108479249Y-103014630D01*
X108300004Y-102994435D01*
X108299996Y-102994435D01*
X108120750Y-103014630D01*
X108120745Y-103014631D01*
X107950476Y-103074211D01*
X107797737Y-103170184D01*
X107670184Y-103297737D01*
X107574211Y-103450476D01*
X107514631Y-103620745D01*
X107514630Y-103620750D01*
X107494435Y-103799996D01*
X107494435Y-103800003D01*
X107514630Y-103979249D01*
X107514631Y-103979254D01*
X107574211Y-104149523D01*
X107624232Y-104229130D01*
X107670184Y-104302262D01*
X107797738Y-104429816D01*
X107848349Y-104461617D01*
X107905833Y-104497737D01*
X107950478Y-104525789D01*
X108015114Y-104548406D01*
X108064417Y-104565658D01*
X108121193Y-104606380D01*
X108146940Y-104671333D01*
X108133484Y-104739895D01*
X108111144Y-104770381D01*
X108050241Y-104831284D01*
X108050239Y-104831286D01*
X103282458Y-109599066D01*
X103221135Y-109632551D01*
X103151443Y-109627567D01*
X103095510Y-109585695D01*
X103071093Y-109520231D01*
X103085945Y-109451958D01*
X103089784Y-109445412D01*
X103099805Y-109429465D01*
X103110776Y-109412003D01*
X103125788Y-109388113D01*
X103129796Y-109376659D01*
X103185368Y-109217844D01*
X103185369Y-109217838D01*
X103205565Y-109038592D01*
X103205565Y-109038585D01*
X103185369Y-108859339D01*
X103185368Y-108859334D01*
X103146394Y-108747953D01*
X103125789Y-108689067D01*
X103124953Y-108687737D01*
X103055496Y-108577197D01*
X103029816Y-108536327D01*
X102902262Y-108408773D01*
X102888300Y-108400000D01*
X102749523Y-108312800D01*
X102579254Y-108253220D01*
X102579249Y-108253219D01*
X102400004Y-108233024D01*
X102399996Y-108233024D01*
X102220750Y-108253219D01*
X102220745Y-108253220D01*
X102050476Y-108312800D01*
X101897737Y-108408773D01*
X101770184Y-108536326D01*
X101674211Y-108689065D01*
X101614631Y-108859334D01*
X101614630Y-108859339D01*
X101594435Y-109038585D01*
X101594435Y-109038592D01*
X101614630Y-109217838D01*
X101614631Y-109217843D01*
X101674211Y-109388112D01*
X101759909Y-109524498D01*
X101770184Y-109540851D01*
X101897738Y-109668405D01*
X101951621Y-109702262D01*
X102037693Y-109756345D01*
X102050478Y-109764378D01*
X102146939Y-109798131D01*
X102220745Y-109823957D01*
X102220750Y-109823958D01*
X102399996Y-109844154D01*
X102400000Y-109844154D01*
X102400004Y-109844154D01*
X102579249Y-109823958D01*
X102579252Y-109823957D01*
X102579255Y-109823957D01*
X102749522Y-109764378D01*
X102762307Y-109756345D01*
X102788905Y-109739632D01*
X102806824Y-109728372D01*
X102874059Y-109709372D01*
X102940895Y-109729739D01*
X102986109Y-109783006D01*
X102995348Y-109852263D01*
X102965677Y-109915519D01*
X102960477Y-109921047D01*
X97561862Y-115319662D01*
X97500539Y-115353147D01*
X97430847Y-115348163D01*
X97374914Y-115306291D01*
X97350653Y-115242788D01*
X97335063Y-115064599D01*
X97335063Y-115064598D01*
X97335063Y-115064594D01*
X97273903Y-114836339D01*
X97174035Y-114622173D01*
X97163452Y-114607058D01*
X97038494Y-114428599D01*
X96871402Y-114261508D01*
X96871401Y-114261507D01*
X96685840Y-114131576D01*
X96642216Y-114076999D01*
X96635023Y-114007500D01*
X96666545Y-113945146D01*
X96685837Y-113928429D01*
X96871401Y-113798496D01*
X97038495Y-113631402D01*
X97174035Y-113437831D01*
X97273903Y-113223664D01*
X97335063Y-112995409D01*
X97355659Y-112760001D01*
X97335063Y-112524593D01*
X97273903Y-112296338D01*
X97174035Y-112082172D01*
X97134556Y-112025789D01*
X97038494Y-111888598D01*
X96871402Y-111721507D01*
X96871396Y-111721502D01*
X96685842Y-111591576D01*
X96642217Y-111536999D01*
X96635023Y-111467501D01*
X96666546Y-111405146D01*
X96685842Y-111388426D01*
X96708026Y-111372892D01*
X96871401Y-111258496D01*
X97038495Y-111091402D01*
X97174035Y-110897831D01*
X97273903Y-110683664D01*
X97335063Y-110455409D01*
X97355659Y-110220001D01*
X97335063Y-109984593D01*
X97281682Y-109785369D01*
X97273905Y-109756345D01*
X97273904Y-109756344D01*
X97273903Y-109756338D01*
X97174035Y-109542172D01*
X97172181Y-109539523D01*
X97038494Y-109348598D01*
X96871402Y-109181507D01*
X96871396Y-109181502D01*
X96685842Y-109051576D01*
X96642217Y-108996999D01*
X96635023Y-108927501D01*
X96666546Y-108865146D01*
X96685842Y-108848426D01*
X96766808Y-108791733D01*
X96871401Y-108718496D01*
X97038495Y-108551402D01*
X97174035Y-108357831D01*
X97273903Y-108143664D01*
X97335063Y-107915409D01*
X97355659Y-107680001D01*
X97355152Y-107674211D01*
X97346845Y-107579255D01*
X97335063Y-107444593D01*
X97273903Y-107216338D01*
X97174035Y-107002172D01*
X97169938Y-106996320D01*
X97038494Y-106808598D01*
X96871402Y-106641507D01*
X96871396Y-106641502D01*
X96685842Y-106511576D01*
X96642217Y-106456999D01*
X96635023Y-106387501D01*
X96666546Y-106325146D01*
X96685842Y-106308426D01*
X96723638Y-106281961D01*
X96871401Y-106178496D01*
X97038495Y-106011402D01*
X97174035Y-105817831D01*
X97273903Y-105603664D01*
X97335063Y-105375409D01*
X97355659Y-105140001D01*
X97343410Y-104999996D01*
X104194435Y-104999996D01*
X104194435Y-105000003D01*
X104214630Y-105179249D01*
X104214631Y-105179254D01*
X104274211Y-105349523D01*
X104368810Y-105500075D01*
X104370184Y-105502262D01*
X104497738Y-105629816D01*
X104650478Y-105725789D01*
X104806890Y-105780520D01*
X104820745Y-105785368D01*
X104820750Y-105785369D01*
X104999996Y-105805565D01*
X105000000Y-105805565D01*
X105000004Y-105805565D01*
X105179249Y-105785369D01*
X105179252Y-105785368D01*
X105179255Y-105785368D01*
X105349522Y-105725789D01*
X105502262Y-105629816D01*
X105629816Y-105502262D01*
X105725789Y-105349522D01*
X105785368Y-105179255D01*
X105785369Y-105179249D01*
X105805565Y-105000003D01*
X105805565Y-104999996D01*
X105785369Y-104820750D01*
X105785368Y-104820745D01*
X105745065Y-104705565D01*
X105725789Y-104650478D01*
X105629816Y-104497738D01*
X105502262Y-104370184D01*
X105496625Y-104366642D01*
X105349523Y-104274211D01*
X105179254Y-104214631D01*
X105179249Y-104214630D01*
X105000004Y-104194435D01*
X104999996Y-104194435D01*
X104820750Y-104214630D01*
X104820745Y-104214631D01*
X104650476Y-104274211D01*
X104497737Y-104370184D01*
X104370184Y-104497737D01*
X104274211Y-104650476D01*
X104214631Y-104820745D01*
X104214630Y-104820750D01*
X104194435Y-104999996D01*
X97343410Y-104999996D01*
X97335063Y-104904593D01*
X97273903Y-104676338D01*
X97174035Y-104462172D01*
X97173647Y-104461617D01*
X97038494Y-104268598D01*
X96871402Y-104101507D01*
X96871401Y-104101506D01*
X96839615Y-104079249D01*
X96685839Y-103971574D01*
X96642216Y-103916998D01*
X96635023Y-103847499D01*
X96666545Y-103785145D01*
X96685837Y-103768428D01*
X96871401Y-103638495D01*
X97038495Y-103471401D01*
X97174035Y-103277830D01*
X97273903Y-103063663D01*
X97335063Y-102835408D01*
X97355659Y-102600000D01*
X97335063Y-102364592D01*
X97273903Y-102136337D01*
X97174035Y-101922171D01*
X97159451Y-101901342D01*
X97038494Y-101728597D01*
X96871402Y-101561506D01*
X96871401Y-101561505D01*
X96685842Y-101431575D01*
X96642218Y-101376998D01*
X96635025Y-101307499D01*
X96666547Y-101245145D01*
X96685843Y-101228425D01*
X96698572Y-101219512D01*
X96871401Y-101098496D01*
X97038495Y-100931402D01*
X97081465Y-100870033D01*
X97136041Y-100826409D01*
X97205540Y-100819215D01*
X97267894Y-100850737D01*
X97303309Y-100910967D01*
X97306260Y-100955040D01*
X97294435Y-101059995D01*
X97294435Y-101060003D01*
X97314630Y-101239249D01*
X97314631Y-101239254D01*
X97374211Y-101409523D01*
X97432707Y-101502618D01*
X97470184Y-101562262D01*
X97597738Y-101689816D01*
X97750478Y-101785789D01*
X97832901Y-101814630D01*
X97920745Y-101845368D01*
X97920750Y-101845369D01*
X98099996Y-101865565D01*
X98100000Y-101865565D01*
X98100004Y-101865565D01*
X98279249Y-101845369D01*
X98279252Y-101845368D01*
X98279255Y-101845368D01*
X98449522Y-101785789D01*
X98602262Y-101689816D01*
X98602262Y-101689815D01*
X98608158Y-101686111D01*
X98609602Y-101688409D01*
X98662849Y-101666659D01*
X98731547Y-101679401D01*
X98782450Y-101727261D01*
X98799500Y-101790012D01*
X98799500Y-102617587D01*
X98779815Y-102684626D01*
X98772450Y-102694896D01*
X98770186Y-102697734D01*
X98674211Y-102850476D01*
X98614631Y-103020745D01*
X98614630Y-103020750D01*
X98594435Y-103199996D01*
X98594435Y-103200003D01*
X98614630Y-103379249D01*
X98614631Y-103379254D01*
X98674211Y-103549523D01*
X98757681Y-103682364D01*
X98770184Y-103702262D01*
X98897738Y-103829816D01*
X98963027Y-103870840D01*
X99043887Y-103921648D01*
X99050478Y-103925789D01*
X99181327Y-103971575D01*
X99220745Y-103985368D01*
X99220750Y-103985369D01*
X99399996Y-104005565D01*
X99400000Y-104005565D01*
X99400004Y-104005565D01*
X99579249Y-103985369D01*
X99579252Y-103985368D01*
X99579255Y-103985368D01*
X99749522Y-103925789D01*
X99902262Y-103829816D01*
X100029816Y-103702262D01*
X100125789Y-103549522D01*
X100185368Y-103379255D01*
X100185369Y-103379249D01*
X100205565Y-103200003D01*
X100205565Y-103199996D01*
X100185369Y-103020750D01*
X100185368Y-103020745D01*
X100159071Y-102945592D01*
X100125789Y-102850478D01*
X100116295Y-102835369D01*
X100087943Y-102790247D01*
X100029816Y-102697738D01*
X100029814Y-102697736D01*
X100029813Y-102697734D01*
X100027550Y-102694896D01*
X100026659Y-102692715D01*
X100026111Y-102691842D01*
X100026264Y-102691745D01*
X100001144Y-102630209D01*
X100000500Y-102617587D01*
X100000500Y-102199996D01*
X110794435Y-102199996D01*
X110794435Y-102200003D01*
X110814630Y-102379249D01*
X110814631Y-102379254D01*
X110874211Y-102549523D01*
X110963576Y-102691745D01*
X110970184Y-102702262D01*
X111097738Y-102829816D01*
X111250478Y-102925789D01*
X111318306Y-102949523D01*
X111420745Y-102985368D01*
X111420750Y-102985369D01*
X111599996Y-103005565D01*
X111600000Y-103005565D01*
X111600004Y-103005565D01*
X111779249Y-102985369D01*
X111779252Y-102985368D01*
X111779255Y-102985368D01*
X111949522Y-102925789D01*
X112102262Y-102829816D01*
X112229816Y-102702262D01*
X112294074Y-102599996D01*
X113794435Y-102599996D01*
X113794435Y-102600003D01*
X113814630Y-102779249D01*
X113814631Y-102779254D01*
X113874211Y-102949523D01*
X113945931Y-103063664D01*
X113970184Y-103102262D01*
X114097738Y-103229816D01*
X114167633Y-103273734D01*
X114205833Y-103297737D01*
X114250478Y-103325789D01*
X114403258Y-103379249D01*
X114420745Y-103385368D01*
X114420750Y-103385369D01*
X114599996Y-103405565D01*
X114600000Y-103405565D01*
X114600004Y-103405565D01*
X114779249Y-103385369D01*
X114779252Y-103385368D01*
X114779255Y-103385368D01*
X114949522Y-103325789D01*
X115102262Y-103229816D01*
X115229816Y-103102262D01*
X115325789Y-102949522D01*
X115385368Y-102779255D01*
X115387424Y-102761007D01*
X115405565Y-102600003D01*
X115405565Y-102599996D01*
X115385369Y-102420750D01*
X115385368Y-102420745D01*
X115364418Y-102360873D01*
X115325789Y-102250478D01*
X115229816Y-102097738D01*
X115102262Y-101970184D01*
X115037124Y-101929255D01*
X114949523Y-101874211D01*
X114779254Y-101814631D01*
X114779249Y-101814630D01*
X114600004Y-101794435D01*
X114599996Y-101794435D01*
X114420750Y-101814630D01*
X114420745Y-101814631D01*
X114250476Y-101874211D01*
X114097737Y-101970184D01*
X113970184Y-102097737D01*
X113874211Y-102250476D01*
X113814631Y-102420745D01*
X113814630Y-102420750D01*
X113794435Y-102599996D01*
X112294074Y-102599996D01*
X112325789Y-102549522D01*
X112385368Y-102379255D01*
X112387021Y-102364586D01*
X112405565Y-102200003D01*
X112405565Y-102199996D01*
X112385369Y-102020750D01*
X112385368Y-102020745D01*
X112343587Y-101901342D01*
X112325789Y-101850478D01*
X112303265Y-101814632D01*
X112249206Y-101728597D01*
X112229816Y-101697738D01*
X112102262Y-101570184D01*
X112088451Y-101561506D01*
X111949523Y-101474211D01*
X111779254Y-101414631D01*
X111779249Y-101414630D01*
X111600004Y-101394435D01*
X111599996Y-101394435D01*
X111420750Y-101414630D01*
X111420745Y-101414631D01*
X111250476Y-101474211D01*
X111097737Y-101570184D01*
X110970184Y-101697737D01*
X110874211Y-101850476D01*
X110814631Y-102020745D01*
X110814630Y-102020750D01*
X110794435Y-102199996D01*
X100000500Y-102199996D01*
X100000500Y-100920945D01*
X100000500Y-100920943D01*
X99959577Y-100768216D01*
X99942037Y-100737835D01*
X99880524Y-100631290D01*
X99880521Y-100631286D01*
X99880520Y-100631284D01*
X99768716Y-100519480D01*
X99768715Y-100519479D01*
X99764385Y-100515149D01*
X99764374Y-100515139D01*
X99368822Y-100119587D01*
X99335337Y-100058264D01*
X99340321Y-99988572D01*
X99349117Y-99969903D01*
X99353993Y-99961458D01*
X99353992Y-99961458D01*
X99359577Y-99951787D01*
X99400500Y-99799060D01*
X99400500Y-99640945D01*
X99400500Y-97502413D01*
X99420185Y-97435374D01*
X99427555Y-97425098D01*
X99429810Y-97422268D01*
X99429816Y-97422263D01*
X99525789Y-97269523D01*
X99585368Y-97099256D01*
X99594298Y-97020001D01*
X99605565Y-96920004D01*
X99605565Y-96919997D01*
X99585369Y-96740751D01*
X99585368Y-96740746D01*
X99557114Y-96660000D01*
X99525789Y-96570479D01*
X99520851Y-96562621D01*
X99429815Y-96417738D01*
X99302262Y-96290185D01*
X99149523Y-96194212D01*
X98979254Y-96134632D01*
X98979249Y-96134631D01*
X98800004Y-96114436D01*
X98799996Y-96114436D01*
X98620750Y-96134631D01*
X98620737Y-96134634D01*
X98450475Y-96194212D01*
X98444499Y-96197090D01*
X98375557Y-96208438D01*
X98311424Y-96180712D01*
X98293759Y-96162682D01*
X98289816Y-96157738D01*
X98162262Y-96030184D01*
X98009523Y-95934211D01*
X97839254Y-95874631D01*
X97839249Y-95874630D01*
X97660004Y-95854435D01*
X97659996Y-95854435D01*
X97480750Y-95874630D01*
X97480745Y-95874631D01*
X97310476Y-95934211D01*
X97157739Y-96030183D01*
X97048213Y-96139709D01*
X96986890Y-96173193D01*
X96947278Y-96175317D01*
X96897830Y-96170001D01*
X96250000Y-96170001D01*
X96250000Y-97086989D01*
X96192993Y-97054076D01*
X96065826Y-97020001D01*
X95934174Y-97020001D01*
X95807007Y-97054076D01*
X95750000Y-97086989D01*
X95750000Y-96170001D01*
X95102155Y-96170001D01*
X95042627Y-96176402D01*
X95042620Y-96176404D01*
X94907913Y-96226646D01*
X94907906Y-96226650D01*
X94792812Y-96312810D01*
X94792809Y-96312813D01*
X94706649Y-96427907D01*
X94706645Y-96427914D01*
X94656403Y-96562621D01*
X94656401Y-96562628D01*
X94650000Y-96622156D01*
X94650000Y-97270001D01*
X95566988Y-97270001D01*
X95534075Y-97327008D01*
X95500000Y-97454175D01*
X95500000Y-97585827D01*
X95534075Y-97712994D01*
X95566988Y-97770001D01*
X94650000Y-97770001D01*
X94650000Y-98417845D01*
X94656401Y-98477373D01*
X94656403Y-98477380D01*
X94706645Y-98612087D01*
X94706649Y-98612094D01*
X94792809Y-98727188D01*
X94792812Y-98727191D01*
X94907906Y-98813351D01*
X94907913Y-98813355D01*
X95039470Y-98862422D01*
X95095403Y-98904293D01*
X95119821Y-98969757D01*
X95104970Y-99038030D01*
X95083819Y-99066285D01*
X94961503Y-99188601D01*
X94825965Y-99382170D01*
X94825964Y-99382172D01*
X94726098Y-99596336D01*
X94726094Y-99596345D01*
X94664938Y-99824587D01*
X94664936Y-99824597D01*
X94644341Y-100060000D01*
X94644341Y-100060001D01*
X94664936Y-100295404D01*
X94664938Y-100295414D01*
X94726094Y-100523656D01*
X94726096Y-100523660D01*
X94726097Y-100523664D01*
X94813210Y-100710478D01*
X94825965Y-100737831D01*
X94825967Y-100737835D01*
X94934281Y-100892522D01*
X94961501Y-100931397D01*
X94961506Y-100931403D01*
X95128597Y-101098494D01*
X95128603Y-101098499D01*
X95214363Y-101158549D01*
X95272583Y-101199315D01*
X95314157Y-101228425D01*
X95357782Y-101283002D01*
X95364976Y-101352500D01*
X95333453Y-101414855D01*
X95314158Y-101431575D01*
X95128594Y-101561508D01*
X94961505Y-101728597D01*
X94825965Y-101922169D01*
X94825964Y-101922171D01*
X94726098Y-102136335D01*
X94726094Y-102136344D01*
X94664938Y-102364586D01*
X94664936Y-102364596D01*
X94644341Y-102599999D01*
X94644341Y-102600000D01*
X94664936Y-102835403D01*
X94664938Y-102835413D01*
X94726094Y-103063655D01*
X94726096Y-103063659D01*
X94726097Y-103063663D01*
X94764376Y-103145752D01*
X94825965Y-103277830D01*
X94825967Y-103277834D01*
X94961501Y-103471395D01*
X94961506Y-103471402D01*
X95128597Y-103638493D01*
X95128603Y-103638498D01*
X95314158Y-103768425D01*
X95357783Y-103823002D01*
X95364977Y-103892500D01*
X95333454Y-103954855D01*
X95314159Y-103971575D01*
X95128594Y-104101509D01*
X94961505Y-104268598D01*
X94825965Y-104462170D01*
X94825964Y-104462172D01*
X94726098Y-104676336D01*
X94726094Y-104676345D01*
X94664938Y-104904587D01*
X94664936Y-104904597D01*
X94644341Y-105140000D01*
X94644341Y-105140001D01*
X94664936Y-105375404D01*
X94664938Y-105375414D01*
X94726094Y-105603656D01*
X94726096Y-105603660D01*
X94726097Y-105603664D01*
X94810827Y-105785368D01*
X94825965Y-105817831D01*
X94825967Y-105817835D01*
X94901557Y-105925788D01*
X94943276Y-105985369D01*
X94961501Y-106011396D01*
X94961506Y-106011403D01*
X95128597Y-106178494D01*
X95128603Y-106178499D01*
X95314158Y-106308426D01*
X95357783Y-106363003D01*
X95364977Y-106432501D01*
X95333454Y-106494856D01*
X95314158Y-106511576D01*
X95128597Y-106641506D01*
X94961505Y-106808598D01*
X94825965Y-107002170D01*
X94825964Y-107002172D01*
X94726098Y-107216336D01*
X94726094Y-107216345D01*
X94664938Y-107444587D01*
X94664936Y-107444597D01*
X94644341Y-107680000D01*
X94644341Y-107680001D01*
X94664936Y-107915404D01*
X94664938Y-107915414D01*
X94726094Y-108143656D01*
X94726096Y-108143660D01*
X94726097Y-108143664D01*
X94825965Y-108357831D01*
X94825967Y-108357835D01*
X94900898Y-108464846D01*
X94960189Y-108549523D01*
X94961501Y-108551396D01*
X94961506Y-108551403D01*
X95128597Y-108718494D01*
X95128603Y-108718499D01*
X95314158Y-108848426D01*
X95357783Y-108903003D01*
X95364977Y-108972501D01*
X95333454Y-109034856D01*
X95314158Y-109051576D01*
X95128597Y-109181506D01*
X94961505Y-109348598D01*
X94825965Y-109542170D01*
X94825964Y-109542172D01*
X94726098Y-109756336D01*
X94726094Y-109756345D01*
X94664938Y-109984587D01*
X94664938Y-109984589D01*
X94664937Y-109984593D01*
X94651287Y-110140606D01*
X94644341Y-110220000D01*
X94644341Y-110220001D01*
X94664936Y-110455404D01*
X94664938Y-110455414D01*
X94726094Y-110683656D01*
X94726096Y-110683660D01*
X94726097Y-110683664D01*
X94802382Y-110847257D01*
X94825965Y-110897831D01*
X94825967Y-110897835D01*
X94916062Y-111026503D01*
X94953420Y-111079856D01*
X94961501Y-111091396D01*
X94961506Y-111091403D01*
X95128597Y-111258494D01*
X95128603Y-111258499D01*
X95314158Y-111388426D01*
X95357783Y-111443003D01*
X95364977Y-111512501D01*
X95333454Y-111574856D01*
X95314158Y-111591576D01*
X95128597Y-111721506D01*
X94961505Y-111888598D01*
X94825965Y-112082170D01*
X94825964Y-112082172D01*
X94726098Y-112296336D01*
X94726094Y-112296345D01*
X94664938Y-112524587D01*
X94664936Y-112524597D01*
X94644341Y-112760000D01*
X94644341Y-112760001D01*
X94664936Y-112995404D01*
X94664938Y-112995414D01*
X94726094Y-113223656D01*
X94726096Y-113223660D01*
X94726097Y-113223664D01*
X94825965Y-113437831D01*
X94825967Y-113437835D01*
X94961501Y-113631396D01*
X94961506Y-113631403D01*
X95128597Y-113798494D01*
X95128603Y-113798499D01*
X95314158Y-113928426D01*
X95357783Y-113983003D01*
X95364977Y-114052501D01*
X95333454Y-114114856D01*
X95314159Y-114131576D01*
X95128594Y-114261510D01*
X94961505Y-114428599D01*
X94825965Y-114622171D01*
X94825964Y-114622173D01*
X94726098Y-114836337D01*
X94726094Y-114836346D01*
X94664938Y-115064588D01*
X94664936Y-115064598D01*
X94644341Y-115300001D01*
X94644341Y-115300002D01*
X94664936Y-115535405D01*
X94664938Y-115535415D01*
X94726094Y-115763657D01*
X94726096Y-115763661D01*
X94726097Y-115763665D01*
X94751193Y-115817483D01*
X94825965Y-115977832D01*
X94825967Y-115977836D01*
X94885923Y-116063461D01*
X94949176Y-116153796D01*
X94961501Y-116171397D01*
X94961506Y-116171404D01*
X95128597Y-116338495D01*
X95128603Y-116338500D01*
X95314157Y-116468426D01*
X95357782Y-116523003D01*
X95364976Y-116592501D01*
X95333453Y-116654856D01*
X95314158Y-116671576D01*
X95128594Y-116801509D01*
X94961505Y-116968598D01*
X94825965Y-117162170D01*
X94825964Y-117162172D01*
X94726098Y-117376336D01*
X94726094Y-117376345D01*
X94664938Y-117604587D01*
X94664936Y-117604597D01*
X94644341Y-117840000D01*
X94644341Y-117840001D01*
X94664936Y-118075404D01*
X94664938Y-118075414D01*
X94726094Y-118303656D01*
X94726096Y-118303660D01*
X94726097Y-118303664D01*
X94788788Y-118438105D01*
X94825965Y-118517831D01*
X94825967Y-118517835D01*
X94934281Y-118672522D01*
X94961505Y-118711402D01*
X95128599Y-118878496D01*
X95225384Y-118946266D01*
X95322165Y-119014033D01*
X95322167Y-119014034D01*
X95322170Y-119014036D01*
X95536337Y-119113904D01*
X95764592Y-119175064D01*
X95952918Y-119191540D01*
X95999999Y-119195660D01*
X96000000Y-119195660D01*
X96000001Y-119195660D01*
X96039234Y-119192227D01*
X96235408Y-119175064D01*
X96463663Y-119113904D01*
X96677830Y-119014036D01*
X96871401Y-118878496D01*
X97038495Y-118711402D01*
X97174035Y-118517831D01*
X97273903Y-118303664D01*
X97335063Y-118075409D01*
X97355659Y-117840001D01*
X97335063Y-117604593D01*
X97333831Y-117599996D01*
X98794435Y-117599996D01*
X98794435Y-117600003D01*
X98814630Y-117779249D01*
X98814631Y-117779254D01*
X98874211Y-117949523D01*
X98912849Y-118011014D01*
X98970184Y-118102262D01*
X99097738Y-118229816D01*
X99174874Y-118278284D01*
X99215253Y-118303656D01*
X99250478Y-118325789D01*
X99339111Y-118356803D01*
X99420745Y-118385368D01*
X99420750Y-118385369D01*
X99599996Y-118405565D01*
X99600000Y-118405565D01*
X99600004Y-118405565D01*
X99779249Y-118385369D01*
X99779252Y-118385368D01*
X99779255Y-118385368D01*
X99949522Y-118325789D01*
X100102262Y-118229816D01*
X100229816Y-118102262D01*
X100325789Y-117949522D01*
X100385368Y-117779255D01*
X100387970Y-117756160D01*
X100405565Y-117600003D01*
X100405565Y-117599996D01*
X100385369Y-117420750D01*
X100385368Y-117420745D01*
X100384997Y-117419685D01*
X100325789Y-117250478D01*
X100325188Y-117249522D01*
X100275023Y-117169685D01*
X100229816Y-117097738D01*
X100102262Y-116970184D01*
X100048675Y-116936513D01*
X99949523Y-116874211D01*
X99779254Y-116814631D01*
X99779249Y-116814630D01*
X99600004Y-116794435D01*
X99599996Y-116794435D01*
X99420750Y-116814630D01*
X99420745Y-116814631D01*
X99250476Y-116874211D01*
X99097737Y-116970184D01*
X98970184Y-117097737D01*
X98874211Y-117250476D01*
X98814631Y-117420745D01*
X98814630Y-117420750D01*
X98794435Y-117599996D01*
X97333831Y-117599996D01*
X97277587Y-117390087D01*
X97279250Y-117320237D01*
X97309679Y-117270315D01*
X104614281Y-109965713D01*
X104675602Y-109932230D01*
X104745294Y-109937214D01*
X104801227Y-109979086D01*
X104806953Y-109987423D01*
X104845182Y-110048264D01*
X104845184Y-110048266D01*
X104972738Y-110175820D01*
X105125478Y-110271793D01*
X105295745Y-110331372D01*
X105295750Y-110331373D01*
X105474996Y-110351569D01*
X105475000Y-110351569D01*
X105475004Y-110351569D01*
X105654249Y-110331373D01*
X105654252Y-110331372D01*
X105654255Y-110331372D01*
X105824522Y-110271793D01*
X105977262Y-110175820D01*
X106104816Y-110048266D01*
X106167775Y-109948066D01*
X106220108Y-109901776D01*
X106289161Y-109891127D01*
X106353010Y-109919502D01*
X106360449Y-109926358D01*
X106366897Y-109932806D01*
X106381353Y-109941889D01*
X106427644Y-109994221D01*
X106439382Y-110046883D01*
X106439382Y-110140593D01*
X106439383Y-110140606D01*
X106439383Y-111563214D01*
X106419698Y-111630253D01*
X106412333Y-111640523D01*
X106410069Y-111643361D01*
X106314094Y-111796103D01*
X106254514Y-111966372D01*
X106254513Y-111966377D01*
X106234318Y-112145623D01*
X106234318Y-112145630D01*
X106254513Y-112324876D01*
X106254514Y-112324881D01*
X106314094Y-112495150D01*
X106375641Y-112593101D01*
X106410067Y-112647889D01*
X106537621Y-112775443D01*
X106627963Y-112832209D01*
X106673696Y-112860945D01*
X106690361Y-112871416D01*
X106835688Y-112922268D01*
X106860628Y-112930995D01*
X106860633Y-112930996D01*
X107039880Y-112951192D01*
X107039881Y-112951191D01*
X107039883Y-112951192D01*
X107059109Y-112949025D01*
X107127928Y-112961077D01*
X107169202Y-112998342D01*
X107171121Y-112996812D01*
X107175466Y-113002260D01*
X107175468Y-113002262D01*
X107303022Y-113129816D01*
X107370301Y-113172090D01*
X107452381Y-113223665D01*
X107455762Y-113225789D01*
X107626029Y-113285368D01*
X107626034Y-113285369D01*
X107805280Y-113305565D01*
X107805284Y-113305565D01*
X107805288Y-113305565D01*
X107984533Y-113285369D01*
X107984536Y-113285368D01*
X107984539Y-113285368D01*
X108154806Y-113225789D01*
X108158187Y-113223665D01*
X108179780Y-113210096D01*
X108210027Y-113191090D01*
X108277263Y-113172090D01*
X108344099Y-113192457D01*
X108389313Y-113245724D01*
X108400000Y-113296084D01*
X108400000Y-116400000D01*
X114000000Y-116400000D01*
X114000000Y-112710519D01*
X114019685Y-112643480D01*
X114072489Y-112597725D01*
X114137882Y-112587299D01*
X114163617Y-112590198D01*
X114189382Y-112593101D01*
X114253796Y-112620167D01*
X114293352Y-112677761D01*
X114299500Y-112716321D01*
X114299500Y-118706734D01*
X114299499Y-118706752D01*
X114299499Y-118872458D01*
X114299498Y-118872458D01*
X114340423Y-119025189D01*
X114369358Y-119075304D01*
X114369359Y-119075308D01*
X114369360Y-119075308D01*
X114419479Y-119162118D01*
X114419481Y-119162121D01*
X114420679Y-119163319D01*
X114421366Y-119164577D01*
X114424426Y-119168565D01*
X114423804Y-119169042D01*
X114454164Y-119224642D01*
X114449180Y-119294334D01*
X114407308Y-119350267D01*
X114341844Y-119374684D01*
X114332998Y-119375000D01*
X102325000Y-119375000D01*
X102325000Y-120510062D01*
X102305315Y-120577101D01*
X102252511Y-120622856D01*
X102183353Y-120632800D01*
X102119797Y-120603775D01*
X102096051Y-120573437D01*
X102094909Y-120574138D01*
X101958719Y-120351898D01*
X101958712Y-120351888D01*
X101955465Y-120348087D01*
X101955464Y-120348087D01*
X101394114Y-120909437D01*
X101393260Y-120907374D01*
X101300238Y-120768156D01*
X101181844Y-120649762D01*
X101042626Y-120556740D01*
X101040561Y-120555884D01*
X101601911Y-119994535D01*
X101601911Y-119994533D01*
X101598110Y-119991286D01*
X101598095Y-119991275D01*
X101380015Y-119857636D01*
X101380012Y-119857634D01*
X101143702Y-119759752D01*
X100894988Y-119700042D01*
X100894989Y-119700042D01*
X100640000Y-119679975D01*
X100385010Y-119700042D01*
X100136297Y-119759752D01*
X99899987Y-119857634D01*
X99899984Y-119857636D01*
X99681897Y-119991280D01*
X99678087Y-119994534D01*
X100239438Y-120555884D01*
X100237374Y-120556740D01*
X100098156Y-120649762D01*
X99979762Y-120768156D01*
X99886740Y-120907374D01*
X99885884Y-120909438D01*
X99324533Y-120348087D01*
X99321280Y-120351897D01*
X99187636Y-120569984D01*
X99187634Y-120569987D01*
X99089752Y-120806297D01*
X99030042Y-121055010D01*
X99009975Y-121310000D01*
X99030042Y-121564989D01*
X99089752Y-121813702D01*
X99187634Y-122050012D01*
X99187636Y-122050015D01*
X99321275Y-122268095D01*
X99321286Y-122268110D01*
X99324533Y-122271911D01*
X99324535Y-122271911D01*
X99885884Y-121710561D01*
X99886740Y-121712626D01*
X99979762Y-121851844D01*
X100098156Y-121970238D01*
X100237374Y-122063260D01*
X100239437Y-122064114D01*
X99678087Y-122625464D01*
X99678087Y-122625465D01*
X99681888Y-122628712D01*
X99681898Y-122628719D01*
X99899984Y-122762363D01*
X99899987Y-122762365D01*
X100136297Y-122860247D01*
X100385011Y-122919957D01*
X100385010Y-122919957D01*
X100640000Y-122940024D01*
X100894989Y-122919957D01*
X101143702Y-122860247D01*
X101380012Y-122762365D01*
X101380015Y-122762363D01*
X101598103Y-122628719D01*
X101601912Y-122625464D01*
X101040562Y-122064114D01*
X101042626Y-122063260D01*
X101181844Y-121970238D01*
X101300238Y-121851844D01*
X101393260Y-121712626D01*
X101394114Y-121710562D01*
X101955464Y-122271912D01*
X101958719Y-122268103D01*
X102094909Y-122045862D01*
X102096787Y-122047013D01*
X102138453Y-122002868D01*
X102206268Y-121986049D01*
X102272410Y-122008564D01*
X102315881Y-122063264D01*
X102325000Y-122109937D01*
X102325000Y-125590062D01*
X102305315Y-125657101D01*
X102252511Y-125702856D01*
X102183353Y-125712800D01*
X102119797Y-125683775D01*
X102096051Y-125653437D01*
X102094909Y-125654138D01*
X101958719Y-125431898D01*
X101958712Y-125431888D01*
X101955465Y-125428087D01*
X101955464Y-125428087D01*
X101394114Y-125989437D01*
X101393260Y-125987374D01*
X101300238Y-125848156D01*
X101181844Y-125729762D01*
X101042626Y-125636740D01*
X101040561Y-125635884D01*
X101601911Y-125074535D01*
X101601911Y-125074533D01*
X101598110Y-125071286D01*
X101598095Y-125071275D01*
X101380015Y-124937636D01*
X101380012Y-124937634D01*
X101143702Y-124839752D01*
X100894988Y-124780042D01*
X100894989Y-124780042D01*
X100640000Y-124759975D01*
X100385010Y-124780042D01*
X100136297Y-124839752D01*
X99899987Y-124937634D01*
X99899984Y-124937636D01*
X99681897Y-125071280D01*
X99678087Y-125074534D01*
X100239438Y-125635884D01*
X100237374Y-125636740D01*
X100098156Y-125729762D01*
X99979762Y-125848156D01*
X99886740Y-125987374D01*
X99885884Y-125989438D01*
X99324533Y-125428087D01*
X99321280Y-125431897D01*
X99187636Y-125649984D01*
X99187634Y-125649987D01*
X99089752Y-125886297D01*
X99030042Y-126135010D01*
X99009975Y-126390000D01*
X99030042Y-126644989D01*
X99089752Y-126893702D01*
X99187634Y-127130012D01*
X99187636Y-127130015D01*
X99321275Y-127348095D01*
X99321286Y-127348110D01*
X99324533Y-127351911D01*
X99324535Y-127351911D01*
X99885884Y-126790561D01*
X99886740Y-126792626D01*
X99979762Y-126931844D01*
X100098156Y-127050238D01*
X100237374Y-127143260D01*
X100239437Y-127144114D01*
X99678087Y-127705464D01*
X99678087Y-127705465D01*
X99681888Y-127708712D01*
X99681893Y-127708716D01*
X99699936Y-127719773D01*
X99746811Y-127771585D01*
X99758233Y-127840515D01*
X99730575Y-127904678D01*
X99672619Y-127943702D01*
X99635145Y-127949500D01*
X96564855Y-127949500D01*
X96497816Y-127929815D01*
X96452061Y-127877011D01*
X96442117Y-127807853D01*
X96471142Y-127744297D01*
X96500066Y-127719772D01*
X96518104Y-127708717D01*
X96521912Y-127705464D01*
X95960562Y-127144114D01*
X95962626Y-127143260D01*
X96101844Y-127050238D01*
X96220238Y-126931844D01*
X96313260Y-126792626D01*
X96314114Y-126790562D01*
X96875464Y-127351912D01*
X96878719Y-127348103D01*
X97012363Y-127130015D01*
X97012365Y-127130012D01*
X97110247Y-126893702D01*
X97169957Y-126644989D01*
X97190024Y-126390000D01*
X97169957Y-126135010D01*
X97110247Y-125886297D01*
X97012365Y-125649987D01*
X97012363Y-125649984D01*
X96878719Y-125431898D01*
X96878712Y-125431888D01*
X96875465Y-125428087D01*
X96875464Y-125428087D01*
X96314114Y-125989437D01*
X96313260Y-125987374D01*
X96220238Y-125848156D01*
X96101844Y-125729762D01*
X95962626Y-125636740D01*
X95960561Y-125635884D01*
X96521911Y-125074535D01*
X96521911Y-125074533D01*
X96518110Y-125071286D01*
X96518095Y-125071275D01*
X96300015Y-124937636D01*
X96300012Y-124937634D01*
X96063702Y-124839752D01*
X95814988Y-124780042D01*
X95814989Y-124780042D01*
X95560000Y-124759975D01*
X95305010Y-124780042D01*
X95056297Y-124839752D01*
X94819987Y-124937634D01*
X94819984Y-124937636D01*
X94601897Y-125071280D01*
X94598087Y-125074534D01*
X95159438Y-125635884D01*
X95157374Y-125636740D01*
X95018156Y-125729762D01*
X94899762Y-125848156D01*
X94806740Y-125987374D01*
X94805884Y-125989438D01*
X94244533Y-125428087D01*
X94241280Y-125431897D01*
X94107636Y-125649984D01*
X94107634Y-125649987D01*
X94009752Y-125886297D01*
X93950042Y-126135010D01*
X93929975Y-126390000D01*
X93950042Y-126644989D01*
X94009752Y-126893702D01*
X94107634Y-127130012D01*
X94107636Y-127130015D01*
X94241275Y-127348095D01*
X94241286Y-127348110D01*
X94244533Y-127351911D01*
X94244535Y-127351911D01*
X94805884Y-126790561D01*
X94806740Y-126792626D01*
X94899762Y-126931844D01*
X95018156Y-127050238D01*
X95157374Y-127143260D01*
X95159437Y-127144114D01*
X94598087Y-127705464D01*
X94598087Y-127705465D01*
X94601888Y-127708712D01*
X94601893Y-127708716D01*
X94619936Y-127719773D01*
X94666811Y-127771585D01*
X94678233Y-127840515D01*
X94650575Y-127904678D01*
X94592619Y-127943702D01*
X94555145Y-127949500D01*
X93826962Y-127949500D01*
X93813078Y-127948720D01*
X93800553Y-127947308D01*
X93722735Y-127938540D01*
X93695666Y-127932362D01*
X93616462Y-127904648D01*
X93591444Y-127892600D01*
X93520395Y-127847957D01*
X93498686Y-127830644D01*
X93439355Y-127771313D01*
X93422042Y-127749604D01*
X93418707Y-127744297D01*
X93377398Y-127678553D01*
X93365351Y-127653537D01*
X93337637Y-127574333D01*
X93331459Y-127547263D01*
X93321280Y-127456922D01*
X93320500Y-127443038D01*
X93320500Y-123850000D01*
X96569783Y-123850000D01*
X96588623Y-124089382D01*
X96644674Y-124322853D01*
X96644678Y-124322865D01*
X96736565Y-124544702D01*
X96848284Y-124727011D01*
X96862028Y-124749439D01*
X97017973Y-124932027D01*
X97200561Y-125087972D01*
X97275933Y-125134160D01*
X97405297Y-125213434D01*
X97502047Y-125253508D01*
X97627137Y-125305323D01*
X97860621Y-125361377D01*
X98100000Y-125380217D01*
X98339379Y-125361377D01*
X98572863Y-125305323D01*
X98777039Y-125220750D01*
X98794702Y-125213434D01*
X98823764Y-125195625D01*
X98999439Y-125087972D01*
X99182027Y-124932027D01*
X99337972Y-124749439D01*
X99463433Y-124544704D01*
X99465382Y-124540000D01*
X99483097Y-124497230D01*
X99555323Y-124322863D01*
X99611377Y-124089379D01*
X99630217Y-123850000D01*
X99611377Y-123610621D01*
X99555323Y-123377137D01*
X99469079Y-123168926D01*
X99463434Y-123155297D01*
X99351562Y-122972738D01*
X99337972Y-122950561D01*
X99182027Y-122767973D01*
X98999439Y-122612028D01*
X98999436Y-122612026D01*
X98794702Y-122486565D01*
X98583266Y-122398986D01*
X98572863Y-122394677D01*
X98572859Y-122394676D01*
X98572853Y-122394674D01*
X98339382Y-122338623D01*
X98100000Y-122319783D01*
X97860617Y-122338623D01*
X97627146Y-122394674D01*
X97627134Y-122394678D01*
X97405297Y-122486565D01*
X97200563Y-122612026D01*
X97017973Y-122767973D01*
X96862026Y-122950563D01*
X96736565Y-123155297D01*
X96644678Y-123377134D01*
X96644674Y-123377146D01*
X96588623Y-123610617D01*
X96569783Y-123850000D01*
X93320500Y-123850000D01*
X93320500Y-121310000D01*
X93929975Y-121310000D01*
X93950042Y-121564989D01*
X94009752Y-121813702D01*
X94107634Y-122050012D01*
X94107636Y-122050015D01*
X94241275Y-122268095D01*
X94241286Y-122268110D01*
X94244533Y-122271911D01*
X94244535Y-122271911D01*
X94805884Y-121710561D01*
X94806740Y-121712626D01*
X94899762Y-121851844D01*
X95018156Y-121970238D01*
X95157374Y-122063260D01*
X95159437Y-122064114D01*
X94598087Y-122625464D01*
X94598087Y-122625465D01*
X94601888Y-122628712D01*
X94601898Y-122628719D01*
X94819984Y-122762363D01*
X94819987Y-122762365D01*
X95056297Y-122860247D01*
X95305011Y-122919957D01*
X95305010Y-122919957D01*
X95560000Y-122940024D01*
X95814989Y-122919957D01*
X96063702Y-122860247D01*
X96300012Y-122762365D01*
X96300015Y-122762363D01*
X96518103Y-122628719D01*
X96521912Y-122625464D01*
X95960562Y-122064114D01*
X95962626Y-122063260D01*
X96101844Y-121970238D01*
X96220238Y-121851844D01*
X96313260Y-121712626D01*
X96314114Y-121710562D01*
X96875464Y-122271912D01*
X96878719Y-122268103D01*
X97012363Y-122050015D01*
X97012365Y-122050012D01*
X97110247Y-121813702D01*
X97169957Y-121564989D01*
X97190024Y-121310000D01*
X97169957Y-121055010D01*
X97110247Y-120806297D01*
X97012365Y-120569987D01*
X97012363Y-120569984D01*
X96878719Y-120351898D01*
X96878712Y-120351888D01*
X96875465Y-120348087D01*
X96875464Y-120348087D01*
X96314114Y-120909437D01*
X96313260Y-120907374D01*
X96220238Y-120768156D01*
X96101844Y-120649762D01*
X95962626Y-120556740D01*
X95960561Y-120555884D01*
X96521911Y-119994535D01*
X96521911Y-119994533D01*
X96518110Y-119991286D01*
X96518095Y-119991275D01*
X96300015Y-119857636D01*
X96300012Y-119857634D01*
X96063702Y-119759752D01*
X95814988Y-119700042D01*
X95814989Y-119700042D01*
X95560000Y-119679975D01*
X95305010Y-119700042D01*
X95056297Y-119759752D01*
X94819987Y-119857634D01*
X94819984Y-119857636D01*
X94601897Y-119991280D01*
X94598087Y-119994534D01*
X95159438Y-120555884D01*
X95157374Y-120556740D01*
X95018156Y-120649762D01*
X94899762Y-120768156D01*
X94806740Y-120907374D01*
X94805885Y-120909438D01*
X94244534Y-120348087D01*
X94241280Y-120351897D01*
X94107636Y-120569984D01*
X94107634Y-120569987D01*
X94009752Y-120806297D01*
X93950042Y-121055010D01*
X93929975Y-121310000D01*
X93320500Y-121310000D01*
X93320500Y-92039996D01*
X97024435Y-92039996D01*
X97024435Y-92040003D01*
X97044630Y-92219249D01*
X97044631Y-92219254D01*
X97104211Y-92389523D01*
X97126503Y-92425000D01*
X97200184Y-92542262D01*
X97327738Y-92669816D01*
X97480478Y-92765789D01*
X97650745Y-92825368D01*
X97650750Y-92825369D01*
X97829996Y-92845565D01*
X97830000Y-92845565D01*
X97830004Y-92845565D01*
X98009249Y-92825369D01*
X98009252Y-92825368D01*
X98009255Y-92825368D01*
X98179522Y-92765789D01*
X98332262Y-92669816D01*
X98459816Y-92542262D01*
X98555789Y-92389522D01*
X98603770Y-92252400D01*
X109401151Y-92252400D01*
X109401152Y-92252401D01*
X109496392Y-92311370D01*
X109496398Y-92311374D01*
X109690811Y-92386689D01*
X109895756Y-92425000D01*
X110104244Y-92425000D01*
X110309187Y-92386689D01*
X110309197Y-92386686D01*
X110503601Y-92311374D01*
X110503602Y-92311373D01*
X110598847Y-92252400D01*
X114241149Y-92252400D01*
X114241150Y-92252401D01*
X114336390Y-92311370D01*
X114336396Y-92311374D01*
X114530809Y-92386689D01*
X114735754Y-92425000D01*
X114944242Y-92425000D01*
X115149185Y-92386689D01*
X115149195Y-92386686D01*
X115343599Y-92311374D01*
X115343600Y-92311373D01*
X115438845Y-92252400D01*
X114839999Y-91653554D01*
X114839998Y-91653554D01*
X114241149Y-92252400D01*
X110598847Y-92252400D01*
X110000001Y-91653554D01*
X110000000Y-91653554D01*
X109401151Y-92252400D01*
X98603770Y-92252400D01*
X98615368Y-92219255D01*
X98635565Y-92040000D01*
X98619989Y-91901761D01*
X98615369Y-91860750D01*
X98615368Y-91860745D01*
X98561972Y-91708148D01*
X98555789Y-91690478D01*
X98459816Y-91537738D01*
X98332262Y-91410184D01*
X98179523Y-91314211D01*
X98138908Y-91299999D01*
X108870180Y-91299999D01*
X108870180Y-91300000D01*
X108889416Y-91507603D01*
X108889417Y-91507605D01*
X108946472Y-91708133D01*
X108946478Y-91708148D01*
X109039408Y-91894775D01*
X109044684Y-91901761D01*
X109646446Y-91300000D01*
X109600366Y-91253920D01*
X109649988Y-91253920D01*
X109649988Y-91346080D01*
X109673841Y-91435099D01*
X109719921Y-91514912D01*
X109785088Y-91580079D01*
X109864901Y-91626159D01*
X109953920Y-91650012D01*
X110046080Y-91650012D01*
X110135099Y-91626159D01*
X110214912Y-91580079D01*
X110280079Y-91514912D01*
X110326159Y-91435099D01*
X110350012Y-91346080D01*
X110350012Y-91299999D01*
X110353554Y-91299999D01*
X110353554Y-91300000D01*
X110955314Y-91901760D01*
X110955315Y-91901760D01*
X110960590Y-91894776D01*
X110960593Y-91894771D01*
X111053521Y-91708148D01*
X111053527Y-91708133D01*
X111110582Y-91507605D01*
X111110583Y-91507603D01*
X111129820Y-91300000D01*
X111129820Y-91299999D01*
X113710178Y-91299999D01*
X113710178Y-91300000D01*
X113729414Y-91507603D01*
X113729415Y-91507605D01*
X113786470Y-91708133D01*
X113786476Y-91708148D01*
X113879406Y-91894775D01*
X113884682Y-91901761D01*
X114486444Y-91300000D01*
X114440364Y-91253920D01*
X114489986Y-91253920D01*
X114489986Y-91346080D01*
X114513839Y-91435099D01*
X114559919Y-91514912D01*
X114625086Y-91580079D01*
X114704899Y-91626159D01*
X114793918Y-91650012D01*
X114886078Y-91650012D01*
X114975097Y-91626159D01*
X115054910Y-91580079D01*
X115120077Y-91514912D01*
X115166157Y-91435099D01*
X115190010Y-91346080D01*
X115190010Y-91299999D01*
X115193552Y-91299999D01*
X115193552Y-91300000D01*
X115795312Y-91901760D01*
X115795313Y-91901760D01*
X115800588Y-91894776D01*
X115800591Y-91894771D01*
X115893519Y-91708148D01*
X115893525Y-91708133D01*
X115950580Y-91507605D01*
X115950581Y-91507603D01*
X115969818Y-91300000D01*
X115969818Y-91299999D01*
X115950581Y-91092396D01*
X115950580Y-91092394D01*
X115893525Y-90891866D01*
X115893519Y-90891851D01*
X115800593Y-90705232D01*
X115800585Y-90705219D01*
X115795312Y-90698237D01*
X115193552Y-91299999D01*
X115190010Y-91299999D01*
X115190010Y-91253920D01*
X115166157Y-91164901D01*
X115120077Y-91085088D01*
X115054910Y-91019921D01*
X114975097Y-90973841D01*
X114886078Y-90949988D01*
X114793918Y-90949988D01*
X114704899Y-90973841D01*
X114625086Y-91019921D01*
X114559919Y-91085088D01*
X114513839Y-91164901D01*
X114489986Y-91253920D01*
X114440364Y-91253920D01*
X113884681Y-90698237D01*
X113879408Y-90705222D01*
X113879404Y-90705228D01*
X113786476Y-90891851D01*
X113786470Y-90891866D01*
X113729415Y-91092394D01*
X113729414Y-91092396D01*
X113710178Y-91299999D01*
X111129820Y-91299999D01*
X111110583Y-91092396D01*
X111110582Y-91092394D01*
X111053527Y-90891866D01*
X111053521Y-90891851D01*
X110960595Y-90705232D01*
X110960587Y-90705219D01*
X110955314Y-90698237D01*
X110353554Y-91299999D01*
X110350012Y-91299999D01*
X110350012Y-91253920D01*
X110326159Y-91164901D01*
X110280079Y-91085088D01*
X110214912Y-91019921D01*
X110135099Y-90973841D01*
X110046080Y-90949988D01*
X109953920Y-90949988D01*
X109864901Y-90973841D01*
X109785088Y-91019921D01*
X109719921Y-91085088D01*
X109673841Y-91164901D01*
X109649988Y-91253920D01*
X109600366Y-91253920D01*
X109044683Y-90698237D01*
X109039410Y-90705222D01*
X109039406Y-90705228D01*
X108946478Y-90891851D01*
X108946472Y-90891866D01*
X108889417Y-91092394D01*
X108889416Y-91092396D01*
X108870180Y-91299999D01*
X98138908Y-91299999D01*
X98009254Y-91254631D01*
X98009249Y-91254630D01*
X97830004Y-91234435D01*
X97829996Y-91234435D01*
X97650750Y-91254630D01*
X97650745Y-91254631D01*
X97480476Y-91314211D01*
X97327737Y-91410184D01*
X97200184Y-91537737D01*
X97104211Y-91690476D01*
X97044631Y-91860745D01*
X97044630Y-91860750D01*
X97024435Y-92039996D01*
X93320500Y-92039996D01*
X93320500Y-90347598D01*
X109401152Y-90347598D01*
X110000000Y-90946446D01*
X110000001Y-90946446D01*
X110598847Y-90347598D01*
X114241150Y-90347598D01*
X114839998Y-90946446D01*
X114839999Y-90946446D01*
X115438845Y-90347598D01*
X115343598Y-90288625D01*
X115149186Y-90213310D01*
X114944242Y-90175000D01*
X114735754Y-90175000D01*
X114530810Y-90213310D01*
X114530809Y-90213310D01*
X114336397Y-90288625D01*
X114241150Y-90347598D01*
X110598847Y-90347598D01*
X110503600Y-90288625D01*
X110309188Y-90213310D01*
X110104244Y-90175000D01*
X109895756Y-90175000D01*
X109690812Y-90213310D01*
X109690811Y-90213310D01*
X109496399Y-90288625D01*
X109401152Y-90347598D01*
X93320500Y-90347598D01*
X93320500Y-87376961D01*
X93321280Y-87363077D01*
X93324548Y-87334075D01*
X93331459Y-87272731D01*
X93337635Y-87245670D01*
X93365353Y-87166456D01*
X93377396Y-87141450D01*
X93422046Y-87070389D01*
X93439351Y-87048690D01*
X93498690Y-86989351D01*
X93520389Y-86972046D01*
X93591450Y-86927396D01*
X93616456Y-86915353D01*
X93695670Y-86887635D01*
X93722733Y-86881459D01*
X93785419Y-86874396D01*
X93813079Y-86871280D01*
X93826962Y-86870500D01*
X108105313Y-86870500D01*
X108172352Y-86890185D01*
X108218107Y-86942989D01*
X108228051Y-87012147D01*
X108199026Y-87075703D01*
X108178198Y-87094819D01*
X108070824Y-87172829D01*
X107942823Y-87300830D01*
X107836434Y-87447265D01*
X107754252Y-87608552D01*
X107754251Y-87608555D01*
X107698317Y-87780706D01*
X107670000Y-87959493D01*
X107670000Y-88250000D01*
X108469988Y-88250000D01*
X108469988Y-88750000D01*
X107670000Y-88750000D01*
X107670000Y-89040506D01*
X107698317Y-89219293D01*
X107754251Y-89391444D01*
X107754252Y-89391447D01*
X107836434Y-89552734D01*
X107942823Y-89699169D01*
X108070830Y-89827176D01*
X108217265Y-89933565D01*
X108378552Y-90015747D01*
X108378555Y-90015748D01*
X108550699Y-90071680D01*
X108550712Y-90071683D01*
X108570000Y-90074738D01*
X108570000Y-89145041D01*
X108605088Y-89180129D01*
X108684901Y-89226209D01*
X108773920Y-89250062D01*
X108866080Y-89250062D01*
X108955099Y-89226209D01*
X109034912Y-89180129D01*
X109070000Y-89145041D01*
X109070000Y-90074737D01*
X109089287Y-90071683D01*
X109089300Y-90071680D01*
X109261444Y-90015748D01*
X109261447Y-90015747D01*
X109422734Y-89933565D01*
X109569169Y-89827176D01*
X109697176Y-89699169D01*
X109803565Y-89552734D01*
X109885747Y-89391447D01*
X109885748Y-89391444D01*
X109941682Y-89219293D01*
X109970000Y-89040506D01*
X109970000Y-88750000D01*
X109170012Y-88750000D01*
X109170012Y-88250000D01*
X109970000Y-88250000D01*
X109970000Y-87959493D01*
X109941682Y-87780706D01*
X109885748Y-87608555D01*
X109885747Y-87608552D01*
X109803565Y-87447265D01*
X109697176Y-87300830D01*
X109569175Y-87172829D01*
X109461802Y-87094819D01*
X109419136Y-87039489D01*
X109413157Y-86969876D01*
X109445762Y-86908080D01*
X109506601Y-86873723D01*
X109534687Y-86870500D01*
X115305311Y-86870500D01*
X115372350Y-86890185D01*
X115418105Y-86942989D01*
X115428049Y-87012147D01*
X115399024Y-87075703D01*
X115378196Y-87094819D01*
X115270822Y-87172829D01*
X115142821Y-87300830D01*
X115036432Y-87447265D01*
X114954250Y-87608552D01*
X114954249Y-87608555D01*
X114898315Y-87780706D01*
X114869998Y-87959493D01*
X114869998Y-88250000D01*
X115669986Y-88250000D01*
X115669986Y-88750000D01*
X114869998Y-88750000D01*
X114869998Y-89040506D01*
X114898315Y-89219293D01*
X114954249Y-89391444D01*
X114954250Y-89391447D01*
X115036432Y-89552734D01*
X115142821Y-89699169D01*
X115270828Y-89827176D01*
X115417263Y-89933565D01*
X115578550Y-90015747D01*
X115578553Y-90015748D01*
X115750697Y-90071680D01*
X115750710Y-90071683D01*
X115769998Y-90074738D01*
X115769998Y-89145041D01*
X115805086Y-89180129D01*
X115884899Y-89226209D01*
X115973918Y-89250062D01*
X116066078Y-89250062D01*
X116155097Y-89226209D01*
X116234910Y-89180129D01*
X116269998Y-89145041D01*
X116269998Y-90074737D01*
X116289285Y-90071683D01*
X116289298Y-90071680D01*
X116461442Y-90015748D01*
X116461445Y-90015747D01*
X116622732Y-89933565D01*
X116769167Y-89827176D01*
X116897174Y-89699169D01*
X117003563Y-89552734D01*
X117085745Y-89391447D01*
X117085746Y-89391444D01*
X117141680Y-89219293D01*
X117169998Y-89040506D01*
X117169998Y-88750000D01*
X116370010Y-88750000D01*
X116370010Y-88250000D01*
X117169998Y-88250000D01*
X117169998Y-87959493D01*
X117141680Y-87780706D01*
X117085746Y-87608555D01*
X117085745Y-87608552D01*
X117003563Y-87447265D01*
X116897174Y-87300830D01*
X116769173Y-87172829D01*
X116661800Y-87094819D01*
X116619134Y-87039489D01*
X116613155Y-86969876D01*
X116645760Y-86908080D01*
X116706599Y-86873723D01*
X116734685Y-86870500D01*
X131624596Y-86870500D01*
X131691635Y-86890185D01*
X131737390Y-86942989D01*
X131747334Y-87012147D01*
X131726171Y-87065624D01*
X131686398Y-87122424D01*
X131586570Y-87336507D01*
X131586567Y-87336513D01*
X131529364Y-87549999D01*
X131529364Y-87550000D01*
X132426988Y-87550000D01*
X132394075Y-87607007D01*
X132360000Y-87734174D01*
X132360000Y-87865826D01*
X132394075Y-87992993D01*
X132426988Y-88050000D01*
X131529364Y-88050000D01*
X131586567Y-88263486D01*
X131586570Y-88263492D01*
X131686399Y-88477578D01*
X131821894Y-88671082D01*
X131988917Y-88838105D01*
X132182421Y-88973600D01*
X132396507Y-89073429D01*
X132396516Y-89073433D01*
X132610000Y-89130634D01*
X132610000Y-88233012D01*
X132667007Y-88265925D01*
X132794174Y-88300000D01*
X132925826Y-88300000D01*
X133052993Y-88265925D01*
X133110000Y-88233012D01*
X133110000Y-89130633D01*
X133323483Y-89073433D01*
X133323492Y-89073429D01*
X133537578Y-88973600D01*
X133731078Y-88838108D01*
X133853133Y-88716053D01*
X133914456Y-88682568D01*
X133984148Y-88687552D01*
X134040082Y-88729423D01*
X134056997Y-88760401D01*
X134106202Y-88892328D01*
X134106206Y-88892335D01*
X134192452Y-89007544D01*
X134192455Y-89007547D01*
X134307664Y-89093793D01*
X134307671Y-89093797D01*
X134442517Y-89144091D01*
X134442516Y-89144091D01*
X134449444Y-89144835D01*
X134502127Y-89150500D01*
X136297872Y-89150499D01*
X136357483Y-89144091D01*
X136492331Y-89093796D01*
X136607546Y-89007546D01*
X136693796Y-88892331D01*
X136744091Y-88757483D01*
X136750500Y-88697873D01*
X136750499Y-86902128D01*
X136744091Y-86842517D01*
X136743002Y-86839598D01*
X136693797Y-86707671D01*
X136693793Y-86707664D01*
X136607547Y-86592455D01*
X136607544Y-86592452D01*
X136492335Y-86506206D01*
X136492328Y-86506202D01*
X136357482Y-86455908D01*
X136357483Y-86455908D01*
X136297883Y-86449501D01*
X136297881Y-86449500D01*
X136297873Y-86449500D01*
X136297864Y-86449500D01*
X134502129Y-86449500D01*
X134502123Y-86449501D01*
X134442516Y-86455908D01*
X134307671Y-86506202D01*
X134307664Y-86506206D01*
X134192455Y-86592452D01*
X134192452Y-86592455D01*
X134106206Y-86707664D01*
X134106202Y-86707671D01*
X134056997Y-86839598D01*
X134015126Y-86895532D01*
X133949661Y-86919949D01*
X133881388Y-86905097D01*
X133853134Y-86883946D01*
X133731082Y-86761894D01*
X133537578Y-86626399D01*
X133323492Y-86526570D01*
X133323483Y-86526566D01*
X133095326Y-86465432D01*
X133095316Y-86465430D01*
X133031681Y-86459863D01*
X132966612Y-86434410D01*
X132925634Y-86377819D01*
X132921756Y-86308057D01*
X132935102Y-86274335D01*
X132948648Y-86250872D01*
X132948648Y-86250870D01*
X132948653Y-86250863D01*
X133023924Y-86069137D01*
X133023926Y-86069128D01*
X133025061Y-86066389D01*
X133068901Y-86011985D01*
X133135195Y-85989919D01*
X133137276Y-85989862D01*
X137287447Y-85911557D01*
X137354846Y-85929973D01*
G37*
%TD.AperFunction*%
%TA.AperFunction,Conductor*%
G36*
X101955464Y-127351912D02*
G01*
X101958719Y-127348103D01*
X102094909Y-127125862D01*
X102096787Y-127127013D01*
X102138453Y-127082868D01*
X102206268Y-127066049D01*
X102272410Y-127088564D01*
X102315881Y-127143264D01*
X102325000Y-127189937D01*
X102325000Y-127825500D01*
X102305315Y-127892539D01*
X102252511Y-127938294D01*
X102201000Y-127949500D01*
X101644855Y-127949500D01*
X101577816Y-127929815D01*
X101532061Y-127877011D01*
X101522117Y-127807853D01*
X101551142Y-127744297D01*
X101580066Y-127719772D01*
X101598104Y-127708717D01*
X101601912Y-127705464D01*
X101040562Y-127144114D01*
X101042626Y-127143260D01*
X101181844Y-127050238D01*
X101300238Y-126931844D01*
X101393260Y-126792626D01*
X101394114Y-126790562D01*
X101955464Y-127351912D01*
G37*
%TD.AperFunction*%
%TA.AperFunction,Conductor*%
G36*
X137453182Y-122649175D02*
G01*
X137486666Y-122710499D01*
X137489500Y-122736856D01*
X137489500Y-123426930D01*
X137469815Y-123493969D01*
X137417011Y-123539724D01*
X137347853Y-123549668D01*
X137284297Y-123520643D01*
X137253118Y-123479335D01*
X137198600Y-123362422D01*
X137198599Y-123362420D01*
X137063113Y-123168926D01*
X137063108Y-123168920D01*
X136941053Y-123046865D01*
X136907568Y-122985542D01*
X136912552Y-122915850D01*
X136954424Y-122859917D01*
X136985400Y-122843002D01*
X137117331Y-122793796D01*
X137232546Y-122707546D01*
X137266234Y-122662543D01*
X137322167Y-122620674D01*
X137391859Y-122615690D01*
X137453182Y-122649175D01*
G37*
%TD.AperFunction*%
%TA.AperFunction,Conductor*%
G36*
X115705703Y-117703401D02*
G01*
X115741542Y-117756160D01*
X115774210Y-117849521D01*
X115837045Y-117949522D01*
X115870184Y-118002262D01*
X115997738Y-118129816D01*
X116150478Y-118225789D01*
X116161984Y-118229815D01*
X116320745Y-118285368D01*
X116320750Y-118285369D01*
X116499996Y-118305565D01*
X116500000Y-118305565D01*
X116500001Y-118305565D01*
X116516943Y-118303656D01*
X116572463Y-118297400D01*
X116641284Y-118309454D01*
X116692664Y-118356803D01*
X116706121Y-118388524D01*
X116717374Y-118430521D01*
X116740423Y-118516540D01*
X116741170Y-118517832D01*
X116741187Y-118517861D01*
X116819477Y-118653465D01*
X116819481Y-118653470D01*
X116938349Y-118772338D01*
X116938355Y-118772343D01*
X117597821Y-119431809D01*
X117631306Y-119493132D01*
X117626322Y-119562824D01*
X117584450Y-119618757D01*
X117518986Y-119643174D01*
X117496259Y-119642711D01*
X117485252Y-119641470D01*
X117471300Y-119639899D01*
X117471299Y-119639899D01*
X117471298Y-119639899D01*
X117471296Y-119639899D01*
X117292050Y-119660094D01*
X117292045Y-119660095D01*
X117121776Y-119719675D01*
X116969036Y-119815649D01*
X116957937Y-119826748D01*
X116896612Y-119860231D01*
X116826921Y-119855244D01*
X116782577Y-119826745D01*
X116561319Y-119605487D01*
X116527834Y-119544164D01*
X116525000Y-119517806D01*
X116525000Y-119375000D01*
X116382193Y-119375000D01*
X116315154Y-119355315D01*
X116294512Y-119338681D01*
X115536819Y-118580987D01*
X115503334Y-118519664D01*
X115500500Y-118493306D01*
X115500500Y-117797114D01*
X115520185Y-117730075D01*
X115572989Y-117684320D01*
X115642147Y-117674376D01*
X115705703Y-117703401D01*
G37*
%TD.AperFunction*%
%TA.AperFunction,Conductor*%
G36*
X116026908Y-112225256D02*
G01*
X116034346Y-112232111D01*
X116663181Y-112860945D01*
X116696666Y-112922268D01*
X116699500Y-112948626D01*
X116699500Y-116578156D01*
X116679815Y-116645195D01*
X116627011Y-116690950D01*
X116561618Y-116701377D01*
X116521815Y-116696892D01*
X116500000Y-116694435D01*
X116499998Y-116694435D01*
X116499997Y-116694435D01*
X116499996Y-116694435D01*
X116320750Y-116714630D01*
X116320745Y-116714631D01*
X116150476Y-116774211D01*
X115997737Y-116870184D01*
X115870184Y-116997737D01*
X115774209Y-117150480D01*
X115741541Y-117243840D01*
X115700820Y-117300616D01*
X115635867Y-117326363D01*
X115567305Y-117312907D01*
X115516903Y-117264519D01*
X115500500Y-117202885D01*
X115500500Y-112643706D01*
X115520185Y-112576667D01*
X115558529Y-112538712D01*
X115581000Y-112524593D01*
X115652262Y-112479816D01*
X115779816Y-112352262D01*
X115841671Y-112253819D01*
X115894006Y-112207529D01*
X115963059Y-112196881D01*
X116026908Y-112225256D01*
G37*
%TD.AperFunction*%
%TA.AperFunction,Conductor*%
G36*
X97156451Y-97289007D02*
G01*
X97157737Y-97289815D01*
X97157738Y-97289816D01*
X97310478Y-97385789D01*
X97452184Y-97435374D01*
X97480745Y-97445368D01*
X97480750Y-97445369D01*
X97659996Y-97465565D01*
X97660000Y-97465565D01*
X97660004Y-97465565D01*
X97839249Y-97445369D01*
X97839252Y-97445368D01*
X97839255Y-97445368D01*
X98009522Y-97385789D01*
X98009534Y-97385780D01*
X98015478Y-97382919D01*
X98084417Y-97371558D01*
X98148556Y-97399271D01*
X98166243Y-97417320D01*
X98170180Y-97422258D01*
X98170184Y-97422263D01*
X98170188Y-97422267D01*
X98172448Y-97425101D01*
X98198856Y-97489788D01*
X98199500Y-97502413D01*
X98199500Y-99335501D01*
X98179815Y-99402540D01*
X98127011Y-99448295D01*
X98075500Y-99459501D01*
X97289091Y-99459501D01*
X97222052Y-99439816D01*
X97176711Y-99387910D01*
X97174037Y-99382176D01*
X97174034Y-99382171D01*
X97174033Y-99382170D01*
X97038495Y-99188600D01*
X96916179Y-99066284D01*
X96882696Y-99004964D01*
X96887680Y-98935272D01*
X96929551Y-98879338D01*
X96960529Y-98862423D01*
X97092086Y-98813355D01*
X97092093Y-98813351D01*
X97207187Y-98727191D01*
X97207190Y-98727188D01*
X97293350Y-98612094D01*
X97293354Y-98612087D01*
X97343596Y-98477380D01*
X97343598Y-98477373D01*
X97349999Y-98417845D01*
X97350000Y-98417828D01*
X97350000Y-97770001D01*
X96433012Y-97770001D01*
X96465925Y-97712994D01*
X96500000Y-97585827D01*
X96500000Y-97454175D01*
X96465925Y-97327008D01*
X96433012Y-97270001D01*
X97090479Y-97270001D01*
X97156451Y-97289007D01*
G37*
%TD.AperFunction*%
%TD*%
M02*
