%TF.GenerationSoftware,KiCad,Pcbnew,8.0.9-1.fc41*%
%TF.CreationDate,2025-08-22T18:06:54-04:00*%
%TF.ProjectId,OS-41,4f532d34-312e-46b6-9963-61645f706362,rev?*%
%TF.SameCoordinates,Original*%
%TF.FileFunction,Copper,L3,Inr*%
%TF.FilePolarity,Positive*%
%FSLAX46Y46*%
G04 Gerber Fmt 4.6, Leading zero omitted, Abs format (unit mm)*
G04 Created by KiCad (PCBNEW 8.0.9-1.fc41) date 2025-08-22 18:06:54*
%MOMM*%
%LPD*%
G01*
G04 APERTURE LIST*
%TA.AperFunction,ComponentPad*%
%ADD10R,1.700000X1.700000*%
%TD*%
%TA.AperFunction,ComponentPad*%
%ADD11O,1.700000X1.700000*%
%TD*%
%TA.AperFunction,ComponentPad*%
%ADD12C,2.050000*%
%TD*%
%TA.AperFunction,ComponentPad*%
%ADD13C,2.250000*%
%TD*%
%TA.AperFunction,ViaPad*%
%ADD14C,0.600000*%
%TD*%
%TA.AperFunction,Conductor*%
%ADD15C,0.200000*%
%TD*%
%TA.AperFunction,Conductor*%
%ADD16C,0.100000*%
%TD*%
G04 APERTURE END LIST*
D10*
%TO.N,VCC*%
%TO.C,J2*%
X148200000Y-111960000D03*
D11*
%TO.N,GND*%
X148200000Y-114500000D03*
%TD*%
D12*
%TO.N,Net-(J4-In)*%
%TO.C,J4*%
X132560000Y-129260000D03*
D13*
%TO.N,GND*%
X130020000Y-126720000D03*
X130020000Y-131800000D03*
X135100000Y-126720000D03*
X135100000Y-131800000D03*
%TD*%
D10*
%TO.N,GND*%
%TO.C,J9*%
X126900000Y-106660000D03*
D11*
%TO.N,NRST*%
X126900000Y-109200000D03*
%TD*%
D10*
%TO.N,BATT*%
%TO.C,J3*%
X145225000Y-132000000D03*
D11*
%TO.N,GND*%
X147765000Y-132000000D03*
%TD*%
D10*
%TO.N,VCC*%
%TO.C,J8*%
X126800000Y-96400000D03*
D11*
%TO.N,BOOT0*%
X126800000Y-98940000D03*
%TD*%
D10*
%TO.N,VCC*%
%TO.C,J6*%
X146800000Y-107700000D03*
D11*
%TO.N,SWDIO*%
X146800000Y-105160000D03*
%TO.N,SWCLK*%
X146800000Y-102620001D03*
%TO.N,GND*%
X146800000Y-100080000D03*
%TD*%
D14*
%TO.N,GND*%
X135420000Y-80690000D03*
X133200000Y-106300000D03*
X137750000Y-89000000D03*
X140460000Y-80610000D03*
X146290000Y-83420000D03*
X136800000Y-132500000D03*
X137750000Y-87500000D03*
X146970000Y-84200000D03*
X134100000Y-124000000D03*
X143000000Y-88000000D03*
X145047142Y-79535329D03*
X142000000Y-117700000D03*
X145000000Y-90000000D03*
X135584945Y-79437637D03*
X148900000Y-125000000D03*
X147750000Y-84880000D03*
X139590000Y-114560000D03*
X136448529Y-98900000D03*
X137750000Y-88250000D03*
X141000000Y-88000000D03*
X137400000Y-105800000D03*
X137750000Y-91250000D03*
X139737500Y-105050000D03*
X147000000Y-91000000D03*
X148000000Y-90000000D03*
X149440000Y-83110000D03*
X143000000Y-89000000D03*
X134345735Y-112540000D03*
X149500000Y-81100000D03*
X141743750Y-103043750D03*
X142370000Y-84640000D03*
X145000000Y-89000000D03*
X128600000Y-109600000D03*
X133000000Y-86275001D03*
X142000000Y-92000000D03*
X134680000Y-80720000D03*
X138910000Y-80650000D03*
X138000000Y-107000000D03*
X139000000Y-90000000D03*
X144000000Y-89000000D03*
X140930109Y-82494010D03*
X149250000Y-87000000D03*
X139650000Y-80620000D03*
X142500000Y-117100000D03*
X143000000Y-93000000D03*
X144000000Y-88000000D03*
X133774999Y-102100000D03*
X142500000Y-120100000D03*
X141700000Y-104100000D03*
X142700000Y-94200000D03*
X148000000Y-89000000D03*
X130900000Y-95100000D03*
X137600000Y-96500000D03*
X145500000Y-112800000D03*
X149250000Y-90750000D03*
X149250000Y-95250000D03*
X140000000Y-89000000D03*
X136190000Y-84780000D03*
X139904159Y-114104368D03*
X147000000Y-90000000D03*
X138445934Y-79633021D03*
X138215000Y-113185000D03*
X139000000Y-88000000D03*
X149250000Y-89250000D03*
X145300000Y-111200000D03*
X136480000Y-85950000D03*
X149250000Y-87750000D03*
X142400000Y-122300000D03*
X139000000Y-91000000D03*
X142000000Y-89000000D03*
X144320000Y-81380000D03*
X126400000Y-118000000D03*
X139737500Y-105050000D03*
X128500000Y-103800000D03*
X137750000Y-90500000D03*
X145500000Y-129300000D03*
X148000000Y-91000000D03*
X144130000Y-83850000D03*
X140000000Y-91000000D03*
X146000000Y-91000000D03*
X142000000Y-88000000D03*
X140000000Y-90000000D03*
X133700000Y-104425000D03*
X126450000Y-86375001D03*
X141000000Y-91000000D03*
X142000000Y-90000000D03*
X137301538Y-83666318D03*
X129800000Y-86425001D03*
X143000000Y-90000000D03*
X146000000Y-89000000D03*
X146305000Y-129230000D03*
X144770000Y-84380000D03*
X148857142Y-84433901D03*
X144000000Y-90000000D03*
X138700000Y-132200000D03*
X145000000Y-88000000D03*
X142000000Y-91000000D03*
X142000000Y-93900000D03*
X137750000Y-89750000D03*
X144949450Y-81935769D03*
X138040000Y-85760000D03*
X137750000Y-86750000D03*
X140370000Y-83540000D03*
X145326263Y-85145659D03*
X127000000Y-123900000D03*
X145000000Y-91000000D03*
X139000000Y-89000000D03*
X141000000Y-90000000D03*
X147000000Y-89000000D03*
X141306923Y-84671153D03*
X141810000Y-80690000D03*
X145690000Y-82730000D03*
X149250000Y-88500000D03*
X143360000Y-84460000D03*
X139394945Y-84824670D03*
X137416433Y-102415600D03*
X140000000Y-88000000D03*
X149250000Y-96000000D03*
X133800000Y-125300000D03*
X130700000Y-120100000D03*
X141630000Y-79280000D03*
X136338571Y-83596538D03*
X136950000Y-86820000D03*
X146000000Y-90000000D03*
X141000000Y-89000000D03*
X149250000Y-90000000D03*
X129900000Y-125000000D03*
%TO.N,VCC*%
X126300000Y-115400000D03*
X136300000Y-102100000D03*
X137352083Y-115583421D03*
X136222465Y-100780477D03*
X135700000Y-116600000D03*
X147000000Y-95000000D03*
X140086381Y-110586381D03*
X137400000Y-92612500D03*
X136678335Y-96603578D03*
X147300000Y-119400000D03*
X145000000Y-99800000D03*
X134600000Y-118500000D03*
X146400000Y-117300000D03*
X141085395Y-110584586D03*
X136585802Y-116514198D03*
X130100000Y-116000000D03*
X142100000Y-118900000D03*
X143825014Y-102245978D03*
X143187406Y-108487407D03*
%TO.N,BATT*%
X141100000Y-123900000D03*
X134400000Y-108800000D03*
%TO.N,VREF*%
X130400000Y-112500000D03*
%TO.N,Net-(U7-VCAP1)*%
X141850000Y-109440000D03*
%TO.N,Net-(U6-CSB)*%
X138751471Y-98251471D03*
X141400000Y-100600000D03*
%TO.N,LED_OK*%
X135549006Y-101212283D03*
X127800000Y-93950000D03*
%TO.N,LED_ERR*%
X136600000Y-110000000D03*
X139800000Y-109408664D03*
X134345735Y-109900000D03*
X131000000Y-98100000D03*
%TO.N,SDA*%
X139438832Y-100765266D03*
X134200000Y-97800000D03*
X139700000Y-99200001D03*
%TO.N,Net-(U6-SDO)*%
X140001470Y-98457217D03*
%TO.N,NIRQ*%
X143825014Y-107854024D03*
X135700000Y-111940000D03*
%TO.N,SDO*%
X138600000Y-109400000D03*
X139100000Y-110800000D03*
%TO.N,SDN*%
X136313239Y-115160428D03*
X145025014Y-107900000D03*
%TO.N,RXD*%
X135600000Y-108200000D03*
X140900000Y-97500000D03*
%TO.N,TXD*%
X136958321Y-109176539D03*
X140100277Y-97478956D03*
%TD*%
D15*
%TO.N,VCC*%
X143800000Y-109900000D02*
X143319184Y-109900000D01*
X143187406Y-109768222D02*
X143187406Y-108487407D01*
X139700000Y-113460000D02*
X137490000Y-115670000D01*
X143319184Y-109900000D02*
X142569239Y-109900000D01*
X148200000Y-111960000D02*
X148200000Y-109100000D01*
X137490000Y-115670000D02*
X136630000Y-115670000D01*
X139700000Y-112769239D02*
X139700000Y-113460000D01*
X142569239Y-109900000D02*
X139700000Y-112769239D01*
X143319184Y-109900000D02*
X143187406Y-109768222D01*
X136630000Y-115670000D02*
X135700000Y-116600000D01*
X148200000Y-109100000D02*
X146800000Y-107700000D01*
X146800000Y-107700000D02*
X144600000Y-109900000D01*
X144600000Y-109900000D02*
X143800000Y-109900000D01*
D16*
%TO.N,Net-(U6-CSB)*%
X138751471Y-98251471D02*
X138751471Y-99029289D01*
X140322182Y-100600000D02*
X141400000Y-100600000D01*
X138751471Y-99029289D02*
X140322182Y-100600000D01*
%TD*%
%TA.AperFunction,Conductor*%
%TO.N,VCC*%
G36*
X148143778Y-76934399D02*
G01*
X148189533Y-76987203D01*
X148199477Y-77056361D01*
X148170452Y-77119917D01*
X148164420Y-77126395D01*
X148048032Y-77242782D01*
X148048028Y-77242786D01*
X147927715Y-77408386D01*
X147834781Y-77590776D01*
X147771522Y-77785465D01*
X147739500Y-77987648D01*
X147739500Y-78192351D01*
X147771522Y-78394534D01*
X147834781Y-78589223D01*
X147927715Y-78771613D01*
X148048028Y-78937213D01*
X148192786Y-79081971D01*
X148347749Y-79194556D01*
X148358390Y-79202287D01*
X148453753Y-79250877D01*
X148540776Y-79295218D01*
X148540778Y-79295218D01*
X148540781Y-79295220D01*
X148645137Y-79329127D01*
X148735465Y-79358477D01*
X148836557Y-79374488D01*
X148937648Y-79390500D01*
X148937649Y-79390500D01*
X149142351Y-79390500D01*
X149142352Y-79390500D01*
X149344534Y-79358477D01*
X149539219Y-79295220D01*
X149721610Y-79202287D01*
X149887219Y-79081966D01*
X149887218Y-79081966D01*
X149887785Y-79081555D01*
X149953591Y-79058075D01*
X150021645Y-79073901D01*
X150070340Y-79124006D01*
X150084670Y-79181972D01*
X150083473Y-80676722D01*
X150063735Y-80743746D01*
X150010894Y-80789459D01*
X149941728Y-80799347D01*
X149878195Y-80770271D01*
X149865768Y-80757834D01*
X149831128Y-80717857D01*
X149831127Y-80717856D01*
X149831126Y-80717855D01*
X149725540Y-80650000D01*
X149710053Y-80640047D01*
X149710051Y-80640046D01*
X149710049Y-80640045D01*
X149710050Y-80640045D01*
X149571963Y-80599500D01*
X149571961Y-80599500D01*
X149428039Y-80599500D01*
X149428036Y-80599500D01*
X149289949Y-80640045D01*
X149168873Y-80717856D01*
X149074623Y-80826626D01*
X149074622Y-80826628D01*
X149014834Y-80957543D01*
X148994353Y-81100000D01*
X149014834Y-81242456D01*
X149015611Y-81244157D01*
X149074623Y-81373373D01*
X149168872Y-81482143D01*
X149289947Y-81559953D01*
X149289950Y-81559954D01*
X149289949Y-81559954D01*
X149428036Y-81600499D01*
X149428038Y-81600500D01*
X149428039Y-81600500D01*
X149571962Y-81600500D01*
X149571962Y-81600499D01*
X149710053Y-81559953D01*
X149831128Y-81482143D01*
X149865081Y-81442957D01*
X149923857Y-81405183D01*
X149993727Y-81405182D01*
X150052506Y-81442956D01*
X150081532Y-81506511D01*
X150082794Y-81524259D01*
X150081810Y-82754046D01*
X150062072Y-82821070D01*
X150009231Y-82866783D01*
X149940065Y-82876671D01*
X149876532Y-82847595D01*
X149864097Y-82835150D01*
X149814450Y-82777854D01*
X149771128Y-82727857D01*
X149650053Y-82650047D01*
X149650051Y-82650046D01*
X149650049Y-82650045D01*
X149650050Y-82650045D01*
X149511963Y-82609500D01*
X149511961Y-82609500D01*
X149368039Y-82609500D01*
X149368036Y-82609500D01*
X149229949Y-82650045D01*
X149108873Y-82727856D01*
X149014623Y-82836626D01*
X149014622Y-82836628D01*
X148954834Y-82967543D01*
X148934353Y-83110000D01*
X148954834Y-83252456D01*
X149000490Y-83352427D01*
X149014623Y-83383373D01*
X149108872Y-83492143D01*
X149229947Y-83569953D01*
X149229950Y-83569954D01*
X149229949Y-83569954D01*
X149368036Y-83610499D01*
X149368038Y-83610500D01*
X149368039Y-83610500D01*
X149511962Y-83610500D01*
X149511962Y-83610499D01*
X149650053Y-83569953D01*
X149771128Y-83492143D01*
X149863526Y-83385508D01*
X149922304Y-83347734D01*
X149992173Y-83347734D01*
X150050952Y-83385508D01*
X150079977Y-83449063D01*
X150081239Y-83466810D01*
X150042058Y-132395706D01*
X150042000Y-132396604D01*
X150042000Y-132465565D01*
X150041684Y-132474411D01*
X150027369Y-132674556D01*
X150024851Y-132692068D01*
X149983146Y-132883787D01*
X149978162Y-132900763D01*
X149909590Y-133084609D01*
X149902240Y-133100701D01*
X149808211Y-133272904D01*
X149798646Y-133287789D01*
X149681058Y-133444867D01*
X149669472Y-133458237D01*
X149530737Y-133596972D01*
X149517367Y-133608558D01*
X149360289Y-133726146D01*
X149345404Y-133735711D01*
X149173201Y-133829740D01*
X149157109Y-133837090D01*
X148973263Y-133905662D01*
X148956287Y-133910646D01*
X148764568Y-133952351D01*
X148747057Y-133954869D01*
X148566279Y-133967799D01*
X148546917Y-133969184D01*
X148538072Y-133969500D01*
X126461928Y-133969500D01*
X126453082Y-133969184D01*
X126431122Y-133967613D01*
X126252942Y-133954869D01*
X126235431Y-133952351D01*
X126043712Y-133910646D01*
X126026736Y-133905662D01*
X125842890Y-133837090D01*
X125826798Y-133829740D01*
X125654595Y-133735711D01*
X125639710Y-133726146D01*
X125482632Y-133608558D01*
X125469262Y-133596972D01*
X125330527Y-133458237D01*
X125318941Y-133444867D01*
X125201349Y-133287784D01*
X125191788Y-133272904D01*
X125097759Y-133100701D01*
X125090409Y-133084609D01*
X125077687Y-133050500D01*
X125021834Y-132900755D01*
X125016855Y-132883797D01*
X124975147Y-132692063D01*
X124972630Y-132674556D01*
X124970954Y-132651119D01*
X124958318Y-132474452D01*
X124958003Y-132465539D01*
X124958536Y-131799998D01*
X128689437Y-131799998D01*
X128689437Y-131800001D01*
X128709650Y-132031044D01*
X128709651Y-132031051D01*
X128769678Y-132255074D01*
X128769679Y-132255076D01*
X128769680Y-132255079D01*
X128867699Y-132465282D01*
X129000730Y-132655269D01*
X129164731Y-132819270D01*
X129354718Y-132952301D01*
X129564921Y-133050320D01*
X129788950Y-133110349D01*
X129953985Y-133124787D01*
X130019998Y-133130563D01*
X130020000Y-133130563D01*
X130020002Y-133130563D01*
X130077762Y-133125509D01*
X130251050Y-133110349D01*
X130475079Y-133050320D01*
X130685282Y-132952301D01*
X130875269Y-132819270D01*
X131039270Y-132655269D01*
X131172301Y-132465282D01*
X131270320Y-132255079D01*
X131330349Y-132031050D01*
X131350563Y-131800000D01*
X131350563Y-131799998D01*
X133769437Y-131799998D01*
X133769437Y-131800001D01*
X133789650Y-132031044D01*
X133789651Y-132031051D01*
X133849678Y-132255074D01*
X133849679Y-132255076D01*
X133849680Y-132255079D01*
X133947699Y-132465282D01*
X134080730Y-132655269D01*
X134244731Y-132819270D01*
X134434718Y-132952301D01*
X134644921Y-133050320D01*
X134868950Y-133110349D01*
X135033985Y-133124787D01*
X135099998Y-133130563D01*
X135100000Y-133130563D01*
X135100002Y-133130563D01*
X135157762Y-133125509D01*
X135331050Y-133110349D01*
X135555079Y-133050320D01*
X135765282Y-132952301D01*
X135955269Y-132819270D01*
X136119270Y-132655269D01*
X136119277Y-132655258D01*
X136122752Y-132651119D01*
X136124521Y-132652604D01*
X136171381Y-132615117D01*
X136240876Y-132607895D01*
X136303244Y-132639392D01*
X136331219Y-132678332D01*
X136374623Y-132773373D01*
X136468872Y-132882143D01*
X136589947Y-132959953D01*
X136589950Y-132959954D01*
X136589949Y-132959954D01*
X136728036Y-133000499D01*
X136728038Y-133000500D01*
X136728039Y-133000500D01*
X136871962Y-133000500D01*
X136871962Y-133000499D01*
X137010053Y-132959953D01*
X137131128Y-132882143D01*
X137225377Y-132773373D01*
X137285165Y-132642457D01*
X137305647Y-132500000D01*
X137285165Y-132357543D01*
X137225377Y-132226627D01*
X137202305Y-132200000D01*
X138194353Y-132200000D01*
X138214834Y-132342456D01*
X138273086Y-132470007D01*
X138274623Y-132473373D01*
X138368872Y-132582143D01*
X138489947Y-132659953D01*
X138489950Y-132659954D01*
X138489949Y-132659954D01*
X138628036Y-132700499D01*
X138628038Y-132700500D01*
X138628039Y-132700500D01*
X138771962Y-132700500D01*
X138771962Y-132700499D01*
X138910053Y-132659953D01*
X139031128Y-132582143D01*
X139125377Y-132473373D01*
X139185165Y-132342457D01*
X139205647Y-132200000D01*
X139185165Y-132057543D01*
X139125377Y-131926627D01*
X139031128Y-131817857D01*
X138910053Y-131740047D01*
X138910051Y-131740046D01*
X138910049Y-131740045D01*
X138910050Y-131740045D01*
X138771963Y-131699500D01*
X138771961Y-131699500D01*
X138628039Y-131699500D01*
X138628036Y-131699500D01*
X138489949Y-131740045D01*
X138368873Y-131817856D01*
X138274623Y-131926626D01*
X138274622Y-131926628D01*
X138214834Y-132057543D01*
X138194353Y-132200000D01*
X137202305Y-132200000D01*
X137131128Y-132117857D01*
X137010053Y-132040047D01*
X137010051Y-132040046D01*
X137010049Y-132040045D01*
X137010050Y-132040045D01*
X136871963Y-131999500D01*
X136871961Y-131999500D01*
X136728039Y-131999500D01*
X136728036Y-131999500D01*
X136581437Y-132042545D01*
X136580576Y-132039613D01*
X136526473Y-132047387D01*
X136462920Y-132018357D01*
X136425151Y-131959575D01*
X136420603Y-131913844D01*
X136430563Y-131800001D01*
X136430563Y-131799998D01*
X136424787Y-131733985D01*
X136410349Y-131568950D01*
X136350320Y-131344921D01*
X136252301Y-131134719D01*
X136252299Y-131134716D01*
X136252298Y-131134714D01*
X136249170Y-131130247D01*
X144174500Y-131130247D01*
X144174500Y-132869752D01*
X144186131Y-132928229D01*
X144186132Y-132928230D01*
X144230447Y-132994552D01*
X144296769Y-133038867D01*
X144296770Y-133038868D01*
X144355247Y-133050499D01*
X144355250Y-133050500D01*
X144355252Y-133050500D01*
X146094750Y-133050500D01*
X146094751Y-133050499D01*
X146109568Y-133047552D01*
X146153229Y-133038868D01*
X146153229Y-133038867D01*
X146153231Y-133038867D01*
X146219552Y-132994552D01*
X146263867Y-132928231D01*
X146263867Y-132928229D01*
X146263868Y-132928229D01*
X146275499Y-132869752D01*
X146275500Y-132869750D01*
X146275500Y-132000000D01*
X146709417Y-132000000D01*
X146729699Y-132205932D01*
X146735977Y-132226627D01*
X146789768Y-132403954D01*
X146887315Y-132586450D01*
X146910841Y-132615117D01*
X147018589Y-132746410D01*
X147107369Y-132819269D01*
X147178550Y-132877685D01*
X147361046Y-132975232D01*
X147559066Y-133035300D01*
X147559065Y-133035300D01*
X147577529Y-133037118D01*
X147765000Y-133055583D01*
X147970934Y-133035300D01*
X148168954Y-132975232D01*
X148351450Y-132877685D01*
X148511410Y-132746410D01*
X148642685Y-132586450D01*
X148740232Y-132403954D01*
X148800300Y-132205934D01*
X148820583Y-132000000D01*
X148800300Y-131794066D01*
X148740232Y-131596046D01*
X148642685Y-131413550D01*
X148586360Y-131344917D01*
X148511410Y-131253589D01*
X148361121Y-131130252D01*
X148351450Y-131122315D01*
X148168954Y-131024768D01*
X147970934Y-130964700D01*
X147970932Y-130964699D01*
X147970934Y-130964699D01*
X147765000Y-130944417D01*
X147559067Y-130964699D01*
X147361043Y-131024769D01*
X147273114Y-131071769D01*
X147178550Y-131122315D01*
X147178548Y-131122316D01*
X147178547Y-131122317D01*
X147018589Y-131253589D01*
X146887317Y-131413547D01*
X146789769Y-131596043D01*
X146729699Y-131794067D01*
X146709417Y-132000000D01*
X146275500Y-132000000D01*
X146275500Y-131130249D01*
X146275499Y-131130247D01*
X146263868Y-131071770D01*
X146263867Y-131071769D01*
X146219552Y-131005447D01*
X146153230Y-130961132D01*
X146153229Y-130961131D01*
X146094752Y-130949500D01*
X146094748Y-130949500D01*
X144355252Y-130949500D01*
X144355247Y-130949500D01*
X144296770Y-130961131D01*
X144296769Y-130961132D01*
X144230447Y-131005447D01*
X144186132Y-131071769D01*
X144186131Y-131071770D01*
X144174500Y-131130247D01*
X136249170Y-131130247D01*
X136119273Y-130944735D01*
X136119268Y-130944729D01*
X135955269Y-130780730D01*
X135955263Y-130780726D01*
X135765282Y-130647699D01*
X135555079Y-130549680D01*
X135555076Y-130549679D01*
X135555074Y-130549678D01*
X135331051Y-130489651D01*
X135331044Y-130489650D01*
X135100002Y-130469437D01*
X135099998Y-130469437D01*
X134868955Y-130489650D01*
X134868948Y-130489651D01*
X134644917Y-130549681D01*
X134434718Y-130647699D01*
X134434714Y-130647701D01*
X134244735Y-130780726D01*
X134244729Y-130780731D01*
X134080731Y-130944729D01*
X134080726Y-130944735D01*
X133947701Y-131134714D01*
X133947699Y-131134718D01*
X133849681Y-131344917D01*
X133789651Y-131568948D01*
X133789650Y-131568955D01*
X133769437Y-131799998D01*
X131350563Y-131799998D01*
X131330349Y-131568950D01*
X131270320Y-131344921D01*
X131172301Y-131134719D01*
X131172299Y-131134716D01*
X131172298Y-131134714D01*
X131039273Y-130944735D01*
X131039268Y-130944729D01*
X130875269Y-130780730D01*
X130875263Y-130780726D01*
X130685282Y-130647699D01*
X130475079Y-130549680D01*
X130475076Y-130549679D01*
X130475074Y-130549678D01*
X130251051Y-130489651D01*
X130251044Y-130489650D01*
X130020002Y-130469437D01*
X130019998Y-130469437D01*
X129788955Y-130489650D01*
X129788948Y-130489651D01*
X129564917Y-130549681D01*
X129354718Y-130647699D01*
X129354714Y-130647701D01*
X129164735Y-130780726D01*
X129164729Y-130780731D01*
X129000731Y-130944729D01*
X129000726Y-130944735D01*
X128867701Y-131134714D01*
X128867699Y-131134718D01*
X128769681Y-131344917D01*
X128709651Y-131568948D01*
X128709650Y-131568955D01*
X128689437Y-131799998D01*
X124958536Y-131799998D01*
X124960570Y-129259998D01*
X131329819Y-129259998D01*
X131329819Y-129260001D01*
X131348507Y-129473613D01*
X131348509Y-129473624D01*
X131404005Y-129680739D01*
X131404007Y-129680743D01*
X131404008Y-129680747D01*
X131427208Y-129730499D01*
X131494631Y-129875090D01*
X131494632Y-129875091D01*
X131617627Y-130050745D01*
X131769255Y-130202373D01*
X131944909Y-130325368D01*
X132139253Y-130415992D01*
X132346381Y-130471492D01*
X132498966Y-130484841D01*
X132559998Y-130490181D01*
X132560000Y-130490181D01*
X132560002Y-130490181D01*
X132613404Y-130485508D01*
X132773619Y-130471492D01*
X132980747Y-130415992D01*
X133175091Y-130325368D01*
X133350745Y-130202373D01*
X133502373Y-130050745D01*
X133625368Y-129875091D01*
X133715992Y-129680747D01*
X133771492Y-129473619D01*
X133786681Y-129300000D01*
X144994353Y-129300000D01*
X145014834Y-129442456D01*
X145069480Y-129562111D01*
X145074623Y-129573373D01*
X145168872Y-129682143D01*
X145289947Y-129759953D01*
X145289950Y-129759954D01*
X145289949Y-129759954D01*
X145428036Y-129800499D01*
X145428038Y-129800500D01*
X145428039Y-129800500D01*
X145571962Y-129800500D01*
X145571962Y-129800499D01*
X145710053Y-129759953D01*
X145831128Y-129682143D01*
X145850784Y-129659458D01*
X145909558Y-129621686D01*
X145979427Y-129621684D01*
X146011532Y-129636345D01*
X146059565Y-129667214D01*
X146094948Y-129689954D01*
X146233036Y-129730499D01*
X146233038Y-129730500D01*
X146233039Y-129730500D01*
X146376962Y-129730500D01*
X146376962Y-129730499D01*
X146515053Y-129689953D01*
X146636128Y-129612143D01*
X146730377Y-129503373D01*
X146790165Y-129372457D01*
X146810647Y-129230000D01*
X146790165Y-129087543D01*
X146730377Y-128956627D01*
X146636128Y-128847857D01*
X146515053Y-128770047D01*
X146515051Y-128770046D01*
X146515049Y-128770045D01*
X146515050Y-128770045D01*
X146376963Y-128729500D01*
X146376961Y-128729500D01*
X146233039Y-128729500D01*
X146233036Y-128729500D01*
X146094949Y-128770045D01*
X145973872Y-128847856D01*
X145954216Y-128870541D01*
X145895437Y-128908315D01*
X145825567Y-128908314D01*
X145793464Y-128893652D01*
X145710053Y-128840047D01*
X145710052Y-128840046D01*
X145710051Y-128840046D01*
X145710050Y-128840045D01*
X145571963Y-128799500D01*
X145571961Y-128799500D01*
X145428039Y-128799500D01*
X145428036Y-128799500D01*
X145289949Y-128840045D01*
X145168873Y-128917856D01*
X145074623Y-129026626D01*
X145074622Y-129026628D01*
X145014834Y-129157543D01*
X144994353Y-129300000D01*
X133786681Y-129300000D01*
X133790181Y-129260000D01*
X133771492Y-129046381D01*
X133724376Y-128870541D01*
X133715994Y-128839260D01*
X133715993Y-128839259D01*
X133715992Y-128839253D01*
X133625368Y-128644910D01*
X133502373Y-128469255D01*
X133350745Y-128317627D01*
X133175091Y-128194632D01*
X133175092Y-128194632D01*
X133175090Y-128194631D01*
X133077919Y-128149320D01*
X132980747Y-128104008D01*
X132980743Y-128104007D01*
X132980739Y-128104005D01*
X132773624Y-128048509D01*
X132773620Y-128048508D01*
X132773619Y-128048508D01*
X132773618Y-128048507D01*
X132773613Y-128048507D01*
X132560002Y-128029819D01*
X132559998Y-128029819D01*
X132346386Y-128048507D01*
X132346375Y-128048509D01*
X132139260Y-128104005D01*
X132139251Y-128104009D01*
X131944910Y-128194631D01*
X131944908Y-128194632D01*
X131769259Y-128317623D01*
X131769253Y-128317628D01*
X131617628Y-128469253D01*
X131617623Y-128469259D01*
X131494632Y-128644908D01*
X131494631Y-128644910D01*
X131404009Y-128839251D01*
X131404005Y-128839260D01*
X131348509Y-129046375D01*
X131348507Y-129046386D01*
X131329819Y-129259998D01*
X124960570Y-129259998D01*
X124962604Y-126719998D01*
X128689437Y-126719998D01*
X128689437Y-126720001D01*
X128709650Y-126951044D01*
X128709651Y-126951051D01*
X128769678Y-127175074D01*
X128769679Y-127175076D01*
X128769680Y-127175079D01*
X128867699Y-127385282D01*
X129000730Y-127575269D01*
X129164731Y-127739270D01*
X129354718Y-127872301D01*
X129564921Y-127970320D01*
X129788950Y-128030349D01*
X129953985Y-128044787D01*
X130019998Y-128050563D01*
X130020000Y-128050563D01*
X130020002Y-128050563D01*
X130077762Y-128045509D01*
X130251050Y-128030349D01*
X130475079Y-127970320D01*
X130685282Y-127872301D01*
X130875269Y-127739270D01*
X131039270Y-127575269D01*
X131172301Y-127385282D01*
X131270320Y-127175079D01*
X131330349Y-126951050D01*
X131350563Y-126720000D01*
X131330349Y-126488950D01*
X131270320Y-126264921D01*
X131172301Y-126054719D01*
X131172299Y-126054716D01*
X131172298Y-126054714D01*
X131039273Y-125864735D01*
X131039268Y-125864729D01*
X130875269Y-125700730D01*
X130848724Y-125682143D01*
X130685282Y-125567699D01*
X130475079Y-125469680D01*
X130475076Y-125469679D01*
X130403418Y-125450478D01*
X130343758Y-125414112D01*
X130313230Y-125351265D01*
X130319360Y-125300000D01*
X133294353Y-125300000D01*
X133314834Y-125442456D01*
X133370825Y-125565057D01*
X133374623Y-125573373D01*
X133468872Y-125682143D01*
X133589947Y-125759953D01*
X133589950Y-125759954D01*
X133589949Y-125759954D01*
X133728036Y-125800499D01*
X133728038Y-125800500D01*
X133880830Y-125800500D01*
X133880830Y-125802166D01*
X133939759Y-125810638D01*
X133992564Y-125856391D01*
X134012250Y-125923430D01*
X133992567Y-125990470D01*
X133989825Y-125994556D01*
X133947701Y-126054714D01*
X133947699Y-126054718D01*
X133849681Y-126264917D01*
X133789651Y-126488948D01*
X133789650Y-126488955D01*
X133769437Y-126719998D01*
X133769437Y-126720001D01*
X133789650Y-126951044D01*
X133789651Y-126951051D01*
X133849678Y-127175074D01*
X133849679Y-127175076D01*
X133849680Y-127175079D01*
X133947699Y-127385282D01*
X134080730Y-127575269D01*
X134244731Y-127739270D01*
X134434718Y-127872301D01*
X134644921Y-127970320D01*
X134868950Y-128030349D01*
X135033985Y-128044787D01*
X135099998Y-128050563D01*
X135100000Y-128050563D01*
X135100002Y-128050563D01*
X135157762Y-128045509D01*
X135331050Y-128030349D01*
X135555079Y-127970320D01*
X135765282Y-127872301D01*
X135955269Y-127739270D01*
X136119270Y-127575269D01*
X136252301Y-127385282D01*
X136350320Y-127175079D01*
X136410349Y-126951050D01*
X136430563Y-126720000D01*
X136410349Y-126488950D01*
X136350320Y-126264921D01*
X136252301Y-126054719D01*
X136252299Y-126054716D01*
X136252298Y-126054714D01*
X136119273Y-125864735D01*
X136119268Y-125864729D01*
X135955269Y-125700730D01*
X135928724Y-125682143D01*
X135765282Y-125567699D01*
X135555079Y-125469680D01*
X135555076Y-125469679D01*
X135555074Y-125469678D01*
X135331051Y-125409651D01*
X135331044Y-125409650D01*
X135100002Y-125389437D01*
X135099998Y-125389437D01*
X134868955Y-125409650D01*
X134868948Y-125409651D01*
X134743842Y-125443174D01*
X134644921Y-125469680D01*
X134644919Y-125469680D01*
X134644915Y-125469682D01*
X134462883Y-125554565D01*
X134393806Y-125565057D01*
X134330022Y-125536537D01*
X134291783Y-125478060D01*
X134287741Y-125424538D01*
X134305647Y-125300000D01*
X134285165Y-125157543D01*
X134225377Y-125026627D01*
X134202305Y-125000000D01*
X148394353Y-125000000D01*
X148414834Y-125142456D01*
X148474622Y-125273371D01*
X148474623Y-125273373D01*
X148568872Y-125382143D01*
X148689947Y-125459953D01*
X148689950Y-125459954D01*
X148689949Y-125459954D01*
X148828036Y-125500499D01*
X148828038Y-125500500D01*
X148828039Y-125500500D01*
X148971962Y-125500500D01*
X148971962Y-125500499D01*
X149110053Y-125459953D01*
X149231128Y-125382143D01*
X149325377Y-125273373D01*
X149385165Y-125142457D01*
X149405647Y-125000000D01*
X149385165Y-124857543D01*
X149325377Y-124726627D01*
X149231128Y-124617857D01*
X149110053Y-124540047D01*
X149110051Y-124540046D01*
X149110049Y-124540045D01*
X149110050Y-124540045D01*
X148971963Y-124499500D01*
X148971961Y-124499500D01*
X148828039Y-124499500D01*
X148828036Y-124499500D01*
X148689949Y-124540045D01*
X148568873Y-124617856D01*
X148474623Y-124726626D01*
X148474622Y-124726628D01*
X148414834Y-124857543D01*
X148394353Y-125000000D01*
X134202305Y-125000000D01*
X134131128Y-124917857D01*
X134010053Y-124840047D01*
X134010051Y-124840046D01*
X134010049Y-124840045D01*
X134010050Y-124840045D01*
X133871963Y-124799500D01*
X133871961Y-124799500D01*
X133728039Y-124799500D01*
X133728036Y-124799500D01*
X133589949Y-124840045D01*
X133468873Y-124917856D01*
X133374623Y-125026626D01*
X133374622Y-125026628D01*
X133314834Y-125157543D01*
X133294353Y-125300000D01*
X130319360Y-125300000D01*
X130321525Y-125281889D01*
X130322719Y-125279191D01*
X130325374Y-125273375D01*
X130325377Y-125273373D01*
X130385165Y-125142457D01*
X130405647Y-125000000D01*
X130385165Y-124857543D01*
X130325377Y-124726627D01*
X130231128Y-124617857D01*
X130110053Y-124540047D01*
X130110051Y-124540046D01*
X130110049Y-124540045D01*
X130110050Y-124540045D01*
X129971963Y-124499500D01*
X129971961Y-124499500D01*
X129828039Y-124499500D01*
X129828036Y-124499500D01*
X129689949Y-124540045D01*
X129568873Y-124617856D01*
X129474623Y-124726626D01*
X129474622Y-124726628D01*
X129414834Y-124857543D01*
X129394353Y-125000000D01*
X129414834Y-125142456D01*
X129474622Y-125273371D01*
X129474625Y-125273377D01*
X129514176Y-125319021D01*
X129543201Y-125382577D01*
X129533257Y-125451735D01*
X129487502Y-125504539D01*
X129472868Y-125512605D01*
X129354718Y-125567699D01*
X129354714Y-125567701D01*
X129164735Y-125700726D01*
X129164729Y-125700731D01*
X129000731Y-125864729D01*
X129000726Y-125864735D01*
X128867701Y-126054714D01*
X128867699Y-126054718D01*
X128769681Y-126264917D01*
X128709651Y-126488948D01*
X128709650Y-126488955D01*
X128689437Y-126719998D01*
X124962604Y-126719998D01*
X124964862Y-123900000D01*
X126494353Y-123900000D01*
X126514834Y-124042456D01*
X126560504Y-124142457D01*
X126574623Y-124173373D01*
X126668872Y-124282143D01*
X126789947Y-124359953D01*
X126789950Y-124359954D01*
X126789949Y-124359954D01*
X126928036Y-124400499D01*
X126928038Y-124400500D01*
X126928039Y-124400500D01*
X127071962Y-124400500D01*
X127071962Y-124400499D01*
X127210053Y-124359953D01*
X127331128Y-124282143D01*
X127425377Y-124173373D01*
X127485165Y-124042457D01*
X127491269Y-124000000D01*
X133594353Y-124000000D01*
X133614834Y-124142456D01*
X133628953Y-124173371D01*
X133674623Y-124273373D01*
X133768872Y-124382143D01*
X133889947Y-124459953D01*
X133889950Y-124459954D01*
X133889949Y-124459954D01*
X133997107Y-124491417D01*
X134024633Y-124499500D01*
X134028036Y-124500499D01*
X134028038Y-124500500D01*
X134028039Y-124500500D01*
X134171962Y-124500500D01*
X134171962Y-124500499D01*
X134310053Y-124459953D01*
X134431128Y-124382143D01*
X134525377Y-124273373D01*
X134585165Y-124142457D01*
X134605647Y-124000000D01*
X134591269Y-123900000D01*
X140594353Y-123900000D01*
X140614834Y-124042456D01*
X140660504Y-124142457D01*
X140674623Y-124173373D01*
X140768872Y-124282143D01*
X140889947Y-124359953D01*
X140889950Y-124359954D01*
X140889949Y-124359954D01*
X141028036Y-124400499D01*
X141028038Y-124400500D01*
X141028039Y-124400500D01*
X141171962Y-124400500D01*
X141171962Y-124400499D01*
X141310053Y-124359953D01*
X141431128Y-124282143D01*
X141525377Y-124173373D01*
X141585165Y-124042457D01*
X141605647Y-123900000D01*
X141585165Y-123757543D01*
X141525377Y-123626627D01*
X141431128Y-123517857D01*
X141310053Y-123440047D01*
X141310051Y-123440046D01*
X141310049Y-123440045D01*
X141310050Y-123440045D01*
X141171963Y-123399500D01*
X141171961Y-123399500D01*
X141028039Y-123399500D01*
X141028036Y-123399500D01*
X140889949Y-123440045D01*
X140768873Y-123517856D01*
X140674623Y-123626626D01*
X140674622Y-123626628D01*
X140614834Y-123757543D01*
X140594353Y-123900000D01*
X134591269Y-123900000D01*
X134585165Y-123857543D01*
X134525377Y-123726627D01*
X134431128Y-123617857D01*
X134310053Y-123540047D01*
X134310051Y-123540046D01*
X134310049Y-123540045D01*
X134310050Y-123540045D01*
X134171963Y-123499500D01*
X134171961Y-123499500D01*
X134028039Y-123499500D01*
X134028036Y-123499500D01*
X133889949Y-123540045D01*
X133768873Y-123617856D01*
X133674623Y-123726626D01*
X133674622Y-123726628D01*
X133614834Y-123857543D01*
X133594353Y-124000000D01*
X127491269Y-124000000D01*
X127505647Y-123900000D01*
X127485165Y-123757543D01*
X127425377Y-123626627D01*
X127331128Y-123517857D01*
X127210053Y-123440047D01*
X127210051Y-123440046D01*
X127210049Y-123440045D01*
X127210050Y-123440045D01*
X127071963Y-123399500D01*
X127071961Y-123399500D01*
X126928039Y-123399500D01*
X126928036Y-123399500D01*
X126789949Y-123440045D01*
X126668873Y-123517856D01*
X126574623Y-123626626D01*
X126574622Y-123626628D01*
X126514834Y-123757543D01*
X126494353Y-123900000D01*
X124964862Y-123900000D01*
X124966143Y-122300000D01*
X141894353Y-122300000D01*
X141914834Y-122442456D01*
X141974622Y-122573371D01*
X141974623Y-122573373D01*
X142068872Y-122682143D01*
X142189947Y-122759953D01*
X142189950Y-122759954D01*
X142189949Y-122759954D01*
X142328036Y-122800499D01*
X142328038Y-122800500D01*
X142328039Y-122800500D01*
X142471962Y-122800500D01*
X142471962Y-122800499D01*
X142610053Y-122759953D01*
X142731128Y-122682143D01*
X142825377Y-122573373D01*
X142885165Y-122442457D01*
X142905647Y-122300000D01*
X142885165Y-122157543D01*
X142825377Y-122026627D01*
X142731128Y-121917857D01*
X142610053Y-121840047D01*
X142610051Y-121840046D01*
X142610049Y-121840045D01*
X142610050Y-121840045D01*
X142471963Y-121799500D01*
X142471961Y-121799500D01*
X142328039Y-121799500D01*
X142328036Y-121799500D01*
X142189949Y-121840045D01*
X142068873Y-121917856D01*
X141974623Y-122026626D01*
X141974622Y-122026628D01*
X141914834Y-122157543D01*
X141894353Y-122300000D01*
X124966143Y-122300000D01*
X124967905Y-120100000D01*
X130194353Y-120100000D01*
X130214834Y-120242456D01*
X130274622Y-120373371D01*
X130274623Y-120373373D01*
X130368872Y-120482143D01*
X130489947Y-120559953D01*
X130489950Y-120559954D01*
X130489949Y-120559954D01*
X130628036Y-120600499D01*
X130628038Y-120600500D01*
X130628039Y-120600500D01*
X130771962Y-120600500D01*
X130771962Y-120600499D01*
X130910053Y-120559953D01*
X131031128Y-120482143D01*
X131125377Y-120373373D01*
X131185165Y-120242457D01*
X131205647Y-120100000D01*
X141994353Y-120100000D01*
X142014834Y-120242456D01*
X142074622Y-120373371D01*
X142074623Y-120373373D01*
X142168872Y-120482143D01*
X142289947Y-120559953D01*
X142289950Y-120559954D01*
X142289949Y-120559954D01*
X142428036Y-120600499D01*
X142428038Y-120600500D01*
X142428039Y-120600500D01*
X142571962Y-120600500D01*
X142571962Y-120600499D01*
X142710053Y-120559953D01*
X142831128Y-120482143D01*
X142925377Y-120373373D01*
X142985165Y-120242457D01*
X143005647Y-120100000D01*
X142985165Y-119957543D01*
X142925377Y-119826627D01*
X142831128Y-119717857D01*
X142710053Y-119640047D01*
X142710051Y-119640046D01*
X142710049Y-119640045D01*
X142710050Y-119640045D01*
X142571963Y-119599500D01*
X142571961Y-119599500D01*
X142428039Y-119599500D01*
X142428036Y-119599500D01*
X142289949Y-119640045D01*
X142168873Y-119717856D01*
X142074623Y-119826626D01*
X142074622Y-119826628D01*
X142014834Y-119957543D01*
X141994353Y-120100000D01*
X131205647Y-120100000D01*
X131185165Y-119957543D01*
X131125377Y-119826627D01*
X131031128Y-119717857D01*
X130910053Y-119640047D01*
X130910051Y-119640046D01*
X130910049Y-119640045D01*
X130910050Y-119640045D01*
X130771963Y-119599500D01*
X130771961Y-119599500D01*
X130628039Y-119599500D01*
X130628036Y-119599500D01*
X130489949Y-119640045D01*
X130368873Y-119717856D01*
X130274623Y-119826626D01*
X130274622Y-119826628D01*
X130214834Y-119957543D01*
X130194353Y-120100000D01*
X124967905Y-120100000D01*
X124969586Y-118000000D01*
X125894353Y-118000000D01*
X125914834Y-118142456D01*
X125974622Y-118273371D01*
X125974623Y-118273373D01*
X126068872Y-118382143D01*
X126189947Y-118459953D01*
X126189950Y-118459954D01*
X126189949Y-118459954D01*
X126328036Y-118500499D01*
X126328038Y-118500500D01*
X126328039Y-118500500D01*
X126471962Y-118500500D01*
X126471962Y-118500499D01*
X126610053Y-118459953D01*
X126731128Y-118382143D01*
X126825377Y-118273373D01*
X126885165Y-118142457D01*
X126905647Y-118000000D01*
X126885165Y-117857543D01*
X126825377Y-117726627D01*
X126802305Y-117700000D01*
X141494353Y-117700000D01*
X141514834Y-117842456D01*
X141574622Y-117973371D01*
X141574623Y-117973373D01*
X141668872Y-118082143D01*
X141789947Y-118159953D01*
X141789950Y-118159954D01*
X141789949Y-118159954D01*
X141928036Y-118200499D01*
X141928038Y-118200500D01*
X141928039Y-118200500D01*
X142071962Y-118200500D01*
X142071962Y-118200499D01*
X142210053Y-118159953D01*
X142331128Y-118082143D01*
X142425377Y-117973373D01*
X142485165Y-117842457D01*
X142505647Y-117700000D01*
X142505646Y-117699998D01*
X142506319Y-117695324D01*
X142535344Y-117631768D01*
X142594122Y-117593993D01*
X142594123Y-117593993D01*
X142710050Y-117559954D01*
X142710050Y-117559953D01*
X142710053Y-117559953D01*
X142831128Y-117482143D01*
X142925377Y-117373373D01*
X142985165Y-117242457D01*
X143005647Y-117100000D01*
X142985165Y-116957543D01*
X142925377Y-116826627D01*
X142831128Y-116717857D01*
X142710053Y-116640047D01*
X142710051Y-116640046D01*
X142710049Y-116640045D01*
X142710050Y-116640045D01*
X142571963Y-116599500D01*
X142571961Y-116599500D01*
X142428039Y-116599500D01*
X142428036Y-116599500D01*
X142289949Y-116640045D01*
X142168873Y-116717856D01*
X142074623Y-116826626D01*
X142074622Y-116826628D01*
X142014834Y-116957543D01*
X141993680Y-117104676D01*
X141964655Y-117168232D01*
X141905877Y-117206006D01*
X141789949Y-117240045D01*
X141668873Y-117317856D01*
X141574623Y-117426626D01*
X141574622Y-117426628D01*
X141514834Y-117557543D01*
X141494353Y-117700000D01*
X126802305Y-117700000D01*
X126731128Y-117617857D01*
X126610053Y-117540047D01*
X126610051Y-117540046D01*
X126610049Y-117540045D01*
X126610050Y-117540045D01*
X126471963Y-117499500D01*
X126471961Y-117499500D01*
X126328039Y-117499500D01*
X126328036Y-117499500D01*
X126189949Y-117540045D01*
X126068873Y-117617856D01*
X125974623Y-117726626D01*
X125974622Y-117726628D01*
X125914834Y-117857543D01*
X125894353Y-118000000D01*
X124969586Y-118000000D01*
X124973990Y-112500000D01*
X129894353Y-112500000D01*
X129914834Y-112642456D01*
X129952552Y-112725045D01*
X129974623Y-112773373D01*
X130068872Y-112882143D01*
X130189947Y-112959953D01*
X130189950Y-112959954D01*
X130189949Y-112959954D01*
X130328036Y-113000499D01*
X130328038Y-113000500D01*
X130328039Y-113000500D01*
X130471962Y-113000500D01*
X130471962Y-113000499D01*
X130610053Y-112959953D01*
X130731128Y-112882143D01*
X130825377Y-112773373D01*
X130885165Y-112642457D01*
X130905647Y-112500000D01*
X130902771Y-112479999D01*
X131419999Y-112479999D01*
X131459999Y-116699998D01*
X131460000Y-116700000D01*
X134849999Y-116710000D01*
X134849998Y-116709999D01*
X134850000Y-116710000D01*
X134846362Y-115160428D01*
X135807592Y-115160428D01*
X135828073Y-115302884D01*
X135862233Y-115377682D01*
X135887862Y-115433801D01*
X135982111Y-115542571D01*
X136103186Y-115620381D01*
X136103189Y-115620382D01*
X136103188Y-115620382D01*
X136241275Y-115660927D01*
X136241277Y-115660928D01*
X136241278Y-115660928D01*
X136385201Y-115660928D01*
X136385201Y-115660927D01*
X136523292Y-115620381D01*
X136644367Y-115542571D01*
X136738616Y-115433801D01*
X136798404Y-115302885D01*
X136818886Y-115160428D01*
X136798404Y-115017971D01*
X136738616Y-114887055D01*
X136644367Y-114778285D01*
X136523292Y-114700475D01*
X136523290Y-114700474D01*
X136523288Y-114700473D01*
X136523289Y-114700473D01*
X136385202Y-114659928D01*
X136385200Y-114659928D01*
X136241278Y-114659928D01*
X136241275Y-114659928D01*
X136103188Y-114700473D01*
X135982112Y-114778284D01*
X135887862Y-114887054D01*
X135887861Y-114887056D01*
X135828073Y-115017971D01*
X135807592Y-115160428D01*
X134846362Y-115160428D01*
X134844953Y-114560000D01*
X139084353Y-114560000D01*
X139104834Y-114702456D01*
X139139464Y-114778284D01*
X139164623Y-114833373D01*
X139258872Y-114942143D01*
X139379947Y-115019953D01*
X139379950Y-115019954D01*
X139379949Y-115019954D01*
X139518036Y-115060499D01*
X139518038Y-115060500D01*
X139518039Y-115060500D01*
X139661962Y-115060500D01*
X139661962Y-115060499D01*
X139800053Y-115019953D01*
X139921128Y-114942143D01*
X140015377Y-114833373D01*
X140075165Y-114702457D01*
X140085013Y-114633957D01*
X140114037Y-114570403D01*
X140140709Y-114547292D01*
X140235287Y-114486511D01*
X140329536Y-114377741D01*
X140389324Y-114246825D01*
X140409806Y-114104368D01*
X140389324Y-113961911D01*
X140329536Y-113830995D01*
X140235287Y-113722225D01*
X140114212Y-113644415D01*
X140114210Y-113644414D01*
X140114208Y-113644413D01*
X140114209Y-113644413D01*
X139976122Y-113603868D01*
X139976120Y-113603868D01*
X139832198Y-113603868D01*
X139832195Y-113603868D01*
X139694108Y-113644413D01*
X139573032Y-113722224D01*
X139478782Y-113830994D01*
X139478781Y-113830996D01*
X139418994Y-113961909D01*
X139418993Y-113961913D01*
X139409144Y-114030411D01*
X139380118Y-114093966D01*
X139353446Y-114117077D01*
X139258874Y-114177855D01*
X139164623Y-114286626D01*
X139164622Y-114286628D01*
X139104834Y-114417543D01*
X139084353Y-114560000D01*
X134844953Y-114560000D01*
X134841725Y-113185000D01*
X137709353Y-113185000D01*
X137729834Y-113327456D01*
X137774956Y-113426257D01*
X137789623Y-113458373D01*
X137883872Y-113567143D01*
X138004947Y-113644953D01*
X138004950Y-113644954D01*
X138004949Y-113644954D01*
X138143036Y-113685499D01*
X138143038Y-113685500D01*
X138143039Y-113685500D01*
X138286962Y-113685500D01*
X138286962Y-113685499D01*
X138425053Y-113644953D01*
X138546128Y-113567143D01*
X138640377Y-113458373D01*
X138700165Y-113327457D01*
X138720647Y-113185000D01*
X138700165Y-113042543D01*
X138640377Y-112911627D01*
X138546128Y-112802857D01*
X138541682Y-112800000D01*
X144994353Y-112800000D01*
X145014834Y-112942456D01*
X145074622Y-113073371D01*
X145074623Y-113073373D01*
X145168872Y-113182143D01*
X145289947Y-113259953D01*
X145289950Y-113259954D01*
X145289949Y-113259954D01*
X145428036Y-113300499D01*
X145428038Y-113300500D01*
X145428039Y-113300500D01*
X145571962Y-113300500D01*
X145571962Y-113300499D01*
X145710053Y-113259953D01*
X145831128Y-113182143D01*
X145925377Y-113073373D01*
X145985165Y-112942457D01*
X146005647Y-112800000D01*
X145985165Y-112657543D01*
X145925377Y-112526627D01*
X145831128Y-112417857D01*
X145710053Y-112340047D01*
X145710051Y-112340046D01*
X145710049Y-112340045D01*
X145710050Y-112340045D01*
X145571963Y-112299500D01*
X145571961Y-112299500D01*
X145428039Y-112299500D01*
X145428036Y-112299500D01*
X145289949Y-112340045D01*
X145168873Y-112417856D01*
X145074623Y-112526626D01*
X145074622Y-112526628D01*
X145014834Y-112657543D01*
X144994353Y-112800000D01*
X138541682Y-112800000D01*
X138425053Y-112725047D01*
X138425051Y-112725046D01*
X138425049Y-112725045D01*
X138425050Y-112725045D01*
X138286963Y-112684500D01*
X138286961Y-112684500D01*
X138143039Y-112684500D01*
X138143036Y-112684500D01*
X138004949Y-112725045D01*
X137883873Y-112802856D01*
X137789623Y-112911626D01*
X137789622Y-112911628D01*
X137729834Y-113042543D01*
X137709353Y-113185000D01*
X134841725Y-113185000D01*
X134840411Y-112625457D01*
X134841673Y-112607521D01*
X134851382Y-112540000D01*
X134841266Y-112469651D01*
X134840005Y-112452287D01*
X134839947Y-112427159D01*
X134833843Y-112415925D01*
X134832328Y-112407482D01*
X134830900Y-112397543D01*
X134771112Y-112266627D01*
X134676863Y-112157857D01*
X134555788Y-112080047D01*
X134555786Y-112080046D01*
X134555784Y-112080045D01*
X134555785Y-112080045D01*
X134417698Y-112039500D01*
X134417696Y-112039500D01*
X134273774Y-112039500D01*
X134273771Y-112039500D01*
X134135684Y-112080045D01*
X134014608Y-112157856D01*
X133920358Y-112266626D01*
X133920357Y-112266628D01*
X133872612Y-112371174D01*
X133826857Y-112423978D01*
X133759817Y-112443662D01*
X133759091Y-112443660D01*
X131502303Y-112430424D01*
X131430000Y-112430000D01*
X131429999Y-112430000D01*
X131419999Y-112479999D01*
X130902771Y-112479999D01*
X130885165Y-112357543D01*
X130825377Y-112226627D01*
X130731128Y-112117857D01*
X130610053Y-112040047D01*
X130610051Y-112040046D01*
X130610049Y-112040045D01*
X130610050Y-112040045D01*
X130471963Y-111999500D01*
X130471961Y-111999500D01*
X130328039Y-111999500D01*
X130328036Y-111999500D01*
X130189949Y-112040045D01*
X130068873Y-112117856D01*
X129974623Y-112226626D01*
X129974622Y-112226628D01*
X129914834Y-112357543D01*
X129894353Y-112500000D01*
X124973990Y-112500000D01*
X124974439Y-111940000D01*
X135194353Y-111940000D01*
X135214834Y-112082456D01*
X135274622Y-112213371D01*
X135274623Y-112213373D01*
X135368872Y-112322143D01*
X135489947Y-112399953D01*
X135489950Y-112399954D01*
X135489949Y-112399954D01*
X135628036Y-112440499D01*
X135628038Y-112440500D01*
X135628039Y-112440500D01*
X135771962Y-112440500D01*
X135771962Y-112440499D01*
X135910053Y-112399953D01*
X136031128Y-112322143D01*
X136125377Y-112213373D01*
X136185165Y-112082457D01*
X136205647Y-111940000D01*
X136185165Y-111797543D01*
X136125377Y-111666627D01*
X136031128Y-111557857D01*
X135910053Y-111480047D01*
X135910051Y-111480046D01*
X135910049Y-111480045D01*
X135910050Y-111480045D01*
X135771963Y-111439500D01*
X135771961Y-111439500D01*
X135628039Y-111439500D01*
X135628036Y-111439500D01*
X135489949Y-111480045D01*
X135368873Y-111557856D01*
X135274623Y-111666626D01*
X135274622Y-111666628D01*
X135214834Y-111797543D01*
X135194353Y-111940000D01*
X124974439Y-111940000D01*
X124976633Y-109200000D01*
X125844417Y-109200000D01*
X125864699Y-109405932D01*
X125890006Y-109489357D01*
X125924768Y-109603954D01*
X126022315Y-109786450D01*
X126022316Y-109786451D01*
X126022317Y-109786452D01*
X126153589Y-109946410D01*
X126218890Y-110000000D01*
X126313550Y-110077685D01*
X126496046Y-110175232D01*
X126694066Y-110235300D01*
X126694065Y-110235300D01*
X126712529Y-110237118D01*
X126900000Y-110255583D01*
X127105934Y-110235300D01*
X127303954Y-110175232D01*
X127486450Y-110077685D01*
X127646410Y-109946410D01*
X127777685Y-109786450D01*
X127870079Y-109613593D01*
X127919040Y-109563750D01*
X127987178Y-109548290D01*
X128052858Y-109572122D01*
X128095226Y-109627679D01*
X128102174Y-109654400D01*
X128114834Y-109742456D01*
X128168494Y-109859953D01*
X128174623Y-109873373D01*
X128268872Y-109982143D01*
X128389947Y-110059953D01*
X128389950Y-110059954D01*
X128389949Y-110059954D01*
X128528036Y-110100499D01*
X128528038Y-110100500D01*
X128528039Y-110100500D01*
X128671962Y-110100500D01*
X128671962Y-110100499D01*
X128810053Y-110059953D01*
X128931128Y-109982143D01*
X129025377Y-109873373D01*
X129032606Y-109857545D01*
X129063206Y-109790540D01*
X129108960Y-109737736D01*
X129176000Y-109718051D01*
X129243039Y-109737736D01*
X129288794Y-109790539D01*
X129300000Y-109842051D01*
X129300000Y-111300000D01*
X132700000Y-111300000D01*
X132700000Y-110800000D01*
X138594353Y-110800000D01*
X138614834Y-110942456D01*
X138674622Y-111073371D01*
X138674623Y-111073373D01*
X138768872Y-111182143D01*
X138889947Y-111259953D01*
X138889950Y-111259954D01*
X138889949Y-111259954D01*
X138997107Y-111291417D01*
X139026336Y-111300000D01*
X139028036Y-111300499D01*
X139028038Y-111300500D01*
X139028039Y-111300500D01*
X139171962Y-111300500D01*
X139171962Y-111300499D01*
X139310053Y-111259953D01*
X139403342Y-111200000D01*
X144794353Y-111200000D01*
X144814834Y-111342456D01*
X144868516Y-111460000D01*
X144874623Y-111473373D01*
X144968872Y-111582143D01*
X145089947Y-111659953D01*
X145089950Y-111659954D01*
X145089949Y-111659954D01*
X145228036Y-111700499D01*
X145228038Y-111700500D01*
X145228039Y-111700500D01*
X145371962Y-111700500D01*
X145371962Y-111700499D01*
X145510053Y-111659953D01*
X145631128Y-111582143D01*
X145725377Y-111473373D01*
X145785165Y-111342457D01*
X145805647Y-111200000D01*
X145785828Y-111062155D01*
X146850000Y-111062155D01*
X146850000Y-111710000D01*
X147766988Y-111710000D01*
X147734075Y-111767007D01*
X147700000Y-111894174D01*
X147700000Y-112025826D01*
X147734075Y-112152993D01*
X147766988Y-112210000D01*
X146850000Y-112210000D01*
X146850000Y-112857844D01*
X146856401Y-112917372D01*
X146856403Y-112917379D01*
X146906645Y-113052086D01*
X146906649Y-113052093D01*
X146992809Y-113167187D01*
X146992812Y-113167190D01*
X147107906Y-113253350D01*
X147107913Y-113253354D01*
X147242620Y-113303596D01*
X147242627Y-113303598D01*
X147302155Y-113309999D01*
X147302172Y-113310000D01*
X147702813Y-113310000D01*
X147769852Y-113329685D01*
X147815607Y-113382489D01*
X147825551Y-113451647D01*
X147796526Y-113515203D01*
X147761267Y-113543357D01*
X147613550Y-113622315D01*
X147613548Y-113622316D01*
X147613547Y-113622317D01*
X147453589Y-113753589D01*
X147322317Y-113913547D01*
X147224769Y-114096043D01*
X147164699Y-114294067D01*
X147144417Y-114500000D01*
X147164699Y-114705932D01*
X147164700Y-114705934D01*
X147224768Y-114903954D01*
X147322315Y-115086450D01*
X147322317Y-115086452D01*
X147453589Y-115246410D01*
X147522404Y-115302884D01*
X147613550Y-115377685D01*
X147796046Y-115475232D01*
X147994066Y-115535300D01*
X147994065Y-115535300D01*
X148012529Y-115537118D01*
X148200000Y-115555583D01*
X148405934Y-115535300D01*
X148603954Y-115475232D01*
X148786450Y-115377685D01*
X148946410Y-115246410D01*
X149077685Y-115086450D01*
X149175232Y-114903954D01*
X149235300Y-114705934D01*
X149255583Y-114500000D01*
X149235300Y-114294066D01*
X149175232Y-114096046D01*
X149077685Y-113913550D01*
X149009934Y-113830995D01*
X148946410Y-113753589D01*
X148814036Y-113644954D01*
X148786450Y-113622315D01*
X148638732Y-113543357D01*
X148588889Y-113494395D01*
X148573429Y-113426257D01*
X148597261Y-113360578D01*
X148652819Y-113318209D01*
X148697187Y-113310000D01*
X149097828Y-113310000D01*
X149097844Y-113309999D01*
X149157372Y-113303598D01*
X149157379Y-113303596D01*
X149292086Y-113253354D01*
X149292093Y-113253350D01*
X149407187Y-113167190D01*
X149407190Y-113167187D01*
X149493350Y-113052093D01*
X149493354Y-113052086D01*
X149543596Y-112917379D01*
X149543598Y-112917372D01*
X149549999Y-112857844D01*
X149550000Y-112857827D01*
X149550000Y-112210000D01*
X148633012Y-112210000D01*
X148665925Y-112152993D01*
X148700000Y-112025826D01*
X148700000Y-111894174D01*
X148665925Y-111767007D01*
X148633012Y-111710000D01*
X149550000Y-111710000D01*
X149550000Y-111062172D01*
X149549999Y-111062155D01*
X149543598Y-111002627D01*
X149543596Y-111002620D01*
X149493354Y-110867913D01*
X149493350Y-110867906D01*
X149407190Y-110752812D01*
X149407187Y-110752809D01*
X149292093Y-110666649D01*
X149292086Y-110666645D01*
X149157379Y-110616403D01*
X149157372Y-110616401D01*
X149097844Y-110610000D01*
X148450000Y-110610000D01*
X148450000Y-111526988D01*
X148392993Y-111494075D01*
X148265826Y-111460000D01*
X148134174Y-111460000D01*
X148007007Y-111494075D01*
X147950000Y-111526988D01*
X147950000Y-110610000D01*
X147302155Y-110610000D01*
X147242627Y-110616401D01*
X147242620Y-110616403D01*
X147107913Y-110666645D01*
X147107906Y-110666649D01*
X146992812Y-110752809D01*
X146992809Y-110752812D01*
X146906649Y-110867906D01*
X146906645Y-110867913D01*
X146856403Y-111002620D01*
X146856401Y-111002627D01*
X146850000Y-111062155D01*
X145785828Y-111062155D01*
X145785165Y-111057543D01*
X145725377Y-110926627D01*
X145631128Y-110817857D01*
X145510053Y-110740047D01*
X145510051Y-110740046D01*
X145510049Y-110740045D01*
X145510050Y-110740045D01*
X145371963Y-110699500D01*
X145371961Y-110699500D01*
X145228039Y-110699500D01*
X145228036Y-110699500D01*
X145089949Y-110740045D01*
X144968873Y-110817856D01*
X144874623Y-110926626D01*
X144874622Y-110926628D01*
X144814834Y-111057543D01*
X144794353Y-111200000D01*
X139403342Y-111200000D01*
X139431128Y-111182143D01*
X139525377Y-111073373D01*
X139585165Y-110942457D01*
X139605647Y-110800000D01*
X139585165Y-110657543D01*
X139525377Y-110526627D01*
X139431128Y-110417857D01*
X139310053Y-110340047D01*
X139310051Y-110340046D01*
X139310049Y-110340045D01*
X139310050Y-110340045D01*
X139171963Y-110299500D01*
X139171961Y-110299500D01*
X139028039Y-110299500D01*
X139028036Y-110299500D01*
X138889949Y-110340045D01*
X138768873Y-110417856D01*
X138674623Y-110526626D01*
X138674622Y-110526628D01*
X138614834Y-110657543D01*
X138594353Y-110800000D01*
X132700000Y-110800000D01*
X132700000Y-109900000D01*
X133840088Y-109900000D01*
X133860569Y-110042456D01*
X133906239Y-110142457D01*
X133920358Y-110173373D01*
X134014607Y-110282143D01*
X134135682Y-110359953D01*
X134135685Y-110359954D01*
X134135684Y-110359954D01*
X134273771Y-110400499D01*
X134273773Y-110400500D01*
X134273774Y-110400500D01*
X134417697Y-110400500D01*
X134417697Y-110400499D01*
X134555788Y-110359953D01*
X134676863Y-110282143D01*
X134771112Y-110173373D01*
X134830900Y-110042457D01*
X134837004Y-110000000D01*
X136094353Y-110000000D01*
X136114834Y-110142456D01*
X136128953Y-110173371D01*
X136174623Y-110273373D01*
X136268872Y-110382143D01*
X136389947Y-110459953D01*
X136389950Y-110459954D01*
X136389949Y-110459954D01*
X136528036Y-110500499D01*
X136528038Y-110500500D01*
X136528039Y-110500500D01*
X136671962Y-110500500D01*
X136671962Y-110500499D01*
X136810053Y-110459953D01*
X136931128Y-110382143D01*
X137025377Y-110273373D01*
X137085165Y-110142457D01*
X137105647Y-110000000D01*
X137085165Y-109857543D01*
X137065435Y-109814342D01*
X137055492Y-109745186D01*
X137084516Y-109681630D01*
X137143290Y-109643856D01*
X137168374Y-109636492D01*
X137289449Y-109558682D01*
X137383698Y-109449912D01*
X137406492Y-109400000D01*
X138094353Y-109400000D01*
X138114834Y-109542456D01*
X138153275Y-109626628D01*
X138174623Y-109673373D01*
X138268872Y-109782143D01*
X138389947Y-109859953D01*
X138389950Y-109859954D01*
X138389949Y-109859954D01*
X138497107Y-109891417D01*
X138526336Y-109900000D01*
X138528036Y-109900499D01*
X138528038Y-109900500D01*
X138528039Y-109900500D01*
X138671962Y-109900500D01*
X138671962Y-109900499D01*
X138810053Y-109859953D01*
X138931128Y-109782143D01*
X139025377Y-109673373D01*
X139085165Y-109542457D01*
X139085165Y-109542456D01*
X139085300Y-109542161D01*
X139131055Y-109489357D01*
X139198094Y-109469672D01*
X139265133Y-109489357D01*
X139310888Y-109542161D01*
X139311536Y-109543897D01*
X139314834Y-109551120D01*
X139314835Y-109551121D01*
X139374623Y-109682037D01*
X139468872Y-109790807D01*
X139589947Y-109868617D01*
X139589950Y-109868618D01*
X139589949Y-109868618D01*
X139728036Y-109909163D01*
X139728038Y-109909164D01*
X139728039Y-109909164D01*
X139871962Y-109909164D01*
X139871962Y-109909163D01*
X139979121Y-109877699D01*
X140010050Y-109868618D01*
X140010050Y-109868617D01*
X140010053Y-109868617D01*
X140131128Y-109790807D01*
X140225377Y-109682037D01*
X140285165Y-109551121D01*
X140301142Y-109440000D01*
X141344353Y-109440000D01*
X141364834Y-109582456D01*
X141410126Y-109681630D01*
X141424623Y-109713373D01*
X141518872Y-109822143D01*
X141639947Y-109899953D01*
X141639950Y-109899954D01*
X141639949Y-109899954D01*
X141778036Y-109940499D01*
X141778038Y-109940500D01*
X141778039Y-109940500D01*
X141921962Y-109940500D01*
X141921962Y-109940499D01*
X142058190Y-109900500D01*
X142060050Y-109899954D01*
X142060050Y-109899953D01*
X142060053Y-109899953D01*
X142181128Y-109822143D01*
X142275377Y-109713373D01*
X142335165Y-109582457D01*
X142355647Y-109440000D01*
X142335165Y-109297543D01*
X142275377Y-109166627D01*
X142181128Y-109057857D01*
X142060053Y-108980047D01*
X142060051Y-108980046D01*
X142060049Y-108980045D01*
X142060050Y-108980045D01*
X141921963Y-108939500D01*
X141921961Y-108939500D01*
X141778039Y-108939500D01*
X141778036Y-108939500D01*
X141639949Y-108980045D01*
X141518873Y-109057856D01*
X141424623Y-109166626D01*
X141424622Y-109166628D01*
X141364834Y-109297543D01*
X141344353Y-109440000D01*
X140301142Y-109440000D01*
X140305647Y-109408664D01*
X140285165Y-109266207D01*
X140225377Y-109135291D01*
X140131128Y-109026521D01*
X140010053Y-108948711D01*
X140010051Y-108948710D01*
X140010049Y-108948709D01*
X140010050Y-108948709D01*
X139871963Y-108908164D01*
X139871961Y-108908164D01*
X139728039Y-108908164D01*
X139728036Y-108908164D01*
X139589949Y-108948709D01*
X139468873Y-109026520D01*
X139374623Y-109135290D01*
X139374622Y-109135292D01*
X139314699Y-109266503D01*
X139268944Y-109319307D01*
X139201904Y-109338991D01*
X139134865Y-109319306D01*
X139089110Y-109266502D01*
X139088459Y-109264756D01*
X139067040Y-109217856D01*
X139025377Y-109126627D01*
X138931128Y-109017857D01*
X138810053Y-108940047D01*
X138810051Y-108940046D01*
X138810049Y-108940045D01*
X138810050Y-108940045D01*
X138671963Y-108899500D01*
X138671961Y-108899500D01*
X138528039Y-108899500D01*
X138528036Y-108899500D01*
X138389949Y-108940045D01*
X138268873Y-109017856D01*
X138174623Y-109126626D01*
X138174622Y-109126628D01*
X138114834Y-109257543D01*
X138094353Y-109400000D01*
X137406492Y-109400000D01*
X137443486Y-109318996D01*
X137463968Y-109176539D01*
X137443486Y-109034082D01*
X137383698Y-108903166D01*
X137289449Y-108794396D01*
X137168374Y-108716586D01*
X137168372Y-108716585D01*
X137168370Y-108716584D01*
X137168371Y-108716584D01*
X137030284Y-108676039D01*
X137030282Y-108676039D01*
X136886360Y-108676039D01*
X136886357Y-108676039D01*
X136748270Y-108716584D01*
X136627194Y-108794395D01*
X136532944Y-108903165D01*
X136532943Y-108903167D01*
X136473155Y-109034082D01*
X136452674Y-109176539D01*
X136473155Y-109318995D01*
X136492884Y-109362194D01*
X136502828Y-109431353D01*
X136473803Y-109494909D01*
X136415025Y-109532683D01*
X136389948Y-109540045D01*
X136268873Y-109617856D01*
X136174623Y-109726626D01*
X136174622Y-109726628D01*
X136114834Y-109857543D01*
X136094353Y-110000000D01*
X134837004Y-110000000D01*
X134851382Y-109900000D01*
X134830900Y-109757543D01*
X134771112Y-109626627D01*
X134676863Y-109517857D01*
X134676860Y-109517855D01*
X134605122Y-109471751D01*
X134559367Y-109418947D01*
X134549424Y-109349788D01*
X134578449Y-109286233D01*
X134605123Y-109263120D01*
X134610049Y-109259954D01*
X134610053Y-109259953D01*
X134731128Y-109182143D01*
X134825377Y-109073373D01*
X134885165Y-108942457D01*
X134905647Y-108800000D01*
X134885165Y-108657543D01*
X134825377Y-108526627D01*
X134731128Y-108417857D01*
X134610053Y-108340047D01*
X134610051Y-108340046D01*
X134610049Y-108340045D01*
X134610050Y-108340045D01*
X134471963Y-108299500D01*
X134471961Y-108299500D01*
X134328039Y-108299500D01*
X134328036Y-108299500D01*
X134189949Y-108340045D01*
X134068873Y-108417856D01*
X133974623Y-108526626D01*
X133974622Y-108526628D01*
X133914834Y-108657543D01*
X133894353Y-108800000D01*
X133914834Y-108942456D01*
X133967537Y-109057857D01*
X133974623Y-109073373D01*
X134068872Y-109182143D01*
X134068874Y-109182144D01*
X134068873Y-109182144D01*
X134140612Y-109228248D01*
X134186366Y-109281052D01*
X134196310Y-109350210D01*
X134167285Y-109413766D01*
X134140612Y-109436878D01*
X134014609Y-109517855D01*
X133920358Y-109626626D01*
X133920357Y-109626628D01*
X133860569Y-109757543D01*
X133840088Y-109900000D01*
X132700000Y-109900000D01*
X132700000Y-108200000D01*
X135094353Y-108200000D01*
X135114834Y-108342456D01*
X135149269Y-108417856D01*
X135174623Y-108473373D01*
X135268872Y-108582143D01*
X135389947Y-108659953D01*
X135389950Y-108659954D01*
X135389949Y-108659954D01*
X135528036Y-108700499D01*
X135528038Y-108700500D01*
X135528039Y-108700500D01*
X135671962Y-108700500D01*
X135671962Y-108700499D01*
X135810053Y-108659953D01*
X135931128Y-108582143D01*
X136025377Y-108473373D01*
X136085165Y-108342457D01*
X136105647Y-108200000D01*
X136085165Y-108057543D01*
X136025377Y-107926627D01*
X135962467Y-107854024D01*
X143319367Y-107854024D01*
X143339848Y-107996480D01*
X143367735Y-108057543D01*
X143399637Y-108127397D01*
X143493886Y-108236167D01*
X143614961Y-108313977D01*
X143614964Y-108313978D01*
X143614963Y-108313978D01*
X143753050Y-108354523D01*
X143753052Y-108354524D01*
X143753053Y-108354524D01*
X143896976Y-108354524D01*
X143896976Y-108354523D01*
X144035067Y-108313977D01*
X144156142Y-108236167D01*
X144250391Y-108127397D01*
X144304396Y-108009142D01*
X144350151Y-107956340D01*
X144417190Y-107936655D01*
X144484230Y-107956340D01*
X144529984Y-108009144D01*
X144537273Y-108033966D01*
X144537349Y-108033944D01*
X144539848Y-108042455D01*
X144596236Y-108165925D01*
X144599637Y-108173373D01*
X144693886Y-108282143D01*
X144814961Y-108359953D01*
X144814964Y-108359954D01*
X144814963Y-108359954D01*
X144953050Y-108400499D01*
X144953052Y-108400500D01*
X144953053Y-108400500D01*
X145096976Y-108400500D01*
X145096976Y-108400499D01*
X145235067Y-108359953D01*
X145243515Y-108354524D01*
X145258961Y-108344598D01*
X145326000Y-108324913D01*
X145393039Y-108344598D01*
X145438794Y-108397402D01*
X145450000Y-108448913D01*
X145450000Y-108597844D01*
X145456401Y-108657372D01*
X145456403Y-108657379D01*
X145506645Y-108792086D01*
X145506649Y-108792093D01*
X145592809Y-108907187D01*
X145592812Y-108907190D01*
X145707906Y-108993350D01*
X145707913Y-108993354D01*
X145842620Y-109043596D01*
X145842627Y-109043598D01*
X145902155Y-109049999D01*
X145902172Y-109050000D01*
X146550000Y-109050000D01*
X146550000Y-108133012D01*
X146607007Y-108165925D01*
X146734174Y-108200000D01*
X146865826Y-108200000D01*
X146992993Y-108165925D01*
X147050000Y-108133012D01*
X147050000Y-109050000D01*
X147697828Y-109050000D01*
X147697844Y-109049999D01*
X147757372Y-109043598D01*
X147757379Y-109043596D01*
X147892086Y-108993354D01*
X147892093Y-108993350D01*
X148007187Y-108907190D01*
X148007190Y-108907187D01*
X148093350Y-108792093D01*
X148093354Y-108792086D01*
X148143596Y-108657379D01*
X148143598Y-108657372D01*
X148149999Y-108597844D01*
X148150000Y-108597827D01*
X148150000Y-107950000D01*
X147233012Y-107950000D01*
X147265925Y-107892993D01*
X147300000Y-107765826D01*
X147300000Y-107634174D01*
X147265925Y-107507007D01*
X147233012Y-107450000D01*
X148150000Y-107450000D01*
X148150000Y-106802172D01*
X148149999Y-106802155D01*
X148143598Y-106742627D01*
X148143596Y-106742620D01*
X148093354Y-106607913D01*
X148093350Y-106607906D01*
X148007190Y-106492812D01*
X148007187Y-106492809D01*
X147892093Y-106406649D01*
X147892086Y-106406645D01*
X147757379Y-106356403D01*
X147757372Y-106356401D01*
X147697844Y-106350000D01*
X147297187Y-106350000D01*
X147230148Y-106330315D01*
X147184393Y-106277511D01*
X147174449Y-106208353D01*
X147203474Y-106144797D01*
X147238733Y-106116642D01*
X147386450Y-106037685D01*
X147546410Y-105906410D01*
X147677685Y-105746450D01*
X147775232Y-105563954D01*
X147835300Y-105365934D01*
X147855583Y-105160000D01*
X147835300Y-104954066D01*
X147775232Y-104756046D01*
X147677685Y-104573550D01*
X147602670Y-104482143D01*
X147546410Y-104413589D01*
X147428677Y-104316969D01*
X147386450Y-104282315D01*
X147203954Y-104184768D01*
X147005934Y-104124700D01*
X147005932Y-104124699D01*
X147005934Y-104124699D01*
X146800000Y-104104417D01*
X146594067Y-104124699D01*
X146396043Y-104184769D01*
X146288120Y-104242456D01*
X146213550Y-104282315D01*
X146213548Y-104282316D01*
X146213547Y-104282317D01*
X146053589Y-104413589D01*
X145927316Y-104567456D01*
X145922315Y-104573550D01*
X145907910Y-104600500D01*
X145824769Y-104756043D01*
X145764699Y-104954067D01*
X145744417Y-105160000D01*
X145764699Y-105365932D01*
X145764700Y-105365934D01*
X145824768Y-105563954D01*
X145922315Y-105746450D01*
X145922317Y-105746452D01*
X146053589Y-105906410D01*
X146150209Y-105985702D01*
X146213550Y-106037685D01*
X146361267Y-106116642D01*
X146411111Y-106165605D01*
X146426571Y-106233743D01*
X146402739Y-106299422D01*
X146347181Y-106341791D01*
X146302813Y-106350000D01*
X145902155Y-106350000D01*
X145842627Y-106356401D01*
X145842620Y-106356403D01*
X145707913Y-106406645D01*
X145707906Y-106406649D01*
X145592812Y-106492809D01*
X145592809Y-106492812D01*
X145506649Y-106607906D01*
X145506645Y-106607913D01*
X145456403Y-106742620D01*
X145456401Y-106742627D01*
X145450000Y-106802155D01*
X145450000Y-107351086D01*
X145430315Y-107418125D01*
X145377511Y-107463880D01*
X145308353Y-107473824D01*
X145258963Y-107455403D01*
X145235066Y-107440046D01*
X145235064Y-107440045D01*
X145096977Y-107399500D01*
X145096975Y-107399500D01*
X144953053Y-107399500D01*
X144953050Y-107399500D01*
X144814963Y-107440045D01*
X144693887Y-107517856D01*
X144599637Y-107626626D01*
X144545631Y-107744881D01*
X144499875Y-107797684D01*
X144432836Y-107817368D01*
X144365796Y-107797683D01*
X144320042Y-107744878D01*
X144312755Y-107720057D01*
X144312679Y-107720080D01*
X144310179Y-107711568D01*
X144309692Y-107710500D01*
X144250391Y-107580651D01*
X144156142Y-107471881D01*
X144035067Y-107394071D01*
X144035065Y-107394070D01*
X144035063Y-107394069D01*
X144035064Y-107394069D01*
X143896977Y-107353524D01*
X143896975Y-107353524D01*
X143753053Y-107353524D01*
X143753050Y-107353524D01*
X143614963Y-107394069D01*
X143493887Y-107471880D01*
X143493886Y-107471880D01*
X143493886Y-107471881D01*
X143481304Y-107486401D01*
X143399637Y-107580650D01*
X143399636Y-107580652D01*
X143339848Y-107711567D01*
X143319367Y-107854024D01*
X135962467Y-107854024D01*
X135931128Y-107817857D01*
X135810053Y-107740047D01*
X135810051Y-107740046D01*
X135810049Y-107740045D01*
X135810050Y-107740045D01*
X135671963Y-107699500D01*
X135671961Y-107699500D01*
X135528039Y-107699500D01*
X135528036Y-107699500D01*
X135389949Y-107740045D01*
X135268873Y-107817856D01*
X135174623Y-107926626D01*
X135174622Y-107926628D01*
X135114834Y-108057543D01*
X135094353Y-108200000D01*
X132700000Y-108200000D01*
X132700000Y-107000000D01*
X137494353Y-107000000D01*
X137514834Y-107142456D01*
X137541114Y-107200000D01*
X137574623Y-107273373D01*
X137668872Y-107382143D01*
X137789947Y-107459953D01*
X137789950Y-107459954D01*
X137789949Y-107459954D01*
X137928036Y-107500499D01*
X137928038Y-107500500D01*
X137928039Y-107500500D01*
X138071962Y-107500500D01*
X138071962Y-107500499D01*
X138210053Y-107459953D01*
X138331128Y-107382143D01*
X138425377Y-107273373D01*
X138485165Y-107142457D01*
X138505647Y-107000000D01*
X138485165Y-106857543D01*
X138425377Y-106726627D01*
X138331128Y-106617857D01*
X138210053Y-106540047D01*
X138210051Y-106540046D01*
X138210049Y-106540045D01*
X138210050Y-106540045D01*
X138071963Y-106499500D01*
X138071961Y-106499500D01*
X137928039Y-106499500D01*
X137928036Y-106499500D01*
X137789949Y-106540045D01*
X137668873Y-106617856D01*
X137574623Y-106726626D01*
X137574622Y-106726628D01*
X137514834Y-106857543D01*
X137494353Y-107000000D01*
X132700000Y-107000000D01*
X132700000Y-106800704D01*
X132719685Y-106733665D01*
X132772489Y-106687910D01*
X132841647Y-106677966D01*
X132891038Y-106696388D01*
X132938089Y-106726626D01*
X132989948Y-106759954D01*
X133128036Y-106800499D01*
X133128038Y-106800500D01*
X133128039Y-106800500D01*
X133271962Y-106800500D01*
X133271962Y-106800499D01*
X133410053Y-106759953D01*
X133531128Y-106682143D01*
X133625377Y-106573373D01*
X133685165Y-106442457D01*
X133705647Y-106300000D01*
X133685165Y-106157543D01*
X133625377Y-106026627D01*
X133531128Y-105917857D01*
X133410053Y-105840047D01*
X133410051Y-105840046D01*
X133410049Y-105840045D01*
X133410050Y-105840045D01*
X133273666Y-105800000D01*
X136894353Y-105800000D01*
X136914834Y-105942456D01*
X136974622Y-106073371D01*
X136974623Y-106073373D01*
X137068872Y-106182143D01*
X137189947Y-106259953D01*
X137189950Y-106259954D01*
X137189949Y-106259954D01*
X137297107Y-106291417D01*
X137326336Y-106300000D01*
X137328036Y-106300499D01*
X137328038Y-106300500D01*
X137328039Y-106300500D01*
X137471962Y-106300500D01*
X137471962Y-106300499D01*
X137610053Y-106259953D01*
X137731128Y-106182143D01*
X137825377Y-106073373D01*
X137885165Y-105942457D01*
X137905647Y-105800000D01*
X137885165Y-105657543D01*
X137825377Y-105526627D01*
X137731128Y-105417857D01*
X137610053Y-105340047D01*
X137610051Y-105340046D01*
X137610049Y-105340045D01*
X137610050Y-105340045D01*
X137471963Y-105299500D01*
X137471961Y-105299500D01*
X137328039Y-105299500D01*
X137328036Y-105299500D01*
X137189949Y-105340045D01*
X137068873Y-105417856D01*
X136974623Y-105526626D01*
X136974622Y-105526628D01*
X136914834Y-105657543D01*
X136894353Y-105800000D01*
X133273666Y-105800000D01*
X133271963Y-105799500D01*
X133271961Y-105799500D01*
X133128039Y-105799500D01*
X133128036Y-105799500D01*
X132989949Y-105840045D01*
X132891039Y-105903611D01*
X132824000Y-105923295D01*
X132756960Y-105903610D01*
X132711205Y-105850806D01*
X132700000Y-105799295D01*
X132700000Y-105050000D01*
X139231853Y-105050000D01*
X139252334Y-105192456D01*
X139301220Y-105299500D01*
X139312123Y-105323373D01*
X139406372Y-105432143D01*
X139527447Y-105509953D01*
X139527450Y-105509954D01*
X139527449Y-105509954D01*
X139665536Y-105550499D01*
X139665538Y-105550500D01*
X139665539Y-105550500D01*
X139809462Y-105550500D01*
X139809462Y-105550499D01*
X139947553Y-105509953D01*
X140068628Y-105432143D01*
X140162877Y-105323373D01*
X140222665Y-105192457D01*
X140243147Y-105050000D01*
X140222665Y-104907543D01*
X140162877Y-104776627D01*
X140068628Y-104667857D01*
X139947553Y-104590047D01*
X139947551Y-104590046D01*
X139947549Y-104590045D01*
X139947550Y-104590045D01*
X139809463Y-104549500D01*
X139809461Y-104549500D01*
X139665539Y-104549500D01*
X139665536Y-104549500D01*
X139527449Y-104590045D01*
X139406373Y-104667856D01*
X139312123Y-104776626D01*
X139312122Y-104776628D01*
X139252334Y-104907543D01*
X139231853Y-105050000D01*
X132700000Y-105050000D01*
X132700000Y-104425000D01*
X133194353Y-104425000D01*
X133214834Y-104567456D01*
X133274622Y-104698371D01*
X133274623Y-104698373D01*
X133368872Y-104807143D01*
X133489947Y-104884953D01*
X133489950Y-104884954D01*
X133489949Y-104884954D01*
X133628036Y-104925499D01*
X133628038Y-104925500D01*
X133628039Y-104925500D01*
X133771962Y-104925500D01*
X133771962Y-104925499D01*
X133910053Y-104884953D01*
X134031128Y-104807143D01*
X134125377Y-104698373D01*
X134185165Y-104567457D01*
X134205647Y-104425000D01*
X134185165Y-104282543D01*
X134125377Y-104151627D01*
X134080642Y-104100000D01*
X141194353Y-104100000D01*
X141214834Y-104242456D01*
X141274622Y-104373371D01*
X141274623Y-104373373D01*
X141368872Y-104482143D01*
X141489947Y-104559953D01*
X141489950Y-104559954D01*
X141489949Y-104559954D01*
X141628036Y-104600499D01*
X141628038Y-104600500D01*
X141628039Y-104600500D01*
X141771962Y-104600500D01*
X141771962Y-104600499D01*
X141910053Y-104559953D01*
X142031128Y-104482143D01*
X142125377Y-104373373D01*
X142185165Y-104242457D01*
X142205647Y-104100000D01*
X142185165Y-103957543D01*
X142125377Y-103826627D01*
X142031128Y-103717857D01*
X142031125Y-103717855D01*
X142031126Y-103717855D01*
X141988168Y-103690248D01*
X141942414Y-103637444D01*
X141932470Y-103568286D01*
X141961495Y-103504730D01*
X141988167Y-103481618D01*
X142074878Y-103425893D01*
X142169127Y-103317123D01*
X142228915Y-103186207D01*
X142249397Y-103043750D01*
X142228915Y-102901293D01*
X142169127Y-102770377D01*
X142074878Y-102661607D01*
X142010138Y-102620001D01*
X145744417Y-102620001D01*
X145764699Y-102825933D01*
X145787559Y-102901293D01*
X145824768Y-103023955D01*
X145922315Y-103206451D01*
X145922317Y-103206453D01*
X146053589Y-103366411D01*
X146118505Y-103419685D01*
X146213550Y-103497686D01*
X146396046Y-103595233D01*
X146594066Y-103655301D01*
X146594065Y-103655301D01*
X146612529Y-103657119D01*
X146800000Y-103675584D01*
X147005934Y-103655301D01*
X147203954Y-103595233D01*
X147386450Y-103497686D01*
X147546410Y-103366411D01*
X147677685Y-103206451D01*
X147775232Y-103023955D01*
X147835300Y-102825935D01*
X147855583Y-102620001D01*
X147835300Y-102414067D01*
X147775232Y-102216047D01*
X147677685Y-102033551D01*
X147613750Y-101955645D01*
X147546410Y-101873590D01*
X147386452Y-101742318D01*
X147386453Y-101742318D01*
X147386450Y-101742316D01*
X147203954Y-101644769D01*
X147005934Y-101584701D01*
X147005932Y-101584700D01*
X147005934Y-101584700D01*
X146800000Y-101564418D01*
X146594067Y-101584700D01*
X146396043Y-101644770D01*
X146344659Y-101672236D01*
X146213550Y-101742316D01*
X146213548Y-101742317D01*
X146213547Y-101742318D01*
X146053589Y-101873590D01*
X145922317Y-102033548D01*
X145824769Y-102216044D01*
X145764699Y-102414068D01*
X145744417Y-102620001D01*
X142010138Y-102620001D01*
X141953803Y-102583797D01*
X141953801Y-102583796D01*
X141953799Y-102583795D01*
X141953800Y-102583795D01*
X141815713Y-102543250D01*
X141815711Y-102543250D01*
X141671789Y-102543250D01*
X141671786Y-102543250D01*
X141533699Y-102583795D01*
X141412623Y-102661606D01*
X141318373Y-102770376D01*
X141318372Y-102770378D01*
X141258584Y-102901293D01*
X141238103Y-103043750D01*
X141258584Y-103186206D01*
X141267830Y-103206451D01*
X141318373Y-103317123D01*
X141412622Y-103425893D01*
X141455580Y-103453500D01*
X141501335Y-103506304D01*
X141511279Y-103575462D01*
X141482254Y-103639018D01*
X141455581Y-103662131D01*
X141368874Y-103717855D01*
X141274623Y-103826626D01*
X141274622Y-103826628D01*
X141214834Y-103957543D01*
X141194353Y-104100000D01*
X134080642Y-104100000D01*
X134031128Y-104042857D01*
X133910053Y-103965047D01*
X133910051Y-103965046D01*
X133910049Y-103965045D01*
X133910050Y-103965045D01*
X133771963Y-103924500D01*
X133771961Y-103924500D01*
X133628039Y-103924500D01*
X133628036Y-103924500D01*
X133489949Y-103965045D01*
X133368873Y-104042856D01*
X133274623Y-104151626D01*
X133274622Y-104151628D01*
X133214834Y-104282543D01*
X133194353Y-104425000D01*
X132700000Y-104425000D01*
X132700000Y-104000000D01*
X129300000Y-104000000D01*
X129300000Y-109357948D01*
X129280315Y-109424987D01*
X129227511Y-109470742D01*
X129158353Y-109480686D01*
X129094797Y-109451661D01*
X129063206Y-109409460D01*
X129047411Y-109374875D01*
X129025377Y-109326627D01*
X128931128Y-109217857D01*
X128810053Y-109140047D01*
X128810051Y-109140046D01*
X128810049Y-109140045D01*
X128810050Y-109140045D01*
X128671963Y-109099500D01*
X128671961Y-109099500D01*
X128528039Y-109099500D01*
X128528036Y-109099500D01*
X128389949Y-109140045D01*
X128268873Y-109217856D01*
X128268872Y-109217856D01*
X128268872Y-109217857D01*
X128209319Y-109286586D01*
X128168815Y-109333330D01*
X128166032Y-109330918D01*
X128126007Y-109365265D01*
X128056801Y-109374875D01*
X127993386Y-109345545D01*
X127955895Y-109286586D01*
X127951636Y-109240069D01*
X127955583Y-109200000D01*
X127935300Y-108994066D01*
X127875232Y-108796046D01*
X127777685Y-108613550D01*
X127725702Y-108550209D01*
X127646410Y-108453589D01*
X127510992Y-108342456D01*
X127486450Y-108322315D01*
X127303954Y-108224768D01*
X127105934Y-108164700D01*
X127105932Y-108164699D01*
X127105934Y-108164699D01*
X126900000Y-108144417D01*
X126694067Y-108164699D01*
X126496043Y-108224769D01*
X126388706Y-108282143D01*
X126313550Y-108322315D01*
X126313548Y-108322316D01*
X126313547Y-108322317D01*
X126153589Y-108453589D01*
X126022317Y-108613547D01*
X126022315Y-108613550D01*
X125998888Y-108657379D01*
X125924769Y-108796043D01*
X125864699Y-108994067D01*
X125844417Y-109200000D01*
X124976633Y-109200000D01*
X124979363Y-105790247D01*
X125849500Y-105790247D01*
X125849500Y-107529752D01*
X125861131Y-107588229D01*
X125861132Y-107588230D01*
X125905447Y-107654552D01*
X125971769Y-107698867D01*
X125971770Y-107698868D01*
X126030247Y-107710499D01*
X126030250Y-107710500D01*
X126030252Y-107710500D01*
X127769750Y-107710500D01*
X127769751Y-107710499D01*
X127784568Y-107707552D01*
X127828229Y-107698868D01*
X127828229Y-107698867D01*
X127828231Y-107698867D01*
X127894552Y-107654552D01*
X127938867Y-107588231D01*
X127938867Y-107588229D01*
X127938868Y-107588229D01*
X127950499Y-107529752D01*
X127950500Y-107529750D01*
X127950500Y-105790249D01*
X127950499Y-105790247D01*
X127938868Y-105731770D01*
X127938867Y-105731769D01*
X127894552Y-105665447D01*
X127828230Y-105621132D01*
X127828229Y-105621131D01*
X127769752Y-105609500D01*
X127769748Y-105609500D01*
X126030252Y-105609500D01*
X126030247Y-105609500D01*
X125971770Y-105621131D01*
X125971769Y-105621132D01*
X125905447Y-105665447D01*
X125861132Y-105731769D01*
X125861131Y-105731770D01*
X125849500Y-105790247D01*
X124979363Y-105790247D01*
X124983279Y-100900000D01*
X127800000Y-100900000D01*
X127800000Y-103400000D01*
X127939504Y-103400000D01*
X128006543Y-103419685D01*
X128052298Y-103472489D01*
X128062242Y-103541647D01*
X128052298Y-103575512D01*
X128014834Y-103657543D01*
X127994353Y-103800000D01*
X128014834Y-103942456D01*
X128074622Y-104073371D01*
X128074623Y-104073373D01*
X128168872Y-104182143D01*
X128289947Y-104259953D01*
X128289950Y-104259954D01*
X128289949Y-104259954D01*
X128428036Y-104300499D01*
X128428038Y-104300500D01*
X128428039Y-104300500D01*
X128571962Y-104300500D01*
X128571962Y-104300499D01*
X128710053Y-104259953D01*
X128831128Y-104182143D01*
X128925377Y-104073373D01*
X128985165Y-103942457D01*
X129005647Y-103800000D01*
X128985165Y-103657543D01*
X128947701Y-103575511D01*
X128937758Y-103506354D01*
X128966783Y-103442798D01*
X129025560Y-103405023D01*
X129060496Y-103400000D01*
X135500000Y-103400000D01*
X135500000Y-102415600D01*
X136910786Y-102415600D01*
X136931267Y-102558056D01*
X136943022Y-102583795D01*
X136991056Y-102688973D01*
X137085305Y-102797743D01*
X137206380Y-102875553D01*
X137206383Y-102875554D01*
X137206382Y-102875554D01*
X137344469Y-102916099D01*
X137344471Y-102916100D01*
X137344472Y-102916100D01*
X137488395Y-102916100D01*
X137488395Y-102916099D01*
X137626486Y-102875553D01*
X137747561Y-102797743D01*
X137841810Y-102688973D01*
X137901598Y-102558057D01*
X137922080Y-102415600D01*
X137901598Y-102273143D01*
X137841810Y-102142227D01*
X137747561Y-102033457D01*
X137626486Y-101955647D01*
X137626484Y-101955646D01*
X137626482Y-101955645D01*
X137626483Y-101955645D01*
X137488396Y-101915100D01*
X137488394Y-101915100D01*
X137344472Y-101915100D01*
X137344469Y-101915100D01*
X137206382Y-101955645D01*
X137085306Y-102033456D01*
X136991056Y-102142226D01*
X136991055Y-102142228D01*
X136931267Y-102273143D01*
X136910786Y-102415600D01*
X135500000Y-102415600D01*
X135500000Y-101836783D01*
X135519685Y-101769744D01*
X135572489Y-101723989D01*
X135612372Y-101715312D01*
X135612190Y-101714045D01*
X135620962Y-101712783D01*
X135620967Y-101712783D01*
X135759059Y-101672236D01*
X135880134Y-101594426D01*
X135974383Y-101485656D01*
X136034171Y-101354740D01*
X136054653Y-101212283D01*
X136034171Y-101069826D01*
X135974383Y-100938910D01*
X135880134Y-100830140D01*
X135759059Y-100752330D01*
X135759057Y-100752329D01*
X135759055Y-100752328D01*
X135759056Y-100752328D01*
X135620969Y-100711783D01*
X135612190Y-100710521D01*
X135612494Y-100708404D01*
X135556961Y-100692098D01*
X135511206Y-100639294D01*
X135500000Y-100587783D01*
X135500000Y-99300000D01*
X129100000Y-99300000D01*
X129100000Y-100776000D01*
X129080315Y-100843039D01*
X129027511Y-100888794D01*
X128976000Y-100900000D01*
X127800000Y-100900000D01*
X124983279Y-100900000D01*
X124987602Y-95502155D01*
X125450000Y-95502155D01*
X125450000Y-96150000D01*
X126366988Y-96150000D01*
X126334075Y-96207007D01*
X126300000Y-96334174D01*
X126300000Y-96465826D01*
X126334075Y-96592993D01*
X126366988Y-96650000D01*
X125450000Y-96650000D01*
X125450000Y-97297844D01*
X125456401Y-97357372D01*
X125456403Y-97357379D01*
X125506645Y-97492086D01*
X125506649Y-97492093D01*
X125592809Y-97607187D01*
X125592812Y-97607190D01*
X125707906Y-97693350D01*
X125707913Y-97693354D01*
X125842620Y-97743596D01*
X125842627Y-97743598D01*
X125902155Y-97749999D01*
X125902172Y-97750000D01*
X126302813Y-97750000D01*
X126369852Y-97769685D01*
X126415607Y-97822489D01*
X126425551Y-97891647D01*
X126396526Y-97955203D01*
X126361267Y-97983357D01*
X126213550Y-98062315D01*
X126213548Y-98062316D01*
X126213547Y-98062317D01*
X126053589Y-98193589D01*
X125922317Y-98353547D01*
X125922315Y-98353550D01*
X125900733Y-98393927D01*
X125824769Y-98536043D01*
X125764699Y-98734067D01*
X125744417Y-98940000D01*
X125764699Y-99145932D01*
X125764700Y-99145934D01*
X125824768Y-99343954D01*
X125922315Y-99526450D01*
X125922317Y-99526452D01*
X126053589Y-99686410D01*
X126150209Y-99765702D01*
X126213550Y-99817685D01*
X126396046Y-99915232D01*
X126594066Y-99975300D01*
X126594065Y-99975300D01*
X126612529Y-99977118D01*
X126800000Y-99995583D01*
X127005934Y-99975300D01*
X127203954Y-99915232D01*
X127386450Y-99817685D01*
X127546410Y-99686410D01*
X127677685Y-99526450D01*
X127775232Y-99343954D01*
X127835300Y-99145934D01*
X127855583Y-98940000D01*
X127851643Y-98900000D01*
X135942882Y-98900000D01*
X135963363Y-99042456D01*
X135991821Y-99104769D01*
X136023152Y-99173373D01*
X136117401Y-99282143D01*
X136238476Y-99359953D01*
X136238479Y-99359954D01*
X136238478Y-99359954D01*
X136376565Y-99400499D01*
X136376567Y-99400500D01*
X136376568Y-99400500D01*
X136520491Y-99400500D01*
X136520491Y-99400499D01*
X136658582Y-99359953D01*
X136779657Y-99282143D01*
X136873906Y-99173373D01*
X136933694Y-99042457D01*
X136954176Y-98900000D01*
X136933694Y-98757543D01*
X136873906Y-98626627D01*
X136779657Y-98517857D01*
X136658582Y-98440047D01*
X136658580Y-98440046D01*
X136658578Y-98440045D01*
X136658579Y-98440045D01*
X136520492Y-98399500D01*
X136520490Y-98399500D01*
X136376568Y-98399500D01*
X136376565Y-98399500D01*
X136238478Y-98440045D01*
X136117402Y-98517856D01*
X136023152Y-98626626D01*
X136023151Y-98626628D01*
X135963363Y-98757543D01*
X135942882Y-98900000D01*
X127851643Y-98900000D01*
X127835300Y-98734066D01*
X127775232Y-98536046D01*
X127677685Y-98353550D01*
X127600873Y-98259954D01*
X127546410Y-98193589D01*
X127432370Y-98100000D01*
X130494353Y-98100000D01*
X130514834Y-98242456D01*
X130547855Y-98314760D01*
X130574623Y-98373373D01*
X130668872Y-98482143D01*
X130789947Y-98559953D01*
X130789950Y-98559954D01*
X130789949Y-98559954D01*
X130897107Y-98591417D01*
X130925222Y-98599673D01*
X130928036Y-98600499D01*
X130928038Y-98600500D01*
X130928039Y-98600500D01*
X131071962Y-98600500D01*
X131071962Y-98600499D01*
X131210053Y-98559953D01*
X131331128Y-98482143D01*
X131425377Y-98373373D01*
X131485165Y-98242457D01*
X131505647Y-98100000D01*
X131485165Y-97957543D01*
X131425377Y-97826627D01*
X131402305Y-97800000D01*
X133694353Y-97800000D01*
X133714834Y-97942456D01*
X133751625Y-98023016D01*
X133774623Y-98073373D01*
X133868872Y-98182143D01*
X133989947Y-98259953D01*
X133989950Y-98259954D01*
X133989949Y-98259954D01*
X134128036Y-98300499D01*
X134128038Y-98300500D01*
X134128039Y-98300500D01*
X134271962Y-98300500D01*
X134271962Y-98300499D01*
X134410053Y-98259953D01*
X134423251Y-98251471D01*
X138245824Y-98251471D01*
X138266305Y-98393927D01*
X138287367Y-98440045D01*
X138326094Y-98524844D01*
X138420343Y-98633614D01*
X138444011Y-98648824D01*
X138489764Y-98701626D01*
X138500971Y-98753139D01*
X138500971Y-99079118D01*
X138539107Y-99171186D01*
X139424573Y-100056652D01*
X139458058Y-100117975D01*
X139453074Y-100187667D01*
X139411202Y-100243600D01*
X139371827Y-100263310D01*
X139228780Y-100305311D01*
X139107705Y-100383122D01*
X139013455Y-100491892D01*
X139013454Y-100491894D01*
X138953666Y-100622809D01*
X138933185Y-100765266D01*
X138953666Y-100907722D01*
X138976484Y-100957685D01*
X139013455Y-101038639D01*
X139107704Y-101147409D01*
X139228779Y-101225219D01*
X139228782Y-101225220D01*
X139228781Y-101225220D01*
X139366868Y-101265765D01*
X139366870Y-101265766D01*
X139366871Y-101265766D01*
X139510794Y-101265766D01*
X139510794Y-101265765D01*
X139648885Y-101225219D01*
X139769960Y-101147409D01*
X139864209Y-101038639D01*
X139923997Y-100907723D01*
X139932946Y-100845478D01*
X139961970Y-100781923D01*
X140020748Y-100744148D01*
X140090618Y-100744148D01*
X140143365Y-100775444D01*
X140180285Y-100812364D01*
X140272354Y-100850500D01*
X140372010Y-100850500D01*
X140898174Y-100850500D01*
X140965213Y-100870185D01*
X140991887Y-100893297D01*
X141068872Y-100982143D01*
X141189947Y-101059953D01*
X141189950Y-101059954D01*
X141189949Y-101059954D01*
X141328036Y-101100499D01*
X141328038Y-101100500D01*
X141328039Y-101100500D01*
X141471962Y-101100500D01*
X141471962Y-101100499D01*
X141610053Y-101059953D01*
X141731128Y-100982143D01*
X141825377Y-100873373D01*
X141885165Y-100742457D01*
X141905647Y-100600000D01*
X141885165Y-100457543D01*
X141825377Y-100326627D01*
X141731128Y-100217857D01*
X141610053Y-100140047D01*
X141610051Y-100140046D01*
X141610049Y-100140045D01*
X141610050Y-100140045D01*
X141471963Y-100099500D01*
X141471961Y-100099500D01*
X141328039Y-100099500D01*
X141328036Y-100099500D01*
X141189949Y-100140045D01*
X141068873Y-100217856D01*
X140991887Y-100306703D01*
X140933109Y-100344477D01*
X140898174Y-100349500D01*
X140477304Y-100349500D01*
X140410265Y-100329815D01*
X140389623Y-100313181D01*
X140156442Y-100080000D01*
X145744417Y-100080000D01*
X145764699Y-100285932D01*
X145783862Y-100349104D01*
X145816756Y-100457543D01*
X145824769Y-100483956D01*
X145829012Y-100491894D01*
X145922315Y-100666450D01*
X145922317Y-100666452D01*
X146053589Y-100826410D01*
X146143260Y-100900000D01*
X146213550Y-100957685D01*
X146396046Y-101055232D01*
X146594066Y-101115300D01*
X146594065Y-101115300D01*
X146612529Y-101117118D01*
X146800000Y-101135583D01*
X147005934Y-101115300D01*
X147203954Y-101055232D01*
X147386450Y-100957685D01*
X147546410Y-100826410D01*
X147677685Y-100666450D01*
X147775232Y-100483954D01*
X147835300Y-100285934D01*
X147855583Y-100080000D01*
X147835300Y-99874066D01*
X147775232Y-99676046D01*
X147677685Y-99493550D01*
X147625702Y-99430209D01*
X147546410Y-99333589D01*
X147386452Y-99202317D01*
X147386453Y-99202317D01*
X147386450Y-99202315D01*
X147203954Y-99104768D01*
X147005934Y-99044700D01*
X147005932Y-99044699D01*
X147005934Y-99044699D01*
X146800000Y-99024417D01*
X146594067Y-99044699D01*
X146396043Y-99104769D01*
X146285898Y-99163643D01*
X146213550Y-99202315D01*
X146213548Y-99202316D01*
X146213547Y-99202317D01*
X146053589Y-99333589D01*
X145922317Y-99493547D01*
X145922315Y-99493550D01*
X145883643Y-99565898D01*
X145824769Y-99676043D01*
X145764699Y-99874067D01*
X145744417Y-100080000D01*
X140156442Y-100080000D01*
X139913141Y-99836699D01*
X139879656Y-99775376D01*
X139884640Y-99705684D01*
X139926512Y-99649751D01*
X139933763Y-99644716D01*
X140031128Y-99582144D01*
X140125377Y-99473374D01*
X140185165Y-99342458D01*
X140205647Y-99200001D01*
X140185165Y-99057544D01*
X140185161Y-99057536D01*
X140182667Y-99049040D01*
X140184582Y-99048477D01*
X140176275Y-98990693D01*
X140205301Y-98927138D01*
X140231969Y-98904030D01*
X140332598Y-98839360D01*
X140426847Y-98730590D01*
X140486635Y-98599674D01*
X140507117Y-98457217D01*
X140486635Y-98314760D01*
X140426847Y-98183844D01*
X140342558Y-98086569D01*
X140313535Y-98023016D01*
X140323479Y-97953858D01*
X140369229Y-97901056D01*
X140418302Y-97869519D01*
X140485336Y-97849836D01*
X140552376Y-97869520D01*
X140566541Y-97880123D01*
X140568872Y-97882143D01*
X140689947Y-97959953D01*
X140689950Y-97959954D01*
X140689949Y-97959954D01*
X140828036Y-98000499D01*
X140828038Y-98000500D01*
X140828039Y-98000500D01*
X140971962Y-98000500D01*
X140971962Y-98000499D01*
X141079121Y-97969035D01*
X141110050Y-97959954D01*
X141110050Y-97959953D01*
X141110053Y-97959953D01*
X141231128Y-97882143D01*
X141325377Y-97773373D01*
X141385165Y-97642457D01*
X141405647Y-97500000D01*
X141385165Y-97357543D01*
X141325377Y-97226627D01*
X141231128Y-97117857D01*
X141110053Y-97040047D01*
X141110051Y-97040046D01*
X141110049Y-97040045D01*
X141110050Y-97040045D01*
X140971963Y-96999500D01*
X140971961Y-96999500D01*
X140828039Y-96999500D01*
X140828036Y-96999500D01*
X140689949Y-97040045D01*
X140601619Y-97096812D01*
X140581979Y-97109434D01*
X140581977Y-97109435D01*
X140514938Y-97129119D01*
X140447898Y-97109434D01*
X140433736Y-97098833D01*
X140431404Y-97096812D01*
X140343072Y-97040045D01*
X140310330Y-97019003D01*
X140310328Y-97019002D01*
X140310326Y-97019001D01*
X140310327Y-97019001D01*
X140172240Y-96978456D01*
X140172238Y-96978456D01*
X140028316Y-96978456D01*
X140028313Y-96978456D01*
X139890226Y-97019001D01*
X139769150Y-97096812D01*
X139674900Y-97205582D01*
X139674899Y-97205584D01*
X139615111Y-97336499D01*
X139594630Y-97478956D01*
X139615111Y-97621412D01*
X139659157Y-97717857D01*
X139674900Y-97752329D01*
X139759186Y-97849602D01*
X139788211Y-97913156D01*
X139778267Y-97982314D01*
X139732513Y-98035118D01*
X139670344Y-98075072D01*
X139576093Y-98183843D01*
X139576092Y-98183845D01*
X139516304Y-98314760D01*
X139495823Y-98457217D01*
X139516304Y-98599673D01*
X139518804Y-98608185D01*
X139516888Y-98608747D01*
X139525191Y-98666533D01*
X139496161Y-98730087D01*
X139469495Y-98753191D01*
X139368874Y-98817856D01*
X139274623Y-98926627D01*
X139263677Y-98950595D01*
X139217920Y-99003397D01*
X139150880Y-99023079D01*
X139083841Y-99003392D01*
X139063203Y-98986760D01*
X139038290Y-98961847D01*
X139004805Y-98900524D01*
X139001971Y-98874166D01*
X139001971Y-98753139D01*
X139021656Y-98686100D01*
X139058929Y-98648825D01*
X139082599Y-98633614D01*
X139176848Y-98524844D01*
X139236636Y-98393928D01*
X139257118Y-98251471D01*
X139236636Y-98109014D01*
X139176848Y-97978098D01*
X139082599Y-97869328D01*
X138961524Y-97791518D01*
X138961522Y-97791517D01*
X138961520Y-97791516D01*
X138961521Y-97791516D01*
X138823434Y-97750971D01*
X138823432Y-97750971D01*
X138679510Y-97750971D01*
X138679507Y-97750971D01*
X138541420Y-97791516D01*
X138420344Y-97869327D01*
X138326094Y-97978097D01*
X138326093Y-97978099D01*
X138266305Y-98109014D01*
X138245824Y-98251471D01*
X134423251Y-98251471D01*
X134531128Y-98182143D01*
X134625377Y-98073373D01*
X134685165Y-97942457D01*
X134705647Y-97800000D01*
X134685165Y-97657543D01*
X134625377Y-97526627D01*
X134531128Y-97417857D01*
X134410053Y-97340047D01*
X134410051Y-97340046D01*
X134410049Y-97340045D01*
X134410050Y-97340045D01*
X134271963Y-97299500D01*
X134271961Y-97299500D01*
X134128039Y-97299500D01*
X134128036Y-97299500D01*
X133989949Y-97340045D01*
X133868873Y-97417856D01*
X133774623Y-97526626D01*
X133774622Y-97526628D01*
X133714834Y-97657543D01*
X133694353Y-97800000D01*
X131402305Y-97800000D01*
X131331128Y-97717857D01*
X131210053Y-97640047D01*
X131210051Y-97640046D01*
X131210049Y-97640045D01*
X131210050Y-97640045D01*
X131071963Y-97599500D01*
X131071961Y-97599500D01*
X130928039Y-97599500D01*
X130928036Y-97599500D01*
X130789949Y-97640045D01*
X130668873Y-97717856D01*
X130574623Y-97826626D01*
X130574622Y-97826628D01*
X130514834Y-97957543D01*
X130494353Y-98100000D01*
X127432370Y-98100000D01*
X127401997Y-98075074D01*
X127386450Y-98062315D01*
X127238732Y-97983357D01*
X127188889Y-97934395D01*
X127173429Y-97866257D01*
X127197261Y-97800578D01*
X127252819Y-97758209D01*
X127297187Y-97750000D01*
X127697828Y-97750000D01*
X127697844Y-97749999D01*
X127757372Y-97743598D01*
X127757379Y-97743596D01*
X127892086Y-97693354D01*
X127892093Y-97693350D01*
X128007187Y-97607190D01*
X128007190Y-97607187D01*
X128093350Y-97492093D01*
X128093354Y-97492086D01*
X128143596Y-97357379D01*
X128143598Y-97357372D01*
X128149999Y-97297844D01*
X128150000Y-97297827D01*
X128150000Y-96650000D01*
X127233012Y-96650000D01*
X127265925Y-96592993D01*
X127290843Y-96500000D01*
X137094353Y-96500000D01*
X137114834Y-96642456D01*
X137144314Y-96707007D01*
X137174623Y-96773373D01*
X137268872Y-96882143D01*
X137389947Y-96959953D01*
X137389950Y-96959954D01*
X137389949Y-96959954D01*
X137452963Y-96978456D01*
X137524633Y-96999500D01*
X137528036Y-97000499D01*
X137528038Y-97000500D01*
X137528039Y-97000500D01*
X137671962Y-97000500D01*
X137671962Y-97000499D01*
X137810053Y-96959953D01*
X137931128Y-96882143D01*
X138025377Y-96773373D01*
X138085165Y-96642457D01*
X138105647Y-96500000D01*
X138085165Y-96357543D01*
X138025377Y-96226627D01*
X137931128Y-96117857D01*
X137810053Y-96040047D01*
X137810051Y-96040046D01*
X137810049Y-96040045D01*
X137810050Y-96040045D01*
X137671963Y-95999500D01*
X137671961Y-95999500D01*
X137528039Y-95999500D01*
X137528036Y-95999500D01*
X137389949Y-96040045D01*
X137268873Y-96117856D01*
X137174623Y-96226626D01*
X137174622Y-96226628D01*
X137114834Y-96357543D01*
X137094353Y-96500000D01*
X127290843Y-96500000D01*
X127300000Y-96465826D01*
X127300000Y-96334174D01*
X127265925Y-96207007D01*
X127233012Y-96150000D01*
X128150000Y-96150000D01*
X128150000Y-95502172D01*
X128149999Y-95502155D01*
X128143598Y-95442627D01*
X128143596Y-95442620D01*
X128093354Y-95307913D01*
X128093350Y-95307906D01*
X128007190Y-95192812D01*
X128007187Y-95192809D01*
X127892093Y-95106649D01*
X127892086Y-95106645D01*
X127874270Y-95100000D01*
X130394353Y-95100000D01*
X130414834Y-95242456D01*
X130444725Y-95307906D01*
X130474623Y-95373373D01*
X130568872Y-95482143D01*
X130689947Y-95559953D01*
X130689950Y-95559954D01*
X130689949Y-95559954D01*
X130828036Y-95600499D01*
X130828038Y-95600500D01*
X130828039Y-95600500D01*
X130971962Y-95600500D01*
X130971962Y-95600499D01*
X131110053Y-95559953D01*
X131231128Y-95482143D01*
X131325377Y-95373373D01*
X131381720Y-95250000D01*
X148744353Y-95250000D01*
X148764834Y-95392456D01*
X148824622Y-95523371D01*
X148824625Y-95523377D01*
X148842321Y-95543799D01*
X148871345Y-95607355D01*
X148861401Y-95676513D01*
X148842321Y-95706201D01*
X148824625Y-95726622D01*
X148824622Y-95726628D01*
X148764834Y-95857543D01*
X148744353Y-96000000D01*
X148764834Y-96142456D01*
X148803275Y-96226628D01*
X148824623Y-96273373D01*
X148918872Y-96382143D01*
X149039947Y-96459953D01*
X149039950Y-96459954D01*
X149039949Y-96459954D01*
X149147107Y-96491417D01*
X149176336Y-96500000D01*
X149178036Y-96500499D01*
X149178038Y-96500500D01*
X149178039Y-96500500D01*
X149321962Y-96500500D01*
X149321962Y-96500499D01*
X149460053Y-96459953D01*
X149581128Y-96382143D01*
X149675377Y-96273373D01*
X149735165Y-96142457D01*
X149755647Y-96000000D01*
X149735165Y-95857543D01*
X149675377Y-95726627D01*
X149675375Y-95726625D01*
X149675374Y-95726622D01*
X149657680Y-95706203D01*
X149628654Y-95642648D01*
X149638597Y-95573489D01*
X149657680Y-95543797D01*
X149675374Y-95523377D01*
X149675374Y-95523375D01*
X149675377Y-95523373D01*
X149735165Y-95392457D01*
X149755647Y-95250000D01*
X149735165Y-95107543D01*
X149675377Y-94976627D01*
X149581128Y-94867857D01*
X149460053Y-94790047D01*
X149460051Y-94790046D01*
X149460049Y-94790045D01*
X149460050Y-94790045D01*
X149321963Y-94749500D01*
X149321961Y-94749500D01*
X149178039Y-94749500D01*
X149178036Y-94749500D01*
X149039949Y-94790045D01*
X148918873Y-94867856D01*
X148824623Y-94976626D01*
X148824622Y-94976628D01*
X148764834Y-95107543D01*
X148744353Y-95250000D01*
X131381720Y-95250000D01*
X131385165Y-95242457D01*
X131405647Y-95100000D01*
X131385165Y-94957543D01*
X131325377Y-94826627D01*
X131231128Y-94717857D01*
X131110053Y-94640047D01*
X131110051Y-94640046D01*
X131110049Y-94640045D01*
X131110050Y-94640045D01*
X130971963Y-94599500D01*
X130971961Y-94599500D01*
X130828039Y-94599500D01*
X130828036Y-94599500D01*
X130689949Y-94640045D01*
X130568873Y-94717856D01*
X130474623Y-94826626D01*
X130474622Y-94826628D01*
X130414834Y-94957543D01*
X130394353Y-95100000D01*
X127874270Y-95100000D01*
X127757379Y-95056403D01*
X127757372Y-95056401D01*
X127697844Y-95050000D01*
X127050000Y-95050000D01*
X127050000Y-95966988D01*
X126992993Y-95934075D01*
X126865826Y-95900000D01*
X126734174Y-95900000D01*
X126607007Y-95934075D01*
X126550000Y-95966988D01*
X126550000Y-95050000D01*
X125902155Y-95050000D01*
X125842627Y-95056401D01*
X125842620Y-95056403D01*
X125707913Y-95106645D01*
X125707906Y-95106649D01*
X125592812Y-95192809D01*
X125592809Y-95192812D01*
X125506649Y-95307906D01*
X125506645Y-95307913D01*
X125456403Y-95442620D01*
X125456401Y-95442627D01*
X125450000Y-95502155D01*
X124987602Y-95502155D01*
X124988845Y-93950000D01*
X127294353Y-93950000D01*
X127314834Y-94092456D01*
X127363949Y-94200000D01*
X127374623Y-94223373D01*
X127468872Y-94332143D01*
X127589947Y-94409953D01*
X127589950Y-94409954D01*
X127589949Y-94409954D01*
X127728036Y-94450499D01*
X127728038Y-94450500D01*
X127728039Y-94450500D01*
X127871962Y-94450500D01*
X127871962Y-94450499D01*
X128010053Y-94409953D01*
X128131128Y-94332143D01*
X128225377Y-94223373D01*
X128285165Y-94092457D01*
X128305647Y-93950000D01*
X128298458Y-93900000D01*
X141494353Y-93900000D01*
X141514834Y-94042456D01*
X141537669Y-94092456D01*
X141574623Y-94173373D01*
X141668872Y-94282143D01*
X141789947Y-94359953D01*
X141789950Y-94359954D01*
X141789949Y-94359954D01*
X141928036Y-94400499D01*
X141928038Y-94400500D01*
X141928039Y-94400500D01*
X142071961Y-94400500D01*
X142118221Y-94386917D01*
X142188089Y-94386917D01*
X142246867Y-94424691D01*
X142265948Y-94454379D01*
X142274622Y-94473371D01*
X142274623Y-94473373D01*
X142368872Y-94582143D01*
X142489947Y-94659953D01*
X142489950Y-94659954D01*
X142489949Y-94659954D01*
X142628036Y-94700499D01*
X142628038Y-94700500D01*
X142628039Y-94700500D01*
X142771962Y-94700500D01*
X142771962Y-94700499D01*
X142910053Y-94659953D01*
X143031128Y-94582143D01*
X143125377Y-94473373D01*
X143185165Y-94342457D01*
X143205647Y-94200000D01*
X143185165Y-94057543D01*
X143125377Y-93926627D01*
X143031128Y-93817857D01*
X142910053Y-93740047D01*
X142910052Y-93740046D01*
X142910051Y-93740046D01*
X142904023Y-93737293D01*
X142851221Y-93691536D01*
X142839257Y-93650789D01*
X142795970Y-93688296D01*
X142744462Y-93699500D01*
X142628038Y-93699500D01*
X142581775Y-93713083D01*
X142511906Y-93713081D01*
X142453128Y-93675306D01*
X142434049Y-93645617D01*
X142425377Y-93626627D01*
X142331128Y-93517857D01*
X142210053Y-93440047D01*
X142210051Y-93440046D01*
X142210049Y-93440045D01*
X142210050Y-93440045D01*
X142071963Y-93399500D01*
X142071961Y-93399500D01*
X141928039Y-93399500D01*
X141928036Y-93399500D01*
X141789949Y-93440045D01*
X141668873Y-93517856D01*
X141574623Y-93626626D01*
X141574622Y-93626628D01*
X141514834Y-93757543D01*
X141494353Y-93900000D01*
X128298458Y-93900000D01*
X128285165Y-93807543D01*
X128225377Y-93676627D01*
X128131128Y-93567857D01*
X128010053Y-93490047D01*
X128010051Y-93490046D01*
X128010049Y-93490045D01*
X128010050Y-93490045D01*
X127871963Y-93449500D01*
X127871961Y-93449500D01*
X127728039Y-93449500D01*
X127728036Y-93449500D01*
X127589949Y-93490045D01*
X127468873Y-93567856D01*
X127374623Y-93676626D01*
X127374622Y-93676628D01*
X127314834Y-93807543D01*
X127294353Y-93950000D01*
X124988845Y-93950000D01*
X124989606Y-93000000D01*
X142494353Y-93000000D01*
X142514834Y-93142456D01*
X142574622Y-93273371D01*
X142574623Y-93273373D01*
X142668872Y-93382143D01*
X142789947Y-93459953D01*
X142789949Y-93459953D01*
X142795977Y-93462707D01*
X142848779Y-93508464D01*
X142860742Y-93549210D01*
X142904030Y-93511704D01*
X142955538Y-93500500D01*
X143071962Y-93500500D01*
X143071962Y-93500499D01*
X143210053Y-93459953D01*
X143331128Y-93382143D01*
X143425377Y-93273373D01*
X143485165Y-93142457D01*
X143505647Y-93000000D01*
X143485165Y-92857543D01*
X143425377Y-92726627D01*
X143331128Y-92617857D01*
X143210053Y-92540047D01*
X143210051Y-92540046D01*
X143210049Y-92540045D01*
X143210050Y-92540045D01*
X143071963Y-92499500D01*
X143071961Y-92499500D01*
X142928039Y-92499500D01*
X142928036Y-92499500D01*
X142789949Y-92540045D01*
X142668873Y-92617856D01*
X142574623Y-92726626D01*
X142574622Y-92726628D01*
X142514834Y-92857543D01*
X142494353Y-93000000D01*
X124989606Y-93000000D01*
X124994911Y-86375001D01*
X125944353Y-86375001D01*
X125964834Y-86517457D01*
X125975150Y-86540045D01*
X126024623Y-86648374D01*
X126118872Y-86757144D01*
X126239947Y-86834954D01*
X126239950Y-86834955D01*
X126239949Y-86834955D01*
X126378036Y-86875500D01*
X126378038Y-86875501D01*
X126378039Y-86875501D01*
X126521962Y-86875501D01*
X126521962Y-86875500D01*
X126660053Y-86834954D01*
X126781128Y-86757144D01*
X126875377Y-86648374D01*
X126935165Y-86517458D01*
X126948458Y-86425001D01*
X129294353Y-86425001D01*
X129314834Y-86567457D01*
X129374622Y-86698372D01*
X129374623Y-86698374D01*
X129468872Y-86807144D01*
X129589947Y-86884954D01*
X129589950Y-86884955D01*
X129589949Y-86884955D01*
X129728036Y-86925500D01*
X129728038Y-86925501D01*
X129728039Y-86925501D01*
X129871962Y-86925501D01*
X129871962Y-86925500D01*
X130010053Y-86884954D01*
X130131128Y-86807144D01*
X130225377Y-86698374D01*
X130285165Y-86567458D01*
X130305647Y-86425001D01*
X130285165Y-86282544D01*
X130281720Y-86275001D01*
X132494353Y-86275001D01*
X132514834Y-86417457D01*
X132560504Y-86517458D01*
X132574623Y-86548374D01*
X132668872Y-86657144D01*
X132789947Y-86734954D01*
X132789950Y-86734955D01*
X132789949Y-86734955D01*
X132928036Y-86775500D01*
X132928038Y-86775501D01*
X132928039Y-86775501D01*
X133071962Y-86775501D01*
X133071962Y-86775500D01*
X133210053Y-86734954D01*
X133331128Y-86657144D01*
X133425377Y-86548374D01*
X133485165Y-86417458D01*
X133505647Y-86275001D01*
X133485165Y-86132544D01*
X133425377Y-86001628D01*
X133331128Y-85892858D01*
X133210053Y-85815048D01*
X133210051Y-85815047D01*
X133210049Y-85815046D01*
X133210050Y-85815046D01*
X133071963Y-85774501D01*
X133071961Y-85774501D01*
X132928039Y-85774501D01*
X132928036Y-85774501D01*
X132789949Y-85815046D01*
X132668873Y-85892857D01*
X132668872Y-85892857D01*
X132668872Y-85892858D01*
X132656290Y-85907378D01*
X132574623Y-86001627D01*
X132574622Y-86001629D01*
X132514834Y-86132544D01*
X132494353Y-86275001D01*
X130281720Y-86275001D01*
X130225377Y-86151628D01*
X130131128Y-86042858D01*
X130010053Y-85965048D01*
X130010051Y-85965047D01*
X130010049Y-85965046D01*
X130010050Y-85965046D01*
X129871963Y-85924501D01*
X129871961Y-85924501D01*
X129728039Y-85924501D01*
X129728036Y-85924501D01*
X129589949Y-85965046D01*
X129468873Y-86042857D01*
X129374623Y-86151627D01*
X129374622Y-86151629D01*
X129314834Y-86282544D01*
X129294353Y-86425001D01*
X126948458Y-86425001D01*
X126955647Y-86375001D01*
X126935165Y-86232544D01*
X126875377Y-86101628D01*
X126781128Y-85992858D01*
X126660053Y-85915048D01*
X126660051Y-85915047D01*
X126660049Y-85915046D01*
X126660050Y-85915046D01*
X126521963Y-85874501D01*
X126521961Y-85874501D01*
X126378039Y-85874501D01*
X126378036Y-85874501D01*
X126239949Y-85915046D01*
X126118873Y-85992857D01*
X126024623Y-86101627D01*
X126024622Y-86101629D01*
X125964834Y-86232544D01*
X125944353Y-86375001D01*
X124994911Y-86375001D01*
X124996188Y-84780000D01*
X135684353Y-84780000D01*
X135704834Y-84922456D01*
X135750504Y-85022457D01*
X135764623Y-85053373D01*
X135858872Y-85162143D01*
X135979947Y-85239953D01*
X135979950Y-85239954D01*
X135979949Y-85239954D01*
X136118036Y-85280499D01*
X136118038Y-85280500D01*
X136173703Y-85280500D01*
X136240742Y-85300185D01*
X136286497Y-85352989D01*
X136296441Y-85422147D01*
X136267416Y-85485703D01*
X136240742Y-85508816D01*
X136148873Y-85567856D01*
X136054623Y-85676626D01*
X136054622Y-85676628D01*
X135994834Y-85807543D01*
X135974353Y-85950000D01*
X135994834Y-86092456D01*
X136021858Y-86151629D01*
X136054623Y-86223373D01*
X136148872Y-86332143D01*
X136269947Y-86409953D01*
X136269950Y-86409954D01*
X136269948Y-86409954D01*
X136364980Y-86437857D01*
X136408039Y-86450500D01*
X136408040Y-86450500D01*
X136412239Y-86451733D01*
X136471017Y-86489506D01*
X136500043Y-86553062D01*
X136490100Y-86622220D01*
X136490100Y-86622221D01*
X136464834Y-86677545D01*
X136444353Y-86820000D01*
X136464834Y-86962456D01*
X136524622Y-87093371D01*
X136524623Y-87093373D01*
X136618872Y-87202143D01*
X136739947Y-87279953D01*
X136739950Y-87279954D01*
X136739949Y-87279954D01*
X136878036Y-87320499D01*
X136878038Y-87320500D01*
X136878039Y-87320500D01*
X137021961Y-87320500D01*
X137095971Y-87298769D01*
X137165837Y-87298769D01*
X137224615Y-87336542D01*
X137253641Y-87400098D01*
X137253641Y-87435391D01*
X137244353Y-87499997D01*
X137244353Y-87499999D01*
X137264834Y-87642456D01*
X137324622Y-87773371D01*
X137324625Y-87773377D01*
X137342321Y-87793799D01*
X137371345Y-87857355D01*
X137361401Y-87926513D01*
X137342321Y-87956201D01*
X137324625Y-87976622D01*
X137324622Y-87976628D01*
X137264834Y-88107543D01*
X137244353Y-88250000D01*
X137264834Y-88392456D01*
X137324622Y-88523371D01*
X137324625Y-88523377D01*
X137342321Y-88543799D01*
X137371345Y-88607355D01*
X137361401Y-88676513D01*
X137342321Y-88706201D01*
X137324625Y-88726622D01*
X137324622Y-88726628D01*
X137264834Y-88857543D01*
X137244353Y-89000000D01*
X137264834Y-89142456D01*
X137324622Y-89273371D01*
X137324625Y-89273377D01*
X137342321Y-89293799D01*
X137371345Y-89357355D01*
X137361401Y-89426513D01*
X137342321Y-89456201D01*
X137324625Y-89476622D01*
X137324622Y-89476628D01*
X137264834Y-89607543D01*
X137244353Y-89750000D01*
X137264834Y-89892456D01*
X137324622Y-90023371D01*
X137324625Y-90023377D01*
X137342321Y-90043799D01*
X137371345Y-90107355D01*
X137361401Y-90176513D01*
X137342321Y-90206201D01*
X137324625Y-90226622D01*
X137324622Y-90226628D01*
X137264834Y-90357543D01*
X137244353Y-90500000D01*
X137264834Y-90642456D01*
X137324622Y-90773371D01*
X137324625Y-90773377D01*
X137342321Y-90793799D01*
X137371345Y-90857355D01*
X137361401Y-90926513D01*
X137342321Y-90956201D01*
X137324625Y-90976622D01*
X137324622Y-90976628D01*
X137264834Y-91107543D01*
X137244353Y-91250000D01*
X137264834Y-91392456D01*
X137295660Y-91459954D01*
X137324623Y-91523373D01*
X137418872Y-91632143D01*
X137539947Y-91709953D01*
X137539950Y-91709954D01*
X137539949Y-91709954D01*
X137678036Y-91750499D01*
X137678038Y-91750500D01*
X137678039Y-91750500D01*
X137821962Y-91750500D01*
X137821962Y-91750499D01*
X137960053Y-91709953D01*
X138081128Y-91632143D01*
X138175377Y-91523373D01*
X138235165Y-91392457D01*
X138255647Y-91250000D01*
X138235165Y-91107543D01*
X138175377Y-90976627D01*
X138175375Y-90976625D01*
X138175374Y-90976622D01*
X138157680Y-90956203D01*
X138128654Y-90892648D01*
X138138597Y-90823489D01*
X138157680Y-90793797D01*
X138175374Y-90773377D01*
X138175374Y-90773375D01*
X138175377Y-90773373D01*
X138235165Y-90642457D01*
X138255647Y-90500000D01*
X138235165Y-90357543D01*
X138175377Y-90226627D01*
X138175375Y-90226625D01*
X138175374Y-90226622D01*
X138157680Y-90206203D01*
X138128654Y-90142648D01*
X138138597Y-90073489D01*
X138157680Y-90043797D01*
X138175374Y-90023377D01*
X138175374Y-90023375D01*
X138175377Y-90023373D01*
X138235165Y-89892457D01*
X138255647Y-89750000D01*
X138235165Y-89607543D01*
X138175377Y-89476627D01*
X138175375Y-89476625D01*
X138175374Y-89476622D01*
X138157680Y-89456203D01*
X138128654Y-89392648D01*
X138138597Y-89323489D01*
X138157680Y-89293797D01*
X138175374Y-89273377D01*
X138175374Y-89273375D01*
X138175377Y-89273373D01*
X138235165Y-89142457D01*
X138252262Y-89023542D01*
X138263014Y-88999999D01*
X138486986Y-88999999D01*
X138497738Y-89023543D01*
X138514834Y-89142456D01*
X138563949Y-89250000D01*
X138574623Y-89273373D01*
X138668872Y-89382143D01*
X138676324Y-89386932D01*
X138689943Y-89395685D01*
X138735698Y-89448489D01*
X138745641Y-89517648D01*
X138716615Y-89581203D01*
X138689943Y-89604315D01*
X138668874Y-89617855D01*
X138574623Y-89726626D01*
X138574622Y-89726628D01*
X138514834Y-89857543D01*
X138494353Y-90000000D01*
X138514834Y-90142456D01*
X138553275Y-90226628D01*
X138574623Y-90273373D01*
X138668872Y-90382143D01*
X138676324Y-90386932D01*
X138689943Y-90395685D01*
X138735698Y-90448489D01*
X138745641Y-90517648D01*
X138716615Y-90581203D01*
X138689943Y-90604315D01*
X138668874Y-90617855D01*
X138574623Y-90726626D01*
X138574622Y-90726628D01*
X138514834Y-90857543D01*
X138494353Y-91000000D01*
X138514834Y-91142456D01*
X138545660Y-91209954D01*
X138574623Y-91273373D01*
X138668872Y-91382143D01*
X138789947Y-91459953D01*
X138789950Y-91459954D01*
X138789949Y-91459954D01*
X138897107Y-91491417D01*
X138926336Y-91500000D01*
X138928036Y-91500499D01*
X138928038Y-91500500D01*
X138928039Y-91500500D01*
X139071962Y-91500500D01*
X139071962Y-91500499D01*
X139210053Y-91459953D01*
X139331128Y-91382143D01*
X139406287Y-91295403D01*
X139465064Y-91257629D01*
X139534934Y-91257629D01*
X139593711Y-91295402D01*
X139668872Y-91382143D01*
X139789947Y-91459953D01*
X139789950Y-91459954D01*
X139789949Y-91459954D01*
X139897107Y-91491417D01*
X139926336Y-91500000D01*
X139928036Y-91500499D01*
X139928038Y-91500500D01*
X139928039Y-91500500D01*
X140071962Y-91500500D01*
X140071962Y-91500499D01*
X140210053Y-91459953D01*
X140331128Y-91382143D01*
X140406287Y-91295403D01*
X140465064Y-91257629D01*
X140534934Y-91257629D01*
X140593711Y-91295402D01*
X140668872Y-91382143D01*
X140789947Y-91459953D01*
X140789950Y-91459954D01*
X140789949Y-91459954D01*
X140897107Y-91491417D01*
X140926336Y-91500000D01*
X140928036Y-91500499D01*
X140928038Y-91500500D01*
X140928039Y-91500500D01*
X141071962Y-91500500D01*
X141071962Y-91500499D01*
X141210053Y-91459953D01*
X141331128Y-91382143D01*
X141406287Y-91295403D01*
X141465064Y-91257629D01*
X141534934Y-91257629D01*
X141593711Y-91295402D01*
X141668872Y-91382143D01*
X141676324Y-91386932D01*
X141689943Y-91395685D01*
X141735698Y-91448489D01*
X141745641Y-91517648D01*
X141716615Y-91581203D01*
X141689943Y-91604315D01*
X141668874Y-91617855D01*
X141574623Y-91726626D01*
X141574622Y-91726628D01*
X141514834Y-91857543D01*
X141494353Y-92000000D01*
X141514834Y-92142456D01*
X141574622Y-92273371D01*
X141574623Y-92273373D01*
X141668872Y-92382143D01*
X141789947Y-92459953D01*
X141789950Y-92459954D01*
X141789949Y-92459954D01*
X141897107Y-92491417D01*
X141924633Y-92499500D01*
X141928036Y-92500499D01*
X141928038Y-92500500D01*
X141928039Y-92500500D01*
X142071962Y-92500500D01*
X142071962Y-92500499D01*
X142210053Y-92459953D01*
X142331128Y-92382143D01*
X142425377Y-92273373D01*
X142485165Y-92142457D01*
X142505647Y-92000000D01*
X142485165Y-91857543D01*
X142425377Y-91726627D01*
X142331128Y-91617857D01*
X142331125Y-91617855D01*
X142331125Y-91617854D01*
X142310058Y-91604316D01*
X142264302Y-91551513D01*
X142254358Y-91482354D01*
X142283382Y-91418798D01*
X142310058Y-91395684D01*
X142331125Y-91382145D01*
X142331125Y-91382144D01*
X142331128Y-91382143D01*
X142425377Y-91273373D01*
X142485165Y-91142457D01*
X142505647Y-91000000D01*
X142485165Y-90857543D01*
X142425377Y-90726627D01*
X142331128Y-90617857D01*
X142331125Y-90617855D01*
X142331125Y-90617854D01*
X142310058Y-90604316D01*
X142264302Y-90551513D01*
X142254358Y-90482354D01*
X142283382Y-90418798D01*
X142310058Y-90395684D01*
X142331125Y-90382145D01*
X142331125Y-90382144D01*
X142331128Y-90382143D01*
X142406287Y-90295403D01*
X142465064Y-90257629D01*
X142534934Y-90257629D01*
X142593712Y-90295403D01*
X142593713Y-90295404D01*
X142662682Y-90375000D01*
X142668872Y-90382143D01*
X142789947Y-90459953D01*
X142789950Y-90459954D01*
X142789949Y-90459954D01*
X142897107Y-90491417D01*
X142926336Y-90500000D01*
X142928036Y-90500499D01*
X142928038Y-90500500D01*
X142928039Y-90500500D01*
X143071962Y-90500500D01*
X143071962Y-90500499D01*
X143210053Y-90459953D01*
X143331128Y-90382143D01*
X143406287Y-90295403D01*
X143465064Y-90257629D01*
X143534934Y-90257629D01*
X143593712Y-90295403D01*
X143593713Y-90295404D01*
X143662682Y-90375000D01*
X143668872Y-90382143D01*
X143789947Y-90459953D01*
X143789950Y-90459954D01*
X143789949Y-90459954D01*
X143897107Y-90491417D01*
X143926336Y-90500000D01*
X143928036Y-90500499D01*
X143928038Y-90500500D01*
X143928039Y-90500500D01*
X144071962Y-90500500D01*
X144071962Y-90500499D01*
X144210053Y-90459953D01*
X144331128Y-90382143D01*
X144406287Y-90295403D01*
X144465064Y-90257629D01*
X144534934Y-90257629D01*
X144593712Y-90295403D01*
X144593713Y-90295404D01*
X144662682Y-90375000D01*
X144668872Y-90382143D01*
X144676324Y-90386932D01*
X144689943Y-90395685D01*
X144735698Y-90448489D01*
X144745641Y-90517648D01*
X144716615Y-90581203D01*
X144689943Y-90604315D01*
X144668874Y-90617855D01*
X144574623Y-90726626D01*
X144574622Y-90726628D01*
X144514834Y-90857543D01*
X144494353Y-91000000D01*
X144514834Y-91142456D01*
X144545660Y-91209954D01*
X144574623Y-91273373D01*
X144668872Y-91382143D01*
X144789947Y-91459953D01*
X144789950Y-91459954D01*
X144789949Y-91459954D01*
X144897107Y-91491417D01*
X144926336Y-91500000D01*
X144928036Y-91500499D01*
X144928038Y-91500500D01*
X144928039Y-91500500D01*
X145071962Y-91500500D01*
X145071962Y-91500499D01*
X145210053Y-91459953D01*
X145331128Y-91382143D01*
X145406287Y-91295403D01*
X145465064Y-91257629D01*
X145534934Y-91257629D01*
X145593711Y-91295402D01*
X145668872Y-91382143D01*
X145789947Y-91459953D01*
X145789950Y-91459954D01*
X145789949Y-91459954D01*
X145897107Y-91491417D01*
X145926336Y-91500000D01*
X145928036Y-91500499D01*
X145928038Y-91500500D01*
X145928039Y-91500500D01*
X146071962Y-91500500D01*
X146071962Y-91500499D01*
X146210053Y-91459953D01*
X146331128Y-91382143D01*
X146406287Y-91295403D01*
X146465064Y-91257629D01*
X146534934Y-91257629D01*
X146593711Y-91295402D01*
X146668872Y-91382143D01*
X146789947Y-91459953D01*
X146789950Y-91459954D01*
X146789949Y-91459954D01*
X146897107Y-91491417D01*
X146926336Y-91500000D01*
X146928036Y-91500499D01*
X146928038Y-91500500D01*
X146928039Y-91500500D01*
X147071962Y-91500500D01*
X147071962Y-91500499D01*
X147210053Y-91459953D01*
X147331128Y-91382143D01*
X147406287Y-91295403D01*
X147465064Y-91257629D01*
X147534934Y-91257629D01*
X147593711Y-91295402D01*
X147668872Y-91382143D01*
X147789947Y-91459953D01*
X147789950Y-91459954D01*
X147789949Y-91459954D01*
X147897107Y-91491417D01*
X147926336Y-91500000D01*
X147928036Y-91500499D01*
X147928038Y-91500500D01*
X147928039Y-91500500D01*
X148071962Y-91500500D01*
X148071962Y-91500499D01*
X148210053Y-91459953D01*
X148331128Y-91382143D01*
X148425377Y-91273373D01*
X148485165Y-91142457D01*
X148505647Y-91000000D01*
X148485165Y-90857543D01*
X148425377Y-90726627D01*
X148331128Y-90617857D01*
X148331125Y-90617855D01*
X148331125Y-90617854D01*
X148310058Y-90604316D01*
X148264302Y-90551513D01*
X148254358Y-90482354D01*
X148283382Y-90418798D01*
X148310058Y-90395684D01*
X148331125Y-90382145D01*
X148331125Y-90382144D01*
X148331128Y-90382143D01*
X148425377Y-90273373D01*
X148485165Y-90142457D01*
X148502262Y-90023542D01*
X148513014Y-89999999D01*
X148736986Y-89999999D01*
X148747738Y-90023543D01*
X148764834Y-90142456D01*
X148824622Y-90273371D01*
X148824625Y-90273377D01*
X148842321Y-90293799D01*
X148871345Y-90357355D01*
X148861401Y-90426513D01*
X148842321Y-90456201D01*
X148824625Y-90476622D01*
X148824622Y-90476628D01*
X148764834Y-90607543D01*
X148744353Y-90750000D01*
X148764834Y-90892456D01*
X148803275Y-90976628D01*
X148824623Y-91023373D01*
X148918872Y-91132143D01*
X149039947Y-91209953D01*
X149039950Y-91209954D01*
X149039949Y-91209954D01*
X149147107Y-91241417D01*
X149176336Y-91250000D01*
X149178036Y-91250499D01*
X149178038Y-91250500D01*
X149178039Y-91250500D01*
X149321962Y-91250500D01*
X149321962Y-91250499D01*
X149460053Y-91209953D01*
X149581128Y-91132143D01*
X149675377Y-91023373D01*
X149735165Y-90892457D01*
X149755647Y-90750000D01*
X149735165Y-90607543D01*
X149675377Y-90476627D01*
X149675375Y-90476625D01*
X149675374Y-90476622D01*
X149657680Y-90456203D01*
X149628654Y-90392648D01*
X149638597Y-90323489D01*
X149657680Y-90293797D01*
X149675374Y-90273377D01*
X149675374Y-90273375D01*
X149675377Y-90273373D01*
X149735165Y-90142457D01*
X149755647Y-90000000D01*
X149735165Y-89857543D01*
X149675377Y-89726627D01*
X149675375Y-89726625D01*
X149675374Y-89726622D01*
X149657680Y-89706203D01*
X149628654Y-89642648D01*
X149638597Y-89573489D01*
X149657680Y-89543797D01*
X149675374Y-89523377D01*
X149675374Y-89523375D01*
X149675377Y-89523373D01*
X149735165Y-89392457D01*
X149755647Y-89250000D01*
X149735165Y-89107543D01*
X149675377Y-88976627D01*
X149675375Y-88976625D01*
X149675374Y-88976622D01*
X149657680Y-88956203D01*
X149628654Y-88892648D01*
X149638597Y-88823489D01*
X149657680Y-88793797D01*
X149675374Y-88773377D01*
X149675374Y-88773375D01*
X149675377Y-88773373D01*
X149735165Y-88642457D01*
X149755647Y-88500000D01*
X149735165Y-88357543D01*
X149675377Y-88226627D01*
X149675375Y-88226625D01*
X149675374Y-88226622D01*
X149657680Y-88206203D01*
X149628654Y-88142648D01*
X149638597Y-88073489D01*
X149657680Y-88043797D01*
X149675374Y-88023377D01*
X149675374Y-88023375D01*
X149675377Y-88023373D01*
X149735165Y-87892457D01*
X149755647Y-87750000D01*
X149735165Y-87607543D01*
X149675377Y-87476627D01*
X149675375Y-87476625D01*
X149675374Y-87476622D01*
X149657680Y-87456203D01*
X149628654Y-87392648D01*
X149638597Y-87323489D01*
X149657680Y-87293797D01*
X149675374Y-87273377D01*
X149675374Y-87273375D01*
X149675377Y-87273373D01*
X149735165Y-87142457D01*
X149755647Y-87000000D01*
X149735165Y-86857543D01*
X149675377Y-86726627D01*
X149581128Y-86617857D01*
X149460053Y-86540047D01*
X149460051Y-86540046D01*
X149460049Y-86540045D01*
X149460050Y-86540045D01*
X149321963Y-86499500D01*
X149321961Y-86499500D01*
X149178039Y-86499500D01*
X149178036Y-86499500D01*
X149039949Y-86540045D01*
X148918873Y-86617856D01*
X148918872Y-86617856D01*
X148918872Y-86617857D01*
X148915091Y-86622221D01*
X148824623Y-86726626D01*
X148824622Y-86726628D01*
X148764834Y-86857543D01*
X148744353Y-87000000D01*
X148764834Y-87142456D01*
X148824622Y-87273371D01*
X148824625Y-87273377D01*
X148842321Y-87293799D01*
X148871345Y-87357355D01*
X148861401Y-87426513D01*
X148842321Y-87456201D01*
X148824625Y-87476622D01*
X148824622Y-87476628D01*
X148764834Y-87607543D01*
X148744353Y-87750000D01*
X148764834Y-87892456D01*
X148824622Y-88023371D01*
X148824625Y-88023377D01*
X148842321Y-88043799D01*
X148871345Y-88107355D01*
X148861401Y-88176513D01*
X148842321Y-88206201D01*
X148824625Y-88226622D01*
X148824622Y-88226628D01*
X148764834Y-88357543D01*
X148744353Y-88500000D01*
X148764834Y-88642456D01*
X148824622Y-88773371D01*
X148824625Y-88773377D01*
X148842321Y-88793799D01*
X148871345Y-88857355D01*
X148861401Y-88926513D01*
X148842321Y-88956201D01*
X148824625Y-88976622D01*
X148824622Y-88976628D01*
X148764834Y-89107543D01*
X148744353Y-89250000D01*
X148764834Y-89392456D01*
X148824622Y-89523371D01*
X148824625Y-89523377D01*
X148842321Y-89543799D01*
X148871345Y-89607355D01*
X148861401Y-89676513D01*
X148842321Y-89706201D01*
X148824625Y-89726622D01*
X148824622Y-89726628D01*
X148764834Y-89857543D01*
X148747738Y-89976456D01*
X148736986Y-89999999D01*
X148513014Y-89999999D01*
X148502262Y-89976456D01*
X148485165Y-89857543D01*
X148425377Y-89726628D01*
X148425376Y-89726626D01*
X148425373Y-89726622D01*
X148331128Y-89617857D01*
X148331125Y-89617855D01*
X148331125Y-89617854D01*
X148310058Y-89604316D01*
X148264302Y-89551513D01*
X148254358Y-89482354D01*
X148283382Y-89418798D01*
X148310058Y-89395684D01*
X148331125Y-89382145D01*
X148331125Y-89382144D01*
X148331128Y-89382143D01*
X148425377Y-89273373D01*
X148485165Y-89142457D01*
X148505647Y-89000000D01*
X148485165Y-88857543D01*
X148425377Y-88726627D01*
X148331128Y-88617857D01*
X148210053Y-88540047D01*
X148210051Y-88540046D01*
X148210049Y-88540045D01*
X148210050Y-88540045D01*
X148071963Y-88499500D01*
X148071961Y-88499500D01*
X147928039Y-88499500D01*
X147928036Y-88499500D01*
X147789949Y-88540045D01*
X147668873Y-88617856D01*
X147593713Y-88704596D01*
X147534935Y-88742370D01*
X147465065Y-88742370D01*
X147406287Y-88704596D01*
X147381953Y-88676513D01*
X147331128Y-88617857D01*
X147210053Y-88540047D01*
X147210051Y-88540046D01*
X147210049Y-88540045D01*
X147210050Y-88540045D01*
X147071963Y-88499500D01*
X147071961Y-88499500D01*
X146928039Y-88499500D01*
X146928036Y-88499500D01*
X146789949Y-88540045D01*
X146668873Y-88617856D01*
X146593713Y-88704596D01*
X146534935Y-88742370D01*
X146465065Y-88742370D01*
X146406287Y-88704596D01*
X146381953Y-88676513D01*
X146331128Y-88617857D01*
X146210053Y-88540047D01*
X146210051Y-88540046D01*
X146210049Y-88540045D01*
X146210050Y-88540045D01*
X146071963Y-88499500D01*
X146071961Y-88499500D01*
X145928039Y-88499500D01*
X145928036Y-88499500D01*
X145789949Y-88540045D01*
X145668873Y-88617856D01*
X145593713Y-88704596D01*
X145534935Y-88742370D01*
X145465065Y-88742370D01*
X145406287Y-88704596D01*
X145381953Y-88676513D01*
X145331128Y-88617857D01*
X145331125Y-88617855D01*
X145331125Y-88617854D01*
X145310058Y-88604316D01*
X145264302Y-88551513D01*
X145254358Y-88482354D01*
X145283382Y-88418798D01*
X145310058Y-88395684D01*
X145331125Y-88382145D01*
X145331125Y-88382144D01*
X145331128Y-88382143D01*
X145425377Y-88273373D01*
X145485165Y-88142457D01*
X145505647Y-88000000D01*
X145485165Y-87857543D01*
X145425377Y-87726627D01*
X145331128Y-87617857D01*
X145210053Y-87540047D01*
X145210051Y-87540046D01*
X145210049Y-87540045D01*
X145210050Y-87540045D01*
X145071963Y-87499500D01*
X145071961Y-87499500D01*
X144928039Y-87499500D01*
X144928036Y-87499500D01*
X144789949Y-87540045D01*
X144668873Y-87617856D01*
X144593713Y-87704596D01*
X144534935Y-87742370D01*
X144465065Y-87742370D01*
X144406287Y-87704596D01*
X144331128Y-87617857D01*
X144210053Y-87540047D01*
X144210051Y-87540046D01*
X144210049Y-87540045D01*
X144210050Y-87540045D01*
X144071963Y-87499500D01*
X144071961Y-87499500D01*
X143928039Y-87499500D01*
X143928036Y-87499500D01*
X143789949Y-87540045D01*
X143668873Y-87617856D01*
X143593713Y-87704596D01*
X143534935Y-87742370D01*
X143465065Y-87742370D01*
X143406287Y-87704596D01*
X143331128Y-87617857D01*
X143210053Y-87540047D01*
X143210051Y-87540046D01*
X143210049Y-87540045D01*
X143210050Y-87540045D01*
X143071963Y-87499500D01*
X143071961Y-87499500D01*
X142928039Y-87499500D01*
X142928036Y-87499500D01*
X142789949Y-87540045D01*
X142668873Y-87617856D01*
X142593713Y-87704596D01*
X142534935Y-87742370D01*
X142465065Y-87742370D01*
X142406287Y-87704596D01*
X142331128Y-87617857D01*
X142210053Y-87540047D01*
X142210051Y-87540046D01*
X142210049Y-87540045D01*
X142210050Y-87540045D01*
X142071963Y-87499500D01*
X142071961Y-87499500D01*
X141928039Y-87499500D01*
X141928036Y-87499500D01*
X141789949Y-87540045D01*
X141668873Y-87617856D01*
X141593713Y-87704596D01*
X141534935Y-87742370D01*
X141465065Y-87742370D01*
X141406287Y-87704596D01*
X141331128Y-87617857D01*
X141210053Y-87540047D01*
X141210051Y-87540046D01*
X141210049Y-87540045D01*
X141210050Y-87540045D01*
X141071963Y-87499500D01*
X141071961Y-87499500D01*
X140928039Y-87499500D01*
X140928036Y-87499500D01*
X140789949Y-87540045D01*
X140668873Y-87617856D01*
X140593713Y-87704596D01*
X140534935Y-87742370D01*
X140465065Y-87742370D01*
X140406287Y-87704596D01*
X140331128Y-87617857D01*
X140210053Y-87540047D01*
X140210051Y-87540046D01*
X140210049Y-87540045D01*
X140210050Y-87540045D01*
X140071963Y-87499500D01*
X140071961Y-87499500D01*
X139928039Y-87499500D01*
X139928036Y-87499500D01*
X139789949Y-87540045D01*
X139668873Y-87617856D01*
X139593713Y-87704596D01*
X139534935Y-87742370D01*
X139465065Y-87742370D01*
X139406287Y-87704596D01*
X139331128Y-87617857D01*
X139210053Y-87540047D01*
X139210051Y-87540046D01*
X139210049Y-87540045D01*
X139210050Y-87540045D01*
X139071963Y-87499500D01*
X139071961Y-87499500D01*
X138928039Y-87499500D01*
X138928036Y-87499500D01*
X138789949Y-87540045D01*
X138668873Y-87617856D01*
X138574623Y-87726626D01*
X138574622Y-87726628D01*
X138514834Y-87857543D01*
X138494353Y-88000000D01*
X138514834Y-88142456D01*
X138553275Y-88226628D01*
X138574623Y-88273373D01*
X138668872Y-88382143D01*
X138676324Y-88386932D01*
X138689943Y-88395685D01*
X138735698Y-88448489D01*
X138745641Y-88517648D01*
X138716615Y-88581203D01*
X138689943Y-88604315D01*
X138668874Y-88617855D01*
X138574623Y-88726626D01*
X138574622Y-88726628D01*
X138514834Y-88857543D01*
X138497738Y-88976456D01*
X138486986Y-88999999D01*
X138263014Y-88999999D01*
X138252262Y-88976456D01*
X138235165Y-88857543D01*
X138196725Y-88773373D01*
X138175377Y-88726627D01*
X138175375Y-88726625D01*
X138175374Y-88726622D01*
X138157680Y-88706203D01*
X138128654Y-88642648D01*
X138138597Y-88573489D01*
X138157680Y-88543797D01*
X138175374Y-88523377D01*
X138175374Y-88523375D01*
X138175377Y-88523373D01*
X138235165Y-88392457D01*
X138255647Y-88250000D01*
X138235165Y-88107543D01*
X138175377Y-87976627D01*
X138175375Y-87976625D01*
X138175374Y-87976622D01*
X138157680Y-87956203D01*
X138128654Y-87892648D01*
X138138597Y-87823489D01*
X138157680Y-87793797D01*
X138175374Y-87773377D01*
X138175374Y-87773375D01*
X138175377Y-87773373D01*
X138235165Y-87642457D01*
X138255647Y-87500000D01*
X138235165Y-87357543D01*
X138175377Y-87226627D01*
X138175375Y-87226625D01*
X138175374Y-87226622D01*
X138157680Y-87206203D01*
X138128654Y-87142648D01*
X138138597Y-87073489D01*
X138157680Y-87043797D01*
X138175374Y-87023377D01*
X138175374Y-87023375D01*
X138175377Y-87023373D01*
X138235165Y-86892457D01*
X138255647Y-86750000D01*
X138235165Y-86607543D01*
X138175377Y-86476627D01*
X138139576Y-86435310D01*
X138110552Y-86371756D01*
X138120496Y-86302598D01*
X138166250Y-86249794D01*
X138198352Y-86235133D01*
X138250053Y-86219953D01*
X138371128Y-86142143D01*
X138465377Y-86033373D01*
X138525165Y-85902457D01*
X138545647Y-85760000D01*
X138525165Y-85617543D01*
X138465377Y-85486627D01*
X138371128Y-85377857D01*
X138250053Y-85300047D01*
X138250051Y-85300046D01*
X138250049Y-85300045D01*
X138250050Y-85300045D01*
X138111963Y-85259500D01*
X138111961Y-85259500D01*
X137968039Y-85259500D01*
X137968036Y-85259500D01*
X137829949Y-85300045D01*
X137708873Y-85377856D01*
X137614623Y-85486626D01*
X137614622Y-85486628D01*
X137554834Y-85617543D01*
X137534353Y-85760000D01*
X137554834Y-85902456D01*
X137596120Y-85992857D01*
X137614623Y-86033373D01*
X137650422Y-86074687D01*
X137679447Y-86138243D01*
X137669503Y-86207401D01*
X137623749Y-86260205D01*
X137591644Y-86274867D01*
X137539948Y-86290045D01*
X137418873Y-86367856D01*
X137401006Y-86388476D01*
X137342227Y-86426250D01*
X137272358Y-86426250D01*
X137240254Y-86411589D01*
X137204289Y-86388476D01*
X137160053Y-86360047D01*
X137160051Y-86360046D01*
X137160049Y-86360045D01*
X137160050Y-86360045D01*
X137017760Y-86318266D01*
X136958981Y-86280492D01*
X136929956Y-86216937D01*
X136939898Y-86147782D01*
X136965165Y-86092457D01*
X136985647Y-85950000D01*
X136965165Y-85807543D01*
X136905377Y-85676627D01*
X136811128Y-85567857D01*
X136690053Y-85490047D01*
X136690051Y-85490046D01*
X136690049Y-85490045D01*
X136690050Y-85490045D01*
X136551963Y-85449500D01*
X136551961Y-85449500D01*
X136496297Y-85449500D01*
X136429258Y-85429815D01*
X136383503Y-85377011D01*
X136373559Y-85307853D01*
X136402584Y-85244297D01*
X136429258Y-85221184D01*
X136521128Y-85162143D01*
X136615377Y-85053373D01*
X136675165Y-84922457D01*
X136689224Y-84824670D01*
X138889298Y-84824670D01*
X138909779Y-84967126D01*
X138969567Y-85098041D01*
X138969568Y-85098043D01*
X139063817Y-85206813D01*
X139184892Y-85284623D01*
X139184895Y-85284624D01*
X139184894Y-85284624D01*
X139322981Y-85325169D01*
X139322983Y-85325170D01*
X139322984Y-85325170D01*
X139466907Y-85325170D01*
X139466907Y-85325169D01*
X139604998Y-85284623D01*
X139726073Y-85206813D01*
X139820322Y-85098043D01*
X139880110Y-84967127D01*
X139900592Y-84824670D01*
X139880110Y-84682213D01*
X139875059Y-84671153D01*
X140801276Y-84671153D01*
X140821757Y-84813609D01*
X140876922Y-84934401D01*
X140881546Y-84944526D01*
X140975795Y-85053296D01*
X141096870Y-85131106D01*
X141096873Y-85131107D01*
X141096872Y-85131107D01*
X141234959Y-85171652D01*
X141234961Y-85171653D01*
X141234962Y-85171653D01*
X141378885Y-85171653D01*
X141378885Y-85171652D01*
X141516976Y-85131106D01*
X141638051Y-85053296D01*
X141732300Y-84944526D01*
X141734743Y-84939174D01*
X141780494Y-84886372D01*
X141847533Y-84866685D01*
X141914573Y-84886367D01*
X141941251Y-84909482D01*
X141950325Y-84919954D01*
X142038872Y-85022143D01*
X142159947Y-85099953D01*
X142159950Y-85099954D01*
X142159949Y-85099954D01*
X142298036Y-85140499D01*
X142298038Y-85140500D01*
X142298039Y-85140500D01*
X142441962Y-85140500D01*
X142441962Y-85140499D01*
X142580053Y-85099953D01*
X142701128Y-85022143D01*
X142795377Y-84913373D01*
X142817115Y-84865773D01*
X142862867Y-84812971D01*
X142929907Y-84793286D01*
X142996946Y-84812970D01*
X143023616Y-84836077D01*
X143028872Y-84842143D01*
X143028873Y-84842144D01*
X143036795Y-84847235D01*
X143149947Y-84919953D01*
X143149950Y-84919954D01*
X143149949Y-84919954D01*
X143288036Y-84960499D01*
X143288038Y-84960500D01*
X143288039Y-84960500D01*
X143431962Y-84960500D01*
X143431962Y-84960499D01*
X143561525Y-84922457D01*
X143570050Y-84919954D01*
X143570050Y-84919953D01*
X143570053Y-84919953D01*
X143691128Y-84842143D01*
X143785377Y-84733373D01*
X143845165Y-84602457D01*
X143865647Y-84460000D01*
X143865647Y-84459999D01*
X143865647Y-84459653D01*
X143865744Y-84459320D01*
X143866909Y-84451222D01*
X143868073Y-84451389D01*
X143885332Y-84392614D01*
X143938136Y-84346859D01*
X144007294Y-84336915D01*
X144024575Y-84340674D01*
X144058039Y-84350500D01*
X144152665Y-84350500D01*
X144219704Y-84370185D01*
X144265459Y-84422989D01*
X144275402Y-84456852D01*
X144275805Y-84459653D01*
X144284834Y-84522456D01*
X144338516Y-84640000D01*
X144344623Y-84653373D01*
X144438872Y-84762143D01*
X144559947Y-84839953D01*
X144559950Y-84839954D01*
X144559949Y-84839954D01*
X144647893Y-84865776D01*
X144696336Y-84880000D01*
X144698036Y-84880499D01*
X144698038Y-84880500D01*
X144715636Y-84880500D01*
X144782675Y-84900185D01*
X144828430Y-84952989D01*
X144838374Y-85022147D01*
X144820616Y-85145658D01*
X144841097Y-85288115D01*
X144858020Y-85325170D01*
X144900886Y-85419032D01*
X144995135Y-85527802D01*
X145116210Y-85605612D01*
X145116213Y-85605613D01*
X145116212Y-85605613D01*
X145254299Y-85646158D01*
X145254301Y-85646159D01*
X145254302Y-85646159D01*
X145398225Y-85646159D01*
X145398225Y-85646158D01*
X145536316Y-85605612D01*
X145657391Y-85527802D01*
X145751640Y-85419032D01*
X145811428Y-85288116D01*
X145831910Y-85145659D01*
X145811428Y-85003202D01*
X145751640Y-84872286D01*
X145657391Y-84763516D01*
X145536316Y-84685706D01*
X145536314Y-84685705D01*
X145536312Y-84685704D01*
X145536313Y-84685704D01*
X145398226Y-84645159D01*
X145398224Y-84645159D01*
X145380627Y-84645159D01*
X145313588Y-84625474D01*
X145267833Y-84572670D01*
X145257889Y-84503512D01*
X145264145Y-84459999D01*
X145275647Y-84380000D01*
X145255165Y-84237543D01*
X145195377Y-84106627D01*
X145101128Y-83997857D01*
X144980053Y-83920047D01*
X144980051Y-83920046D01*
X144980049Y-83920045D01*
X144980050Y-83920045D01*
X144841963Y-83879500D01*
X144841961Y-83879500D01*
X144747335Y-83879500D01*
X144680296Y-83859815D01*
X144634541Y-83807011D01*
X144624597Y-83773146D01*
X144615165Y-83707543D01*
X144555377Y-83576628D01*
X144555376Y-83576626D01*
X144549594Y-83569953D01*
X144461128Y-83467857D01*
X144340053Y-83390047D01*
X144340051Y-83390046D01*
X144340049Y-83390045D01*
X144340050Y-83390045D01*
X144201963Y-83349500D01*
X144201961Y-83349500D01*
X144058039Y-83349500D01*
X144058036Y-83349500D01*
X143919949Y-83390045D01*
X143798873Y-83467856D01*
X143704623Y-83576626D01*
X143704622Y-83576628D01*
X143644834Y-83707543D01*
X143624353Y-83850000D01*
X143624353Y-83850346D01*
X143624255Y-83850677D01*
X143623091Y-83858778D01*
X143621926Y-83858610D01*
X143604668Y-83917385D01*
X143551864Y-83963140D01*
X143482706Y-83973084D01*
X143465420Y-83969324D01*
X143431961Y-83959500D01*
X143288039Y-83959500D01*
X143288036Y-83959500D01*
X143149949Y-84000045D01*
X143028873Y-84077856D01*
X142934623Y-84186626D01*
X142912885Y-84234226D01*
X142867129Y-84287029D01*
X142800090Y-84306713D01*
X142733051Y-84287028D01*
X142706380Y-84263918D01*
X142705652Y-84263078D01*
X142701128Y-84257857D01*
X142580053Y-84180047D01*
X142580051Y-84180046D01*
X142580049Y-84180045D01*
X142580050Y-84180045D01*
X142441963Y-84139500D01*
X142441961Y-84139500D01*
X142298039Y-84139500D01*
X142298036Y-84139500D01*
X142159949Y-84180045D01*
X142038873Y-84257856D01*
X141944623Y-84366626D01*
X141944621Y-84366629D01*
X141942176Y-84371984D01*
X141896419Y-84424786D01*
X141829378Y-84444467D01*
X141762340Y-84424779D01*
X141735671Y-84401670D01*
X141688177Y-84346859D01*
X141638051Y-84289010D01*
X141516976Y-84211200D01*
X141516974Y-84211199D01*
X141516972Y-84211198D01*
X141516973Y-84211198D01*
X141378886Y-84170653D01*
X141378884Y-84170653D01*
X141234962Y-84170653D01*
X141234959Y-84170653D01*
X141096872Y-84211198D01*
X140975796Y-84289009D01*
X140881546Y-84397779D01*
X140881545Y-84397781D01*
X140821757Y-84528696D01*
X140801276Y-84671153D01*
X139875059Y-84671153D01*
X139820322Y-84551297D01*
X139726073Y-84442527D01*
X139604998Y-84364717D01*
X139604996Y-84364716D01*
X139604994Y-84364715D01*
X139604995Y-84364715D01*
X139466908Y-84324170D01*
X139466906Y-84324170D01*
X139322984Y-84324170D01*
X139322981Y-84324170D01*
X139184894Y-84364715D01*
X139063818Y-84442526D01*
X138969568Y-84551296D01*
X138969567Y-84551298D01*
X138909779Y-84682213D01*
X138889298Y-84824670D01*
X136689224Y-84824670D01*
X136695647Y-84780000D01*
X136675165Y-84637543D01*
X136615377Y-84506627D01*
X136521128Y-84397857D01*
X136521125Y-84397855D01*
X136521126Y-84397855D01*
X136393573Y-84315882D01*
X136347819Y-84263078D01*
X136337875Y-84193920D01*
X136366900Y-84130364D01*
X136425675Y-84092591D01*
X136548624Y-84056491D01*
X136669699Y-83978681D01*
X136696109Y-83948202D01*
X136754886Y-83910427D01*
X136824756Y-83910427D01*
X136883534Y-83948201D01*
X136883535Y-83948201D01*
X136970410Y-84048461D01*
X137091485Y-84126271D01*
X137091488Y-84126272D01*
X137091487Y-84126272D01*
X137136539Y-84139500D01*
X137208158Y-84160529D01*
X137229574Y-84166817D01*
X137229576Y-84166818D01*
X137229577Y-84166818D01*
X137373500Y-84166818D01*
X137373500Y-84166817D01*
X137480659Y-84135353D01*
X137511588Y-84126272D01*
X137511588Y-84126271D01*
X137511591Y-84126271D01*
X137632666Y-84048461D01*
X137726915Y-83939691D01*
X137786703Y-83808775D01*
X137807185Y-83666318D01*
X137789023Y-83540000D01*
X139864353Y-83540000D01*
X139884834Y-83682456D01*
X139942523Y-83808774D01*
X139944623Y-83813373D01*
X140038872Y-83922143D01*
X140159947Y-83999953D01*
X140159950Y-83999954D01*
X140159949Y-83999954D01*
X140298036Y-84040499D01*
X140298038Y-84040500D01*
X140298039Y-84040500D01*
X140441962Y-84040500D01*
X140441962Y-84040499D01*
X140580053Y-83999953D01*
X140701128Y-83922143D01*
X140795377Y-83813373D01*
X140855165Y-83682457D01*
X140875647Y-83540000D01*
X140855165Y-83397543D01*
X140795377Y-83266627D01*
X140734251Y-83196083D01*
X140705227Y-83132529D01*
X140715171Y-83063370D01*
X140760926Y-83010566D01*
X140827965Y-82990882D01*
X140849268Y-82993946D01*
X140849369Y-82993248D01*
X140858147Y-82994510D01*
X140858148Y-82994510D01*
X141002071Y-82994510D01*
X141002071Y-82994509D01*
X141119442Y-82960047D01*
X141140159Y-82953964D01*
X141140159Y-82953963D01*
X141140162Y-82953963D01*
X141261237Y-82876153D01*
X141355486Y-82767383D01*
X141415274Y-82636467D01*
X141435756Y-82494010D01*
X141415274Y-82351553D01*
X141355486Y-82220637D01*
X141261237Y-82111867D01*
X141140162Y-82034057D01*
X141140160Y-82034056D01*
X141140158Y-82034055D01*
X141140159Y-82034055D01*
X141002072Y-81993510D01*
X141002070Y-81993510D01*
X140858148Y-81993510D01*
X140858145Y-81993510D01*
X140720058Y-82034055D01*
X140598982Y-82111866D01*
X140504732Y-82220636D01*
X140504731Y-82220638D01*
X140444943Y-82351553D01*
X140424462Y-82494010D01*
X140444943Y-82636466D01*
X140504731Y-82767381D01*
X140504732Y-82767383D01*
X140565856Y-82837924D01*
X140594881Y-82901480D01*
X140584937Y-82970639D01*
X140539182Y-83023443D01*
X140472143Y-83043127D01*
X140450840Y-83040064D01*
X140450740Y-83040762D01*
X140441962Y-83039500D01*
X140441961Y-83039500D01*
X140298039Y-83039500D01*
X140298036Y-83039500D01*
X140159949Y-83080045D01*
X140038873Y-83157856D01*
X139944623Y-83266626D01*
X139944622Y-83266628D01*
X139884834Y-83397543D01*
X139864353Y-83540000D01*
X137789023Y-83540000D01*
X137786703Y-83523861D01*
X137726915Y-83392945D01*
X137632666Y-83284175D01*
X137511591Y-83206365D01*
X137511589Y-83206364D01*
X137511587Y-83206363D01*
X137511588Y-83206363D01*
X137373501Y-83165818D01*
X137373499Y-83165818D01*
X137229577Y-83165818D01*
X137229574Y-83165818D01*
X137091487Y-83206363D01*
X136970410Y-83284175D01*
X136943997Y-83314656D01*
X136885218Y-83352429D01*
X136815348Y-83352427D01*
X136756573Y-83314654D01*
X136669699Y-83214395D01*
X136548624Y-83136585D01*
X136548622Y-83136584D01*
X136548620Y-83136583D01*
X136548621Y-83136583D01*
X136410534Y-83096038D01*
X136410532Y-83096038D01*
X136266610Y-83096038D01*
X136266607Y-83096038D01*
X136128520Y-83136583D01*
X136007444Y-83214394D01*
X135913194Y-83323164D01*
X135913193Y-83323166D01*
X135853405Y-83454081D01*
X135832924Y-83596538D01*
X135853405Y-83738994D01*
X135889421Y-83817856D01*
X135913194Y-83869911D01*
X136007443Y-83978681D01*
X136128518Y-84056491D01*
X136134996Y-84060654D01*
X136180751Y-84113458D01*
X136190695Y-84182617D01*
X136161670Y-84246173D01*
X136102892Y-84283947D01*
X135979948Y-84320045D01*
X135858873Y-84397856D01*
X135764623Y-84506626D01*
X135764622Y-84506628D01*
X135704834Y-84637543D01*
X135684353Y-84780000D01*
X124996188Y-84780000D01*
X124996546Y-84332522D01*
X125016284Y-84265502D01*
X125069125Y-84219789D01*
X125120289Y-84208625D01*
X134210000Y-84190000D01*
X134216627Y-81380000D01*
X143814353Y-81380000D01*
X143834834Y-81522456D01*
X143851959Y-81559953D01*
X143894623Y-81653373D01*
X143988872Y-81762143D01*
X144109947Y-81839953D01*
X144109950Y-81839954D01*
X144109949Y-81839954D01*
X144248036Y-81880499D01*
X144248038Y-81880500D01*
X144328410Y-81880500D01*
X144395449Y-81900185D01*
X144441204Y-81952989D01*
X144451148Y-81986854D01*
X144464284Y-82078225D01*
X144491309Y-82137400D01*
X144524073Y-82209142D01*
X144618322Y-82317912D01*
X144739397Y-82395722D01*
X144739400Y-82395723D01*
X144739399Y-82395723D01*
X144877486Y-82436268D01*
X144877488Y-82436269D01*
X144877489Y-82436269D01*
X145021411Y-82436269D01*
X145052859Y-82427035D01*
X145122728Y-82427035D01*
X145181506Y-82464809D01*
X145210532Y-82528364D01*
X145206772Y-82580943D01*
X145204835Y-82587538D01*
X145184353Y-82730000D01*
X145204834Y-82872456D01*
X145244836Y-82960047D01*
X145264623Y-83003373D01*
X145358872Y-83112143D01*
X145479947Y-83189953D01*
X145479950Y-83189954D01*
X145479949Y-83189954D01*
X145618036Y-83230499D01*
X145618038Y-83230500D01*
X145668495Y-83230500D01*
X145735534Y-83250185D01*
X145781289Y-83302989D01*
X145791233Y-83372146D01*
X145784353Y-83419999D01*
X145804834Y-83562456D01*
X145834316Y-83627011D01*
X145864623Y-83693373D01*
X145958872Y-83802143D01*
X146079947Y-83879953D01*
X146079950Y-83879954D01*
X146079949Y-83879954D01*
X146183733Y-83910427D01*
X146216496Y-83920047D01*
X146218036Y-83920499D01*
X146218038Y-83920500D01*
X146361435Y-83920500D01*
X146428474Y-83940185D01*
X146474229Y-83992989D01*
X146484173Y-84062147D01*
X146464353Y-84200000D01*
X146484834Y-84342456D01*
X146530535Y-84442526D01*
X146544623Y-84473373D01*
X146638872Y-84582143D01*
X146759947Y-84659953D01*
X146759950Y-84659954D01*
X146759949Y-84659954D01*
X146898036Y-84700499D01*
X146898038Y-84700500D01*
X146898039Y-84700500D01*
X147041961Y-84700500D01*
X147095087Y-84684901D01*
X147164957Y-84684901D01*
X147223735Y-84722675D01*
X147252760Y-84786231D01*
X147252760Y-84821524D01*
X147246398Y-84865776D01*
X147244353Y-84880000D01*
X147245269Y-84886372D01*
X147264834Y-85022456D01*
X147318744Y-85140500D01*
X147324623Y-85153373D01*
X147418872Y-85262143D01*
X147539947Y-85339953D01*
X147539950Y-85339954D01*
X147539949Y-85339954D01*
X147647107Y-85371417D01*
X147669034Y-85377856D01*
X147678036Y-85380499D01*
X147678038Y-85380500D01*
X147678039Y-85380500D01*
X147821962Y-85380500D01*
X147821962Y-85380499D01*
X147960053Y-85339953D01*
X148081128Y-85262143D01*
X148175377Y-85153373D01*
X148235165Y-85022457D01*
X148255647Y-84880000D01*
X148250935Y-84847230D01*
X148260878Y-84778076D01*
X148306632Y-84725272D01*
X148373671Y-84705586D01*
X148440711Y-84725269D01*
X148467385Y-84748382D01*
X148526014Y-84816044D01*
X148647089Y-84893854D01*
X148647092Y-84893855D01*
X148647091Y-84893855D01*
X148785178Y-84934400D01*
X148785180Y-84934401D01*
X148785181Y-84934401D01*
X148929104Y-84934401D01*
X148929104Y-84934400D01*
X149067195Y-84893854D01*
X149188270Y-84816044D01*
X149282519Y-84707274D01*
X149342307Y-84576358D01*
X149362789Y-84433901D01*
X149342307Y-84291444D01*
X149282519Y-84160528D01*
X149188270Y-84051758D01*
X149067195Y-83973948D01*
X149067193Y-83973947D01*
X149067191Y-83973946D01*
X149067192Y-83973946D01*
X148929105Y-83933401D01*
X148929103Y-83933401D01*
X148785181Y-83933401D01*
X148785178Y-83933401D01*
X148647091Y-83973946D01*
X148526015Y-84051757D01*
X148431765Y-84160527D01*
X148431764Y-84160529D01*
X148371976Y-84291444D01*
X148351495Y-84433901D01*
X148356206Y-84466667D01*
X148346262Y-84535826D01*
X148300507Y-84588630D01*
X148233468Y-84608314D01*
X148166428Y-84588629D01*
X148139755Y-84565517D01*
X148081128Y-84497857D01*
X147960053Y-84420047D01*
X147960051Y-84420046D01*
X147960049Y-84420045D01*
X147960050Y-84420045D01*
X147821963Y-84379500D01*
X147821961Y-84379500D01*
X147678039Y-84379500D01*
X147624910Y-84395099D01*
X147555040Y-84395097D01*
X147496263Y-84357322D01*
X147467239Y-84293766D01*
X147467239Y-84258479D01*
X147475647Y-84200000D01*
X147455165Y-84057543D01*
X147395377Y-83926627D01*
X147301128Y-83817857D01*
X147180053Y-83740047D01*
X147180051Y-83740046D01*
X147180049Y-83740045D01*
X147180050Y-83740045D01*
X147041963Y-83699500D01*
X147041961Y-83699500D01*
X146898565Y-83699500D01*
X146831526Y-83679815D01*
X146785771Y-83627011D01*
X146775827Y-83557853D01*
X146780714Y-83523861D01*
X146795647Y-83420000D01*
X146775165Y-83277543D01*
X146715377Y-83146627D01*
X146621128Y-83037857D01*
X146500053Y-82960047D01*
X146500051Y-82960046D01*
X146500049Y-82960045D01*
X146500050Y-82960045D01*
X146361963Y-82919500D01*
X146361961Y-82919500D01*
X146311505Y-82919500D01*
X146244466Y-82899815D01*
X146198711Y-82847011D01*
X146188767Y-82777854D01*
X146195647Y-82730000D01*
X146175165Y-82587543D01*
X146172151Y-82580943D01*
X146115377Y-82456627D01*
X146021128Y-82347857D01*
X145900053Y-82270047D01*
X145900051Y-82270046D01*
X145900049Y-82270045D01*
X145900050Y-82270045D01*
X145761963Y-82229500D01*
X145761961Y-82229500D01*
X145618039Y-82229500D01*
X145618038Y-82229500D01*
X145586587Y-82238734D01*
X145516717Y-82238732D01*
X145457940Y-82200957D01*
X145428917Y-82137400D01*
X145432680Y-82084816D01*
X145434613Y-82078230D01*
X145434615Y-82078226D01*
X145455097Y-81935769D01*
X145434615Y-81793312D01*
X145374827Y-81662396D01*
X145280578Y-81553626D01*
X145159503Y-81475816D01*
X145159501Y-81475815D01*
X145159499Y-81475814D01*
X145159500Y-81475814D01*
X145021413Y-81435269D01*
X145021411Y-81435269D01*
X144941040Y-81435269D01*
X144874001Y-81415584D01*
X144828246Y-81362780D01*
X144818302Y-81328915D01*
X144805165Y-81237543D01*
X144783680Y-81190499D01*
X144745377Y-81106627D01*
X144651128Y-80997857D01*
X144530053Y-80920047D01*
X144530051Y-80920046D01*
X144530049Y-80920045D01*
X144530050Y-80920045D01*
X144391963Y-80879500D01*
X144391961Y-80879500D01*
X144248039Y-80879500D01*
X144248036Y-80879500D01*
X144109949Y-80920045D01*
X143988873Y-80997856D01*
X143894623Y-81106626D01*
X143894622Y-81106628D01*
X143834834Y-81237543D01*
X143814353Y-81380000D01*
X134216627Y-81380000D01*
X134216947Y-81244156D01*
X134236790Y-81177164D01*
X134289702Y-81131533D01*
X134358883Y-81121753D01*
X134407985Y-81140132D01*
X134469947Y-81179953D01*
X134469950Y-81179954D01*
X134469949Y-81179954D01*
X134608036Y-81220499D01*
X134608038Y-81220500D01*
X134608039Y-81220500D01*
X134751962Y-81220500D01*
X134751962Y-81220499D01*
X134890050Y-81179954D01*
X134890051Y-81179954D01*
X134890053Y-81179953D01*
X135006302Y-81105244D01*
X135073340Y-81085560D01*
X135140377Y-81105243D01*
X135140380Y-81105245D01*
X135209948Y-81149954D01*
X135348036Y-81190499D01*
X135348038Y-81190500D01*
X135348039Y-81190500D01*
X135491962Y-81190500D01*
X135491962Y-81190499D01*
X135628190Y-81150500D01*
X135630050Y-81149954D01*
X135630050Y-81149953D01*
X135630053Y-81149953D01*
X135751128Y-81072143D01*
X135845377Y-80963373D01*
X135905165Y-80832457D01*
X135925647Y-80690000D01*
X135905165Y-80547543D01*
X135845377Y-80416627D01*
X135751128Y-80307857D01*
X135630053Y-80230047D01*
X135630051Y-80230046D01*
X135630049Y-80230045D01*
X135630050Y-80230045D01*
X135491963Y-80189500D01*
X135491961Y-80189500D01*
X135348039Y-80189500D01*
X135348036Y-80189500D01*
X135209949Y-80230045D01*
X135093698Y-80304755D01*
X135026658Y-80324439D01*
X134959620Y-80304755D01*
X134890053Y-80260047D01*
X134890051Y-80260046D01*
X134890049Y-80260045D01*
X134890050Y-80260045D01*
X134751963Y-80219500D01*
X134751961Y-80219500D01*
X134608039Y-80219500D01*
X134608036Y-80219500D01*
X134469949Y-80260045D01*
X134469946Y-80260047D01*
X134410462Y-80298274D01*
X134343422Y-80317958D01*
X134276383Y-80298273D01*
X134230629Y-80245468D01*
X134219424Y-80193667D01*
X134221207Y-79437637D01*
X135079298Y-79437637D01*
X135099779Y-79580093D01*
X135123951Y-79633021D01*
X135159568Y-79711010D01*
X135253817Y-79819780D01*
X135374892Y-79897590D01*
X135374895Y-79897591D01*
X135374894Y-79897591D01*
X135512981Y-79938136D01*
X135512983Y-79938137D01*
X135512984Y-79938137D01*
X135656907Y-79938137D01*
X135656907Y-79938136D01*
X135794998Y-79897590D01*
X135916073Y-79819780D01*
X136010322Y-79711010D01*
X136045939Y-79633021D01*
X137940287Y-79633021D01*
X137960768Y-79775477D01*
X137963062Y-79780499D01*
X138020557Y-79906394D01*
X138114806Y-80015164D01*
X138235881Y-80092974D01*
X138235884Y-80092975D01*
X138235883Y-80092975D01*
X138326221Y-80119500D01*
X138361351Y-80129815D01*
X138373970Y-80133520D01*
X138373972Y-80133521D01*
X138423753Y-80133521D01*
X138490792Y-80153206D01*
X138536547Y-80206010D01*
X138546491Y-80275168D01*
X138517466Y-80338723D01*
X138484625Y-80376622D01*
X138484622Y-80376628D01*
X138424834Y-80507543D01*
X138404353Y-80650000D01*
X138424834Y-80792456D01*
X138483103Y-80920045D01*
X138484623Y-80923373D01*
X138578872Y-81032143D01*
X138699947Y-81109953D01*
X138699950Y-81109954D01*
X138699949Y-81109954D01*
X138802732Y-81140133D01*
X138836179Y-81149954D01*
X138838036Y-81150499D01*
X138838038Y-81150500D01*
X138838039Y-81150500D01*
X138981962Y-81150500D01*
X138981962Y-81150499D01*
X139118190Y-81110500D01*
X139120050Y-81109954D01*
X139120051Y-81109954D01*
X139120053Y-81109953D01*
X139236302Y-81035244D01*
X139303340Y-81015560D01*
X139370377Y-81035243D01*
X139370380Y-81035245D01*
X139439948Y-81079954D01*
X139578036Y-81120499D01*
X139578038Y-81120500D01*
X139578039Y-81120500D01*
X139721962Y-81120500D01*
X139721962Y-81120499D01*
X139860053Y-81079953D01*
X139981128Y-81002143D01*
X139981128Y-81002142D01*
X139988589Y-80997348D01*
X139989404Y-80998616D01*
X140044059Y-80973649D01*
X140113219Y-80983585D01*
X140128759Y-80992070D01*
X140128871Y-80992142D01*
X140128872Y-80992143D01*
X140165310Y-81015560D01*
X140249948Y-81069954D01*
X140352279Y-81100000D01*
X140386179Y-81109954D01*
X140388036Y-81110499D01*
X140388038Y-81110500D01*
X140388039Y-81110500D01*
X140531962Y-81110500D01*
X140531962Y-81110499D01*
X140639121Y-81079035D01*
X140670050Y-81069954D01*
X140670050Y-81069953D01*
X140670053Y-81069953D01*
X140791128Y-80992143D01*
X140885377Y-80883373D01*
X140945165Y-80752457D01*
X140954145Y-80690000D01*
X141304353Y-80690000D01*
X141324834Y-80832456D01*
X141364836Y-80920047D01*
X141384623Y-80963373D01*
X141478872Y-81072143D01*
X141599947Y-81149953D01*
X141599950Y-81149954D01*
X141599949Y-81149954D01*
X141738036Y-81190499D01*
X141738038Y-81190500D01*
X141738039Y-81190500D01*
X141881962Y-81190500D01*
X141881962Y-81190499D01*
X142018190Y-81150500D01*
X142020050Y-81149954D01*
X142020050Y-81149953D01*
X142020053Y-81149953D01*
X142141128Y-81072143D01*
X142235377Y-80963373D01*
X142295165Y-80832457D01*
X142315647Y-80690000D01*
X142295165Y-80547543D01*
X142235377Y-80416627D01*
X142141128Y-80307857D01*
X142020053Y-80230047D01*
X142020051Y-80230046D01*
X142020049Y-80230045D01*
X142020050Y-80230045D01*
X141881963Y-80189500D01*
X141881961Y-80189500D01*
X141738039Y-80189500D01*
X141738036Y-80189500D01*
X141599949Y-80230045D01*
X141478873Y-80307856D01*
X141384623Y-80416626D01*
X141384622Y-80416628D01*
X141324834Y-80547543D01*
X141304353Y-80690000D01*
X140954145Y-80690000D01*
X140965647Y-80610000D01*
X140945165Y-80467543D01*
X140885377Y-80336627D01*
X140791128Y-80227857D01*
X140670053Y-80150047D01*
X140670051Y-80150046D01*
X140670049Y-80150045D01*
X140670050Y-80150045D01*
X140531963Y-80109500D01*
X140531961Y-80109500D01*
X140388039Y-80109500D01*
X140388036Y-80109500D01*
X140249949Y-80150045D01*
X140121411Y-80232652D01*
X140120597Y-80231386D01*
X140065918Y-80256353D01*
X139996761Y-80246405D01*
X139981241Y-80237929D01*
X139860055Y-80160047D01*
X139860050Y-80160045D01*
X139721963Y-80119500D01*
X139721961Y-80119500D01*
X139578039Y-80119500D01*
X139578036Y-80119500D01*
X139439949Y-80160045D01*
X139323698Y-80234755D01*
X139256658Y-80254439D01*
X139189620Y-80234755D01*
X139182291Y-80230045D01*
X139120053Y-80190047D01*
X139120051Y-80190046D01*
X139120049Y-80190045D01*
X139120050Y-80190045D01*
X138981963Y-80149500D01*
X138981961Y-80149500D01*
X138932181Y-80149500D01*
X138865142Y-80129815D01*
X138819387Y-80077011D01*
X138809443Y-80007853D01*
X138838468Y-79944298D01*
X138871308Y-79906398D01*
X138871308Y-79906396D01*
X138871311Y-79906394D01*
X138931099Y-79775478D01*
X138951581Y-79633021D01*
X138931099Y-79490564D01*
X138871311Y-79359648D01*
X138802296Y-79280000D01*
X141124353Y-79280000D01*
X141144834Y-79422456D01*
X141196382Y-79535329D01*
X141204623Y-79553373D01*
X141298872Y-79662143D01*
X141419947Y-79739953D01*
X141419950Y-79739954D01*
X141419949Y-79739954D01*
X141527107Y-79771417D01*
X141540935Y-79775478D01*
X141558036Y-79780499D01*
X141558038Y-79780500D01*
X141558039Y-79780500D01*
X141701962Y-79780500D01*
X141701962Y-79780499D01*
X141840053Y-79739953D01*
X141961128Y-79662143D01*
X142055377Y-79553373D01*
X142063618Y-79535329D01*
X144541495Y-79535329D01*
X144561976Y-79677785D01*
X144577149Y-79711008D01*
X144621765Y-79808702D01*
X144716014Y-79917472D01*
X144837089Y-79995282D01*
X144837092Y-79995283D01*
X144837091Y-79995283D01*
X144975178Y-80035828D01*
X144975180Y-80035829D01*
X144975181Y-80035829D01*
X145119104Y-80035829D01*
X145119104Y-80035828D01*
X145257195Y-79995282D01*
X145378270Y-79917472D01*
X145472519Y-79808702D01*
X145532307Y-79677786D01*
X145552789Y-79535329D01*
X145532307Y-79392872D01*
X145472519Y-79261956D01*
X145378270Y-79153186D01*
X145257195Y-79075376D01*
X145257193Y-79075375D01*
X145257191Y-79075374D01*
X145257192Y-79075374D01*
X145119105Y-79034829D01*
X145119103Y-79034829D01*
X144975181Y-79034829D01*
X144975178Y-79034829D01*
X144837091Y-79075374D01*
X144716015Y-79153185D01*
X144621765Y-79261955D01*
X144621764Y-79261957D01*
X144561976Y-79392872D01*
X144541495Y-79535329D01*
X142063618Y-79535329D01*
X142115165Y-79422457D01*
X142135647Y-79280000D01*
X142115165Y-79137543D01*
X142055377Y-79006627D01*
X141961128Y-78897857D01*
X141840053Y-78820047D01*
X141840051Y-78820046D01*
X141840049Y-78820045D01*
X141840050Y-78820045D01*
X141701963Y-78779500D01*
X141701961Y-78779500D01*
X141558039Y-78779500D01*
X141558036Y-78779500D01*
X141419949Y-78820045D01*
X141298873Y-78897856D01*
X141204623Y-79006626D01*
X141204622Y-79006628D01*
X141144834Y-79137543D01*
X141124353Y-79280000D01*
X138802296Y-79280000D01*
X138777062Y-79250878D01*
X138655987Y-79173068D01*
X138655985Y-79173067D01*
X138655983Y-79173066D01*
X138655984Y-79173066D01*
X138517897Y-79132521D01*
X138517895Y-79132521D01*
X138373973Y-79132521D01*
X138373970Y-79132521D01*
X138235883Y-79173066D01*
X138114807Y-79250877D01*
X138020557Y-79359647D01*
X138020556Y-79359649D01*
X137960768Y-79490564D01*
X137940287Y-79633021D01*
X136045939Y-79633021D01*
X136070110Y-79580094D01*
X136090592Y-79437637D01*
X136070110Y-79295180D01*
X136010322Y-79164264D01*
X135916073Y-79055494D01*
X135794998Y-78977684D01*
X135794996Y-78977683D01*
X135794994Y-78977682D01*
X135794995Y-78977682D01*
X135656908Y-78937137D01*
X135656906Y-78937137D01*
X135512984Y-78937137D01*
X135512981Y-78937137D01*
X135374894Y-78977682D01*
X135253818Y-79055493D01*
X135159568Y-79164263D01*
X135159567Y-79164265D01*
X135099779Y-79295180D01*
X135079298Y-79437637D01*
X134221207Y-79437637D01*
X134226867Y-77038420D01*
X134246710Y-76971429D01*
X134299622Y-76925798D01*
X134350867Y-76914714D01*
X148076739Y-76914714D01*
X148143778Y-76934399D01*
G37*
%TD.AperFunction*%
%TD*%
M02*
