%TF.GenerationSoftware,KiCad,Pcbnew,8.0.9-1.fc41*%
%TF.CreationDate,2025-08-22T18:06:54-04:00*%
%TF.ProjectId,OS-41,4f532d34-312e-46b6-9963-61645f706362,rev?*%
%TF.SameCoordinates,Original*%
%TF.FileFunction,Legend,Bot*%
%TF.FilePolarity,Positive*%
%FSLAX46Y46*%
G04 Gerber Fmt 4.6, Leading zero omitted, Abs format (unit mm)*
G04 Created by KiCad (PCBNEW 8.0.9-1.fc41) date 2025-08-22 18:06:54*
%MOMM*%
%LPD*%
G01*
G04 APERTURE LIST*
G04 Aperture macros list*
%AMRoundRect*
0 Rectangle with rounded corners*
0 $1 Rounding radius*
0 $2 $3 $4 $5 $6 $7 $8 $9 X,Y pos of 4 corners*
0 Add a 4 corners polygon primitive as box body*
4,1,4,$2,$3,$4,$5,$6,$7,$8,$9,$2,$3,0*
0 Add four circle primitives for the rounded corners*
1,1,$1+$1,$2,$3*
1,1,$1+$1,$4,$5*
1,1,$1+$1,$6,$7*
1,1,$1+$1,$8,$9*
0 Add four rect primitives between the rounded corners*
20,1,$1+$1,$2,$3,$4,$5,0*
20,1,$1+$1,$4,$5,$6,$7,0*
20,1,$1+$1,$6,$7,$8,$9,0*
20,1,$1+$1,$8,$9,$2,$3,0*%
G04 Aperture macros list end*
%ADD10C,0.250000*%
%ADD11C,0.300000*%
%ADD12C,0.150000*%
%ADD13C,0.100000*%
%ADD14C,0.120000*%
%ADD15R,1.700000X1.700000*%
%ADD16O,1.700000X1.700000*%
%ADD17C,2.050000*%
%ADD18C,2.250000*%
%ADD19C,2.100000*%
%ADD20RoundRect,0.237500X0.044194X0.380070X-0.380070X-0.044194X-0.044194X-0.380070X0.380070X0.044194X0*%
%ADD21RoundRect,0.237500X0.300000X0.237500X-0.300000X0.237500X-0.300000X-0.237500X0.300000X-0.237500X0*%
%ADD22RoundRect,0.237500X-0.237500X0.300000X-0.237500X-0.300000X0.237500X-0.300000X0.237500X0.300000X0*%
%ADD23RoundRect,0.237500X-0.300000X-0.237500X0.300000X-0.237500X0.300000X0.237500X-0.300000X0.237500X0*%
%ADD24RoundRect,0.237500X-0.044194X-0.380070X0.380070X0.044194X0.044194X0.380070X-0.380070X-0.044194X0*%
%ADD25RoundRect,0.237500X0.237500X-0.300000X0.237500X0.300000X-0.237500X0.300000X-0.237500X-0.300000X0*%
%ADD26RoundRect,0.237500X-0.250000X-0.237500X0.250000X-0.237500X0.250000X0.237500X-0.250000X0.237500X0*%
G04 APERTURE END LIST*
D10*
X148973622Y-129012238D02*
X149068860Y-128964619D01*
X149068860Y-128964619D02*
X149211717Y-128964619D01*
X149211717Y-128964619D02*
X149354574Y-129012238D01*
X149354574Y-129012238D02*
X149449812Y-129107476D01*
X149449812Y-129107476D02*
X149497431Y-129202714D01*
X149497431Y-129202714D02*
X149545050Y-129393190D01*
X149545050Y-129393190D02*
X149545050Y-129536047D01*
X149545050Y-129536047D02*
X149497431Y-129726523D01*
X149497431Y-129726523D02*
X149449812Y-129821761D01*
X149449812Y-129821761D02*
X149354574Y-129917000D01*
X149354574Y-129917000D02*
X149211717Y-129964619D01*
X149211717Y-129964619D02*
X149116479Y-129964619D01*
X149116479Y-129964619D02*
X148973622Y-129917000D01*
X148973622Y-129917000D02*
X148926003Y-129869380D01*
X148926003Y-129869380D02*
X148926003Y-129536047D01*
X148926003Y-129536047D02*
X149116479Y-129536047D01*
X148497431Y-129964619D02*
X148497431Y-128964619D01*
X148497431Y-128964619D02*
X147926003Y-129964619D01*
X147926003Y-129964619D02*
X147926003Y-128964619D01*
X147449812Y-129964619D02*
X147449812Y-128964619D01*
X147449812Y-128964619D02*
X147211717Y-128964619D01*
X147211717Y-128964619D02*
X147068860Y-129012238D01*
X147068860Y-129012238D02*
X146973622Y-129107476D01*
X146973622Y-129107476D02*
X146926003Y-129202714D01*
X146926003Y-129202714D02*
X146878384Y-129393190D01*
X146878384Y-129393190D02*
X146878384Y-129536047D01*
X146878384Y-129536047D02*
X146926003Y-129726523D01*
X146926003Y-129726523D02*
X146973622Y-129821761D01*
X146973622Y-129821761D02*
X147068860Y-129917000D01*
X147068860Y-129917000D02*
X147211717Y-129964619D01*
X147211717Y-129964619D02*
X147449812Y-129964619D01*
X146040288Y-128964619D02*
X145706955Y-129964619D01*
X145706955Y-129964619D02*
X145373622Y-128964619D01*
X145040288Y-129964619D02*
X145040288Y-129297952D01*
X145040288Y-128964619D02*
X145087907Y-129012238D01*
X145087907Y-129012238D02*
X145040288Y-129059857D01*
X145040288Y-129059857D02*
X144992669Y-129012238D01*
X144992669Y-129012238D02*
X145040288Y-128964619D01*
X145040288Y-128964619D02*
X145040288Y-129059857D01*
X144564098Y-129297952D02*
X144564098Y-129964619D01*
X144564098Y-129393190D02*
X144516479Y-129345571D01*
X144516479Y-129345571D02*
X144421241Y-129297952D01*
X144421241Y-129297952D02*
X144278384Y-129297952D01*
X144278384Y-129297952D02*
X144183146Y-129345571D01*
X144183146Y-129345571D02*
X144135527Y-129440809D01*
X144135527Y-129440809D02*
X144135527Y-129964619D01*
D11*
X128819171Y-108488346D02*
X129533457Y-108988346D01*
X128819171Y-109345489D02*
X130319171Y-109345489D01*
X130319171Y-109345489D02*
X130319171Y-108774060D01*
X130319171Y-108774060D02*
X130247742Y-108631203D01*
X130247742Y-108631203D02*
X130176314Y-108559774D01*
X130176314Y-108559774D02*
X130033457Y-108488346D01*
X130033457Y-108488346D02*
X129819171Y-108488346D01*
X129819171Y-108488346D02*
X129676314Y-108559774D01*
X129676314Y-108559774D02*
X129604885Y-108631203D01*
X129604885Y-108631203D02*
X129533457Y-108774060D01*
X129533457Y-108774060D02*
X129533457Y-109345489D01*
X128890600Y-107916917D02*
X128819171Y-107702632D01*
X128819171Y-107702632D02*
X128819171Y-107345489D01*
X128819171Y-107345489D02*
X128890600Y-107202632D01*
X128890600Y-107202632D02*
X128962028Y-107131203D01*
X128962028Y-107131203D02*
X129104885Y-107059774D01*
X129104885Y-107059774D02*
X129247742Y-107059774D01*
X129247742Y-107059774D02*
X129390600Y-107131203D01*
X129390600Y-107131203D02*
X129462028Y-107202632D01*
X129462028Y-107202632D02*
X129533457Y-107345489D01*
X129533457Y-107345489D02*
X129604885Y-107631203D01*
X129604885Y-107631203D02*
X129676314Y-107774060D01*
X129676314Y-107774060D02*
X129747742Y-107845489D01*
X129747742Y-107845489D02*
X129890600Y-107916917D01*
X129890600Y-107916917D02*
X130033457Y-107916917D01*
X130033457Y-107916917D02*
X130176314Y-107845489D01*
X130176314Y-107845489D02*
X130247742Y-107774060D01*
X130247742Y-107774060D02*
X130319171Y-107631203D01*
X130319171Y-107631203D02*
X130319171Y-107274060D01*
X130319171Y-107274060D02*
X130247742Y-107059774D01*
X130319171Y-106631203D02*
X130319171Y-105774061D01*
X128819171Y-106202632D02*
X130319171Y-106202632D01*
D10*
X146287761Y-115673622D02*
X146335380Y-115768860D01*
X146335380Y-115768860D02*
X146335380Y-115911717D01*
X146335380Y-115911717D02*
X146287761Y-116054574D01*
X146287761Y-116054574D02*
X146192523Y-116149812D01*
X146192523Y-116149812D02*
X146097285Y-116197431D01*
X146097285Y-116197431D02*
X145906809Y-116245050D01*
X145906809Y-116245050D02*
X145763952Y-116245050D01*
X145763952Y-116245050D02*
X145573476Y-116197431D01*
X145573476Y-116197431D02*
X145478238Y-116149812D01*
X145478238Y-116149812D02*
X145383000Y-116054574D01*
X145383000Y-116054574D02*
X145335380Y-115911717D01*
X145335380Y-115911717D02*
X145335380Y-115816479D01*
X145335380Y-115816479D02*
X145383000Y-115673622D01*
X145383000Y-115673622D02*
X145430619Y-115626003D01*
X145430619Y-115626003D02*
X145763952Y-115626003D01*
X145763952Y-115626003D02*
X145763952Y-115816479D01*
X145335380Y-115197431D02*
X146335380Y-115197431D01*
X146335380Y-115197431D02*
X145335380Y-114626003D01*
X145335380Y-114626003D02*
X146335380Y-114626003D01*
X145335380Y-114149812D02*
X146335380Y-114149812D01*
X146335380Y-114149812D02*
X146335380Y-113911717D01*
X146335380Y-113911717D02*
X146287761Y-113768860D01*
X146287761Y-113768860D02*
X146192523Y-113673622D01*
X146192523Y-113673622D02*
X146097285Y-113626003D01*
X146097285Y-113626003D02*
X145906809Y-113578384D01*
X145906809Y-113578384D02*
X145763952Y-113578384D01*
X145763952Y-113578384D02*
X145573476Y-113626003D01*
X145573476Y-113626003D02*
X145478238Y-113673622D01*
X145478238Y-113673622D02*
X145383000Y-113768860D01*
X145383000Y-113768860D02*
X145335380Y-113911717D01*
X145335380Y-113911717D02*
X145335380Y-114149812D01*
X146335380Y-113040288D02*
X145335380Y-112706955D01*
X145335380Y-112706955D02*
X146335380Y-112373622D01*
X145430619Y-111468860D02*
X145383000Y-111516479D01*
X145383000Y-111516479D02*
X145335380Y-111659336D01*
X145335380Y-111659336D02*
X145335380Y-111754574D01*
X145335380Y-111754574D02*
X145383000Y-111897431D01*
X145383000Y-111897431D02*
X145478238Y-111992669D01*
X145478238Y-111992669D02*
X145573476Y-112040288D01*
X145573476Y-112040288D02*
X145763952Y-112087907D01*
X145763952Y-112087907D02*
X145906809Y-112087907D01*
X145906809Y-112087907D02*
X146097285Y-112040288D01*
X146097285Y-112040288D02*
X146192523Y-111992669D01*
X146192523Y-111992669D02*
X146287761Y-111897431D01*
X146287761Y-111897431D02*
X146335380Y-111754574D01*
X146335380Y-111754574D02*
X146335380Y-111659336D01*
X146335380Y-111659336D02*
X146287761Y-111516479D01*
X146287761Y-111516479D02*
X146240142Y-111468860D01*
X145430619Y-110468860D02*
X145383000Y-110516479D01*
X145383000Y-110516479D02*
X145335380Y-110659336D01*
X145335380Y-110659336D02*
X145335380Y-110754574D01*
X145335380Y-110754574D02*
X145383000Y-110897431D01*
X145383000Y-110897431D02*
X145478238Y-110992669D01*
X145478238Y-110992669D02*
X145573476Y-111040288D01*
X145573476Y-111040288D02*
X145763952Y-111087907D01*
X145763952Y-111087907D02*
X145906809Y-111087907D01*
X145906809Y-111087907D02*
X146097285Y-111040288D01*
X146097285Y-111040288D02*
X146192523Y-110992669D01*
X146192523Y-110992669D02*
X146287761Y-110897431D01*
X146287761Y-110897431D02*
X146335380Y-110754574D01*
X146335380Y-110754574D02*
X146335380Y-110659336D01*
X146335380Y-110659336D02*
X146287761Y-110516479D01*
X146287761Y-110516479D02*
X146240142Y-110468860D01*
D12*
X148530180Y-106263220D02*
X149530180Y-106263220D01*
X149530180Y-106263220D02*
X149530180Y-106025125D01*
X149530180Y-106025125D02*
X149482561Y-105882268D01*
X149482561Y-105882268D02*
X149387323Y-105787030D01*
X149387323Y-105787030D02*
X149292085Y-105739411D01*
X149292085Y-105739411D02*
X149101609Y-105691792D01*
X149101609Y-105691792D02*
X148958752Y-105691792D01*
X148958752Y-105691792D02*
X148768276Y-105739411D01*
X148768276Y-105739411D02*
X148673038Y-105787030D01*
X148673038Y-105787030D02*
X148577800Y-105882268D01*
X148577800Y-105882268D02*
X148530180Y-106025125D01*
X148530180Y-106025125D02*
X148530180Y-106263220D01*
X148530180Y-105263220D02*
X149530180Y-105263220D01*
X149530180Y-104596554D02*
X149530180Y-104406078D01*
X149530180Y-104406078D02*
X149482561Y-104310840D01*
X149482561Y-104310840D02*
X149387323Y-104215602D01*
X149387323Y-104215602D02*
X149196847Y-104167983D01*
X149196847Y-104167983D02*
X148863514Y-104167983D01*
X148863514Y-104167983D02*
X148673038Y-104215602D01*
X148673038Y-104215602D02*
X148577800Y-104310840D01*
X148577800Y-104310840D02*
X148530180Y-104406078D01*
X148530180Y-104406078D02*
X148530180Y-104596554D01*
X148530180Y-104596554D02*
X148577800Y-104691792D01*
X148577800Y-104691792D02*
X148673038Y-104787030D01*
X148673038Y-104787030D02*
X148863514Y-104834649D01*
X148863514Y-104834649D02*
X149196847Y-104834649D01*
X149196847Y-104834649D02*
X149387323Y-104787030D01*
X149387323Y-104787030D02*
X149482561Y-104691792D01*
X149482561Y-104691792D02*
X149530180Y-104596554D01*
D11*
X129774885Y-99465489D02*
X129703457Y-99251203D01*
X129703457Y-99251203D02*
X129632028Y-99179774D01*
X129632028Y-99179774D02*
X129489171Y-99108346D01*
X129489171Y-99108346D02*
X129274885Y-99108346D01*
X129274885Y-99108346D02*
X129132028Y-99179774D01*
X129132028Y-99179774D02*
X129060600Y-99251203D01*
X129060600Y-99251203D02*
X128989171Y-99394060D01*
X128989171Y-99394060D02*
X128989171Y-99965489D01*
X128989171Y-99965489D02*
X130489171Y-99965489D01*
X130489171Y-99965489D02*
X130489171Y-99465489D01*
X130489171Y-99465489D02*
X130417742Y-99322632D01*
X130417742Y-99322632D02*
X130346314Y-99251203D01*
X130346314Y-99251203D02*
X130203457Y-99179774D01*
X130203457Y-99179774D02*
X130060600Y-99179774D01*
X130060600Y-99179774D02*
X129917742Y-99251203D01*
X129917742Y-99251203D02*
X129846314Y-99322632D01*
X129846314Y-99322632D02*
X129774885Y-99465489D01*
X129774885Y-99465489D02*
X129774885Y-99965489D01*
X130489171Y-98179774D02*
X130489171Y-97894060D01*
X130489171Y-97894060D02*
X130417742Y-97751203D01*
X130417742Y-97751203D02*
X130274885Y-97608346D01*
X130274885Y-97608346D02*
X129989171Y-97536917D01*
X129989171Y-97536917D02*
X129489171Y-97536917D01*
X129489171Y-97536917D02*
X129203457Y-97608346D01*
X129203457Y-97608346D02*
X129060600Y-97751203D01*
X129060600Y-97751203D02*
X128989171Y-97894060D01*
X128989171Y-97894060D02*
X128989171Y-98179774D01*
X128989171Y-98179774D02*
X129060600Y-98322632D01*
X129060600Y-98322632D02*
X129203457Y-98465489D01*
X129203457Y-98465489D02*
X129489171Y-98536917D01*
X129489171Y-98536917D02*
X129989171Y-98536917D01*
X129989171Y-98536917D02*
X130274885Y-98465489D01*
X130274885Y-98465489D02*
X130417742Y-98322632D01*
X130417742Y-98322632D02*
X130489171Y-98179774D01*
X130489171Y-96608345D02*
X130489171Y-96322631D01*
X130489171Y-96322631D02*
X130417742Y-96179774D01*
X130417742Y-96179774D02*
X130274885Y-96036917D01*
X130274885Y-96036917D02*
X129989171Y-95965488D01*
X129989171Y-95965488D02*
X129489171Y-95965488D01*
X129489171Y-95965488D02*
X129203457Y-96036917D01*
X129203457Y-96036917D02*
X129060600Y-96179774D01*
X129060600Y-96179774D02*
X128989171Y-96322631D01*
X128989171Y-96322631D02*
X128989171Y-96608345D01*
X128989171Y-96608345D02*
X129060600Y-96751203D01*
X129060600Y-96751203D02*
X129203457Y-96894060D01*
X129203457Y-96894060D02*
X129489171Y-96965488D01*
X129489171Y-96965488D02*
X129989171Y-96965488D01*
X129989171Y-96965488D02*
X130274885Y-96894060D01*
X130274885Y-96894060D02*
X130417742Y-96751203D01*
X130417742Y-96751203D02*
X130489171Y-96608345D01*
X130489171Y-95536916D02*
X130489171Y-94679774D01*
X128989171Y-95108345D02*
X130489171Y-95108345D01*
D12*
X149530180Y-109706077D02*
X148530180Y-109372744D01*
X148530180Y-109372744D02*
X149530180Y-109039411D01*
X148625419Y-108134649D02*
X148577800Y-108182268D01*
X148577800Y-108182268D02*
X148530180Y-108325125D01*
X148530180Y-108325125D02*
X148530180Y-108420363D01*
X148530180Y-108420363D02*
X148577800Y-108563220D01*
X148577800Y-108563220D02*
X148673038Y-108658458D01*
X148673038Y-108658458D02*
X148768276Y-108706077D01*
X148768276Y-108706077D02*
X148958752Y-108753696D01*
X148958752Y-108753696D02*
X149101609Y-108753696D01*
X149101609Y-108753696D02*
X149292085Y-108706077D01*
X149292085Y-108706077D02*
X149387323Y-108658458D01*
X149387323Y-108658458D02*
X149482561Y-108563220D01*
X149482561Y-108563220D02*
X149530180Y-108420363D01*
X149530180Y-108420363D02*
X149530180Y-108325125D01*
X149530180Y-108325125D02*
X149482561Y-108182268D01*
X149482561Y-108182268D02*
X149434942Y-108134649D01*
X148625419Y-107134649D02*
X148577800Y-107182268D01*
X148577800Y-107182268D02*
X148530180Y-107325125D01*
X148530180Y-107325125D02*
X148530180Y-107420363D01*
X148530180Y-107420363D02*
X148577800Y-107563220D01*
X148577800Y-107563220D02*
X148673038Y-107658458D01*
X148673038Y-107658458D02*
X148768276Y-107706077D01*
X148768276Y-107706077D02*
X148958752Y-107753696D01*
X148958752Y-107753696D02*
X149101609Y-107753696D01*
X149101609Y-107753696D02*
X149292085Y-107706077D01*
X149292085Y-107706077D02*
X149387323Y-107658458D01*
X149387323Y-107658458D02*
X149482561Y-107563220D01*
X149482561Y-107563220D02*
X149530180Y-107420363D01*
X149530180Y-107420363D02*
X149530180Y-107325125D01*
X149530180Y-107325125D02*
X149482561Y-107182268D01*
X149482561Y-107182268D02*
X149434942Y-107134649D01*
X148625419Y-102891792D02*
X148577800Y-102939411D01*
X148577800Y-102939411D02*
X148530180Y-103082268D01*
X148530180Y-103082268D02*
X148530180Y-103177506D01*
X148530180Y-103177506D02*
X148577800Y-103320363D01*
X148577800Y-103320363D02*
X148673038Y-103415601D01*
X148673038Y-103415601D02*
X148768276Y-103463220D01*
X148768276Y-103463220D02*
X148958752Y-103510839D01*
X148958752Y-103510839D02*
X149101609Y-103510839D01*
X149101609Y-103510839D02*
X149292085Y-103463220D01*
X149292085Y-103463220D02*
X149387323Y-103415601D01*
X149387323Y-103415601D02*
X149482561Y-103320363D01*
X149482561Y-103320363D02*
X149530180Y-103177506D01*
X149530180Y-103177506D02*
X149530180Y-103082268D01*
X149530180Y-103082268D02*
X149482561Y-102939411D01*
X149482561Y-102939411D02*
X149434942Y-102891792D01*
X148530180Y-101987030D02*
X148530180Y-102463220D01*
X148530180Y-102463220D02*
X149530180Y-102463220D01*
X148530180Y-101653696D02*
X149530180Y-101653696D01*
X148530180Y-101082268D02*
X149101609Y-101510839D01*
X149530180Y-101082268D02*
X148958752Y-101653696D01*
X149482561Y-100039411D02*
X149530180Y-100134649D01*
X149530180Y-100134649D02*
X149530180Y-100277506D01*
X149530180Y-100277506D02*
X149482561Y-100420363D01*
X149482561Y-100420363D02*
X149387323Y-100515601D01*
X149387323Y-100515601D02*
X149292085Y-100563220D01*
X149292085Y-100563220D02*
X149101609Y-100610839D01*
X149101609Y-100610839D02*
X148958752Y-100610839D01*
X148958752Y-100610839D02*
X148768276Y-100563220D01*
X148768276Y-100563220D02*
X148673038Y-100515601D01*
X148673038Y-100515601D02*
X148577800Y-100420363D01*
X148577800Y-100420363D02*
X148530180Y-100277506D01*
X148530180Y-100277506D02*
X148530180Y-100182268D01*
X148530180Y-100182268D02*
X148577800Y-100039411D01*
X148577800Y-100039411D02*
X148625419Y-99991792D01*
X148625419Y-99991792D02*
X148958752Y-99991792D01*
X148958752Y-99991792D02*
X148958752Y-100182268D01*
X148530180Y-99563220D02*
X149530180Y-99563220D01*
X149530180Y-99563220D02*
X148530180Y-98991792D01*
X148530180Y-98991792D02*
X149530180Y-98991792D01*
X148530180Y-98515601D02*
X149530180Y-98515601D01*
X149530180Y-98515601D02*
X149530180Y-98277506D01*
X149530180Y-98277506D02*
X149482561Y-98134649D01*
X149482561Y-98134649D02*
X149387323Y-98039411D01*
X149387323Y-98039411D02*
X149292085Y-97991792D01*
X149292085Y-97991792D02*
X149101609Y-97944173D01*
X149101609Y-97944173D02*
X148958752Y-97944173D01*
X148958752Y-97944173D02*
X148768276Y-97991792D01*
X148768276Y-97991792D02*
X148673038Y-98039411D01*
X148673038Y-98039411D02*
X148577800Y-98134649D01*
X148577800Y-98134649D02*
X148530180Y-98277506D01*
X148530180Y-98277506D02*
X148530180Y-98515601D01*
D13*
X146059925Y-77712419D02*
X145488496Y-77712419D01*
X145899211Y-78712419D02*
X145774211Y-77712419D01*
X145137306Y-78712419D02*
X145226591Y-78664800D01*
X145226591Y-78664800D02*
X145268258Y-78617180D01*
X145268258Y-78617180D02*
X145303972Y-78521942D01*
X145303972Y-78521942D02*
X145268258Y-78236228D01*
X145268258Y-78236228D02*
X145208734Y-78140990D01*
X145208734Y-78140990D02*
X145155163Y-78093371D01*
X145155163Y-78093371D02*
X145053972Y-78045752D01*
X145053972Y-78045752D02*
X144911115Y-78045752D01*
X144911115Y-78045752D02*
X144821829Y-78093371D01*
X144821829Y-78093371D02*
X144780163Y-78140990D01*
X144780163Y-78140990D02*
X144744448Y-78236228D01*
X144744448Y-78236228D02*
X144780163Y-78521942D01*
X144780163Y-78521942D02*
X144839686Y-78617180D01*
X144839686Y-78617180D02*
X144893258Y-78664800D01*
X144893258Y-78664800D02*
X144994448Y-78712419D01*
X144994448Y-78712419D02*
X145137306Y-78712419D01*
X143613496Y-78712419D02*
X143530162Y-78045752D01*
X143488496Y-77712419D02*
X143542067Y-77760038D01*
X143542067Y-77760038D02*
X143500400Y-77807657D01*
X143500400Y-77807657D02*
X143446829Y-77760038D01*
X143446829Y-77760038D02*
X143488496Y-77712419D01*
X143488496Y-77712419D02*
X143500400Y-77807657D01*
X143053972Y-78045752D02*
X143137306Y-78712419D01*
X143065877Y-78140990D02*
X143012306Y-78093371D01*
X143012306Y-78093371D02*
X142911115Y-78045752D01*
X142911115Y-78045752D02*
X142768258Y-78045752D01*
X142768258Y-78045752D02*
X142678972Y-78093371D01*
X142678972Y-78093371D02*
X142643258Y-78188609D01*
X142643258Y-78188609D02*
X142708734Y-78712419D01*
X142292067Y-78045752D02*
X141911115Y-78045752D01*
X142232544Y-78712419D02*
X142125401Y-77855276D01*
X142125401Y-77855276D02*
X142065877Y-77760038D01*
X142065877Y-77760038D02*
X141964687Y-77712419D01*
X141964687Y-77712419D02*
X141869448Y-77712419D01*
X141661115Y-78712419D02*
X141577781Y-78045752D01*
X141536115Y-77712419D02*
X141589686Y-77760038D01*
X141589686Y-77760038D02*
X141548019Y-77807657D01*
X141548019Y-77807657D02*
X141494448Y-77760038D01*
X141494448Y-77760038D02*
X141536115Y-77712419D01*
X141536115Y-77712419D02*
X141548019Y-77807657D01*
X141101591Y-78045752D02*
X141184925Y-78712419D01*
X141113496Y-78140990D02*
X141059925Y-78093371D01*
X141059925Y-78093371D02*
X140958734Y-78045752D01*
X140958734Y-78045752D02*
X140815877Y-78045752D01*
X140815877Y-78045752D02*
X140726591Y-78093371D01*
X140726591Y-78093371D02*
X140690877Y-78188609D01*
X140690877Y-78188609D02*
X140756353Y-78712419D01*
X140280163Y-78712419D02*
X140196829Y-78045752D01*
X140155163Y-77712419D02*
X140208734Y-77760038D01*
X140208734Y-77760038D02*
X140167067Y-77807657D01*
X140167067Y-77807657D02*
X140113496Y-77760038D01*
X140113496Y-77760038D02*
X140155163Y-77712419D01*
X140155163Y-77712419D02*
X140167067Y-77807657D01*
X139863496Y-78045752D02*
X139482544Y-78045752D01*
X139678973Y-77712419D02*
X139786116Y-78569561D01*
X139786116Y-78569561D02*
X139750401Y-78664800D01*
X139750401Y-78664800D02*
X139661116Y-78712419D01*
X139661116Y-78712419D02*
X139565877Y-78712419D01*
X139244448Y-78045752D02*
X139089687Y-78712419D01*
X138768258Y-78045752D02*
X139089687Y-78712419D01*
X139089687Y-78712419D02*
X139214687Y-78950514D01*
X139214687Y-78950514D02*
X139268258Y-78998133D01*
X139268258Y-78998133D02*
X139369448Y-79045752D01*
X137280162Y-78712419D02*
X137214686Y-78188609D01*
X137214686Y-78188609D02*
X137250400Y-78093371D01*
X137250400Y-78093371D02*
X137339686Y-78045752D01*
X137339686Y-78045752D02*
X137530162Y-78045752D01*
X137530162Y-78045752D02*
X137631353Y-78093371D01*
X137274210Y-78664800D02*
X137375400Y-78712419D01*
X137375400Y-78712419D02*
X137613496Y-78712419D01*
X137613496Y-78712419D02*
X137702781Y-78664800D01*
X137702781Y-78664800D02*
X137738496Y-78569561D01*
X137738496Y-78569561D02*
X137726591Y-78474323D01*
X137726591Y-78474323D02*
X137667067Y-78379085D01*
X137667067Y-78379085D02*
X137565877Y-78331466D01*
X137565877Y-78331466D02*
X137327781Y-78331466D01*
X137327781Y-78331466D02*
X137226591Y-78283847D01*
X136720638Y-78045752D02*
X136803972Y-78712419D01*
X136732543Y-78140990D02*
X136678972Y-78093371D01*
X136678972Y-78093371D02*
X136577781Y-78045752D01*
X136577781Y-78045752D02*
X136434924Y-78045752D01*
X136434924Y-78045752D02*
X136345638Y-78093371D01*
X136345638Y-78093371D02*
X136309924Y-78188609D01*
X136309924Y-78188609D02*
X136375400Y-78712419D01*
X135470638Y-78712419D02*
X135345638Y-77712419D01*
X135464686Y-78664800D02*
X135565876Y-78712419D01*
X135565876Y-78712419D02*
X135756353Y-78712419D01*
X135756353Y-78712419D02*
X135845638Y-78664800D01*
X135845638Y-78664800D02*
X135887305Y-78617180D01*
X135887305Y-78617180D02*
X135923019Y-78521942D01*
X135923019Y-78521942D02*
X135887305Y-78236228D01*
X135887305Y-78236228D02*
X135827781Y-78140990D01*
X135827781Y-78140990D02*
X135774210Y-78093371D01*
X135774210Y-78093371D02*
X135673019Y-78045752D01*
X135673019Y-78045752D02*
X135482543Y-78045752D01*
X135482543Y-78045752D02*
X135393257Y-78093371D01*
X134232543Y-78712419D02*
X134107543Y-77712419D01*
X134155162Y-78093371D02*
X134053971Y-78045752D01*
X134053971Y-78045752D02*
X133863495Y-78045752D01*
X133863495Y-78045752D02*
X133774209Y-78093371D01*
X133774209Y-78093371D02*
X133732543Y-78140990D01*
X133732543Y-78140990D02*
X133696828Y-78236228D01*
X133696828Y-78236228D02*
X133732543Y-78521942D01*
X133732543Y-78521942D02*
X133792066Y-78617180D01*
X133792066Y-78617180D02*
X133845638Y-78664800D01*
X133845638Y-78664800D02*
X133946828Y-78712419D01*
X133946828Y-78712419D02*
X134137305Y-78712419D01*
X134137305Y-78712419D02*
X134226590Y-78664800D01*
X132940876Y-78664800D02*
X133042066Y-78712419D01*
X133042066Y-78712419D02*
X133232543Y-78712419D01*
X133232543Y-78712419D02*
X133321828Y-78664800D01*
X133321828Y-78664800D02*
X133357543Y-78569561D01*
X133357543Y-78569561D02*
X133309924Y-78188609D01*
X133309924Y-78188609D02*
X133250400Y-78093371D01*
X133250400Y-78093371D02*
X133149209Y-78045752D01*
X133149209Y-78045752D02*
X132958733Y-78045752D01*
X132958733Y-78045752D02*
X132869447Y-78093371D01*
X132869447Y-78093371D02*
X132833733Y-78188609D01*
X132833733Y-78188609D02*
X132845638Y-78283847D01*
X132845638Y-78283847D02*
X133333733Y-78379085D01*
X132482542Y-78045752D02*
X132327781Y-78712419D01*
X132006352Y-78045752D02*
X132327781Y-78712419D01*
X132327781Y-78712419D02*
X132452781Y-78950514D01*
X132452781Y-78950514D02*
X132506352Y-78998133D01*
X132506352Y-78998133D02*
X132607542Y-79045752D01*
X131565876Y-78712419D02*
X131655161Y-78664800D01*
X131655161Y-78664800D02*
X131696828Y-78617180D01*
X131696828Y-78617180D02*
X131732542Y-78521942D01*
X131732542Y-78521942D02*
X131696828Y-78236228D01*
X131696828Y-78236228D02*
X131637304Y-78140990D01*
X131637304Y-78140990D02*
X131583733Y-78093371D01*
X131583733Y-78093371D02*
X131482542Y-78045752D01*
X131482542Y-78045752D02*
X131339685Y-78045752D01*
X131339685Y-78045752D02*
X131250399Y-78093371D01*
X131250399Y-78093371D02*
X131208733Y-78140990D01*
X131208733Y-78140990D02*
X131173018Y-78236228D01*
X131173018Y-78236228D02*
X131208733Y-78521942D01*
X131208733Y-78521942D02*
X131268256Y-78617180D01*
X131268256Y-78617180D02*
X131321828Y-78664800D01*
X131321828Y-78664800D02*
X131423018Y-78712419D01*
X131423018Y-78712419D02*
X131565876Y-78712419D01*
X130720637Y-78045752D02*
X130803971Y-78712419D01*
X130732542Y-78140990D02*
X130678971Y-78093371D01*
X130678971Y-78093371D02*
X130577780Y-78045752D01*
X130577780Y-78045752D02*
X130434923Y-78045752D01*
X130434923Y-78045752D02*
X130345637Y-78093371D01*
X130345637Y-78093371D02*
X130309923Y-78188609D01*
X130309923Y-78188609D02*
X130375399Y-78712419D01*
X129470637Y-78712419D02*
X129345637Y-77712419D01*
X129464685Y-78664800D02*
X129565875Y-78712419D01*
X129565875Y-78712419D02*
X129756352Y-78712419D01*
X129756352Y-78712419D02*
X129845637Y-78664800D01*
X129845637Y-78664800D02*
X129887304Y-78617180D01*
X129887304Y-78617180D02*
X129923018Y-78521942D01*
X129923018Y-78521942D02*
X129887304Y-78236228D01*
X129887304Y-78236228D02*
X129827780Y-78140990D01*
X129827780Y-78140990D02*
X129774209Y-78093371D01*
X129774209Y-78093371D02*
X129673018Y-78045752D01*
X129673018Y-78045752D02*
X129482542Y-78045752D01*
X129482542Y-78045752D02*
X129393256Y-78093371D01*
X128982542Y-78617180D02*
X128940875Y-78664800D01*
X128940875Y-78664800D02*
X128994447Y-78712419D01*
X128994447Y-78712419D02*
X129036113Y-78664800D01*
X129036113Y-78664800D02*
X128982542Y-78617180D01*
X128982542Y-78617180D02*
X128994447Y-78712419D01*
X128946828Y-78331466D02*
X128923018Y-77760038D01*
X128923018Y-77760038D02*
X128869447Y-77712419D01*
X128869447Y-77712419D02*
X128827780Y-77760038D01*
X128827780Y-77760038D02*
X128946828Y-78331466D01*
X128946828Y-78331466D02*
X128869447Y-77712419D01*
D12*
X127233333Y-103784819D02*
X127233333Y-104499104D01*
X127233333Y-104499104D02*
X127280952Y-104641961D01*
X127280952Y-104641961D02*
X127376190Y-104737200D01*
X127376190Y-104737200D02*
X127519047Y-104784819D01*
X127519047Y-104784819D02*
X127614285Y-104784819D01*
X126709523Y-104784819D02*
X126519047Y-104784819D01*
X126519047Y-104784819D02*
X126423809Y-104737200D01*
X126423809Y-104737200D02*
X126376190Y-104689580D01*
X126376190Y-104689580D02*
X126280952Y-104546723D01*
X126280952Y-104546723D02*
X126233333Y-104356247D01*
X126233333Y-104356247D02*
X126233333Y-103975295D01*
X126233333Y-103975295D02*
X126280952Y-103880057D01*
X126280952Y-103880057D02*
X126328571Y-103832438D01*
X126328571Y-103832438D02*
X126423809Y-103784819D01*
X126423809Y-103784819D02*
X126614285Y-103784819D01*
X126614285Y-103784819D02*
X126709523Y-103832438D01*
X126709523Y-103832438D02*
X126757142Y-103880057D01*
X126757142Y-103880057D02*
X126804761Y-103975295D01*
X126804761Y-103975295D02*
X126804761Y-104213390D01*
X126804761Y-104213390D02*
X126757142Y-104308628D01*
X126757142Y-104308628D02*
X126709523Y-104356247D01*
X126709523Y-104356247D02*
X126614285Y-104403866D01*
X126614285Y-104403866D02*
X126423809Y-104403866D01*
X126423809Y-104403866D02*
X126328571Y-104356247D01*
X126328571Y-104356247D02*
X126280952Y-104308628D01*
X126280952Y-104308628D02*
X126233333Y-104213390D01*
X126633333Y-93494819D02*
X126633333Y-94209104D01*
X126633333Y-94209104D02*
X126680952Y-94351961D01*
X126680952Y-94351961D02*
X126776190Y-94447200D01*
X126776190Y-94447200D02*
X126919047Y-94494819D01*
X126919047Y-94494819D02*
X127014285Y-94494819D01*
X126014285Y-93923390D02*
X126109523Y-93875771D01*
X126109523Y-93875771D02*
X126157142Y-93828152D01*
X126157142Y-93828152D02*
X126204761Y-93732914D01*
X126204761Y-93732914D02*
X126204761Y-93685295D01*
X126204761Y-93685295D02*
X126157142Y-93590057D01*
X126157142Y-93590057D02*
X126109523Y-93542438D01*
X126109523Y-93542438D02*
X126014285Y-93494819D01*
X126014285Y-93494819D02*
X125823809Y-93494819D01*
X125823809Y-93494819D02*
X125728571Y-93542438D01*
X125728571Y-93542438D02*
X125680952Y-93590057D01*
X125680952Y-93590057D02*
X125633333Y-93685295D01*
X125633333Y-93685295D02*
X125633333Y-93732914D01*
X125633333Y-93732914D02*
X125680952Y-93828152D01*
X125680952Y-93828152D02*
X125728571Y-93875771D01*
X125728571Y-93875771D02*
X125823809Y-93923390D01*
X125823809Y-93923390D02*
X126014285Y-93923390D01*
X126014285Y-93923390D02*
X126109523Y-93971009D01*
X126109523Y-93971009D02*
X126157142Y-94018628D01*
X126157142Y-94018628D02*
X126204761Y-94113866D01*
X126204761Y-94113866D02*
X126204761Y-94304342D01*
X126204761Y-94304342D02*
X126157142Y-94399580D01*
X126157142Y-94399580D02*
X126109523Y-94447200D01*
X126109523Y-94447200D02*
X126014285Y-94494819D01*
X126014285Y-94494819D02*
X125823809Y-94494819D01*
X125823809Y-94494819D02*
X125728571Y-94447200D01*
X125728571Y-94447200D02*
X125680952Y-94399580D01*
X125680952Y-94399580D02*
X125633333Y-94304342D01*
X125633333Y-94304342D02*
X125633333Y-94113866D01*
X125633333Y-94113866D02*
X125680952Y-94018628D01*
X125680952Y-94018628D02*
X125728571Y-93971009D01*
X125728571Y-93971009D02*
X125823809Y-93923390D01*
X139928710Y-105959813D02*
X139996054Y-105959813D01*
X139996054Y-105959813D02*
X140130741Y-105892469D01*
X140130741Y-105892469D02*
X140198084Y-105825126D01*
X140198084Y-105825126D02*
X140265428Y-105690439D01*
X140265428Y-105690439D02*
X140265428Y-105555752D01*
X140265428Y-105555752D02*
X140231756Y-105454737D01*
X140231756Y-105454737D02*
X140130741Y-105286378D01*
X140130741Y-105286378D02*
X140029726Y-105185363D01*
X140029726Y-105185363D02*
X139861367Y-105084347D01*
X139861367Y-105084347D02*
X139760352Y-105050676D01*
X139760352Y-105050676D02*
X139625665Y-105050676D01*
X139625665Y-105050676D02*
X139490978Y-105118019D01*
X139490978Y-105118019D02*
X139423634Y-105185363D01*
X139423634Y-105185363D02*
X139356291Y-105320050D01*
X139356291Y-105320050D02*
X139356291Y-105387393D01*
X139322619Y-106700591D02*
X139726680Y-106296530D01*
X139524649Y-106498561D02*
X138817543Y-105791454D01*
X138817543Y-105791454D02*
X138985901Y-105825126D01*
X138985901Y-105825126D02*
X139120588Y-105825126D01*
X139120588Y-105825126D02*
X139221604Y-105791454D01*
X138514497Y-106700592D02*
X138548168Y-106599576D01*
X138548168Y-106599576D02*
X138548168Y-106532233D01*
X138548168Y-106532233D02*
X138514497Y-106431218D01*
X138514497Y-106431218D02*
X138480825Y-106397546D01*
X138480825Y-106397546D02*
X138379810Y-106363874D01*
X138379810Y-106363874D02*
X138312466Y-106363874D01*
X138312466Y-106363874D02*
X138211451Y-106397546D01*
X138211451Y-106397546D02*
X138076764Y-106532233D01*
X138076764Y-106532233D02*
X138043092Y-106633248D01*
X138043092Y-106633248D02*
X138043092Y-106700592D01*
X138043092Y-106700592D02*
X138076764Y-106801607D01*
X138076764Y-106801607D02*
X138110436Y-106835279D01*
X138110436Y-106835279D02*
X138211451Y-106868950D01*
X138211451Y-106868950D02*
X138278794Y-106868950D01*
X138278794Y-106868950D02*
X138379810Y-106835279D01*
X138379810Y-106835279D02*
X138514497Y-106700592D01*
X138514497Y-106700592D02*
X138615512Y-106666920D01*
X138615512Y-106666920D02*
X138682855Y-106666920D01*
X138682855Y-106666920D02*
X138783871Y-106700592D01*
X138783871Y-106700592D02*
X138918558Y-106835279D01*
X138918558Y-106835279D02*
X138952229Y-106936294D01*
X138952229Y-106936294D02*
X138952229Y-107003637D01*
X138952229Y-107003637D02*
X138918558Y-107104653D01*
X138918558Y-107104653D02*
X138783871Y-107239340D01*
X138783871Y-107239340D02*
X138682855Y-107273011D01*
X138682855Y-107273011D02*
X138615512Y-107273011D01*
X138615512Y-107273011D02*
X138514497Y-107239340D01*
X138514497Y-107239340D02*
X138379810Y-107104653D01*
X138379810Y-107104653D02*
X138346138Y-107003637D01*
X138346138Y-107003637D02*
X138346138Y-106936294D01*
X138346138Y-106936294D02*
X138379810Y-106835279D01*
X144142857Y-95959580D02*
X144190476Y-96007200D01*
X144190476Y-96007200D02*
X144333333Y-96054819D01*
X144333333Y-96054819D02*
X144428571Y-96054819D01*
X144428571Y-96054819D02*
X144571428Y-96007200D01*
X144571428Y-96007200D02*
X144666666Y-95911961D01*
X144666666Y-95911961D02*
X144714285Y-95816723D01*
X144714285Y-95816723D02*
X144761904Y-95626247D01*
X144761904Y-95626247D02*
X144761904Y-95483390D01*
X144761904Y-95483390D02*
X144714285Y-95292914D01*
X144714285Y-95292914D02*
X144666666Y-95197676D01*
X144666666Y-95197676D02*
X144571428Y-95102438D01*
X144571428Y-95102438D02*
X144428571Y-95054819D01*
X144428571Y-95054819D02*
X144333333Y-95054819D01*
X144333333Y-95054819D02*
X144190476Y-95102438D01*
X144190476Y-95102438D02*
X144142857Y-95150057D01*
X143190476Y-96054819D02*
X143761904Y-96054819D01*
X143476190Y-96054819D02*
X143476190Y-95054819D01*
X143476190Y-95054819D02*
X143571428Y-95197676D01*
X143571428Y-95197676D02*
X143666666Y-95292914D01*
X143666666Y-95292914D02*
X143761904Y-95340533D01*
X142333333Y-95054819D02*
X142523809Y-95054819D01*
X142523809Y-95054819D02*
X142619047Y-95102438D01*
X142619047Y-95102438D02*
X142666666Y-95150057D01*
X142666666Y-95150057D02*
X142761904Y-95292914D01*
X142761904Y-95292914D02*
X142809523Y-95483390D01*
X142809523Y-95483390D02*
X142809523Y-95864342D01*
X142809523Y-95864342D02*
X142761904Y-95959580D01*
X142761904Y-95959580D02*
X142714285Y-96007200D01*
X142714285Y-96007200D02*
X142619047Y-96054819D01*
X142619047Y-96054819D02*
X142428571Y-96054819D01*
X142428571Y-96054819D02*
X142333333Y-96007200D01*
X142333333Y-96007200D02*
X142285714Y-95959580D01*
X142285714Y-95959580D02*
X142238095Y-95864342D01*
X142238095Y-95864342D02*
X142238095Y-95626247D01*
X142238095Y-95626247D02*
X142285714Y-95531009D01*
X142285714Y-95531009D02*
X142333333Y-95483390D01*
X142333333Y-95483390D02*
X142428571Y-95435771D01*
X142428571Y-95435771D02*
X142619047Y-95435771D01*
X142619047Y-95435771D02*
X142714285Y-95483390D01*
X142714285Y-95483390D02*
X142761904Y-95531009D01*
X142761904Y-95531009D02*
X142809523Y-95626247D01*
X127829580Y-117057142D02*
X127877200Y-117009523D01*
X127877200Y-117009523D02*
X127924819Y-116866666D01*
X127924819Y-116866666D02*
X127924819Y-116771428D01*
X127924819Y-116771428D02*
X127877200Y-116628571D01*
X127877200Y-116628571D02*
X127781961Y-116533333D01*
X127781961Y-116533333D02*
X127686723Y-116485714D01*
X127686723Y-116485714D02*
X127496247Y-116438095D01*
X127496247Y-116438095D02*
X127353390Y-116438095D01*
X127353390Y-116438095D02*
X127162914Y-116485714D01*
X127162914Y-116485714D02*
X127067676Y-116533333D01*
X127067676Y-116533333D02*
X126972438Y-116628571D01*
X126972438Y-116628571D02*
X126924819Y-116771428D01*
X126924819Y-116771428D02*
X126924819Y-116866666D01*
X126924819Y-116866666D02*
X126972438Y-117009523D01*
X126972438Y-117009523D02*
X127020057Y-117057142D01*
X127924819Y-118009523D02*
X127924819Y-117438095D01*
X127924819Y-117723809D02*
X126924819Y-117723809D01*
X126924819Y-117723809D02*
X127067676Y-117628571D01*
X127067676Y-117628571D02*
X127162914Y-117533333D01*
X127162914Y-117533333D02*
X127210533Y-117438095D01*
X127924819Y-118485714D02*
X127924819Y-118676190D01*
X127924819Y-118676190D02*
X127877200Y-118771428D01*
X127877200Y-118771428D02*
X127829580Y-118819047D01*
X127829580Y-118819047D02*
X127686723Y-118914285D01*
X127686723Y-118914285D02*
X127496247Y-118961904D01*
X127496247Y-118961904D02*
X127115295Y-118961904D01*
X127115295Y-118961904D02*
X127020057Y-118914285D01*
X127020057Y-118914285D02*
X126972438Y-118866666D01*
X126972438Y-118866666D02*
X126924819Y-118771428D01*
X126924819Y-118771428D02*
X126924819Y-118580952D01*
X126924819Y-118580952D02*
X126972438Y-118485714D01*
X126972438Y-118485714D02*
X127020057Y-118438095D01*
X127020057Y-118438095D02*
X127115295Y-118390476D01*
X127115295Y-118390476D02*
X127353390Y-118390476D01*
X127353390Y-118390476D02*
X127448628Y-118438095D01*
X127448628Y-118438095D02*
X127496247Y-118485714D01*
X127496247Y-118485714D02*
X127543866Y-118580952D01*
X127543866Y-118580952D02*
X127543866Y-118771428D01*
X127543866Y-118771428D02*
X127496247Y-118866666D01*
X127496247Y-118866666D02*
X127448628Y-118914285D01*
X127448628Y-118914285D02*
X127353390Y-118961904D01*
X134829580Y-104157142D02*
X134877200Y-104109523D01*
X134877200Y-104109523D02*
X134924819Y-103966666D01*
X134924819Y-103966666D02*
X134924819Y-103871428D01*
X134924819Y-103871428D02*
X134877200Y-103728571D01*
X134877200Y-103728571D02*
X134781961Y-103633333D01*
X134781961Y-103633333D02*
X134686723Y-103585714D01*
X134686723Y-103585714D02*
X134496247Y-103538095D01*
X134496247Y-103538095D02*
X134353390Y-103538095D01*
X134353390Y-103538095D02*
X134162914Y-103585714D01*
X134162914Y-103585714D02*
X134067676Y-103633333D01*
X134067676Y-103633333D02*
X133972438Y-103728571D01*
X133972438Y-103728571D02*
X133924819Y-103871428D01*
X133924819Y-103871428D02*
X133924819Y-103966666D01*
X133924819Y-103966666D02*
X133972438Y-104109523D01*
X133972438Y-104109523D02*
X134020057Y-104157142D01*
X134924819Y-105109523D02*
X134924819Y-104538095D01*
X134924819Y-104823809D02*
X133924819Y-104823809D01*
X133924819Y-104823809D02*
X134067676Y-104728571D01*
X134067676Y-104728571D02*
X134162914Y-104633333D01*
X134162914Y-104633333D02*
X134210533Y-104538095D01*
X133924819Y-105442857D02*
X133924819Y-106109523D01*
X133924819Y-106109523D02*
X134924819Y-105680952D01*
X139666666Y-119889580D02*
X139714285Y-119937200D01*
X139714285Y-119937200D02*
X139857142Y-119984819D01*
X139857142Y-119984819D02*
X139952380Y-119984819D01*
X139952380Y-119984819D02*
X140095237Y-119937200D01*
X140095237Y-119937200D02*
X140190475Y-119841961D01*
X140190475Y-119841961D02*
X140238094Y-119746723D01*
X140238094Y-119746723D02*
X140285713Y-119556247D01*
X140285713Y-119556247D02*
X140285713Y-119413390D01*
X140285713Y-119413390D02*
X140238094Y-119222914D01*
X140238094Y-119222914D02*
X140190475Y-119127676D01*
X140190475Y-119127676D02*
X140095237Y-119032438D01*
X140095237Y-119032438D02*
X139952380Y-118984819D01*
X139952380Y-118984819D02*
X139857142Y-118984819D01*
X139857142Y-118984819D02*
X139714285Y-119032438D01*
X139714285Y-119032438D02*
X139666666Y-119080057D01*
X138809523Y-119318152D02*
X138809523Y-119984819D01*
X139047618Y-118937200D02*
X139285713Y-119651485D01*
X139285713Y-119651485D02*
X138666666Y-119651485D01*
X142952112Y-116336411D02*
X143019456Y-116336411D01*
X143019456Y-116336411D02*
X143154143Y-116269067D01*
X143154143Y-116269067D02*
X143221486Y-116201724D01*
X143221486Y-116201724D02*
X143288830Y-116067037D01*
X143288830Y-116067037D02*
X143288830Y-115932350D01*
X143288830Y-115932350D02*
X143255158Y-115831335D01*
X143255158Y-115831335D02*
X143154143Y-115662976D01*
X143154143Y-115662976D02*
X143053128Y-115561961D01*
X143053128Y-115561961D02*
X142884769Y-115460945D01*
X142884769Y-115460945D02*
X142783754Y-115427274D01*
X142783754Y-115427274D02*
X142649067Y-115427274D01*
X142649067Y-115427274D02*
X142514380Y-115494617D01*
X142514380Y-115494617D02*
X142447036Y-115561961D01*
X142447036Y-115561961D02*
X142379693Y-115696648D01*
X142379693Y-115696648D02*
X142379693Y-115763991D01*
X142076647Y-115932350D02*
X141605242Y-116403754D01*
X141605242Y-116403754D02*
X142615395Y-116807815D01*
X149789580Y-92607142D02*
X149837200Y-92559523D01*
X149837200Y-92559523D02*
X149884819Y-92416666D01*
X149884819Y-92416666D02*
X149884819Y-92321428D01*
X149884819Y-92321428D02*
X149837200Y-92178571D01*
X149837200Y-92178571D02*
X149741961Y-92083333D01*
X149741961Y-92083333D02*
X149646723Y-92035714D01*
X149646723Y-92035714D02*
X149456247Y-91988095D01*
X149456247Y-91988095D02*
X149313390Y-91988095D01*
X149313390Y-91988095D02*
X149122914Y-92035714D01*
X149122914Y-92035714D02*
X149027676Y-92083333D01*
X149027676Y-92083333D02*
X148932438Y-92178571D01*
X148932438Y-92178571D02*
X148884819Y-92321428D01*
X148884819Y-92321428D02*
X148884819Y-92416666D01*
X148884819Y-92416666D02*
X148932438Y-92559523D01*
X148932438Y-92559523D02*
X148980057Y-92607142D01*
X148980057Y-92988095D02*
X148932438Y-93035714D01*
X148932438Y-93035714D02*
X148884819Y-93130952D01*
X148884819Y-93130952D02*
X148884819Y-93369047D01*
X148884819Y-93369047D02*
X148932438Y-93464285D01*
X148932438Y-93464285D02*
X148980057Y-93511904D01*
X148980057Y-93511904D02*
X149075295Y-93559523D01*
X149075295Y-93559523D02*
X149170533Y-93559523D01*
X149170533Y-93559523D02*
X149313390Y-93511904D01*
X149313390Y-93511904D02*
X149884819Y-92940476D01*
X149884819Y-92940476D02*
X149884819Y-93559523D01*
X149313390Y-94130952D02*
X149265771Y-94035714D01*
X149265771Y-94035714D02*
X149218152Y-93988095D01*
X149218152Y-93988095D02*
X149122914Y-93940476D01*
X149122914Y-93940476D02*
X149075295Y-93940476D01*
X149075295Y-93940476D02*
X148980057Y-93988095D01*
X148980057Y-93988095D02*
X148932438Y-94035714D01*
X148932438Y-94035714D02*
X148884819Y-94130952D01*
X148884819Y-94130952D02*
X148884819Y-94321428D01*
X148884819Y-94321428D02*
X148932438Y-94416666D01*
X148932438Y-94416666D02*
X148980057Y-94464285D01*
X148980057Y-94464285D02*
X149075295Y-94511904D01*
X149075295Y-94511904D02*
X149122914Y-94511904D01*
X149122914Y-94511904D02*
X149218152Y-94464285D01*
X149218152Y-94464285D02*
X149265771Y-94416666D01*
X149265771Y-94416666D02*
X149313390Y-94321428D01*
X149313390Y-94321428D02*
X149313390Y-94130952D01*
X149313390Y-94130952D02*
X149361009Y-94035714D01*
X149361009Y-94035714D02*
X149408628Y-93988095D01*
X149408628Y-93988095D02*
X149503866Y-93940476D01*
X149503866Y-93940476D02*
X149694342Y-93940476D01*
X149694342Y-93940476D02*
X149789580Y-93988095D01*
X149789580Y-93988095D02*
X149837200Y-94035714D01*
X149837200Y-94035714D02*
X149884819Y-94130952D01*
X149884819Y-94130952D02*
X149884819Y-94321428D01*
X149884819Y-94321428D02*
X149837200Y-94416666D01*
X149837200Y-94416666D02*
X149789580Y-94464285D01*
X149789580Y-94464285D02*
X149694342Y-94511904D01*
X149694342Y-94511904D02*
X149503866Y-94511904D01*
X149503866Y-94511904D02*
X149408628Y-94464285D01*
X149408628Y-94464285D02*
X149361009Y-94416666D01*
X149361009Y-94416666D02*
X149313390Y-94321428D01*
X137629580Y-102257142D02*
X137677200Y-102209523D01*
X137677200Y-102209523D02*
X137724819Y-102066666D01*
X137724819Y-102066666D02*
X137724819Y-101971428D01*
X137724819Y-101971428D02*
X137677200Y-101828571D01*
X137677200Y-101828571D02*
X137581961Y-101733333D01*
X137581961Y-101733333D02*
X137486723Y-101685714D01*
X137486723Y-101685714D02*
X137296247Y-101638095D01*
X137296247Y-101638095D02*
X137153390Y-101638095D01*
X137153390Y-101638095D02*
X136962914Y-101685714D01*
X136962914Y-101685714D02*
X136867676Y-101733333D01*
X136867676Y-101733333D02*
X136772438Y-101828571D01*
X136772438Y-101828571D02*
X136724819Y-101971428D01*
X136724819Y-101971428D02*
X136724819Y-102066666D01*
X136724819Y-102066666D02*
X136772438Y-102209523D01*
X136772438Y-102209523D02*
X136820057Y-102257142D01*
X137724819Y-103209523D02*
X137724819Y-102638095D01*
X137724819Y-102923809D02*
X136724819Y-102923809D01*
X136724819Y-102923809D02*
X136867676Y-102828571D01*
X136867676Y-102828571D02*
X136962914Y-102733333D01*
X136962914Y-102733333D02*
X137010533Y-102638095D01*
X136724819Y-104114285D02*
X136724819Y-103638095D01*
X136724819Y-103638095D02*
X137201009Y-103590476D01*
X137201009Y-103590476D02*
X137153390Y-103638095D01*
X137153390Y-103638095D02*
X137105771Y-103733333D01*
X137105771Y-103733333D02*
X137105771Y-103971428D01*
X137105771Y-103971428D02*
X137153390Y-104066666D01*
X137153390Y-104066666D02*
X137201009Y-104114285D01*
X137201009Y-104114285D02*
X137296247Y-104161904D01*
X137296247Y-104161904D02*
X137534342Y-104161904D01*
X137534342Y-104161904D02*
X137629580Y-104114285D01*
X137629580Y-104114285D02*
X137677200Y-104066666D01*
X137677200Y-104066666D02*
X137724819Y-103971428D01*
X137724819Y-103971428D02*
X137724819Y-103733333D01*
X137724819Y-103733333D02*
X137677200Y-103638095D01*
X137677200Y-103638095D02*
X137629580Y-103590476D01*
X140252737Y-92719700D02*
X140300356Y-92767320D01*
X140300356Y-92767320D02*
X140443213Y-92814939D01*
X140443213Y-92814939D02*
X140538451Y-92814939D01*
X140538451Y-92814939D02*
X140681308Y-92767320D01*
X140681308Y-92767320D02*
X140776546Y-92672081D01*
X140776546Y-92672081D02*
X140824165Y-92576843D01*
X140824165Y-92576843D02*
X140871784Y-92386367D01*
X140871784Y-92386367D02*
X140871784Y-92243510D01*
X140871784Y-92243510D02*
X140824165Y-92053034D01*
X140824165Y-92053034D02*
X140776546Y-91957796D01*
X140776546Y-91957796D02*
X140681308Y-91862558D01*
X140681308Y-91862558D02*
X140538451Y-91814939D01*
X140538451Y-91814939D02*
X140443213Y-91814939D01*
X140443213Y-91814939D02*
X140300356Y-91862558D01*
X140300356Y-91862558D02*
X140252737Y-91910177D01*
X139300356Y-92814939D02*
X139871784Y-92814939D01*
X139586070Y-92814939D02*
X139586070Y-91814939D01*
X139586070Y-91814939D02*
X139681308Y-91957796D01*
X139681308Y-91957796D02*
X139776546Y-92053034D01*
X139776546Y-92053034D02*
X139871784Y-92100653D01*
X138443213Y-92148272D02*
X138443213Y-92814939D01*
X138681308Y-91767320D02*
X138919403Y-92481605D01*
X138919403Y-92481605D02*
X138300356Y-92481605D01*
X144048830Y-109529693D02*
X144116174Y-109529693D01*
X144116174Y-109529693D02*
X144250861Y-109462349D01*
X144250861Y-109462349D02*
X144318204Y-109395006D01*
X144318204Y-109395006D02*
X144385548Y-109260319D01*
X144385548Y-109260319D02*
X144385548Y-109125632D01*
X144385548Y-109125632D02*
X144351876Y-109024617D01*
X144351876Y-109024617D02*
X144250861Y-108856258D01*
X144250861Y-108856258D02*
X144149846Y-108755243D01*
X144149846Y-108755243D02*
X143981487Y-108654227D01*
X143981487Y-108654227D02*
X143880472Y-108620556D01*
X143880472Y-108620556D02*
X143745785Y-108620556D01*
X143745785Y-108620556D02*
X143611098Y-108687899D01*
X143611098Y-108687899D02*
X143543754Y-108755243D01*
X143543754Y-108755243D02*
X143476411Y-108889930D01*
X143476411Y-108889930D02*
X143476411Y-108957273D01*
X143207037Y-109226647D02*
X143139693Y-109226647D01*
X143139693Y-109226647D02*
X143038678Y-109260319D01*
X143038678Y-109260319D02*
X142870319Y-109428678D01*
X142870319Y-109428678D02*
X142836647Y-109529693D01*
X142836647Y-109529693D02*
X142836647Y-109597036D01*
X142836647Y-109597036D02*
X142870319Y-109698052D01*
X142870319Y-109698052D02*
X142937663Y-109765395D01*
X142937663Y-109765395D02*
X143072350Y-109832739D01*
X143072350Y-109832739D02*
X143880472Y-109832739D01*
X143880472Y-109832739D02*
X143442739Y-110270471D01*
X142769304Y-110943907D02*
X143173365Y-110539846D01*
X142971334Y-110741876D02*
X142264227Y-110034769D01*
X142264227Y-110034769D02*
X142432586Y-110068441D01*
X142432586Y-110068441D02*
X142567273Y-110068441D01*
X142567273Y-110068441D02*
X142668288Y-110034769D01*
X145159580Y-92494641D02*
X145207200Y-92447022D01*
X145207200Y-92447022D02*
X145254819Y-92304165D01*
X145254819Y-92304165D02*
X145254819Y-92208927D01*
X145254819Y-92208927D02*
X145207200Y-92066070D01*
X145207200Y-92066070D02*
X145111961Y-91970832D01*
X145111961Y-91970832D02*
X145016723Y-91923213D01*
X145016723Y-91923213D02*
X144826247Y-91875594D01*
X144826247Y-91875594D02*
X144683390Y-91875594D01*
X144683390Y-91875594D02*
X144492914Y-91923213D01*
X144492914Y-91923213D02*
X144397676Y-91970832D01*
X144397676Y-91970832D02*
X144302438Y-92066070D01*
X144302438Y-92066070D02*
X144254819Y-92208927D01*
X144254819Y-92208927D02*
X144254819Y-92304165D01*
X144254819Y-92304165D02*
X144302438Y-92447022D01*
X144302438Y-92447022D02*
X144350057Y-92494641D01*
X144350057Y-92875594D02*
X144302438Y-92923213D01*
X144302438Y-92923213D02*
X144254819Y-93018451D01*
X144254819Y-93018451D02*
X144254819Y-93256546D01*
X144254819Y-93256546D02*
X144302438Y-93351784D01*
X144302438Y-93351784D02*
X144350057Y-93399403D01*
X144350057Y-93399403D02*
X144445295Y-93447022D01*
X144445295Y-93447022D02*
X144540533Y-93447022D01*
X144540533Y-93447022D02*
X144683390Y-93399403D01*
X144683390Y-93399403D02*
X145254819Y-92827975D01*
X145254819Y-92827975D02*
X145254819Y-93447022D01*
X144254819Y-93780356D02*
X144254819Y-94447022D01*
X144254819Y-94447022D02*
X145254819Y-94018451D01*
X134642857Y-98484819D02*
X134976190Y-98008628D01*
X135214285Y-98484819D02*
X135214285Y-97484819D01*
X135214285Y-97484819D02*
X134833333Y-97484819D01*
X134833333Y-97484819D02*
X134738095Y-97532438D01*
X134738095Y-97532438D02*
X134690476Y-97580057D01*
X134690476Y-97580057D02*
X134642857Y-97675295D01*
X134642857Y-97675295D02*
X134642857Y-97818152D01*
X134642857Y-97818152D02*
X134690476Y-97913390D01*
X134690476Y-97913390D02*
X134738095Y-97961009D01*
X134738095Y-97961009D02*
X134833333Y-98008628D01*
X134833333Y-98008628D02*
X135214285Y-98008628D01*
X133690476Y-98484819D02*
X134261904Y-98484819D01*
X133976190Y-98484819D02*
X133976190Y-97484819D01*
X133976190Y-97484819D02*
X134071428Y-97627676D01*
X134071428Y-97627676D02*
X134166666Y-97722914D01*
X134166666Y-97722914D02*
X134261904Y-97770533D01*
X133119047Y-97913390D02*
X133214285Y-97865771D01*
X133214285Y-97865771D02*
X133261904Y-97818152D01*
X133261904Y-97818152D02*
X133309523Y-97722914D01*
X133309523Y-97722914D02*
X133309523Y-97675295D01*
X133309523Y-97675295D02*
X133261904Y-97580057D01*
X133261904Y-97580057D02*
X133214285Y-97532438D01*
X133214285Y-97532438D02*
X133119047Y-97484819D01*
X133119047Y-97484819D02*
X132928571Y-97484819D01*
X132928571Y-97484819D02*
X132833333Y-97532438D01*
X132833333Y-97532438D02*
X132785714Y-97580057D01*
X132785714Y-97580057D02*
X132738095Y-97675295D01*
X132738095Y-97675295D02*
X132738095Y-97722914D01*
X132738095Y-97722914D02*
X132785714Y-97818152D01*
X132785714Y-97818152D02*
X132833333Y-97865771D01*
X132833333Y-97865771D02*
X132928571Y-97913390D01*
X132928571Y-97913390D02*
X133119047Y-97913390D01*
X133119047Y-97913390D02*
X133214285Y-97961009D01*
X133214285Y-97961009D02*
X133261904Y-98008628D01*
X133261904Y-98008628D02*
X133309523Y-98103866D01*
X133309523Y-98103866D02*
X133309523Y-98294342D01*
X133309523Y-98294342D02*
X133261904Y-98389580D01*
X133261904Y-98389580D02*
X133214285Y-98437200D01*
X133214285Y-98437200D02*
X133119047Y-98484819D01*
X133119047Y-98484819D02*
X132928571Y-98484819D01*
X132928571Y-98484819D02*
X132833333Y-98437200D01*
X132833333Y-98437200D02*
X132785714Y-98389580D01*
X132785714Y-98389580D02*
X132738095Y-98294342D01*
X132738095Y-98294342D02*
X132738095Y-98103866D01*
X132738095Y-98103866D02*
X132785714Y-98008628D01*
X132785714Y-98008628D02*
X132833333Y-97961009D01*
X132833333Y-97961009D02*
X132928571Y-97913390D01*
X145139580Y-103867142D02*
X145187200Y-103819523D01*
X145187200Y-103819523D02*
X145234819Y-103676666D01*
X145234819Y-103676666D02*
X145234819Y-103581428D01*
X145234819Y-103581428D02*
X145187200Y-103438571D01*
X145187200Y-103438571D02*
X145091961Y-103343333D01*
X145091961Y-103343333D02*
X144996723Y-103295714D01*
X144996723Y-103295714D02*
X144806247Y-103248095D01*
X144806247Y-103248095D02*
X144663390Y-103248095D01*
X144663390Y-103248095D02*
X144472914Y-103295714D01*
X144472914Y-103295714D02*
X144377676Y-103343333D01*
X144377676Y-103343333D02*
X144282438Y-103438571D01*
X144282438Y-103438571D02*
X144234819Y-103581428D01*
X144234819Y-103581428D02*
X144234819Y-103676666D01*
X144234819Y-103676666D02*
X144282438Y-103819523D01*
X144282438Y-103819523D02*
X144330057Y-103867142D01*
X144330057Y-104248095D02*
X144282438Y-104295714D01*
X144282438Y-104295714D02*
X144234819Y-104390952D01*
X144234819Y-104390952D02*
X144234819Y-104629047D01*
X144234819Y-104629047D02*
X144282438Y-104724285D01*
X144282438Y-104724285D02*
X144330057Y-104771904D01*
X144330057Y-104771904D02*
X144425295Y-104819523D01*
X144425295Y-104819523D02*
X144520533Y-104819523D01*
X144520533Y-104819523D02*
X144663390Y-104771904D01*
X144663390Y-104771904D02*
X145234819Y-104200476D01*
X145234819Y-104200476D02*
X145234819Y-104819523D01*
X144234819Y-105438571D02*
X144234819Y-105533809D01*
X144234819Y-105533809D02*
X144282438Y-105629047D01*
X144282438Y-105629047D02*
X144330057Y-105676666D01*
X144330057Y-105676666D02*
X144425295Y-105724285D01*
X144425295Y-105724285D02*
X144615771Y-105771904D01*
X144615771Y-105771904D02*
X144853866Y-105771904D01*
X144853866Y-105771904D02*
X145044342Y-105724285D01*
X145044342Y-105724285D02*
X145139580Y-105676666D01*
X145139580Y-105676666D02*
X145187200Y-105629047D01*
X145187200Y-105629047D02*
X145234819Y-105533809D01*
X145234819Y-105533809D02*
X145234819Y-105438571D01*
X145234819Y-105438571D02*
X145187200Y-105343333D01*
X145187200Y-105343333D02*
X145139580Y-105295714D01*
X145139580Y-105295714D02*
X145044342Y-105248095D01*
X145044342Y-105248095D02*
X144853866Y-105200476D01*
X144853866Y-105200476D02*
X144615771Y-105200476D01*
X144615771Y-105200476D02*
X144425295Y-105248095D01*
X144425295Y-105248095D02*
X144330057Y-105295714D01*
X144330057Y-105295714D02*
X144282438Y-105343333D01*
X144282438Y-105343333D02*
X144234819Y-105438571D01*
D14*
%TO.C,C18*%
X140395949Y-106362802D02*
X140602802Y-106155949D01*
X141117198Y-107084051D02*
X141324051Y-106877198D01*
%TO.C,C16*%
X140153733Y-95090000D02*
X140446267Y-95090000D01*
X140153733Y-96110000D02*
X140446267Y-96110000D01*
%TO.C,C19*%
X128390000Y-117846267D02*
X128390000Y-117553733D01*
X129410000Y-117846267D02*
X129410000Y-117553733D01*
%TO.C,C17*%
X135390000Y-104946267D02*
X135390000Y-104653733D01*
X136410000Y-104946267D02*
X136410000Y-104653733D01*
%TO.C,C4*%
X139646267Y-117590000D02*
X139353733Y-117590000D01*
X139646267Y-118610000D02*
X139353733Y-118610000D01*
%TO.C,C7*%
X141342802Y-114735949D02*
X141135949Y-114942802D01*
X142064051Y-115457198D02*
X141857198Y-115664051D01*
%TO.C,C28*%
X147490000Y-93103733D02*
X147490000Y-93396267D01*
X148510000Y-93103733D02*
X148510000Y-93396267D01*
%TO.C,C15*%
X138190000Y-103046267D02*
X138190000Y-102753733D01*
X139210000Y-103046267D02*
X139210000Y-102753733D01*
%TO.C,C14*%
X139463613Y-93280120D02*
X139756147Y-93280120D01*
X139463613Y-94300120D02*
X139756147Y-94300120D01*
%TO.C,C21*%
X141422802Y-107695949D02*
X141215949Y-107902802D01*
X142144051Y-108417198D02*
X141937198Y-108624051D01*
%TO.C,C27*%
X145740000Y-92991232D02*
X145740000Y-93283766D01*
X146760000Y-92991232D02*
X146760000Y-93283766D01*
%TO.C,R18*%
X134254724Y-96077500D02*
X133745276Y-96077500D01*
X134254724Y-97122500D02*
X133745276Y-97122500D01*
%TO.C,C20*%
X142790000Y-104746267D02*
X142790000Y-104453733D01*
X143810000Y-104746267D02*
X143810000Y-104453733D01*
%TD*%
%LPC*%
D15*
%TO.C,J2*%
X148200000Y-111960000D03*
D16*
X148200000Y-114500000D03*
%TD*%
D17*
%TO.C,J4*%
X132560000Y-129260000D03*
D18*
X130020000Y-126720000D03*
X130020000Y-131800000D03*
X135100000Y-126720000D03*
X135100000Y-131800000D03*
%TD*%
D15*
%TO.C,J9*%
X126900000Y-106660000D03*
D16*
X126900000Y-109200000D03*
%TD*%
D15*
%TO.C,J3*%
X145225000Y-132000000D03*
D16*
X147765000Y-132000000D03*
%TD*%
D19*
%TO.C,REF\u002A\u002A*%
X149040000Y-78090000D03*
%TD*%
%TO.C,REF\u002A\u002A*%
X126130000Y-77940000D03*
%TD*%
D15*
%TO.C,J8*%
X126800000Y-96400000D03*
D16*
X126800000Y-98940000D03*
%TD*%
D15*
%TO.C,J6*%
X146800000Y-107700000D03*
D16*
X146800000Y-105160000D03*
X146800000Y-102620001D03*
X146800000Y-100080000D03*
%TD*%
D20*
%TO.C,C18*%
X141469880Y-106010120D03*
X140250120Y-107229880D03*
%TD*%
D21*
%TO.C,C16*%
X141162500Y-95600000D03*
X139437500Y-95600000D03*
%TD*%
D22*
%TO.C,C19*%
X128900000Y-116837499D03*
X128900000Y-118562501D03*
%TD*%
%TO.C,C17*%
X135900000Y-103937499D03*
X135900000Y-105662501D03*
%TD*%
D23*
%TO.C,C4*%
X138637499Y-118100000D03*
X140362501Y-118100000D03*
%TD*%
D24*
%TO.C,C7*%
X140990120Y-115809880D03*
X142209880Y-114590120D03*
%TD*%
D25*
%TO.C,C28*%
X148000000Y-94112501D03*
X148000000Y-92387499D03*
%TD*%
D22*
%TO.C,C15*%
X138700000Y-102037499D03*
X138700000Y-103762501D03*
%TD*%
D21*
%TO.C,C14*%
X140472381Y-93790120D03*
X138747379Y-93790120D03*
%TD*%
D24*
%TO.C,C21*%
X141070120Y-108769880D03*
X142289880Y-107550120D03*
%TD*%
D25*
%TO.C,C27*%
X146250000Y-94000000D03*
X146250000Y-92274998D03*
%TD*%
D26*
%TO.C,R18*%
X133087500Y-96600000D03*
X134912500Y-96600000D03*
%TD*%
D22*
%TO.C,C20*%
X143300000Y-103737499D03*
X143300000Y-105462501D03*
%TD*%
%LPD*%
M02*
