%TF.GenerationSoftware,KiCad,Pcbnew,8.0.8-2.fc41*%
%TF.CreationDate,2025-02-25T20:23:57-05:00*%
%TF.ProjectId,OS-41,4f532d34-312e-46b6-9963-61645f706362,rev?*%
%TF.SameCoordinates,Original*%
%TF.FileFunction,Legend,Top*%
%TF.FilePolarity,Positive*%
%FSLAX46Y46*%
G04 Gerber Fmt 4.6, Leading zero omitted, Abs format (unit mm)*
G04 Created by KiCad (PCBNEW 8.0.8-2.fc41) date 2025-02-25 20:23:57*
%MOMM*%
%LPD*%
G01*
G04 APERTURE LIST*
G04 Aperture macros list*
%AMRoundRect*
0 Rectangle with rounded corners*
0 $1 Rounding radius*
0 $2 $3 $4 $5 $6 $7 $8 $9 X,Y pos of 4 corners*
0 Add a 4 corners polygon primitive as box body*
4,1,4,$2,$3,$4,$5,$6,$7,$8,$9,$2,$3,0*
0 Add four circle primitives for the rounded corners*
1,1,$1+$1,$2,$3*
1,1,$1+$1,$4,$5*
1,1,$1+$1,$6,$7*
1,1,$1+$1,$8,$9*
0 Add four rect primitives between the rounded corners*
20,1,$1+$1,$2,$3,$4,$5,0*
20,1,$1+$1,$4,$5,$6,$7,0*
20,1,$1+$1,$6,$7,$8,$9,0*
20,1,$1+$1,$8,$9,$2,$3,0*%
G04 Aperture macros list end*
%ADD10C,0.100000*%
%ADD11C,0.120000*%
%ADD12C,0.250000*%
%ADD13C,0.125000*%
%ADD14C,0.200000*%
%ADD15C,0.150000*%
%ADD16C,0.300000*%
%ADD17C,0.170000*%
%ADD18RoundRect,0.237500X-0.300000X-0.237500X0.300000X-0.237500X0.300000X0.237500X-0.300000X0.237500X0*%
%ADD19RoundRect,0.237500X-0.237500X0.250000X-0.237500X-0.250000X0.237500X-0.250000X0.237500X0.250000X0*%
%ADD20RoundRect,0.237500X0.287500X0.237500X-0.287500X0.237500X-0.287500X-0.237500X0.287500X-0.237500X0*%
%ADD21RoundRect,0.237500X-0.287500X-0.237500X0.287500X-0.237500X0.287500X0.237500X-0.287500X0.237500X0*%
%ADD22RoundRect,0.250000X-0.325000X-0.450000X0.325000X-0.450000X0.325000X0.450000X-0.325000X0.450000X0*%
%ADD23R,1.000000X1.700000*%
%ADD24RoundRect,0.237500X0.237500X-0.250000X0.237500X0.250000X-0.237500X0.250000X-0.237500X-0.250000X0*%
%ADD25RoundRect,0.237500X-0.237500X0.300000X-0.237500X-0.300000X0.237500X-0.300000X0.237500X0.300000X0*%
%ADD26RoundRect,0.237500X0.300000X0.237500X-0.300000X0.237500X-0.300000X-0.237500X0.300000X-0.237500X0*%
%ADD27R,0.300000X0.300000*%
%ADD28RoundRect,0.237500X0.237500X-0.300000X0.237500X0.300000X-0.237500X0.300000X-0.237500X-0.300000X0*%
%ADD29RoundRect,0.237500X0.250000X0.237500X-0.250000X0.237500X-0.250000X-0.237500X0.250000X-0.237500X0*%
%ADD30RoundRect,0.237500X-0.250000X-0.237500X0.250000X-0.237500X0.250000X0.237500X-0.250000X0.237500X0*%
%ADD31C,2.050000*%
%ADD32C,2.250000*%
%ADD33RoundRect,0.237500X-0.237500X0.287500X-0.237500X-0.287500X0.237500X-0.287500X0.237500X0.287500X0*%
%ADD34O,0.700000X1.770000*%
%ADD35R,1.700000X1.700000*%
%ADD36O,1.700000X1.700000*%
%ADD37RoundRect,0.237500X0.380070X-0.044194X-0.044194X0.380070X-0.380070X0.044194X0.044194X-0.380070X0*%
%ADD38R,1.400000X1.200000*%
%ADD39RoundRect,0.150000X0.150000X-0.512500X0.150000X0.512500X-0.150000X0.512500X-0.150000X-0.512500X0*%
%ADD40R,3.000000X1.750000*%
%ADD41RoundRect,0.237500X-0.044194X-0.380070X0.380070X0.044194X0.044194X0.380070X-0.380070X-0.044194X0*%
%ADD42RoundRect,0.102000X-0.380000X-0.140000X0.380000X-0.140000X0.380000X0.140000X-0.380000X0.140000X0*%
%ADD43RoundRect,0.102000X-0.140000X-0.380000X0.140000X-0.380000X0.140000X0.380000X-0.140000X0.380000X0*%
%ADD44RoundRect,0.102000X-1.200000X-1.200000X1.200000X-1.200000X1.200000X1.200000X-1.200000X1.200000X0*%
%ADD45RoundRect,0.375000X-0.625000X-0.375000X0.625000X-0.375000X0.625000X0.375000X-0.625000X0.375000X0*%
%ADD46RoundRect,0.500000X-0.500000X-1.400000X0.500000X-1.400000X0.500000X1.400000X-0.500000X1.400000X0*%
%ADD47R,0.450000X1.250000*%
%ADD48O,1.300000X2.200000*%
%ADD49C,1.250000*%
%ADD50RoundRect,0.150000X0.150000X-0.650000X0.150000X0.650000X-0.150000X0.650000X-0.150000X-0.650000X0*%
%ADD51RoundRect,0.050000X-0.387500X-0.050000X0.387500X-0.050000X0.387500X0.050000X-0.387500X0.050000X0*%
%ADD52RoundRect,0.050000X-0.050000X-0.387500X0.050000X-0.387500X0.050000X0.387500X-0.050000X0.387500X0*%
%ADD53R,3.200000X3.200000*%
%ADD54R,1.750000X3.500000*%
%ADD55R,1.500000X1.050000*%
%ADD56O,1.500000X1.050000*%
%ADD57RoundRect,0.237500X-0.380070X0.044194X0.044194X-0.380070X0.380070X-0.044194X-0.044194X0.380070X0*%
G04 APERTURE END LIST*
D10*
X112350000Y-101390000D02*
X113120000Y-101390000D01*
D11*
X94066049Y-109788470D02*
X94104144Y-109712280D01*
X94104144Y-109712280D02*
X94104144Y-109597994D01*
X94104144Y-109597994D02*
X94066049Y-109483708D01*
X94066049Y-109483708D02*
X93989859Y-109407518D01*
X93989859Y-109407518D02*
X93913668Y-109369423D01*
X93913668Y-109369423D02*
X93761287Y-109331327D01*
X93761287Y-109331327D02*
X93647001Y-109331327D01*
X93647001Y-109331327D02*
X93494620Y-109369423D01*
X93494620Y-109369423D02*
X93418430Y-109407518D01*
X93418430Y-109407518D02*
X93342240Y-109483708D01*
X93342240Y-109483708D02*
X93304144Y-109597994D01*
X93304144Y-109597994D02*
X93304144Y-109674185D01*
X93304144Y-109674185D02*
X93342240Y-109788470D01*
X93342240Y-109788470D02*
X93380335Y-109826566D01*
X93380335Y-109826566D02*
X93647001Y-109826566D01*
X93647001Y-109826566D02*
X93647001Y-109674185D01*
X93304144Y-110588470D02*
X93304144Y-110131327D01*
X93304144Y-110359899D02*
X94104144Y-110359899D01*
X94104144Y-110359899D02*
X93989859Y-110283708D01*
X93989859Y-110283708D02*
X93913668Y-110207518D01*
X93913668Y-110207518D02*
X93875573Y-110131327D01*
X94104144Y-110855137D02*
X94104144Y-111350375D01*
X94104144Y-111350375D02*
X93799382Y-111083709D01*
X93799382Y-111083709D02*
X93799382Y-111197994D01*
X93799382Y-111197994D02*
X93761287Y-111274185D01*
X93761287Y-111274185D02*
X93723192Y-111312280D01*
X93723192Y-111312280D02*
X93647001Y-111350375D01*
X93647001Y-111350375D02*
X93456525Y-111350375D01*
X93456525Y-111350375D02*
X93380335Y-111312280D01*
X93380335Y-111312280D02*
X93342240Y-111274185D01*
X93342240Y-111274185D02*
X93304144Y-111197994D01*
X93304144Y-111197994D02*
X93304144Y-110969423D01*
X93304144Y-110969423D02*
X93342240Y-110893232D01*
X93342240Y-110893232D02*
X93380335Y-110855137D01*
D12*
X122062568Y-109874619D02*
X122062568Y-108874619D01*
X122062568Y-108874619D02*
X122443520Y-108874619D01*
X122443520Y-108874619D02*
X122538758Y-108922238D01*
X122538758Y-108922238D02*
X122586377Y-108969857D01*
X122586377Y-108969857D02*
X122633996Y-109065095D01*
X122633996Y-109065095D02*
X122633996Y-109207952D01*
X122633996Y-109207952D02*
X122586377Y-109303190D01*
X122586377Y-109303190D02*
X122538758Y-109350809D01*
X122538758Y-109350809D02*
X122443520Y-109398428D01*
X122443520Y-109398428D02*
X122062568Y-109398428D01*
X122967330Y-108874619D02*
X123205425Y-109874619D01*
X123205425Y-109874619D02*
X123395901Y-109160333D01*
X123395901Y-109160333D02*
X123586377Y-109874619D01*
X123586377Y-109874619D02*
X123824473Y-108874619D01*
X124776853Y-109874619D02*
X124443520Y-109398428D01*
X124205425Y-109874619D02*
X124205425Y-108874619D01*
X124205425Y-108874619D02*
X124586377Y-108874619D01*
X124586377Y-108874619D02*
X124681615Y-108922238D01*
X124681615Y-108922238D02*
X124729234Y-108969857D01*
X124729234Y-108969857D02*
X124776853Y-109065095D01*
X124776853Y-109065095D02*
X124776853Y-109207952D01*
X124776853Y-109207952D02*
X124729234Y-109303190D01*
X124729234Y-109303190D02*
X124681615Y-109350809D01*
X124681615Y-109350809D02*
X124586377Y-109398428D01*
X124586377Y-109398428D02*
X124205425Y-109398428D01*
D13*
X129239855Y-123782309D02*
X129406521Y-124282309D01*
X129406521Y-124282309D02*
X129573188Y-123782309D01*
X129811283Y-124282309D02*
X129763664Y-124258500D01*
X129763664Y-124258500D02*
X129739854Y-124234690D01*
X129739854Y-124234690D02*
X129716045Y-124187071D01*
X129716045Y-124187071D02*
X129716045Y-124044214D01*
X129716045Y-124044214D02*
X129739854Y-123996595D01*
X129739854Y-123996595D02*
X129763664Y-123972785D01*
X129763664Y-123972785D02*
X129811283Y-123948976D01*
X129811283Y-123948976D02*
X129882711Y-123948976D01*
X129882711Y-123948976D02*
X129930330Y-123972785D01*
X129930330Y-123972785D02*
X129954140Y-123996595D01*
X129954140Y-123996595D02*
X129977949Y-124044214D01*
X129977949Y-124044214D02*
X129977949Y-124187071D01*
X129977949Y-124187071D02*
X129954140Y-124234690D01*
X129954140Y-124234690D02*
X129930330Y-124258500D01*
X129930330Y-124258500D02*
X129882711Y-124282309D01*
X129882711Y-124282309D02*
X129811283Y-124282309D01*
X130406521Y-123948976D02*
X130406521Y-124282309D01*
X130192235Y-123948976D02*
X130192235Y-124210880D01*
X130192235Y-124210880D02*
X130216045Y-124258500D01*
X130216045Y-124258500D02*
X130263664Y-124282309D01*
X130263664Y-124282309D02*
X130335092Y-124282309D01*
X130335092Y-124282309D02*
X130382711Y-124258500D01*
X130382711Y-124258500D02*
X130406521Y-124234690D01*
X130573188Y-123948976D02*
X130763664Y-123948976D01*
X130644616Y-123782309D02*
X130644616Y-124210880D01*
X130644616Y-124210880D02*
X130668426Y-124258500D01*
X130668426Y-124258500D02*
X130716045Y-124282309D01*
X130716045Y-124282309D02*
X130763664Y-124282309D01*
X131073187Y-124472785D02*
X131049378Y-124448976D01*
X131049378Y-124448976D02*
X131001759Y-124377547D01*
X131001759Y-124377547D02*
X130977949Y-124329928D01*
X130977949Y-124329928D02*
X130954140Y-124258500D01*
X130954140Y-124258500D02*
X130930330Y-124139452D01*
X130930330Y-124139452D02*
X130930330Y-124044214D01*
X130930330Y-124044214D02*
X130954140Y-123925166D01*
X130954140Y-123925166D02*
X130977949Y-123853738D01*
X130977949Y-123853738D02*
X131001759Y-123806119D01*
X131001759Y-123806119D02*
X131049378Y-123734690D01*
X131049378Y-123734690D02*
X131073187Y-123710880D01*
X131216044Y-123782309D02*
X131525568Y-123782309D01*
X131525568Y-123782309D02*
X131358901Y-123972785D01*
X131358901Y-123972785D02*
X131430330Y-123972785D01*
X131430330Y-123972785D02*
X131477949Y-123996595D01*
X131477949Y-123996595D02*
X131501758Y-124020404D01*
X131501758Y-124020404D02*
X131525568Y-124068023D01*
X131525568Y-124068023D02*
X131525568Y-124187071D01*
X131525568Y-124187071D02*
X131501758Y-124234690D01*
X131501758Y-124234690D02*
X131477949Y-124258500D01*
X131477949Y-124258500D02*
X131430330Y-124282309D01*
X131430330Y-124282309D02*
X131287473Y-124282309D01*
X131287473Y-124282309D02*
X131239854Y-124258500D01*
X131239854Y-124258500D02*
X131216044Y-124234690D01*
X131739853Y-124234690D02*
X131763663Y-124258500D01*
X131763663Y-124258500D02*
X131739853Y-124282309D01*
X131739853Y-124282309D02*
X131716044Y-124258500D01*
X131716044Y-124258500D02*
X131739853Y-124234690D01*
X131739853Y-124234690D02*
X131739853Y-124282309D01*
X131930329Y-123782309D02*
X132239853Y-123782309D01*
X132239853Y-123782309D02*
X132073186Y-123972785D01*
X132073186Y-123972785D02*
X132144615Y-123972785D01*
X132144615Y-123972785D02*
X132192234Y-123996595D01*
X132192234Y-123996595D02*
X132216043Y-124020404D01*
X132216043Y-124020404D02*
X132239853Y-124068023D01*
X132239853Y-124068023D02*
X132239853Y-124187071D01*
X132239853Y-124187071D02*
X132216043Y-124234690D01*
X132216043Y-124234690D02*
X132192234Y-124258500D01*
X132192234Y-124258500D02*
X132144615Y-124282309D01*
X132144615Y-124282309D02*
X132001758Y-124282309D01*
X132001758Y-124282309D02*
X131954139Y-124258500D01*
X131954139Y-124258500D02*
X131930329Y-124234690D01*
X132406519Y-123948976D02*
X132525567Y-124282309D01*
X132525567Y-124282309D02*
X132644614Y-123948976D01*
X132787471Y-124472785D02*
X132811281Y-124448976D01*
X132811281Y-124448976D02*
X132858900Y-124377547D01*
X132858900Y-124377547D02*
X132882709Y-124329928D01*
X132882709Y-124329928D02*
X132906519Y-124258500D01*
X132906519Y-124258500D02*
X132930328Y-124139452D01*
X132930328Y-124139452D02*
X132930328Y-124044214D01*
X132930328Y-124044214D02*
X132906519Y-123925166D01*
X132906519Y-123925166D02*
X132882709Y-123853738D01*
X132882709Y-123853738D02*
X132858900Y-123806119D01*
X132858900Y-123806119D02*
X132811281Y-123734690D01*
X132811281Y-123734690D02*
X132787471Y-123710880D01*
D12*
X104353044Y-108824619D02*
X104543520Y-108824619D01*
X104543520Y-108824619D02*
X104638758Y-108872238D01*
X104638758Y-108872238D02*
X104733996Y-108967476D01*
X104733996Y-108967476D02*
X104781615Y-109157952D01*
X104781615Y-109157952D02*
X104781615Y-109491285D01*
X104781615Y-109491285D02*
X104733996Y-109681761D01*
X104733996Y-109681761D02*
X104638758Y-109777000D01*
X104638758Y-109777000D02*
X104543520Y-109824619D01*
X104543520Y-109824619D02*
X104353044Y-109824619D01*
X104353044Y-109824619D02*
X104257806Y-109777000D01*
X104257806Y-109777000D02*
X104162568Y-109681761D01*
X104162568Y-109681761D02*
X104114949Y-109491285D01*
X104114949Y-109491285D02*
X104114949Y-109157952D01*
X104114949Y-109157952D02*
X104162568Y-108967476D01*
X104162568Y-108967476D02*
X104257806Y-108872238D01*
X104257806Y-108872238D02*
X104353044Y-108824619D01*
X105210187Y-109824619D02*
X105210187Y-108824619D01*
X105781615Y-109824619D02*
X105353044Y-109253190D01*
X105781615Y-108824619D02*
X105210187Y-109396047D01*
D14*
X128112054Y-88111504D02*
X128588244Y-88111504D01*
X128016816Y-88397219D02*
X128350149Y-87397219D01*
X128350149Y-87397219D02*
X128683482Y-88397219D01*
X129016816Y-88397219D02*
X129016816Y-87397219D01*
X129016816Y-87397219D02*
X129588244Y-88397219D01*
X129588244Y-88397219D02*
X129588244Y-87397219D01*
X129921578Y-87397219D02*
X130493006Y-87397219D01*
X130207292Y-88397219D02*
X130207292Y-87397219D01*
D13*
X133782309Y-124440144D02*
X134282309Y-124273478D01*
X134282309Y-124273478D02*
X133782309Y-124106811D01*
X134282309Y-123868716D02*
X134258500Y-123916335D01*
X134258500Y-123916335D02*
X134234690Y-123940145D01*
X134234690Y-123940145D02*
X134187071Y-123963954D01*
X134187071Y-123963954D02*
X134044214Y-123963954D01*
X134044214Y-123963954D02*
X133996595Y-123940145D01*
X133996595Y-123940145D02*
X133972785Y-123916335D01*
X133972785Y-123916335D02*
X133948976Y-123868716D01*
X133948976Y-123868716D02*
X133948976Y-123797288D01*
X133948976Y-123797288D02*
X133972785Y-123749669D01*
X133972785Y-123749669D02*
X133996595Y-123725859D01*
X133996595Y-123725859D02*
X134044214Y-123702050D01*
X134044214Y-123702050D02*
X134187071Y-123702050D01*
X134187071Y-123702050D02*
X134234690Y-123725859D01*
X134234690Y-123725859D02*
X134258500Y-123749669D01*
X134258500Y-123749669D02*
X134282309Y-123797288D01*
X134282309Y-123797288D02*
X134282309Y-123868716D01*
X133948976Y-123273478D02*
X134282309Y-123273478D01*
X133948976Y-123487764D02*
X134210880Y-123487764D01*
X134210880Y-123487764D02*
X134258500Y-123463954D01*
X134258500Y-123463954D02*
X134282309Y-123416335D01*
X134282309Y-123416335D02*
X134282309Y-123344907D01*
X134282309Y-123344907D02*
X134258500Y-123297288D01*
X134258500Y-123297288D02*
X134234690Y-123273478D01*
X133948976Y-123106811D02*
X133948976Y-122916335D01*
X133782309Y-123035383D02*
X134210880Y-123035383D01*
X134210880Y-123035383D02*
X134258500Y-123011573D01*
X134258500Y-123011573D02*
X134282309Y-122963954D01*
X134282309Y-122963954D02*
X134282309Y-122916335D01*
X134472785Y-122606812D02*
X134448976Y-122630621D01*
X134448976Y-122630621D02*
X134377547Y-122678240D01*
X134377547Y-122678240D02*
X134329928Y-122702050D01*
X134329928Y-122702050D02*
X134258500Y-122725859D01*
X134258500Y-122725859D02*
X134139452Y-122749669D01*
X134139452Y-122749669D02*
X134044214Y-122749669D01*
X134044214Y-122749669D02*
X133925166Y-122725859D01*
X133925166Y-122725859D02*
X133853738Y-122702050D01*
X133853738Y-122702050D02*
X133806119Y-122678240D01*
X133806119Y-122678240D02*
X133734690Y-122630621D01*
X133734690Y-122630621D02*
X133710880Y-122606812D01*
X133782309Y-122463955D02*
X133782309Y-122154431D01*
X133782309Y-122154431D02*
X133972785Y-122321098D01*
X133972785Y-122321098D02*
X133972785Y-122249669D01*
X133972785Y-122249669D02*
X133996595Y-122202050D01*
X133996595Y-122202050D02*
X134020404Y-122178241D01*
X134020404Y-122178241D02*
X134068023Y-122154431D01*
X134068023Y-122154431D02*
X134187071Y-122154431D01*
X134187071Y-122154431D02*
X134234690Y-122178241D01*
X134234690Y-122178241D02*
X134258500Y-122202050D01*
X134258500Y-122202050D02*
X134282309Y-122249669D01*
X134282309Y-122249669D02*
X134282309Y-122392526D01*
X134282309Y-122392526D02*
X134258500Y-122440145D01*
X134258500Y-122440145D02*
X134234690Y-122463955D01*
X134234690Y-121940146D02*
X134258500Y-121916336D01*
X134258500Y-121916336D02*
X134282309Y-121940146D01*
X134282309Y-121940146D02*
X134258500Y-121963955D01*
X134258500Y-121963955D02*
X134234690Y-121940146D01*
X134234690Y-121940146D02*
X134282309Y-121940146D01*
X133782309Y-121749670D02*
X133782309Y-121440146D01*
X133782309Y-121440146D02*
X133972785Y-121606813D01*
X133972785Y-121606813D02*
X133972785Y-121535384D01*
X133972785Y-121535384D02*
X133996595Y-121487765D01*
X133996595Y-121487765D02*
X134020404Y-121463956D01*
X134020404Y-121463956D02*
X134068023Y-121440146D01*
X134068023Y-121440146D02*
X134187071Y-121440146D01*
X134187071Y-121440146D02*
X134234690Y-121463956D01*
X134234690Y-121463956D02*
X134258500Y-121487765D01*
X134258500Y-121487765D02*
X134282309Y-121535384D01*
X134282309Y-121535384D02*
X134282309Y-121678241D01*
X134282309Y-121678241D02*
X134258500Y-121725860D01*
X134258500Y-121725860D02*
X134234690Y-121749670D01*
X133948976Y-121273480D02*
X134282309Y-121154432D01*
X134282309Y-121154432D02*
X133948976Y-121035385D01*
X134472785Y-120892528D02*
X134448976Y-120868718D01*
X134448976Y-120868718D02*
X134377547Y-120821099D01*
X134377547Y-120821099D02*
X134329928Y-120797290D01*
X134329928Y-120797290D02*
X134258500Y-120773480D01*
X134258500Y-120773480D02*
X134139452Y-120749671D01*
X134139452Y-120749671D02*
X134044214Y-120749671D01*
X134044214Y-120749671D02*
X133925166Y-120773480D01*
X133925166Y-120773480D02*
X133853738Y-120797290D01*
X133853738Y-120797290D02*
X133806119Y-120821099D01*
X133806119Y-120821099D02*
X133734690Y-120868718D01*
X133734690Y-120868718D02*
X133710880Y-120892528D01*
D10*
X95275312Y-95034990D02*
X95199122Y-94996895D01*
X95199122Y-94996895D02*
X95084836Y-94996895D01*
X95084836Y-94996895D02*
X94970550Y-95034990D01*
X94970550Y-95034990D02*
X94894360Y-95111180D01*
X94894360Y-95111180D02*
X94856265Y-95187371D01*
X94856265Y-95187371D02*
X94818169Y-95339752D01*
X94818169Y-95339752D02*
X94818169Y-95454038D01*
X94818169Y-95454038D02*
X94856265Y-95606419D01*
X94856265Y-95606419D02*
X94894360Y-95682609D01*
X94894360Y-95682609D02*
X94970550Y-95758800D01*
X94970550Y-95758800D02*
X95084836Y-95796895D01*
X95084836Y-95796895D02*
X95161027Y-95796895D01*
X95161027Y-95796895D02*
X95275312Y-95758800D01*
X95275312Y-95758800D02*
X95313408Y-95720704D01*
X95313408Y-95720704D02*
X95313408Y-95454038D01*
X95313408Y-95454038D02*
X95161027Y-95454038D01*
X95656265Y-95796895D02*
X95656265Y-94996895D01*
X95656265Y-94996895D02*
X95961027Y-94996895D01*
X95961027Y-94996895D02*
X96037217Y-95034990D01*
X96037217Y-95034990D02*
X96075312Y-95073085D01*
X96075312Y-95073085D02*
X96113408Y-95149276D01*
X96113408Y-95149276D02*
X96113408Y-95263561D01*
X96113408Y-95263561D02*
X96075312Y-95339752D01*
X96075312Y-95339752D02*
X96037217Y-95377847D01*
X96037217Y-95377847D02*
X95961027Y-95415942D01*
X95961027Y-95415942D02*
X95656265Y-95415942D01*
X96456265Y-95796895D02*
X96456265Y-94996895D01*
X96989598Y-94996895D02*
X97141979Y-94996895D01*
X97141979Y-94996895D02*
X97218169Y-95034990D01*
X97218169Y-95034990D02*
X97294360Y-95111180D01*
X97294360Y-95111180D02*
X97332455Y-95263561D01*
X97332455Y-95263561D02*
X97332455Y-95530228D01*
X97332455Y-95530228D02*
X97294360Y-95682609D01*
X97294360Y-95682609D02*
X97218169Y-95758800D01*
X97218169Y-95758800D02*
X97141979Y-95796895D01*
X97141979Y-95796895D02*
X96989598Y-95796895D01*
X96989598Y-95796895D02*
X96913407Y-95758800D01*
X96913407Y-95758800D02*
X96837217Y-95682609D01*
X96837217Y-95682609D02*
X96799121Y-95530228D01*
X96799121Y-95530228D02*
X96799121Y-95263561D01*
X96799121Y-95263561D02*
X96837217Y-95111180D01*
X96837217Y-95111180D02*
X96913407Y-95034990D01*
X96913407Y-95034990D02*
X96989598Y-94996895D01*
D11*
X94066049Y-112388470D02*
X94104144Y-112312280D01*
X94104144Y-112312280D02*
X94104144Y-112197994D01*
X94104144Y-112197994D02*
X94066049Y-112083708D01*
X94066049Y-112083708D02*
X93989859Y-112007518D01*
X93989859Y-112007518D02*
X93913668Y-111969423D01*
X93913668Y-111969423D02*
X93761287Y-111931327D01*
X93761287Y-111931327D02*
X93647001Y-111931327D01*
X93647001Y-111931327D02*
X93494620Y-111969423D01*
X93494620Y-111969423D02*
X93418430Y-112007518D01*
X93418430Y-112007518D02*
X93342240Y-112083708D01*
X93342240Y-112083708D02*
X93304144Y-112197994D01*
X93304144Y-112197994D02*
X93304144Y-112274185D01*
X93304144Y-112274185D02*
X93342240Y-112388470D01*
X93342240Y-112388470D02*
X93380335Y-112426566D01*
X93380335Y-112426566D02*
X93647001Y-112426566D01*
X93647001Y-112426566D02*
X93647001Y-112274185D01*
X93304144Y-113188470D02*
X93304144Y-112731327D01*
X93304144Y-112959899D02*
X94104144Y-112959899D01*
X94104144Y-112959899D02*
X93989859Y-112883708D01*
X93989859Y-112883708D02*
X93913668Y-112807518D01*
X93913668Y-112807518D02*
X93875573Y-112731327D01*
X93837478Y-113874185D02*
X93304144Y-113874185D01*
X94142240Y-113683709D02*
X93570811Y-113493232D01*
X93570811Y-113493232D02*
X93570811Y-113988471D01*
D10*
X105320550Y-110954895D02*
X105282455Y-110935847D01*
X105282455Y-110935847D02*
X105225312Y-110935847D01*
X105225312Y-110935847D02*
X105168169Y-110954895D01*
X105168169Y-110954895D02*
X105130074Y-110992990D01*
X105130074Y-110992990D02*
X105111027Y-111031085D01*
X105111027Y-111031085D02*
X105091979Y-111107276D01*
X105091979Y-111107276D02*
X105091979Y-111164419D01*
X105091979Y-111164419D02*
X105111027Y-111240609D01*
X105111027Y-111240609D02*
X105130074Y-111278704D01*
X105130074Y-111278704D02*
X105168169Y-111316800D01*
X105168169Y-111316800D02*
X105225312Y-111335847D01*
X105225312Y-111335847D02*
X105263408Y-111335847D01*
X105263408Y-111335847D02*
X105320550Y-111316800D01*
X105320550Y-111316800D02*
X105339598Y-111297752D01*
X105339598Y-111297752D02*
X105339598Y-111164419D01*
X105339598Y-111164419D02*
X105263408Y-111164419D01*
D11*
X94066049Y-104588470D02*
X94104144Y-104512280D01*
X94104144Y-104512280D02*
X94104144Y-104397994D01*
X94104144Y-104397994D02*
X94066049Y-104283708D01*
X94066049Y-104283708D02*
X93989859Y-104207518D01*
X93989859Y-104207518D02*
X93913668Y-104169423D01*
X93913668Y-104169423D02*
X93761287Y-104131327D01*
X93761287Y-104131327D02*
X93647001Y-104131327D01*
X93647001Y-104131327D02*
X93494620Y-104169423D01*
X93494620Y-104169423D02*
X93418430Y-104207518D01*
X93418430Y-104207518D02*
X93342240Y-104283708D01*
X93342240Y-104283708D02*
X93304144Y-104397994D01*
X93304144Y-104397994D02*
X93304144Y-104474185D01*
X93304144Y-104474185D02*
X93342240Y-104588470D01*
X93342240Y-104588470D02*
X93380335Y-104626566D01*
X93380335Y-104626566D02*
X93647001Y-104626566D01*
X93647001Y-104626566D02*
X93647001Y-104474185D01*
X93304144Y-105388470D02*
X93304144Y-104931327D01*
X93304144Y-105159899D02*
X94104144Y-105159899D01*
X94104144Y-105159899D02*
X93989859Y-105083708D01*
X93989859Y-105083708D02*
X93913668Y-105007518D01*
X93913668Y-105007518D02*
X93875573Y-104931327D01*
X93304144Y-106150375D02*
X93304144Y-105693232D01*
X93304144Y-105921804D02*
X94104144Y-105921804D01*
X94104144Y-105921804D02*
X93989859Y-105845613D01*
X93989859Y-105845613D02*
X93913668Y-105769423D01*
X93913668Y-105769423D02*
X93875573Y-105693232D01*
X94104144Y-99055137D02*
X93304144Y-99321804D01*
X93304144Y-99321804D02*
X94104144Y-99588470D01*
X93380335Y-100312280D02*
X93342240Y-100274184D01*
X93342240Y-100274184D02*
X93304144Y-100159899D01*
X93304144Y-100159899D02*
X93304144Y-100083708D01*
X93304144Y-100083708D02*
X93342240Y-99969422D01*
X93342240Y-99969422D02*
X93418430Y-99893232D01*
X93418430Y-99893232D02*
X93494620Y-99855137D01*
X93494620Y-99855137D02*
X93647001Y-99817041D01*
X93647001Y-99817041D02*
X93761287Y-99817041D01*
X93761287Y-99817041D02*
X93913668Y-99855137D01*
X93913668Y-99855137D02*
X93989859Y-99893232D01*
X93989859Y-99893232D02*
X94066049Y-99969422D01*
X94066049Y-99969422D02*
X94104144Y-100083708D01*
X94104144Y-100083708D02*
X94104144Y-100159899D01*
X94104144Y-100159899D02*
X94066049Y-100274184D01*
X94066049Y-100274184D02*
X94027954Y-100312280D01*
X93380335Y-101112280D02*
X93342240Y-101074184D01*
X93342240Y-101074184D02*
X93304144Y-100959899D01*
X93304144Y-100959899D02*
X93304144Y-100883708D01*
X93304144Y-100883708D02*
X93342240Y-100769422D01*
X93342240Y-100769422D02*
X93418430Y-100693232D01*
X93418430Y-100693232D02*
X93494620Y-100655137D01*
X93494620Y-100655137D02*
X93647001Y-100617041D01*
X93647001Y-100617041D02*
X93761287Y-100617041D01*
X93761287Y-100617041D02*
X93913668Y-100655137D01*
X93913668Y-100655137D02*
X93989859Y-100693232D01*
X93989859Y-100693232D02*
X94066049Y-100769422D01*
X94066049Y-100769422D02*
X94104144Y-100883708D01*
X94104144Y-100883708D02*
X94104144Y-100959899D01*
X94104144Y-100959899D02*
X94066049Y-101074184D01*
X94066049Y-101074184D02*
X94027954Y-101112280D01*
D10*
X105299598Y-113445847D02*
X105166265Y-113255371D01*
X105071027Y-113445847D02*
X105071027Y-113045847D01*
X105071027Y-113045847D02*
X105223408Y-113045847D01*
X105223408Y-113045847D02*
X105261503Y-113064895D01*
X105261503Y-113064895D02*
X105280550Y-113083942D01*
X105280550Y-113083942D02*
X105299598Y-113122038D01*
X105299598Y-113122038D02*
X105299598Y-113179180D01*
X105299598Y-113179180D02*
X105280550Y-113217276D01*
X105280550Y-113217276D02*
X105261503Y-113236323D01*
X105261503Y-113236323D02*
X105223408Y-113255371D01*
X105223408Y-113255371D02*
X105071027Y-113255371D01*
D11*
X94066049Y-96988470D02*
X94104144Y-96912280D01*
X94104144Y-96912280D02*
X94104144Y-96797994D01*
X94104144Y-96797994D02*
X94066049Y-96683708D01*
X94066049Y-96683708D02*
X93989859Y-96607518D01*
X93989859Y-96607518D02*
X93913668Y-96569423D01*
X93913668Y-96569423D02*
X93761287Y-96531327D01*
X93761287Y-96531327D02*
X93647001Y-96531327D01*
X93647001Y-96531327D02*
X93494620Y-96569423D01*
X93494620Y-96569423D02*
X93418430Y-96607518D01*
X93418430Y-96607518D02*
X93342240Y-96683708D01*
X93342240Y-96683708D02*
X93304144Y-96797994D01*
X93304144Y-96797994D02*
X93304144Y-96874185D01*
X93304144Y-96874185D02*
X93342240Y-96988470D01*
X93342240Y-96988470D02*
X93380335Y-97026566D01*
X93380335Y-97026566D02*
X93647001Y-97026566D01*
X93647001Y-97026566D02*
X93647001Y-96874185D01*
X93304144Y-97369423D02*
X94104144Y-97369423D01*
X94104144Y-97369423D02*
X93304144Y-97826566D01*
X93304144Y-97826566D02*
X94104144Y-97826566D01*
X93304144Y-98207518D02*
X94104144Y-98207518D01*
X94104144Y-98207518D02*
X94104144Y-98397994D01*
X94104144Y-98397994D02*
X94066049Y-98512280D01*
X94066049Y-98512280D02*
X93989859Y-98588470D01*
X93989859Y-98588470D02*
X93913668Y-98626565D01*
X93913668Y-98626565D02*
X93761287Y-98664661D01*
X93761287Y-98664661D02*
X93647001Y-98664661D01*
X93647001Y-98664661D02*
X93494620Y-98626565D01*
X93494620Y-98626565D02*
X93418430Y-98588470D01*
X93418430Y-98588470D02*
X93342240Y-98512280D01*
X93342240Y-98512280D02*
X93304144Y-98397994D01*
X93304144Y-98397994D02*
X93304144Y-98207518D01*
D12*
X103823996Y-118414619D02*
X103490663Y-117938428D01*
X103252568Y-118414619D02*
X103252568Y-117414619D01*
X103252568Y-117414619D02*
X103633520Y-117414619D01*
X103633520Y-117414619D02*
X103728758Y-117462238D01*
X103728758Y-117462238D02*
X103776377Y-117509857D01*
X103776377Y-117509857D02*
X103823996Y-117605095D01*
X103823996Y-117605095D02*
X103823996Y-117747952D01*
X103823996Y-117747952D02*
X103776377Y-117843190D01*
X103776377Y-117843190D02*
X103728758Y-117890809D01*
X103728758Y-117890809D02*
X103633520Y-117938428D01*
X103633520Y-117938428D02*
X103252568Y-117938428D01*
X104252568Y-117890809D02*
X104585901Y-117890809D01*
X104728758Y-118414619D02*
X104252568Y-118414619D01*
X104252568Y-118414619D02*
X104252568Y-117414619D01*
X104252568Y-117414619D02*
X104728758Y-117414619D01*
X105109711Y-118367000D02*
X105252568Y-118414619D01*
X105252568Y-118414619D02*
X105490663Y-118414619D01*
X105490663Y-118414619D02*
X105585901Y-118367000D01*
X105585901Y-118367000D02*
X105633520Y-118319380D01*
X105633520Y-118319380D02*
X105681139Y-118224142D01*
X105681139Y-118224142D02*
X105681139Y-118128904D01*
X105681139Y-118128904D02*
X105633520Y-118033666D01*
X105633520Y-118033666D02*
X105585901Y-117986047D01*
X105585901Y-117986047D02*
X105490663Y-117938428D01*
X105490663Y-117938428D02*
X105300187Y-117890809D01*
X105300187Y-117890809D02*
X105204949Y-117843190D01*
X105204949Y-117843190D02*
X105157330Y-117795571D01*
X105157330Y-117795571D02*
X105109711Y-117700333D01*
X105109711Y-117700333D02*
X105109711Y-117605095D01*
X105109711Y-117605095D02*
X105157330Y-117509857D01*
X105157330Y-117509857D02*
X105204949Y-117462238D01*
X105204949Y-117462238D02*
X105300187Y-117414619D01*
X105300187Y-117414619D02*
X105538282Y-117414619D01*
X105538282Y-117414619D02*
X105681139Y-117462238D01*
X106109711Y-117890809D02*
X106443044Y-117890809D01*
X106585901Y-118414619D02*
X106109711Y-118414619D01*
X106109711Y-118414619D02*
X106109711Y-117414619D01*
X106109711Y-117414619D02*
X106585901Y-117414619D01*
X106871616Y-117414619D02*
X107443044Y-117414619D01*
X107157330Y-118414619D02*
X107157330Y-117414619D01*
D11*
X94066049Y-114888470D02*
X94104144Y-114812280D01*
X94104144Y-114812280D02*
X94104144Y-114697994D01*
X94104144Y-114697994D02*
X94066049Y-114583708D01*
X94066049Y-114583708D02*
X93989859Y-114507518D01*
X93989859Y-114507518D02*
X93913668Y-114469423D01*
X93913668Y-114469423D02*
X93761287Y-114431327D01*
X93761287Y-114431327D02*
X93647001Y-114431327D01*
X93647001Y-114431327D02*
X93494620Y-114469423D01*
X93494620Y-114469423D02*
X93418430Y-114507518D01*
X93418430Y-114507518D02*
X93342240Y-114583708D01*
X93342240Y-114583708D02*
X93304144Y-114697994D01*
X93304144Y-114697994D02*
X93304144Y-114774185D01*
X93304144Y-114774185D02*
X93342240Y-114888470D01*
X93342240Y-114888470D02*
X93380335Y-114926566D01*
X93380335Y-114926566D02*
X93647001Y-114926566D01*
X93647001Y-114926566D02*
X93647001Y-114774185D01*
X93304144Y-115688470D02*
X93304144Y-115231327D01*
X93304144Y-115459899D02*
X94104144Y-115459899D01*
X94104144Y-115459899D02*
X93989859Y-115383708D01*
X93989859Y-115383708D02*
X93913668Y-115307518D01*
X93913668Y-115307518D02*
X93875573Y-115231327D01*
X94104144Y-116412280D02*
X94104144Y-116031328D01*
X94104144Y-116031328D02*
X93723192Y-115993232D01*
X93723192Y-115993232D02*
X93761287Y-116031328D01*
X93761287Y-116031328D02*
X93799382Y-116107518D01*
X93799382Y-116107518D02*
X93799382Y-116297994D01*
X93799382Y-116297994D02*
X93761287Y-116374185D01*
X93761287Y-116374185D02*
X93723192Y-116412280D01*
X93723192Y-116412280D02*
X93647001Y-116450375D01*
X93647001Y-116450375D02*
X93456525Y-116450375D01*
X93456525Y-116450375D02*
X93380335Y-116412280D01*
X93380335Y-116412280D02*
X93342240Y-116374185D01*
X93342240Y-116374185D02*
X93304144Y-116297994D01*
X93304144Y-116297994D02*
X93304144Y-116107518D01*
X93304144Y-116107518D02*
X93342240Y-116031328D01*
X93342240Y-116031328D02*
X93380335Y-115993232D01*
X94066049Y-107088470D02*
X94104144Y-107012280D01*
X94104144Y-107012280D02*
X94104144Y-106897994D01*
X94104144Y-106897994D02*
X94066049Y-106783708D01*
X94066049Y-106783708D02*
X93989859Y-106707518D01*
X93989859Y-106707518D02*
X93913668Y-106669423D01*
X93913668Y-106669423D02*
X93761287Y-106631327D01*
X93761287Y-106631327D02*
X93647001Y-106631327D01*
X93647001Y-106631327D02*
X93494620Y-106669423D01*
X93494620Y-106669423D02*
X93418430Y-106707518D01*
X93418430Y-106707518D02*
X93342240Y-106783708D01*
X93342240Y-106783708D02*
X93304144Y-106897994D01*
X93304144Y-106897994D02*
X93304144Y-106974185D01*
X93304144Y-106974185D02*
X93342240Y-107088470D01*
X93342240Y-107088470D02*
X93380335Y-107126566D01*
X93380335Y-107126566D02*
X93647001Y-107126566D01*
X93647001Y-107126566D02*
X93647001Y-106974185D01*
X93304144Y-107888470D02*
X93304144Y-107431327D01*
X93304144Y-107659899D02*
X94104144Y-107659899D01*
X94104144Y-107659899D02*
X93989859Y-107583708D01*
X93989859Y-107583708D02*
X93913668Y-107507518D01*
X93913668Y-107507518D02*
X93875573Y-107431327D01*
X94027954Y-108193232D02*
X94066049Y-108231328D01*
X94066049Y-108231328D02*
X94104144Y-108307518D01*
X94104144Y-108307518D02*
X94104144Y-108497994D01*
X94104144Y-108497994D02*
X94066049Y-108574185D01*
X94066049Y-108574185D02*
X94027954Y-108612280D01*
X94027954Y-108612280D02*
X93951763Y-108650375D01*
X93951763Y-108650375D02*
X93875573Y-108650375D01*
X93875573Y-108650375D02*
X93761287Y-108612280D01*
X93761287Y-108612280D02*
X93304144Y-108155137D01*
X93304144Y-108155137D02*
X93304144Y-108650375D01*
X94066049Y-102088470D02*
X94104144Y-102012280D01*
X94104144Y-102012280D02*
X94104144Y-101897994D01*
X94104144Y-101897994D02*
X94066049Y-101783708D01*
X94066049Y-101783708D02*
X93989859Y-101707518D01*
X93989859Y-101707518D02*
X93913668Y-101669423D01*
X93913668Y-101669423D02*
X93761287Y-101631327D01*
X93761287Y-101631327D02*
X93647001Y-101631327D01*
X93647001Y-101631327D02*
X93494620Y-101669423D01*
X93494620Y-101669423D02*
X93418430Y-101707518D01*
X93418430Y-101707518D02*
X93342240Y-101783708D01*
X93342240Y-101783708D02*
X93304144Y-101897994D01*
X93304144Y-101897994D02*
X93304144Y-101974185D01*
X93304144Y-101974185D02*
X93342240Y-102088470D01*
X93342240Y-102088470D02*
X93380335Y-102126566D01*
X93380335Y-102126566D02*
X93647001Y-102126566D01*
X93647001Y-102126566D02*
X93647001Y-101974185D01*
X93304144Y-102888470D02*
X93304144Y-102431327D01*
X93304144Y-102659899D02*
X94104144Y-102659899D01*
X94104144Y-102659899D02*
X93989859Y-102583708D01*
X93989859Y-102583708D02*
X93913668Y-102507518D01*
X93913668Y-102507518D02*
X93875573Y-102431327D01*
X94104144Y-103383709D02*
X94104144Y-103459899D01*
X94104144Y-103459899D02*
X94066049Y-103536090D01*
X94066049Y-103536090D02*
X94027954Y-103574185D01*
X94027954Y-103574185D02*
X93951763Y-103612280D01*
X93951763Y-103612280D02*
X93799382Y-103650375D01*
X93799382Y-103650375D02*
X93608906Y-103650375D01*
X93608906Y-103650375D02*
X93456525Y-103612280D01*
X93456525Y-103612280D02*
X93380335Y-103574185D01*
X93380335Y-103574185D02*
X93342240Y-103536090D01*
X93342240Y-103536090D02*
X93304144Y-103459899D01*
X93304144Y-103459899D02*
X93304144Y-103383709D01*
X93304144Y-103383709D02*
X93342240Y-103307518D01*
X93342240Y-103307518D02*
X93380335Y-103269423D01*
X93380335Y-103269423D02*
X93456525Y-103231328D01*
X93456525Y-103231328D02*
X93608906Y-103193232D01*
X93608906Y-103193232D02*
X93799382Y-103193232D01*
X93799382Y-103193232D02*
X93951763Y-103231328D01*
X93951763Y-103231328D02*
X94027954Y-103269423D01*
X94027954Y-103269423D02*
X94066049Y-103307518D01*
X94066049Y-103307518D02*
X94104144Y-103383709D01*
D12*
X126740809Y-116584098D02*
X126788428Y-116441241D01*
X126788428Y-116441241D02*
X126836047Y-116393622D01*
X126836047Y-116393622D02*
X126931285Y-116346003D01*
X126931285Y-116346003D02*
X127074142Y-116346003D01*
X127074142Y-116346003D02*
X127169380Y-116393622D01*
X127169380Y-116393622D02*
X127217000Y-116441241D01*
X127217000Y-116441241D02*
X127264619Y-116536479D01*
X127264619Y-116536479D02*
X127264619Y-116917431D01*
X127264619Y-116917431D02*
X126264619Y-116917431D01*
X126264619Y-116917431D02*
X126264619Y-116584098D01*
X126264619Y-116584098D02*
X126312238Y-116488860D01*
X126312238Y-116488860D02*
X126359857Y-116441241D01*
X126359857Y-116441241D02*
X126455095Y-116393622D01*
X126455095Y-116393622D02*
X126550333Y-116393622D01*
X126550333Y-116393622D02*
X126645571Y-116441241D01*
X126645571Y-116441241D02*
X126693190Y-116488860D01*
X126693190Y-116488860D02*
X126740809Y-116584098D01*
X126740809Y-116584098D02*
X126740809Y-116917431D01*
X126264619Y-115726955D02*
X126264619Y-115536479D01*
X126264619Y-115536479D02*
X126312238Y-115441241D01*
X126312238Y-115441241D02*
X126407476Y-115346003D01*
X126407476Y-115346003D02*
X126597952Y-115298384D01*
X126597952Y-115298384D02*
X126931285Y-115298384D01*
X126931285Y-115298384D02*
X127121761Y-115346003D01*
X127121761Y-115346003D02*
X127217000Y-115441241D01*
X127217000Y-115441241D02*
X127264619Y-115536479D01*
X127264619Y-115536479D02*
X127264619Y-115726955D01*
X127264619Y-115726955D02*
X127217000Y-115822193D01*
X127217000Y-115822193D02*
X127121761Y-115917431D01*
X127121761Y-115917431D02*
X126931285Y-115965050D01*
X126931285Y-115965050D02*
X126597952Y-115965050D01*
X126597952Y-115965050D02*
X126407476Y-115917431D01*
X126407476Y-115917431D02*
X126312238Y-115822193D01*
X126312238Y-115822193D02*
X126264619Y-115726955D01*
X126264619Y-114679336D02*
X126264619Y-114488860D01*
X126264619Y-114488860D02*
X126312238Y-114393622D01*
X126312238Y-114393622D02*
X126407476Y-114298384D01*
X126407476Y-114298384D02*
X126597952Y-114250765D01*
X126597952Y-114250765D02*
X126931285Y-114250765D01*
X126931285Y-114250765D02*
X127121761Y-114298384D01*
X127121761Y-114298384D02*
X127217000Y-114393622D01*
X127217000Y-114393622D02*
X127264619Y-114488860D01*
X127264619Y-114488860D02*
X127264619Y-114679336D01*
X127264619Y-114679336D02*
X127217000Y-114774574D01*
X127217000Y-114774574D02*
X127121761Y-114869812D01*
X127121761Y-114869812D02*
X126931285Y-114917431D01*
X126931285Y-114917431D02*
X126597952Y-114917431D01*
X126597952Y-114917431D02*
X126407476Y-114869812D01*
X126407476Y-114869812D02*
X126312238Y-114774574D01*
X126312238Y-114774574D02*
X126264619Y-114679336D01*
X126264619Y-113965050D02*
X126264619Y-113393622D01*
X127264619Y-113679336D02*
X126264619Y-113679336D01*
D13*
X133732309Y-118570144D02*
X134232309Y-118403478D01*
X134232309Y-118403478D02*
X133732309Y-118236811D01*
X134232309Y-118070145D02*
X133898976Y-118070145D01*
X133732309Y-118070145D02*
X133756119Y-118093954D01*
X133756119Y-118093954D02*
X133779928Y-118070145D01*
X133779928Y-118070145D02*
X133756119Y-118046335D01*
X133756119Y-118046335D02*
X133732309Y-118070145D01*
X133732309Y-118070145D02*
X133779928Y-118070145D01*
X133898976Y-117832050D02*
X134232309Y-117832050D01*
X133946595Y-117832050D02*
X133922785Y-117808240D01*
X133922785Y-117808240D02*
X133898976Y-117760621D01*
X133898976Y-117760621D02*
X133898976Y-117689193D01*
X133898976Y-117689193D02*
X133922785Y-117641574D01*
X133922785Y-117641574D02*
X133970404Y-117617764D01*
X133970404Y-117617764D02*
X134232309Y-117617764D01*
X134422785Y-117236812D02*
X134398976Y-117260621D01*
X134398976Y-117260621D02*
X134327547Y-117308240D01*
X134327547Y-117308240D02*
X134279928Y-117332050D01*
X134279928Y-117332050D02*
X134208500Y-117355859D01*
X134208500Y-117355859D02*
X134089452Y-117379669D01*
X134089452Y-117379669D02*
X133994214Y-117379669D01*
X133994214Y-117379669D02*
X133875166Y-117355859D01*
X133875166Y-117355859D02*
X133803738Y-117332050D01*
X133803738Y-117332050D02*
X133756119Y-117308240D01*
X133756119Y-117308240D02*
X133684690Y-117260621D01*
X133684690Y-117260621D02*
X133660880Y-117236812D01*
X134232309Y-116784431D02*
X134232309Y-117070145D01*
X134232309Y-116927288D02*
X133732309Y-116927288D01*
X133732309Y-116927288D02*
X133803738Y-116974907D01*
X133803738Y-116974907D02*
X133851357Y-117022526D01*
X133851357Y-117022526D02*
X133875166Y-117070145D01*
X134184690Y-116570146D02*
X134208500Y-116546336D01*
X134208500Y-116546336D02*
X134232309Y-116570146D01*
X134232309Y-116570146D02*
X134208500Y-116593955D01*
X134208500Y-116593955D02*
X134184690Y-116570146D01*
X134184690Y-116570146D02*
X134232309Y-116570146D01*
X133732309Y-116093956D02*
X133732309Y-116332051D01*
X133732309Y-116332051D02*
X133970404Y-116355860D01*
X133970404Y-116355860D02*
X133946595Y-116332051D01*
X133946595Y-116332051D02*
X133922785Y-116284432D01*
X133922785Y-116284432D02*
X133922785Y-116165384D01*
X133922785Y-116165384D02*
X133946595Y-116117765D01*
X133946595Y-116117765D02*
X133970404Y-116093956D01*
X133970404Y-116093956D02*
X134018023Y-116070146D01*
X134018023Y-116070146D02*
X134137071Y-116070146D01*
X134137071Y-116070146D02*
X134184690Y-116093956D01*
X134184690Y-116093956D02*
X134208500Y-116117765D01*
X134208500Y-116117765D02*
X134232309Y-116165384D01*
X134232309Y-116165384D02*
X134232309Y-116284432D01*
X134232309Y-116284432D02*
X134208500Y-116332051D01*
X134208500Y-116332051D02*
X134184690Y-116355860D01*
X134041833Y-115855861D02*
X134041833Y-115474909D01*
X133732309Y-115284432D02*
X133732309Y-114974908D01*
X133732309Y-114974908D02*
X133922785Y-115141575D01*
X133922785Y-115141575D02*
X133922785Y-115070146D01*
X133922785Y-115070146D02*
X133946595Y-115022527D01*
X133946595Y-115022527D02*
X133970404Y-114998718D01*
X133970404Y-114998718D02*
X134018023Y-114974908D01*
X134018023Y-114974908D02*
X134137071Y-114974908D01*
X134137071Y-114974908D02*
X134184690Y-114998718D01*
X134184690Y-114998718D02*
X134208500Y-115022527D01*
X134208500Y-115022527D02*
X134232309Y-115070146D01*
X134232309Y-115070146D02*
X134232309Y-115213003D01*
X134232309Y-115213003D02*
X134208500Y-115260622D01*
X134208500Y-115260622D02*
X134184690Y-115284432D01*
X134184690Y-114760623D02*
X134208500Y-114736813D01*
X134208500Y-114736813D02*
X134232309Y-114760623D01*
X134232309Y-114760623D02*
X134208500Y-114784432D01*
X134208500Y-114784432D02*
X134184690Y-114760623D01*
X134184690Y-114760623D02*
X134232309Y-114760623D01*
X133732309Y-114570147D02*
X133732309Y-114260623D01*
X133732309Y-114260623D02*
X133922785Y-114427290D01*
X133922785Y-114427290D02*
X133922785Y-114355861D01*
X133922785Y-114355861D02*
X133946595Y-114308242D01*
X133946595Y-114308242D02*
X133970404Y-114284433D01*
X133970404Y-114284433D02*
X134018023Y-114260623D01*
X134018023Y-114260623D02*
X134137071Y-114260623D01*
X134137071Y-114260623D02*
X134184690Y-114284433D01*
X134184690Y-114284433D02*
X134208500Y-114308242D01*
X134208500Y-114308242D02*
X134232309Y-114355861D01*
X134232309Y-114355861D02*
X134232309Y-114498718D01*
X134232309Y-114498718D02*
X134208500Y-114546337D01*
X134208500Y-114546337D02*
X134184690Y-114570147D01*
X133898976Y-114093957D02*
X134232309Y-113974909D01*
X134232309Y-113974909D02*
X133898976Y-113855862D01*
X134422785Y-113713005D02*
X134398976Y-113689195D01*
X134398976Y-113689195D02*
X134327547Y-113641576D01*
X134327547Y-113641576D02*
X134279928Y-113617767D01*
X134279928Y-113617767D02*
X134208500Y-113593957D01*
X134208500Y-113593957D02*
X134089452Y-113570148D01*
X134089452Y-113570148D02*
X133994214Y-113570148D01*
X133994214Y-113570148D02*
X133875166Y-113593957D01*
X133875166Y-113593957D02*
X133803738Y-113617767D01*
X133803738Y-113617767D02*
X133756119Y-113641576D01*
X133756119Y-113641576D02*
X133684690Y-113689195D01*
X133684690Y-113689195D02*
X133660880Y-113713005D01*
D11*
X94066049Y-117288470D02*
X94104144Y-117212280D01*
X94104144Y-117212280D02*
X94104144Y-117097994D01*
X94104144Y-117097994D02*
X94066049Y-116983708D01*
X94066049Y-116983708D02*
X93989859Y-116907518D01*
X93989859Y-116907518D02*
X93913668Y-116869423D01*
X93913668Y-116869423D02*
X93761287Y-116831327D01*
X93761287Y-116831327D02*
X93647001Y-116831327D01*
X93647001Y-116831327D02*
X93494620Y-116869423D01*
X93494620Y-116869423D02*
X93418430Y-116907518D01*
X93418430Y-116907518D02*
X93342240Y-116983708D01*
X93342240Y-116983708D02*
X93304144Y-117097994D01*
X93304144Y-117097994D02*
X93304144Y-117174185D01*
X93304144Y-117174185D02*
X93342240Y-117288470D01*
X93342240Y-117288470D02*
X93380335Y-117326566D01*
X93380335Y-117326566D02*
X93647001Y-117326566D01*
X93647001Y-117326566D02*
X93647001Y-117174185D01*
X94027954Y-117631327D02*
X94066049Y-117669423D01*
X94066049Y-117669423D02*
X94104144Y-117745613D01*
X94104144Y-117745613D02*
X94104144Y-117936089D01*
X94104144Y-117936089D02*
X94066049Y-118012280D01*
X94066049Y-118012280D02*
X94027954Y-118050375D01*
X94027954Y-118050375D02*
X93951763Y-118088470D01*
X93951763Y-118088470D02*
X93875573Y-118088470D01*
X93875573Y-118088470D02*
X93761287Y-118050375D01*
X93761287Y-118050375D02*
X93304144Y-117593232D01*
X93304144Y-117593232D02*
X93304144Y-118088470D01*
X94104144Y-118355137D02*
X94104144Y-118888471D01*
X94104144Y-118888471D02*
X93304144Y-118545613D01*
D12*
X103712568Y-114950809D02*
X104045901Y-114950809D01*
X104188758Y-115474619D02*
X103712568Y-115474619D01*
X103712568Y-115474619D02*
X103712568Y-114474619D01*
X103712568Y-114474619D02*
X104188758Y-114474619D01*
X105188758Y-115474619D02*
X104855425Y-114998428D01*
X104617330Y-115474619D02*
X104617330Y-114474619D01*
X104617330Y-114474619D02*
X104998282Y-114474619D01*
X104998282Y-114474619D02*
X105093520Y-114522238D01*
X105093520Y-114522238D02*
X105141139Y-114569857D01*
X105141139Y-114569857D02*
X105188758Y-114665095D01*
X105188758Y-114665095D02*
X105188758Y-114807952D01*
X105188758Y-114807952D02*
X105141139Y-114903190D01*
X105141139Y-114903190D02*
X105093520Y-114950809D01*
X105093520Y-114950809D02*
X104998282Y-114998428D01*
X104998282Y-114998428D02*
X104617330Y-114998428D01*
X106188758Y-115474619D02*
X105855425Y-114998428D01*
X105617330Y-115474619D02*
X105617330Y-114474619D01*
X105617330Y-114474619D02*
X105998282Y-114474619D01*
X105998282Y-114474619D02*
X106093520Y-114522238D01*
X106093520Y-114522238D02*
X106141139Y-114569857D01*
X106141139Y-114569857D02*
X106188758Y-114665095D01*
X106188758Y-114665095D02*
X106188758Y-114807952D01*
X106188758Y-114807952D02*
X106141139Y-114903190D01*
X106141139Y-114903190D02*
X106093520Y-114950809D01*
X106093520Y-114950809D02*
X105998282Y-114998428D01*
X105998282Y-114998428D02*
X105617330Y-114998428D01*
D15*
X124895833Y-127509580D02*
X124848214Y-127557200D01*
X124848214Y-127557200D02*
X124705357Y-127604819D01*
X124705357Y-127604819D02*
X124610119Y-127604819D01*
X124610119Y-127604819D02*
X124467262Y-127557200D01*
X124467262Y-127557200D02*
X124372024Y-127461961D01*
X124372024Y-127461961D02*
X124324405Y-127366723D01*
X124324405Y-127366723D02*
X124276786Y-127176247D01*
X124276786Y-127176247D02*
X124276786Y-127033390D01*
X124276786Y-127033390D02*
X124324405Y-126842914D01*
X124324405Y-126842914D02*
X124372024Y-126747676D01*
X124372024Y-126747676D02*
X124467262Y-126652438D01*
X124467262Y-126652438D02*
X124610119Y-126604819D01*
X124610119Y-126604819D02*
X124705357Y-126604819D01*
X124705357Y-126604819D02*
X124848214Y-126652438D01*
X124848214Y-126652438D02*
X124895833Y-126700057D01*
X125467262Y-127033390D02*
X125372024Y-126985771D01*
X125372024Y-126985771D02*
X125324405Y-126938152D01*
X125324405Y-126938152D02*
X125276786Y-126842914D01*
X125276786Y-126842914D02*
X125276786Y-126795295D01*
X125276786Y-126795295D02*
X125324405Y-126700057D01*
X125324405Y-126700057D02*
X125372024Y-126652438D01*
X125372024Y-126652438D02*
X125467262Y-126604819D01*
X125467262Y-126604819D02*
X125657738Y-126604819D01*
X125657738Y-126604819D02*
X125752976Y-126652438D01*
X125752976Y-126652438D02*
X125800595Y-126700057D01*
X125800595Y-126700057D02*
X125848214Y-126795295D01*
X125848214Y-126795295D02*
X125848214Y-126842914D01*
X125848214Y-126842914D02*
X125800595Y-126938152D01*
X125800595Y-126938152D02*
X125752976Y-126985771D01*
X125752976Y-126985771D02*
X125657738Y-127033390D01*
X125657738Y-127033390D02*
X125467262Y-127033390D01*
X125467262Y-127033390D02*
X125372024Y-127081009D01*
X125372024Y-127081009D02*
X125324405Y-127128628D01*
X125324405Y-127128628D02*
X125276786Y-127223866D01*
X125276786Y-127223866D02*
X125276786Y-127414342D01*
X125276786Y-127414342D02*
X125324405Y-127509580D01*
X125324405Y-127509580D02*
X125372024Y-127557200D01*
X125372024Y-127557200D02*
X125467262Y-127604819D01*
X125467262Y-127604819D02*
X125657738Y-127604819D01*
X125657738Y-127604819D02*
X125752976Y-127557200D01*
X125752976Y-127557200D02*
X125800595Y-127509580D01*
X125800595Y-127509580D02*
X125848214Y-127414342D01*
X125848214Y-127414342D02*
X125848214Y-127223866D01*
X125848214Y-127223866D02*
X125800595Y-127128628D01*
X125800595Y-127128628D02*
X125752976Y-127081009D01*
X125752976Y-127081009D02*
X125657738Y-127033390D01*
X111933333Y-97254819D02*
X111600000Y-96778628D01*
X111361905Y-97254819D02*
X111361905Y-96254819D01*
X111361905Y-96254819D02*
X111742857Y-96254819D01*
X111742857Y-96254819D02*
X111838095Y-96302438D01*
X111838095Y-96302438D02*
X111885714Y-96350057D01*
X111885714Y-96350057D02*
X111933333Y-96445295D01*
X111933333Y-96445295D02*
X111933333Y-96588152D01*
X111933333Y-96588152D02*
X111885714Y-96683390D01*
X111885714Y-96683390D02*
X111838095Y-96731009D01*
X111838095Y-96731009D02*
X111742857Y-96778628D01*
X111742857Y-96778628D02*
X111361905Y-96778628D01*
X112790476Y-96254819D02*
X112600000Y-96254819D01*
X112600000Y-96254819D02*
X112504762Y-96302438D01*
X112504762Y-96302438D02*
X112457143Y-96350057D01*
X112457143Y-96350057D02*
X112361905Y-96492914D01*
X112361905Y-96492914D02*
X112314286Y-96683390D01*
X112314286Y-96683390D02*
X112314286Y-97064342D01*
X112314286Y-97064342D02*
X112361905Y-97159580D01*
X112361905Y-97159580D02*
X112409524Y-97207200D01*
X112409524Y-97207200D02*
X112504762Y-97254819D01*
X112504762Y-97254819D02*
X112695238Y-97254819D01*
X112695238Y-97254819D02*
X112790476Y-97207200D01*
X112790476Y-97207200D02*
X112838095Y-97159580D01*
X112838095Y-97159580D02*
X112885714Y-97064342D01*
X112885714Y-97064342D02*
X112885714Y-96826247D01*
X112885714Y-96826247D02*
X112838095Y-96731009D01*
X112838095Y-96731009D02*
X112790476Y-96683390D01*
X112790476Y-96683390D02*
X112695238Y-96635771D01*
X112695238Y-96635771D02*
X112504762Y-96635771D01*
X112504762Y-96635771D02*
X112409524Y-96683390D01*
X112409524Y-96683390D02*
X112361905Y-96731009D01*
X112361905Y-96731009D02*
X112314286Y-96826247D01*
X110908333Y-122929819D02*
X110432143Y-122929819D01*
X110432143Y-122929819D02*
X110432143Y-121929819D01*
X111146429Y-121929819D02*
X111765476Y-121929819D01*
X111765476Y-121929819D02*
X111432143Y-122310771D01*
X111432143Y-122310771D02*
X111575000Y-122310771D01*
X111575000Y-122310771D02*
X111670238Y-122358390D01*
X111670238Y-122358390D02*
X111717857Y-122406009D01*
X111717857Y-122406009D02*
X111765476Y-122501247D01*
X111765476Y-122501247D02*
X111765476Y-122739342D01*
X111765476Y-122739342D02*
X111717857Y-122834580D01*
X111717857Y-122834580D02*
X111670238Y-122882200D01*
X111670238Y-122882200D02*
X111575000Y-122929819D01*
X111575000Y-122929819D02*
X111289286Y-122929819D01*
X111289286Y-122929819D02*
X111194048Y-122882200D01*
X111194048Y-122882200D02*
X111146429Y-122834580D01*
X114533333Y-125829819D02*
X114057143Y-125829819D01*
X114057143Y-125829819D02*
X114057143Y-124829819D01*
X114819048Y-124925057D02*
X114866667Y-124877438D01*
X114866667Y-124877438D02*
X114961905Y-124829819D01*
X114961905Y-124829819D02*
X115200000Y-124829819D01*
X115200000Y-124829819D02*
X115295238Y-124877438D01*
X115295238Y-124877438D02*
X115342857Y-124925057D01*
X115342857Y-124925057D02*
X115390476Y-125020295D01*
X115390476Y-125020295D02*
X115390476Y-125115533D01*
X115390476Y-125115533D02*
X115342857Y-125258390D01*
X115342857Y-125258390D02*
X114771429Y-125829819D01*
X114771429Y-125829819D02*
X115390476Y-125829819D01*
X107111905Y-113674819D02*
X107111905Y-112674819D01*
X107111905Y-112674819D02*
X107350000Y-112674819D01*
X107350000Y-112674819D02*
X107492857Y-112722438D01*
X107492857Y-112722438D02*
X107588095Y-112817676D01*
X107588095Y-112817676D02*
X107635714Y-112912914D01*
X107635714Y-112912914D02*
X107683333Y-113103390D01*
X107683333Y-113103390D02*
X107683333Y-113246247D01*
X107683333Y-113246247D02*
X107635714Y-113436723D01*
X107635714Y-113436723D02*
X107588095Y-113531961D01*
X107588095Y-113531961D02*
X107492857Y-113627200D01*
X107492857Y-113627200D02*
X107350000Y-113674819D01*
X107350000Y-113674819D02*
X107111905Y-113674819D01*
X108064286Y-112770057D02*
X108111905Y-112722438D01*
X108111905Y-112722438D02*
X108207143Y-112674819D01*
X108207143Y-112674819D02*
X108445238Y-112674819D01*
X108445238Y-112674819D02*
X108540476Y-112722438D01*
X108540476Y-112722438D02*
X108588095Y-112770057D01*
X108588095Y-112770057D02*
X108635714Y-112865295D01*
X108635714Y-112865295D02*
X108635714Y-112960533D01*
X108635714Y-112960533D02*
X108588095Y-113103390D01*
X108588095Y-113103390D02*
X108016667Y-113674819D01*
X108016667Y-113674819D02*
X108635714Y-113674819D01*
X107146905Y-111994819D02*
X107146905Y-110994819D01*
X107146905Y-110994819D02*
X107385000Y-110994819D01*
X107385000Y-110994819D02*
X107527857Y-111042438D01*
X107527857Y-111042438D02*
X107623095Y-111137676D01*
X107623095Y-111137676D02*
X107670714Y-111232914D01*
X107670714Y-111232914D02*
X107718333Y-111423390D01*
X107718333Y-111423390D02*
X107718333Y-111566247D01*
X107718333Y-111566247D02*
X107670714Y-111756723D01*
X107670714Y-111756723D02*
X107623095Y-111851961D01*
X107623095Y-111851961D02*
X107527857Y-111947200D01*
X107527857Y-111947200D02*
X107385000Y-111994819D01*
X107385000Y-111994819D02*
X107146905Y-111994819D01*
X108670714Y-111994819D02*
X108099286Y-111994819D01*
X108385000Y-111994819D02*
X108385000Y-110994819D01*
X108385000Y-110994819D02*
X108289762Y-111137676D01*
X108289762Y-111137676D02*
X108194524Y-111232914D01*
X108194524Y-111232914D02*
X108099286Y-111280533D01*
X113953333Y-97254819D02*
X113620000Y-96778628D01*
X113381905Y-97254819D02*
X113381905Y-96254819D01*
X113381905Y-96254819D02*
X113762857Y-96254819D01*
X113762857Y-96254819D02*
X113858095Y-96302438D01*
X113858095Y-96302438D02*
X113905714Y-96350057D01*
X113905714Y-96350057D02*
X113953333Y-96445295D01*
X113953333Y-96445295D02*
X113953333Y-96588152D01*
X113953333Y-96588152D02*
X113905714Y-96683390D01*
X113905714Y-96683390D02*
X113858095Y-96731009D01*
X113858095Y-96731009D02*
X113762857Y-96778628D01*
X113762857Y-96778628D02*
X113381905Y-96778628D01*
X114286667Y-96254819D02*
X114953333Y-96254819D01*
X114953333Y-96254819D02*
X114524762Y-97254819D01*
X115889580Y-118505358D02*
X115937200Y-118552977D01*
X115937200Y-118552977D02*
X115984819Y-118695834D01*
X115984819Y-118695834D02*
X115984819Y-118791072D01*
X115984819Y-118791072D02*
X115937200Y-118933929D01*
X115937200Y-118933929D02*
X115841961Y-119029167D01*
X115841961Y-119029167D02*
X115746723Y-119076786D01*
X115746723Y-119076786D02*
X115556247Y-119124405D01*
X115556247Y-119124405D02*
X115413390Y-119124405D01*
X115413390Y-119124405D02*
X115222914Y-119076786D01*
X115222914Y-119076786D02*
X115127676Y-119029167D01*
X115127676Y-119029167D02*
X115032438Y-118933929D01*
X115032438Y-118933929D02*
X114984819Y-118791072D01*
X114984819Y-118791072D02*
X114984819Y-118695834D01*
X114984819Y-118695834D02*
X115032438Y-118552977D01*
X115032438Y-118552977D02*
X115080057Y-118505358D01*
X114984819Y-118172024D02*
X114984819Y-117552977D01*
X114984819Y-117552977D02*
X115365771Y-117886310D01*
X115365771Y-117886310D02*
X115365771Y-117743453D01*
X115365771Y-117743453D02*
X115413390Y-117648215D01*
X115413390Y-117648215D02*
X115461009Y-117600596D01*
X115461009Y-117600596D02*
X115556247Y-117552977D01*
X115556247Y-117552977D02*
X115794342Y-117552977D01*
X115794342Y-117552977D02*
X115889580Y-117600596D01*
X115889580Y-117600596D02*
X115937200Y-117648215D01*
X115937200Y-117648215D02*
X115984819Y-117743453D01*
X115984819Y-117743453D02*
X115984819Y-118029167D01*
X115984819Y-118029167D02*
X115937200Y-118124405D01*
X115937200Y-118124405D02*
X115889580Y-118172024D01*
X115984819Y-116600596D02*
X115984819Y-117172024D01*
X115984819Y-116886310D02*
X114984819Y-116886310D01*
X114984819Y-116886310D02*
X115127676Y-116981548D01*
X115127676Y-116981548D02*
X115222914Y-117076786D01*
X115222914Y-117076786D02*
X115270533Y-117172024D01*
X115357142Y-100089580D02*
X115309523Y-100137200D01*
X115309523Y-100137200D02*
X115166666Y-100184819D01*
X115166666Y-100184819D02*
X115071428Y-100184819D01*
X115071428Y-100184819D02*
X114928571Y-100137200D01*
X114928571Y-100137200D02*
X114833333Y-100041961D01*
X114833333Y-100041961D02*
X114785714Y-99946723D01*
X114785714Y-99946723D02*
X114738095Y-99756247D01*
X114738095Y-99756247D02*
X114738095Y-99613390D01*
X114738095Y-99613390D02*
X114785714Y-99422914D01*
X114785714Y-99422914D02*
X114833333Y-99327676D01*
X114833333Y-99327676D02*
X114928571Y-99232438D01*
X114928571Y-99232438D02*
X115071428Y-99184819D01*
X115071428Y-99184819D02*
X115166666Y-99184819D01*
X115166666Y-99184819D02*
X115309523Y-99232438D01*
X115309523Y-99232438D02*
X115357142Y-99280057D01*
X116309523Y-100184819D02*
X115738095Y-100184819D01*
X116023809Y-100184819D02*
X116023809Y-99184819D01*
X116023809Y-99184819D02*
X115928571Y-99327676D01*
X115928571Y-99327676D02*
X115833333Y-99422914D01*
X115833333Y-99422914D02*
X115738095Y-99470533D01*
X116785714Y-100184819D02*
X116976190Y-100184819D01*
X116976190Y-100184819D02*
X117071428Y-100137200D01*
X117071428Y-100137200D02*
X117119047Y-100089580D01*
X117119047Y-100089580D02*
X117214285Y-99946723D01*
X117214285Y-99946723D02*
X117261904Y-99756247D01*
X117261904Y-99756247D02*
X117261904Y-99375295D01*
X117261904Y-99375295D02*
X117214285Y-99280057D01*
X117214285Y-99280057D02*
X117166666Y-99232438D01*
X117166666Y-99232438D02*
X117071428Y-99184819D01*
X117071428Y-99184819D02*
X116880952Y-99184819D01*
X116880952Y-99184819D02*
X116785714Y-99232438D01*
X116785714Y-99232438D02*
X116738095Y-99280057D01*
X116738095Y-99280057D02*
X116690476Y-99375295D01*
X116690476Y-99375295D02*
X116690476Y-99613390D01*
X116690476Y-99613390D02*
X116738095Y-99708628D01*
X116738095Y-99708628D02*
X116785714Y-99756247D01*
X116785714Y-99756247D02*
X116880952Y-99803866D01*
X116880952Y-99803866D02*
X117071428Y-99803866D01*
X117071428Y-99803866D02*
X117166666Y-99756247D01*
X117166666Y-99756247D02*
X117214285Y-99708628D01*
X117214285Y-99708628D02*
X117261904Y-99613390D01*
X130459580Y-104142857D02*
X130507200Y-104190476D01*
X130507200Y-104190476D02*
X130554819Y-104333333D01*
X130554819Y-104333333D02*
X130554819Y-104428571D01*
X130554819Y-104428571D02*
X130507200Y-104571428D01*
X130507200Y-104571428D02*
X130411961Y-104666666D01*
X130411961Y-104666666D02*
X130316723Y-104714285D01*
X130316723Y-104714285D02*
X130126247Y-104761904D01*
X130126247Y-104761904D02*
X129983390Y-104761904D01*
X129983390Y-104761904D02*
X129792914Y-104714285D01*
X129792914Y-104714285D02*
X129697676Y-104666666D01*
X129697676Y-104666666D02*
X129602438Y-104571428D01*
X129602438Y-104571428D02*
X129554819Y-104428571D01*
X129554819Y-104428571D02*
X129554819Y-104333333D01*
X129554819Y-104333333D02*
X129602438Y-104190476D01*
X129602438Y-104190476D02*
X129650057Y-104142857D01*
X130554819Y-103190476D02*
X130554819Y-103761904D01*
X130554819Y-103476190D02*
X129554819Y-103476190D01*
X129554819Y-103476190D02*
X129697676Y-103571428D01*
X129697676Y-103571428D02*
X129792914Y-103666666D01*
X129792914Y-103666666D02*
X129840533Y-103761904D01*
X129650057Y-102809523D02*
X129602438Y-102761904D01*
X129602438Y-102761904D02*
X129554819Y-102666666D01*
X129554819Y-102666666D02*
X129554819Y-102428571D01*
X129554819Y-102428571D02*
X129602438Y-102333333D01*
X129602438Y-102333333D02*
X129650057Y-102285714D01*
X129650057Y-102285714D02*
X129745295Y-102238095D01*
X129745295Y-102238095D02*
X129840533Y-102238095D01*
X129840533Y-102238095D02*
X129983390Y-102285714D01*
X129983390Y-102285714D02*
X130554819Y-102857142D01*
X130554819Y-102857142D02*
X130554819Y-102238095D01*
X109329580Y-98542857D02*
X109377200Y-98590476D01*
X109377200Y-98590476D02*
X109424819Y-98733333D01*
X109424819Y-98733333D02*
X109424819Y-98828571D01*
X109424819Y-98828571D02*
X109377200Y-98971428D01*
X109377200Y-98971428D02*
X109281961Y-99066666D01*
X109281961Y-99066666D02*
X109186723Y-99114285D01*
X109186723Y-99114285D02*
X108996247Y-99161904D01*
X108996247Y-99161904D02*
X108853390Y-99161904D01*
X108853390Y-99161904D02*
X108662914Y-99114285D01*
X108662914Y-99114285D02*
X108567676Y-99066666D01*
X108567676Y-99066666D02*
X108472438Y-98971428D01*
X108472438Y-98971428D02*
X108424819Y-98828571D01*
X108424819Y-98828571D02*
X108424819Y-98733333D01*
X108424819Y-98733333D02*
X108472438Y-98590476D01*
X108472438Y-98590476D02*
X108520057Y-98542857D01*
X108520057Y-98161904D02*
X108472438Y-98114285D01*
X108472438Y-98114285D02*
X108424819Y-98019047D01*
X108424819Y-98019047D02*
X108424819Y-97780952D01*
X108424819Y-97780952D02*
X108472438Y-97685714D01*
X108472438Y-97685714D02*
X108520057Y-97638095D01*
X108520057Y-97638095D02*
X108615295Y-97590476D01*
X108615295Y-97590476D02*
X108710533Y-97590476D01*
X108710533Y-97590476D02*
X108853390Y-97638095D01*
X108853390Y-97638095D02*
X109424819Y-98209523D01*
X109424819Y-98209523D02*
X109424819Y-97590476D01*
X108424819Y-96685714D02*
X108424819Y-97161904D01*
X108424819Y-97161904D02*
X108901009Y-97209523D01*
X108901009Y-97209523D02*
X108853390Y-97161904D01*
X108853390Y-97161904D02*
X108805771Y-97066666D01*
X108805771Y-97066666D02*
X108805771Y-96828571D01*
X108805771Y-96828571D02*
X108853390Y-96733333D01*
X108853390Y-96733333D02*
X108901009Y-96685714D01*
X108901009Y-96685714D02*
X108996247Y-96638095D01*
X108996247Y-96638095D02*
X109234342Y-96638095D01*
X109234342Y-96638095D02*
X109329580Y-96685714D01*
X109329580Y-96685714D02*
X109377200Y-96733333D01*
X109377200Y-96733333D02*
X109424819Y-96828571D01*
X109424819Y-96828571D02*
X109424819Y-97066666D01*
X109424819Y-97066666D02*
X109377200Y-97161904D01*
X109377200Y-97161904D02*
X109329580Y-97209523D01*
X127259580Y-104042857D02*
X127307200Y-104090476D01*
X127307200Y-104090476D02*
X127354819Y-104233333D01*
X127354819Y-104233333D02*
X127354819Y-104328571D01*
X127354819Y-104328571D02*
X127307200Y-104471428D01*
X127307200Y-104471428D02*
X127211961Y-104566666D01*
X127211961Y-104566666D02*
X127116723Y-104614285D01*
X127116723Y-104614285D02*
X126926247Y-104661904D01*
X126926247Y-104661904D02*
X126783390Y-104661904D01*
X126783390Y-104661904D02*
X126592914Y-104614285D01*
X126592914Y-104614285D02*
X126497676Y-104566666D01*
X126497676Y-104566666D02*
X126402438Y-104471428D01*
X126402438Y-104471428D02*
X126354819Y-104328571D01*
X126354819Y-104328571D02*
X126354819Y-104233333D01*
X126354819Y-104233333D02*
X126402438Y-104090476D01*
X126402438Y-104090476D02*
X126450057Y-104042857D01*
X127354819Y-103090476D02*
X127354819Y-103661904D01*
X127354819Y-103376190D02*
X126354819Y-103376190D01*
X126354819Y-103376190D02*
X126497676Y-103471428D01*
X126497676Y-103471428D02*
X126592914Y-103566666D01*
X126592914Y-103566666D02*
X126640533Y-103661904D01*
X126354819Y-102471428D02*
X126354819Y-102376190D01*
X126354819Y-102376190D02*
X126402438Y-102280952D01*
X126402438Y-102280952D02*
X126450057Y-102233333D01*
X126450057Y-102233333D02*
X126545295Y-102185714D01*
X126545295Y-102185714D02*
X126735771Y-102138095D01*
X126735771Y-102138095D02*
X126973866Y-102138095D01*
X126973866Y-102138095D02*
X127164342Y-102185714D01*
X127164342Y-102185714D02*
X127259580Y-102233333D01*
X127259580Y-102233333D02*
X127307200Y-102280952D01*
X127307200Y-102280952D02*
X127354819Y-102376190D01*
X127354819Y-102376190D02*
X127354819Y-102471428D01*
X127354819Y-102471428D02*
X127307200Y-102566666D01*
X127307200Y-102566666D02*
X127259580Y-102614285D01*
X127259580Y-102614285D02*
X127164342Y-102661904D01*
X127164342Y-102661904D02*
X126973866Y-102709523D01*
X126973866Y-102709523D02*
X126735771Y-102709523D01*
X126735771Y-102709523D02*
X126545295Y-102661904D01*
X126545295Y-102661904D02*
X126450057Y-102614285D01*
X126450057Y-102614285D02*
X126402438Y-102566666D01*
X126402438Y-102566666D02*
X126354819Y-102471428D01*
X117882142Y-120054819D02*
X117548809Y-119578628D01*
X117310714Y-120054819D02*
X117310714Y-119054819D01*
X117310714Y-119054819D02*
X117691666Y-119054819D01*
X117691666Y-119054819D02*
X117786904Y-119102438D01*
X117786904Y-119102438D02*
X117834523Y-119150057D01*
X117834523Y-119150057D02*
X117882142Y-119245295D01*
X117882142Y-119245295D02*
X117882142Y-119388152D01*
X117882142Y-119388152D02*
X117834523Y-119483390D01*
X117834523Y-119483390D02*
X117786904Y-119531009D01*
X117786904Y-119531009D02*
X117691666Y-119578628D01*
X117691666Y-119578628D02*
X117310714Y-119578628D01*
X118834523Y-120054819D02*
X118263095Y-120054819D01*
X118548809Y-120054819D02*
X118548809Y-119054819D01*
X118548809Y-119054819D02*
X118453571Y-119197676D01*
X118453571Y-119197676D02*
X118358333Y-119292914D01*
X118358333Y-119292914D02*
X118263095Y-119340533D01*
X119215476Y-119150057D02*
X119263095Y-119102438D01*
X119263095Y-119102438D02*
X119358333Y-119054819D01*
X119358333Y-119054819D02*
X119596428Y-119054819D01*
X119596428Y-119054819D02*
X119691666Y-119102438D01*
X119691666Y-119102438D02*
X119739285Y-119150057D01*
X119739285Y-119150057D02*
X119786904Y-119245295D01*
X119786904Y-119245295D02*
X119786904Y-119340533D01*
X119786904Y-119340533D02*
X119739285Y-119483390D01*
X119739285Y-119483390D02*
X119167857Y-120054819D01*
X119167857Y-120054819D02*
X119786904Y-120054819D01*
X105608333Y-127254819D02*
X105275000Y-126778628D01*
X105036905Y-127254819D02*
X105036905Y-126254819D01*
X105036905Y-126254819D02*
X105417857Y-126254819D01*
X105417857Y-126254819D02*
X105513095Y-126302438D01*
X105513095Y-126302438D02*
X105560714Y-126350057D01*
X105560714Y-126350057D02*
X105608333Y-126445295D01*
X105608333Y-126445295D02*
X105608333Y-126588152D01*
X105608333Y-126588152D02*
X105560714Y-126683390D01*
X105560714Y-126683390D02*
X105513095Y-126731009D01*
X105513095Y-126731009D02*
X105417857Y-126778628D01*
X105417857Y-126778628D02*
X105036905Y-126778628D01*
X106560714Y-127254819D02*
X105989286Y-127254819D01*
X106275000Y-127254819D02*
X106275000Y-126254819D01*
X106275000Y-126254819D02*
X106179762Y-126397676D01*
X106179762Y-126397676D02*
X106084524Y-126492914D01*
X106084524Y-126492914D02*
X105989286Y-126540533D01*
X135233333Y-107854819D02*
X134900000Y-107378628D01*
X134661905Y-107854819D02*
X134661905Y-106854819D01*
X134661905Y-106854819D02*
X135042857Y-106854819D01*
X135042857Y-106854819D02*
X135138095Y-106902438D01*
X135138095Y-106902438D02*
X135185714Y-106950057D01*
X135185714Y-106950057D02*
X135233333Y-107045295D01*
X135233333Y-107045295D02*
X135233333Y-107188152D01*
X135233333Y-107188152D02*
X135185714Y-107283390D01*
X135185714Y-107283390D02*
X135138095Y-107331009D01*
X135138095Y-107331009D02*
X135042857Y-107378628D01*
X135042857Y-107378628D02*
X134661905Y-107378628D01*
X136090476Y-107188152D02*
X136090476Y-107854819D01*
X135852381Y-106807200D02*
X135614286Y-107521485D01*
X135614286Y-107521485D02*
X136233333Y-107521485D01*
X95794819Y-93642857D02*
X95318628Y-93976190D01*
X95794819Y-94214285D02*
X94794819Y-94214285D01*
X94794819Y-94214285D02*
X94794819Y-93833333D01*
X94794819Y-93833333D02*
X94842438Y-93738095D01*
X94842438Y-93738095D02*
X94890057Y-93690476D01*
X94890057Y-93690476D02*
X94985295Y-93642857D01*
X94985295Y-93642857D02*
X95128152Y-93642857D01*
X95128152Y-93642857D02*
X95223390Y-93690476D01*
X95223390Y-93690476D02*
X95271009Y-93738095D01*
X95271009Y-93738095D02*
X95318628Y-93833333D01*
X95318628Y-93833333D02*
X95318628Y-94214285D01*
X95794819Y-92690476D02*
X95794819Y-93261904D01*
X95794819Y-92976190D02*
X94794819Y-92976190D01*
X94794819Y-92976190D02*
X94937676Y-93071428D01*
X94937676Y-93071428D02*
X95032914Y-93166666D01*
X95032914Y-93166666D02*
X95080533Y-93261904D01*
X94794819Y-91833333D02*
X94794819Y-92023809D01*
X94794819Y-92023809D02*
X94842438Y-92119047D01*
X94842438Y-92119047D02*
X94890057Y-92166666D01*
X94890057Y-92166666D02*
X95032914Y-92261904D01*
X95032914Y-92261904D02*
X95223390Y-92309523D01*
X95223390Y-92309523D02*
X95604342Y-92309523D01*
X95604342Y-92309523D02*
X95699580Y-92261904D01*
X95699580Y-92261904D02*
X95747200Y-92214285D01*
X95747200Y-92214285D02*
X95794819Y-92119047D01*
X95794819Y-92119047D02*
X95794819Y-91928571D01*
X95794819Y-91928571D02*
X95747200Y-91833333D01*
X95747200Y-91833333D02*
X95699580Y-91785714D01*
X95699580Y-91785714D02*
X95604342Y-91738095D01*
X95604342Y-91738095D02*
X95366247Y-91738095D01*
X95366247Y-91738095D02*
X95271009Y-91785714D01*
X95271009Y-91785714D02*
X95223390Y-91833333D01*
X95223390Y-91833333D02*
X95175771Y-91928571D01*
X95175771Y-91928571D02*
X95175771Y-92119047D01*
X95175771Y-92119047D02*
X95223390Y-92214285D01*
X95223390Y-92214285D02*
X95271009Y-92261904D01*
X95271009Y-92261904D02*
X95366247Y-92309523D01*
X97766666Y-121304819D02*
X97766666Y-122019104D01*
X97766666Y-122019104D02*
X97719047Y-122161961D01*
X97719047Y-122161961D02*
X97623809Y-122257200D01*
X97623809Y-122257200D02*
X97480952Y-122304819D01*
X97480952Y-122304819D02*
X97385714Y-122304819D01*
X98671428Y-121638152D02*
X98671428Y-122304819D01*
X98433333Y-121257200D02*
X98195238Y-121971485D01*
X98195238Y-121971485D02*
X98814285Y-121971485D01*
X116794819Y-120766666D02*
X116794819Y-121242856D01*
X116794819Y-121242856D02*
X115794819Y-121242856D01*
X116794819Y-119909523D02*
X116794819Y-120480951D01*
X116794819Y-120195237D02*
X115794819Y-120195237D01*
X115794819Y-120195237D02*
X115937676Y-120290475D01*
X115937676Y-120290475D02*
X116032914Y-120385713D01*
X116032914Y-120385713D02*
X116080533Y-120480951D01*
X131238095Y-94854819D02*
X131238095Y-95664342D01*
X131238095Y-95664342D02*
X131285714Y-95759580D01*
X131285714Y-95759580D02*
X131333333Y-95807200D01*
X131333333Y-95807200D02*
X131428571Y-95854819D01*
X131428571Y-95854819D02*
X131619047Y-95854819D01*
X131619047Y-95854819D02*
X131714285Y-95807200D01*
X131714285Y-95807200D02*
X131761904Y-95759580D01*
X131761904Y-95759580D02*
X131809523Y-95664342D01*
X131809523Y-95664342D02*
X131809523Y-94854819D01*
X132714285Y-95188152D02*
X132714285Y-95854819D01*
X132476190Y-94807200D02*
X132238095Y-95521485D01*
X132238095Y-95521485D02*
X132857142Y-95521485D01*
D13*
X97424809Y-119866666D02*
X97781952Y-119866666D01*
X97781952Y-119866666D02*
X97853380Y-119890475D01*
X97853380Y-119890475D02*
X97901000Y-119938094D01*
X97901000Y-119938094D02*
X97924809Y-120009523D01*
X97924809Y-120009523D02*
X97924809Y-120057142D01*
X97424809Y-119676190D02*
X97424809Y-119342857D01*
X97424809Y-119342857D02*
X97924809Y-119557142D01*
D15*
X103157142Y-103259580D02*
X103109523Y-103307200D01*
X103109523Y-103307200D02*
X102966666Y-103354819D01*
X102966666Y-103354819D02*
X102871428Y-103354819D01*
X102871428Y-103354819D02*
X102728571Y-103307200D01*
X102728571Y-103307200D02*
X102633333Y-103211961D01*
X102633333Y-103211961D02*
X102585714Y-103116723D01*
X102585714Y-103116723D02*
X102538095Y-102926247D01*
X102538095Y-102926247D02*
X102538095Y-102783390D01*
X102538095Y-102783390D02*
X102585714Y-102592914D01*
X102585714Y-102592914D02*
X102633333Y-102497676D01*
X102633333Y-102497676D02*
X102728571Y-102402438D01*
X102728571Y-102402438D02*
X102871428Y-102354819D01*
X102871428Y-102354819D02*
X102966666Y-102354819D01*
X102966666Y-102354819D02*
X103109523Y-102402438D01*
X103109523Y-102402438D02*
X103157142Y-102450057D01*
X103538095Y-102450057D02*
X103585714Y-102402438D01*
X103585714Y-102402438D02*
X103680952Y-102354819D01*
X103680952Y-102354819D02*
X103919047Y-102354819D01*
X103919047Y-102354819D02*
X104014285Y-102402438D01*
X104014285Y-102402438D02*
X104061904Y-102450057D01*
X104061904Y-102450057D02*
X104109523Y-102545295D01*
X104109523Y-102545295D02*
X104109523Y-102640533D01*
X104109523Y-102640533D02*
X104061904Y-102783390D01*
X104061904Y-102783390D02*
X103490476Y-103354819D01*
X103490476Y-103354819D02*
X104109523Y-103354819D01*
X104442857Y-102354819D02*
X105061904Y-102354819D01*
X105061904Y-102354819D02*
X104728571Y-102735771D01*
X104728571Y-102735771D02*
X104871428Y-102735771D01*
X104871428Y-102735771D02*
X104966666Y-102783390D01*
X104966666Y-102783390D02*
X105014285Y-102831009D01*
X105014285Y-102831009D02*
X105061904Y-102926247D01*
X105061904Y-102926247D02*
X105061904Y-103164342D01*
X105061904Y-103164342D02*
X105014285Y-103259580D01*
X105014285Y-103259580D02*
X104966666Y-103307200D01*
X104966666Y-103307200D02*
X104871428Y-103354819D01*
X104871428Y-103354819D02*
X104585714Y-103354819D01*
X104585714Y-103354819D02*
X104490476Y-103307200D01*
X104490476Y-103307200D02*
X104442857Y-103259580D01*
X117682142Y-116734580D02*
X117634523Y-116782200D01*
X117634523Y-116782200D02*
X117491666Y-116829819D01*
X117491666Y-116829819D02*
X117396428Y-116829819D01*
X117396428Y-116829819D02*
X117253571Y-116782200D01*
X117253571Y-116782200D02*
X117158333Y-116686961D01*
X117158333Y-116686961D02*
X117110714Y-116591723D01*
X117110714Y-116591723D02*
X117063095Y-116401247D01*
X117063095Y-116401247D02*
X117063095Y-116258390D01*
X117063095Y-116258390D02*
X117110714Y-116067914D01*
X117110714Y-116067914D02*
X117158333Y-115972676D01*
X117158333Y-115972676D02*
X117253571Y-115877438D01*
X117253571Y-115877438D02*
X117396428Y-115829819D01*
X117396428Y-115829819D02*
X117491666Y-115829819D01*
X117491666Y-115829819D02*
X117634523Y-115877438D01*
X117634523Y-115877438D02*
X117682142Y-115925057D01*
X118634523Y-116829819D02*
X118063095Y-116829819D01*
X118348809Y-116829819D02*
X118348809Y-115829819D01*
X118348809Y-115829819D02*
X118253571Y-115972676D01*
X118253571Y-115972676D02*
X118158333Y-116067914D01*
X118158333Y-116067914D02*
X118063095Y-116115533D01*
X118967857Y-115829819D02*
X119634523Y-115829819D01*
X119634523Y-115829819D02*
X119205952Y-116829819D01*
X110290476Y-111154819D02*
X110957142Y-112154819D01*
X110957142Y-111154819D02*
X110290476Y-112154819D01*
X111290476Y-111250057D02*
X111338095Y-111202438D01*
X111338095Y-111202438D02*
X111433333Y-111154819D01*
X111433333Y-111154819D02*
X111671428Y-111154819D01*
X111671428Y-111154819D02*
X111766666Y-111202438D01*
X111766666Y-111202438D02*
X111814285Y-111250057D01*
X111814285Y-111250057D02*
X111861904Y-111345295D01*
X111861904Y-111345295D02*
X111861904Y-111440533D01*
X111861904Y-111440533D02*
X111814285Y-111583390D01*
X111814285Y-111583390D02*
X111242857Y-112154819D01*
X111242857Y-112154819D02*
X111861904Y-112154819D01*
X127854819Y-113361904D02*
X128664342Y-113361904D01*
X128664342Y-113361904D02*
X128759580Y-113314285D01*
X128759580Y-113314285D02*
X128807200Y-113266666D01*
X128807200Y-113266666D02*
X128854819Y-113171428D01*
X128854819Y-113171428D02*
X128854819Y-112980952D01*
X128854819Y-112980952D02*
X128807200Y-112885714D01*
X128807200Y-112885714D02*
X128759580Y-112838095D01*
X128759580Y-112838095D02*
X128664342Y-112790476D01*
X128664342Y-112790476D02*
X127854819Y-112790476D01*
X127854819Y-112409523D02*
X127854819Y-111790476D01*
X127854819Y-111790476D02*
X128235771Y-112123809D01*
X128235771Y-112123809D02*
X128235771Y-111980952D01*
X128235771Y-111980952D02*
X128283390Y-111885714D01*
X128283390Y-111885714D02*
X128331009Y-111838095D01*
X128331009Y-111838095D02*
X128426247Y-111790476D01*
X128426247Y-111790476D02*
X128664342Y-111790476D01*
X128664342Y-111790476D02*
X128759580Y-111838095D01*
X128759580Y-111838095D02*
X128807200Y-111885714D01*
X128807200Y-111885714D02*
X128854819Y-111980952D01*
X128854819Y-111980952D02*
X128854819Y-112266666D01*
X128854819Y-112266666D02*
X128807200Y-112361904D01*
X128807200Y-112361904D02*
X128759580Y-112409523D01*
X106739580Y-121541666D02*
X106787200Y-121589285D01*
X106787200Y-121589285D02*
X106834819Y-121732142D01*
X106834819Y-121732142D02*
X106834819Y-121827380D01*
X106834819Y-121827380D02*
X106787200Y-121970237D01*
X106787200Y-121970237D02*
X106691961Y-122065475D01*
X106691961Y-122065475D02*
X106596723Y-122113094D01*
X106596723Y-122113094D02*
X106406247Y-122160713D01*
X106406247Y-122160713D02*
X106263390Y-122160713D01*
X106263390Y-122160713D02*
X106072914Y-122113094D01*
X106072914Y-122113094D02*
X105977676Y-122065475D01*
X105977676Y-122065475D02*
X105882438Y-121970237D01*
X105882438Y-121970237D02*
X105834819Y-121827380D01*
X105834819Y-121827380D02*
X105834819Y-121732142D01*
X105834819Y-121732142D02*
X105882438Y-121589285D01*
X105882438Y-121589285D02*
X105930057Y-121541666D01*
X105834819Y-121208332D02*
X105834819Y-120589285D01*
X105834819Y-120589285D02*
X106215771Y-120922618D01*
X106215771Y-120922618D02*
X106215771Y-120779761D01*
X106215771Y-120779761D02*
X106263390Y-120684523D01*
X106263390Y-120684523D02*
X106311009Y-120636904D01*
X106311009Y-120636904D02*
X106406247Y-120589285D01*
X106406247Y-120589285D02*
X106644342Y-120589285D01*
X106644342Y-120589285D02*
X106739580Y-120636904D01*
X106739580Y-120636904D02*
X106787200Y-120684523D01*
X106787200Y-120684523D02*
X106834819Y-120779761D01*
X106834819Y-120779761D02*
X106834819Y-121065475D01*
X106834819Y-121065475D02*
X106787200Y-121160713D01*
X106787200Y-121160713D02*
X106739580Y-121208332D01*
X134954819Y-79861904D02*
X135764342Y-79861904D01*
X135764342Y-79861904D02*
X135859580Y-79814285D01*
X135859580Y-79814285D02*
X135907200Y-79766666D01*
X135907200Y-79766666D02*
X135954819Y-79671428D01*
X135954819Y-79671428D02*
X135954819Y-79480952D01*
X135954819Y-79480952D02*
X135907200Y-79385714D01*
X135907200Y-79385714D02*
X135859580Y-79338095D01*
X135859580Y-79338095D02*
X135764342Y-79290476D01*
X135764342Y-79290476D02*
X134954819Y-79290476D01*
X135954819Y-78290476D02*
X135954819Y-78861904D01*
X135954819Y-78576190D02*
X134954819Y-78576190D01*
X134954819Y-78576190D02*
X135097676Y-78671428D01*
X135097676Y-78671428D02*
X135192914Y-78766666D01*
X135192914Y-78766666D02*
X135240533Y-78861904D01*
X119085714Y-87286104D02*
X119047618Y-87324200D01*
X119047618Y-87324200D02*
X118933333Y-87362295D01*
X118933333Y-87362295D02*
X118857142Y-87362295D01*
X118857142Y-87362295D02*
X118742856Y-87324200D01*
X118742856Y-87324200D02*
X118666666Y-87248009D01*
X118666666Y-87248009D02*
X118628571Y-87171819D01*
X118628571Y-87171819D02*
X118590475Y-87019438D01*
X118590475Y-87019438D02*
X118590475Y-86905152D01*
X118590475Y-86905152D02*
X118628571Y-86752771D01*
X118628571Y-86752771D02*
X118666666Y-86676580D01*
X118666666Y-86676580D02*
X118742856Y-86600390D01*
X118742856Y-86600390D02*
X118857142Y-86562295D01*
X118857142Y-86562295D02*
X118933333Y-86562295D01*
X118933333Y-86562295D02*
X119047618Y-86600390D01*
X119047618Y-86600390D02*
X119085714Y-86638485D01*
X119352380Y-86562295D02*
X119847618Y-86562295D01*
X119847618Y-86562295D02*
X119580952Y-86867057D01*
X119580952Y-86867057D02*
X119695237Y-86867057D01*
X119695237Y-86867057D02*
X119771428Y-86905152D01*
X119771428Y-86905152D02*
X119809523Y-86943247D01*
X119809523Y-86943247D02*
X119847618Y-87019438D01*
X119847618Y-87019438D02*
X119847618Y-87209914D01*
X119847618Y-87209914D02*
X119809523Y-87286104D01*
X119809523Y-87286104D02*
X119771428Y-87324200D01*
X119771428Y-87324200D02*
X119695237Y-87362295D01*
X119695237Y-87362295D02*
X119466666Y-87362295D01*
X119466666Y-87362295D02*
X119390475Y-87324200D01*
X119390475Y-87324200D02*
X119352380Y-87286104D01*
X120342857Y-86562295D02*
X120419047Y-86562295D01*
X120419047Y-86562295D02*
X120495238Y-86600390D01*
X120495238Y-86600390D02*
X120533333Y-86638485D01*
X120533333Y-86638485D02*
X120571428Y-86714676D01*
X120571428Y-86714676D02*
X120609523Y-86867057D01*
X120609523Y-86867057D02*
X120609523Y-87057533D01*
X120609523Y-87057533D02*
X120571428Y-87209914D01*
X120571428Y-87209914D02*
X120533333Y-87286104D01*
X120533333Y-87286104D02*
X120495238Y-87324200D01*
X120495238Y-87324200D02*
X120419047Y-87362295D01*
X120419047Y-87362295D02*
X120342857Y-87362295D01*
X120342857Y-87362295D02*
X120266666Y-87324200D01*
X120266666Y-87324200D02*
X120228571Y-87286104D01*
X120228571Y-87286104D02*
X120190476Y-87209914D01*
X120190476Y-87209914D02*
X120152380Y-87057533D01*
X120152380Y-87057533D02*
X120152380Y-86867057D01*
X120152380Y-86867057D02*
X120190476Y-86714676D01*
X120190476Y-86714676D02*
X120228571Y-86638485D01*
X120228571Y-86638485D02*
X120266666Y-86600390D01*
X120266666Y-86600390D02*
X120342857Y-86562295D01*
X118889694Y-100628830D02*
X118889694Y-100696174D01*
X118889694Y-100696174D02*
X118822350Y-100830861D01*
X118822350Y-100830861D02*
X118755007Y-100898204D01*
X118755007Y-100898204D02*
X118620320Y-100965548D01*
X118620320Y-100965548D02*
X118485633Y-100965548D01*
X118485633Y-100965548D02*
X118384618Y-100931876D01*
X118384618Y-100931876D02*
X118216259Y-100830861D01*
X118216259Y-100830861D02*
X118115244Y-100729846D01*
X118115244Y-100729846D02*
X118014228Y-100561487D01*
X118014228Y-100561487D02*
X117980557Y-100460472D01*
X117980557Y-100460472D02*
X117980557Y-100325785D01*
X117980557Y-100325785D02*
X118047900Y-100191098D01*
X118047900Y-100191098D02*
X118115244Y-100123754D01*
X118115244Y-100123754D02*
X118249931Y-100056411D01*
X118249931Y-100056411D02*
X118317274Y-100056411D01*
X118586648Y-99787037D02*
X118586648Y-99719693D01*
X118586648Y-99719693D02*
X118620320Y-99618678D01*
X118620320Y-99618678D02*
X118788679Y-99450319D01*
X118788679Y-99450319D02*
X118889694Y-99416647D01*
X118889694Y-99416647D02*
X118957037Y-99416647D01*
X118957037Y-99416647D02*
X119058053Y-99450319D01*
X119058053Y-99450319D02*
X119125396Y-99517663D01*
X119125396Y-99517663D02*
X119192740Y-99652350D01*
X119192740Y-99652350D02*
X119192740Y-100460472D01*
X119192740Y-100460472D02*
X119630472Y-100022739D01*
X119159068Y-99079930D02*
X119630473Y-98608525D01*
X119630473Y-98608525D02*
X120034534Y-99618678D01*
X111789580Y-118542857D02*
X111837200Y-118590476D01*
X111837200Y-118590476D02*
X111884819Y-118733333D01*
X111884819Y-118733333D02*
X111884819Y-118828571D01*
X111884819Y-118828571D02*
X111837200Y-118971428D01*
X111837200Y-118971428D02*
X111741961Y-119066666D01*
X111741961Y-119066666D02*
X111646723Y-119114285D01*
X111646723Y-119114285D02*
X111456247Y-119161904D01*
X111456247Y-119161904D02*
X111313390Y-119161904D01*
X111313390Y-119161904D02*
X111122914Y-119114285D01*
X111122914Y-119114285D02*
X111027676Y-119066666D01*
X111027676Y-119066666D02*
X110932438Y-118971428D01*
X110932438Y-118971428D02*
X110884819Y-118828571D01*
X110884819Y-118828571D02*
X110884819Y-118733333D01*
X110884819Y-118733333D02*
X110932438Y-118590476D01*
X110932438Y-118590476D02*
X110980057Y-118542857D01*
X110980057Y-118161904D02*
X110932438Y-118114285D01*
X110932438Y-118114285D02*
X110884819Y-118019047D01*
X110884819Y-118019047D02*
X110884819Y-117780952D01*
X110884819Y-117780952D02*
X110932438Y-117685714D01*
X110932438Y-117685714D02*
X110980057Y-117638095D01*
X110980057Y-117638095D02*
X111075295Y-117590476D01*
X111075295Y-117590476D02*
X111170533Y-117590476D01*
X111170533Y-117590476D02*
X111313390Y-117638095D01*
X111313390Y-117638095D02*
X111884819Y-118209523D01*
X111884819Y-118209523D02*
X111884819Y-117590476D01*
X111884819Y-117114285D02*
X111884819Y-116923809D01*
X111884819Y-116923809D02*
X111837200Y-116828571D01*
X111837200Y-116828571D02*
X111789580Y-116780952D01*
X111789580Y-116780952D02*
X111646723Y-116685714D01*
X111646723Y-116685714D02*
X111456247Y-116638095D01*
X111456247Y-116638095D02*
X111075295Y-116638095D01*
X111075295Y-116638095D02*
X110980057Y-116685714D01*
X110980057Y-116685714D02*
X110932438Y-116733333D01*
X110932438Y-116733333D02*
X110884819Y-116828571D01*
X110884819Y-116828571D02*
X110884819Y-117019047D01*
X110884819Y-117019047D02*
X110932438Y-117114285D01*
X110932438Y-117114285D02*
X110980057Y-117161904D01*
X110980057Y-117161904D02*
X111075295Y-117209523D01*
X111075295Y-117209523D02*
X111313390Y-117209523D01*
X111313390Y-117209523D02*
X111408628Y-117161904D01*
X111408628Y-117161904D02*
X111456247Y-117114285D01*
X111456247Y-117114285D02*
X111503866Y-117019047D01*
X111503866Y-117019047D02*
X111503866Y-116828571D01*
X111503866Y-116828571D02*
X111456247Y-116733333D01*
X111456247Y-116733333D02*
X111408628Y-116685714D01*
X111408628Y-116685714D02*
X111313390Y-116638095D01*
X134333333Y-110754819D02*
X134000000Y-110278628D01*
X133761905Y-110754819D02*
X133761905Y-109754819D01*
X133761905Y-109754819D02*
X134142857Y-109754819D01*
X134142857Y-109754819D02*
X134238095Y-109802438D01*
X134238095Y-109802438D02*
X134285714Y-109850057D01*
X134285714Y-109850057D02*
X134333333Y-109945295D01*
X134333333Y-109945295D02*
X134333333Y-110088152D01*
X134333333Y-110088152D02*
X134285714Y-110183390D01*
X134285714Y-110183390D02*
X134238095Y-110231009D01*
X134238095Y-110231009D02*
X134142857Y-110278628D01*
X134142857Y-110278628D02*
X133761905Y-110278628D01*
X134904762Y-110183390D02*
X134809524Y-110135771D01*
X134809524Y-110135771D02*
X134761905Y-110088152D01*
X134761905Y-110088152D02*
X134714286Y-109992914D01*
X134714286Y-109992914D02*
X134714286Y-109945295D01*
X134714286Y-109945295D02*
X134761905Y-109850057D01*
X134761905Y-109850057D02*
X134809524Y-109802438D01*
X134809524Y-109802438D02*
X134904762Y-109754819D01*
X134904762Y-109754819D02*
X135095238Y-109754819D01*
X135095238Y-109754819D02*
X135190476Y-109802438D01*
X135190476Y-109802438D02*
X135238095Y-109850057D01*
X135238095Y-109850057D02*
X135285714Y-109945295D01*
X135285714Y-109945295D02*
X135285714Y-109992914D01*
X135285714Y-109992914D02*
X135238095Y-110088152D01*
X135238095Y-110088152D02*
X135190476Y-110135771D01*
X135190476Y-110135771D02*
X135095238Y-110183390D01*
X135095238Y-110183390D02*
X134904762Y-110183390D01*
X134904762Y-110183390D02*
X134809524Y-110231009D01*
X134809524Y-110231009D02*
X134761905Y-110278628D01*
X134761905Y-110278628D02*
X134714286Y-110373866D01*
X134714286Y-110373866D02*
X134714286Y-110564342D01*
X134714286Y-110564342D02*
X134761905Y-110659580D01*
X134761905Y-110659580D02*
X134809524Y-110707200D01*
X134809524Y-110707200D02*
X134904762Y-110754819D01*
X134904762Y-110754819D02*
X135095238Y-110754819D01*
X135095238Y-110754819D02*
X135190476Y-110707200D01*
X135190476Y-110707200D02*
X135238095Y-110659580D01*
X135238095Y-110659580D02*
X135285714Y-110564342D01*
X135285714Y-110564342D02*
X135285714Y-110373866D01*
X135285714Y-110373866D02*
X135238095Y-110278628D01*
X135238095Y-110278628D02*
X135190476Y-110231009D01*
X135190476Y-110231009D02*
X135095238Y-110183390D01*
X124854819Y-98366666D02*
X124378628Y-98699999D01*
X124854819Y-98938094D02*
X123854819Y-98938094D01*
X123854819Y-98938094D02*
X123854819Y-98557142D01*
X123854819Y-98557142D02*
X123902438Y-98461904D01*
X123902438Y-98461904D02*
X123950057Y-98414285D01*
X123950057Y-98414285D02*
X124045295Y-98366666D01*
X124045295Y-98366666D02*
X124188152Y-98366666D01*
X124188152Y-98366666D02*
X124283390Y-98414285D01*
X124283390Y-98414285D02*
X124331009Y-98461904D01*
X124331009Y-98461904D02*
X124378628Y-98557142D01*
X124378628Y-98557142D02*
X124378628Y-98938094D01*
X124854819Y-97890475D02*
X124854819Y-97699999D01*
X124854819Y-97699999D02*
X124807200Y-97604761D01*
X124807200Y-97604761D02*
X124759580Y-97557142D01*
X124759580Y-97557142D02*
X124616723Y-97461904D01*
X124616723Y-97461904D02*
X124426247Y-97414285D01*
X124426247Y-97414285D02*
X124045295Y-97414285D01*
X124045295Y-97414285D02*
X123950057Y-97461904D01*
X123950057Y-97461904D02*
X123902438Y-97509523D01*
X123902438Y-97509523D02*
X123854819Y-97604761D01*
X123854819Y-97604761D02*
X123854819Y-97795237D01*
X123854819Y-97795237D02*
X123902438Y-97890475D01*
X123902438Y-97890475D02*
X123950057Y-97938094D01*
X123950057Y-97938094D02*
X124045295Y-97985713D01*
X124045295Y-97985713D02*
X124283390Y-97985713D01*
X124283390Y-97985713D02*
X124378628Y-97938094D01*
X124378628Y-97938094D02*
X124426247Y-97890475D01*
X124426247Y-97890475D02*
X124473866Y-97795237D01*
X124473866Y-97795237D02*
X124473866Y-97604761D01*
X124473866Y-97604761D02*
X124426247Y-97509523D01*
X124426247Y-97509523D02*
X124378628Y-97461904D01*
X124378628Y-97461904D02*
X124283390Y-97414285D01*
X117737321Y-120704273D02*
X117737321Y-121514619D01*
X117737321Y-121514619D02*
X117784988Y-121609954D01*
X117784988Y-121609954D02*
X117832656Y-121657622D01*
X117832656Y-121657622D02*
X117927990Y-121705289D01*
X117927990Y-121705289D02*
X118118660Y-121705289D01*
X118118660Y-121705289D02*
X118213995Y-121657622D01*
X118213995Y-121657622D02*
X118261662Y-121609954D01*
X118261662Y-121609954D02*
X118309330Y-121514619D01*
X118309330Y-121514619D02*
X118309330Y-120704273D01*
X118738336Y-120799608D02*
X118786004Y-120751940D01*
X118786004Y-120751940D02*
X118881339Y-120704273D01*
X118881339Y-120704273D02*
X119119676Y-120704273D01*
X119119676Y-120704273D02*
X119215011Y-120751940D01*
X119215011Y-120751940D02*
X119262678Y-120799608D01*
X119262678Y-120799608D02*
X119310345Y-120894943D01*
X119310345Y-120894943D02*
X119310345Y-120990278D01*
X119310345Y-120990278D02*
X119262678Y-121133280D01*
X119262678Y-121133280D02*
X118690669Y-121705289D01*
X118690669Y-121705289D02*
X119310345Y-121705289D01*
X107208333Y-125734819D02*
X106732143Y-125734819D01*
X106732143Y-125734819D02*
X106732143Y-124734819D01*
X107970238Y-125068152D02*
X107970238Y-125734819D01*
X107732143Y-124687200D02*
X107494048Y-125401485D01*
X107494048Y-125401485D02*
X108113095Y-125401485D01*
X124190476Y-124054819D02*
X124857142Y-125054819D01*
X124857142Y-124054819D02*
X124190476Y-125054819D01*
X125761904Y-125054819D02*
X125190476Y-125054819D01*
X125476190Y-125054819D02*
X125476190Y-124054819D01*
X125476190Y-124054819D02*
X125380952Y-124197676D01*
X125380952Y-124197676D02*
X125285714Y-124292914D01*
X125285714Y-124292914D02*
X125190476Y-124340533D01*
X136954819Y-88263333D02*
X137669104Y-88263333D01*
X137669104Y-88263333D02*
X137811961Y-88310952D01*
X137811961Y-88310952D02*
X137907200Y-88406190D01*
X137907200Y-88406190D02*
X137954819Y-88549047D01*
X137954819Y-88549047D02*
X137954819Y-88644285D01*
X136954819Y-87310952D02*
X136954819Y-87787142D01*
X136954819Y-87787142D02*
X137431009Y-87834761D01*
X137431009Y-87834761D02*
X137383390Y-87787142D01*
X137383390Y-87787142D02*
X137335771Y-87691904D01*
X137335771Y-87691904D02*
X137335771Y-87453809D01*
X137335771Y-87453809D02*
X137383390Y-87358571D01*
X137383390Y-87358571D02*
X137431009Y-87310952D01*
X137431009Y-87310952D02*
X137526247Y-87263333D01*
X137526247Y-87263333D02*
X137764342Y-87263333D01*
X137764342Y-87263333D02*
X137859580Y-87310952D01*
X137859580Y-87310952D02*
X137907200Y-87358571D01*
X137907200Y-87358571D02*
X137954819Y-87453809D01*
X137954819Y-87453809D02*
X137954819Y-87691904D01*
X137954819Y-87691904D02*
X137907200Y-87787142D01*
X137907200Y-87787142D02*
X137859580Y-87834761D01*
X113133333Y-122859580D02*
X113085714Y-122907200D01*
X113085714Y-122907200D02*
X112942857Y-122954819D01*
X112942857Y-122954819D02*
X112847619Y-122954819D01*
X112847619Y-122954819D02*
X112704762Y-122907200D01*
X112704762Y-122907200D02*
X112609524Y-122811961D01*
X112609524Y-122811961D02*
X112561905Y-122716723D01*
X112561905Y-122716723D02*
X112514286Y-122526247D01*
X112514286Y-122526247D02*
X112514286Y-122383390D01*
X112514286Y-122383390D02*
X112561905Y-122192914D01*
X112561905Y-122192914D02*
X112609524Y-122097676D01*
X112609524Y-122097676D02*
X112704762Y-122002438D01*
X112704762Y-122002438D02*
X112847619Y-121954819D01*
X112847619Y-121954819D02*
X112942857Y-121954819D01*
X112942857Y-121954819D02*
X113085714Y-122002438D01*
X113085714Y-122002438D02*
X113133333Y-122050057D01*
X113990476Y-121954819D02*
X113800000Y-121954819D01*
X113800000Y-121954819D02*
X113704762Y-122002438D01*
X113704762Y-122002438D02*
X113657143Y-122050057D01*
X113657143Y-122050057D02*
X113561905Y-122192914D01*
X113561905Y-122192914D02*
X113514286Y-122383390D01*
X113514286Y-122383390D02*
X113514286Y-122764342D01*
X113514286Y-122764342D02*
X113561905Y-122859580D01*
X113561905Y-122859580D02*
X113609524Y-122907200D01*
X113609524Y-122907200D02*
X113704762Y-122954819D01*
X113704762Y-122954819D02*
X113895238Y-122954819D01*
X113895238Y-122954819D02*
X113990476Y-122907200D01*
X113990476Y-122907200D02*
X114038095Y-122859580D01*
X114038095Y-122859580D02*
X114085714Y-122764342D01*
X114085714Y-122764342D02*
X114085714Y-122526247D01*
X114085714Y-122526247D02*
X114038095Y-122431009D01*
X114038095Y-122431009D02*
X113990476Y-122383390D01*
X113990476Y-122383390D02*
X113895238Y-122335771D01*
X113895238Y-122335771D02*
X113704762Y-122335771D01*
X113704762Y-122335771D02*
X113609524Y-122383390D01*
X113609524Y-122383390D02*
X113561905Y-122431009D01*
X113561905Y-122431009D02*
X113514286Y-122526247D01*
X120954819Y-93961904D02*
X121764342Y-93961904D01*
X121764342Y-93961904D02*
X121859580Y-93914285D01*
X121859580Y-93914285D02*
X121907200Y-93866666D01*
X121907200Y-93866666D02*
X121954819Y-93771428D01*
X121954819Y-93771428D02*
X121954819Y-93580952D01*
X121954819Y-93580952D02*
X121907200Y-93485714D01*
X121907200Y-93485714D02*
X121859580Y-93438095D01*
X121859580Y-93438095D02*
X121764342Y-93390476D01*
X121764342Y-93390476D02*
X120954819Y-93390476D01*
X121954819Y-92866666D02*
X121954819Y-92676190D01*
X121954819Y-92676190D02*
X121907200Y-92580952D01*
X121907200Y-92580952D02*
X121859580Y-92533333D01*
X121859580Y-92533333D02*
X121716723Y-92438095D01*
X121716723Y-92438095D02*
X121526247Y-92390476D01*
X121526247Y-92390476D02*
X121145295Y-92390476D01*
X121145295Y-92390476D02*
X121050057Y-92438095D01*
X121050057Y-92438095D02*
X121002438Y-92485714D01*
X121002438Y-92485714D02*
X120954819Y-92580952D01*
X120954819Y-92580952D02*
X120954819Y-92771428D01*
X120954819Y-92771428D02*
X121002438Y-92866666D01*
X121002438Y-92866666D02*
X121050057Y-92914285D01*
X121050057Y-92914285D02*
X121145295Y-92961904D01*
X121145295Y-92961904D02*
X121383390Y-92961904D01*
X121383390Y-92961904D02*
X121478628Y-92914285D01*
X121478628Y-92914285D02*
X121526247Y-92866666D01*
X121526247Y-92866666D02*
X121573866Y-92771428D01*
X121573866Y-92771428D02*
X121573866Y-92580952D01*
X121573866Y-92580952D02*
X121526247Y-92485714D01*
X121526247Y-92485714D02*
X121478628Y-92438095D01*
X121478628Y-92438095D02*
X121383390Y-92390476D01*
X112086665Y-89394819D02*
X112086665Y-90109104D01*
X112086665Y-90109104D02*
X112039046Y-90251961D01*
X112039046Y-90251961D02*
X111943808Y-90347200D01*
X111943808Y-90347200D02*
X111800951Y-90394819D01*
X111800951Y-90394819D02*
X111705713Y-90394819D01*
X112991427Y-89394819D02*
X112800951Y-89394819D01*
X112800951Y-89394819D02*
X112705713Y-89442438D01*
X112705713Y-89442438D02*
X112658094Y-89490057D01*
X112658094Y-89490057D02*
X112562856Y-89632914D01*
X112562856Y-89632914D02*
X112515237Y-89823390D01*
X112515237Y-89823390D02*
X112515237Y-90204342D01*
X112515237Y-90204342D02*
X112562856Y-90299580D01*
X112562856Y-90299580D02*
X112610475Y-90347200D01*
X112610475Y-90347200D02*
X112705713Y-90394819D01*
X112705713Y-90394819D02*
X112896189Y-90394819D01*
X112896189Y-90394819D02*
X112991427Y-90347200D01*
X112991427Y-90347200D02*
X113039046Y-90299580D01*
X113039046Y-90299580D02*
X113086665Y-90204342D01*
X113086665Y-90204342D02*
X113086665Y-89966247D01*
X113086665Y-89966247D02*
X113039046Y-89871009D01*
X113039046Y-89871009D02*
X112991427Y-89823390D01*
X112991427Y-89823390D02*
X112896189Y-89775771D01*
X112896189Y-89775771D02*
X112705713Y-89775771D01*
X112705713Y-89775771D02*
X112610475Y-89823390D01*
X112610475Y-89823390D02*
X112562856Y-89871009D01*
X112562856Y-89871009D02*
X112515237Y-89966247D01*
X100057142Y-102534819D02*
X99723809Y-102058628D01*
X99485714Y-102534819D02*
X99485714Y-101534819D01*
X99485714Y-101534819D02*
X99866666Y-101534819D01*
X99866666Y-101534819D02*
X99961904Y-101582438D01*
X99961904Y-101582438D02*
X100009523Y-101630057D01*
X100009523Y-101630057D02*
X100057142Y-101725295D01*
X100057142Y-101725295D02*
X100057142Y-101868152D01*
X100057142Y-101868152D02*
X100009523Y-101963390D01*
X100009523Y-101963390D02*
X99961904Y-102011009D01*
X99961904Y-102011009D02*
X99866666Y-102058628D01*
X99866666Y-102058628D02*
X99485714Y-102058628D01*
X101009523Y-102534819D02*
X100438095Y-102534819D01*
X100723809Y-102534819D02*
X100723809Y-101534819D01*
X100723809Y-101534819D02*
X100628571Y-101677676D01*
X100628571Y-101677676D02*
X100533333Y-101772914D01*
X100533333Y-101772914D02*
X100438095Y-101820533D01*
X101342857Y-101534819D02*
X102009523Y-101534819D01*
X102009523Y-101534819D02*
X101580952Y-102534819D01*
X103908333Y-125734819D02*
X103432143Y-125734819D01*
X103432143Y-125734819D02*
X103432143Y-124734819D01*
X104717857Y-124734819D02*
X104241667Y-124734819D01*
X104241667Y-124734819D02*
X104194048Y-125211009D01*
X104194048Y-125211009D02*
X104241667Y-125163390D01*
X104241667Y-125163390D02*
X104336905Y-125115771D01*
X104336905Y-125115771D02*
X104575000Y-125115771D01*
X104575000Y-125115771D02*
X104670238Y-125163390D01*
X104670238Y-125163390D02*
X104717857Y-125211009D01*
X104717857Y-125211009D02*
X104765476Y-125306247D01*
X104765476Y-125306247D02*
X104765476Y-125544342D01*
X104765476Y-125544342D02*
X104717857Y-125639580D01*
X104717857Y-125639580D02*
X104670238Y-125687200D01*
X104670238Y-125687200D02*
X104575000Y-125734819D01*
X104575000Y-125734819D02*
X104336905Y-125734819D01*
X104336905Y-125734819D02*
X104241667Y-125687200D01*
X104241667Y-125687200D02*
X104194048Y-125639580D01*
X126161905Y-111654819D02*
X126161905Y-110654819D01*
X126161905Y-110654819D02*
X126400000Y-110654819D01*
X126400000Y-110654819D02*
X126542857Y-110702438D01*
X126542857Y-110702438D02*
X126638095Y-110797676D01*
X126638095Y-110797676D02*
X126685714Y-110892914D01*
X126685714Y-110892914D02*
X126733333Y-111083390D01*
X126733333Y-111083390D02*
X126733333Y-111226247D01*
X126733333Y-111226247D02*
X126685714Y-111416723D01*
X126685714Y-111416723D02*
X126638095Y-111511961D01*
X126638095Y-111511961D02*
X126542857Y-111607200D01*
X126542857Y-111607200D02*
X126400000Y-111654819D01*
X126400000Y-111654819D02*
X126161905Y-111654819D01*
X127066667Y-110654819D02*
X127685714Y-110654819D01*
X127685714Y-110654819D02*
X127352381Y-111035771D01*
X127352381Y-111035771D02*
X127495238Y-111035771D01*
X127495238Y-111035771D02*
X127590476Y-111083390D01*
X127590476Y-111083390D02*
X127638095Y-111131009D01*
X127638095Y-111131009D02*
X127685714Y-111226247D01*
X127685714Y-111226247D02*
X127685714Y-111464342D01*
X127685714Y-111464342D02*
X127638095Y-111559580D01*
X127638095Y-111559580D02*
X127590476Y-111607200D01*
X127590476Y-111607200D02*
X127495238Y-111654819D01*
X127495238Y-111654819D02*
X127209524Y-111654819D01*
X127209524Y-111654819D02*
X127114286Y-111607200D01*
X127114286Y-111607200D02*
X127066667Y-111559580D01*
X116557142Y-102859580D02*
X116509523Y-102907200D01*
X116509523Y-102907200D02*
X116366666Y-102954819D01*
X116366666Y-102954819D02*
X116271428Y-102954819D01*
X116271428Y-102954819D02*
X116128571Y-102907200D01*
X116128571Y-102907200D02*
X116033333Y-102811961D01*
X116033333Y-102811961D02*
X115985714Y-102716723D01*
X115985714Y-102716723D02*
X115938095Y-102526247D01*
X115938095Y-102526247D02*
X115938095Y-102383390D01*
X115938095Y-102383390D02*
X115985714Y-102192914D01*
X115985714Y-102192914D02*
X116033333Y-102097676D01*
X116033333Y-102097676D02*
X116128571Y-102002438D01*
X116128571Y-102002438D02*
X116271428Y-101954819D01*
X116271428Y-101954819D02*
X116366666Y-101954819D01*
X116366666Y-101954819D02*
X116509523Y-102002438D01*
X116509523Y-102002438D02*
X116557142Y-102050057D01*
X117509523Y-102954819D02*
X116938095Y-102954819D01*
X117223809Y-102954819D02*
X117223809Y-101954819D01*
X117223809Y-101954819D02*
X117128571Y-102097676D01*
X117128571Y-102097676D02*
X117033333Y-102192914D01*
X117033333Y-102192914D02*
X116938095Y-102240533D01*
X118080952Y-102383390D02*
X117985714Y-102335771D01*
X117985714Y-102335771D02*
X117938095Y-102288152D01*
X117938095Y-102288152D02*
X117890476Y-102192914D01*
X117890476Y-102192914D02*
X117890476Y-102145295D01*
X117890476Y-102145295D02*
X117938095Y-102050057D01*
X117938095Y-102050057D02*
X117985714Y-102002438D01*
X117985714Y-102002438D02*
X118080952Y-101954819D01*
X118080952Y-101954819D02*
X118271428Y-101954819D01*
X118271428Y-101954819D02*
X118366666Y-102002438D01*
X118366666Y-102002438D02*
X118414285Y-102050057D01*
X118414285Y-102050057D02*
X118461904Y-102145295D01*
X118461904Y-102145295D02*
X118461904Y-102192914D01*
X118461904Y-102192914D02*
X118414285Y-102288152D01*
X118414285Y-102288152D02*
X118366666Y-102335771D01*
X118366666Y-102335771D02*
X118271428Y-102383390D01*
X118271428Y-102383390D02*
X118080952Y-102383390D01*
X118080952Y-102383390D02*
X117985714Y-102431009D01*
X117985714Y-102431009D02*
X117938095Y-102478628D01*
X117938095Y-102478628D02*
X117890476Y-102573866D01*
X117890476Y-102573866D02*
X117890476Y-102764342D01*
X117890476Y-102764342D02*
X117938095Y-102859580D01*
X117938095Y-102859580D02*
X117985714Y-102907200D01*
X117985714Y-102907200D02*
X118080952Y-102954819D01*
X118080952Y-102954819D02*
X118271428Y-102954819D01*
X118271428Y-102954819D02*
X118366666Y-102907200D01*
X118366666Y-102907200D02*
X118414285Y-102859580D01*
X118414285Y-102859580D02*
X118461904Y-102764342D01*
X118461904Y-102764342D02*
X118461904Y-102573866D01*
X118461904Y-102573866D02*
X118414285Y-102478628D01*
X118414285Y-102478628D02*
X118366666Y-102431009D01*
X118366666Y-102431009D02*
X118271428Y-102383390D01*
X120309592Y-103045366D02*
X120261973Y-103092986D01*
X120261973Y-103092986D02*
X120119116Y-103140605D01*
X120119116Y-103140605D02*
X120023878Y-103140605D01*
X120023878Y-103140605D02*
X119881021Y-103092986D01*
X119881021Y-103092986D02*
X119785783Y-102997747D01*
X119785783Y-102997747D02*
X119738164Y-102902509D01*
X119738164Y-102902509D02*
X119690545Y-102712033D01*
X119690545Y-102712033D02*
X119690545Y-102569176D01*
X119690545Y-102569176D02*
X119738164Y-102378700D01*
X119738164Y-102378700D02*
X119785783Y-102283462D01*
X119785783Y-102283462D02*
X119881021Y-102188224D01*
X119881021Y-102188224D02*
X120023878Y-102140605D01*
X120023878Y-102140605D02*
X120119116Y-102140605D01*
X120119116Y-102140605D02*
X120261973Y-102188224D01*
X120261973Y-102188224D02*
X120309592Y-102235843D01*
X120690545Y-102235843D02*
X120738164Y-102188224D01*
X120738164Y-102188224D02*
X120833402Y-102140605D01*
X120833402Y-102140605D02*
X121071497Y-102140605D01*
X121071497Y-102140605D02*
X121166735Y-102188224D01*
X121166735Y-102188224D02*
X121214354Y-102235843D01*
X121214354Y-102235843D02*
X121261973Y-102331081D01*
X121261973Y-102331081D02*
X121261973Y-102426319D01*
X121261973Y-102426319D02*
X121214354Y-102569176D01*
X121214354Y-102569176D02*
X120642926Y-103140605D01*
X120642926Y-103140605D02*
X121261973Y-103140605D01*
X122214354Y-103140605D02*
X121642926Y-103140605D01*
X121928640Y-103140605D02*
X121928640Y-102140605D01*
X121928640Y-102140605D02*
X121833402Y-102283462D01*
X121833402Y-102283462D02*
X121738164Y-102378700D01*
X121738164Y-102378700D02*
X121642926Y-102426319D01*
X114633333Y-127159580D02*
X114585714Y-127207200D01*
X114585714Y-127207200D02*
X114442857Y-127254819D01*
X114442857Y-127254819D02*
X114347619Y-127254819D01*
X114347619Y-127254819D02*
X114204762Y-127207200D01*
X114204762Y-127207200D02*
X114109524Y-127111961D01*
X114109524Y-127111961D02*
X114061905Y-127016723D01*
X114061905Y-127016723D02*
X114014286Y-126826247D01*
X114014286Y-126826247D02*
X114014286Y-126683390D01*
X114014286Y-126683390D02*
X114061905Y-126492914D01*
X114061905Y-126492914D02*
X114109524Y-126397676D01*
X114109524Y-126397676D02*
X114204762Y-126302438D01*
X114204762Y-126302438D02*
X114347619Y-126254819D01*
X114347619Y-126254819D02*
X114442857Y-126254819D01*
X114442857Y-126254819D02*
X114585714Y-126302438D01*
X114585714Y-126302438D02*
X114633333Y-126350057D01*
X115585714Y-127254819D02*
X115014286Y-127254819D01*
X115300000Y-127254819D02*
X115300000Y-126254819D01*
X115300000Y-126254819D02*
X115204762Y-126397676D01*
X115204762Y-126397676D02*
X115109524Y-126492914D01*
X115109524Y-126492914D02*
X115014286Y-126540533D01*
X110064580Y-121616666D02*
X110112200Y-121664285D01*
X110112200Y-121664285D02*
X110159819Y-121807142D01*
X110159819Y-121807142D02*
X110159819Y-121902380D01*
X110159819Y-121902380D02*
X110112200Y-122045237D01*
X110112200Y-122045237D02*
X110016961Y-122140475D01*
X110016961Y-122140475D02*
X109921723Y-122188094D01*
X109921723Y-122188094D02*
X109731247Y-122235713D01*
X109731247Y-122235713D02*
X109588390Y-122235713D01*
X109588390Y-122235713D02*
X109397914Y-122188094D01*
X109397914Y-122188094D02*
X109302676Y-122140475D01*
X109302676Y-122140475D02*
X109207438Y-122045237D01*
X109207438Y-122045237D02*
X109159819Y-121902380D01*
X109159819Y-121902380D02*
X109159819Y-121807142D01*
X109159819Y-121807142D02*
X109207438Y-121664285D01*
X109207438Y-121664285D02*
X109255057Y-121616666D01*
X109255057Y-121235713D02*
X109207438Y-121188094D01*
X109207438Y-121188094D02*
X109159819Y-121092856D01*
X109159819Y-121092856D02*
X109159819Y-120854761D01*
X109159819Y-120854761D02*
X109207438Y-120759523D01*
X109207438Y-120759523D02*
X109255057Y-120711904D01*
X109255057Y-120711904D02*
X109350295Y-120664285D01*
X109350295Y-120664285D02*
X109445533Y-120664285D01*
X109445533Y-120664285D02*
X109588390Y-120711904D01*
X109588390Y-120711904D02*
X110159819Y-121283332D01*
X110159819Y-121283332D02*
X110159819Y-120664285D01*
X126534819Y-126483333D02*
X127249104Y-126483333D01*
X127249104Y-126483333D02*
X127391961Y-126530952D01*
X127391961Y-126530952D02*
X127487200Y-126626190D01*
X127487200Y-126626190D02*
X127534819Y-126769047D01*
X127534819Y-126769047D02*
X127534819Y-126864285D01*
X126630057Y-126054761D02*
X126582438Y-126007142D01*
X126582438Y-126007142D02*
X126534819Y-125911904D01*
X126534819Y-125911904D02*
X126534819Y-125673809D01*
X126534819Y-125673809D02*
X126582438Y-125578571D01*
X126582438Y-125578571D02*
X126630057Y-125530952D01*
X126630057Y-125530952D02*
X126725295Y-125483333D01*
X126725295Y-125483333D02*
X126820533Y-125483333D01*
X126820533Y-125483333D02*
X126963390Y-125530952D01*
X126963390Y-125530952D02*
X127534819Y-126102380D01*
X127534819Y-126102380D02*
X127534819Y-125483333D01*
X131333333Y-121429580D02*
X131285714Y-121477200D01*
X131285714Y-121477200D02*
X131142857Y-121524819D01*
X131142857Y-121524819D02*
X131047619Y-121524819D01*
X131047619Y-121524819D02*
X130904762Y-121477200D01*
X130904762Y-121477200D02*
X130809524Y-121381961D01*
X130809524Y-121381961D02*
X130761905Y-121286723D01*
X130761905Y-121286723D02*
X130714286Y-121096247D01*
X130714286Y-121096247D02*
X130714286Y-120953390D01*
X130714286Y-120953390D02*
X130761905Y-120762914D01*
X130761905Y-120762914D02*
X130809524Y-120667676D01*
X130809524Y-120667676D02*
X130904762Y-120572438D01*
X130904762Y-120572438D02*
X131047619Y-120524819D01*
X131047619Y-120524819D02*
X131142857Y-120524819D01*
X131142857Y-120524819D02*
X131285714Y-120572438D01*
X131285714Y-120572438D02*
X131333333Y-120620057D01*
X132238095Y-120524819D02*
X131761905Y-120524819D01*
X131761905Y-120524819D02*
X131714286Y-121001009D01*
X131714286Y-121001009D02*
X131761905Y-120953390D01*
X131761905Y-120953390D02*
X131857143Y-120905771D01*
X131857143Y-120905771D02*
X132095238Y-120905771D01*
X132095238Y-120905771D02*
X132190476Y-120953390D01*
X132190476Y-120953390D02*
X132238095Y-121001009D01*
X132238095Y-121001009D02*
X132285714Y-121096247D01*
X132285714Y-121096247D02*
X132285714Y-121334342D01*
X132285714Y-121334342D02*
X132238095Y-121429580D01*
X132238095Y-121429580D02*
X132190476Y-121477200D01*
X132190476Y-121477200D02*
X132095238Y-121524819D01*
X132095238Y-121524819D02*
X131857143Y-121524819D01*
X131857143Y-121524819D02*
X131761905Y-121477200D01*
X131761905Y-121477200D02*
X131714286Y-121429580D01*
X98463333Y-106514819D02*
X98130000Y-106038628D01*
X97891905Y-106514819D02*
X97891905Y-105514819D01*
X97891905Y-105514819D02*
X98272857Y-105514819D01*
X98272857Y-105514819D02*
X98368095Y-105562438D01*
X98368095Y-105562438D02*
X98415714Y-105610057D01*
X98415714Y-105610057D02*
X98463333Y-105705295D01*
X98463333Y-105705295D02*
X98463333Y-105848152D01*
X98463333Y-105848152D02*
X98415714Y-105943390D01*
X98415714Y-105943390D02*
X98368095Y-105991009D01*
X98368095Y-105991009D02*
X98272857Y-106038628D01*
X98272857Y-106038628D02*
X97891905Y-106038628D01*
X99368095Y-105514819D02*
X98891905Y-105514819D01*
X98891905Y-105514819D02*
X98844286Y-105991009D01*
X98844286Y-105991009D02*
X98891905Y-105943390D01*
X98891905Y-105943390D02*
X98987143Y-105895771D01*
X98987143Y-105895771D02*
X99225238Y-105895771D01*
X99225238Y-105895771D02*
X99320476Y-105943390D01*
X99320476Y-105943390D02*
X99368095Y-105991009D01*
X99368095Y-105991009D02*
X99415714Y-106086247D01*
X99415714Y-106086247D02*
X99415714Y-106324342D01*
X99415714Y-106324342D02*
X99368095Y-106419580D01*
X99368095Y-106419580D02*
X99320476Y-106467200D01*
X99320476Y-106467200D02*
X99225238Y-106514819D01*
X99225238Y-106514819D02*
X98987143Y-106514819D01*
X98987143Y-106514819D02*
X98891905Y-106467200D01*
X98891905Y-106467200D02*
X98844286Y-106419580D01*
X100254819Y-96838094D02*
X101064342Y-96838094D01*
X101064342Y-96838094D02*
X101159580Y-96790475D01*
X101159580Y-96790475D02*
X101207200Y-96742856D01*
X101207200Y-96742856D02*
X101254819Y-96647618D01*
X101254819Y-96647618D02*
X101254819Y-96457142D01*
X101254819Y-96457142D02*
X101207200Y-96361904D01*
X101207200Y-96361904D02*
X101159580Y-96314285D01*
X101159580Y-96314285D02*
X101064342Y-96266666D01*
X101064342Y-96266666D02*
X100254819Y-96266666D01*
X101254819Y-95266666D02*
X101254819Y-95838094D01*
X101254819Y-95552380D02*
X100254819Y-95552380D01*
X100254819Y-95552380D02*
X100397676Y-95647618D01*
X100397676Y-95647618D02*
X100492914Y-95742856D01*
X100492914Y-95742856D02*
X100540533Y-95838094D01*
X100254819Y-94647618D02*
X100254819Y-94552380D01*
X100254819Y-94552380D02*
X100302438Y-94457142D01*
X100302438Y-94457142D02*
X100350057Y-94409523D01*
X100350057Y-94409523D02*
X100445295Y-94361904D01*
X100445295Y-94361904D02*
X100635771Y-94314285D01*
X100635771Y-94314285D02*
X100873866Y-94314285D01*
X100873866Y-94314285D02*
X101064342Y-94361904D01*
X101064342Y-94361904D02*
X101159580Y-94409523D01*
X101159580Y-94409523D02*
X101207200Y-94457142D01*
X101207200Y-94457142D02*
X101254819Y-94552380D01*
X101254819Y-94552380D02*
X101254819Y-94647618D01*
X101254819Y-94647618D02*
X101207200Y-94742856D01*
X101207200Y-94742856D02*
X101159580Y-94790475D01*
X101159580Y-94790475D02*
X101064342Y-94838094D01*
X101064342Y-94838094D02*
X100873866Y-94885713D01*
X100873866Y-94885713D02*
X100635771Y-94885713D01*
X100635771Y-94885713D02*
X100445295Y-94838094D01*
X100445295Y-94838094D02*
X100350057Y-94790475D01*
X100350057Y-94790475D02*
X100302438Y-94742856D01*
X100302438Y-94742856D02*
X100254819Y-94647618D01*
X122333333Y-88854819D02*
X122000000Y-88378628D01*
X121761905Y-88854819D02*
X121761905Y-87854819D01*
X121761905Y-87854819D02*
X122142857Y-87854819D01*
X122142857Y-87854819D02*
X122238095Y-87902438D01*
X122238095Y-87902438D02*
X122285714Y-87950057D01*
X122285714Y-87950057D02*
X122333333Y-88045295D01*
X122333333Y-88045295D02*
X122333333Y-88188152D01*
X122333333Y-88188152D02*
X122285714Y-88283390D01*
X122285714Y-88283390D02*
X122238095Y-88331009D01*
X122238095Y-88331009D02*
X122142857Y-88378628D01*
X122142857Y-88378628D02*
X121761905Y-88378628D01*
X122714286Y-87950057D02*
X122761905Y-87902438D01*
X122761905Y-87902438D02*
X122857143Y-87854819D01*
X122857143Y-87854819D02*
X123095238Y-87854819D01*
X123095238Y-87854819D02*
X123190476Y-87902438D01*
X123190476Y-87902438D02*
X123238095Y-87950057D01*
X123238095Y-87950057D02*
X123285714Y-88045295D01*
X123285714Y-88045295D02*
X123285714Y-88140533D01*
X123285714Y-88140533D02*
X123238095Y-88283390D01*
X123238095Y-88283390D02*
X122666667Y-88854819D01*
X122666667Y-88854819D02*
X123285714Y-88854819D01*
X109738095Y-101254819D02*
X109738095Y-102064342D01*
X109738095Y-102064342D02*
X109785714Y-102159580D01*
X109785714Y-102159580D02*
X109833333Y-102207200D01*
X109833333Y-102207200D02*
X109928571Y-102254819D01*
X109928571Y-102254819D02*
X110119047Y-102254819D01*
X110119047Y-102254819D02*
X110214285Y-102207200D01*
X110214285Y-102207200D02*
X110261904Y-102159580D01*
X110261904Y-102159580D02*
X110309523Y-102064342D01*
X110309523Y-102064342D02*
X110309523Y-101254819D01*
X110690476Y-101254819D02*
X111357142Y-101254819D01*
X111357142Y-101254819D02*
X110928571Y-102254819D01*
X96457142Y-89159580D02*
X96409523Y-89207200D01*
X96409523Y-89207200D02*
X96266666Y-89254819D01*
X96266666Y-89254819D02*
X96171428Y-89254819D01*
X96171428Y-89254819D02*
X96028571Y-89207200D01*
X96028571Y-89207200D02*
X95933333Y-89111961D01*
X95933333Y-89111961D02*
X95885714Y-89016723D01*
X95885714Y-89016723D02*
X95838095Y-88826247D01*
X95838095Y-88826247D02*
X95838095Y-88683390D01*
X95838095Y-88683390D02*
X95885714Y-88492914D01*
X95885714Y-88492914D02*
X95933333Y-88397676D01*
X95933333Y-88397676D02*
X96028571Y-88302438D01*
X96028571Y-88302438D02*
X96171428Y-88254819D01*
X96171428Y-88254819D02*
X96266666Y-88254819D01*
X96266666Y-88254819D02*
X96409523Y-88302438D01*
X96409523Y-88302438D02*
X96457142Y-88350057D01*
X96790476Y-88254819D02*
X97409523Y-88254819D01*
X97409523Y-88254819D02*
X97076190Y-88635771D01*
X97076190Y-88635771D02*
X97219047Y-88635771D01*
X97219047Y-88635771D02*
X97314285Y-88683390D01*
X97314285Y-88683390D02*
X97361904Y-88731009D01*
X97361904Y-88731009D02*
X97409523Y-88826247D01*
X97409523Y-88826247D02*
X97409523Y-89064342D01*
X97409523Y-89064342D02*
X97361904Y-89159580D01*
X97361904Y-89159580D02*
X97314285Y-89207200D01*
X97314285Y-89207200D02*
X97219047Y-89254819D01*
X97219047Y-89254819D02*
X96933333Y-89254819D01*
X96933333Y-89254819D02*
X96838095Y-89207200D01*
X96838095Y-89207200D02*
X96790476Y-89159580D01*
X97790476Y-88350057D02*
X97838095Y-88302438D01*
X97838095Y-88302438D02*
X97933333Y-88254819D01*
X97933333Y-88254819D02*
X98171428Y-88254819D01*
X98171428Y-88254819D02*
X98266666Y-88302438D01*
X98266666Y-88302438D02*
X98314285Y-88350057D01*
X98314285Y-88350057D02*
X98361904Y-88445295D01*
X98361904Y-88445295D02*
X98361904Y-88540533D01*
X98361904Y-88540533D02*
X98314285Y-88683390D01*
X98314285Y-88683390D02*
X97742857Y-89254819D01*
X97742857Y-89254819D02*
X98361904Y-89254819D01*
X118157142Y-112689580D02*
X118109523Y-112737200D01*
X118109523Y-112737200D02*
X117966666Y-112784819D01*
X117966666Y-112784819D02*
X117871428Y-112784819D01*
X117871428Y-112784819D02*
X117728571Y-112737200D01*
X117728571Y-112737200D02*
X117633333Y-112641961D01*
X117633333Y-112641961D02*
X117585714Y-112546723D01*
X117585714Y-112546723D02*
X117538095Y-112356247D01*
X117538095Y-112356247D02*
X117538095Y-112213390D01*
X117538095Y-112213390D02*
X117585714Y-112022914D01*
X117585714Y-112022914D02*
X117633333Y-111927676D01*
X117633333Y-111927676D02*
X117728571Y-111832438D01*
X117728571Y-111832438D02*
X117871428Y-111784819D01*
X117871428Y-111784819D02*
X117966666Y-111784819D01*
X117966666Y-111784819D02*
X118109523Y-111832438D01*
X118109523Y-111832438D02*
X118157142Y-111880057D01*
X118538095Y-111880057D02*
X118585714Y-111832438D01*
X118585714Y-111832438D02*
X118680952Y-111784819D01*
X118680952Y-111784819D02*
X118919047Y-111784819D01*
X118919047Y-111784819D02*
X119014285Y-111832438D01*
X119014285Y-111832438D02*
X119061904Y-111880057D01*
X119061904Y-111880057D02*
X119109523Y-111975295D01*
X119109523Y-111975295D02*
X119109523Y-112070533D01*
X119109523Y-112070533D02*
X119061904Y-112213390D01*
X119061904Y-112213390D02*
X118490476Y-112784819D01*
X118490476Y-112784819D02*
X119109523Y-112784819D01*
X119966666Y-112118152D02*
X119966666Y-112784819D01*
X119728571Y-111737200D02*
X119490476Y-112451485D01*
X119490476Y-112451485D02*
X120109523Y-112451485D01*
X135716666Y-111854819D02*
X135716666Y-112569104D01*
X135716666Y-112569104D02*
X135669047Y-112711961D01*
X135669047Y-112711961D02*
X135573809Y-112807200D01*
X135573809Y-112807200D02*
X135430952Y-112854819D01*
X135430952Y-112854819D02*
X135335714Y-112854819D01*
X136097619Y-111854819D02*
X136716666Y-111854819D01*
X136716666Y-111854819D02*
X136383333Y-112235771D01*
X136383333Y-112235771D02*
X136526190Y-112235771D01*
X136526190Y-112235771D02*
X136621428Y-112283390D01*
X136621428Y-112283390D02*
X136669047Y-112331009D01*
X136669047Y-112331009D02*
X136716666Y-112426247D01*
X136716666Y-112426247D02*
X136716666Y-112664342D01*
X136716666Y-112664342D02*
X136669047Y-112759580D01*
X136669047Y-112759580D02*
X136621428Y-112807200D01*
X136621428Y-112807200D02*
X136526190Y-112854819D01*
X136526190Y-112854819D02*
X136240476Y-112854819D01*
X136240476Y-112854819D02*
X136145238Y-112807200D01*
X136145238Y-112807200D02*
X136097619Y-112759580D01*
X103557142Y-106324819D02*
X103223809Y-105848628D01*
X102985714Y-106324819D02*
X102985714Y-105324819D01*
X102985714Y-105324819D02*
X103366666Y-105324819D01*
X103366666Y-105324819D02*
X103461904Y-105372438D01*
X103461904Y-105372438D02*
X103509523Y-105420057D01*
X103509523Y-105420057D02*
X103557142Y-105515295D01*
X103557142Y-105515295D02*
X103557142Y-105658152D01*
X103557142Y-105658152D02*
X103509523Y-105753390D01*
X103509523Y-105753390D02*
X103461904Y-105801009D01*
X103461904Y-105801009D02*
X103366666Y-105848628D01*
X103366666Y-105848628D02*
X102985714Y-105848628D01*
X104509523Y-106324819D02*
X103938095Y-106324819D01*
X104223809Y-106324819D02*
X104223809Y-105324819D01*
X104223809Y-105324819D02*
X104128571Y-105467676D01*
X104128571Y-105467676D02*
X104033333Y-105562914D01*
X104033333Y-105562914D02*
X103938095Y-105610533D01*
X105128571Y-105324819D02*
X105223809Y-105324819D01*
X105223809Y-105324819D02*
X105319047Y-105372438D01*
X105319047Y-105372438D02*
X105366666Y-105420057D01*
X105366666Y-105420057D02*
X105414285Y-105515295D01*
X105414285Y-105515295D02*
X105461904Y-105705771D01*
X105461904Y-105705771D02*
X105461904Y-105943866D01*
X105461904Y-105943866D02*
X105414285Y-106134342D01*
X105414285Y-106134342D02*
X105366666Y-106229580D01*
X105366666Y-106229580D02*
X105319047Y-106277200D01*
X105319047Y-106277200D02*
X105223809Y-106324819D01*
X105223809Y-106324819D02*
X105128571Y-106324819D01*
X105128571Y-106324819D02*
X105033333Y-106277200D01*
X105033333Y-106277200D02*
X104985714Y-106229580D01*
X104985714Y-106229580D02*
X104938095Y-106134342D01*
X104938095Y-106134342D02*
X104890476Y-105943866D01*
X104890476Y-105943866D02*
X104890476Y-105705771D01*
X104890476Y-105705771D02*
X104938095Y-105515295D01*
X104938095Y-105515295D02*
X104985714Y-105420057D01*
X104985714Y-105420057D02*
X105033333Y-105372438D01*
X105033333Y-105372438D02*
X105128571Y-105324819D01*
X135616666Y-118954819D02*
X135616666Y-119669104D01*
X135616666Y-119669104D02*
X135569047Y-119811961D01*
X135569047Y-119811961D02*
X135473809Y-119907200D01*
X135473809Y-119907200D02*
X135330952Y-119954819D01*
X135330952Y-119954819D02*
X135235714Y-119954819D01*
X136616666Y-119954819D02*
X136045238Y-119954819D01*
X136330952Y-119954819D02*
X136330952Y-118954819D01*
X136330952Y-118954819D02*
X136235714Y-119097676D01*
X136235714Y-119097676D02*
X136140476Y-119192914D01*
X136140476Y-119192914D02*
X136045238Y-119240533D01*
X128859580Y-104042857D02*
X128907200Y-104090476D01*
X128907200Y-104090476D02*
X128954819Y-104233333D01*
X128954819Y-104233333D02*
X128954819Y-104328571D01*
X128954819Y-104328571D02*
X128907200Y-104471428D01*
X128907200Y-104471428D02*
X128811961Y-104566666D01*
X128811961Y-104566666D02*
X128716723Y-104614285D01*
X128716723Y-104614285D02*
X128526247Y-104661904D01*
X128526247Y-104661904D02*
X128383390Y-104661904D01*
X128383390Y-104661904D02*
X128192914Y-104614285D01*
X128192914Y-104614285D02*
X128097676Y-104566666D01*
X128097676Y-104566666D02*
X128002438Y-104471428D01*
X128002438Y-104471428D02*
X127954819Y-104328571D01*
X127954819Y-104328571D02*
X127954819Y-104233333D01*
X127954819Y-104233333D02*
X128002438Y-104090476D01*
X128002438Y-104090476D02*
X128050057Y-104042857D01*
X128954819Y-103090476D02*
X128954819Y-103661904D01*
X128954819Y-103376190D02*
X127954819Y-103376190D01*
X127954819Y-103376190D02*
X128097676Y-103471428D01*
X128097676Y-103471428D02*
X128192914Y-103566666D01*
X128192914Y-103566666D02*
X128240533Y-103661904D01*
X127954819Y-102757142D02*
X127954819Y-102138095D01*
X127954819Y-102138095D02*
X128335771Y-102471428D01*
X128335771Y-102471428D02*
X128335771Y-102328571D01*
X128335771Y-102328571D02*
X128383390Y-102233333D01*
X128383390Y-102233333D02*
X128431009Y-102185714D01*
X128431009Y-102185714D02*
X128526247Y-102138095D01*
X128526247Y-102138095D02*
X128764342Y-102138095D01*
X128764342Y-102138095D02*
X128859580Y-102185714D01*
X128859580Y-102185714D02*
X128907200Y-102233333D01*
X128907200Y-102233333D02*
X128954819Y-102328571D01*
X128954819Y-102328571D02*
X128954819Y-102614285D01*
X128954819Y-102614285D02*
X128907200Y-102709523D01*
X128907200Y-102709523D02*
X128859580Y-102757142D01*
X109114819Y-119012857D02*
X108638628Y-119346190D01*
X109114819Y-119584285D02*
X108114819Y-119584285D01*
X108114819Y-119584285D02*
X108114819Y-119203333D01*
X108114819Y-119203333D02*
X108162438Y-119108095D01*
X108162438Y-119108095D02*
X108210057Y-119060476D01*
X108210057Y-119060476D02*
X108305295Y-119012857D01*
X108305295Y-119012857D02*
X108448152Y-119012857D01*
X108448152Y-119012857D02*
X108543390Y-119060476D01*
X108543390Y-119060476D02*
X108591009Y-119108095D01*
X108591009Y-119108095D02*
X108638628Y-119203333D01*
X108638628Y-119203333D02*
X108638628Y-119584285D01*
X109114819Y-118060476D02*
X109114819Y-118631904D01*
X109114819Y-118346190D02*
X108114819Y-118346190D01*
X108114819Y-118346190D02*
X108257676Y-118441428D01*
X108257676Y-118441428D02*
X108352914Y-118536666D01*
X108352914Y-118536666D02*
X108400533Y-118631904D01*
X109114819Y-117108095D02*
X109114819Y-117679523D01*
X109114819Y-117393809D02*
X108114819Y-117393809D01*
X108114819Y-117393809D02*
X108257676Y-117489047D01*
X108257676Y-117489047D02*
X108352914Y-117584285D01*
X108352914Y-117584285D02*
X108400533Y-117679523D01*
X133884819Y-107066666D02*
X133408628Y-107399999D01*
X133884819Y-107638094D02*
X132884819Y-107638094D01*
X132884819Y-107638094D02*
X132884819Y-107257142D01*
X132884819Y-107257142D02*
X132932438Y-107161904D01*
X132932438Y-107161904D02*
X132980057Y-107114285D01*
X132980057Y-107114285D02*
X133075295Y-107066666D01*
X133075295Y-107066666D02*
X133218152Y-107066666D01*
X133218152Y-107066666D02*
X133313390Y-107114285D01*
X133313390Y-107114285D02*
X133361009Y-107161904D01*
X133361009Y-107161904D02*
X133408628Y-107257142D01*
X133408628Y-107257142D02*
X133408628Y-107638094D01*
X132884819Y-106733332D02*
X132884819Y-106114285D01*
X132884819Y-106114285D02*
X133265771Y-106447618D01*
X133265771Y-106447618D02*
X133265771Y-106304761D01*
X133265771Y-106304761D02*
X133313390Y-106209523D01*
X133313390Y-106209523D02*
X133361009Y-106161904D01*
X133361009Y-106161904D02*
X133456247Y-106114285D01*
X133456247Y-106114285D02*
X133694342Y-106114285D01*
X133694342Y-106114285D02*
X133789580Y-106161904D01*
X133789580Y-106161904D02*
X133837200Y-106209523D01*
X133837200Y-106209523D02*
X133884819Y-106304761D01*
X133884819Y-106304761D02*
X133884819Y-106590475D01*
X133884819Y-106590475D02*
X133837200Y-106685713D01*
X133837200Y-106685713D02*
X133789580Y-106733332D01*
X117957142Y-109489580D02*
X117909523Y-109537200D01*
X117909523Y-109537200D02*
X117766666Y-109584819D01*
X117766666Y-109584819D02*
X117671428Y-109584819D01*
X117671428Y-109584819D02*
X117528571Y-109537200D01*
X117528571Y-109537200D02*
X117433333Y-109441961D01*
X117433333Y-109441961D02*
X117385714Y-109346723D01*
X117385714Y-109346723D02*
X117338095Y-109156247D01*
X117338095Y-109156247D02*
X117338095Y-109013390D01*
X117338095Y-109013390D02*
X117385714Y-108822914D01*
X117385714Y-108822914D02*
X117433333Y-108727676D01*
X117433333Y-108727676D02*
X117528571Y-108632438D01*
X117528571Y-108632438D02*
X117671428Y-108584819D01*
X117671428Y-108584819D02*
X117766666Y-108584819D01*
X117766666Y-108584819D02*
X117909523Y-108632438D01*
X117909523Y-108632438D02*
X117957142Y-108680057D01*
X118338095Y-108680057D02*
X118385714Y-108632438D01*
X118385714Y-108632438D02*
X118480952Y-108584819D01*
X118480952Y-108584819D02*
X118719047Y-108584819D01*
X118719047Y-108584819D02*
X118814285Y-108632438D01*
X118814285Y-108632438D02*
X118861904Y-108680057D01*
X118861904Y-108680057D02*
X118909523Y-108775295D01*
X118909523Y-108775295D02*
X118909523Y-108870533D01*
X118909523Y-108870533D02*
X118861904Y-109013390D01*
X118861904Y-109013390D02*
X118290476Y-109584819D01*
X118290476Y-109584819D02*
X118909523Y-109584819D01*
X119528571Y-108584819D02*
X119623809Y-108584819D01*
X119623809Y-108584819D02*
X119719047Y-108632438D01*
X119719047Y-108632438D02*
X119766666Y-108680057D01*
X119766666Y-108680057D02*
X119814285Y-108775295D01*
X119814285Y-108775295D02*
X119861904Y-108965771D01*
X119861904Y-108965771D02*
X119861904Y-109203866D01*
X119861904Y-109203866D02*
X119814285Y-109394342D01*
X119814285Y-109394342D02*
X119766666Y-109489580D01*
X119766666Y-109489580D02*
X119719047Y-109537200D01*
X119719047Y-109537200D02*
X119623809Y-109584819D01*
X119623809Y-109584819D02*
X119528571Y-109584819D01*
X119528571Y-109584819D02*
X119433333Y-109537200D01*
X119433333Y-109537200D02*
X119385714Y-109489580D01*
X119385714Y-109489580D02*
X119338095Y-109394342D01*
X119338095Y-109394342D02*
X119290476Y-109203866D01*
X119290476Y-109203866D02*
X119290476Y-108965771D01*
X119290476Y-108965771D02*
X119338095Y-108775295D01*
X119338095Y-108775295D02*
X119385714Y-108680057D01*
X119385714Y-108680057D02*
X119433333Y-108632438D01*
X119433333Y-108632438D02*
X119528571Y-108584819D01*
X115954819Y-114542857D02*
X115478628Y-114876190D01*
X115954819Y-115114285D02*
X114954819Y-115114285D01*
X114954819Y-115114285D02*
X114954819Y-114733333D01*
X114954819Y-114733333D02*
X115002438Y-114638095D01*
X115002438Y-114638095D02*
X115050057Y-114590476D01*
X115050057Y-114590476D02*
X115145295Y-114542857D01*
X115145295Y-114542857D02*
X115288152Y-114542857D01*
X115288152Y-114542857D02*
X115383390Y-114590476D01*
X115383390Y-114590476D02*
X115431009Y-114638095D01*
X115431009Y-114638095D02*
X115478628Y-114733333D01*
X115478628Y-114733333D02*
X115478628Y-115114285D01*
X115954819Y-113590476D02*
X115954819Y-114161904D01*
X115954819Y-113876190D02*
X114954819Y-113876190D01*
X114954819Y-113876190D02*
X115097676Y-113971428D01*
X115097676Y-113971428D02*
X115192914Y-114066666D01*
X115192914Y-114066666D02*
X115240533Y-114161904D01*
X114954819Y-112685714D02*
X114954819Y-113161904D01*
X114954819Y-113161904D02*
X115431009Y-113209523D01*
X115431009Y-113209523D02*
X115383390Y-113161904D01*
X115383390Y-113161904D02*
X115335771Y-113066666D01*
X115335771Y-113066666D02*
X115335771Y-112828571D01*
X115335771Y-112828571D02*
X115383390Y-112733333D01*
X115383390Y-112733333D02*
X115431009Y-112685714D01*
X115431009Y-112685714D02*
X115526247Y-112638095D01*
X115526247Y-112638095D02*
X115764342Y-112638095D01*
X115764342Y-112638095D02*
X115859580Y-112685714D01*
X115859580Y-112685714D02*
X115907200Y-112733333D01*
X115907200Y-112733333D02*
X115954819Y-112828571D01*
X115954819Y-112828571D02*
X115954819Y-113066666D01*
X115954819Y-113066666D02*
X115907200Y-113161904D01*
X115907200Y-113161904D02*
X115859580Y-113209523D01*
X128354819Y-118266666D02*
X128354819Y-118742856D01*
X128354819Y-118742856D02*
X127354819Y-118742856D01*
X127354819Y-117504761D02*
X127354819Y-117695237D01*
X127354819Y-117695237D02*
X127402438Y-117790475D01*
X127402438Y-117790475D02*
X127450057Y-117838094D01*
X127450057Y-117838094D02*
X127592914Y-117933332D01*
X127592914Y-117933332D02*
X127783390Y-117980951D01*
X127783390Y-117980951D02*
X128164342Y-117980951D01*
X128164342Y-117980951D02*
X128259580Y-117933332D01*
X128259580Y-117933332D02*
X128307200Y-117885713D01*
X128307200Y-117885713D02*
X128354819Y-117790475D01*
X128354819Y-117790475D02*
X128354819Y-117599999D01*
X128354819Y-117599999D02*
X128307200Y-117504761D01*
X128307200Y-117504761D02*
X128259580Y-117457142D01*
X128259580Y-117457142D02*
X128164342Y-117409523D01*
X128164342Y-117409523D02*
X127926247Y-117409523D01*
X127926247Y-117409523D02*
X127831009Y-117457142D01*
X127831009Y-117457142D02*
X127783390Y-117504761D01*
X127783390Y-117504761D02*
X127735771Y-117599999D01*
X127735771Y-117599999D02*
X127735771Y-117790475D01*
X127735771Y-117790475D02*
X127783390Y-117885713D01*
X127783390Y-117885713D02*
X127831009Y-117933332D01*
X127831009Y-117933332D02*
X127926247Y-117980951D01*
X101559580Y-108642857D02*
X101607200Y-108690476D01*
X101607200Y-108690476D02*
X101654819Y-108833333D01*
X101654819Y-108833333D02*
X101654819Y-108928571D01*
X101654819Y-108928571D02*
X101607200Y-109071428D01*
X101607200Y-109071428D02*
X101511961Y-109166666D01*
X101511961Y-109166666D02*
X101416723Y-109214285D01*
X101416723Y-109214285D02*
X101226247Y-109261904D01*
X101226247Y-109261904D02*
X101083390Y-109261904D01*
X101083390Y-109261904D02*
X100892914Y-109214285D01*
X100892914Y-109214285D02*
X100797676Y-109166666D01*
X100797676Y-109166666D02*
X100702438Y-109071428D01*
X100702438Y-109071428D02*
X100654819Y-108928571D01*
X100654819Y-108928571D02*
X100654819Y-108833333D01*
X100654819Y-108833333D02*
X100702438Y-108690476D01*
X100702438Y-108690476D02*
X100750057Y-108642857D01*
X100750057Y-108261904D02*
X100702438Y-108214285D01*
X100702438Y-108214285D02*
X100654819Y-108119047D01*
X100654819Y-108119047D02*
X100654819Y-107880952D01*
X100654819Y-107880952D02*
X100702438Y-107785714D01*
X100702438Y-107785714D02*
X100750057Y-107738095D01*
X100750057Y-107738095D02*
X100845295Y-107690476D01*
X100845295Y-107690476D02*
X100940533Y-107690476D01*
X100940533Y-107690476D02*
X101083390Y-107738095D01*
X101083390Y-107738095D02*
X101654819Y-108309523D01*
X101654819Y-108309523D02*
X101654819Y-107690476D01*
X100654819Y-106833333D02*
X100654819Y-107023809D01*
X100654819Y-107023809D02*
X100702438Y-107119047D01*
X100702438Y-107119047D02*
X100750057Y-107166666D01*
X100750057Y-107166666D02*
X100892914Y-107261904D01*
X100892914Y-107261904D02*
X101083390Y-107309523D01*
X101083390Y-107309523D02*
X101464342Y-107309523D01*
X101464342Y-107309523D02*
X101559580Y-107261904D01*
X101559580Y-107261904D02*
X101607200Y-107214285D01*
X101607200Y-107214285D02*
X101654819Y-107119047D01*
X101654819Y-107119047D02*
X101654819Y-106928571D01*
X101654819Y-106928571D02*
X101607200Y-106833333D01*
X101607200Y-106833333D02*
X101559580Y-106785714D01*
X101559580Y-106785714D02*
X101464342Y-106738095D01*
X101464342Y-106738095D02*
X101226247Y-106738095D01*
X101226247Y-106738095D02*
X101131009Y-106785714D01*
X101131009Y-106785714D02*
X101083390Y-106833333D01*
X101083390Y-106833333D02*
X101035771Y-106928571D01*
X101035771Y-106928571D02*
X101035771Y-107119047D01*
X101035771Y-107119047D02*
X101083390Y-107214285D01*
X101083390Y-107214285D02*
X101131009Y-107261904D01*
X101131009Y-107261904D02*
X101226247Y-107309523D01*
D13*
X118235714Y-98210880D02*
X118197618Y-98258500D01*
X118197618Y-98258500D02*
X118083333Y-98306119D01*
X118083333Y-98306119D02*
X118007142Y-98306119D01*
X118007142Y-98306119D02*
X117892856Y-98258500D01*
X117892856Y-98258500D02*
X117816666Y-98163261D01*
X117816666Y-98163261D02*
X117778571Y-98068023D01*
X117778571Y-98068023D02*
X117740475Y-97877547D01*
X117740475Y-97877547D02*
X117740475Y-97734690D01*
X117740475Y-97734690D02*
X117778571Y-97544214D01*
X117778571Y-97544214D02*
X117816666Y-97448976D01*
X117816666Y-97448976D02*
X117892856Y-97353738D01*
X117892856Y-97353738D02*
X118007142Y-97306119D01*
X118007142Y-97306119D02*
X118083333Y-97306119D01*
X118083333Y-97306119D02*
X118197618Y-97353738D01*
X118197618Y-97353738D02*
X118235714Y-97401357D01*
X118540475Y-97401357D02*
X118578571Y-97353738D01*
X118578571Y-97353738D02*
X118654761Y-97306119D01*
X118654761Y-97306119D02*
X118845237Y-97306119D01*
X118845237Y-97306119D02*
X118921428Y-97353738D01*
X118921428Y-97353738D02*
X118959523Y-97401357D01*
X118959523Y-97401357D02*
X118997618Y-97496595D01*
X118997618Y-97496595D02*
X118997618Y-97591833D01*
X118997618Y-97591833D02*
X118959523Y-97734690D01*
X118959523Y-97734690D02*
X118502380Y-98306119D01*
X118502380Y-98306119D02*
X118997618Y-98306119D01*
X119454761Y-97734690D02*
X119378571Y-97687071D01*
X119378571Y-97687071D02*
X119340476Y-97639452D01*
X119340476Y-97639452D02*
X119302380Y-97544214D01*
X119302380Y-97544214D02*
X119302380Y-97496595D01*
X119302380Y-97496595D02*
X119340476Y-97401357D01*
X119340476Y-97401357D02*
X119378571Y-97353738D01*
X119378571Y-97353738D02*
X119454761Y-97306119D01*
X119454761Y-97306119D02*
X119607142Y-97306119D01*
X119607142Y-97306119D02*
X119683333Y-97353738D01*
X119683333Y-97353738D02*
X119721428Y-97401357D01*
X119721428Y-97401357D02*
X119759523Y-97496595D01*
X119759523Y-97496595D02*
X119759523Y-97544214D01*
X119759523Y-97544214D02*
X119721428Y-97639452D01*
X119721428Y-97639452D02*
X119683333Y-97687071D01*
X119683333Y-97687071D02*
X119607142Y-97734690D01*
X119607142Y-97734690D02*
X119454761Y-97734690D01*
X119454761Y-97734690D02*
X119378571Y-97782309D01*
X119378571Y-97782309D02*
X119340476Y-97829928D01*
X119340476Y-97829928D02*
X119302380Y-97925166D01*
X119302380Y-97925166D02*
X119302380Y-98115642D01*
X119302380Y-98115642D02*
X119340476Y-98210880D01*
X119340476Y-98210880D02*
X119378571Y-98258500D01*
X119378571Y-98258500D02*
X119454761Y-98306119D01*
X119454761Y-98306119D02*
X119607142Y-98306119D01*
X119607142Y-98306119D02*
X119683333Y-98258500D01*
X119683333Y-98258500D02*
X119721428Y-98210880D01*
X119721428Y-98210880D02*
X119759523Y-98115642D01*
X119759523Y-98115642D02*
X119759523Y-97925166D01*
X119759523Y-97925166D02*
X119721428Y-97829928D01*
X119721428Y-97829928D02*
X119683333Y-97782309D01*
X119683333Y-97782309D02*
X119607142Y-97734690D01*
D15*
X131594818Y-104691904D02*
X132404341Y-104691904D01*
X132404341Y-104691904D02*
X132499579Y-104644285D01*
X132499579Y-104644285D02*
X132547199Y-104596666D01*
X132547199Y-104596666D02*
X132594818Y-104501428D01*
X132594818Y-104501428D02*
X132594818Y-104310952D01*
X132594818Y-104310952D02*
X132547199Y-104215714D01*
X132547199Y-104215714D02*
X132499579Y-104168095D01*
X132499579Y-104168095D02*
X132404341Y-104120476D01*
X132404341Y-104120476D02*
X131594818Y-104120476D01*
X131594818Y-103168095D02*
X131594818Y-103644285D01*
X131594818Y-103644285D02*
X132071008Y-103691904D01*
X132071008Y-103691904D02*
X132023389Y-103644285D01*
X132023389Y-103644285D02*
X131975770Y-103549047D01*
X131975770Y-103549047D02*
X131975770Y-103310952D01*
X131975770Y-103310952D02*
X132023389Y-103215714D01*
X132023389Y-103215714D02*
X132071008Y-103168095D01*
X132071008Y-103168095D02*
X132166246Y-103120476D01*
X132166246Y-103120476D02*
X132404341Y-103120476D01*
X132404341Y-103120476D02*
X132499579Y-103168095D01*
X132499579Y-103168095D02*
X132547199Y-103215714D01*
X132547199Y-103215714D02*
X132594818Y-103310952D01*
X132594818Y-103310952D02*
X132594818Y-103549047D01*
X132594818Y-103549047D02*
X132547199Y-103644285D01*
X132547199Y-103644285D02*
X132499579Y-103691904D01*
X123291169Y-100399693D02*
X123223825Y-100399693D01*
X123223825Y-100399693D02*
X123089138Y-100332349D01*
X123089138Y-100332349D02*
X123021795Y-100265006D01*
X123021795Y-100265006D02*
X122954451Y-100130319D01*
X122954451Y-100130319D02*
X122954451Y-99995632D01*
X122954451Y-99995632D02*
X122988123Y-99894617D01*
X122988123Y-99894617D02*
X123089138Y-99726258D01*
X123089138Y-99726258D02*
X123190153Y-99625243D01*
X123190153Y-99625243D02*
X123358512Y-99524227D01*
X123358512Y-99524227D02*
X123459527Y-99490556D01*
X123459527Y-99490556D02*
X123594214Y-99490556D01*
X123594214Y-99490556D02*
X123728901Y-99557899D01*
X123728901Y-99557899D02*
X123796245Y-99625243D01*
X123796245Y-99625243D02*
X123863588Y-99759930D01*
X123863588Y-99759930D02*
X123863588Y-99827273D01*
X124132962Y-100096647D02*
X124200306Y-100096647D01*
X124200306Y-100096647D02*
X124301321Y-100130319D01*
X124301321Y-100130319D02*
X124469680Y-100298678D01*
X124469680Y-100298678D02*
X124503352Y-100399693D01*
X124503352Y-100399693D02*
X124503352Y-100467036D01*
X124503352Y-100467036D02*
X124469680Y-100568052D01*
X124469680Y-100568052D02*
X124402336Y-100635395D01*
X124402336Y-100635395D02*
X124267649Y-100702739D01*
X124267649Y-100702739D02*
X123459527Y-100702739D01*
X123459527Y-100702739D02*
X123897260Y-101140471D01*
X124806398Y-100770082D02*
X124873741Y-100770082D01*
X124873741Y-100770082D02*
X124974756Y-100803754D01*
X124974756Y-100803754D02*
X125143115Y-100972113D01*
X125143115Y-100972113D02*
X125176787Y-101073128D01*
X125176787Y-101073128D02*
X125176787Y-101140472D01*
X125176787Y-101140472D02*
X125143115Y-101241487D01*
X125143115Y-101241487D02*
X125075772Y-101308830D01*
X125075772Y-101308830D02*
X124941085Y-101376174D01*
X124941085Y-101376174D02*
X124132963Y-101376174D01*
X124132963Y-101376174D02*
X124570695Y-101813907D01*
D11*
%TO.C,C8*%
X122353733Y-126590000D02*
X122646267Y-126590000D01*
X122353733Y-127610000D02*
X122646267Y-127610000D01*
%TO.C,R6*%
X111477500Y-98845276D02*
X111477500Y-99354724D01*
X112522500Y-98845276D02*
X112522500Y-99354724D01*
%TO.C,L3*%
X110871267Y-123340000D02*
X110528731Y-123340000D01*
X110871267Y-124360000D02*
X110528731Y-124360000D01*
%TO.C,L2*%
X112103733Y-124840000D02*
X112446267Y-124840000D01*
X112103733Y-125860000D02*
X112446267Y-125860000D01*
%TO.C,D2*%
X103315000Y-112240000D02*
X103315000Y-114160000D01*
X103315000Y-114160000D02*
X106175000Y-114160000D01*
X106175000Y-112240000D02*
X103315000Y-112240000D01*
%TO.C,D1*%
X103330000Y-110160000D02*
X103330000Y-112080000D01*
X103330000Y-112080000D02*
X106190000Y-112080000D01*
X106190000Y-110160000D02*
X103330000Y-110160000D01*
D12*
%TO.C,SW2*%
X120850000Y-113920000D02*
X121740000Y-113030000D01*
X120850000Y-116480000D02*
X120850000Y-113920000D01*
X120850000Y-116480000D02*
X121740000Y-117370000D01*
X121600000Y-114300000D02*
X122500000Y-113400000D01*
X121600000Y-116200000D02*
X121600000Y-114300000D01*
X122230000Y-112650000D02*
X124570000Y-112650000D01*
X122230000Y-117750000D02*
X124570000Y-117750000D01*
X122400000Y-117000000D02*
X121600000Y-116200000D01*
X122500000Y-113400000D02*
X124300000Y-113400000D01*
X124300000Y-113400000D02*
X125299999Y-114400000D01*
X124400000Y-117000000D02*
X122400000Y-117000000D01*
X125060000Y-113030000D02*
X125950000Y-113920000D01*
X125060000Y-117370000D02*
X125950000Y-116480000D01*
X125299999Y-114400000D02*
X125300000Y-116100000D01*
X125300000Y-116100000D02*
X124400000Y-117000000D01*
X125950000Y-116480000D02*
X125950000Y-113920000D01*
X124680000Y-115200000D02*
G75*
G02*
X122120000Y-115200000I-1280000J0D01*
G01*
X122120000Y-115200000D02*
G75*
G02*
X124680000Y-115200000I1280000J0D01*
G01*
D11*
%TO.C,R7*%
X112977500Y-99354724D02*
X112977500Y-98845276D01*
X114022500Y-99354724D02*
X114022500Y-98845276D01*
%TO.C,C31*%
X113590000Y-117716234D02*
X113590000Y-118008768D01*
X114610000Y-117716234D02*
X114610000Y-118008768D01*
%TO.C,C19*%
X116146267Y-97790000D02*
X115853733Y-97790000D01*
X116146267Y-98810000D02*
X115853733Y-98810000D01*
D10*
%TO.C,U6*%
X122080000Y-104650000D02*
X122080000Y-105350000D01*
X122080000Y-106150000D02*
X122080000Y-106850000D01*
X122080000Y-106850000D02*
X122780000Y-106850000D01*
X122780000Y-104650000D02*
X122080000Y-104650000D01*
X124280000Y-104650000D02*
X123780000Y-104650000D01*
X124280000Y-105350000D02*
X124280000Y-104650000D01*
X124280000Y-106150000D02*
X124280000Y-106850000D01*
X124280000Y-106850000D02*
X123780000Y-106850000D01*
X121960000Y-105430000D02*
G75*
G02*
X121700000Y-105430000I-130000J0D01*
G01*
X121700000Y-105430000D02*
G75*
G02*
X121960000Y-105430000I130000J0D01*
G01*
D11*
%TO.C,C12*%
X129590000Y-106746267D02*
X129590000Y-106453733D01*
X130610000Y-106746267D02*
X130610000Y-106453733D01*
%TO.C,C25*%
X109890000Y-98046267D02*
X109890000Y-97753733D01*
X110910000Y-98046267D02*
X110910000Y-97753733D01*
%TO.C,C10*%
X126390000Y-106646267D02*
X126390000Y-106353733D01*
X127410000Y-106646267D02*
X127410000Y-106353733D01*
%TO.C,R12*%
X118754724Y-117677500D02*
X118245276Y-117677500D01*
X118754724Y-118722500D02*
X118245276Y-118722500D01*
%TO.C,R1*%
X108595276Y-126302500D02*
X109104724Y-126302500D01*
X108595276Y-127347500D02*
X109104724Y-127347500D01*
%TO.C,R4*%
X134145276Y-108277500D02*
X134654724Y-108277500D01*
X134145276Y-109322500D02*
X134654724Y-109322500D01*
%TO.C,R16*%
X96017500Y-92725276D02*
X96017500Y-93234724D01*
X97062500Y-92725276D02*
X97062500Y-93234724D01*
%TO.C,J4*%
X94745000Y-122400000D02*
X94745000Y-125300000D01*
X96650000Y-120495000D02*
X99550000Y-120495000D01*
X96650000Y-127205000D02*
X99550000Y-127205000D01*
X101455000Y-122400000D02*
X101455000Y-125300000D01*
%TO.C,L1*%
X114415000Y-121278733D02*
X114415000Y-121621269D01*
X115435000Y-121278733D02*
X115435000Y-121621269D01*
D15*
%TO.C,U4*%
X126870000Y-90480001D02*
X126870000Y-90480001D01*
X126870000Y-90480001D02*
X127100000Y-90480001D01*
X126870000Y-100330001D02*
X126870000Y-90480001D01*
X126870000Y-100330001D02*
X126870000Y-100330001D01*
X127100000Y-100330001D02*
X126870000Y-100330001D01*
X136900000Y-100330001D02*
X137130000Y-100330001D01*
X137130000Y-90480001D02*
X136900000Y-90480001D01*
X137130000Y-90480001D02*
X137130000Y-90480001D01*
X137130000Y-100330001D02*
X137130000Y-90480001D01*
X137130000Y-100330001D02*
X137130000Y-100330001D01*
D12*
X127720000Y-101440001D02*
G75*
G02*
X127480000Y-101440001I-120000J0D01*
G01*
X127480000Y-101440001D02*
G75*
G02*
X127720000Y-101440001I120000J0D01*
G01*
D11*
%TO.C,J7*%
X94670000Y-98790002D02*
X94670000Y-119170001D01*
X94670000Y-98790002D02*
X97330000Y-98790002D01*
X94670000Y-119170001D02*
X97330000Y-119170001D01*
X96000000Y-96190001D02*
X97330000Y-96190001D01*
X97330000Y-96190001D02*
X97330000Y-97520001D01*
X97330000Y-98790002D02*
X97330000Y-119170001D01*
%TO.C,C23*%
X104108768Y-103690000D02*
X103816234Y-103690000D01*
X104108768Y-104710000D02*
X103816234Y-104710000D01*
%TO.C,C17*%
X117642802Y-114664051D02*
X117435949Y-114457198D01*
X118364051Y-113942802D02*
X118157198Y-113735949D01*
D15*
%TO.C,X2*%
X108840000Y-114350000D02*
X108840000Y-116010000D01*
X108840000Y-116010000D02*
X110700000Y-116010000D01*
X109070000Y-112420000D02*
X113130000Y-112420000D01*
X109070000Y-115780000D02*
X109070000Y-112420000D01*
X113130000Y-112420000D02*
X113130000Y-115780000D01*
X113130000Y-115780000D02*
X109070000Y-115780000D01*
D11*
%TO.C,U3*%
X129439999Y-111737500D02*
X129440000Y-110937500D01*
X129439999Y-111737500D02*
X129440000Y-112537500D01*
X132560001Y-111737500D02*
X132560000Y-110937500D01*
X132560001Y-111737500D02*
X132560000Y-112537500D01*
X129490000Y-113037500D02*
X129160000Y-113277500D01*
X129160000Y-112797500D01*
X129490000Y-113037500D01*
G36*
X129490000Y-113037500D02*
G01*
X129160000Y-113277500D01*
X129160000Y-112797500D01*
X129490000Y-113037500D01*
G37*
%TO.C,C3*%
X104440000Y-121228733D02*
X104440000Y-121521267D01*
X105460000Y-121228733D02*
X105460000Y-121521267D01*
D12*
%TO.C,U1*%
X133980000Y-83120000D02*
X133980000Y-75080000D01*
X137030000Y-83120000D02*
X137030000Y-75080000D01*
D16*
X134630000Y-82910000D02*
G75*
G02*
X134330000Y-82910000I-150000J0D01*
G01*
X134330000Y-82910000D02*
G75*
G02*
X134630000Y-82910000I150000J0D01*
G01*
D11*
%TO.C,C30*%
X119693767Y-87810000D02*
X119401233Y-87810000D01*
X119693767Y-88830000D02*
X119401233Y-88830000D01*
%TO.C,C27*%
X120235949Y-100042802D02*
X120442802Y-99835949D01*
X120957198Y-100764051D02*
X121164051Y-100557198D01*
%TO.C,C29*%
X109490000Y-117753733D02*
X109490000Y-118046267D01*
X110510000Y-117753733D02*
X110510000Y-118046267D01*
%TO.C,R8*%
X136377500Y-109432776D02*
X136377500Y-109942224D01*
X137422500Y-109432776D02*
X137422500Y-109942224D01*
%TO.C,R9*%
X125177500Y-98954724D02*
X125177500Y-98445276D01*
X126222500Y-98954724D02*
X126222500Y-98445276D01*
D17*
%TO.C,U2*%
X116175000Y-121995000D02*
X120775000Y-121995000D01*
X116175000Y-126595000D02*
X116175000Y-121995000D01*
X120775000Y-121995000D02*
X120775000Y-126595000D01*
X120775000Y-126595000D02*
X116175000Y-126595000D01*
D10*
X116898607Y-122495000D02*
G75*
G02*
X116451393Y-122495000I-223607J0D01*
G01*
X116451393Y-122495000D02*
G75*
G02*
X116898607Y-122495000I223607J0D01*
G01*
D11*
%TO.C,L4*%
X107546268Y-123340000D02*
X107203732Y-123340000D01*
X107546268Y-124360000D02*
X107203732Y-124360000D01*
D15*
%TO.C,X1*%
X122970000Y-120470000D02*
X127030000Y-120470000D01*
X122970000Y-123830000D02*
X122970000Y-120470000D01*
X127030000Y-120470000D02*
X127030000Y-123830000D01*
X127030000Y-123830000D02*
X122970000Y-123830000D01*
X127260000Y-120240000D02*
X125400000Y-120240000D01*
X127260000Y-121900000D02*
X127260000Y-120240000D01*
D11*
%TO.C,J5*%
X131530000Y-86470000D02*
X131530000Y-89130000D01*
X134129999Y-86470000D02*
X131530000Y-86470000D01*
X134129999Y-86470000D02*
X134129999Y-89130000D01*
X134129999Y-89130000D02*
X131530000Y-89130000D01*
X136730000Y-87800000D02*
X136730000Y-89130000D01*
X136730000Y-89130000D02*
X135400000Y-89130000D01*
%TO.C,C6*%
X114158767Y-123340000D02*
X113866233Y-123340000D01*
X114158767Y-124360000D02*
X113866233Y-124360000D01*
%TO.C,U9*%
X119350000Y-89790000D02*
X123110000Y-89790000D01*
X119350000Y-96610000D02*
X123110000Y-96610000D01*
X123110000Y-89790000D02*
X123110000Y-91050000D01*
X123110000Y-96610000D02*
X123110000Y-95350000D01*
X118070000Y-89890000D02*
X117830000Y-89560000D01*
X118310000Y-89560000D01*
X118070000Y-89890000D01*
G36*
X118070000Y-89890000D02*
G01*
X117830000Y-89560000D01*
X118310000Y-89560000D01*
X118070000Y-89890000D01*
G37*
D12*
%TO.C,J6*%
X108239999Y-85940000D02*
X108619999Y-86320000D01*
X108409999Y-85940000D02*
X108239999Y-85940000D01*
X108619999Y-86320000D02*
X108619999Y-87190000D01*
X108619999Y-89810000D02*
X108619999Y-89830000D01*
X108619999Y-91530000D02*
X108619999Y-89830000D01*
X109059999Y-91530000D02*
X108619999Y-91530000D01*
X116199999Y-87190000D02*
X116200000Y-86280000D01*
X116199999Y-91530000D02*
X115649998Y-91530000D01*
X116199999Y-91530000D02*
X116200000Y-89820000D01*
X116200000Y-86280000D02*
X108619999Y-86280000D01*
X116200000Y-86280000D02*
X116539999Y-85940000D01*
X116539999Y-85940000D02*
X108409999Y-85940000D01*
D11*
%TO.C,R17*%
X97967500Y-103262224D02*
X97967500Y-102752776D01*
X99012500Y-103262224D02*
X99012500Y-102752776D01*
%TO.C,L5*%
X104246268Y-123340000D02*
X103903732Y-123340000D01*
X104246268Y-124360000D02*
X103903732Y-124360000D01*
D12*
%TO.C,SW1*%
X97900000Y-113420000D02*
X98790000Y-112530000D01*
X97900000Y-115980000D02*
X97900000Y-113420000D01*
X97900000Y-115980000D02*
X98790000Y-116870000D01*
X98650000Y-113800000D02*
X99550000Y-112900000D01*
X98650000Y-115700000D02*
X98650000Y-113800000D01*
X99280000Y-112150000D02*
X101620000Y-112150000D01*
X99280000Y-117250000D02*
X101620000Y-117250000D01*
X99450000Y-116500000D02*
X98650000Y-115700000D01*
X99550000Y-112900000D02*
X101350000Y-112900000D01*
X101350000Y-112900000D02*
X102349999Y-113900000D01*
X101450000Y-116500000D02*
X99450000Y-116500000D01*
X102110000Y-112530000D02*
X103000000Y-113420000D01*
X102110000Y-116870000D02*
X103000000Y-115980000D01*
X102349999Y-113900000D02*
X102350000Y-115600000D01*
X102350000Y-115600000D02*
X101450000Y-116500000D01*
X103000000Y-115980000D02*
X103000000Y-113420000D01*
X101730000Y-114700000D02*
G75*
G02*
X99170000Y-114700000I-1280000J0D01*
G01*
X99170000Y-114700000D02*
G75*
G02*
X101730000Y-114700000I1280000J0D01*
G01*
D11*
%TO.C,D3*%
X125115000Y-108440000D02*
X125115000Y-110360000D01*
X125115000Y-110360000D02*
X127975000Y-110360000D01*
X127975000Y-108440000D02*
X125115000Y-108440000D01*
%TO.C,C18*%
X116046267Y-100590000D02*
X115753733Y-100590000D01*
X116046267Y-101610000D02*
X115753733Y-101610000D01*
%TO.C,C21*%
X119816234Y-103590000D02*
X120108768Y-103590000D01*
X119816234Y-104610000D02*
X120108768Y-104610000D01*
%TO.C,C1*%
X112116233Y-126315000D02*
X112408767Y-126315000D01*
X112116233Y-127335000D02*
X112408767Y-127335000D01*
%TO.C,C2*%
X107765000Y-121303733D02*
X107765000Y-121596267D01*
X108785000Y-121303733D02*
X108785000Y-121596267D01*
%TO.C,J2*%
X128520000Y-124820000D02*
X129850000Y-124820000D01*
X128520000Y-126150000D02*
X128520000Y-124820000D01*
X131120001Y-124820000D02*
X133720000Y-124820000D01*
X131120001Y-127480000D02*
X131120001Y-124820000D01*
X131120001Y-127480000D02*
X133720000Y-127480000D01*
X133720000Y-127480000D02*
X133720000Y-124820000D01*
%TO.C,C5*%
X131376233Y-119180000D02*
X131668767Y-119180000D01*
X131376233Y-120200000D02*
X131668767Y-120200000D01*
%TO.C,R5*%
X98077500Y-108145276D02*
X98077500Y-108654724D01*
X99122500Y-108145276D02*
X99122500Y-108654724D01*
%TO.C,U10*%
X98075000Y-92875000D02*
X98335000Y-92875000D01*
X98075000Y-95600000D02*
X98075000Y-92875000D01*
X98075000Y-95600000D02*
X98075000Y-98325000D01*
X98075000Y-98325000D02*
X98335000Y-98325000D01*
X103525000Y-92875000D02*
X103265000Y-92875000D01*
X103525000Y-95600000D02*
X103525000Y-92875000D01*
X103525000Y-95600000D02*
X103525000Y-98325000D01*
X103525000Y-98325000D02*
X103265000Y-98325000D01*
X98335000Y-99107500D02*
X98005000Y-99347500D01*
X98005000Y-98867500D01*
X98335000Y-99107500D01*
G36*
X98335000Y-99107500D02*
G01*
X98005000Y-99347500D01*
X98005000Y-98867500D01*
X98335000Y-99107500D01*
G37*
%TO.C,R2*%
X124807776Y-87877500D02*
X125317224Y-87877500D01*
X124807776Y-88922500D02*
X125317224Y-88922500D01*
%TO.C,U7*%
X107890000Y-103677500D02*
X107890000Y-103267500D01*
X107890000Y-110247500D02*
X107890000Y-109597500D01*
X108540000Y-103027500D02*
X108190000Y-103027500D01*
X108540000Y-110247500D02*
X107890000Y-110247500D01*
X114460000Y-103027500D02*
X115110000Y-103027500D01*
X114460000Y-110247500D02*
X115110000Y-110247500D01*
X115110000Y-103027500D02*
X115110000Y-103677500D01*
X115110000Y-110247500D02*
X115110000Y-109597500D01*
X107890000Y-103027500D02*
X107650000Y-102697500D01*
X108130000Y-102697500D01*
X107890000Y-103027500D01*
G36*
X107890000Y-103027500D02*
G01*
X107650000Y-102697500D01*
X108130000Y-102697500D01*
X107890000Y-103027500D01*
G37*
%TO.C,C32*%
X99335949Y-88842802D02*
X99542802Y-88635949D01*
X100057198Y-89564051D02*
X100264051Y-89357198D01*
%TO.C,C24*%
X118946267Y-110390000D02*
X118653733Y-110390000D01*
X118946267Y-111410000D02*
X118653733Y-111410000D01*
%TO.C,J3*%
X134670000Y-116130000D02*
X134670000Y-118730000D01*
X134670000Y-116130000D02*
X137330000Y-116130000D01*
X134670000Y-118730000D02*
X137330000Y-118730000D01*
X136000000Y-113530000D02*
X137330000Y-113530000D01*
X137330000Y-113530000D02*
X137330000Y-114860000D01*
X137330000Y-116130000D02*
X137330000Y-118730000D01*
%TO.C,R10*%
X103945276Y-106777500D02*
X104454724Y-106777500D01*
X103945276Y-107822500D02*
X104454724Y-107822500D01*
%TO.C,J1*%
X134695000Y-122770000D02*
X134695000Y-125370000D01*
X134695000Y-122770000D02*
X137355000Y-122770000D01*
X134695000Y-125370000D02*
X137355000Y-125370000D01*
X136025000Y-120170000D02*
X137355000Y-120170000D01*
X137355000Y-120170000D02*
X137355000Y-121500000D01*
X137355000Y-122770000D02*
X137355000Y-125370000D01*
%TO.C,C13*%
X127990000Y-106708768D02*
X127990000Y-106416234D01*
X129010000Y-106708768D02*
X129010000Y-106416234D01*
%TO.C,R11*%
X107327500Y-115604724D02*
X107327500Y-115095276D01*
X108372500Y-115604724D02*
X108372500Y-115095276D01*
%TO.C,R3*%
X131477500Y-106345276D02*
X131477500Y-106854724D01*
X132522500Y-106345276D02*
X132522500Y-106854724D01*
%TO.C,C20*%
X118746267Y-107190000D02*
X118453733Y-107190000D01*
X118746267Y-108210000D02*
X118453733Y-108210000D01*
%TO.C,R15*%
X113577500Y-113745276D02*
X113577500Y-114254724D01*
X114622500Y-113745276D02*
X114622500Y-114254724D01*
D12*
%TO.C,L6*%
X132650000Y-114770000D02*
X129350000Y-114770000D01*
X132650000Y-118830000D02*
X129350000Y-118830000D01*
D11*
%TO.C,C26*%
X100690000Y-105083766D02*
X100690000Y-104791232D01*
X101710000Y-105083766D02*
X101710000Y-104791232D01*
%TO.C,C28*%
X121403733Y-97190000D02*
X121696267Y-97190000D01*
X121403733Y-98210000D02*
X121696267Y-98210000D01*
%TO.C,U5*%
X137550000Y-105730000D02*
X137550000Y-102130000D01*
X133100000Y-103930000D02*
G75*
G02*
X137538478Y-102091522I2600000J0D01*
G01*
X137538478Y-105768478D02*
G75*
G02*
X133099999Y-103930000I-1838478J1838478D01*
G01*
%TO.C,C22*%
X123045829Y-102267078D02*
X123252682Y-102473931D01*
X123767078Y-101545829D02*
X123973931Y-101752682D01*
%TD*%
%LPC*%
D18*
%TO.C,C8*%
X121637500Y-127100000D03*
X123362500Y-127100000D03*
%TD*%
D19*
%TO.C,R6*%
X112000000Y-98187500D03*
X112000000Y-100012500D03*
%TD*%
D20*
%TO.C,L3*%
X111574998Y-123850000D03*
X109825000Y-123850000D03*
%TD*%
D21*
%TO.C,L2*%
X111400000Y-125350000D03*
X113150000Y-125350000D03*
%TD*%
D22*
%TO.C,D2*%
X104150000Y-113200000D03*
X106200000Y-113200000D03*
%TD*%
%TO.C,D1*%
X104165000Y-111120000D03*
X106215000Y-111120000D03*
%TD*%
D23*
%TO.C,SW2*%
X121550000Y-118500000D03*
X121550000Y-111900000D03*
X125250000Y-118500000D03*
X125250000Y-111900000D03*
%TD*%
D24*
%TO.C,R7*%
X113500000Y-100012500D03*
X113500000Y-98187500D03*
%TD*%
D25*
%TO.C,C31*%
X114100000Y-117000000D03*
X114100000Y-118725002D03*
%TD*%
D26*
%TO.C,C19*%
X116862501Y-98300000D03*
X115137499Y-98300000D03*
%TD*%
D27*
%TO.C,U6*%
X122400000Y-105500000D03*
X122400000Y-106000000D03*
X122680000Y-106530000D03*
X123180000Y-106530000D03*
X123680000Y-106530000D03*
X123960000Y-106000000D03*
X123960000Y-105500000D03*
X123680000Y-104970000D03*
X123180000Y-104970000D03*
X122680000Y-104970000D03*
%TD*%
D28*
%TO.C,C12*%
X130100000Y-107462501D03*
X130100000Y-105737499D03*
%TD*%
%TO.C,C25*%
X110400000Y-98762501D03*
X110400000Y-97037499D03*
%TD*%
%TO.C,C10*%
X126900000Y-107362501D03*
X126900000Y-105637499D03*
%TD*%
D29*
%TO.C,R12*%
X119412500Y-118200000D03*
X117587500Y-118200000D03*
%TD*%
D30*
%TO.C,R1*%
X107937500Y-126825000D03*
X109762500Y-126825000D03*
%TD*%
%TO.C,R4*%
X133487500Y-108800000D03*
X135312500Y-108800000D03*
%TD*%
D19*
%TO.C,R16*%
X96540000Y-92067500D03*
X96540000Y-93892500D03*
%TD*%
D31*
%TO.C,J4*%
X98100000Y-123850000D03*
D32*
X95560000Y-121310000D03*
X95560000Y-126390000D03*
X100640000Y-121310000D03*
X100640000Y-126390000D03*
%TD*%
D33*
%TO.C,L1*%
X114925000Y-120575002D03*
X114925000Y-122325000D03*
%TD*%
D34*
%TO.C,U4*%
X127600000Y-100220001D03*
X128700000Y-100220001D03*
X129800000Y-100220002D03*
X130900000Y-100220001D03*
X132000000Y-100220002D03*
X133100000Y-100220001D03*
X134200000Y-100220002D03*
X135300000Y-100220001D03*
X136400000Y-100220001D03*
X136400000Y-90600001D03*
X135300000Y-90600001D03*
X134200000Y-90600000D03*
X133100000Y-90600001D03*
X132000000Y-90600000D03*
X130900000Y-90600001D03*
X129800000Y-90600000D03*
X128700000Y-90600001D03*
X127600000Y-90600001D03*
%TD*%
D35*
%TO.C,J7*%
X96000000Y-97520001D03*
D36*
X96000000Y-100060001D03*
X96000000Y-102600000D03*
X96000000Y-105140001D03*
X96000000Y-107680001D03*
X96000000Y-110220001D03*
X96000000Y-112760001D03*
X96000000Y-115300002D03*
X96000000Y-117840001D03*
%TD*%
D26*
%TO.C,C23*%
X104825002Y-104200000D03*
X103100000Y-104200000D03*
%TD*%
D37*
%TO.C,C17*%
X118509880Y-114809880D03*
X117290120Y-113590120D03*
%TD*%
D38*
%TO.C,X2*%
X110000000Y-114950000D03*
X112200000Y-114950000D03*
X112200000Y-113250000D03*
X110000000Y-113250000D03*
%TD*%
D39*
%TO.C,U3*%
X130050001Y-112875000D03*
X131000000Y-112875000D03*
X131949999Y-112875000D03*
X131949999Y-110600000D03*
X131000000Y-110600000D03*
X130050001Y-110600000D03*
%TD*%
D25*
%TO.C,C3*%
X104950000Y-120512499D03*
X104950000Y-122237501D03*
%TD*%
D40*
%TO.C,U1*%
X135500000Y-84225000D03*
X135500000Y-73975000D03*
%TD*%
D26*
%TO.C,C30*%
X120410001Y-88320000D03*
X118684999Y-88320000D03*
%TD*%
D41*
%TO.C,C27*%
X120090120Y-100909880D03*
X121309880Y-99690120D03*
%TD*%
D25*
%TO.C,C29*%
X110000000Y-117037499D03*
X110000000Y-118762501D03*
%TD*%
D19*
%TO.C,R8*%
X136900000Y-108775000D03*
X136900000Y-110600000D03*
%TD*%
D24*
%TO.C,R9*%
X125700000Y-99612500D03*
X125700000Y-97787500D03*
%TD*%
D42*
%TO.C,U2*%
X116695000Y-123295000D03*
X116695000Y-123795000D03*
X116695000Y-124295000D03*
X116695000Y-124795000D03*
X116695000Y-125295000D03*
D43*
X117475000Y-126075000D03*
X117975000Y-126075000D03*
X118475000Y-126075000D03*
X118975000Y-126075000D03*
X119475000Y-126075000D03*
D42*
X120255000Y-125295000D03*
X120255000Y-124795000D03*
X120255000Y-124295000D03*
X120255000Y-123795000D03*
X120255000Y-123295000D03*
D43*
X119475000Y-122515000D03*
X118975000Y-122515000D03*
X118475000Y-122515000D03*
X117975000Y-122515000D03*
X117475000Y-122515000D03*
D44*
X118475000Y-124295000D03*
%TD*%
D20*
%TO.C,L4*%
X108249999Y-123850000D03*
X106500001Y-123850000D03*
%TD*%
D38*
%TO.C,X1*%
X126100000Y-121300000D03*
X123900000Y-121300000D03*
X123900000Y-123000000D03*
X126100000Y-123000000D03*
%TD*%
D35*
%TO.C,J5*%
X135400000Y-87800000D03*
D36*
X132860000Y-87800000D03*
%TD*%
D26*
%TO.C,C6*%
X114875001Y-123850000D03*
X113149999Y-123850000D03*
%TD*%
D45*
%TO.C,U9*%
X118050000Y-90900000D03*
X118050000Y-93200000D03*
D46*
X124350000Y-93200000D03*
D45*
X118050000Y-95500000D03*
%TD*%
D47*
%TO.C,J6*%
X113729999Y-91440000D03*
X113079999Y-91439999D03*
X112429999Y-91440000D03*
X111779999Y-91440000D03*
X111129999Y-91440000D03*
D48*
X116019998Y-88500000D03*
D49*
X114839998Y-91300000D03*
X110000000Y-91300000D03*
D48*
X108820000Y-88500000D03*
%TD*%
D24*
%TO.C,R17*%
X98490000Y-103920000D03*
X98490000Y-102095000D03*
%TD*%
D20*
%TO.C,L5*%
X104949999Y-123850000D03*
X103200001Y-123850000D03*
%TD*%
D23*
%TO.C,SW1*%
X98600000Y-118000000D03*
X98600000Y-111400000D03*
X102300000Y-118000000D03*
X102300000Y-111400000D03*
%TD*%
D22*
%TO.C,D3*%
X125950000Y-109400000D03*
X128000000Y-109400000D03*
%TD*%
D26*
%TO.C,C18*%
X116762501Y-101100000D03*
X115037499Y-101100000D03*
%TD*%
D18*
%TO.C,C21*%
X119100000Y-104100000D03*
X120825002Y-104100000D03*
%TD*%
%TO.C,C1*%
X111400000Y-126825000D03*
X113125000Y-126825000D03*
%TD*%
D25*
%TO.C,C2*%
X108275000Y-120587499D03*
X108275000Y-122312501D03*
%TD*%
D35*
%TO.C,J2*%
X129850000Y-126150000D03*
D36*
X132390000Y-126150000D03*
%TD*%
D18*
%TO.C,C5*%
X130660000Y-119690000D03*
X132385000Y-119690000D03*
%TD*%
D19*
%TO.C,R5*%
X98600000Y-107487500D03*
X98600000Y-109312500D03*
%TD*%
D50*
%TO.C,U10*%
X98895000Y-99200000D03*
X100165000Y-99200000D03*
X101435000Y-99200000D03*
X102705000Y-99200000D03*
X102705000Y-92000000D03*
X101435000Y-92000000D03*
X100165000Y-92000000D03*
X98895000Y-92000000D03*
%TD*%
D30*
%TO.C,R2*%
X124150000Y-88400000D03*
X125975000Y-88400000D03*
%TD*%
D51*
%TO.C,U7*%
X108062500Y-104037500D03*
X108062500Y-104437500D03*
X108062500Y-104837500D03*
X108062500Y-105237500D03*
X108062500Y-105637500D03*
X108062500Y-106037500D03*
X108062500Y-106437500D03*
X108062500Y-106837500D03*
X108062500Y-107237500D03*
X108062500Y-107637500D03*
X108062500Y-108037500D03*
X108062500Y-108437500D03*
X108062500Y-108837500D03*
X108062500Y-109237500D03*
D52*
X108900000Y-110075000D03*
X109300000Y-110075000D03*
X109700000Y-110075000D03*
X110100000Y-110075000D03*
X110500000Y-110075000D03*
X110900000Y-110075000D03*
X111300000Y-110075000D03*
X111700000Y-110075000D03*
X112100000Y-110075000D03*
X112500000Y-110075000D03*
X112900000Y-110075000D03*
X113300000Y-110075000D03*
X113700000Y-110075000D03*
X114100000Y-110075000D03*
D51*
X114937500Y-109237500D03*
X114937500Y-108837500D03*
X114937500Y-108437500D03*
X114937500Y-108037500D03*
X114937500Y-107637500D03*
X114937500Y-107237500D03*
X114937500Y-106837500D03*
X114937500Y-106437500D03*
X114937500Y-106037500D03*
X114937500Y-105637500D03*
X114937500Y-105237500D03*
X114937500Y-104837500D03*
X114937500Y-104437500D03*
X114937500Y-104037500D03*
D52*
X114100000Y-103200000D03*
X113700000Y-103200000D03*
X113300000Y-103200000D03*
X112900000Y-103200000D03*
X112500000Y-103200000D03*
X112100000Y-103200000D03*
X111700000Y-103200000D03*
X111300000Y-103200000D03*
X110900000Y-103200000D03*
X110500000Y-103200000D03*
X110100000Y-103200000D03*
X109700000Y-103200000D03*
X109300000Y-103200000D03*
X108900000Y-103200000D03*
D53*
X111500000Y-106637500D03*
%TD*%
D41*
%TO.C,C32*%
X99190120Y-89709880D03*
X100409880Y-88490120D03*
%TD*%
D26*
%TO.C,C24*%
X119662501Y-110900000D03*
X117937499Y-110900000D03*
%TD*%
D35*
%TO.C,J3*%
X136000000Y-114860000D03*
D36*
X136000000Y-117400000D03*
%TD*%
D30*
%TO.C,R10*%
X103287500Y-107300000D03*
X105112500Y-107300000D03*
%TD*%
D35*
%TO.C,J1*%
X136025000Y-121500000D03*
D36*
X136025000Y-124040000D03*
%TD*%
D28*
%TO.C,C13*%
X128500000Y-107425002D03*
X128500000Y-105700000D03*
%TD*%
D24*
%TO.C,R11*%
X107850000Y-116262500D03*
X107850000Y-114437500D03*
%TD*%
D19*
%TO.C,R3*%
X132000000Y-105687500D03*
X132000000Y-107512500D03*
%TD*%
D26*
%TO.C,C20*%
X119462501Y-107700000D03*
X117737499Y-107700000D03*
%TD*%
D19*
%TO.C,R15*%
X114100000Y-113087500D03*
X114100000Y-114912500D03*
%TD*%
D54*
%TO.C,L6*%
X132370000Y-116800000D03*
X129630000Y-116800000D03*
%TD*%
D28*
%TO.C,C26*%
X101200000Y-105800000D03*
X101200000Y-104074998D03*
%TD*%
D18*
%TO.C,C28*%
X120687500Y-97700000D03*
X122412500Y-97700000D03*
%TD*%
D55*
%TO.C,U5*%
X135700000Y-105200000D03*
D56*
X135700000Y-103929999D03*
X135700000Y-102660000D03*
%TD*%
D57*
%TO.C,C22*%
X122900000Y-101400000D03*
X124119760Y-102619760D03*
%TD*%
%LPD*%
M02*
