%TF.GenerationSoftware,KiCad,Pcbnew,8.0.5-1.fc40*%
%TF.CreationDate,2024-11-16T16:52:44-05:00*%
%TF.ProjectId,OS-41,4f532d34-312e-46b6-9963-61645f706362,rev?*%
%TF.SameCoordinates,Original*%
%TF.FileFunction,Copper,L1,Top*%
%TF.FilePolarity,Positive*%
%FSLAX46Y46*%
G04 Gerber Fmt 4.6, Leading zero omitted, Abs format (unit mm)*
G04 Created by KiCad (PCBNEW 8.0.5-1.fc40) date 2024-11-16 16:52:44*
%MOMM*%
%LPD*%
G01*
G04 APERTURE LIST*
G04 Aperture macros list*
%AMRoundRect*
0 Rectangle with rounded corners*
0 $1 Rounding radius*
0 $2 $3 $4 $5 $6 $7 $8 $9 X,Y pos of 4 corners*
0 Add a 4 corners polygon primitive as box body*
4,1,4,$2,$3,$4,$5,$6,$7,$8,$9,$2,$3,0*
0 Add four circle primitives for the rounded corners*
1,1,$1+$1,$2,$3*
1,1,$1+$1,$4,$5*
1,1,$1+$1,$6,$7*
1,1,$1+$1,$8,$9*
0 Add four rect primitives between the rounded corners*
20,1,$1+$1,$2,$3,$4,$5,0*
20,1,$1+$1,$4,$5,$6,$7,0*
20,1,$1+$1,$6,$7,$8,$9,0*
20,1,$1+$1,$8,$9,$2,$3,0*%
G04 Aperture macros list end*
%TA.AperFunction,SMDPad,CuDef*%
%ADD10RoundRect,0.237500X-0.250000X-0.237500X0.250000X-0.237500X0.250000X0.237500X-0.250000X0.237500X0*%
%TD*%
%TA.AperFunction,ComponentPad*%
%ADD11C,2.050000*%
%TD*%
%TA.AperFunction,ComponentPad*%
%ADD12C,2.250000*%
%TD*%
%TA.AperFunction,SMDPad,CuDef*%
%ADD13R,2.500000X1.000000*%
%TD*%
%TA.AperFunction,SMDPad,CuDef*%
%ADD14R,1.000000X1.800000*%
%TD*%
%TA.AperFunction,ComponentPad*%
%ADD15R,1.700000X1.700000*%
%TD*%
%TA.AperFunction,ComponentPad*%
%ADD16O,1.700000X1.700000*%
%TD*%
%TA.AperFunction,SMDPad,CuDef*%
%ADD17R,1.000000X1.700000*%
%TD*%
%TA.AperFunction,SMDPad,CuDef*%
%ADD18O,1.770000X0.700000*%
%TD*%
%TA.AperFunction,SMDPad,CuDef*%
%ADD19RoundRect,0.237500X0.300000X0.237500X-0.300000X0.237500X-0.300000X-0.237500X0.300000X-0.237500X0*%
%TD*%
%TA.AperFunction,SMDPad,CuDef*%
%ADD20RoundRect,0.237500X-0.008839X-0.344715X0.344715X0.008839X0.008839X0.344715X-0.344715X-0.008839X0*%
%TD*%
%TA.AperFunction,SMDPad,CuDef*%
%ADD21RoundRect,0.237500X-0.300000X-0.237500X0.300000X-0.237500X0.300000X0.237500X-0.300000X0.237500X0*%
%TD*%
%TA.AperFunction,SMDPad,CuDef*%
%ADD22RoundRect,0.237500X0.237500X-0.300000X0.237500X0.300000X-0.237500X0.300000X-0.237500X-0.300000X0*%
%TD*%
%TA.AperFunction,SMDPad,CuDef*%
%ADD23RoundRect,0.147500X-0.457500X-0.147500X0.457500X-0.147500X0.457500X0.147500X-0.457500X0.147500X0*%
%TD*%
%TA.AperFunction,ComponentPad*%
%ADD24R,1.050000X1.500000*%
%TD*%
%TA.AperFunction,ComponentPad*%
%ADD25O,1.050000X1.500000*%
%TD*%
%TA.AperFunction,SMDPad,CuDef*%
%ADD26RoundRect,0.237500X0.237500X-0.287500X0.237500X0.287500X-0.237500X0.287500X-0.237500X-0.287500X0*%
%TD*%
%TA.AperFunction,SMDPad,CuDef*%
%ADD27RoundRect,0.237500X-0.237500X0.250000X-0.237500X-0.250000X0.237500X-0.250000X0.237500X0.250000X0*%
%TD*%
%TA.AperFunction,SMDPad,CuDef*%
%ADD28RoundRect,0.237500X-0.237500X0.300000X-0.237500X-0.300000X0.237500X-0.300000X0.237500X0.300000X0*%
%TD*%
%TA.AperFunction,SMDPad,CuDef*%
%ADD29RoundRect,0.237500X0.250000X0.237500X-0.250000X0.237500X-0.250000X-0.237500X0.250000X-0.237500X0*%
%TD*%
%TA.AperFunction,SMDPad,CuDef*%
%ADD30R,0.760000X0.280000*%
%TD*%
%TA.AperFunction,SMDPad,CuDef*%
%ADD31R,0.280000X0.760000*%
%TD*%
%TA.AperFunction,SMDPad,CuDef*%
%ADD32R,2.250000X2.300000*%
%TD*%
%TA.AperFunction,SMDPad,CuDef*%
%ADD33RoundRect,0.237500X0.237500X-0.250000X0.237500X0.250000X-0.237500X0.250000X-0.237500X-0.250000X0*%
%TD*%
%TA.AperFunction,SMDPad,CuDef*%
%ADD34RoundRect,0.237500X0.287500X0.237500X-0.287500X0.237500X-0.287500X-0.237500X0.287500X-0.237500X0*%
%TD*%
%TA.AperFunction,SMDPad,CuDef*%
%ADD35R,3.500000X1.750000*%
%TD*%
%TA.AperFunction,SMDPad,CuDef*%
%ADD36R,1.400000X1.200000*%
%TD*%
%TA.AperFunction,SMDPad,CuDef*%
%ADD37RoundRect,0.150000X-0.512500X-0.150000X0.512500X-0.150000X0.512500X0.150000X-0.512500X0.150000X0*%
%TD*%
%TA.AperFunction,ViaPad*%
%ADD38C,0.600000*%
%TD*%
%TA.AperFunction,Conductor*%
%ADD39C,0.800000*%
%TD*%
%TA.AperFunction,Conductor*%
%ADD40C,0.300000*%
%TD*%
%TA.AperFunction,Conductor*%
%ADD41C,0.250000*%
%TD*%
%TA.AperFunction,Conductor*%
%ADD42C,0.200000*%
%TD*%
G04 APERTURE END LIST*
D10*
%TO.P,R7,1*%
%TO.N,BATT*%
X134887500Y-91500000D03*
%TO.P,R7,2*%
%TO.N,ADC_RAW*%
X136712500Y-91500000D03*
%TD*%
D11*
%TO.P,J1,1,In*%
%TO.N,Net-(J1-In)*%
X106460000Y-107360000D03*
D12*
%TO.P,J1,2,Ext*%
%TO.N,GND*%
X103920000Y-104820000D03*
X103920000Y-109900000D03*
X109000000Y-104820000D03*
X109000000Y-109900000D03*
%TD*%
D13*
%TO.P,U1,1,~{RST}*%
%TO.N,RST*%
X139012500Y-98612500D03*
%TO.P,U1,2,ADC*%
%TO.N,ADC_RAW*%
X139012500Y-100612500D03*
%TO.P,U1,3,EN*%
%TO.N,EN*%
X139012500Y-102612500D03*
%TO.P,U1,4,GPIO16*%
%TO.N,GPIO16*%
X139012500Y-104612500D03*
%TO.P,U1,5,GPIO14*%
%TO.N,GPIO14*%
X139012500Y-106612500D03*
%TO.P,U1,6,GPIO12*%
%TO.N,GPIO12*%
X139012500Y-108612500D03*
%TO.P,U1,7,GPIO13*%
%TO.N,GPIO13*%
X139012500Y-110612500D03*
%TO.P,U1,8,VCC*%
%TO.N,VCC*%
X139012500Y-112612500D03*
D14*
%TO.P,U1,9,CS0*%
%TO.N,CS0*%
X141612500Y-114112500D03*
%TO.P,U1,10,MISO*%
%TO.N,MISO*%
X143612500Y-114112500D03*
%TO.P,U1,11,GPIO9*%
%TO.N,GPIO9*%
X145612500Y-114112500D03*
%TO.P,U1,12,GPIO10*%
%TO.N,GPIO10*%
X147612500Y-114112500D03*
%TO.P,U1,13,MOSI*%
%TO.N,MOSI*%
X149612500Y-114112500D03*
%TO.P,U1,14,SCLK*%
%TO.N,SCK*%
X151612500Y-114112500D03*
D13*
%TO.P,U1,15,GND*%
%TO.N,GND*%
X154212500Y-112612500D03*
%TO.P,U1,16,GPIO15*%
%TO.N,GPIO15*%
X154212500Y-110612500D03*
%TO.P,U1,17,GPIO2*%
%TO.N,GPIO2*%
X154212500Y-108612500D03*
%TO.P,U1,18,GPIO0*%
%TO.N,GPIO0*%
X154212500Y-106612500D03*
%TO.P,U1,19,GPIO4*%
%TO.N,GPIO4*%
X154212500Y-104612500D03*
%TO.P,U1,20,GPIO5*%
%TO.N,GPIO5*%
X154212500Y-102612500D03*
%TO.P,U1,21,GPIO3/RXD*%
%TO.N,RXD0*%
X154212500Y-100612500D03*
%TO.P,U1,22,GPIO1/TXD*%
%TO.N,TXD0*%
X154212500Y-98612500D03*
%TD*%
D15*
%TO.P,J5,1,Pin_1*%
%TO.N,VCC*%
X159712500Y-121512500D03*
D16*
%TO.P,J5,2,Pin_2*%
%TO.N,GND*%
X162252500Y-121512500D03*
%TD*%
D17*
%TO.P,SW3,1,A*%
%TO.N,GPSPAUSE*%
X166162500Y-109912500D03*
%TO.P,SW3,2,B*%
X166162500Y-116512500D03*
%TO.P,SW3,3,C*%
%TO.N,GND*%
X162462500Y-109912500D03*
%TO.P,SW3,4,D*%
X162462500Y-116512500D03*
%TD*%
%TO.P,SW2,1,A*%
%TO.N,RST*%
X129862500Y-92012500D03*
%TO.P,SW2,2,B*%
X129862500Y-98612500D03*
%TO.P,SW2,3,C*%
%TO.N,GND*%
X126162500Y-92012500D03*
%TO.P,SW2,4,D*%
X126162500Y-98612500D03*
%TD*%
D18*
%TO.P,U2,1,GND*%
%TO.N,GND*%
X166992500Y-97812500D03*
%TO.P,U2,2,TXD*%
%TO.N,RXD0*%
X166992500Y-98912500D03*
%TO.P,U2,3,RXD*%
%TO.N,TXD0*%
X166992499Y-100012500D03*
%TO.P,U2,4,1PPS*%
%TO.N,unconnected-(U2-1PPS-Pad4)*%
X166992500Y-101112500D03*
%TO.P,U2,5,ON/OFF*%
%TO.N,GPSPAUSE*%
X166992499Y-102212500D03*
%TO.P,U2,6,VBAT*%
%TO.N,VCC*%
X166992500Y-103312500D03*
%TO.P,U2,7,NC*%
%TO.N,unconnected-(U2-NC-Pad7)*%
X166992499Y-104412500D03*
%TO.P,U2,8,VCC*%
%TO.N,VCC*%
X166992500Y-105512500D03*
%TO.P,U2,9,NRESET*%
X166992500Y-106612500D03*
%TO.P,U2,10,GND*%
%TO.N,GND*%
X176612500Y-106612500D03*
%TO.P,U2,11,RF_IN*%
%TO.N,GPS_ANT*%
X176612500Y-105512500D03*
%TO.P,U2,12,GND*%
%TO.N,GND*%
X176612501Y-104412500D03*
%TO.P,U2,13,NC*%
%TO.N,unconnected-(U2-NC-Pad13)*%
X176612500Y-103312500D03*
%TO.P,U2,14,VCC_RF*%
%TO.N,unconnected-(U2-VCC_RF-Pad14)*%
X176612501Y-102212500D03*
%TO.P,U2,15,Reserved*%
%TO.N,unconnected-(U2-Reserved-Pad15)*%
X176612500Y-101112500D03*
%TO.P,U2,16,SDA*%
%TO.N,unconnected-(U2-SDA-Pad16)*%
X176612501Y-100012500D03*
%TO.P,U2,17,SCL*%
%TO.N,unconnected-(U2-SCL-Pad17)*%
X176612500Y-98912500D03*
%TO.P,U2,18,Reserved*%
%TO.N,unconnected-(U2-Reserved-Pad18)*%
X176612500Y-97812500D03*
%TD*%
D19*
%TO.P,C4,1*%
%TO.N,Net-(IC1-VR_DIG)*%
X129175001Y-111012500D03*
%TO.P,C4,2*%
%TO.N,GND*%
X127449999Y-111012500D03*
%TD*%
D20*
%TO.P,R12,1*%
%TO.N,GPIO5*%
X157809530Y-115290470D03*
%TO.P,R12,2*%
%TO.N,VCC*%
X159100000Y-114000000D03*
%TD*%
D21*
%TO.P,C18,1*%
%TO.N,GND*%
X110037500Y-114700000D03*
%TO.P,C18,2*%
%TO.N,VCC*%
X111762500Y-114700000D03*
%TD*%
D15*
%TO.P,J4,1,Pin_1*%
%TO.N,BATT*%
X133850000Y-121675000D03*
D16*
%TO.P,J4,2,Pin_2*%
%TO.N,GND*%
X136390000Y-121675000D03*
%TD*%
D15*
%TO.P,J2,1,Pin_1*%
%TO.N,GPS_ANT*%
X179737500Y-105562500D03*
D16*
%TO.P,J2,2,Pin_2*%
%TO.N,GND*%
X179737500Y-108102500D03*
%TD*%
D22*
%TO.P,C5,1*%
%TO.N,VCC*%
X124412500Y-105712500D03*
%TO.P,C5,2*%
%TO.N,GND*%
X124412500Y-103987498D03*
%TD*%
D19*
%TO.P,C9,1*%
%TO.N,Net-(IC1-TX)*%
X123262501Y-107600000D03*
%TO.P,C9,2*%
%TO.N,Net-(C10-Pad2)*%
X121537499Y-107600000D03*
%TD*%
D23*
%TO.P,U6,1,EN*%
%TO.N,BATT_HV*%
X112230000Y-116630000D03*
%TO.P,U6,2,GND*%
%TO.N,GND*%
X112230000Y-117580000D03*
%TO.P,U6,3,SW*%
%TO.N,Net-(U6-SW)*%
X112230000Y-118530000D03*
%TO.P,U6,4,VIN*%
%TO.N,BATT_HV*%
X114740000Y-118530000D03*
%TO.P,U6,5,FB*%
%TO.N,Net-(U6-FB)*%
X114740000Y-116630000D03*
%TD*%
D24*
%TO.P,U3,1,GND*%
%TO.N,GND*%
X144530000Y-119960000D03*
D25*
%TO.P,U3,2,DQ*%
%TO.N,GPIO5*%
X145800000Y-119960000D03*
%TO.P,U3,3,V_{DD}*%
%TO.N,VCC*%
X147070000Y-119960000D03*
%TD*%
D22*
%TO.P,C3,1*%
%TO.N,RST*%
X135012500Y-97475001D03*
%TO.P,C3,2*%
%TO.N,GND*%
X135012500Y-95749999D03*
%TD*%
D10*
%TO.P,R3,1*%
%TO.N,VCC*%
X134800000Y-102600000D03*
%TO.P,R3,2*%
%TO.N,EN*%
X136625000Y-102600000D03*
%TD*%
D26*
%TO.P,L1,1,1*%
%TO.N,VCC*%
X124900000Y-110674999D03*
%TO.P,L1,2,2*%
%TO.N,Net-(IC1-TX)*%
X124900000Y-108925001D03*
%TD*%
D27*
%TO.P,R14,1*%
%TO.N,VCC*%
X117100000Y-114787500D03*
%TO.P,R14,2*%
%TO.N,Net-(U6-FB)*%
X117100000Y-116612500D03*
%TD*%
D28*
%TO.P,C17,1*%
%TO.N,BATT_HV*%
X114740000Y-120300000D03*
%TO.P,C17,2*%
%TO.N,GND*%
X114740000Y-122025002D03*
%TD*%
D29*
%TO.P,R2,1*%
%TO.N,VCC*%
X158312500Y-110700000D03*
%TO.P,R2,2*%
%TO.N,GPIO2*%
X156487500Y-110700000D03*
%TD*%
D21*
%TO.P,C7,1*%
%TO.N,VCC*%
X132687500Y-110512500D03*
%TO.P,C7,2*%
%TO.N,GND*%
X134412500Y-110512500D03*
%TD*%
D28*
%TO.P,C16,1*%
%TO.N,VCC*%
X135900000Y-114637499D03*
%TO.P,C16,2*%
%TO.N,GND*%
X135900000Y-116362501D03*
%TD*%
D30*
%TO.P,IC1,1,VDD_RF*%
%TO.N,VCC*%
X126332500Y-106732500D03*
%TO.P,IC1,2,TX*%
%TO.N,Net-(IC1-TX)*%
X126332500Y-107232500D03*
%TO.P,IC1,3,RXP*%
%TO.N,unconnected-(IC1-RXP-Pad3)*%
X126332500Y-107732500D03*
%TO.P,IC1,4,RXN*%
%TO.N,unconnected-(IC1-RXN-Pad4)*%
X126332500Y-108232500D03*
%TO.P,IC1,5,NC_1*%
%TO.N,unconnected-(IC1-NC_1-Pad5)*%
X126332500Y-108732500D03*
D31*
%TO.P,IC1,6,ANT*%
%TO.N,unconnected-(IC1-ANT-Pad6)*%
X127112500Y-109512500D03*
%TO.P,IC1,7,GPIO_0*%
%TO.N,unconnected-(IC1-GPIO_0-Pad7)*%
X127612500Y-109512500D03*
%TO.P,IC1,8,GPIO_1*%
%TO.N,unconnected-(IC1-GPIO_1-Pad8)*%
X128112500Y-109512500D03*
%TO.P,IC1,9,GPIO_2*%
%TO.N,unconnected-(IC1-GPIO_2-Pad9)*%
X128612500Y-109512500D03*
%TO.P,IC1,10,VR_DIG*%
%TO.N,Net-(IC1-VR_DIG)*%
X129112500Y-109512500D03*
D30*
%TO.P,IC1,11,NC_2*%
%TO.N,unconnected-(IC1-NC_2-Pad11)*%
X129892500Y-108732500D03*
%TO.P,IC1,12,VDD_DIG*%
%TO.N,VCC*%
X129892500Y-108232500D03*
%TO.P,IC1,13,SDO*%
%TO.N,GPIO12*%
X129892500Y-107732500D03*
%TO.P,IC1,14,SDI*%
%TO.N,GPIO13*%
X129892500Y-107232500D03*
%TO.P,IC1,15,SCLK*%
%TO.N,GPIO14*%
X129892500Y-106732500D03*
D31*
%TO.P,IC1,16,NSEL*%
%TO.N,GPIO15*%
X129112500Y-105952500D03*
%TO.P,IC1,17,NIRQ*%
%TO.N,GPIO4*%
X128612500Y-105952500D03*
%TO.P,IC1,18,XOUT*%
%TO.N,Net-(IC1-XOUT)*%
X128112500Y-105952500D03*
%TO.P,IC1,19,XIN*%
%TO.N,Net-(IC1-XIN)*%
X127612500Y-105952500D03*
%TO.P,IC1,20,SDN*%
%TO.N,GPIO16*%
X127112500Y-105952500D03*
D32*
%TO.P,IC1,21,EP*%
%TO.N,GND*%
X128112500Y-107732500D03*
%TD*%
D21*
%TO.P,C1,1*%
%TO.N,VCC*%
X140312500Y-116312500D03*
%TO.P,C1,2*%
%TO.N,GND*%
X142037500Y-116312500D03*
%TD*%
D29*
%TO.P,R5,1*%
%TO.N,GND*%
X154825000Y-116300000D03*
%TO.P,R5,2*%
%TO.N,GPIO15*%
X153000000Y-116300000D03*
%TD*%
D33*
%TO.P,R6,1*%
%TO.N,VCC*%
X166200000Y-120525000D03*
%TO.P,R6,2*%
%TO.N,GPSPAUSE*%
X166200000Y-118700000D03*
%TD*%
D27*
%TO.P,R10,1*%
%TO.N,Net-(U5-V_{FB})*%
X128000000Y-118487500D03*
%TO.P,R10,2*%
%TO.N,GND*%
X128000000Y-120312500D03*
%TD*%
D22*
%TO.P,C6,1*%
%TO.N,VCC*%
X121612500Y-105675001D03*
%TO.P,C6,2*%
%TO.N,GND*%
X121612500Y-103949999D03*
%TD*%
D34*
%TO.P,L5,1,1*%
%TO.N,Net-(C11-Pad2)*%
X116500000Y-107600000D03*
%TO.P,L5,2,2*%
%TO.N,Net-(C13-Pad2)*%
X114750002Y-107600000D03*
%TD*%
D28*
%TO.P,C11,1*%
%TO.N,GND*%
X116500000Y-103137499D03*
%TO.P,C11,2*%
%TO.N,Net-(C11-Pad2)*%
X116500000Y-104862501D03*
%TD*%
D15*
%TO.P,J3,1,Pin_1*%
%TO.N,VCC*%
X159912500Y-95932500D03*
D16*
%TO.P,J3,2,Pin_2*%
%TO.N,TXD0*%
X159912500Y-98472500D03*
%TO.P,J3,3,Pin_3*%
%TO.N,RXD0*%
X159912500Y-101012500D03*
%TO.P,J3,4,Pin_4*%
%TO.N,GND*%
X159912500Y-103552500D03*
%TD*%
D27*
%TO.P,R9,1*%
%TO.N,VCC*%
X128000000Y-114487500D03*
%TO.P,R9,2*%
%TO.N,Net-(U5-V_{FB})*%
X128000000Y-116312500D03*
%TD*%
D22*
%TO.P,C13,1*%
%TO.N,GND*%
X113000000Y-110862501D03*
%TO.P,C13,2*%
%TO.N,Net-(C13-Pad2)*%
X113000000Y-109137499D03*
%TD*%
D10*
%TO.P,R4,1*%
%TO.N,VCC*%
X133187500Y-99600000D03*
%TO.P,R4,2*%
%TO.N,RST*%
X135012500Y-99600000D03*
%TD*%
D26*
%TO.P,L7,1,1*%
%TO.N,Net-(U6-SW)*%
X109900000Y-118674999D03*
%TO.P,L7,2,2*%
%TO.N,VCC*%
X109900000Y-116925001D03*
%TD*%
D21*
%TO.P,C8,1*%
%TO.N,VCC*%
X131850000Y-108512500D03*
%TO.P,C8,2*%
%TO.N,GND*%
X133575000Y-108512500D03*
%TD*%
D35*
%TO.P,L3,1,1*%
%TO.N,BATT*%
X120200000Y-117400000D03*
%TO.P,L3,2,2*%
%TO.N,Net-(U5-SW)*%
X120200000Y-114660000D03*
%TD*%
D15*
%TO.P,J7,1,Pin_1*%
%TO.N,BATT_HV*%
X104060000Y-121600000D03*
D16*
%TO.P,J7,2,Pin_2*%
%TO.N,GND*%
X106600000Y-121600000D03*
%TD*%
D36*
%TO.P,X1,1,OSC1*%
%TO.N,Net-(IC1-XIN)*%
X127000000Y-103200000D03*
%TO.P,X1,2,2*%
%TO.N,GND*%
X129200000Y-103200000D03*
%TO.P,X1,3,OSC2*%
%TO.N,Net-(IC1-XOUT)*%
X129200000Y-101500000D03*
%TO.P,X1,4,4*%
%TO.N,GND*%
X127000000Y-101500000D03*
%TD*%
D34*
%TO.P,L6,1,1*%
%TO.N,Net-(C13-Pad2)*%
X113174999Y-107600000D03*
%TO.P,L6,2,2*%
%TO.N,Net-(J1-In)*%
X111425001Y-107600000D03*
%TD*%
D33*
%TO.P,R1,1*%
%TO.N,VCC*%
X158200000Y-108500000D03*
%TO.P,R1,2*%
%TO.N,GPIO0*%
X158200000Y-106675000D03*
%TD*%
D22*
%TO.P,C10,1*%
%TO.N,Net-(C10-Pad1)*%
X118700000Y-111562501D03*
%TO.P,C10,2*%
%TO.N,Net-(C10-Pad2)*%
X118700000Y-109837499D03*
%TD*%
D21*
%TO.P,C12,1*%
%TO.N,GND*%
X121937499Y-119600000D03*
%TO.P,C12,2*%
%TO.N,BATT*%
X123662501Y-119600000D03*
%TD*%
D28*
%TO.P,C14,1*%
%TO.N,VCC*%
X130700000Y-114637499D03*
%TO.P,C14,2*%
%TO.N,GND*%
X130700000Y-116362501D03*
%TD*%
D34*
%TO.P,L4,1,1*%
%TO.N,Net-(C10-Pad2)*%
X119800000Y-107600000D03*
%TO.P,L4,2,2*%
%TO.N,Net-(C11-Pad2)*%
X118050002Y-107600000D03*
%TD*%
D37*
%TO.P,U5,1,SW*%
%TO.N,Net-(U5-SW)*%
X123725000Y-115000000D03*
%TO.P,U5,2,GND*%
%TO.N,GND*%
X123725000Y-115950000D03*
%TO.P,U5,3,EN*%
%TO.N,BATT*%
X123725000Y-116900000D03*
%TO.P,U5,4,V_{FB}*%
%TO.N,Net-(U5-V_{FB})*%
X126000000Y-116900000D03*
%TO.P,U5,5,V_{OUT}*%
%TO.N,VCC*%
X126000000Y-115950000D03*
%TO.P,U5,6,V_{IN}*%
%TO.N,BATT*%
X126000000Y-115000000D03*
%TD*%
D28*
%TO.P,C15,1*%
%TO.N,VCC*%
X133400000Y-114637499D03*
%TO.P,C15,2*%
%TO.N,GND*%
X133400000Y-116362501D03*
%TD*%
D21*
%TO.P,C2,1*%
%TO.N,VCC*%
X140350000Y-118412500D03*
%TO.P,C2,2*%
%TO.N,GND*%
X142075000Y-118412500D03*
%TD*%
D24*
%TO.P,U4,1,GND*%
%TO.N,GND*%
X150060000Y-120000000D03*
D25*
%TO.P,U4,2,DQ*%
%TO.N,GPIO5*%
X151330000Y-120000000D03*
%TO.P,U4,3,V_{DD}*%
%TO.N,VCC*%
X152600000Y-120000000D03*
%TD*%
D27*
%TO.P,R13,1*%
%TO.N,Net-(U6-FB)*%
X117100000Y-118287500D03*
%TO.P,R13,2*%
%TO.N,GND*%
X117100000Y-120112500D03*
%TD*%
D15*
%TO.P,J6,1,Pin_1*%
%TO.N,VCC*%
X170500000Y-121600000D03*
D16*
%TO.P,J6,2,Pin_2*%
%TO.N,GND*%
X173040000Y-121600000D03*
%TD*%
D29*
%TO.P,R8,1*%
%TO.N,ADC_RAW*%
X136712500Y-93100000D03*
%TO.P,R8,2*%
%TO.N,GND*%
X134887500Y-93100000D03*
%TD*%
D10*
%TO.P,R11,1*%
%TO.N,GND*%
X114487500Y-111600000D03*
%TO.P,R11,2*%
%TO.N,Net-(C10-Pad1)*%
X116312500Y-111600000D03*
%TD*%
D26*
%TO.P,L2,1,1*%
%TO.N,Net-(C10-Pad1)*%
X121600000Y-111800000D03*
%TO.P,L2,2,2*%
%TO.N,Net-(C10-Pad2)*%
X121600000Y-110050002D03*
%TD*%
D17*
%TO.P,SW1,1,A*%
%TO.N,GPIO0*%
X123962500Y-92112500D03*
%TO.P,SW1,2,B*%
X123962500Y-98712500D03*
%TO.P,SW1,3,C*%
%TO.N,GND*%
X120262500Y-92112500D03*
%TO.P,SW1,4,D*%
X120262500Y-98712500D03*
%TD*%
D38*
%TO.N,VCC*%
X139612500Y-118912500D03*
X159400000Y-111000000D03*
X162400000Y-99500000D03*
X141600000Y-106500000D03*
X129752502Y-109372502D03*
X139012500Y-113712500D03*
X134700000Y-103712500D03*
X132812500Y-111312500D03*
X158300000Y-109500000D03*
X165712500Y-106812500D03*
X159600000Y-114900000D03*
X126472498Y-106236817D03*
X134412500Y-112312500D03*
%TO.N,GPIO12*%
X137454442Y-108570558D03*
X134512500Y-107857500D03*
%TO.N,GPIO16*%
X126987500Y-105212500D03*
X137212500Y-104912500D03*
%TO.N,GND*%
X114100000Y-113600000D03*
X120212500Y-100212500D03*
X164500000Y-102500000D03*
X127000000Y-101500000D03*
X122000000Y-100500000D03*
X111500000Y-120200000D03*
X150600000Y-116100000D03*
X158300000Y-117000000D03*
X163800000Y-103700000D03*
X174100000Y-103500000D03*
X171800000Y-108000000D03*
X157200000Y-94600000D03*
X112400000Y-122200000D03*
X108000000Y-113700000D03*
X174500000Y-100800000D03*
X127600000Y-96000000D03*
X122700000Y-99500000D03*
X128000000Y-98800000D03*
X122600000Y-98500000D03*
X163200000Y-102000000D03*
X131000000Y-110000000D03*
X170000000Y-104000000D03*
X152000000Y-101000000D03*
X174100000Y-102200000D03*
X172800000Y-106500000D03*
X125300000Y-118700000D03*
X136500000Y-113000000D03*
X127500000Y-112100000D03*
X103300000Y-113400000D03*
X119300000Y-104400000D03*
X112000000Y-103000000D03*
X120000000Y-102500000D03*
X173000000Y-96100000D03*
X170300000Y-102500000D03*
X121700000Y-92100000D03*
X116800000Y-110300000D03*
X122800000Y-95500000D03*
X122700000Y-122100000D03*
X126400000Y-122100000D03*
X119600000Y-121100000D03*
X152000000Y-98000000D03*
X172000000Y-112000000D03*
X128500000Y-99200000D03*
X164400000Y-96200000D03*
X171500000Y-95500000D03*
X128000000Y-91500000D03*
X106500000Y-109900000D03*
X120100000Y-122200000D03*
X178600000Y-101700000D03*
X125600000Y-105100000D03*
X170700000Y-118000000D03*
X122100000Y-95900000D03*
X128100000Y-95300000D03*
X108200000Y-115700000D03*
X118700000Y-119100000D03*
X112200000Y-104500000D03*
X164100000Y-93000000D03*
X135500000Y-94000000D03*
X131200000Y-101400000D03*
X144500000Y-99500000D03*
X147300000Y-116100000D03*
X122400000Y-115900000D03*
X131500000Y-99600000D03*
X117000000Y-113000000D03*
X174500000Y-113300000D03*
X118000000Y-103000000D03*
X117000000Y-108900000D03*
X103920000Y-107300000D03*
X135500000Y-109500000D03*
X113400000Y-104000000D03*
X170800000Y-105000000D03*
X152000000Y-99500000D03*
X177000000Y-113500000D03*
X179000000Y-100500000D03*
X150500000Y-101500000D03*
X131500000Y-97300000D03*
X119000000Y-97500000D03*
X128000000Y-92300000D03*
X111400000Y-122300000D03*
X171800000Y-103900000D03*
X165000000Y-101500000D03*
X140200000Y-122500000D03*
X143500000Y-102000000D03*
X129700000Y-119500000D03*
X103900000Y-118100000D03*
X164000000Y-98000000D03*
X131700000Y-113400000D03*
X132600000Y-102200000D03*
X119000000Y-92000000D03*
X132600000Y-118700000D03*
X174200000Y-99900000D03*
X174500000Y-106500000D03*
X116000000Y-108900000D03*
X169900000Y-96400000D03*
X177500000Y-109000000D03*
X132300000Y-117300000D03*
X175300000Y-96400000D03*
X134600000Y-117200000D03*
X113300000Y-112700000D03*
X119400000Y-103100000D03*
X120600000Y-119100000D03*
X173100000Y-101600000D03*
X174100000Y-108100000D03*
X133000000Y-94500000D03*
X149500000Y-116900000D03*
X165500000Y-95500000D03*
X105700000Y-116600000D03*
X172400000Y-100000000D03*
X128100000Y-94500000D03*
X127212499Y-107860703D03*
X164000000Y-101500000D03*
X170900000Y-98400000D03*
X138300000Y-115800000D03*
X131600000Y-117300000D03*
X105700000Y-113900000D03*
X122300000Y-94700000D03*
X148800000Y-99400000D03*
X164500000Y-104500000D03*
X169500000Y-97600000D03*
X157100000Y-118600000D03*
X155700000Y-118400000D03*
X132000000Y-91000000D03*
X164000000Y-105500000D03*
X172100000Y-105600000D03*
X130900000Y-103400000D03*
X118252982Y-112741053D03*
X106500000Y-104820000D03*
X178800000Y-103000000D03*
X169800000Y-105800000D03*
X114100000Y-105300000D03*
X169900000Y-108100000D03*
X145900000Y-116100000D03*
X172500000Y-114300000D03*
X104200000Y-114800000D03*
X127725898Y-108374102D03*
X107000000Y-115100000D03*
X128712500Y-102600002D03*
X121900000Y-99400000D03*
X111500000Y-112000000D03*
X173600000Y-109300000D03*
X121500000Y-94700000D03*
X167600000Y-96300000D03*
X176000000Y-108500000D03*
X175700000Y-109800000D03*
X119500000Y-101000000D03*
X121800000Y-95300000D03*
X133912500Y-113449999D03*
X124200000Y-101800000D03*
X135926769Y-115674999D03*
X175800000Y-119100000D03*
X136500000Y-112000000D03*
X130000000Y-120600000D03*
X111000000Y-117200000D03*
X174000000Y-97700000D03*
X179900000Y-112700000D03*
X158000000Y-103500000D03*
X138000000Y-120000000D03*
X118800000Y-105300000D03*
X157500000Y-96500000D03*
X132887500Y-108566657D03*
X128800000Y-106900000D03*
X115000000Y-103000000D03*
X132400000Y-113500000D03*
X127300000Y-95100000D03*
X180200000Y-101100000D03*
X172700000Y-104500000D03*
X129400000Y-122300000D03*
X119000000Y-102000000D03*
X170900000Y-99800000D03*
X169300000Y-100600000D03*
X171000000Y-109500000D03*
X174000000Y-105500000D03*
X121900000Y-98400000D03*
X112400000Y-120400000D03*
X172700000Y-97900000D03*
X135500000Y-111500000D03*
X125700000Y-119900000D03*
X169300000Y-98600000D03*
X123000000Y-101500000D03*
X119800000Y-119500000D03*
X179000000Y-98500000D03*
X122500000Y-92000000D03*
%TO.N,GPIO0*%
X152212500Y-106612500D03*
X124412500Y-100612500D03*
%TO.N,RXD0*%
X164512500Y-99012500D03*
%TO.N,GPIO5*%
X156500000Y-116900000D03*
X155700000Y-103600000D03*
%TO.N,BATT*%
X136000000Y-90600000D03*
%TO.N,BATT_HV*%
X112300000Y-116000000D03*
%TD*%
D39*
%TO.N,Net-(IC1-TX)*%
X123262501Y-107600000D02*
X124900000Y-107600000D01*
X124900000Y-107600000D02*
X125352500Y-107600000D01*
X124900000Y-108925001D02*
X124900000Y-107600000D01*
D40*
X126332500Y-107232500D02*
X125720000Y-107232500D01*
X125720000Y-107232500D02*
X125352500Y-107600000D01*
D41*
%TO.N,GPIO4*%
X129557500Y-104337500D02*
X136887500Y-104337500D01*
X128612500Y-105952500D02*
X128612500Y-105282500D01*
X137437500Y-103787500D02*
X153387500Y-103787500D01*
X153387500Y-103787500D02*
X154212500Y-104612500D01*
X136887500Y-104337500D02*
X137437500Y-103787500D01*
X128612500Y-105282500D02*
X129557500Y-104337500D01*
%TO.N,VCC*%
X141600000Y-110775000D02*
X141600000Y-106500000D01*
X130597500Y-109197500D02*
X130422498Y-109372502D01*
X125800000Y-114275001D02*
X127787501Y-114275001D01*
D39*
X134812500Y-112712500D02*
X134412500Y-112312500D01*
D41*
X165625000Y-101025000D02*
X165062500Y-100462500D01*
X166992500Y-103312500D02*
X166196384Y-103312500D01*
X132687500Y-110512500D02*
X132687500Y-111187500D01*
X124412500Y-105712500D02*
X125312500Y-105712500D01*
X133187500Y-99600000D02*
X133187500Y-100987500D01*
X166006250Y-121206250D02*
X164525000Y-122687500D01*
D42*
X124900000Y-113375001D02*
X125800000Y-114275001D01*
D41*
X166557500Y-105512500D02*
X165782499Y-104737499D01*
D42*
X124900000Y-110674999D02*
X124900000Y-113375001D01*
X124900000Y-110674999D02*
X124900000Y-111199999D01*
D41*
X139012500Y-112612500D02*
X139012500Y-115012500D01*
X132687500Y-110512500D02*
X132687500Y-109350000D01*
X131850000Y-108512500D02*
X130697500Y-108512500D01*
X132687500Y-111187500D02*
X132812500Y-111312500D01*
X166200000Y-120525000D02*
X166200000Y-121012500D01*
D39*
X134900000Y-114637499D02*
X135900000Y-114637499D01*
D41*
X166792500Y-106812500D02*
X166992500Y-106612500D01*
D39*
X128149999Y-114637499D02*
X128000000Y-114487500D01*
D41*
X158300000Y-108600000D02*
X158200000Y-108500000D01*
X109900000Y-116562500D02*
X111762500Y-114700000D01*
X139012500Y-115012500D02*
X140312500Y-116312500D01*
D42*
X118115000Y-113485000D02*
X117100000Y-114500000D01*
D41*
X165782499Y-104737499D02*
X165782499Y-104132906D01*
X139012500Y-112612500D02*
X139762500Y-112612500D01*
D39*
X130700000Y-114637499D02*
X128149999Y-114637499D01*
X136987501Y-114637499D02*
X139012500Y-112612500D01*
D41*
X166602905Y-103312500D02*
X166992500Y-103312500D01*
X130697500Y-108512500D02*
X130597500Y-108612500D01*
X166992500Y-105512500D02*
X166557500Y-105512500D01*
X126472498Y-106236817D02*
X126472498Y-106592502D01*
D42*
X128000000Y-114487500D02*
X126537500Y-115950000D01*
D41*
X129892500Y-108232500D02*
X130562500Y-108232500D01*
X165712500Y-106812500D02*
X166792500Y-106812500D01*
D42*
X166400000Y-121600000D02*
X166006250Y-121206250D01*
D41*
X127787501Y-114275001D02*
X128000000Y-114487500D01*
X163362500Y-100462500D02*
X162400000Y-99500000D01*
X133187500Y-100987500D02*
X134800000Y-102600000D01*
D42*
X126537500Y-115950000D02*
X126000000Y-115950000D01*
D39*
X133400000Y-114637499D02*
X130700000Y-114637499D01*
D41*
X139012500Y-113712500D02*
X139012500Y-112612500D01*
X165625000Y-102741116D02*
X165625000Y-101025000D01*
X159600000Y-114500000D02*
X159100000Y-114000000D01*
X158300000Y-109500000D02*
X158300000Y-110687500D01*
X158312500Y-110700000D02*
X159100000Y-110700000D01*
D42*
X170500000Y-121600000D02*
X166400000Y-121600000D01*
D41*
X166200000Y-121012500D02*
X166006250Y-121206250D01*
D42*
X117100000Y-114500000D02*
X117100000Y-114787500D01*
D41*
X158300000Y-110687500D02*
X158312500Y-110700000D01*
X121612500Y-105675001D02*
X124375001Y-105675001D01*
X164525000Y-122687500D02*
X160887500Y-122687500D01*
X130422498Y-109372502D02*
X129752502Y-109372502D01*
X130597500Y-108267500D02*
X130597500Y-108612500D01*
X126472498Y-106592502D02*
X126332500Y-106732500D01*
X160887500Y-122687500D02*
X159712500Y-121512500D01*
D39*
X134812500Y-114549999D02*
X134900000Y-114637499D01*
D41*
X165062500Y-100462500D02*
X163362500Y-100462500D01*
D42*
X124900000Y-114275001D02*
X124109999Y-113485000D01*
D41*
X124900000Y-114275001D02*
X125800000Y-114275001D01*
X130562500Y-108232500D02*
X130597500Y-108267500D01*
X166992500Y-106612500D02*
X166992500Y-105512500D01*
X117012500Y-114700000D02*
X117100000Y-114787500D01*
X132687500Y-109350000D02*
X131850000Y-108512500D01*
X134700000Y-102700000D02*
X134800000Y-102600000D01*
X124375001Y-105675001D02*
X124412500Y-105712500D01*
X165782499Y-104132906D02*
X166602905Y-103312500D01*
D42*
X124109999Y-113485000D02*
X118115000Y-113485000D01*
D39*
X133400000Y-114637499D02*
X134900000Y-114637499D01*
X135900000Y-114637499D02*
X136987501Y-114637499D01*
D41*
X139762500Y-112612500D02*
X141600000Y-110775000D01*
X166196384Y-103312500D02*
X165625000Y-102741116D01*
X134700000Y-103712500D02*
X134700000Y-102700000D01*
X125312500Y-105712500D02*
X126332500Y-106732500D01*
X111762500Y-114700000D02*
X117012500Y-114700000D01*
X109900000Y-116925001D02*
X109900000Y-116562500D01*
X159600000Y-114900000D02*
X159600000Y-114500000D01*
X158300000Y-109500000D02*
X158300000Y-108600000D01*
X139612500Y-118912500D02*
X139850000Y-118912500D01*
X139850000Y-118912500D02*
X140350000Y-118412500D01*
D42*
X124900000Y-111199999D02*
X126767499Y-113067498D01*
D39*
X134812500Y-112712500D02*
X134812500Y-114549999D01*
D41*
X159100000Y-110700000D02*
X159400000Y-111000000D01*
X130597500Y-108612500D02*
X130597500Y-109197500D01*
D42*
X126767499Y-113067498D02*
X130132502Y-113067498D01*
X130132502Y-113067498D02*
X132687500Y-110512500D01*
D41*
%TO.N,GPIO14*%
X129892500Y-106732500D02*
X138892500Y-106732500D01*
X138892500Y-106732500D02*
X139012500Y-106612500D01*
%TO.N,GPIO12*%
X137454442Y-108570558D02*
X138970558Y-108570558D01*
X131267500Y-107732500D02*
X131287500Y-107712500D01*
X138970558Y-108570558D02*
X139012500Y-108612500D01*
X134367500Y-107712500D02*
X134512500Y-107857500D01*
X131287500Y-107712500D02*
X134367500Y-107712500D01*
X129892500Y-107732500D02*
X131267500Y-107732500D01*
D42*
%TO.N,Net-(IC1-XIN)*%
X127000000Y-103200000D02*
X127612500Y-103812500D01*
X127612500Y-103812500D02*
X127612500Y-105952500D01*
%TO.N,Net-(IC1-XOUT)*%
X128300000Y-101500000D02*
X129200000Y-101500000D01*
X128112500Y-105952500D02*
X128112500Y-101687500D01*
X128112500Y-101687500D02*
X128300000Y-101500000D01*
D41*
%TO.N,Net-(IC1-VR_DIG)*%
X129112500Y-109512500D02*
X129112500Y-110949999D01*
X129112500Y-110949999D02*
X129175001Y-111012500D01*
%TO.N,GPIO13*%
X135232500Y-107232500D02*
X138612500Y-110612500D01*
X138612500Y-110612500D02*
X139012500Y-110612500D01*
X129892500Y-107232500D02*
X135232500Y-107232500D01*
%TO.N,GPIO15*%
X153462500Y-110612500D02*
X152445235Y-111629765D01*
X152445235Y-115745235D02*
X153000000Y-116300000D01*
X129112500Y-105952500D02*
X129277500Y-105787500D01*
X154212500Y-110612500D02*
X153462500Y-110612500D01*
X148987500Y-105787500D02*
X153812500Y-110612500D01*
X129277500Y-105787500D02*
X148987500Y-105787500D01*
X152445235Y-111629765D02*
X152445235Y-115745235D01*
X153812500Y-110612500D02*
X154212500Y-110612500D01*
%TO.N,GPIO16*%
X138712500Y-104912500D02*
X139012500Y-104612500D01*
X137212500Y-104912500D02*
X138712500Y-104912500D01*
X127112500Y-105952500D02*
X127112500Y-105337500D01*
X127112500Y-105337500D02*
X126987500Y-105212500D01*
%TO.N,GND*%
X166477500Y-97297500D02*
X154924278Y-97297500D01*
X154924278Y-97297500D02*
X154609278Y-97612500D01*
X142037500Y-116312500D02*
X143312500Y-116312500D01*
X119187500Y-120112500D02*
X119800000Y-119500000D01*
D42*
X149050000Y-121010000D02*
X150060000Y-120000000D01*
D41*
X120262500Y-100162500D02*
X120212500Y-100212500D01*
D42*
X129200000Y-103200000D02*
X129200000Y-103087502D01*
D41*
X162462500Y-121302500D02*
X162252500Y-121512500D01*
X133475000Y-93625000D02*
X133475000Y-93325000D01*
X138000000Y-117500000D02*
X136350000Y-115850000D01*
X133475000Y-93625000D02*
X130562500Y-90712500D01*
X116800000Y-110300000D02*
X115787500Y-110300000D01*
D42*
X173040000Y-121600000D02*
X173040000Y-120340000D01*
D41*
X136350000Y-115850000D02*
X136000000Y-115500000D01*
X111380000Y-117580000D02*
X111000000Y-117200000D01*
X117100000Y-120112500D02*
X117100000Y-120332501D01*
X142075000Y-118412500D02*
X140487500Y-120000000D01*
X118007499Y-122692501D02*
X119600000Y-121100000D01*
D42*
X115000000Y-104400000D02*
X114100000Y-105300000D01*
D41*
X136350000Y-115912501D02*
X135900000Y-116362501D01*
X112230000Y-117580000D02*
X111380000Y-117580000D01*
D42*
X144530000Y-120185000D02*
X145355000Y-121010000D01*
D41*
X121437500Y-90937500D02*
X125087500Y-90937500D01*
X133687500Y-113224999D02*
X133687500Y-111842496D01*
X134412500Y-110512500D02*
X134412500Y-110987500D01*
X133912500Y-113449999D02*
X133687500Y-113224999D01*
D42*
X112000000Y-103000000D02*
X110820000Y-103000000D01*
X115000000Y-103000000D02*
X112000000Y-103000000D01*
X119000000Y-102000000D02*
X119000000Y-101500000D01*
D41*
X154212500Y-112612500D02*
X162462500Y-112612500D01*
X152812500Y-97612500D02*
X152637500Y-97787500D01*
X115787500Y-110300000D02*
X114487500Y-111600000D01*
D42*
X127937500Y-120375000D02*
X128000000Y-120312500D01*
X129200000Y-103200000D02*
X130700000Y-103200000D01*
D41*
X133575000Y-109675000D02*
X134412500Y-110512500D01*
X138000000Y-120000000D02*
X138000000Y-117500000D01*
D42*
X133520843Y-108566657D02*
X133575000Y-108512500D01*
D39*
X130700000Y-116362501D02*
X135900000Y-116362501D01*
D42*
X131000000Y-110500000D02*
X131000000Y-110000000D01*
D41*
X117100000Y-120112500D02*
X119187500Y-120112500D01*
D42*
X121937499Y-119600000D02*
X122712499Y-120375000D01*
X127449999Y-112049999D02*
X127500000Y-112100000D01*
D41*
X120262500Y-92112500D02*
X121437500Y-90937500D01*
X176612501Y-104412500D02*
X176177501Y-104412500D01*
X142112500Y-117412500D02*
X142037500Y-117337500D01*
X121612500Y-103949999D02*
X121612500Y-101612500D01*
X167382094Y-97812500D02*
X166992500Y-97812500D01*
D42*
X130700000Y-103200000D02*
X130900000Y-103400000D01*
D41*
X136350000Y-115850000D02*
X136350000Y-115912501D01*
X126162500Y-98612500D02*
X126162500Y-92012500D01*
X142037500Y-117337500D02*
X142037500Y-116312500D01*
X154212500Y-113412500D02*
X154825000Y-114025000D01*
D42*
X173040000Y-120340000D02*
X170700000Y-118000000D01*
D41*
X120262500Y-98712500D02*
X120262500Y-92112500D01*
X138000000Y-120000000D02*
X138000000Y-120065000D01*
D42*
X117862501Y-103137499D02*
X118000000Y-103000000D01*
D41*
X114916251Y-122516251D02*
X114740000Y-122692501D01*
D42*
X128112500Y-107587500D02*
X128800000Y-106900000D01*
X119500000Y-101000000D02*
X119500000Y-100925000D01*
X128112500Y-107732500D02*
X128112500Y-107987500D01*
D41*
X152637500Y-97787500D02*
X152637500Y-101437500D01*
X114740000Y-122692501D02*
X118007499Y-122692501D01*
D39*
X113000000Y-110862501D02*
X113750001Y-110862501D01*
D42*
X127449999Y-111012500D02*
X128224999Y-111787500D01*
D41*
X125087500Y-90937500D02*
X126162500Y-92012500D01*
X142075000Y-118412500D02*
X142075000Y-117450000D01*
X113647499Y-121600000D02*
X114740000Y-122692501D01*
X175402500Y-105187501D02*
X175402500Y-106202500D01*
D42*
X128112500Y-107732500D02*
X128112500Y-107587500D01*
D41*
X110037500Y-113462500D02*
X111500000Y-112000000D01*
X133687500Y-111842496D02*
X134412500Y-111117496D01*
X110037500Y-114700000D02*
X110037500Y-113462500D01*
X175402500Y-106202500D02*
X175812500Y-106612500D01*
X122400000Y-115900000D02*
X123675000Y-115900000D01*
X133575000Y-108512500D02*
X133575000Y-109675000D01*
X138000000Y-120065000D02*
X136390000Y-121675000D01*
X123675000Y-115900000D02*
X123725000Y-115950000D01*
D42*
X125700000Y-119900000D02*
X127587500Y-119900000D01*
D41*
X135012500Y-95162500D02*
X133925000Y-94075000D01*
D42*
X119000000Y-102000000D02*
X119500000Y-102000000D01*
D41*
X157337500Y-101437500D02*
X159452500Y-103552500D01*
D42*
X127587500Y-119900000D02*
X128000000Y-120312500D01*
X126899998Y-101500000D02*
X124412500Y-103987498D01*
D41*
X162462500Y-116512500D02*
X162462500Y-121302500D01*
X162462500Y-112612500D02*
X162462500Y-109912500D01*
X162462500Y-106102500D02*
X159912500Y-103552500D01*
D42*
X116500000Y-103137499D02*
X117862501Y-103137499D01*
D41*
X133925000Y-94075000D02*
X133475000Y-93625000D01*
D42*
X116500000Y-103137499D02*
X115137499Y-103137499D01*
X129200000Y-103087502D02*
X128712500Y-102600002D01*
X119500000Y-102000000D02*
X120000000Y-102500000D01*
D39*
X113750001Y-110862501D02*
X114487500Y-111600000D01*
D41*
X159452500Y-103552500D02*
X159912500Y-103552500D01*
D42*
X111100000Y-112000000D02*
X109000000Y-109900000D01*
X145355000Y-121010000D02*
X149050000Y-121010000D01*
X111500000Y-112000000D02*
X111862501Y-112000000D01*
D41*
X121612500Y-101612500D02*
X120212500Y-100212500D01*
X140487500Y-120000000D02*
X138000000Y-120000000D01*
D42*
X118000000Y-103000000D02*
X119000000Y-102000000D01*
X127000000Y-101500000D02*
X126899998Y-101500000D01*
D41*
X134412500Y-110512500D02*
X134412500Y-111117496D01*
D42*
X128112500Y-107732500D02*
X127340702Y-107732500D01*
D41*
X114400000Y-111600000D02*
X113300000Y-112700000D01*
X121649999Y-103987498D02*
X121612500Y-103949999D01*
X154212500Y-112612500D02*
X154212500Y-113412500D01*
X176177501Y-104412500D02*
X175402500Y-105187501D01*
D42*
X128224999Y-111787500D02*
X129712500Y-111787500D01*
X119500000Y-100925000D02*
X120212500Y-100212500D01*
D41*
X117100000Y-120332501D02*
X114916251Y-122516251D01*
X106600000Y-121600000D02*
X113647499Y-121600000D01*
X127462500Y-90712500D02*
X126162500Y-92012500D01*
X166992500Y-97812500D02*
X166477500Y-97297500D01*
D39*
X178102500Y-108102500D02*
X179737500Y-108102500D01*
D41*
X124412500Y-103987498D02*
X121649999Y-103987498D01*
D42*
X144530000Y-119960000D02*
X144530000Y-120185000D01*
X127449999Y-111012500D02*
X127449999Y-112049999D01*
X122712499Y-120375000D02*
X127937500Y-120375000D01*
D39*
X176612500Y-106612500D02*
X178102500Y-108102500D01*
D41*
X134887500Y-93100000D02*
X134887500Y-93112500D01*
X114740000Y-122340000D02*
X114916251Y-122516251D01*
D42*
X115137499Y-103137499D02*
X115000000Y-103000000D01*
X129712500Y-111787500D02*
X131000000Y-110500000D01*
D41*
X134887500Y-93112500D02*
X133925000Y-94075000D01*
X114487500Y-111600000D02*
X114400000Y-111600000D01*
X142075000Y-117450000D02*
X142112500Y-117412500D01*
D42*
X111862501Y-112000000D02*
X113000000Y-110862501D01*
D41*
X162462500Y-109912500D02*
X162462500Y-106102500D01*
X152637500Y-101437500D02*
X157337500Y-101437500D01*
D42*
X128112500Y-107987500D02*
X127725898Y-108374102D01*
D41*
X173982094Y-104412500D02*
X167382094Y-97812500D01*
X130562500Y-90712500D02*
X127462500Y-90712500D01*
X154609278Y-97612500D02*
X152812500Y-97612500D01*
X114740000Y-122025002D02*
X114740000Y-122340000D01*
D42*
X110820000Y-103000000D02*
X109000000Y-104820000D01*
X119000000Y-101500000D02*
X119500000Y-101000000D01*
X111500000Y-112000000D02*
X111100000Y-112000000D01*
D41*
X162462500Y-116512500D02*
X162462500Y-112612500D01*
X176612501Y-104412500D02*
X173982094Y-104412500D01*
X135012500Y-95749999D02*
X135012500Y-95162500D01*
X143312500Y-116312500D02*
X144412500Y-117412500D01*
D42*
X132887500Y-108566657D02*
X133520843Y-108566657D01*
X115000000Y-103000000D02*
X115000000Y-104400000D01*
X127340702Y-107732500D02*
X127212499Y-107860703D01*
D41*
X120262500Y-98712500D02*
X120262500Y-100162500D01*
X175812500Y-106612500D02*
X176612500Y-106612500D01*
X154825000Y-114025000D02*
X154825000Y-116300000D01*
%TO.N,GPIO0*%
X154212500Y-106612500D02*
X158137500Y-106612500D01*
X152212500Y-106612500D02*
X154212500Y-106612500D01*
X123962500Y-92112500D02*
X123962500Y-98712500D01*
X158137500Y-106612500D02*
X158200000Y-106675000D01*
X123962500Y-98712500D02*
X123962500Y-100162500D01*
X123962500Y-100162500D02*
X124412500Y-100612500D01*
%TO.N,RST*%
X129862500Y-92012500D02*
X129862500Y-98612500D01*
X135012500Y-98412500D02*
X135012500Y-97475001D01*
X135012500Y-98412500D02*
X135012500Y-99600000D01*
X134812500Y-98612500D02*
X135012500Y-98412500D01*
X129862500Y-98612500D02*
X134812500Y-98612500D01*
X134812500Y-98612500D02*
X139012500Y-98612500D01*
%TO.N,GPSPAUSE*%
X166200000Y-116550000D02*
X166162500Y-116512500D01*
X168202500Y-107872500D02*
X168202500Y-102987501D01*
X166162500Y-109912500D02*
X166162500Y-116512500D01*
X168202500Y-102987501D02*
X167427499Y-102212500D01*
X166162500Y-109912500D02*
X168202500Y-107872500D01*
X166200000Y-118700000D02*
X166200000Y-116550000D01*
X167427499Y-102212500D02*
X166992499Y-102212500D01*
%TO.N,GPIO2*%
X154962500Y-108612500D02*
X156487500Y-110137500D01*
X154212500Y-108612500D02*
X154962500Y-108612500D01*
X156487500Y-110137500D02*
X156487500Y-110700000D01*
%TO.N,RXD0*%
X157612500Y-101012500D02*
X157212500Y-100612500D01*
X164612500Y-98912500D02*
X164512500Y-99012500D01*
X159912500Y-101012500D02*
X157612500Y-101012500D01*
X166992500Y-98912500D02*
X164612500Y-98912500D01*
X157212500Y-100612500D02*
X154212500Y-100612500D01*
D42*
%TO.N,GPIO5*%
X145800000Y-119735000D02*
X146735000Y-118800000D01*
X157809530Y-115290470D02*
X156500000Y-116600000D01*
X155700000Y-103600000D02*
X155200000Y-103600000D01*
X150735000Y-118800000D02*
X151330000Y-119395000D01*
X155200000Y-103600000D02*
X154212500Y-102612500D01*
X156500000Y-116600000D02*
X156500000Y-116900000D01*
X145800000Y-119960000D02*
X145800000Y-119735000D01*
X151330000Y-119395000D02*
X151330000Y-120000000D01*
X146735000Y-118800000D02*
X150735000Y-118800000D01*
D41*
%TO.N,ADC_RAW*%
X136712500Y-93100000D02*
X136712500Y-95709278D01*
X138603222Y-97600000D02*
X140400000Y-97600000D01*
X136712500Y-95709278D02*
X138603222Y-97600000D01*
X139762500Y-100612500D02*
X139012500Y-100612500D01*
X136712500Y-91500000D02*
X136712500Y-93100000D01*
X140800000Y-98000000D02*
X140800000Y-99575000D01*
X140400000Y-97600000D02*
X140800000Y-98000000D01*
X140800000Y-99575000D02*
X139762500Y-100612500D01*
%TO.N,TXD0*%
X159912500Y-98472500D02*
X154352500Y-98472500D01*
X162672500Y-98472500D02*
X159912500Y-98472500D01*
X154352500Y-98472500D02*
X154212500Y-98612500D01*
X164212500Y-100012500D02*
X162672500Y-98472500D01*
X166992499Y-100012500D02*
X164212500Y-100012500D01*
%TO.N,EN*%
X136625000Y-102600000D02*
X139000000Y-102600000D01*
X139000000Y-102600000D02*
X139012500Y-102612500D01*
D39*
%TO.N,GPS_ANT*%
X179687500Y-105512500D02*
X179737500Y-105562500D01*
X176612500Y-105512500D02*
X179687500Y-105512500D01*
D42*
%TO.N,BATT*%
X125300000Y-115000000D02*
X126000000Y-115000000D01*
X128775000Y-119675000D02*
X128375000Y-119275000D01*
X130226471Y-121675000D02*
X128775000Y-120223529D01*
X124948529Y-117500000D02*
X124325000Y-117500000D01*
X128775000Y-120223529D02*
X128775000Y-119675000D01*
X124387499Y-116900000D02*
X125037500Y-116249999D01*
X134887500Y-91500000D02*
X135100000Y-91500000D01*
X123725000Y-116900000D02*
X123725000Y-119537501D01*
X123725000Y-119537501D02*
X123662501Y-119600000D01*
X135100000Y-91500000D02*
X136000000Y-90600000D01*
X125037500Y-116249999D02*
X125037500Y-115262500D01*
X128375000Y-119275000D02*
X126723529Y-119275000D01*
D41*
X120200000Y-117400000D02*
X123225000Y-117400000D01*
D42*
X124325000Y-117500000D02*
X123725000Y-116900000D01*
X123725000Y-116900000D02*
X124387499Y-116900000D01*
X125037500Y-115262500D02*
X125300000Y-115000000D01*
D41*
X123225000Y-117400000D02*
X123725000Y-116900000D01*
D42*
X126723529Y-119275000D02*
X124948529Y-117500000D01*
X123699999Y-116874999D02*
X123725000Y-116900000D01*
X133850000Y-121675000D02*
X130226471Y-121675000D01*
D39*
%TO.N,Net-(J1-In)*%
X106700000Y-107600000D02*
X106460000Y-107360000D01*
X111425001Y-107600000D02*
X106700000Y-107600000D01*
%TO.N,Net-(C10-Pad2)*%
X121537499Y-109987501D02*
X121600000Y-110050002D01*
X121387497Y-109837499D02*
X121600000Y-110050002D01*
X121537499Y-107600000D02*
X119800000Y-107600000D01*
X118700000Y-109837499D02*
X121387497Y-109837499D01*
X121537499Y-107600000D02*
X121537499Y-109987501D01*
D42*
%TO.N,Net-(U5-SW)*%
X123599999Y-115125001D02*
X123725000Y-115000000D01*
D41*
X119475001Y-114275001D02*
X119500000Y-114300000D01*
D42*
X120499999Y-115000000D02*
X120200000Y-114700001D01*
D41*
X119500000Y-114300000D02*
X119524999Y-114275001D01*
D42*
X123725000Y-115000000D02*
X120499999Y-115000000D01*
%TO.N,Net-(U5-V_{FB})*%
X127412500Y-116900000D02*
X128000000Y-116312500D01*
X128000000Y-118487500D02*
X128000000Y-116312500D01*
X126000000Y-116900000D02*
X127412500Y-116900000D01*
D39*
%TO.N,Net-(C10-Pad1)*%
X121362501Y-111562501D02*
X121600000Y-111800000D01*
X118700000Y-111562501D02*
X121362501Y-111562501D01*
X118700000Y-111562501D02*
X116349999Y-111562501D01*
X116349999Y-111562501D02*
X116312500Y-111600000D01*
%TO.N,Net-(C11-Pad2)*%
X116500000Y-107600000D02*
X118050002Y-107600000D01*
X116500000Y-107600000D02*
X116500000Y-104862501D01*
%TO.N,Net-(C13-Pad2)*%
X113174999Y-108962500D02*
X113000000Y-109137499D01*
X113174999Y-107600000D02*
X113174999Y-108962500D01*
X113174999Y-107600000D02*
X114750002Y-107600000D01*
D41*
%TO.N,BATT_HV*%
X112300000Y-116560000D02*
X112230000Y-116630000D01*
X112300000Y-116000000D02*
X112300000Y-116560000D01*
X114740000Y-120300000D02*
X114740000Y-118530000D01*
X112840000Y-116630000D02*
X112230000Y-116630000D01*
X114740000Y-118530000D02*
X112840000Y-116630000D01*
%TO.N,Net-(U6-SW)*%
X109900000Y-118674999D02*
X112085001Y-118674999D01*
X112085001Y-118674999D02*
X112230000Y-118530000D01*
D42*
%TO.N,Net-(U6-FB)*%
X114740000Y-116630000D02*
X117082500Y-116630000D01*
X117100000Y-116612500D02*
X117100000Y-118287500D01*
X117082500Y-116630000D02*
X117100000Y-116612500D01*
%TD*%
%TA.AperFunction,Conductor*%
%TO.N,GND*%
G36*
X181442539Y-89020185D02*
G01*
X181488294Y-89072989D01*
X181499500Y-89124500D01*
X181499500Y-122875500D01*
X181479815Y-122942539D01*
X181427011Y-122988294D01*
X181375500Y-122999500D01*
X173788238Y-122999500D01*
X173721199Y-122979815D01*
X173675444Y-122927011D01*
X173665500Y-122857853D01*
X173694525Y-122794297D01*
X173717114Y-122773925D01*
X173911082Y-122638105D01*
X174078105Y-122471082D01*
X174213600Y-122277578D01*
X174313429Y-122063492D01*
X174313432Y-122063486D01*
X174370636Y-121850000D01*
X173473012Y-121850000D01*
X173505925Y-121792993D01*
X173540000Y-121665826D01*
X173540000Y-121534174D01*
X173505925Y-121407007D01*
X173473012Y-121350000D01*
X174370636Y-121350000D01*
X174370635Y-121349999D01*
X174313432Y-121136513D01*
X174313429Y-121136507D01*
X174213600Y-120922422D01*
X174213599Y-120922420D01*
X174196253Y-120897648D01*
X178199500Y-120897648D01*
X178199500Y-121102351D01*
X178231522Y-121304534D01*
X178294781Y-121499223D01*
X178312590Y-121534174D01*
X178384784Y-121675862D01*
X178387715Y-121681613D01*
X178508028Y-121847213D01*
X178652786Y-121991971D01*
X178774666Y-122080520D01*
X178818390Y-122112287D01*
X178911200Y-122159576D01*
X179000776Y-122205218D01*
X179000778Y-122205218D01*
X179000781Y-122205220D01*
X179091133Y-122234577D01*
X179195465Y-122268477D01*
X179296557Y-122284488D01*
X179397648Y-122300500D01*
X179397649Y-122300500D01*
X179602351Y-122300500D01*
X179602352Y-122300500D01*
X179804534Y-122268477D01*
X179999219Y-122205220D01*
X180181610Y-122112287D01*
X180300814Y-122025681D01*
X180347213Y-121991971D01*
X180347215Y-121991968D01*
X180347219Y-121991966D01*
X180491966Y-121847219D01*
X180491968Y-121847215D01*
X180491971Y-121847213D01*
X180606183Y-121690011D01*
X180612287Y-121681610D01*
X180705220Y-121499219D01*
X180768477Y-121304534D01*
X180800500Y-121102352D01*
X180800500Y-120897648D01*
X180797502Y-120878718D01*
X180768477Y-120695465D01*
X180729335Y-120574999D01*
X180705220Y-120500781D01*
X180705218Y-120500778D01*
X180705218Y-120500776D01*
X180664146Y-120420169D01*
X180612287Y-120318390D01*
X180600140Y-120301671D01*
X180491971Y-120152786D01*
X180347213Y-120008028D01*
X180181613Y-119887715D01*
X180181612Y-119887714D01*
X180181610Y-119887713D01*
X180107098Y-119849747D01*
X179999223Y-119794781D01*
X179804534Y-119731522D01*
X179608659Y-119700499D01*
X179602352Y-119699500D01*
X179397648Y-119699500D01*
X179391341Y-119700499D01*
X179195465Y-119731522D01*
X179000776Y-119794781D01*
X178818386Y-119887715D01*
X178652786Y-120008028D01*
X178508028Y-120152786D01*
X178387715Y-120318386D01*
X178294781Y-120500776D01*
X178231522Y-120695465D01*
X178199500Y-120897648D01*
X174196253Y-120897648D01*
X174078113Y-120728926D01*
X174078108Y-120728920D01*
X173911082Y-120561894D01*
X173717578Y-120426399D01*
X173503492Y-120326570D01*
X173503486Y-120326567D01*
X173290000Y-120269364D01*
X173290000Y-121166988D01*
X173232993Y-121134075D01*
X173105826Y-121100000D01*
X172974174Y-121100000D01*
X172847007Y-121134075D01*
X172790000Y-121166988D01*
X172790000Y-120269364D01*
X172789999Y-120269364D01*
X172576513Y-120326567D01*
X172576507Y-120326570D01*
X172362422Y-120426399D01*
X172362420Y-120426400D01*
X172168926Y-120561886D01*
X172046865Y-120683947D01*
X171985542Y-120717431D01*
X171915850Y-120712447D01*
X171859917Y-120670575D01*
X171843002Y-120639598D01*
X171841993Y-120636894D01*
X171808998Y-120548428D01*
X171793797Y-120507671D01*
X171793793Y-120507664D01*
X171707547Y-120392455D01*
X171707544Y-120392452D01*
X171592335Y-120306206D01*
X171592328Y-120306202D01*
X171457482Y-120255908D01*
X171457483Y-120255908D01*
X171397883Y-120249501D01*
X171397881Y-120249500D01*
X171397873Y-120249500D01*
X171397864Y-120249500D01*
X169602129Y-120249500D01*
X169602123Y-120249501D01*
X169542516Y-120255908D01*
X169407671Y-120306202D01*
X169407664Y-120306206D01*
X169292455Y-120392452D01*
X169292452Y-120392455D01*
X169206206Y-120507664D01*
X169206202Y-120507671D01*
X169155908Y-120642517D01*
X169149501Y-120702116D01*
X169149500Y-120702135D01*
X169149500Y-120875500D01*
X169129815Y-120942539D01*
X169077011Y-120988294D01*
X169025500Y-120999500D01*
X167294902Y-120999500D01*
X167227863Y-120979815D01*
X167182108Y-120927011D01*
X167171544Y-120862896D01*
X167172108Y-120857379D01*
X167175500Y-120824177D01*
X167175499Y-120225824D01*
X167174771Y-120218702D01*
X167165174Y-120124747D01*
X167128261Y-120013353D01*
X167110908Y-119960984D01*
X167020340Y-119814150D01*
X166906371Y-119700181D01*
X166872886Y-119638858D01*
X166877870Y-119569166D01*
X166906371Y-119524819D01*
X166958201Y-119472989D01*
X167020340Y-119410850D01*
X167110908Y-119264016D01*
X167165174Y-119100253D01*
X167175500Y-118999177D01*
X167175499Y-118400824D01*
X167173625Y-118382483D01*
X167165174Y-118299747D01*
X167148906Y-118250654D01*
X167110908Y-118135984D01*
X167020340Y-117989150D01*
X166967506Y-117936316D01*
X166934021Y-117874993D01*
X166939005Y-117805301D01*
X166980874Y-117749369D01*
X167020046Y-117720046D01*
X167106296Y-117604831D01*
X167156591Y-117469983D01*
X167163000Y-117410373D01*
X167162999Y-115614628D01*
X167156591Y-115555017D01*
X167150243Y-115537998D01*
X167106297Y-115420171D01*
X167106293Y-115420164D01*
X167020047Y-115304955D01*
X167020044Y-115304952D01*
X166904834Y-115218705D01*
X166868664Y-115205214D01*
X166812731Y-115163341D01*
X166788316Y-115097876D01*
X166788000Y-115089033D01*
X166788000Y-111335966D01*
X166807685Y-111268927D01*
X166860489Y-111223172D01*
X166868656Y-111219788D01*
X166904831Y-111206296D01*
X167020046Y-111120046D01*
X167106296Y-111004831D01*
X167156591Y-110869983D01*
X167163000Y-110810373D01*
X167162999Y-109847951D01*
X167182683Y-109780913D01*
X167199318Y-109760271D01*
X167551883Y-109407707D01*
X168688358Y-108271233D01*
X168756812Y-108168785D01*
X168791641Y-108084700D01*
X168803963Y-108054952D01*
X168807951Y-108034902D01*
X168827627Y-107935986D01*
X168828001Y-107934107D01*
X168828001Y-107805783D01*
X168828000Y-107805757D01*
X168828000Y-106862500D01*
X175261020Y-106862500D01*
X175324240Y-107015127D01*
X175324240Y-107015128D01*
X175417258Y-107154339D01*
X175417264Y-107154347D01*
X175535652Y-107272735D01*
X175535660Y-107272741D01*
X175674871Y-107365759D01*
X175829563Y-107429834D01*
X175829571Y-107429836D01*
X175993777Y-107462499D01*
X175993780Y-107462500D01*
X176362500Y-107462500D01*
X176862500Y-107462500D01*
X177231220Y-107462500D01*
X177231222Y-107462499D01*
X177395428Y-107429836D01*
X177395436Y-107429834D01*
X177550127Y-107365759D01*
X177550128Y-107365759D01*
X177689339Y-107272741D01*
X177689347Y-107272735D01*
X177807735Y-107154347D01*
X177807741Y-107154339D01*
X177900759Y-107015128D01*
X177900759Y-107015127D01*
X177963980Y-106862500D01*
X176862500Y-106862500D01*
X176862500Y-107462500D01*
X176362500Y-107462500D01*
X176362500Y-106862500D01*
X175261020Y-106862500D01*
X168828000Y-106862500D01*
X168828000Y-105428728D01*
X175227000Y-105428728D01*
X175227000Y-105596271D01*
X175259682Y-105760574D01*
X175259684Y-105760582D01*
X175319370Y-105904677D01*
X175323797Y-105915363D01*
X175327586Y-105921033D01*
X175376380Y-105994059D01*
X175397257Y-106060736D01*
X175378772Y-106128116D01*
X175376380Y-106131838D01*
X175324240Y-106209873D01*
X175261020Y-106362499D01*
X175261020Y-106362500D01*
X175982565Y-106362500D01*
X175992743Y-106363000D01*
X175993733Y-106363000D01*
X176288005Y-106363000D01*
X176335453Y-106372437D01*
X176349834Y-106378394D01*
X176349838Y-106378394D01*
X176349841Y-106378396D01*
X176523804Y-106412999D01*
X176523807Y-106413000D01*
X176523809Y-106413000D01*
X178270523Y-106413000D01*
X178337562Y-106432685D01*
X178383317Y-106485489D01*
X178390766Y-106512634D01*
X178391624Y-106512432D01*
X178393407Y-106519979D01*
X178443702Y-106654828D01*
X178443706Y-106654835D01*
X178529952Y-106770044D01*
X178529955Y-106770047D01*
X178645164Y-106856293D01*
X178645171Y-106856297D01*
X178707402Y-106879507D01*
X178777098Y-106905502D01*
X178833031Y-106947373D01*
X178857449Y-107012837D01*
X178842598Y-107081110D01*
X178821447Y-107109365D01*
X178699386Y-107231426D01*
X178563900Y-107424920D01*
X178563899Y-107424922D01*
X178464070Y-107639007D01*
X178464067Y-107639013D01*
X178406864Y-107852499D01*
X178406864Y-107852500D01*
X179304488Y-107852500D01*
X179271575Y-107909507D01*
X179237500Y-108036674D01*
X179237500Y-108168326D01*
X179271575Y-108295493D01*
X179304488Y-108352500D01*
X178406864Y-108352500D01*
X178464067Y-108565986D01*
X178464070Y-108565992D01*
X178563899Y-108780078D01*
X178699394Y-108973582D01*
X178866417Y-109140605D01*
X179059921Y-109276100D01*
X179274007Y-109375929D01*
X179274016Y-109375933D01*
X179487500Y-109433134D01*
X179487500Y-108535512D01*
X179544507Y-108568425D01*
X179671674Y-108602500D01*
X179803326Y-108602500D01*
X179930493Y-108568425D01*
X179987500Y-108535512D01*
X179987500Y-109433133D01*
X180200983Y-109375933D01*
X180200992Y-109375929D01*
X180415078Y-109276100D01*
X180608582Y-109140605D01*
X180775605Y-108973582D01*
X180911100Y-108780078D01*
X181010929Y-108565992D01*
X181010932Y-108565986D01*
X181068136Y-108352500D01*
X180170512Y-108352500D01*
X180203425Y-108295493D01*
X180237500Y-108168326D01*
X180237500Y-108036674D01*
X180203425Y-107909507D01*
X180170512Y-107852500D01*
X181068136Y-107852500D01*
X181068135Y-107852499D01*
X181010932Y-107639013D01*
X181010929Y-107639007D01*
X180911100Y-107424922D01*
X180911099Y-107424920D01*
X180775613Y-107231426D01*
X180775608Y-107231420D01*
X180653553Y-107109365D01*
X180620068Y-107048042D01*
X180625052Y-106978350D01*
X180666924Y-106922417D01*
X180697900Y-106905502D01*
X180829831Y-106856296D01*
X180945046Y-106770046D01*
X181031296Y-106654831D01*
X181081591Y-106519983D01*
X181088000Y-106460373D01*
X181087999Y-104664628D01*
X181081591Y-104605017D01*
X181073261Y-104582684D01*
X181031297Y-104470171D01*
X181031293Y-104470164D01*
X180945047Y-104354955D01*
X180945044Y-104354952D01*
X180829835Y-104268706D01*
X180829828Y-104268702D01*
X180694982Y-104218408D01*
X180694983Y-104218408D01*
X180635383Y-104212001D01*
X180635381Y-104212000D01*
X180635373Y-104212000D01*
X180635364Y-104212000D01*
X178839629Y-104212000D01*
X178839623Y-104212001D01*
X178780016Y-104218408D01*
X178645171Y-104268702D01*
X178645164Y-104268706D01*
X178529955Y-104354952D01*
X178529952Y-104354955D01*
X178443706Y-104470164D01*
X178443702Y-104470171D01*
X178420891Y-104531333D01*
X178379020Y-104587267D01*
X178313556Y-104611684D01*
X178304709Y-104612000D01*
X176523806Y-104612000D01*
X176349841Y-104646603D01*
X176349837Y-104646605D01*
X176349835Y-104646605D01*
X176349834Y-104646606D01*
X176335453Y-104652562D01*
X176288005Y-104662000D01*
X175992743Y-104662000D01*
X175982565Y-104662500D01*
X175261021Y-104662500D01*
X175324241Y-104815127D01*
X175376380Y-104893159D01*
X175397258Y-104959836D01*
X175378773Y-105027216D01*
X175376381Y-105030939D01*
X175323795Y-105109640D01*
X175259684Y-105264417D01*
X175259682Y-105264425D01*
X175227000Y-105428728D01*
X168828000Y-105428728D01*
X168828000Y-102925894D01*
X168827999Y-102925890D01*
X168820199Y-102886676D01*
X168803963Y-102805049D01*
X168788330Y-102767308D01*
X168783092Y-102754661D01*
X168756814Y-102691220D01*
X168756809Y-102691211D01*
X168739757Y-102665692D01*
X168739756Y-102665691D01*
X168688358Y-102588768D01*
X168688356Y-102588765D01*
X168598137Y-102498546D01*
X168598106Y-102498517D01*
X168414318Y-102314729D01*
X168380833Y-102253406D01*
X168377999Y-102227048D01*
X168377999Y-102128732D01*
X168377998Y-102128728D01*
X168365248Y-102064628D01*
X168345315Y-101964418D01*
X168281202Y-101809637D01*
X168237217Y-101743810D01*
X168228919Y-101731390D01*
X168208042Y-101664713D01*
X168226527Y-101597333D01*
X168228920Y-101593609D01*
X168233910Y-101586141D01*
X168281203Y-101515363D01*
X168345316Y-101360582D01*
X168375869Y-101206980D01*
X168378000Y-101196268D01*
X168378000Y-101028732D01*
X168377999Y-101028728D01*
X168364730Y-100962021D01*
X168345316Y-100864418D01*
X168281203Y-100709637D01*
X168277039Y-100703405D01*
X168228920Y-100631389D01*
X168208042Y-100564712D01*
X168226527Y-100497332D01*
X168228920Y-100493608D01*
X168241252Y-100475152D01*
X168281202Y-100415363D01*
X168345315Y-100260582D01*
X168377999Y-100096267D01*
X168377999Y-99928733D01*
X168345315Y-99764418D01*
X168281202Y-99609637D01*
X168228919Y-99531390D01*
X168208042Y-99464713D01*
X168226527Y-99397333D01*
X168228920Y-99393609D01*
X168228921Y-99393608D01*
X168281203Y-99315363D01*
X168345316Y-99160582D01*
X168378000Y-98996267D01*
X168378000Y-98828733D01*
X168345316Y-98664418D01*
X168281203Y-98509637D01*
X168249707Y-98462500D01*
X168228620Y-98430940D01*
X168207742Y-98364263D01*
X168226227Y-98296883D01*
X168228620Y-98293159D01*
X168280760Y-98215125D01*
X168343980Y-98062500D01*
X167622435Y-98062500D01*
X167612257Y-98062000D01*
X167611267Y-98062000D01*
X166373733Y-98062000D01*
X166372743Y-98062000D01*
X166362565Y-98062500D01*
X165641020Y-98062500D01*
X165662993Y-98115547D01*
X165670462Y-98185016D01*
X165639187Y-98247496D01*
X165579098Y-98283148D01*
X165548432Y-98287000D01*
X164883916Y-98287000D01*
X164842961Y-98280041D01*
X164691762Y-98227133D01*
X164691749Y-98227130D01*
X164512504Y-98206935D01*
X164512496Y-98206935D01*
X164333250Y-98227130D01*
X164333245Y-98227131D01*
X164162976Y-98286711D01*
X164010237Y-98382684D01*
X163882684Y-98510237D01*
X163882680Y-98510242D01*
X163854330Y-98555360D01*
X163801995Y-98601650D01*
X163732941Y-98612297D01*
X163669093Y-98583921D01*
X163661657Y-98577067D01*
X163162698Y-98078108D01*
X163162678Y-98078086D01*
X163071235Y-97986643D01*
X163034753Y-97962267D01*
X162999025Y-97938394D01*
X162979361Y-97925254D01*
X162968785Y-97918187D01*
X162928539Y-97901517D01*
X162888292Y-97884847D01*
X162854952Y-97871037D01*
X162854953Y-97871037D01*
X162842104Y-97868481D01*
X162790354Y-97858188D01*
X162762230Y-97852594D01*
X162734108Y-97847000D01*
X162734107Y-97847000D01*
X162734106Y-97847000D01*
X161187727Y-97847000D01*
X161120688Y-97827315D01*
X161086152Y-97794123D01*
X161040362Y-97728728D01*
X175227000Y-97728728D01*
X175227000Y-97896271D01*
X175259682Y-98060574D01*
X175259684Y-98060582D01*
X175311226Y-98185016D01*
X175323797Y-98215363D01*
X175345268Y-98247496D01*
X175376080Y-98293610D01*
X175396957Y-98360287D01*
X175378472Y-98427667D01*
X175376080Y-98431390D01*
X175323795Y-98509640D01*
X175259684Y-98664417D01*
X175259682Y-98664425D01*
X175227000Y-98828728D01*
X175227000Y-98996271D01*
X175259682Y-99160574D01*
X175259684Y-99160582D01*
X175323795Y-99315360D01*
X175323796Y-99315362D01*
X175323797Y-99315363D01*
X175350171Y-99354835D01*
X175376080Y-99393609D01*
X175396958Y-99460286D01*
X175378474Y-99527667D01*
X175376081Y-99531390D01*
X175323796Y-99609640D01*
X175259685Y-99764417D01*
X175259683Y-99764425D01*
X175227001Y-99928728D01*
X175227001Y-100096271D01*
X175259683Y-100260574D01*
X175259685Y-100260582D01*
X175323796Y-100415360D01*
X175323797Y-100415362D01*
X175323798Y-100415363D01*
X175352812Y-100458786D01*
X175376080Y-100493608D01*
X175396958Y-100560286D01*
X175378473Y-100627666D01*
X175376080Y-100631389D01*
X175323798Y-100709634D01*
X175323796Y-100709638D01*
X175259684Y-100864417D01*
X175259682Y-100864425D01*
X175227000Y-101028728D01*
X175227000Y-101196268D01*
X175259682Y-101360574D01*
X175259684Y-101360582D01*
X175323795Y-101515360D01*
X175323796Y-101515362D01*
X175323797Y-101515363D01*
X175359748Y-101569168D01*
X175376080Y-101593609D01*
X175396958Y-101660286D01*
X175378474Y-101727667D01*
X175376081Y-101731390D01*
X175323796Y-101809640D01*
X175259685Y-101964417D01*
X175259683Y-101964425D01*
X175227001Y-102128728D01*
X175227001Y-102296271D01*
X175259683Y-102460574D01*
X175259685Y-102460582D01*
X175323796Y-102615360D01*
X175376080Y-102693608D01*
X175396958Y-102760286D01*
X175378473Y-102827666D01*
X175376080Y-102831389D01*
X175323798Y-102909634D01*
X175323796Y-102909638D01*
X175259684Y-103064417D01*
X175259682Y-103064425D01*
X175227000Y-103228728D01*
X175227000Y-103396271D01*
X175259682Y-103560574D01*
X175259684Y-103560582D01*
X175323796Y-103715361D01*
X175323798Y-103715365D01*
X175376380Y-103794060D01*
X175397258Y-103860737D01*
X175378773Y-103928117D01*
X175376381Y-103931840D01*
X175324240Y-104009875D01*
X175261021Y-104162499D01*
X175261021Y-104162500D01*
X175982565Y-104162500D01*
X175992743Y-104163000D01*
X175993733Y-104163000D01*
X177232257Y-104163000D01*
X177242435Y-104162500D01*
X177963981Y-104162500D01*
X177963980Y-104162499D01*
X177900760Y-104009872D01*
X177848620Y-103931838D01*
X177827742Y-103865161D01*
X177846227Y-103797781D01*
X177848575Y-103794125D01*
X177901203Y-103715363D01*
X177965316Y-103560582D01*
X177998000Y-103396267D01*
X177998000Y-103228733D01*
X177965316Y-103064418D01*
X177901203Y-102909637D01*
X177848920Y-102831390D01*
X177828043Y-102764713D01*
X177846528Y-102697333D01*
X177848921Y-102693609D01*
X177848922Y-102693608D01*
X177901204Y-102615363D01*
X177965317Y-102460582D01*
X177998001Y-102296267D01*
X177998001Y-102128733D01*
X177965317Y-101964418D01*
X177901204Y-101809637D01*
X177872419Y-101766557D01*
X177848921Y-101731389D01*
X177828043Y-101664712D01*
X177846528Y-101597332D01*
X177848921Y-101593608D01*
X177853910Y-101586141D01*
X177901203Y-101515363D01*
X177965316Y-101360582D01*
X177995869Y-101206980D01*
X177998000Y-101196268D01*
X177998000Y-101028732D01*
X177997999Y-101028728D01*
X177984730Y-100962021D01*
X177965316Y-100864418D01*
X177901203Y-100709637D01*
X177848920Y-100631390D01*
X177828043Y-100564713D01*
X177846528Y-100497333D01*
X177848921Y-100493609D01*
X177852268Y-100488600D01*
X177901204Y-100415363D01*
X177965317Y-100260582D01*
X177998001Y-100096267D01*
X177998001Y-99928733D01*
X177965317Y-99764418D01*
X177901204Y-99609637D01*
X177899169Y-99606591D01*
X177848921Y-99531389D01*
X177828043Y-99464712D01*
X177846528Y-99397332D01*
X177848921Y-99393608D01*
X177870041Y-99362000D01*
X177901203Y-99315363D01*
X177965316Y-99160582D01*
X177998000Y-98996267D01*
X177998000Y-98828733D01*
X177965316Y-98664418D01*
X177901203Y-98509637D01*
X177848919Y-98431389D01*
X177828042Y-98364714D01*
X177846526Y-98297333D01*
X177848907Y-98293627D01*
X177901203Y-98215363D01*
X177965316Y-98060582D01*
X177998000Y-97896267D01*
X177998000Y-97728733D01*
X177965316Y-97564418D01*
X177905143Y-97419149D01*
X177901204Y-97409639D01*
X177898247Y-97405214D01*
X177840444Y-97318705D01*
X177808126Y-97270337D01*
X177689662Y-97151873D01*
X177550360Y-97058795D01*
X177395582Y-96994684D01*
X177395574Y-96994682D01*
X177231271Y-96962000D01*
X177231267Y-96962000D01*
X175993733Y-96962000D01*
X175993728Y-96962000D01*
X175829425Y-96994682D01*
X175829417Y-96994684D01*
X175674639Y-97058795D01*
X175535337Y-97151873D01*
X175416873Y-97270337D01*
X175323795Y-97409639D01*
X175259684Y-97564417D01*
X175259682Y-97564425D01*
X175227000Y-97728728D01*
X161040362Y-97728728D01*
X160950996Y-97601100D01*
X160912395Y-97562499D01*
X165641020Y-97562499D01*
X165641020Y-97562500D01*
X166742500Y-97562500D01*
X167242500Y-97562500D01*
X168343980Y-97562500D01*
X168343979Y-97562499D01*
X168280759Y-97409872D01*
X168280759Y-97409871D01*
X168187741Y-97270660D01*
X168187735Y-97270652D01*
X168069347Y-97152264D01*
X168069339Y-97152258D01*
X167930128Y-97059240D01*
X167775436Y-96995165D01*
X167775428Y-96995163D01*
X167611221Y-96962500D01*
X167242500Y-96962500D01*
X167242500Y-97562500D01*
X166742500Y-97562500D01*
X166742500Y-96962500D01*
X166373779Y-96962500D01*
X166209571Y-96995163D01*
X166209563Y-96995165D01*
X166054872Y-97059240D01*
X166054871Y-97059240D01*
X165915660Y-97152258D01*
X165915652Y-97152264D01*
X165797264Y-97270652D01*
X165797258Y-97270660D01*
X165704240Y-97409871D01*
X165704240Y-97409872D01*
X165641020Y-97562499D01*
X160912395Y-97562499D01*
X160829067Y-97479171D01*
X160795584Y-97417851D01*
X160800568Y-97348159D01*
X160842439Y-97292225D01*
X160873415Y-97275310D01*
X161004831Y-97226296D01*
X161120046Y-97140046D01*
X161206296Y-97024831D01*
X161256591Y-96889983D01*
X161263000Y-96830373D01*
X161262999Y-95397648D01*
X178199500Y-95397648D01*
X178199500Y-95602351D01*
X178231522Y-95804534D01*
X178294781Y-95999223D01*
X178333140Y-96074505D01*
X178366102Y-96139197D01*
X178387715Y-96181613D01*
X178508028Y-96347213D01*
X178652786Y-96491971D01*
X178758551Y-96568812D01*
X178818390Y-96612287D01*
X178903161Y-96655480D01*
X179000776Y-96705218D01*
X179000778Y-96705218D01*
X179000781Y-96705220D01*
X179105137Y-96739127D01*
X179195465Y-96768477D01*
X179296557Y-96784488D01*
X179397648Y-96800500D01*
X179397649Y-96800500D01*
X179602351Y-96800500D01*
X179602352Y-96800500D01*
X179804534Y-96768477D01*
X179999219Y-96705220D01*
X180181610Y-96612287D01*
X180302488Y-96524465D01*
X180347213Y-96491971D01*
X180347215Y-96491968D01*
X180347219Y-96491966D01*
X180491966Y-96347219D01*
X180491968Y-96347215D01*
X180491971Y-96347213D01*
X180598816Y-96200151D01*
X180612287Y-96181610D01*
X180705220Y-95999219D01*
X180768477Y-95804534D01*
X180800500Y-95602352D01*
X180800500Y-95397648D01*
X180768477Y-95195465D01*
X180730217Y-95077715D01*
X180705220Y-95000781D01*
X180705218Y-95000778D01*
X180705218Y-95000776D01*
X180637337Y-94867554D01*
X180612287Y-94818390D01*
X180582252Y-94777050D01*
X180491971Y-94652786D01*
X180347213Y-94508028D01*
X180181613Y-94387715D01*
X180181612Y-94387714D01*
X180181610Y-94387713D01*
X180124653Y-94358691D01*
X179999223Y-94294781D01*
X179804534Y-94231522D01*
X179629995Y-94203878D01*
X179602352Y-94199500D01*
X179397648Y-94199500D01*
X179373329Y-94203351D01*
X179195465Y-94231522D01*
X179000776Y-94294781D01*
X178818386Y-94387715D01*
X178652786Y-94508028D01*
X178508028Y-94652786D01*
X178387715Y-94818386D01*
X178294781Y-95000776D01*
X178231522Y-95195465D01*
X178199500Y-95397648D01*
X161262999Y-95397648D01*
X161262999Y-95034628D01*
X161256591Y-94975017D01*
X161252825Y-94964921D01*
X161206297Y-94840171D01*
X161206293Y-94840164D01*
X161120047Y-94724955D01*
X161120044Y-94724952D01*
X161004835Y-94638706D01*
X161004828Y-94638702D01*
X160869982Y-94588408D01*
X160869983Y-94588408D01*
X160810383Y-94582001D01*
X160810381Y-94582000D01*
X160810373Y-94582000D01*
X160810364Y-94582000D01*
X159014629Y-94582000D01*
X159014623Y-94582001D01*
X158955016Y-94588408D01*
X158820171Y-94638702D01*
X158820164Y-94638706D01*
X158704955Y-94724952D01*
X158704952Y-94724955D01*
X158618706Y-94840164D01*
X158618702Y-94840171D01*
X158568408Y-94975017D01*
X158562495Y-95030019D01*
X158562001Y-95034623D01*
X158562000Y-95034635D01*
X158562000Y-96830370D01*
X158562001Y-96830376D01*
X158568408Y-96889983D01*
X158618702Y-97024828D01*
X158618706Y-97024835D01*
X158704952Y-97140044D01*
X158704955Y-97140047D01*
X158820164Y-97226293D01*
X158820171Y-97226297D01*
X158951581Y-97275310D01*
X159007515Y-97317181D01*
X159031932Y-97382645D01*
X159017080Y-97450918D01*
X158995930Y-97479173D01*
X158874003Y-97601100D01*
X158738848Y-97794123D01*
X158684271Y-97837748D01*
X158637273Y-97847000D01*
X155951021Y-97847000D01*
X155883982Y-97827315D01*
X155851754Y-97797310D01*
X155820050Y-97754958D01*
X155820047Y-97754955D01*
X155820046Y-97754954D01*
X155820042Y-97754951D01*
X155704835Y-97668706D01*
X155704828Y-97668702D01*
X155569982Y-97618408D01*
X155569983Y-97618408D01*
X155510383Y-97612001D01*
X155510381Y-97612000D01*
X155510373Y-97612000D01*
X155510364Y-97612000D01*
X152914629Y-97612000D01*
X152914623Y-97612001D01*
X152855016Y-97618408D01*
X152720171Y-97668702D01*
X152720164Y-97668706D01*
X152604955Y-97754952D01*
X152604952Y-97754955D01*
X152518706Y-97870164D01*
X152518702Y-97870171D01*
X152468408Y-98005017D01*
X152462001Y-98064616D01*
X152462000Y-98064635D01*
X152462000Y-99160370D01*
X152462001Y-99160376D01*
X152468408Y-99219983D01*
X152518702Y-99354828D01*
X152518706Y-99354835D01*
X152604952Y-99470044D01*
X152604953Y-99470044D01*
X152604954Y-99470046D01*
X152634115Y-99491876D01*
X152662645Y-99513234D01*
X152704515Y-99569168D01*
X152709499Y-99638860D01*
X152676013Y-99700183D01*
X152662645Y-99711766D01*
X152604952Y-99754955D01*
X152518706Y-99870164D01*
X152518702Y-99870171D01*
X152468408Y-100005017D01*
X152462001Y-100064616D01*
X152462000Y-100064635D01*
X152462000Y-101160370D01*
X152462001Y-101160376D01*
X152468408Y-101219983D01*
X152518702Y-101354828D01*
X152518706Y-101354835D01*
X152604952Y-101470044D01*
X152604953Y-101470044D01*
X152604954Y-101470046D01*
X152613127Y-101476164D01*
X152662645Y-101513234D01*
X152704515Y-101569168D01*
X152709499Y-101638860D01*
X152676013Y-101700183D01*
X152662645Y-101711766D01*
X152604952Y-101754955D01*
X152518706Y-101870164D01*
X152518702Y-101870171D01*
X152468408Y-102005017D01*
X152463465Y-102050998D01*
X152462000Y-102064627D01*
X152462000Y-102600499D01*
X152462001Y-103038000D01*
X152442317Y-103105039D01*
X152389513Y-103150794D01*
X152338001Y-103162000D01*
X140887000Y-103162000D01*
X140819961Y-103142315D01*
X140774206Y-103089511D01*
X140763000Y-103038000D01*
X140762999Y-102064629D01*
X140762998Y-102064623D01*
X140762997Y-102064616D01*
X140756591Y-102005017D01*
X140741451Y-101964425D01*
X140706297Y-101870171D01*
X140706293Y-101870164D01*
X140654623Y-101801143D01*
X140620046Y-101754954D01*
X140562354Y-101711765D01*
X140520484Y-101655833D01*
X140515500Y-101586141D01*
X140548985Y-101524818D01*
X140562354Y-101513234D01*
X140620046Y-101470046D01*
X140706296Y-101354831D01*
X140756591Y-101219983D01*
X140763000Y-101160373D01*
X140762999Y-100547952D01*
X140782683Y-100480914D01*
X140799318Y-100460272D01*
X141033802Y-100225789D01*
X141285858Y-99973733D01*
X141354312Y-99871285D01*
X141385377Y-99796286D01*
X141401463Y-99757452D01*
X141405545Y-99736926D01*
X141409665Y-99716218D01*
X141409665Y-99716215D01*
X141425501Y-99636606D01*
X141425501Y-99513393D01*
X141425501Y-99508283D01*
X141425500Y-99508257D01*
X141425500Y-97938394D01*
X141423161Y-97926638D01*
X141420749Y-97914511D01*
X141401463Y-97817548D01*
X141354311Y-97703714D01*
X141326175Y-97661606D01*
X141326175Y-97661605D01*
X141326173Y-97661604D01*
X141298488Y-97620169D01*
X141285859Y-97601268D01*
X141249008Y-97564417D01*
X141208770Y-97524179D01*
X141175287Y-97462859D01*
X141180271Y-97393167D01*
X141222142Y-97337233D01*
X141287606Y-97312816D01*
X141296453Y-97312500D01*
X154732500Y-97312500D01*
X154732500Y-89992500D01*
X138492500Y-89992500D01*
X138492500Y-96305325D01*
X138472815Y-96372364D01*
X138420011Y-96418119D01*
X138350853Y-96428063D01*
X138287297Y-96399038D01*
X138280819Y-96393006D01*
X137374319Y-95486506D01*
X137340834Y-95425183D01*
X137338000Y-95398825D01*
X137338000Y-94042191D01*
X137357685Y-93975152D01*
X137396904Y-93936652D01*
X137399599Y-93934989D01*
X137423350Y-93920340D01*
X137545340Y-93798350D01*
X137635908Y-93651516D01*
X137690174Y-93487753D01*
X137700500Y-93386677D01*
X137700499Y-92813324D01*
X137690174Y-92712247D01*
X137635908Y-92548484D01*
X137545340Y-92401650D01*
X137531371Y-92387681D01*
X137497886Y-92326358D01*
X137502870Y-92256666D01*
X137531371Y-92212319D01*
X137545340Y-92198350D01*
X137635908Y-92051516D01*
X137690174Y-91887753D01*
X137700500Y-91786677D01*
X137700499Y-91213324D01*
X137694765Y-91157195D01*
X137690174Y-91112247D01*
X137671244Y-91055120D01*
X137635908Y-90948484D01*
X137545340Y-90801650D01*
X137423350Y-90679660D01*
X137276516Y-90589092D01*
X137112753Y-90534826D01*
X137112751Y-90534825D01*
X137011684Y-90524500D01*
X137011677Y-90524500D01*
X136907872Y-90524500D01*
X136840833Y-90504815D01*
X136795078Y-90452011D01*
X136788210Y-90427236D01*
X136786917Y-90427532D01*
X136785368Y-90420745D01*
X136725788Y-90250476D01*
X136629815Y-90097737D01*
X136502262Y-89970184D01*
X136349523Y-89874211D01*
X136179254Y-89814631D01*
X136179249Y-89814630D01*
X136000004Y-89794435D01*
X135999996Y-89794435D01*
X135820750Y-89814630D01*
X135820745Y-89814631D01*
X135650476Y-89874211D01*
X135497737Y-89970184D01*
X135370184Y-90097737D01*
X135274210Y-90250478D01*
X135214629Y-90420753D01*
X135213080Y-90427541D01*
X135210142Y-90426870D01*
X135188140Y-90478970D01*
X135130474Y-90518422D01*
X135092127Y-90524500D01*
X134588330Y-90524500D01*
X134588312Y-90524501D01*
X134487247Y-90534825D01*
X134323484Y-90589092D01*
X134323481Y-90589093D01*
X134176648Y-90679661D01*
X134054661Y-90801648D01*
X133964093Y-90948481D01*
X133964092Y-90948484D01*
X133909826Y-91112247D01*
X133909826Y-91112248D01*
X133909825Y-91112248D01*
X133899500Y-91213315D01*
X133899500Y-91786669D01*
X133899501Y-91786687D01*
X133909825Y-91887752D01*
X133964092Y-92051515D01*
X133964093Y-92051518D01*
X134054661Y-92198351D01*
X134068982Y-92212672D01*
X134102467Y-92273995D01*
X134097483Y-92343687D01*
X134068985Y-92388032D01*
X134055052Y-92401965D01*
X133964551Y-92548688D01*
X133964546Y-92548699D01*
X133910319Y-92712347D01*
X133900000Y-92813345D01*
X133900000Y-92850000D01*
X135013500Y-92850000D01*
X135080539Y-92869685D01*
X135126294Y-92922489D01*
X135137500Y-92974000D01*
X135137500Y-94074999D01*
X135186640Y-94074999D01*
X135186654Y-94074998D01*
X135287652Y-94064680D01*
X135451300Y-94010453D01*
X135451311Y-94010448D01*
X135598033Y-93919948D01*
X135711964Y-93806017D01*
X135773287Y-93772532D01*
X135842979Y-93777516D01*
X135887327Y-93806017D01*
X136001650Y-93920340D01*
X136028096Y-93936652D01*
X136074821Y-93988600D01*
X136087000Y-94042191D01*
X136087000Y-94964921D01*
X136067315Y-95031960D01*
X136014511Y-95077715D01*
X135945353Y-95087659D01*
X135881797Y-95058634D01*
X135857462Y-95030019D01*
X135832445Y-94989461D01*
X135710538Y-94867554D01*
X135710534Y-94867551D01*
X135563811Y-94777050D01*
X135563800Y-94777045D01*
X135400152Y-94722818D01*
X135299154Y-94712499D01*
X135262500Y-94712499D01*
X135262500Y-95875999D01*
X135242815Y-95943038D01*
X135190011Y-95988793D01*
X135138500Y-95999999D01*
X134037501Y-95999999D01*
X134037501Y-96099153D01*
X134047819Y-96200151D01*
X134102046Y-96363799D01*
X134102051Y-96363810D01*
X134192552Y-96510533D01*
X134192555Y-96510537D01*
X134206483Y-96524465D01*
X134239968Y-96585788D01*
X134234984Y-96655480D01*
X134206485Y-96699825D01*
X134192161Y-96714149D01*
X134101593Y-96860982D01*
X134101592Y-96860985D01*
X134047326Y-97024748D01*
X134047326Y-97024749D01*
X134047325Y-97024749D01*
X134037000Y-97125816D01*
X134037000Y-97824170D01*
X134037002Y-97824191D01*
X134039679Y-97850400D01*
X134026908Y-97919093D01*
X133979027Y-97969976D01*
X133916321Y-97987000D01*
X130986999Y-97987000D01*
X130919960Y-97967315D01*
X130874205Y-97914511D01*
X130862999Y-97863000D01*
X130862999Y-97714629D01*
X130862998Y-97714623D01*
X130862997Y-97714616D01*
X130856591Y-97655017D01*
X130853466Y-97646639D01*
X130806297Y-97520171D01*
X130806293Y-97520164D01*
X130720047Y-97404955D01*
X130720044Y-97404952D01*
X130604834Y-97318705D01*
X130568664Y-97305214D01*
X130512731Y-97263341D01*
X130488316Y-97197876D01*
X130488000Y-97189033D01*
X130488000Y-95400844D01*
X134037500Y-95400844D01*
X134037500Y-95499999D01*
X134762500Y-95499999D01*
X134762500Y-94712499D01*
X134725861Y-94712499D01*
X134725843Y-94712500D01*
X134624847Y-94722818D01*
X134461199Y-94777045D01*
X134461188Y-94777050D01*
X134314465Y-94867551D01*
X134314461Y-94867554D01*
X134192555Y-94989460D01*
X134192552Y-94989464D01*
X134102051Y-95136187D01*
X134102046Y-95136198D01*
X134047819Y-95299846D01*
X134037500Y-95400844D01*
X130488000Y-95400844D01*
X130488000Y-93435966D01*
X130502480Y-93386654D01*
X133900001Y-93386654D01*
X133910319Y-93487652D01*
X133964546Y-93651300D01*
X133964551Y-93651311D01*
X134055052Y-93798034D01*
X134055055Y-93798038D01*
X134176961Y-93919944D01*
X134176965Y-93919947D01*
X134323688Y-94010448D01*
X134323699Y-94010453D01*
X134487347Y-94064680D01*
X134588351Y-94074999D01*
X134637499Y-94074998D01*
X134637500Y-94074998D01*
X134637500Y-93350000D01*
X133900001Y-93350000D01*
X133900001Y-93386654D01*
X130502480Y-93386654D01*
X130507685Y-93368927D01*
X130560489Y-93323172D01*
X130568656Y-93319788D01*
X130604831Y-93306296D01*
X130720046Y-93220046D01*
X130806296Y-93104831D01*
X130856591Y-92969983D01*
X130863000Y-92910373D01*
X130862999Y-91114628D01*
X130856591Y-91055017D01*
X130843594Y-91020171D01*
X130806297Y-90920171D01*
X130806293Y-90920164D01*
X130720047Y-90804955D01*
X130720044Y-90804952D01*
X130604835Y-90718706D01*
X130604828Y-90718702D01*
X130469982Y-90668408D01*
X130469983Y-90668408D01*
X130410383Y-90662001D01*
X130410381Y-90662000D01*
X130410373Y-90662000D01*
X130410364Y-90662000D01*
X129314629Y-90662000D01*
X129314623Y-90662001D01*
X129255016Y-90668408D01*
X129120171Y-90718702D01*
X129120164Y-90718706D01*
X129004955Y-90804952D01*
X129004952Y-90804955D01*
X128918706Y-90920164D01*
X128918702Y-90920171D01*
X128868408Y-91055017D01*
X128862256Y-91112247D01*
X128862001Y-91114623D01*
X128862000Y-91114635D01*
X128862000Y-92910370D01*
X128862001Y-92910376D01*
X128868408Y-92969983D01*
X128918702Y-93104828D01*
X128918706Y-93104835D01*
X129004952Y-93220044D01*
X129004955Y-93220047D01*
X129120164Y-93306293D01*
X129120169Y-93306296D01*
X129156332Y-93319784D01*
X129212266Y-93361654D01*
X129236684Y-93427118D01*
X129237000Y-93435966D01*
X129237000Y-97189033D01*
X129217315Y-97256072D01*
X129164511Y-97301827D01*
X129156336Y-97305214D01*
X129120165Y-97318705D01*
X129004955Y-97404952D01*
X129004952Y-97404955D01*
X128918706Y-97520164D01*
X128918702Y-97520171D01*
X128868408Y-97655017D01*
X128863173Y-97703714D01*
X128862001Y-97714623D01*
X128862000Y-97714635D01*
X128862000Y-99510370D01*
X128862001Y-99510376D01*
X128868408Y-99569983D01*
X128918702Y-99704828D01*
X128918706Y-99704835D01*
X129004952Y-99820044D01*
X129004955Y-99820047D01*
X129120164Y-99906293D01*
X129120171Y-99906297D01*
X129255017Y-99956591D01*
X129255016Y-99956591D01*
X129261944Y-99957335D01*
X129314627Y-99963000D01*
X130410372Y-99962999D01*
X130469983Y-99956591D01*
X130604831Y-99906296D01*
X130720046Y-99820046D01*
X130806296Y-99704831D01*
X130856591Y-99569983D01*
X130863000Y-99510373D01*
X130863000Y-99362000D01*
X130882685Y-99294961D01*
X130935489Y-99249206D01*
X130987000Y-99238000D01*
X132075500Y-99238000D01*
X132142539Y-99257685D01*
X132188294Y-99310489D01*
X132199500Y-99362000D01*
X132199500Y-99886669D01*
X132199501Y-99886687D01*
X132209825Y-99987752D01*
X132235302Y-100064635D01*
X132260639Y-100141097D01*
X132264092Y-100151515D01*
X132264093Y-100151518D01*
X132298395Y-100207129D01*
X132332842Y-100262978D01*
X132354661Y-100298351D01*
X132476650Y-100420340D01*
X132503096Y-100436652D01*
X132549821Y-100488600D01*
X132562000Y-100542191D01*
X132562000Y-101049110D01*
X132574018Y-101109529D01*
X132586037Y-101169952D01*
X132586038Y-101169954D01*
X132586038Y-101169956D01*
X132596937Y-101196268D01*
X132633185Y-101283781D01*
X132633188Y-101283786D01*
X132649891Y-101308783D01*
X132649892Y-101308786D01*
X132649893Y-101308786D01*
X132701640Y-101386231D01*
X132701641Y-101386232D01*
X132701642Y-101386233D01*
X132788767Y-101473358D01*
X132788768Y-101473358D01*
X132795835Y-101480425D01*
X132795834Y-101480425D01*
X132795838Y-101480428D01*
X133775681Y-102460271D01*
X133809166Y-102521594D01*
X133812000Y-102547952D01*
X133812000Y-102886668D01*
X133812001Y-102886687D01*
X133822325Y-102987752D01*
X133876592Y-103151515D01*
X133876593Y-103151518D01*
X133900314Y-103189975D01*
X133937632Y-103250478D01*
X133955071Y-103278750D01*
X133973511Y-103346143D01*
X133966574Y-103384801D01*
X133914630Y-103533250D01*
X133906898Y-103601883D01*
X133879832Y-103666297D01*
X133822237Y-103705852D01*
X133783678Y-103712000D01*
X130524000Y-103712000D01*
X130456961Y-103692315D01*
X130411206Y-103639511D01*
X130400000Y-103588000D01*
X130400000Y-103450000D01*
X129074000Y-103450000D01*
X129006961Y-103430315D01*
X128961206Y-103377511D01*
X128950000Y-103326000D01*
X128950000Y-103074000D01*
X128969685Y-103006961D01*
X129022489Y-102961206D01*
X129074000Y-102950000D01*
X130400000Y-102950000D01*
X130400000Y-102552172D01*
X130399999Y-102552155D01*
X130393598Y-102492627D01*
X130393596Y-102492620D01*
X130356831Y-102394047D01*
X130351847Y-102324356D01*
X130356827Y-102307390D01*
X130394091Y-102207483D01*
X130400500Y-102147873D01*
X130400499Y-100852128D01*
X130394091Y-100792517D01*
X130393806Y-100791754D01*
X130343797Y-100657671D01*
X130343793Y-100657664D01*
X130257547Y-100542455D01*
X130257544Y-100542452D01*
X130142335Y-100456206D01*
X130142328Y-100456202D01*
X130007482Y-100405908D01*
X130007483Y-100405908D01*
X129947883Y-100399501D01*
X129947881Y-100399500D01*
X129947873Y-100399500D01*
X129947864Y-100399500D01*
X128452129Y-100399500D01*
X128452123Y-100399501D01*
X128392516Y-100405908D01*
X128257671Y-100456202D01*
X128257669Y-100456204D01*
X128173894Y-100518918D01*
X128108430Y-100543335D01*
X128040157Y-100528484D01*
X128025272Y-100518918D01*
X127942088Y-100456646D01*
X127942086Y-100456645D01*
X127807379Y-100406403D01*
X127807372Y-100406401D01*
X127747844Y-100400000D01*
X127250000Y-100400000D01*
X127250000Y-101626000D01*
X127230315Y-101693039D01*
X127177511Y-101738794D01*
X127126000Y-101750000D01*
X125800000Y-101750000D01*
X125800000Y-102147844D01*
X125806401Y-102207372D01*
X125806403Y-102207380D01*
X125843168Y-102305952D01*
X125848152Y-102375644D01*
X125843168Y-102392617D01*
X125805909Y-102492514D01*
X125805908Y-102492516D01*
X125799501Y-102552116D01*
X125799500Y-102552135D01*
X125799500Y-103847870D01*
X125799501Y-103847876D01*
X125805908Y-103907483D01*
X125856202Y-104042328D01*
X125856206Y-104042335D01*
X125942452Y-104157544D01*
X125942455Y-104157547D01*
X126057664Y-104243793D01*
X126057671Y-104243797D01*
X126070246Y-104248487D01*
X126192517Y-104294091D01*
X126252127Y-104300500D01*
X126503919Y-104300499D01*
X126570956Y-104320183D01*
X126616711Y-104372987D01*
X126626655Y-104442146D01*
X126597630Y-104505701D01*
X126569890Y-104529492D01*
X126485240Y-104582682D01*
X126485237Y-104582684D01*
X126357684Y-104710237D01*
X126261711Y-104862976D01*
X126202131Y-105033245D01*
X126202130Y-105033250D01*
X126181935Y-105212496D01*
X126181935Y-105212503D01*
X126200986Y-105381592D01*
X126188931Y-105450414D01*
X126141582Y-105501793D01*
X126129079Y-105507659D01*
X126129247Y-105508008D01*
X126116700Y-105514050D01*
X126115369Y-105511286D01*
X126061162Y-105526561D01*
X125994342Y-105506143D01*
X125974839Y-105490249D01*
X125802698Y-105318108D01*
X125802678Y-105318086D01*
X125711233Y-105226641D01*
X125660009Y-105192415D01*
X125632478Y-105174019D01*
X125608786Y-105158188D01*
X125518256Y-105120690D01*
X125494952Y-105111037D01*
X125494944Y-105111035D01*
X125382080Y-105088585D01*
X125382079Y-105088585D01*
X125374112Y-105087000D01*
X125373723Y-105086962D01*
X125373532Y-105086884D01*
X125368133Y-105085811D01*
X125368336Y-105084787D01*
X125308936Y-105060802D01*
X125280340Y-105028659D01*
X125232840Y-104951650D01*
X125218516Y-104937326D01*
X125185031Y-104876003D01*
X125190015Y-104806311D01*
X125218520Y-104761959D01*
X125232447Y-104748033D01*
X125322948Y-104601309D01*
X125322953Y-104601298D01*
X125377180Y-104437650D01*
X125387499Y-104336652D01*
X125387500Y-104336639D01*
X125387500Y-104237498D01*
X123437501Y-104237498D01*
X123437501Y-104336652D01*
X123447819Y-104437650D01*
X123502046Y-104601298D01*
X123502051Y-104601309D01*
X123592552Y-104748032D01*
X123592555Y-104748036D01*
X123606483Y-104761964D01*
X123639968Y-104823287D01*
X123634984Y-104892979D01*
X123606485Y-104937324D01*
X123592161Y-104951648D01*
X123592157Y-104951653D01*
X123568136Y-104990598D01*
X123516188Y-105037323D01*
X123462598Y-105049501D01*
X122585532Y-105049501D01*
X122518493Y-105029816D01*
X122479994Y-104990598D01*
X122432842Y-104914154D01*
X122432839Y-104914150D01*
X122418516Y-104899827D01*
X122385031Y-104838504D01*
X122390015Y-104768812D01*
X122418520Y-104724460D01*
X122432447Y-104710534D01*
X122522948Y-104563810D01*
X122522953Y-104563799D01*
X122577180Y-104400151D01*
X122587499Y-104299153D01*
X122587500Y-104299140D01*
X122587500Y-104199999D01*
X120637501Y-104199999D01*
X120637501Y-104299153D01*
X120647819Y-104400151D01*
X120702046Y-104563799D01*
X120702051Y-104563810D01*
X120792552Y-104710533D01*
X120792555Y-104710537D01*
X120806483Y-104724465D01*
X120839968Y-104785788D01*
X120834984Y-104855480D01*
X120806485Y-104899825D01*
X120792161Y-104914149D01*
X120701593Y-105060982D01*
X120701591Y-105060987D01*
X120693705Y-105084787D01*
X120647326Y-105224748D01*
X120647326Y-105224749D01*
X120647325Y-105224749D01*
X120637000Y-105325816D01*
X120637000Y-106024170D01*
X120637001Y-106024188D01*
X120647325Y-106125253D01*
X120666939Y-106184442D01*
X120697932Y-106277973D01*
X120701592Y-106289016D01*
X120701593Y-106289019D01*
X120714681Y-106310238D01*
X120791884Y-106435404D01*
X120792161Y-106435852D01*
X120844128Y-106487819D01*
X120877613Y-106549142D01*
X120872629Y-106618834D01*
X120830757Y-106674767D01*
X120765293Y-106699184D01*
X120756447Y-106699500D01*
X120451326Y-106699500D01*
X120408800Y-106690071D01*
X120408372Y-106691364D01*
X120391907Y-106685908D01*
X120237753Y-106634826D01*
X120237751Y-106634825D01*
X120136678Y-106624500D01*
X119463330Y-106624500D01*
X119463312Y-106624501D01*
X119362247Y-106634825D01*
X119198484Y-106689092D01*
X119198481Y-106689093D01*
X119051648Y-106779661D01*
X119012681Y-106818628D01*
X118951358Y-106852113D01*
X118881666Y-106847127D01*
X118837321Y-106818628D01*
X118798353Y-106779661D01*
X118798352Y-106779660D01*
X118667880Y-106699184D01*
X118651520Y-106689093D01*
X118651515Y-106689091D01*
X118600626Y-106672228D01*
X118487755Y-106634826D01*
X118487753Y-106634825D01*
X118386680Y-106624500D01*
X117713332Y-106624500D01*
X117713314Y-106624501D01*
X117612249Y-106634825D01*
X117612245Y-106634826D01*
X117563504Y-106650978D01*
X117493675Y-106653380D01*
X117433633Y-106617648D01*
X117402441Y-106555127D01*
X117400500Y-106533272D01*
X117400500Y-105526327D01*
X117409928Y-105483801D01*
X117408636Y-105483373D01*
X117413053Y-105470043D01*
X117465174Y-105312754D01*
X117475500Y-105211678D01*
X117475499Y-104513325D01*
X117472780Y-104486711D01*
X117465174Y-104412248D01*
X117461165Y-104400151D01*
X117410908Y-104248485D01*
X117320340Y-104101651D01*
X117306016Y-104087327D01*
X117272531Y-104026004D01*
X117277515Y-103956312D01*
X117306020Y-103911960D01*
X117319947Y-103898034D01*
X117410448Y-103751310D01*
X117410453Y-103751299D01*
X117460308Y-103600844D01*
X120637500Y-103600844D01*
X120637500Y-103699999D01*
X121362500Y-103699999D01*
X121862500Y-103699999D01*
X122587499Y-103699999D01*
X122587499Y-103638343D01*
X123437500Y-103638343D01*
X123437500Y-103737498D01*
X124162500Y-103737498D01*
X124662500Y-103737498D01*
X125387499Y-103737498D01*
X125387499Y-103638358D01*
X125387498Y-103638343D01*
X125377180Y-103537345D01*
X125322953Y-103373697D01*
X125322948Y-103373686D01*
X125232447Y-103226963D01*
X125232444Y-103226959D01*
X125110538Y-103105053D01*
X125110534Y-103105050D01*
X124963811Y-103014549D01*
X124963800Y-103014544D01*
X124800152Y-102960317D01*
X124699154Y-102949998D01*
X124662500Y-102949998D01*
X124662500Y-103737498D01*
X124162500Y-103737498D01*
X124162500Y-102949998D01*
X124125861Y-102949998D01*
X124125843Y-102949999D01*
X124024847Y-102960317D01*
X123861199Y-103014544D01*
X123861188Y-103014549D01*
X123714465Y-103105050D01*
X123714461Y-103105053D01*
X123592555Y-103226959D01*
X123592552Y-103226963D01*
X123502051Y-103373686D01*
X123502046Y-103373697D01*
X123447819Y-103537345D01*
X123437500Y-103638343D01*
X122587499Y-103638343D01*
X122587499Y-103600859D01*
X122587498Y-103600844D01*
X122577180Y-103499846D01*
X122522953Y-103336198D01*
X122522948Y-103336187D01*
X122432447Y-103189464D01*
X122432444Y-103189460D01*
X122310538Y-103067554D01*
X122310534Y-103067551D01*
X122163811Y-102977050D01*
X122163800Y-102977045D01*
X122000152Y-102922818D01*
X121899154Y-102912499D01*
X121862500Y-102912499D01*
X121862500Y-103699999D01*
X121362500Y-103699999D01*
X121362500Y-102912499D01*
X121325861Y-102912499D01*
X121325843Y-102912500D01*
X121224847Y-102922818D01*
X121061199Y-102977045D01*
X121061188Y-102977050D01*
X120914465Y-103067551D01*
X120914461Y-103067554D01*
X120792555Y-103189460D01*
X120792552Y-103189464D01*
X120702051Y-103336187D01*
X120702046Y-103336198D01*
X120647819Y-103499846D01*
X120637500Y-103600844D01*
X117460308Y-103600844D01*
X117464680Y-103587651D01*
X117474999Y-103486653D01*
X117475000Y-103486640D01*
X117475000Y-103387499D01*
X115525001Y-103387499D01*
X115525001Y-103486653D01*
X115535319Y-103587651D01*
X115589546Y-103751299D01*
X115589551Y-103751310D01*
X115680052Y-103898033D01*
X115680055Y-103898037D01*
X115693983Y-103911965D01*
X115727468Y-103973288D01*
X115722484Y-104042980D01*
X115693985Y-104087325D01*
X115679661Y-104101649D01*
X115589093Y-104248482D01*
X115589091Y-104248487D01*
X115572880Y-104297410D01*
X115534826Y-104412248D01*
X115534826Y-104412249D01*
X115534825Y-104412249D01*
X115524500Y-104513316D01*
X115524500Y-105211670D01*
X115524501Y-105211688D01*
X115534825Y-105312753D01*
X115534826Y-105312756D01*
X115591364Y-105483373D01*
X115590071Y-105483801D01*
X115599500Y-105526327D01*
X115599500Y-106619874D01*
X115579815Y-106686913D01*
X115527011Y-106732668D01*
X115457853Y-106742612D01*
X115410404Y-106725413D01*
X115367880Y-106699184D01*
X115351520Y-106689093D01*
X115351515Y-106689091D01*
X115300626Y-106672228D01*
X115187755Y-106634826D01*
X115187753Y-106634825D01*
X115086680Y-106624500D01*
X114413332Y-106624500D01*
X114413314Y-106624501D01*
X114312249Y-106634825D01*
X114312246Y-106634826D01*
X114141630Y-106691364D01*
X114141201Y-106690071D01*
X114098676Y-106699500D01*
X113826325Y-106699500D01*
X113783799Y-106690071D01*
X113783371Y-106691364D01*
X113766906Y-106685908D01*
X113612752Y-106634826D01*
X113612750Y-106634825D01*
X113511677Y-106624500D01*
X112838329Y-106624500D01*
X112838311Y-106624501D01*
X112737246Y-106634825D01*
X112573483Y-106689092D01*
X112573480Y-106689093D01*
X112426647Y-106779661D01*
X112387680Y-106818628D01*
X112326357Y-106852113D01*
X112256665Y-106847127D01*
X112212320Y-106818628D01*
X112173352Y-106779661D01*
X112173351Y-106779660D01*
X112042879Y-106699184D01*
X112026519Y-106689093D01*
X112026514Y-106689091D01*
X111975625Y-106672228D01*
X111862754Y-106634826D01*
X111862752Y-106634825D01*
X111761679Y-106624500D01*
X111088331Y-106624500D01*
X111088313Y-106624501D01*
X110987248Y-106634825D01*
X110987245Y-106634826D01*
X110816629Y-106691364D01*
X110816200Y-106690071D01*
X110773675Y-106699500D01*
X107913837Y-106699500D01*
X107846798Y-106679815D01*
X107808109Y-106640290D01*
X107795598Y-106619874D01*
X107697972Y-106460561D01*
X107542027Y-106277973D01*
X107359439Y-106122028D01*
X107341412Y-106110981D01*
X107154702Y-105996565D01*
X106958661Y-105915363D01*
X106932863Y-105904677D01*
X106932859Y-105904676D01*
X106932853Y-105904674D01*
X106699382Y-105848623D01*
X106460000Y-105829783D01*
X106220617Y-105848623D01*
X105987146Y-105904674D01*
X105987134Y-105904678D01*
X105765297Y-105996565D01*
X105560563Y-106122026D01*
X105377973Y-106277973D01*
X105222026Y-106460563D01*
X105096565Y-106665297D01*
X105004678Y-106887134D01*
X105004674Y-106887146D01*
X104948623Y-107120617D01*
X104929783Y-107360000D01*
X104948623Y-107599382D01*
X105004674Y-107832853D01*
X105004678Y-107832865D01*
X105096565Y-108054702D01*
X105210553Y-108240714D01*
X105222028Y-108259439D01*
X105377973Y-108442027D01*
X105560561Y-108597972D01*
X105595119Y-108619149D01*
X105765297Y-108723434D01*
X105850162Y-108758586D01*
X105987137Y-108815323D01*
X106220621Y-108871377D01*
X106460000Y-108890217D01*
X106699379Y-108871377D01*
X106932863Y-108815323D01*
X107142691Y-108728409D01*
X107154702Y-108723434D01*
X107164964Y-108717146D01*
X107359439Y-108597972D01*
X107388690Y-108572989D01*
X107438779Y-108530210D01*
X107502540Y-108501639D01*
X107519310Y-108500500D01*
X107912417Y-108500500D01*
X107979456Y-108520185D01*
X108016564Y-108563010D01*
X108599438Y-109145884D01*
X108597374Y-109146740D01*
X108458156Y-109239762D01*
X108339762Y-109358156D01*
X108246740Y-109497374D01*
X108245884Y-109499438D01*
X107684532Y-108938086D01*
X107681282Y-108941893D01*
X107547636Y-109159984D01*
X107547634Y-109159987D01*
X107449752Y-109396297D01*
X107390042Y-109645010D01*
X107369975Y-109900000D01*
X107390042Y-110154989D01*
X107449752Y-110403702D01*
X107547634Y-110640012D01*
X107547636Y-110640015D01*
X107681277Y-110858098D01*
X107681284Y-110858107D01*
X107684533Y-110861912D01*
X108245884Y-110300560D01*
X108246740Y-110302626D01*
X108339762Y-110441844D01*
X108458156Y-110560238D01*
X108597374Y-110653260D01*
X108599437Y-110654114D01*
X108038087Y-111215465D01*
X108041897Y-111218719D01*
X108259984Y-111352363D01*
X108259987Y-111352365D01*
X108496297Y-111450247D01*
X108745011Y-111509957D01*
X108745010Y-111509957D01*
X109000000Y-111530024D01*
X109254989Y-111509957D01*
X109503702Y-111450247D01*
X109740012Y-111352365D01*
X109740015Y-111352363D01*
X109958095Y-111218724D01*
X109958110Y-111218713D01*
X109961911Y-111215466D01*
X109961911Y-111215464D01*
X109958102Y-111211655D01*
X112025001Y-111211655D01*
X112035319Y-111312653D01*
X112089546Y-111476301D01*
X112089551Y-111476312D01*
X112180052Y-111623035D01*
X112180055Y-111623039D01*
X112301961Y-111744945D01*
X112301965Y-111744948D01*
X112448688Y-111835449D01*
X112448699Y-111835454D01*
X112612347Y-111889681D01*
X112713352Y-111900000D01*
X112750000Y-111900000D01*
X112750000Y-111112501D01*
X112025001Y-111112501D01*
X112025001Y-111211655D01*
X109958102Y-111211655D01*
X109400562Y-110654114D01*
X109402626Y-110653260D01*
X109541844Y-110560238D01*
X109660238Y-110441844D01*
X109753260Y-110302626D01*
X109754114Y-110300561D01*
X110315464Y-110861911D01*
X110315466Y-110861911D01*
X110318713Y-110858110D01*
X110318724Y-110858095D01*
X110452363Y-110640015D01*
X110452365Y-110640012D01*
X110550247Y-110403702D01*
X110609957Y-110154989D01*
X110630024Y-109900000D01*
X110609957Y-109645010D01*
X110550247Y-109396297D01*
X110452365Y-109159987D01*
X110452363Y-109159984D01*
X110318719Y-108941897D01*
X110315465Y-108938087D01*
X109754114Y-109499437D01*
X109753260Y-109497374D01*
X109660238Y-109358156D01*
X109541844Y-109239762D01*
X109402626Y-109146740D01*
X109400561Y-109145884D01*
X109979325Y-108567120D01*
X109980711Y-108561610D01*
X110031677Y-108513816D01*
X110087580Y-108500500D01*
X110773675Y-108500500D01*
X110816200Y-108509928D01*
X110816629Y-108508636D01*
X110823484Y-108510907D01*
X110823485Y-108510908D01*
X110987248Y-108565174D01*
X111088324Y-108575500D01*
X111761677Y-108575499D01*
X111761685Y-108575498D01*
X111761688Y-108575498D01*
X111831085Y-108568409D01*
X111862754Y-108565174D01*
X111871928Y-108562133D01*
X111941757Y-108559729D01*
X112001800Y-108595458D01*
X112032995Y-108657978D01*
X112034295Y-108692440D01*
X112024500Y-108788312D01*
X112024500Y-109486668D01*
X112024501Y-109486686D01*
X112034825Y-109587751D01*
X112068848Y-109690423D01*
X112086522Y-109743760D01*
X112089092Y-109751514D01*
X112089093Y-109751517D01*
X112123395Y-109807128D01*
X112179659Y-109898348D01*
X112179661Y-109898350D01*
X112193983Y-109912672D01*
X112227468Y-109973995D01*
X112222484Y-110043687D01*
X112193986Y-110088032D01*
X112180052Y-110101966D01*
X112089551Y-110248689D01*
X112089546Y-110248700D01*
X112035319Y-110412348D01*
X112025000Y-110513346D01*
X112025000Y-110612501D01*
X113126000Y-110612501D01*
X113193039Y-110632186D01*
X113238794Y-110684990D01*
X113250000Y-110736501D01*
X113250000Y-111900000D01*
X113286640Y-111900000D01*
X113286654Y-111899999D01*
X113376584Y-111890812D01*
X113445277Y-111903581D01*
X113496161Y-111951462D01*
X113507776Y-111981360D01*
X113508189Y-111981224D01*
X113564546Y-112151300D01*
X113564551Y-112151311D01*
X113655052Y-112298034D01*
X113655055Y-112298038D01*
X113776961Y-112419944D01*
X113776965Y-112419947D01*
X113923688Y-112510448D01*
X113923699Y-112510453D01*
X114087347Y-112564680D01*
X114188351Y-112574999D01*
X114237499Y-112574998D01*
X114237500Y-112574998D01*
X114237500Y-110625000D01*
X114237499Y-110624999D01*
X114188361Y-110625000D01*
X114188341Y-110625001D01*
X114111563Y-110632845D01*
X114042870Y-110620075D01*
X113991986Y-110572194D01*
X113975336Y-110516494D01*
X113975320Y-110516496D01*
X113975310Y-110516406D01*
X113975122Y-110515775D01*
X113974999Y-110513354D01*
X113964680Y-110412348D01*
X113910453Y-110248700D01*
X113910448Y-110248689D01*
X113819947Y-110101966D01*
X113819944Y-110101962D01*
X113806016Y-110088034D01*
X113772531Y-110026711D01*
X113777515Y-109957019D01*
X113806016Y-109912672D01*
X113820340Y-109898349D01*
X113910908Y-109751515D01*
X113965174Y-109587752D01*
X113975500Y-109486676D01*
X113975499Y-109407705D01*
X113984939Y-109360251D01*
X114011409Y-109296347D01*
X114018304Y-109279701D01*
X114040894Y-109225166D01*
X114075499Y-109051192D01*
X114075499Y-108873808D01*
X114075499Y-108658442D01*
X114095184Y-108591403D01*
X114147988Y-108545648D01*
X114217146Y-108535704D01*
X114238491Y-108540733D01*
X114312249Y-108565174D01*
X114413325Y-108575500D01*
X115086678Y-108575499D01*
X115086686Y-108575498D01*
X115086689Y-108575498D01*
X115156086Y-108568409D01*
X115187755Y-108565174D01*
X115351518Y-108510908D01*
X115498352Y-108420340D01*
X115537320Y-108381372D01*
X115598643Y-108347887D01*
X115668335Y-108352871D01*
X115712682Y-108381372D01*
X115751650Y-108420340D01*
X115898484Y-108510908D01*
X116062247Y-108565174D01*
X116163323Y-108575500D01*
X116836676Y-108575499D01*
X116836684Y-108575498D01*
X116836687Y-108575498D01*
X116906084Y-108568409D01*
X116937753Y-108565174D01*
X117101516Y-108510908D01*
X117101516Y-108510907D01*
X117108372Y-108508636D01*
X117108800Y-108509928D01*
X117151326Y-108500500D01*
X117398676Y-108500500D01*
X117441201Y-108509928D01*
X117441630Y-108508636D01*
X117448485Y-108510907D01*
X117448486Y-108510908D01*
X117612249Y-108565174D01*
X117713325Y-108575500D01*
X118250970Y-108575499D01*
X118318009Y-108595183D01*
X118363764Y-108647987D01*
X118373708Y-108717146D01*
X118344683Y-108780702D01*
X118289975Y-108817205D01*
X118148484Y-108864091D01*
X118148481Y-108864092D01*
X118001648Y-108954660D01*
X117879661Y-109076647D01*
X117789093Y-109223480D01*
X117789091Y-109223485D01*
X117776438Y-109261670D01*
X117734826Y-109387246D01*
X117734826Y-109387247D01*
X117734825Y-109387247D01*
X117724500Y-109488314D01*
X117724500Y-110186668D01*
X117724501Y-110186686D01*
X117734825Y-110287751D01*
X117762141Y-110370184D01*
X117789092Y-110451515D01*
X117789096Y-110451521D01*
X117802285Y-110472905D01*
X117820725Y-110540298D01*
X117799802Y-110606961D01*
X117746159Y-110651730D01*
X117696746Y-110662001D01*
X116814771Y-110662001D01*
X116775767Y-110655707D01*
X116712753Y-110634826D01*
X116712751Y-110634825D01*
X116611678Y-110624500D01*
X116013330Y-110624500D01*
X116013312Y-110624501D01*
X115912247Y-110634825D01*
X115748484Y-110689092D01*
X115748481Y-110689093D01*
X115601651Y-110779659D01*
X115487327Y-110893983D01*
X115426004Y-110927467D01*
X115356312Y-110922483D01*
X115311965Y-110893982D01*
X115198038Y-110780055D01*
X115198034Y-110780052D01*
X115051311Y-110689551D01*
X115051300Y-110689546D01*
X114887652Y-110635319D01*
X114786654Y-110625000D01*
X114737500Y-110625000D01*
X114737500Y-112574999D01*
X114786640Y-112574999D01*
X114786654Y-112574998D01*
X114887652Y-112564680D01*
X115051300Y-112510453D01*
X115051311Y-112510448D01*
X115198033Y-112419948D01*
X115311964Y-112306017D01*
X115373287Y-112272532D01*
X115442979Y-112277516D01*
X115487327Y-112306017D01*
X115601650Y-112420340D01*
X115748484Y-112510908D01*
X115912247Y-112565174D01*
X116013323Y-112575500D01*
X116611676Y-112575499D01*
X116611684Y-112575498D01*
X116611687Y-112575498D01*
X116667030Y-112569844D01*
X116712753Y-112565174D01*
X116876516Y-112510908D01*
X116916088Y-112486500D01*
X116924257Y-112481462D01*
X116989353Y-112463001D01*
X117995114Y-112463001D01*
X118060210Y-112481462D01*
X118148477Y-112535905D01*
X118148478Y-112535905D01*
X118148484Y-112535909D01*
X118312247Y-112590175D01*
X118413323Y-112600501D01*
X118986676Y-112600500D01*
X118986684Y-112600499D01*
X118986687Y-112600499D01*
X119042030Y-112594845D01*
X119087753Y-112590175D01*
X119251516Y-112535909D01*
X119292051Y-112510907D01*
X119339790Y-112481462D01*
X119404886Y-112463001D01*
X120657810Y-112463001D01*
X120724849Y-112482686D01*
X120763347Y-112521903D01*
X120771984Y-112535905D01*
X120779659Y-112548349D01*
X120904129Y-112672819D01*
X120937614Y-112734142D01*
X120932630Y-112803834D01*
X120890758Y-112859767D01*
X120825294Y-112884184D01*
X120816448Y-112884500D01*
X118201670Y-112884500D01*
X118201654Y-112884499D01*
X118194058Y-112884499D01*
X118035943Y-112884499D01*
X117959579Y-112904961D01*
X117883214Y-112925423D01*
X117883209Y-112925426D01*
X117746290Y-113004475D01*
X117746282Y-113004481D01*
X116987581Y-113763181D01*
X116926258Y-113796666D01*
X116899901Y-113799500D01*
X116813331Y-113799500D01*
X116813312Y-113799501D01*
X116712247Y-113809825D01*
X116548484Y-113864092D01*
X116548481Y-113864093D01*
X116401648Y-113954661D01*
X116318129Y-114038181D01*
X116256806Y-114071666D01*
X116230448Y-114074500D01*
X112759481Y-114074500D01*
X112692442Y-114054815D01*
X112653942Y-114015596D01*
X112645534Y-114001965D01*
X112645340Y-114001650D01*
X112523350Y-113879660D01*
X112393390Y-113799500D01*
X112376518Y-113789093D01*
X112376513Y-113789091D01*
X112375069Y-113788612D01*
X112212753Y-113734826D01*
X112212751Y-113734825D01*
X112111678Y-113724500D01*
X111413330Y-113724500D01*
X111413312Y-113724501D01*
X111312247Y-113734825D01*
X111148484Y-113789092D01*
X111148481Y-113789093D01*
X111001648Y-113879661D01*
X110987325Y-113893984D01*
X110926001Y-113927468D01*
X110856309Y-113922482D01*
X110811965Y-113893982D01*
X110798038Y-113880055D01*
X110798034Y-113880052D01*
X110651311Y-113789551D01*
X110651300Y-113789546D01*
X110487652Y-113735319D01*
X110386654Y-113725000D01*
X110287500Y-113725000D01*
X110287500Y-114826000D01*
X110267815Y-114893039D01*
X110215011Y-114938794D01*
X110163500Y-114950000D01*
X109000001Y-114950000D01*
X109000001Y-114986654D01*
X109010319Y-115087652D01*
X109064546Y-115251300D01*
X109064551Y-115251311D01*
X109155052Y-115398034D01*
X109155055Y-115398038D01*
X109276961Y-115519944D01*
X109276965Y-115519947D01*
X109423688Y-115610448D01*
X109423701Y-115610454D01*
X109585288Y-115663998D01*
X109642733Y-115703770D01*
X109669557Y-115768286D01*
X109657242Y-115837062D01*
X109609700Y-115888262D01*
X109558888Y-115905062D01*
X109512246Y-115909827D01*
X109348484Y-115964093D01*
X109348481Y-115964094D01*
X109201648Y-116054662D01*
X109079661Y-116176649D01*
X108989093Y-116323482D01*
X108989092Y-116323485D01*
X108934826Y-116487248D01*
X108934826Y-116487249D01*
X108934825Y-116487249D01*
X108924500Y-116588316D01*
X108924500Y-117261670D01*
X108924501Y-117261688D01*
X108934825Y-117362753D01*
X108963814Y-117450233D01*
X108982348Y-117506166D01*
X108989092Y-117526516D01*
X108989093Y-117526519D01*
X109017756Y-117572989D01*
X109068131Y-117654660D01*
X109079661Y-117673352D01*
X109118628Y-117712320D01*
X109152113Y-117773643D01*
X109147127Y-117843335D01*
X109118628Y-117887680D01*
X109079661Y-117926647D01*
X108989093Y-118073480D01*
X108989091Y-118073485D01*
X108980971Y-118097989D01*
X108934826Y-118237246D01*
X108934826Y-118237247D01*
X108934825Y-118237247D01*
X108924500Y-118338314D01*
X108924500Y-119011668D01*
X108924501Y-119011686D01*
X108934825Y-119112751D01*
X108961907Y-119194478D01*
X108988755Y-119275499D01*
X108989092Y-119276514D01*
X108989093Y-119276517D01*
X109011789Y-119313312D01*
X109079660Y-119423349D01*
X109201650Y-119545339D01*
X109348484Y-119635907D01*
X109512247Y-119690173D01*
X109613323Y-119700499D01*
X110186676Y-119700498D01*
X110186684Y-119700497D01*
X110186687Y-119700497D01*
X110268301Y-119692160D01*
X110287753Y-119690173D01*
X110451516Y-119635907D01*
X110598350Y-119545339D01*
X110720340Y-119423349D01*
X110759783Y-119359402D01*
X110811730Y-119312678D01*
X110865321Y-119300499D01*
X111576576Y-119300499D01*
X111611170Y-119305422D01*
X111670325Y-119322609D01*
X111707060Y-119325500D01*
X111707068Y-119325500D01*
X112752932Y-119325500D01*
X112752940Y-119325500D01*
X112789675Y-119322609D01*
X112789677Y-119322608D01*
X112789679Y-119322608D01*
X112946892Y-119276933D01*
X112946893Y-119276932D01*
X112946897Y-119276931D01*
X113087820Y-119193590D01*
X113203590Y-119077820D01*
X113286931Y-118936897D01*
X113286932Y-118936893D01*
X113286933Y-118936892D01*
X113332608Y-118779679D01*
X113332609Y-118779673D01*
X113332610Y-118779657D01*
X113335500Y-118742940D01*
X113335500Y-118317060D01*
X113335499Y-118317052D01*
X113335404Y-118314622D01*
X113336590Y-118314575D01*
X113349967Y-118250654D01*
X113398979Y-118200860D01*
X113467133Y-118185468D01*
X113532788Y-118209366D01*
X113546947Y-118221537D01*
X113598181Y-118272771D01*
X113631666Y-118334094D01*
X113634500Y-118360452D01*
X113634500Y-118742947D01*
X113637390Y-118779673D01*
X113637391Y-118779679D01*
X113683066Y-118936892D01*
X113683068Y-118936895D01*
X113683069Y-118936897D01*
X113710946Y-118984034D01*
X113766408Y-119077817D01*
X113766414Y-119077825D01*
X113882174Y-119193585D01*
X113882185Y-119193594D01*
X113985275Y-119254560D01*
X114032959Y-119305628D01*
X114045463Y-119374370D01*
X114018818Y-119438960D01*
X114009837Y-119448973D01*
X113919659Y-119539151D01*
X113829093Y-119685981D01*
X113829091Y-119685986D01*
X113824282Y-119700499D01*
X113774826Y-119849747D01*
X113774826Y-119849748D01*
X113774825Y-119849748D01*
X113764500Y-119950815D01*
X113764500Y-120649169D01*
X113764501Y-120649187D01*
X113774825Y-120750252D01*
X113829092Y-120914015D01*
X113829093Y-120914018D01*
X113852574Y-120952086D01*
X113919659Y-121060849D01*
X113919661Y-121060851D01*
X113933983Y-121075173D01*
X113967468Y-121136496D01*
X113962484Y-121206188D01*
X113933986Y-121250533D01*
X113920052Y-121264467D01*
X113829551Y-121411190D01*
X113829546Y-121411201D01*
X113775319Y-121574849D01*
X113765000Y-121675847D01*
X113765000Y-121775002D01*
X115714999Y-121775002D01*
X115714999Y-121675862D01*
X115714998Y-121675847D01*
X115704680Y-121574849D01*
X115650453Y-121411201D01*
X115650448Y-121411190D01*
X115559947Y-121264467D01*
X115559944Y-121264463D01*
X115546016Y-121250535D01*
X115512531Y-121189212D01*
X115517515Y-121119520D01*
X115546016Y-121075173D01*
X115560340Y-121060850D01*
X115650908Y-120914016D01*
X115705174Y-120750253D01*
X115715500Y-120649177D01*
X115715500Y-120411654D01*
X116125001Y-120411654D01*
X116135319Y-120512652D01*
X116189546Y-120676300D01*
X116189551Y-120676311D01*
X116280052Y-120823034D01*
X116280055Y-120823038D01*
X116401961Y-120944944D01*
X116401965Y-120944947D01*
X116548688Y-121035448D01*
X116548699Y-121035453D01*
X116712347Y-121089680D01*
X116813352Y-121099999D01*
X116850000Y-121099999D01*
X117350000Y-121099999D01*
X117386640Y-121099999D01*
X117386654Y-121099998D01*
X117487652Y-121089680D01*
X117651300Y-121035453D01*
X117651311Y-121035448D01*
X117798034Y-120944947D01*
X117798038Y-120944944D01*
X117919944Y-120823038D01*
X117919947Y-120823034D01*
X118010448Y-120676311D01*
X118010453Y-120676300D01*
X118031874Y-120611654D01*
X127025001Y-120611654D01*
X127035319Y-120712652D01*
X127089546Y-120876300D01*
X127089551Y-120876311D01*
X127180052Y-121023034D01*
X127180055Y-121023038D01*
X127301961Y-121144944D01*
X127301965Y-121144947D01*
X127448688Y-121235448D01*
X127448699Y-121235453D01*
X127612347Y-121289680D01*
X127713352Y-121299999D01*
X127750000Y-121299999D01*
X127750000Y-120562500D01*
X127025001Y-120562500D01*
X127025001Y-120611654D01*
X118031874Y-120611654D01*
X118064680Y-120512652D01*
X118074999Y-120411654D01*
X118075000Y-120411641D01*
X118075000Y-120362500D01*
X117350000Y-120362500D01*
X117350000Y-121099999D01*
X116850000Y-121099999D01*
X116850000Y-120362500D01*
X116125001Y-120362500D01*
X116125001Y-120411654D01*
X115715500Y-120411654D01*
X115715499Y-119950824D01*
X115715393Y-119949790D01*
X115708944Y-119886654D01*
X120900000Y-119886654D01*
X120910318Y-119987652D01*
X120964545Y-120151300D01*
X120964550Y-120151311D01*
X121055051Y-120298034D01*
X121055054Y-120298038D01*
X121176960Y-120419944D01*
X121176964Y-120419947D01*
X121323687Y-120510448D01*
X121323698Y-120510453D01*
X121487346Y-120564680D01*
X121588350Y-120574999D01*
X121687499Y-120574998D01*
X121687499Y-119850000D01*
X120900000Y-119850000D01*
X120900000Y-119886654D01*
X115708944Y-119886654D01*
X115705174Y-119849747D01*
X115700147Y-119834576D01*
X115650908Y-119685984D01*
X115560340Y-119539150D01*
X115470163Y-119448973D01*
X115436678Y-119387650D01*
X115441662Y-119317958D01*
X115483534Y-119262025D01*
X115494706Y-119254570D01*
X115597820Y-119193590D01*
X115713590Y-119077820D01*
X115796931Y-118936897D01*
X115796932Y-118936893D01*
X115796933Y-118936892D01*
X115842608Y-118779679D01*
X115842609Y-118779673D01*
X115842610Y-118779657D01*
X115845500Y-118742940D01*
X115845500Y-118317060D01*
X115842609Y-118280325D01*
X115842608Y-118280320D01*
X115796933Y-118123107D01*
X115796931Y-118123104D01*
X115796931Y-118123103D01*
X115713590Y-117982180D01*
X115713588Y-117982178D01*
X115713585Y-117982174D01*
X115597825Y-117866414D01*
X115597817Y-117866408D01*
X115495418Y-117805850D01*
X115456897Y-117783069D01*
X115456896Y-117783068D01*
X115456895Y-117783068D01*
X115456892Y-117783066D01*
X115299679Y-117737391D01*
X115299673Y-117737390D01*
X115262947Y-117734500D01*
X115262940Y-117734500D01*
X114880452Y-117734500D01*
X114813413Y-117714815D01*
X114792771Y-117698181D01*
X114731771Y-117637181D01*
X114698286Y-117575858D01*
X114703270Y-117506166D01*
X114745142Y-117450233D01*
X114810606Y-117425816D01*
X114819452Y-117425500D01*
X115262932Y-117425500D01*
X115262940Y-117425500D01*
X115299675Y-117422609D01*
X115299677Y-117422608D01*
X115299679Y-117422608D01*
X115456892Y-117376933D01*
X115456893Y-117376932D01*
X115456897Y-117376931D01*
X115597820Y-117293590D01*
X115603411Y-117287999D01*
X115624592Y-117266819D01*
X115685915Y-117233334D01*
X115712273Y-117230500D01*
X116153183Y-117230500D01*
X116220222Y-117250185D01*
X116258722Y-117289404D01*
X116279659Y-117323349D01*
X116318629Y-117362319D01*
X116352114Y-117423642D01*
X116347130Y-117493334D01*
X116318629Y-117537681D01*
X116279661Y-117576648D01*
X116189093Y-117723481D01*
X116189091Y-117723486D01*
X116172471Y-117773643D01*
X116134826Y-117887247D01*
X116134826Y-117887248D01*
X116134825Y-117887248D01*
X116124500Y-117988315D01*
X116124500Y-118586669D01*
X116124501Y-118586687D01*
X116134825Y-118687752D01*
X116163902Y-118775498D01*
X116189090Y-118851511D01*
X116189092Y-118851515D01*
X116189093Y-118851518D01*
X116211439Y-118887746D01*
X116260886Y-118967913D01*
X116279661Y-118998351D01*
X116393982Y-119112672D01*
X116427467Y-119173995D01*
X116422483Y-119243687D01*
X116393983Y-119288034D01*
X116280052Y-119401965D01*
X116189551Y-119548688D01*
X116189546Y-119548699D01*
X116135319Y-119712347D01*
X116125000Y-119813345D01*
X116125000Y-119862500D01*
X118074999Y-119862500D01*
X118074999Y-119813360D01*
X118074998Y-119813345D01*
X118064680Y-119712347D01*
X118010453Y-119548699D01*
X118010448Y-119548688D01*
X117919947Y-119401965D01*
X117919944Y-119401961D01*
X117806017Y-119288034D01*
X117772532Y-119226711D01*
X117777516Y-119157019D01*
X117806013Y-119112676D01*
X117920340Y-118998350D01*
X118010908Y-118851516D01*
X118031563Y-118789183D01*
X118071334Y-118731739D01*
X118135850Y-118704916D01*
X118199152Y-118716250D01*
X118199359Y-118715697D01*
X118202406Y-118716833D01*
X118204626Y-118717231D01*
X118207506Y-118718735D01*
X118207668Y-118718795D01*
X118207669Y-118718796D01*
X118342517Y-118769091D01*
X118342516Y-118769091D01*
X118349444Y-118769835D01*
X118402127Y-118775500D01*
X120910882Y-118775499D01*
X120977920Y-118795184D01*
X121023675Y-118847987D01*
X121033619Y-118917146D01*
X121016420Y-118964595D01*
X120964549Y-119048690D01*
X120964545Y-119048699D01*
X120910318Y-119212347D01*
X120899999Y-119313345D01*
X120899999Y-119350000D01*
X122063499Y-119350000D01*
X122130538Y-119369685D01*
X122176293Y-119422489D01*
X122187499Y-119474000D01*
X122187499Y-120574999D01*
X122286639Y-120574999D01*
X122286653Y-120574998D01*
X122387651Y-120564680D01*
X122551299Y-120510453D01*
X122551310Y-120510448D01*
X122698034Y-120419947D01*
X122711960Y-120406020D01*
X122773282Y-120372532D01*
X122842973Y-120377513D01*
X122887327Y-120406016D01*
X122901651Y-120420340D01*
X123048485Y-120510908D01*
X123212248Y-120565174D01*
X123313324Y-120575500D01*
X124011677Y-120575499D01*
X124011685Y-120575498D01*
X124011688Y-120575498D01*
X124067031Y-120569844D01*
X124112754Y-120565174D01*
X124276517Y-120510908D01*
X124423351Y-120420340D01*
X124545341Y-120298350D01*
X124635909Y-120151516D01*
X124690175Y-119987753D01*
X124700501Y-119886677D01*
X124700500Y-119313324D01*
X124699781Y-119306290D01*
X124690175Y-119212247D01*
X124689731Y-119210908D01*
X124635909Y-119048484D01*
X124545341Y-118901650D01*
X124423351Y-118779660D01*
X124423348Y-118779657D01*
X124384401Y-118755634D01*
X124337678Y-118703686D01*
X124325500Y-118650097D01*
X124325500Y-118224500D01*
X124345185Y-118157461D01*
X124397989Y-118111706D01*
X124449500Y-118100500D01*
X124648432Y-118100500D01*
X124715471Y-118120185D01*
X124736113Y-118136819D01*
X126238668Y-119639374D01*
X126238678Y-119639385D01*
X126243008Y-119643715D01*
X126243009Y-119643716D01*
X126354813Y-119755520D01*
X126422814Y-119794780D01*
X126491744Y-119834577D01*
X126644472Y-119875500D01*
X126802586Y-119875500D01*
X126901770Y-119875500D01*
X126968809Y-119895185D01*
X127014564Y-119947989D01*
X127024808Y-120010178D01*
X127025161Y-120010196D01*
X127025078Y-120011818D01*
X127025127Y-120012114D01*
X127025000Y-120013353D01*
X127025000Y-120062500D01*
X128050499Y-120062500D01*
X128117538Y-120082185D01*
X128163293Y-120134989D01*
X128174499Y-120186500D01*
X128174499Y-120302583D01*
X128174498Y-120302583D01*
X128187055Y-120349444D01*
X128215423Y-120455314D01*
X128226439Y-120474394D01*
X128233387Y-120486428D01*
X128250000Y-120548428D01*
X128250000Y-121299999D01*
X128286640Y-121299999D01*
X128286654Y-121299998D01*
X128387652Y-121289680D01*
X128551300Y-121235453D01*
X128551311Y-121235448D01*
X128704185Y-121141154D01*
X128705460Y-121143221D01*
X128759540Y-121121395D01*
X128828184Y-121134425D01*
X128859355Y-121157119D01*
X129741610Y-122039374D01*
X129741620Y-122039385D01*
X129745950Y-122043715D01*
X129745951Y-122043716D01*
X129857755Y-122155520D01*
X129943839Y-122205220D01*
X129994686Y-122234577D01*
X130147414Y-122275501D01*
X130147417Y-122275501D01*
X130313124Y-122275501D01*
X130313140Y-122275500D01*
X132375501Y-122275500D01*
X132442540Y-122295185D01*
X132488295Y-122347989D01*
X132499501Y-122399500D01*
X132499501Y-122572876D01*
X132505908Y-122632483D01*
X132556202Y-122767328D01*
X132556204Y-122767331D01*
X132581550Y-122801189D01*
X132605967Y-122866654D01*
X132591115Y-122934926D01*
X132541710Y-122984332D01*
X132482283Y-122999500D01*
X115645347Y-122999500D01*
X115578308Y-122979815D01*
X115532553Y-122927011D01*
X115522609Y-122857853D01*
X115551634Y-122794297D01*
X115557666Y-122787819D01*
X115559944Y-122785540D01*
X115559947Y-122785536D01*
X115650448Y-122638813D01*
X115650453Y-122638802D01*
X115704680Y-122475154D01*
X115714999Y-122374156D01*
X115715000Y-122374143D01*
X115715000Y-122275002D01*
X113765001Y-122275002D01*
X113765001Y-122374156D01*
X113775319Y-122475154D01*
X113829546Y-122638802D01*
X113829551Y-122638813D01*
X113920052Y-122785536D01*
X113920055Y-122785540D01*
X113922334Y-122787819D01*
X113923398Y-122789767D01*
X113924533Y-122791203D01*
X113924287Y-122791396D01*
X113955819Y-122849142D01*
X113950835Y-122918834D01*
X113908963Y-122974767D01*
X113843499Y-122999184D01*
X113834653Y-122999500D01*
X107348238Y-122999500D01*
X107281199Y-122979815D01*
X107235444Y-122927011D01*
X107225500Y-122857853D01*
X107254525Y-122794297D01*
X107277114Y-122773925D01*
X107471082Y-122638105D01*
X107638105Y-122471082D01*
X107773600Y-122277578D01*
X107873429Y-122063492D01*
X107873432Y-122063486D01*
X107930636Y-121850000D01*
X107033012Y-121850000D01*
X107065925Y-121792993D01*
X107100000Y-121665826D01*
X107100000Y-121534174D01*
X107065925Y-121407007D01*
X107033012Y-121350000D01*
X107930636Y-121350000D01*
X107930635Y-121349999D01*
X107873432Y-121136513D01*
X107873429Y-121136507D01*
X107773600Y-120922422D01*
X107773599Y-120922420D01*
X107638113Y-120728926D01*
X107638108Y-120728920D01*
X107471082Y-120561894D01*
X107277578Y-120426399D01*
X107063492Y-120326570D01*
X107063486Y-120326567D01*
X106850000Y-120269364D01*
X106850000Y-121166988D01*
X106792993Y-121134075D01*
X106665826Y-121100000D01*
X106534174Y-121100000D01*
X106407007Y-121134075D01*
X106350000Y-121166988D01*
X106350000Y-120269364D01*
X106349999Y-120269364D01*
X106136513Y-120326567D01*
X106136507Y-120326570D01*
X105922422Y-120426399D01*
X105922420Y-120426400D01*
X105728926Y-120561886D01*
X105606865Y-120683947D01*
X105545542Y-120717431D01*
X105475850Y-120712447D01*
X105419917Y-120670575D01*
X105403002Y-120639598D01*
X105401993Y-120636894D01*
X105368998Y-120548428D01*
X105353797Y-120507671D01*
X105353793Y-120507664D01*
X105267547Y-120392455D01*
X105267544Y-120392452D01*
X105152335Y-120306206D01*
X105152328Y-120306202D01*
X105017482Y-120255908D01*
X105017483Y-120255908D01*
X104957883Y-120249501D01*
X104957881Y-120249500D01*
X104957873Y-120249500D01*
X104957864Y-120249500D01*
X103162129Y-120249500D01*
X103162123Y-120249501D01*
X103102516Y-120255908D01*
X102967671Y-120306202D01*
X102967668Y-120306204D01*
X102898811Y-120357751D01*
X102833347Y-120382168D01*
X102765074Y-120367316D01*
X102715668Y-120317911D01*
X102700500Y-120258484D01*
X102700500Y-114413345D01*
X109000000Y-114413345D01*
X109000000Y-114450000D01*
X109787500Y-114450000D01*
X109787500Y-113724999D01*
X109688360Y-113725000D01*
X109688344Y-113725001D01*
X109587347Y-113735319D01*
X109423699Y-113789546D01*
X109423688Y-113789551D01*
X109276965Y-113880052D01*
X109276961Y-113880055D01*
X109155055Y-114001961D01*
X109155052Y-114001965D01*
X109064551Y-114148688D01*
X109064546Y-114148699D01*
X109010319Y-114312347D01*
X109000000Y-114413345D01*
X102700500Y-114413345D01*
X102700500Y-111264442D01*
X102720185Y-111197403D01*
X102772989Y-111151648D01*
X102842147Y-111141704D01*
X102905032Y-111170152D01*
X102961897Y-111218720D01*
X102961899Y-111218721D01*
X103179984Y-111352363D01*
X103179987Y-111352365D01*
X103416297Y-111450247D01*
X103665011Y-111509957D01*
X103665010Y-111509957D01*
X103920000Y-111530024D01*
X104174989Y-111509957D01*
X104423702Y-111450247D01*
X104660012Y-111352365D01*
X104660015Y-111352363D01*
X104878095Y-111218724D01*
X104878110Y-111218713D01*
X104881911Y-111215466D01*
X104881911Y-111215464D01*
X104320561Y-110654114D01*
X104322626Y-110653260D01*
X104461844Y-110560238D01*
X104580238Y-110441844D01*
X104673260Y-110302626D01*
X104674114Y-110300562D01*
X105235464Y-110861911D01*
X105235466Y-110861911D01*
X105238713Y-110858110D01*
X105238724Y-110858095D01*
X105372363Y-110640015D01*
X105372365Y-110640012D01*
X105470247Y-110403702D01*
X105529957Y-110154989D01*
X105550024Y-109900000D01*
X105529957Y-109645010D01*
X105470247Y-109396297D01*
X105372365Y-109159987D01*
X105372363Y-109159984D01*
X105238719Y-108941897D01*
X105235465Y-108938087D01*
X104674114Y-109499437D01*
X104673260Y-109497374D01*
X104580238Y-109358156D01*
X104461844Y-109239762D01*
X104322626Y-109146740D01*
X104320561Y-109145884D01*
X104881912Y-108584533D01*
X104878107Y-108581284D01*
X104878098Y-108581277D01*
X104660015Y-108447636D01*
X104660012Y-108447634D01*
X104423702Y-108349752D01*
X104174988Y-108290042D01*
X104174989Y-108290042D01*
X103920000Y-108269975D01*
X103665010Y-108290042D01*
X103416297Y-108349752D01*
X103179987Y-108447634D01*
X103179984Y-108447636D01*
X102961899Y-108581278D01*
X102961898Y-108581279D01*
X102905031Y-108629848D01*
X102841269Y-108658418D01*
X102772183Y-108647980D01*
X102719708Y-108601849D01*
X102700500Y-108535557D01*
X102700500Y-106184442D01*
X102720185Y-106117403D01*
X102772989Y-106071648D01*
X102842147Y-106061704D01*
X102905032Y-106090152D01*
X102961897Y-106138720D01*
X102961899Y-106138721D01*
X103179984Y-106272363D01*
X103179987Y-106272365D01*
X103416297Y-106370247D01*
X103665011Y-106429957D01*
X103665010Y-106429957D01*
X103920000Y-106450024D01*
X104174989Y-106429957D01*
X104423702Y-106370247D01*
X104660012Y-106272365D01*
X104660015Y-106272363D01*
X104878095Y-106138724D01*
X104878110Y-106138713D01*
X104881911Y-106135466D01*
X104881911Y-106135464D01*
X104320561Y-105574114D01*
X104322626Y-105573260D01*
X104461844Y-105480238D01*
X104580238Y-105361844D01*
X104673260Y-105222626D01*
X104674114Y-105220561D01*
X105235464Y-105781911D01*
X105235466Y-105781911D01*
X105238713Y-105778110D01*
X105238724Y-105778095D01*
X105372363Y-105560015D01*
X105372365Y-105560012D01*
X105470247Y-105323702D01*
X105529957Y-105074989D01*
X105550024Y-104820000D01*
X107369975Y-104820000D01*
X107390042Y-105074989D01*
X107449752Y-105323702D01*
X107547634Y-105560012D01*
X107547636Y-105560015D01*
X107681277Y-105778098D01*
X107681284Y-105778107D01*
X107684533Y-105781912D01*
X108245884Y-105220560D01*
X108246740Y-105222626D01*
X108339762Y-105361844D01*
X108458156Y-105480238D01*
X108597374Y-105573260D01*
X108599437Y-105574114D01*
X108038087Y-106135465D01*
X108041897Y-106138719D01*
X108259984Y-106272363D01*
X108259987Y-106272365D01*
X108496297Y-106370247D01*
X108745011Y-106429957D01*
X108745010Y-106429957D01*
X109000000Y-106450024D01*
X109254989Y-106429957D01*
X109503702Y-106370247D01*
X109740012Y-106272365D01*
X109740015Y-106272363D01*
X109958095Y-106138724D01*
X109958110Y-106138713D01*
X109961911Y-106135466D01*
X109961911Y-106135464D01*
X109400562Y-105574114D01*
X109402626Y-105573260D01*
X109541844Y-105480238D01*
X109660238Y-105361844D01*
X109753260Y-105222626D01*
X109754114Y-105220562D01*
X110315464Y-105781911D01*
X110315466Y-105781911D01*
X110318713Y-105778110D01*
X110318724Y-105778095D01*
X110452363Y-105560015D01*
X110452365Y-105560012D01*
X110550247Y-105323702D01*
X110609957Y-105074989D01*
X110630024Y-104820000D01*
X110609957Y-104565010D01*
X110550247Y-104316297D01*
X110452365Y-104079987D01*
X110452363Y-104079984D01*
X110318719Y-103861897D01*
X110315465Y-103858087D01*
X109754114Y-104419437D01*
X109753260Y-104417374D01*
X109660238Y-104278156D01*
X109541844Y-104159762D01*
X109402626Y-104066740D01*
X109400561Y-104065884D01*
X109961912Y-103504533D01*
X109958107Y-103501284D01*
X109958098Y-103501277D01*
X109740015Y-103367636D01*
X109740012Y-103367634D01*
X109503702Y-103269752D01*
X109254988Y-103210042D01*
X109254989Y-103210042D01*
X109000000Y-103189975D01*
X108745010Y-103210042D01*
X108496297Y-103269752D01*
X108259987Y-103367634D01*
X108259984Y-103367636D01*
X108041893Y-103501282D01*
X108038086Y-103504532D01*
X108599438Y-104065884D01*
X108597374Y-104066740D01*
X108458156Y-104159762D01*
X108339762Y-104278156D01*
X108246740Y-104417374D01*
X108245884Y-104419438D01*
X107684532Y-103858086D01*
X107681282Y-103861893D01*
X107547636Y-104079984D01*
X107547634Y-104079987D01*
X107449752Y-104316297D01*
X107390042Y-104565010D01*
X107369975Y-104820000D01*
X105550024Y-104820000D01*
X105529957Y-104565010D01*
X105470247Y-104316297D01*
X105372365Y-104079987D01*
X105372363Y-104079984D01*
X105238719Y-103861897D01*
X105235465Y-103858087D01*
X104674114Y-104419437D01*
X104673260Y-104417374D01*
X104580238Y-104278156D01*
X104461844Y-104159762D01*
X104322626Y-104066740D01*
X104320561Y-104065884D01*
X104881912Y-103504533D01*
X104878107Y-103501284D01*
X104878098Y-103501277D01*
X104660015Y-103367636D01*
X104660012Y-103367634D01*
X104423702Y-103269752D01*
X104174988Y-103210042D01*
X104174989Y-103210042D01*
X103920000Y-103189975D01*
X103665010Y-103210042D01*
X103416297Y-103269752D01*
X103179987Y-103367634D01*
X103179984Y-103367636D01*
X102961899Y-103501278D01*
X102961898Y-103501279D01*
X102905031Y-103549848D01*
X102841269Y-103578418D01*
X102772183Y-103567980D01*
X102719708Y-103521849D01*
X102700500Y-103455557D01*
X102700500Y-102624500D01*
X102720185Y-102557461D01*
X102772989Y-102511706D01*
X102824500Y-102500500D01*
X115425514Y-102500500D01*
X115492553Y-102520185D01*
X115538308Y-102572989D01*
X115548252Y-102642147D01*
X115543220Y-102663505D01*
X115535318Y-102687348D01*
X115525000Y-102788344D01*
X115525000Y-102887499D01*
X117474999Y-102887499D01*
X117474999Y-102788359D01*
X117474998Y-102788344D01*
X117464681Y-102687348D01*
X117456780Y-102663505D01*
X117454378Y-102593676D01*
X117490109Y-102533634D01*
X117552630Y-102502441D01*
X117574486Y-102500500D01*
X118165890Y-102500500D01*
X118165892Y-102500500D01*
X118293186Y-102466392D01*
X118407314Y-102400500D01*
X118500500Y-102307314D01*
X118566392Y-102193186D01*
X118600500Y-102065892D01*
X118600500Y-99610344D01*
X119262500Y-99610344D01*
X119268901Y-99669872D01*
X119268903Y-99669879D01*
X119319145Y-99804586D01*
X119319149Y-99804593D01*
X119405309Y-99919687D01*
X119405312Y-99919690D01*
X119520406Y-100005850D01*
X119520413Y-100005854D01*
X119655120Y-100056096D01*
X119655127Y-100056098D01*
X119714655Y-100062499D01*
X119714672Y-100062500D01*
X120012500Y-100062500D01*
X120512500Y-100062500D01*
X120810328Y-100062500D01*
X120810344Y-100062499D01*
X120869872Y-100056098D01*
X120869879Y-100056096D01*
X121004586Y-100005854D01*
X121004593Y-100005850D01*
X121119687Y-99919690D01*
X121119690Y-99919687D01*
X121205850Y-99804593D01*
X121205854Y-99804586D01*
X121256096Y-99669879D01*
X121256098Y-99669872D01*
X121262499Y-99610344D01*
X121262500Y-99610327D01*
X121262500Y-98962500D01*
X120512500Y-98962500D01*
X120512500Y-100062500D01*
X120012500Y-100062500D01*
X120012500Y-98962500D01*
X119262500Y-98962500D01*
X119262500Y-99610344D01*
X118600500Y-99610344D01*
X118600500Y-97814655D01*
X119262500Y-97814655D01*
X119262500Y-98462500D01*
X120012500Y-98462500D01*
X120512500Y-98462500D01*
X121262500Y-98462500D01*
X121262500Y-97814672D01*
X121262499Y-97814655D01*
X121256098Y-97755127D01*
X121256096Y-97755120D01*
X121205854Y-97620413D01*
X121205850Y-97620406D01*
X121119690Y-97505312D01*
X121119687Y-97505309D01*
X121004593Y-97419149D01*
X121004586Y-97419145D01*
X120869879Y-97368903D01*
X120869872Y-97368901D01*
X120810344Y-97362500D01*
X120512500Y-97362500D01*
X120512500Y-98462500D01*
X120012500Y-98462500D01*
X120012500Y-97362500D01*
X119714655Y-97362500D01*
X119655127Y-97368901D01*
X119655120Y-97368903D01*
X119520413Y-97419145D01*
X119520406Y-97419149D01*
X119405312Y-97505309D01*
X119405309Y-97505312D01*
X119319149Y-97620406D01*
X119319145Y-97620413D01*
X119268903Y-97755120D01*
X119268901Y-97755127D01*
X119262500Y-97814655D01*
X118600500Y-97814655D01*
X118600500Y-93010344D01*
X119262500Y-93010344D01*
X119268901Y-93069872D01*
X119268903Y-93069879D01*
X119319145Y-93204586D01*
X119319149Y-93204593D01*
X119405309Y-93319687D01*
X119405312Y-93319690D01*
X119520406Y-93405850D01*
X119520413Y-93405854D01*
X119655120Y-93456096D01*
X119655127Y-93456098D01*
X119714655Y-93462499D01*
X119714672Y-93462500D01*
X120012500Y-93462500D01*
X120512500Y-93462500D01*
X120810328Y-93462500D01*
X120810344Y-93462499D01*
X120869872Y-93456098D01*
X120869879Y-93456096D01*
X121004586Y-93405854D01*
X121004593Y-93405850D01*
X121119687Y-93319690D01*
X121119690Y-93319687D01*
X121205850Y-93204593D01*
X121205854Y-93204586D01*
X121256096Y-93069879D01*
X121256098Y-93069872D01*
X121262499Y-93010344D01*
X121262500Y-93010327D01*
X121262500Y-92362500D01*
X120512500Y-92362500D01*
X120512500Y-93462500D01*
X120012500Y-93462500D01*
X120012500Y-92362500D01*
X119262500Y-92362500D01*
X119262500Y-93010344D01*
X118600500Y-93010344D01*
X118600500Y-91214655D01*
X119262500Y-91214655D01*
X119262500Y-91862500D01*
X120012500Y-91862500D01*
X120512500Y-91862500D01*
X121262500Y-91862500D01*
X121262500Y-91214672D01*
X121262499Y-91214655D01*
X121262497Y-91214635D01*
X122962000Y-91214635D01*
X122962000Y-93010370D01*
X122962001Y-93010376D01*
X122968408Y-93069983D01*
X123018702Y-93204828D01*
X123018706Y-93204835D01*
X123104952Y-93320044D01*
X123104955Y-93320047D01*
X123220164Y-93406293D01*
X123220169Y-93406296D01*
X123256332Y-93419784D01*
X123312266Y-93461654D01*
X123336684Y-93527118D01*
X123337000Y-93535966D01*
X123337000Y-97289033D01*
X123317315Y-97356072D01*
X123264511Y-97401827D01*
X123256336Y-97405214D01*
X123220165Y-97418705D01*
X123104955Y-97504952D01*
X123104952Y-97504955D01*
X123018706Y-97620164D01*
X123018702Y-97620171D01*
X122968408Y-97755017D01*
X122962001Y-97814616D01*
X122962000Y-97814635D01*
X122962000Y-99610370D01*
X122962001Y-99610376D01*
X122968408Y-99669983D01*
X123018702Y-99804828D01*
X123018706Y-99804835D01*
X123104952Y-99920044D01*
X123104955Y-99920047D01*
X123220164Y-100006293D01*
X123220169Y-100006296D01*
X123256332Y-100019784D01*
X123312266Y-100061654D01*
X123336684Y-100127118D01*
X123337000Y-100135966D01*
X123337000Y-100224106D01*
X123353682Y-100307977D01*
X123361037Y-100344951D01*
X123408188Y-100458786D01*
X123434628Y-100498355D01*
X123434629Y-100498358D01*
X123434630Y-100498358D01*
X123476641Y-100561233D01*
X123568086Y-100652678D01*
X123568108Y-100652698D01*
X123586287Y-100670877D01*
X123619772Y-100732200D01*
X123621826Y-100744673D01*
X123627130Y-100791749D01*
X123686710Y-100962021D01*
X123750764Y-101063962D01*
X123782684Y-101114762D01*
X123910238Y-101242316D01*
X124062978Y-101338289D01*
X124199994Y-101386233D01*
X124233245Y-101397868D01*
X124233250Y-101397869D01*
X124412496Y-101418065D01*
X124412500Y-101418065D01*
X124412504Y-101418065D01*
X124591749Y-101397869D01*
X124591752Y-101397868D01*
X124591755Y-101397868D01*
X124762022Y-101338289D01*
X124914762Y-101242316D01*
X125042316Y-101114762D01*
X125138289Y-100962022D01*
X125176733Y-100852155D01*
X125800000Y-100852155D01*
X125800000Y-101250000D01*
X126750000Y-101250000D01*
X126750000Y-100400000D01*
X126252155Y-100400000D01*
X126192627Y-100406401D01*
X126192620Y-100406403D01*
X126057913Y-100456645D01*
X126057906Y-100456649D01*
X125942812Y-100542809D01*
X125942809Y-100542812D01*
X125856649Y-100657906D01*
X125856645Y-100657913D01*
X125806403Y-100792620D01*
X125806401Y-100792627D01*
X125800000Y-100852155D01*
X125176733Y-100852155D01*
X125197868Y-100791755D01*
X125199521Y-100777086D01*
X125218065Y-100612503D01*
X125218065Y-100612496D01*
X125197869Y-100433250D01*
X125197868Y-100433245D01*
X125168978Y-100350682D01*
X125138289Y-100262978D01*
X125136783Y-100260582D01*
X125058482Y-100135966D01*
X125042316Y-100110238D01*
X124914762Y-99982684D01*
X124909838Y-99977760D01*
X124912062Y-99975535D01*
X124879915Y-99929584D01*
X124877172Y-99859769D01*
X124898163Y-99815695D01*
X124906296Y-99804831D01*
X124956591Y-99669983D01*
X124956591Y-99669981D01*
X124958374Y-99662438D01*
X124960202Y-99662870D01*
X124983092Y-99607603D01*
X125040482Y-99567752D01*
X125110308Y-99565255D01*
X125170398Y-99600905D01*
X125195829Y-99642072D01*
X125219145Y-99704586D01*
X125219149Y-99704593D01*
X125305309Y-99819687D01*
X125305312Y-99819690D01*
X125420406Y-99905850D01*
X125420413Y-99905854D01*
X125555120Y-99956096D01*
X125555127Y-99956098D01*
X125614655Y-99962499D01*
X125614672Y-99962500D01*
X125912500Y-99962500D01*
X126412500Y-99962500D01*
X126710328Y-99962500D01*
X126710344Y-99962499D01*
X126769872Y-99956098D01*
X126769879Y-99956096D01*
X126904586Y-99905854D01*
X126904593Y-99905850D01*
X127019687Y-99819690D01*
X127019690Y-99819687D01*
X127105850Y-99704593D01*
X127105854Y-99704586D01*
X127156096Y-99569879D01*
X127156098Y-99569872D01*
X127162499Y-99510344D01*
X127162500Y-99510327D01*
X127162500Y-98862500D01*
X126412500Y-98862500D01*
X126412500Y-99962500D01*
X125912500Y-99962500D01*
X125912500Y-98362500D01*
X126412500Y-98362500D01*
X127162500Y-98362500D01*
X127162500Y-97714672D01*
X127162499Y-97714655D01*
X127156098Y-97655127D01*
X127156096Y-97655120D01*
X127105854Y-97520413D01*
X127105850Y-97520406D01*
X127019690Y-97405312D01*
X127019687Y-97405309D01*
X126904593Y-97319149D01*
X126904586Y-97319145D01*
X126769879Y-97268903D01*
X126769872Y-97268901D01*
X126710344Y-97262500D01*
X126412500Y-97262500D01*
X126412500Y-98362500D01*
X125912500Y-98362500D01*
X125912500Y-97262500D01*
X125614655Y-97262500D01*
X125555127Y-97268901D01*
X125555120Y-97268903D01*
X125420413Y-97319145D01*
X125420406Y-97319149D01*
X125305312Y-97405309D01*
X125305309Y-97405312D01*
X125219149Y-97520406D01*
X125219145Y-97520413D01*
X125168903Y-97655120D01*
X125167120Y-97662668D01*
X125165248Y-97662225D01*
X125142403Y-97717355D01*
X125085005Y-97757195D01*
X125015179Y-97759679D01*
X124955096Y-97724017D01*
X124929681Y-97682867D01*
X124906298Y-97620173D01*
X124906293Y-97620164D01*
X124820047Y-97504955D01*
X124820044Y-97504952D01*
X124704834Y-97418705D01*
X124668664Y-97405214D01*
X124612731Y-97363341D01*
X124588316Y-97297876D01*
X124588000Y-97289033D01*
X124588000Y-93535966D01*
X124607685Y-93468927D01*
X124660489Y-93423172D01*
X124668656Y-93419788D01*
X124704831Y-93406296D01*
X124820046Y-93320046D01*
X124906296Y-93204831D01*
X124956591Y-93069983D01*
X124956591Y-93069981D01*
X124958374Y-93062438D01*
X124960202Y-93062870D01*
X124983092Y-93007603D01*
X125040482Y-92967752D01*
X125110308Y-92965255D01*
X125170398Y-93000905D01*
X125195829Y-93042072D01*
X125219145Y-93104586D01*
X125219149Y-93104593D01*
X125305309Y-93219687D01*
X125305312Y-93219690D01*
X125420406Y-93305850D01*
X125420413Y-93305854D01*
X125555120Y-93356096D01*
X125555127Y-93356098D01*
X125614655Y-93362499D01*
X125614672Y-93362500D01*
X125912500Y-93362500D01*
X126412500Y-93362500D01*
X126710328Y-93362500D01*
X126710344Y-93362499D01*
X126769872Y-93356098D01*
X126769879Y-93356096D01*
X126904586Y-93305854D01*
X126904593Y-93305850D01*
X127019687Y-93219690D01*
X127019690Y-93219687D01*
X127105850Y-93104593D01*
X127105854Y-93104586D01*
X127156096Y-92969879D01*
X127156098Y-92969872D01*
X127162499Y-92910344D01*
X127162500Y-92910327D01*
X127162500Y-92262500D01*
X126412500Y-92262500D01*
X126412500Y-93362500D01*
X125912500Y-93362500D01*
X125912500Y-91762500D01*
X126412500Y-91762500D01*
X127162500Y-91762500D01*
X127162500Y-91114672D01*
X127162499Y-91114655D01*
X127156098Y-91055127D01*
X127156096Y-91055120D01*
X127105854Y-90920413D01*
X127105850Y-90920406D01*
X127019690Y-90805312D01*
X127019687Y-90805309D01*
X126904593Y-90719149D01*
X126904586Y-90719145D01*
X126769879Y-90668903D01*
X126769872Y-90668901D01*
X126710344Y-90662500D01*
X126412500Y-90662500D01*
X126412500Y-91762500D01*
X125912500Y-91762500D01*
X125912500Y-90662500D01*
X125614655Y-90662500D01*
X125555127Y-90668901D01*
X125555120Y-90668903D01*
X125420413Y-90719145D01*
X125420406Y-90719149D01*
X125305312Y-90805309D01*
X125305309Y-90805312D01*
X125219149Y-90920406D01*
X125219145Y-90920413D01*
X125168903Y-91055120D01*
X125167120Y-91062668D01*
X125165248Y-91062225D01*
X125142403Y-91117355D01*
X125085005Y-91157195D01*
X125015179Y-91159679D01*
X124955096Y-91124017D01*
X124929681Y-91082867D01*
X124906298Y-91020173D01*
X124906293Y-91020164D01*
X124820047Y-90904955D01*
X124820044Y-90904952D01*
X124704835Y-90818706D01*
X124704828Y-90818702D01*
X124569982Y-90768408D01*
X124569983Y-90768408D01*
X124510383Y-90762001D01*
X124510381Y-90762000D01*
X124510373Y-90762000D01*
X124510364Y-90762000D01*
X123414629Y-90762000D01*
X123414623Y-90762001D01*
X123355016Y-90768408D01*
X123220171Y-90818702D01*
X123220164Y-90818706D01*
X123104955Y-90904952D01*
X123104952Y-90904955D01*
X123018706Y-91020164D01*
X123018702Y-91020171D01*
X122968408Y-91155017D01*
X122962001Y-91214616D01*
X122962000Y-91214635D01*
X121262497Y-91214635D01*
X121256098Y-91155127D01*
X121256096Y-91155120D01*
X121205854Y-91020413D01*
X121205850Y-91020406D01*
X121119690Y-90905312D01*
X121119687Y-90905309D01*
X121004593Y-90819149D01*
X121004586Y-90819145D01*
X120869879Y-90768903D01*
X120869872Y-90768901D01*
X120810344Y-90762500D01*
X120512500Y-90762500D01*
X120512500Y-91862500D01*
X120012500Y-91862500D01*
X120012500Y-90762500D01*
X119714655Y-90762500D01*
X119655127Y-90768901D01*
X119655120Y-90768903D01*
X119520413Y-90819145D01*
X119520406Y-90819149D01*
X119405312Y-90905309D01*
X119405309Y-90905312D01*
X119319149Y-91020406D01*
X119319145Y-91020413D01*
X119268903Y-91155120D01*
X119268901Y-91155127D01*
X119262500Y-91214655D01*
X118600500Y-91214655D01*
X118600500Y-89124500D01*
X118620185Y-89057461D01*
X118672989Y-89011706D01*
X118724500Y-89000500D01*
X181375500Y-89000500D01*
X181442539Y-89020185D01*
G37*
%TD.AperFunction*%
%TA.AperFunction,Conductor*%
G36*
X161584851Y-99117685D02*
G01*
X161630606Y-99170489D01*
X161640550Y-99239647D01*
X161634853Y-99262955D01*
X161614633Y-99320737D01*
X161614630Y-99320750D01*
X161594435Y-99499996D01*
X161594435Y-99500003D01*
X161614630Y-99679249D01*
X161614631Y-99679254D01*
X161674211Y-99849523D01*
X161753390Y-99975535D01*
X161770184Y-100002262D01*
X161897738Y-100129816D01*
X161932277Y-100151518D01*
X162047799Y-100224106D01*
X162050478Y-100225789D01*
X162220745Y-100285368D01*
X162267823Y-100290672D01*
X162332236Y-100317737D01*
X162341621Y-100326211D01*
X162963763Y-100948355D01*
X162963767Y-100948358D01*
X163066210Y-101016809D01*
X163066211Y-101016809D01*
X163066215Y-101016812D01*
X163132896Y-101044431D01*
X163132898Y-101044433D01*
X163180043Y-101063961D01*
X163180048Y-101063963D01*
X163200097Y-101067951D01*
X163233696Y-101074634D01*
X163300892Y-101088001D01*
X163300894Y-101088001D01*
X163430221Y-101088001D01*
X163430241Y-101088000D01*
X164752048Y-101088000D01*
X164819087Y-101107685D01*
X164839729Y-101124319D01*
X164963181Y-101247771D01*
X164996666Y-101309094D01*
X164999500Y-101335452D01*
X164999500Y-102802726D01*
X165023535Y-102923560D01*
X165023537Y-102923568D01*
X165024501Y-102925895D01*
X165037347Y-102956908D01*
X165037347Y-102956909D01*
X165070685Y-103037397D01*
X165070687Y-103037401D01*
X165086764Y-103061460D01*
X165103066Y-103085857D01*
X165127009Y-103121691D01*
X165139143Y-103139851D01*
X165230586Y-103231294D01*
X165230608Y-103231314D01*
X165427373Y-103428079D01*
X165460858Y-103489402D01*
X165455874Y-103559094D01*
X165427373Y-103603441D01*
X165383769Y-103647045D01*
X165383766Y-103647048D01*
X165340203Y-103690610D01*
X165296641Y-103734172D01*
X165269958Y-103774107D01*
X165269957Y-103774108D01*
X165228189Y-103836614D01*
X165228187Y-103836619D01*
X165205349Y-103891754D01*
X165205350Y-103891755D01*
X165181035Y-103950455D01*
X165181034Y-103950461D01*
X165156999Y-104071295D01*
X165156999Y-104799110D01*
X165167299Y-104850891D01*
X165167299Y-104850892D01*
X165181034Y-104919944D01*
X165181037Y-104919954D01*
X165188705Y-104938466D01*
X165228183Y-105033777D01*
X165228186Y-105033784D01*
X165242820Y-105055683D01*
X165242821Y-105055685D01*
X165296640Y-105136232D01*
X165388085Y-105227677D01*
X165388107Y-105227697D01*
X165570681Y-105410271D01*
X165604166Y-105471594D01*
X165607000Y-105497952D01*
X165607000Y-105596271D01*
X165639682Y-105760574D01*
X165639685Y-105760586D01*
X165677369Y-105851564D01*
X165684838Y-105921033D01*
X165653562Y-105983512D01*
X165593473Y-106019164D01*
X165576692Y-106022236D01*
X165533249Y-106027130D01*
X165533245Y-106027131D01*
X165362976Y-106086711D01*
X165210237Y-106182684D01*
X165082684Y-106310237D01*
X164986711Y-106462976D01*
X164927131Y-106633245D01*
X164927130Y-106633250D01*
X164906935Y-106812496D01*
X164906935Y-106812503D01*
X164927130Y-106991749D01*
X164927131Y-106991754D01*
X164986711Y-107162023D01*
X165056280Y-107272741D01*
X165082684Y-107314762D01*
X165210238Y-107442316D01*
X165274485Y-107482685D01*
X165358521Y-107535489D01*
X165362978Y-107538289D01*
X165499731Y-107586141D01*
X165533245Y-107597868D01*
X165533250Y-107597869D01*
X165712496Y-107618065D01*
X165712500Y-107618065D01*
X165712504Y-107618065D01*
X165891749Y-107597869D01*
X165891752Y-107597868D01*
X165891755Y-107597868D01*
X166062022Y-107538289D01*
X166066479Y-107535489D01*
X166150515Y-107482685D01*
X166186207Y-107460257D01*
X166253444Y-107441257D01*
X166276371Y-107443634D01*
X166332034Y-107454705D01*
X166373730Y-107462999D01*
X166373732Y-107463000D01*
X166373733Y-107463000D01*
X167428047Y-107463000D01*
X167495086Y-107482685D01*
X167540841Y-107535489D01*
X167550785Y-107604647D01*
X167521760Y-107668203D01*
X167515728Y-107674681D01*
X166664727Y-108525681D01*
X166603404Y-108559166D01*
X166577046Y-108562000D01*
X165614629Y-108562000D01*
X165614623Y-108562001D01*
X165555016Y-108568408D01*
X165420171Y-108618702D01*
X165420164Y-108618706D01*
X165304955Y-108704952D01*
X165304952Y-108704955D01*
X165218706Y-108820164D01*
X165218702Y-108820171D01*
X165168408Y-108955017D01*
X165162001Y-109014616D01*
X165162000Y-109014635D01*
X165162000Y-110810370D01*
X165162001Y-110810376D01*
X165168408Y-110869983D01*
X165218702Y-111004828D01*
X165218706Y-111004835D01*
X165304952Y-111120044D01*
X165304955Y-111120047D01*
X165420164Y-111206293D01*
X165420169Y-111206296D01*
X165456332Y-111219784D01*
X165512266Y-111261654D01*
X165536684Y-111327118D01*
X165537000Y-111335966D01*
X165537000Y-115089033D01*
X165517315Y-115156072D01*
X165464511Y-115201827D01*
X165456336Y-115205214D01*
X165420165Y-115218705D01*
X165304955Y-115304952D01*
X165304952Y-115304955D01*
X165218706Y-115420164D01*
X165218702Y-115420171D01*
X165168408Y-115555017D01*
X165162445Y-115610488D01*
X165162001Y-115614623D01*
X165162000Y-115614635D01*
X165162000Y-117410370D01*
X165162001Y-117410376D01*
X165168408Y-117469983D01*
X165218702Y-117604828D01*
X165218706Y-117604835D01*
X165256005Y-117654659D01*
X165304954Y-117720046D01*
X165387016Y-117781478D01*
X165428886Y-117837410D01*
X165433870Y-117907102D01*
X165400387Y-117968423D01*
X165379660Y-117989150D01*
X165289093Y-118135981D01*
X165289091Y-118135986D01*
X165272283Y-118186711D01*
X165234826Y-118299747D01*
X165234826Y-118299748D01*
X165234825Y-118299748D01*
X165224500Y-118400815D01*
X165224500Y-118999169D01*
X165224501Y-118999187D01*
X165234825Y-119100252D01*
X165241794Y-119121282D01*
X165288432Y-119262025D01*
X165289092Y-119264015D01*
X165289093Y-119264018D01*
X165315163Y-119306284D01*
X165374177Y-119401961D01*
X165379661Y-119410851D01*
X165493629Y-119524819D01*
X165527114Y-119586142D01*
X165522130Y-119655834D01*
X165493629Y-119700181D01*
X165379661Y-119814148D01*
X165289093Y-119960981D01*
X165289091Y-119960986D01*
X165261719Y-120043588D01*
X165234826Y-120124747D01*
X165234826Y-120124748D01*
X165234825Y-120124748D01*
X165224500Y-120225815D01*
X165224500Y-120824169D01*
X165224501Y-120824187D01*
X165234825Y-120925252D01*
X165234827Y-120925258D01*
X165252539Y-120978710D01*
X165254941Y-121048538D01*
X165222514Y-121105394D01*
X164302229Y-122025681D01*
X164240906Y-122059166D01*
X164214548Y-122062000D01*
X163664485Y-122062000D01*
X163597446Y-122042315D01*
X163551691Y-121989511D01*
X163541747Y-121920353D01*
X163544710Y-121905906D01*
X163583136Y-121762500D01*
X162685512Y-121762500D01*
X162718425Y-121705493D01*
X162752500Y-121578326D01*
X162752500Y-121446674D01*
X162718425Y-121319507D01*
X162685512Y-121262500D01*
X163583136Y-121262500D01*
X163583135Y-121262499D01*
X163525932Y-121049013D01*
X163525929Y-121049007D01*
X163426100Y-120834922D01*
X163426099Y-120834920D01*
X163290613Y-120641426D01*
X163290608Y-120641420D01*
X163123582Y-120474394D01*
X162930078Y-120338899D01*
X162715992Y-120239070D01*
X162715986Y-120239067D01*
X162502500Y-120181864D01*
X162502500Y-121079488D01*
X162445493Y-121046575D01*
X162318326Y-121012500D01*
X162186674Y-121012500D01*
X162059507Y-121046575D01*
X162002500Y-121079488D01*
X162002500Y-120181864D01*
X162002499Y-120181864D01*
X161789013Y-120239067D01*
X161789007Y-120239070D01*
X161574922Y-120338899D01*
X161574920Y-120338900D01*
X161381426Y-120474386D01*
X161259365Y-120596447D01*
X161198042Y-120629931D01*
X161128350Y-120624947D01*
X161072417Y-120583075D01*
X161055502Y-120552098D01*
X161006297Y-120420171D01*
X161006293Y-120420164D01*
X160920047Y-120304955D01*
X160920044Y-120304952D01*
X160804835Y-120218706D01*
X160804828Y-120218702D01*
X160669982Y-120168408D01*
X160669983Y-120168408D01*
X160610383Y-120162001D01*
X160610381Y-120162000D01*
X160610373Y-120162000D01*
X160610364Y-120162000D01*
X158814629Y-120162000D01*
X158814623Y-120162001D01*
X158755016Y-120168408D01*
X158620171Y-120218702D01*
X158620164Y-120218706D01*
X158504955Y-120304952D01*
X158504952Y-120304955D01*
X158418706Y-120420164D01*
X158418702Y-120420171D01*
X158368408Y-120555017D01*
X158362001Y-120614616D01*
X158362000Y-120614635D01*
X158362000Y-122410370D01*
X158362001Y-122410376D01*
X158368408Y-122469983D01*
X158418702Y-122604828D01*
X158418706Y-122604835D01*
X158504952Y-122720044D01*
X158504953Y-122720044D01*
X158504954Y-122720046D01*
X158552163Y-122755386D01*
X158580011Y-122776234D01*
X158621881Y-122832168D01*
X158626865Y-122901860D01*
X158593379Y-122963182D01*
X158532056Y-122996667D01*
X158505699Y-122999500D01*
X137245348Y-122999500D01*
X137178309Y-122979815D01*
X137132554Y-122927011D01*
X137122610Y-122857853D01*
X137151635Y-122794297D01*
X137174224Y-122773925D01*
X137261082Y-122713105D01*
X137428105Y-122546082D01*
X137563600Y-122352578D01*
X137663429Y-122138492D01*
X137663432Y-122138486D01*
X137720636Y-121925000D01*
X136823012Y-121925000D01*
X136855925Y-121867993D01*
X136890000Y-121740826D01*
X136890000Y-121609174D01*
X136855925Y-121482007D01*
X136823012Y-121425000D01*
X137720636Y-121425000D01*
X137720635Y-121424999D01*
X137663432Y-121211513D01*
X137663429Y-121211507D01*
X137563600Y-120997422D01*
X137563599Y-120997420D01*
X137428113Y-120803926D01*
X137428108Y-120803920D01*
X137261082Y-120636894D01*
X137067578Y-120501399D01*
X136853492Y-120401570D01*
X136853486Y-120401567D01*
X136640000Y-120344364D01*
X136640000Y-121241988D01*
X136582993Y-121209075D01*
X136455826Y-121175000D01*
X136324174Y-121175000D01*
X136197007Y-121209075D01*
X136140000Y-121241988D01*
X136140000Y-120344364D01*
X136139999Y-120344364D01*
X135926513Y-120401567D01*
X135926507Y-120401570D01*
X135712422Y-120501399D01*
X135712420Y-120501400D01*
X135518926Y-120636886D01*
X135396865Y-120758947D01*
X135335542Y-120792431D01*
X135265850Y-120787447D01*
X135209917Y-120745575D01*
X135193002Y-120714598D01*
X135191571Y-120710762D01*
X135155716Y-120614627D01*
X135143797Y-120582671D01*
X135143793Y-120582664D01*
X135057547Y-120467455D01*
X135057544Y-120467452D01*
X134942335Y-120381206D01*
X134942328Y-120381202D01*
X134807482Y-120330908D01*
X134807483Y-120330908D01*
X134747883Y-120324501D01*
X134747881Y-120324500D01*
X134747873Y-120324500D01*
X134747864Y-120324500D01*
X132952129Y-120324500D01*
X132952123Y-120324501D01*
X132892516Y-120330908D01*
X132757671Y-120381202D01*
X132757664Y-120381206D01*
X132642455Y-120467452D01*
X132642452Y-120467455D01*
X132556206Y-120582664D01*
X132556202Y-120582671D01*
X132505908Y-120717517D01*
X132499501Y-120777116D01*
X132499500Y-120777135D01*
X132499500Y-120950500D01*
X132479815Y-121017539D01*
X132427011Y-121063294D01*
X132375500Y-121074500D01*
X130526568Y-121074500D01*
X130459529Y-121054815D01*
X130438887Y-121038181D01*
X129411819Y-120011113D01*
X129378334Y-119949790D01*
X129375500Y-119923432D01*
X129375500Y-119595945D01*
X129375500Y-119595943D01*
X129334577Y-119443216D01*
X129323438Y-119423922D01*
X129255524Y-119306290D01*
X129255521Y-119306286D01*
X129255520Y-119306284D01*
X129143716Y-119194480D01*
X129143715Y-119194479D01*
X129139385Y-119190149D01*
X129139374Y-119190139D01*
X128987352Y-119038117D01*
X128953867Y-118976794D01*
X128957326Y-118911433D01*
X128965174Y-118887753D01*
X128975500Y-118786677D01*
X128975499Y-118188324D01*
X128972346Y-118157461D01*
X128965174Y-118087247D01*
X128944713Y-118025500D01*
X128910908Y-117923484D01*
X128820340Y-117776650D01*
X128698350Y-117654660D01*
X128698349Y-117654659D01*
X128659402Y-117630636D01*
X128612678Y-117578687D01*
X128600500Y-117525098D01*
X128600500Y-117274900D01*
X128620185Y-117207861D01*
X128659401Y-117169363D01*
X128698350Y-117145340D01*
X128820340Y-117023350D01*
X128910908Y-116876516D01*
X128965174Y-116712753D01*
X128965286Y-116711655D01*
X129725001Y-116711655D01*
X129735319Y-116812653D01*
X129789546Y-116976301D01*
X129789551Y-116976312D01*
X129880052Y-117123035D01*
X129880055Y-117123039D01*
X130001961Y-117244945D01*
X130001965Y-117244948D01*
X130148688Y-117335449D01*
X130148699Y-117335454D01*
X130312347Y-117389681D01*
X130413352Y-117400000D01*
X130450000Y-117400000D01*
X130950000Y-117400000D01*
X130986640Y-117400000D01*
X130986654Y-117399999D01*
X131087652Y-117389681D01*
X131251300Y-117335454D01*
X131251311Y-117335449D01*
X131398034Y-117244948D01*
X131398038Y-117244945D01*
X131519944Y-117123039D01*
X131519947Y-117123035D01*
X131610448Y-116976312D01*
X131610453Y-116976301D01*
X131664680Y-116812653D01*
X131674999Y-116711655D01*
X132425001Y-116711655D01*
X132435319Y-116812653D01*
X132489546Y-116976301D01*
X132489551Y-116976312D01*
X132580052Y-117123035D01*
X132580055Y-117123039D01*
X132701961Y-117244945D01*
X132701965Y-117244948D01*
X132848688Y-117335449D01*
X132848699Y-117335454D01*
X133012347Y-117389681D01*
X133113352Y-117400000D01*
X133150000Y-117400000D01*
X133650000Y-117400000D01*
X133686640Y-117400000D01*
X133686654Y-117399999D01*
X133787652Y-117389681D01*
X133951300Y-117335454D01*
X133951311Y-117335449D01*
X134098034Y-117244948D01*
X134098038Y-117244945D01*
X134219944Y-117123039D01*
X134219947Y-117123035D01*
X134310448Y-116976312D01*
X134310453Y-116976301D01*
X134364680Y-116812653D01*
X134374999Y-116711655D01*
X134925001Y-116711655D01*
X134935319Y-116812653D01*
X134989546Y-116976301D01*
X134989551Y-116976312D01*
X135080052Y-117123035D01*
X135080055Y-117123039D01*
X135201961Y-117244945D01*
X135201965Y-117244948D01*
X135348688Y-117335449D01*
X135348699Y-117335454D01*
X135512347Y-117389681D01*
X135613352Y-117400000D01*
X135650000Y-117400000D01*
X136150000Y-117400000D01*
X136186640Y-117400000D01*
X136186654Y-117399999D01*
X136287652Y-117389681D01*
X136451300Y-117335454D01*
X136451311Y-117335449D01*
X136598034Y-117244948D01*
X136598038Y-117244945D01*
X136719944Y-117123039D01*
X136719947Y-117123035D01*
X136810448Y-116976312D01*
X136810453Y-116976301D01*
X136864680Y-116812653D01*
X136874999Y-116711655D01*
X136875000Y-116711642D01*
X136875000Y-116612501D01*
X136150000Y-116612501D01*
X136150000Y-117400000D01*
X135650000Y-117400000D01*
X135650000Y-116612501D01*
X134925001Y-116612501D01*
X134925001Y-116711655D01*
X134374999Y-116711655D01*
X134375000Y-116711642D01*
X134375000Y-116612501D01*
X133650000Y-116612501D01*
X133650000Y-117400000D01*
X133150000Y-117400000D01*
X133150000Y-116612501D01*
X132425001Y-116612501D01*
X132425001Y-116711655D01*
X131674999Y-116711655D01*
X131675000Y-116711642D01*
X131675000Y-116612501D01*
X130950000Y-116612501D01*
X130950000Y-117400000D01*
X130450000Y-117400000D01*
X130450000Y-116612501D01*
X129725001Y-116612501D01*
X129725001Y-116711655D01*
X128965286Y-116711655D01*
X128975500Y-116611677D01*
X128975499Y-116013324D01*
X128973441Y-115993181D01*
X128965174Y-115912247D01*
X128942288Y-115843182D01*
X128910908Y-115748484D01*
X128897715Y-115727095D01*
X128879275Y-115659704D01*
X128900197Y-115593041D01*
X128953839Y-115548271D01*
X129003254Y-115537999D01*
X129697333Y-115537999D01*
X129764372Y-115557684D01*
X129810127Y-115610488D01*
X129820071Y-115679646D01*
X129802871Y-115727097D01*
X129789549Y-115748693D01*
X129789546Y-115748700D01*
X129735319Y-115912348D01*
X129725000Y-116013346D01*
X129725000Y-116112501D01*
X131674999Y-116112501D01*
X131674999Y-116013361D01*
X131674998Y-116013346D01*
X131664680Y-115912348D01*
X131610453Y-115748700D01*
X131610450Y-115748693D01*
X131597129Y-115727097D01*
X131578688Y-115659704D01*
X131599610Y-115593041D01*
X131653252Y-115548271D01*
X131702667Y-115537999D01*
X132397333Y-115537999D01*
X132464372Y-115557684D01*
X132510127Y-115610488D01*
X132520071Y-115679646D01*
X132502871Y-115727097D01*
X132489549Y-115748693D01*
X132489546Y-115748700D01*
X132435319Y-115912348D01*
X132425000Y-116013346D01*
X132425000Y-116112501D01*
X134374999Y-116112501D01*
X134374999Y-116013361D01*
X134374998Y-116013346D01*
X134364680Y-115912348D01*
X134310453Y-115748700D01*
X134310450Y-115748693D01*
X134297129Y-115727097D01*
X134278688Y-115659704D01*
X134299610Y-115593041D01*
X134353252Y-115548271D01*
X134402667Y-115537999D01*
X134811309Y-115537999D01*
X134897333Y-115537999D01*
X134964372Y-115557684D01*
X135010127Y-115610488D01*
X135020071Y-115679646D01*
X135002871Y-115727097D01*
X134989549Y-115748693D01*
X134989546Y-115748700D01*
X134935319Y-115912348D01*
X134925000Y-116013346D01*
X134925000Y-116112501D01*
X136874999Y-116112501D01*
X136874999Y-116013361D01*
X136874998Y-116013346D01*
X136864680Y-115912348D01*
X136810453Y-115748700D01*
X136810450Y-115748693D01*
X136797129Y-115727097D01*
X136778688Y-115659704D01*
X136799610Y-115593041D01*
X136853252Y-115548271D01*
X136902667Y-115537999D01*
X137076194Y-115537999D01*
X137076195Y-115537998D01*
X137250167Y-115503394D01*
X137342437Y-115465174D01*
X137414048Y-115435512D01*
X137514015Y-115368716D01*
X137561537Y-115336963D01*
X138175319Y-114723181D01*
X138236642Y-114689696D01*
X138306333Y-114694680D01*
X138362267Y-114736551D01*
X138386684Y-114802016D01*
X138387000Y-114810862D01*
X138387000Y-115074110D01*
X138411035Y-115194944D01*
X138411037Y-115194952D01*
X138420876Y-115218705D01*
X138424847Y-115228292D01*
X138424847Y-115228293D01*
X138458185Y-115308781D01*
X138458190Y-115308790D01*
X138484399Y-115348013D01*
X138484400Y-115348014D01*
X138526640Y-115411231D01*
X138526641Y-115411232D01*
X138526642Y-115411233D01*
X138613767Y-115498358D01*
X138613768Y-115498358D01*
X138620835Y-115505425D01*
X138620834Y-115505425D01*
X138620838Y-115505428D01*
X139238181Y-116122771D01*
X139271666Y-116184094D01*
X139274500Y-116210452D01*
X139274500Y-116599169D01*
X139274501Y-116599187D01*
X139284825Y-116700252D01*
X139309429Y-116774500D01*
X139339020Y-116863800D01*
X139339092Y-116864015D01*
X139339093Y-116864018D01*
X139348753Y-116879679D01*
X139429660Y-117010850D01*
X139551650Y-117132840D01*
X139698484Y-117223408D01*
X139781774Y-117251007D01*
X139839218Y-117290780D01*
X139866041Y-117355296D01*
X139853726Y-117424071D01*
X139806183Y-117475271D01*
X139781777Y-117486417D01*
X139739276Y-117500501D01*
X139735984Y-117501592D01*
X139735981Y-117501593D01*
X139589148Y-117592161D01*
X139467161Y-117714148D01*
X139376593Y-117860981D01*
X139376591Y-117860986D01*
X139374545Y-117867160D01*
X139334123Y-117989148D01*
X139322326Y-118024748D01*
X139322325Y-118024749D01*
X139314865Y-118097774D01*
X139288468Y-118162466D01*
X139257480Y-118190164D01*
X139110239Y-118282682D01*
X138982684Y-118410237D01*
X138886711Y-118562976D01*
X138827131Y-118733245D01*
X138827130Y-118733250D01*
X138806935Y-118912496D01*
X138806935Y-118912503D01*
X138827130Y-119091749D01*
X138827131Y-119091754D01*
X138886711Y-119262023D01*
X138965648Y-119387650D01*
X138982684Y-119414762D01*
X139110238Y-119542316D01*
X139178169Y-119585000D01*
X139256145Y-119633996D01*
X139262978Y-119638289D01*
X139433245Y-119697868D01*
X139433250Y-119697869D01*
X139612496Y-119718065D01*
X139612500Y-119718065D01*
X139612504Y-119718065D01*
X139791749Y-119697869D01*
X139791752Y-119697868D01*
X139791755Y-119697868D01*
X139962022Y-119638289D01*
X140114762Y-119542316D01*
X140232760Y-119424318D01*
X140294083Y-119390833D01*
X140320441Y-119387999D01*
X140699170Y-119387999D01*
X140699176Y-119387999D01*
X140800253Y-119377674D01*
X140964016Y-119323408D01*
X141110850Y-119232840D01*
X141125171Y-119218518D01*
X141186489Y-119185033D01*
X141256181Y-119190014D01*
X141300534Y-119218517D01*
X141314461Y-119232444D01*
X141314465Y-119232447D01*
X141461188Y-119322948D01*
X141461199Y-119322953D01*
X141624847Y-119377180D01*
X141725851Y-119387499D01*
X142325000Y-119387499D01*
X142424140Y-119387499D01*
X142424154Y-119387498D01*
X142525152Y-119377180D01*
X142688800Y-119322953D01*
X142688811Y-119322948D01*
X142835534Y-119232447D01*
X142835538Y-119232444D01*
X142905827Y-119162155D01*
X143505000Y-119162155D01*
X143505000Y-119710000D01*
X144249670Y-119710000D01*
X144229925Y-119729745D01*
X144180556Y-119815255D01*
X144155000Y-119910630D01*
X144155000Y-120009370D01*
X144180556Y-120104745D01*
X144229925Y-120190255D01*
X144249670Y-120210000D01*
X143505000Y-120210000D01*
X143505000Y-120757844D01*
X143511401Y-120817371D01*
X143511403Y-120817379D01*
X143561645Y-120952086D01*
X143561649Y-120952093D01*
X143647809Y-121067187D01*
X143647812Y-121067190D01*
X143762906Y-121153350D01*
X143762913Y-121153354D01*
X143897620Y-121203596D01*
X143897627Y-121203598D01*
X143957155Y-121209999D01*
X143957172Y-121210000D01*
X144280000Y-121210000D01*
X144280000Y-120240330D01*
X144299745Y-120260075D01*
X144385255Y-120309444D01*
X144480630Y-120335000D01*
X144579370Y-120335000D01*
X144674745Y-120309444D01*
X144760255Y-120260075D01*
X144774500Y-120245830D01*
X144774500Y-120286003D01*
X144777299Y-120300075D01*
X144777617Y-120301671D01*
X144780000Y-120325865D01*
X144780000Y-121210000D01*
X145102828Y-121210000D01*
X145102844Y-121209999D01*
X145162372Y-121203598D01*
X145162376Y-121203597D01*
X145297089Y-121153352D01*
X145297896Y-121152748D01*
X145298845Y-121152393D01*
X145304876Y-121149101D01*
X145305349Y-121149967D01*
X145363360Y-121128329D01*
X145419661Y-121137451D01*
X145500873Y-121171091D01*
X145612798Y-121193354D01*
X145698992Y-121210499D01*
X145698996Y-121210500D01*
X145698997Y-121210500D01*
X145901004Y-121210500D01*
X145901005Y-121210499D01*
X146099127Y-121171091D01*
X146285756Y-121093786D01*
X146366110Y-121040094D01*
X146432786Y-121019217D01*
X146500166Y-121037701D01*
X146503865Y-121040078D01*
X146584244Y-121093786D01*
X146584245Y-121093786D01*
X146584246Y-121093787D01*
X146616604Y-121107190D01*
X146770873Y-121171091D01*
X146882798Y-121193354D01*
X146968992Y-121210499D01*
X146968996Y-121210500D01*
X146968997Y-121210500D01*
X147171004Y-121210500D01*
X147171005Y-121210499D01*
X147369127Y-121171091D01*
X147555756Y-121093786D01*
X147723718Y-120981558D01*
X147866558Y-120838718D01*
X147978786Y-120670756D01*
X148056091Y-120484127D01*
X148095500Y-120286003D01*
X148095500Y-119633997D01*
X148085754Y-119585000D01*
X148078532Y-119548691D01*
X148084759Y-119479100D01*
X148127622Y-119423922D01*
X148193512Y-119400678D01*
X148200149Y-119400500D01*
X148911000Y-119400500D01*
X148978039Y-119420185D01*
X149023794Y-119472989D01*
X149035000Y-119524500D01*
X149035000Y-119750000D01*
X149779670Y-119750000D01*
X149759925Y-119769745D01*
X149710556Y-119855255D01*
X149685000Y-119950630D01*
X149685000Y-120049370D01*
X149710556Y-120144745D01*
X149759925Y-120230255D01*
X149779670Y-120250000D01*
X149035000Y-120250000D01*
X149035000Y-120797844D01*
X149041401Y-120857372D01*
X149041403Y-120857379D01*
X149091645Y-120992086D01*
X149091649Y-120992093D01*
X149177809Y-121107187D01*
X149177812Y-121107190D01*
X149292906Y-121193350D01*
X149292913Y-121193354D01*
X149427620Y-121243596D01*
X149427627Y-121243598D01*
X149487155Y-121249999D01*
X149487172Y-121250000D01*
X149810000Y-121250000D01*
X149810000Y-120280330D01*
X149829745Y-120300075D01*
X149915255Y-120349444D01*
X150010630Y-120375000D01*
X150109370Y-120375000D01*
X150204745Y-120349444D01*
X150290255Y-120300075D01*
X150304500Y-120285830D01*
X150304500Y-120326003D01*
X150307065Y-120338900D01*
X150307617Y-120341671D01*
X150310000Y-120365865D01*
X150310000Y-121250000D01*
X150632828Y-121250000D01*
X150632844Y-121249999D01*
X150692372Y-121243598D01*
X150692376Y-121243597D01*
X150827089Y-121193352D01*
X150827896Y-121192748D01*
X150828845Y-121192393D01*
X150834876Y-121189101D01*
X150835349Y-121189967D01*
X150893360Y-121168329D01*
X150949661Y-121177451D01*
X151030873Y-121211091D01*
X151194288Y-121243596D01*
X151228992Y-121250499D01*
X151228996Y-121250500D01*
X151228997Y-121250500D01*
X151431004Y-121250500D01*
X151431005Y-121250499D01*
X151629127Y-121211091D01*
X151815756Y-121133786D01*
X151896110Y-121080094D01*
X151962786Y-121059217D01*
X152030166Y-121077701D01*
X152033865Y-121080078D01*
X152114244Y-121133786D01*
X152114245Y-121133786D01*
X152114246Y-121133787D01*
X152141189Y-121144947D01*
X152300873Y-121211091D01*
X152464288Y-121243596D01*
X152498992Y-121250499D01*
X152498996Y-121250500D01*
X152498997Y-121250500D01*
X152701004Y-121250500D01*
X152701005Y-121250499D01*
X152899127Y-121211091D01*
X153085756Y-121133786D01*
X153253718Y-121021558D01*
X153396558Y-120878718D01*
X153508786Y-120710756D01*
X153586091Y-120524127D01*
X153625500Y-120326003D01*
X153625500Y-119673997D01*
X153586091Y-119475873D01*
X153508786Y-119289244D01*
X153508784Y-119289241D01*
X153508782Y-119289237D01*
X153396558Y-119121281D01*
X153253718Y-118978441D01*
X153085762Y-118866217D01*
X153085752Y-118866212D01*
X152899127Y-118788909D01*
X152899119Y-118788907D01*
X152701007Y-118749500D01*
X152701003Y-118749500D01*
X152498997Y-118749500D01*
X152498992Y-118749500D01*
X152300880Y-118788907D01*
X152300872Y-118788909D01*
X152114244Y-118866213D01*
X152082011Y-118887751D01*
X152038019Y-118917146D01*
X152033891Y-118919904D01*
X151967213Y-118940782D01*
X151899833Y-118922297D01*
X151896109Y-118919904D01*
X151891981Y-118917146D01*
X151847981Y-118887746D01*
X151815755Y-118866213D01*
X151629127Y-118788909D01*
X151629119Y-118788907D01*
X151596135Y-118782346D01*
X151534224Y-118749961D01*
X151532645Y-118748410D01*
X151222590Y-118438355D01*
X151222588Y-118438352D01*
X151103717Y-118319481D01*
X151103716Y-118319480D01*
X151004157Y-118262000D01*
X150966785Y-118240423D01*
X150814057Y-118199499D01*
X150655943Y-118199499D01*
X150648347Y-118199499D01*
X150648331Y-118199500D01*
X146821670Y-118199500D01*
X146821654Y-118199499D01*
X146814058Y-118199499D01*
X146655943Y-118199499D01*
X146579579Y-118219961D01*
X146503214Y-118240423D01*
X146503209Y-118240426D01*
X146366290Y-118319475D01*
X146366282Y-118319481D01*
X146010643Y-118675119D01*
X145949320Y-118708604D01*
X145907176Y-118708983D01*
X145907067Y-118710097D01*
X145901005Y-118709500D01*
X145901003Y-118709500D01*
X145698997Y-118709500D01*
X145698992Y-118709500D01*
X145500880Y-118748907D01*
X145500868Y-118748910D01*
X145419661Y-118782547D01*
X145350191Y-118790016D01*
X145305140Y-118770405D01*
X145304872Y-118770897D01*
X145299374Y-118767894D01*
X145297895Y-118767251D01*
X145297086Y-118766645D01*
X145162379Y-118716403D01*
X145162372Y-118716401D01*
X145102844Y-118710000D01*
X144780000Y-118710000D01*
X144780000Y-119594134D01*
X144777617Y-119618326D01*
X144774501Y-119633993D01*
X144774500Y-119633997D01*
X144774500Y-119674170D01*
X144760255Y-119659925D01*
X144674745Y-119610556D01*
X144579370Y-119585000D01*
X144480630Y-119585000D01*
X144385255Y-119610556D01*
X144299745Y-119659925D01*
X144280000Y-119679670D01*
X144280000Y-118710000D01*
X143957155Y-118710000D01*
X143897627Y-118716401D01*
X143897620Y-118716403D01*
X143762913Y-118766645D01*
X143762906Y-118766649D01*
X143647812Y-118852809D01*
X143647809Y-118852812D01*
X143561649Y-118967906D01*
X143561645Y-118967913D01*
X143511403Y-119102620D01*
X143511401Y-119102627D01*
X143505000Y-119162155D01*
X142905827Y-119162155D01*
X142957444Y-119110538D01*
X142957447Y-119110534D01*
X143047948Y-118963811D01*
X143047953Y-118963800D01*
X143102180Y-118800152D01*
X143112499Y-118699154D01*
X143112500Y-118699141D01*
X143112500Y-118662500D01*
X142325000Y-118662500D01*
X142325000Y-119387499D01*
X141725851Y-119387499D01*
X141825000Y-119387498D01*
X141825000Y-118286500D01*
X141844685Y-118219461D01*
X141897489Y-118173706D01*
X141949000Y-118162500D01*
X143112499Y-118162500D01*
X143112499Y-118125860D01*
X143112498Y-118125845D01*
X143102180Y-118024847D01*
X143047953Y-117861199D01*
X143047948Y-117861188D01*
X142957447Y-117714465D01*
X142957444Y-117714461D01*
X142835538Y-117592555D01*
X142835534Y-117592552D01*
X142688811Y-117502051D01*
X142688802Y-117502047D01*
X142604138Y-117473992D01*
X142546694Y-117434219D01*
X142519871Y-117369703D01*
X142532186Y-117300927D01*
X142579730Y-117249727D01*
X142604141Y-117238579D01*
X142651303Y-117222951D01*
X142651311Y-117222948D01*
X142798034Y-117132447D01*
X142798038Y-117132444D01*
X142919944Y-117010538D01*
X142919947Y-117010534D01*
X143010448Y-116863811D01*
X143010453Y-116863800D01*
X143064680Y-116700152D01*
X143074999Y-116599154D01*
X143075000Y-116599141D01*
X143075000Y-116562500D01*
X141911500Y-116562500D01*
X141844461Y-116542815D01*
X141798706Y-116490011D01*
X141787500Y-116438500D01*
X141787500Y-116186500D01*
X141807185Y-116119461D01*
X141859989Y-116073706D01*
X141911500Y-116062500D01*
X143074999Y-116062500D01*
X143074999Y-116025860D01*
X143074998Y-116025845D01*
X143064680Y-115924847D01*
X143010453Y-115761199D01*
X143010450Y-115761192D01*
X142973999Y-115702097D01*
X142955558Y-115634704D01*
X142976480Y-115568041D01*
X143030122Y-115523271D01*
X143079532Y-115512999D01*
X144160372Y-115512999D01*
X144219983Y-115506591D01*
X144354831Y-115456296D01*
X144470046Y-115370046D01*
X144513234Y-115312354D01*
X144569167Y-115270484D01*
X144638859Y-115265500D01*
X144700182Y-115298985D01*
X144711763Y-115312350D01*
X144754954Y-115370046D01*
X144797989Y-115402262D01*
X144870164Y-115456293D01*
X144870171Y-115456297D01*
X145005017Y-115506591D01*
X145005016Y-115506591D01*
X145011944Y-115507335D01*
X145064627Y-115513000D01*
X146160372Y-115512999D01*
X146219983Y-115506591D01*
X146354831Y-115456296D01*
X146470046Y-115370046D01*
X146513234Y-115312354D01*
X146569167Y-115270484D01*
X146638859Y-115265500D01*
X146700182Y-115298985D01*
X146711763Y-115312350D01*
X146754954Y-115370046D01*
X146797989Y-115402262D01*
X146870164Y-115456293D01*
X146870171Y-115456297D01*
X147005017Y-115506591D01*
X147005016Y-115506591D01*
X147011944Y-115507335D01*
X147064627Y-115513000D01*
X148160372Y-115512999D01*
X148219983Y-115506591D01*
X148354831Y-115456296D01*
X148470046Y-115370046D01*
X148513234Y-115312354D01*
X148569167Y-115270484D01*
X148638859Y-115265500D01*
X148700182Y-115298985D01*
X148711763Y-115312350D01*
X148754954Y-115370046D01*
X148797989Y-115402262D01*
X148870164Y-115456293D01*
X148870171Y-115456297D01*
X149005017Y-115506591D01*
X149005016Y-115506591D01*
X149011944Y-115507335D01*
X149064627Y-115513000D01*
X150160372Y-115512999D01*
X150219983Y-115506591D01*
X150354831Y-115456296D01*
X150470046Y-115370046D01*
X150513234Y-115312354D01*
X150569167Y-115270484D01*
X150638859Y-115265500D01*
X150700182Y-115298985D01*
X150711763Y-115312350D01*
X150754954Y-115370046D01*
X150797989Y-115402262D01*
X150870164Y-115456293D01*
X150870171Y-115456297D01*
X150900420Y-115467579D01*
X151005017Y-115506591D01*
X151064627Y-115513000D01*
X151695735Y-115512999D01*
X151762774Y-115532683D01*
X151808529Y-115585487D01*
X151819735Y-115636999D01*
X151819735Y-115806842D01*
X151826962Y-115843181D01*
X151843770Y-115927679D01*
X151843773Y-115927691D01*
X151856406Y-115958189D01*
X151890920Y-116041516D01*
X151890922Y-116041519D01*
X151890923Y-116041521D01*
X151918092Y-116082180D01*
X151925149Y-116092742D01*
X151925150Y-116092744D01*
X151959376Y-116143968D01*
X151959378Y-116143970D01*
X151975679Y-116160270D01*
X152009166Y-116221592D01*
X152012000Y-116247953D01*
X152012000Y-116586668D01*
X152012001Y-116586687D01*
X152022325Y-116687752D01*
X152035982Y-116728965D01*
X152073752Y-116842947D01*
X152076592Y-116851515D01*
X152076593Y-116851518D01*
X152084301Y-116864015D01*
X152167160Y-116998350D01*
X152289150Y-117120340D01*
X152435984Y-117210908D01*
X152599747Y-117265174D01*
X152700823Y-117275500D01*
X153299176Y-117275499D01*
X153299184Y-117275498D01*
X153299187Y-117275498D01*
X153384149Y-117266819D01*
X153400253Y-117265174D01*
X153564016Y-117210908D01*
X153710850Y-117120340D01*
X153825175Y-117006014D01*
X153886494Y-116972532D01*
X153956186Y-116977516D01*
X154000534Y-117006017D01*
X154114461Y-117119944D01*
X154114465Y-117119947D01*
X154261188Y-117210448D01*
X154261199Y-117210453D01*
X154424847Y-117264680D01*
X154525851Y-117274999D01*
X154574999Y-117274998D01*
X154575000Y-117274998D01*
X154575000Y-115325000D01*
X155075000Y-115325000D01*
X155075000Y-117274999D01*
X155124140Y-117274999D01*
X155124154Y-117274998D01*
X155225152Y-117264680D01*
X155388800Y-117210453D01*
X155388811Y-117210448D01*
X155535534Y-117119947D01*
X155535535Y-117119946D01*
X155539207Y-117116275D01*
X155600528Y-117082786D01*
X155670220Y-117087767D01*
X155726156Y-117129635D01*
X155743933Y-117162994D01*
X155755589Y-117196305D01*
X155774210Y-117249521D01*
X155828206Y-117335454D01*
X155870184Y-117402262D01*
X155997738Y-117529816D01*
X156071013Y-117575858D01*
X156126145Y-117610500D01*
X156150478Y-117625789D01*
X156286405Y-117673352D01*
X156320745Y-117685368D01*
X156320750Y-117685369D01*
X156499996Y-117705565D01*
X156500000Y-117705565D01*
X156500004Y-117705565D01*
X156679249Y-117685369D01*
X156679252Y-117685368D01*
X156679255Y-117685368D01*
X156849522Y-117625789D01*
X157002262Y-117529816D01*
X157121734Y-117410344D01*
X161462500Y-117410344D01*
X161468901Y-117469872D01*
X161468903Y-117469879D01*
X161519145Y-117604586D01*
X161519149Y-117604593D01*
X161605309Y-117719687D01*
X161605312Y-117719690D01*
X161720406Y-117805850D01*
X161720413Y-117805854D01*
X161855120Y-117856096D01*
X161855127Y-117856098D01*
X161914655Y-117862499D01*
X161914672Y-117862500D01*
X162212500Y-117862500D01*
X162712500Y-117862500D01*
X163010328Y-117862500D01*
X163010344Y-117862499D01*
X163069872Y-117856098D01*
X163069879Y-117856096D01*
X163204586Y-117805854D01*
X163204593Y-117805850D01*
X163319687Y-117719690D01*
X163319690Y-117719687D01*
X163405850Y-117604593D01*
X163405854Y-117604586D01*
X163456096Y-117469879D01*
X163456098Y-117469872D01*
X163462499Y-117410344D01*
X163462500Y-117410327D01*
X163462500Y-116762500D01*
X162712500Y-116762500D01*
X162712500Y-117862500D01*
X162212500Y-117862500D01*
X162212500Y-116762500D01*
X161462500Y-116762500D01*
X161462500Y-117410344D01*
X157121734Y-117410344D01*
X157129816Y-117402262D01*
X157225789Y-117249522D01*
X157285368Y-117079255D01*
X157285369Y-117079249D01*
X157305565Y-116900003D01*
X157305565Y-116899997D01*
X157286294Y-116728965D01*
X157298348Y-116660143D01*
X157321830Y-116627403D01*
X157553628Y-116395605D01*
X157614949Y-116362122D01*
X157669901Y-116362630D01*
X157714431Y-116373185D01*
X157714432Y-116373185D01*
X157886948Y-116373185D01*
X157886951Y-116373185D01*
X158054820Y-116333399D01*
X158208989Y-116255973D01*
X158287763Y-116191803D01*
X158710861Y-115768703D01*
X158775033Y-115689929D01*
X158852459Y-115535760D01*
X158852461Y-115535748D01*
X158852919Y-115534492D01*
X158853474Y-115533737D01*
X158855700Y-115529306D01*
X158856456Y-115529685D01*
X158894338Y-115478223D01*
X158959603Y-115453278D01*
X159027994Y-115467579D01*
X159057128Y-115489206D01*
X159097738Y-115529816D01*
X159142090Y-115557684D01*
X159245216Y-115622483D01*
X159250478Y-115625789D01*
X159415772Y-115683628D01*
X159420745Y-115685368D01*
X159420750Y-115685369D01*
X159599996Y-115705565D01*
X159600000Y-115705565D01*
X159600004Y-115705565D01*
X159779249Y-115685369D01*
X159779252Y-115685368D01*
X159779255Y-115685368D01*
X159949522Y-115625789D01*
X159967242Y-115614655D01*
X161462500Y-115614655D01*
X161462500Y-116262500D01*
X162212500Y-116262500D01*
X162712500Y-116262500D01*
X163462500Y-116262500D01*
X163462500Y-115614672D01*
X163462499Y-115614655D01*
X163456098Y-115555127D01*
X163456096Y-115555120D01*
X163405854Y-115420413D01*
X163405850Y-115420406D01*
X163319690Y-115305312D01*
X163319687Y-115305309D01*
X163204593Y-115219149D01*
X163204586Y-115219145D01*
X163069879Y-115168903D01*
X163069872Y-115168901D01*
X163010344Y-115162500D01*
X162712500Y-115162500D01*
X162712500Y-116262500D01*
X162212500Y-116262500D01*
X162212500Y-115162500D01*
X161914655Y-115162500D01*
X161855127Y-115168901D01*
X161855120Y-115168903D01*
X161720413Y-115219145D01*
X161720406Y-115219149D01*
X161605312Y-115305309D01*
X161605309Y-115305312D01*
X161519149Y-115420406D01*
X161519145Y-115420413D01*
X161468903Y-115555120D01*
X161468901Y-115555127D01*
X161462500Y-115614655D01*
X159967242Y-115614655D01*
X160102262Y-115529816D01*
X160229816Y-115402262D01*
X160325789Y-115249522D01*
X160385368Y-115079255D01*
X160387496Y-115060370D01*
X160405565Y-114900003D01*
X160405565Y-114899996D01*
X160385369Y-114720750D01*
X160385368Y-114720745D01*
X160325788Y-114550476D01*
X160262654Y-114450000D01*
X160229816Y-114397738D01*
X160229815Y-114397737D01*
X160226111Y-114391842D01*
X160227591Y-114390911D01*
X160207413Y-114347459D01*
X160201464Y-114317555D01*
X160201463Y-114317548D01*
X160174222Y-114251783D01*
X160168681Y-114238407D01*
X160161210Y-114168940D01*
X160162577Y-114162383D01*
X160182715Y-114077421D01*
X160182715Y-113904901D01*
X160180128Y-113893984D01*
X160142930Y-113737035D01*
X160135940Y-113723116D01*
X160065503Y-113582863D01*
X160001333Y-113504090D01*
X159595910Y-113098669D01*
X159595895Y-113098657D01*
X159566738Y-113074904D01*
X159517137Y-113034497D01*
X159515764Y-113033807D01*
X159362964Y-112957069D01*
X159195100Y-112917285D01*
X159195099Y-112917285D01*
X159022579Y-112917285D01*
X158896677Y-112947124D01*
X158854709Y-112957071D01*
X158700535Y-113034500D01*
X158621778Y-113098657D01*
X158621760Y-113098673D01*
X158198676Y-113521759D01*
X158198657Y-113521780D01*
X158134502Y-113600533D01*
X158134498Y-113600539D01*
X158057071Y-113754709D01*
X158057071Y-113754710D01*
X158021476Y-113904899D01*
X158017285Y-113922581D01*
X158017285Y-114083755D01*
X157997600Y-114150794D01*
X157944796Y-114196549D01*
X157893285Y-114207755D01*
X157732109Y-114207755D01*
X157606207Y-114237594D01*
X157564239Y-114247541D01*
X157410065Y-114324970D01*
X157331308Y-114389127D01*
X157331290Y-114389143D01*
X156908206Y-114812229D01*
X156908187Y-114812250D01*
X156844032Y-114891003D01*
X156844028Y-114891009D01*
X156766601Y-115045179D01*
X156766601Y-115045180D01*
X156726815Y-115213049D01*
X156726815Y-115385569D01*
X156735016Y-115420171D01*
X156737368Y-115430095D01*
X156733674Y-115499867D01*
X156704391Y-115546372D01*
X156131286Y-116119478D01*
X156024180Y-116226584D01*
X155962857Y-116260069D01*
X155893165Y-116255085D01*
X155837232Y-116213213D01*
X155812815Y-116147749D01*
X155812499Y-116138903D01*
X155812499Y-116013360D01*
X155812498Y-116013345D01*
X155802180Y-115912347D01*
X155747953Y-115748699D01*
X155747948Y-115748688D01*
X155657447Y-115601965D01*
X155657444Y-115601961D01*
X155535538Y-115480055D01*
X155535534Y-115480052D01*
X155388811Y-115389551D01*
X155388800Y-115389546D01*
X155225152Y-115335319D01*
X155124154Y-115325000D01*
X155075000Y-115325000D01*
X154575000Y-115325000D01*
X154574999Y-115324999D01*
X154525861Y-115325000D01*
X154525843Y-115325001D01*
X154424847Y-115335319D01*
X154261199Y-115389546D01*
X154261188Y-115389551D01*
X154114465Y-115480052D01*
X154000534Y-115593983D01*
X153939211Y-115627467D01*
X153869519Y-115622483D01*
X153825172Y-115593982D01*
X153710851Y-115479661D01*
X153710850Y-115479660D01*
X153578520Y-115398038D01*
X153564018Y-115389093D01*
X153564013Y-115389091D01*
X153553378Y-115385567D01*
X153400253Y-115334826D01*
X153400251Y-115334825D01*
X153299184Y-115324500D01*
X153299177Y-115324500D01*
X153194735Y-115324500D01*
X153127696Y-115304815D01*
X153081941Y-115252011D01*
X153070735Y-115200500D01*
X153070735Y-113736500D01*
X153090420Y-113669461D01*
X153143224Y-113623706D01*
X153194735Y-113612500D01*
X153962500Y-113612500D01*
X154462500Y-113612500D01*
X155510328Y-113612500D01*
X155510344Y-113612499D01*
X155569872Y-113606098D01*
X155569879Y-113606096D01*
X155704586Y-113555854D01*
X155704593Y-113555850D01*
X155819687Y-113469690D01*
X155819690Y-113469687D01*
X155905850Y-113354593D01*
X155905854Y-113354586D01*
X155956096Y-113219879D01*
X155956098Y-113219872D01*
X155962499Y-113160344D01*
X155962500Y-113160327D01*
X155962500Y-112862500D01*
X154462500Y-112862500D01*
X154462500Y-113612500D01*
X153962500Y-113612500D01*
X153962500Y-112486500D01*
X153982185Y-112419461D01*
X154034989Y-112373706D01*
X154086500Y-112362500D01*
X155962500Y-112362500D01*
X155962500Y-112064672D01*
X155962499Y-112064655D01*
X155956098Y-112005127D01*
X155956096Y-112005120D01*
X155905854Y-111870413D01*
X155905852Y-111870410D01*
X155878465Y-111833826D01*
X155854047Y-111768362D01*
X155868898Y-111700089D01*
X155918302Y-111650683D01*
X155986575Y-111635830D01*
X156016731Y-111641807D01*
X156087247Y-111665174D01*
X156188323Y-111675500D01*
X156786676Y-111675499D01*
X156786684Y-111675498D01*
X156786687Y-111675498D01*
X156853196Y-111668704D01*
X156887753Y-111665174D01*
X157051516Y-111610908D01*
X157198350Y-111520340D01*
X157312319Y-111406371D01*
X157373642Y-111372886D01*
X157443334Y-111377870D01*
X157487681Y-111406371D01*
X157601650Y-111520340D01*
X157748484Y-111610908D01*
X157912247Y-111665174D01*
X158013323Y-111675500D01*
X158611676Y-111675499D01*
X158611684Y-111675498D01*
X158611687Y-111675498D01*
X158678196Y-111668704D01*
X158712753Y-111665174D01*
X158815225Y-111631218D01*
X158885053Y-111628816D01*
X158920198Y-111643929D01*
X159050478Y-111725789D01*
X159171376Y-111768093D01*
X159220745Y-111785368D01*
X159220750Y-111785369D01*
X159399996Y-111805565D01*
X159400000Y-111805565D01*
X159400004Y-111805565D01*
X159579249Y-111785369D01*
X159579252Y-111785368D01*
X159579255Y-111785368D01*
X159749522Y-111725789D01*
X159902262Y-111629816D01*
X160029816Y-111502262D01*
X160125789Y-111349522D01*
X160185368Y-111179255D01*
X160185990Y-111173734D01*
X160205565Y-111000003D01*
X160205565Y-110999996D01*
X160185369Y-110820750D01*
X160185368Y-110820745D01*
X160181728Y-110810344D01*
X161462500Y-110810344D01*
X161468901Y-110869872D01*
X161468903Y-110869879D01*
X161519145Y-111004586D01*
X161519149Y-111004593D01*
X161605309Y-111119687D01*
X161605312Y-111119690D01*
X161720406Y-111205850D01*
X161720413Y-111205854D01*
X161855120Y-111256096D01*
X161855127Y-111256098D01*
X161914655Y-111262499D01*
X161914672Y-111262500D01*
X162212500Y-111262500D01*
X162712500Y-111262500D01*
X163010328Y-111262500D01*
X163010344Y-111262499D01*
X163069872Y-111256098D01*
X163069879Y-111256096D01*
X163204586Y-111205854D01*
X163204593Y-111205850D01*
X163319687Y-111119690D01*
X163319690Y-111119687D01*
X163405850Y-111004593D01*
X163405854Y-111004586D01*
X163456096Y-110869879D01*
X163456098Y-110869872D01*
X163462499Y-110810344D01*
X163462500Y-110810327D01*
X163462500Y-110162500D01*
X162712500Y-110162500D01*
X162712500Y-111262500D01*
X162212500Y-111262500D01*
X162212500Y-110162500D01*
X161462500Y-110162500D01*
X161462500Y-110810344D01*
X160181728Y-110810344D01*
X160152153Y-110725823D01*
X160125789Y-110650478D01*
X160114709Y-110632845D01*
X160041546Y-110516406D01*
X160029816Y-110497738D01*
X159902262Y-110370184D01*
X159851541Y-110338314D01*
X159749521Y-110274210D01*
X159579249Y-110214630D01*
X159513229Y-110207192D01*
X159458224Y-110187074D01*
X159440898Y-110175498D01*
X159440897Y-110175496D01*
X159396290Y-110145690D01*
X159396286Y-110145688D01*
X159370074Y-110134831D01*
X159315792Y-110112347D01*
X159282452Y-110098537D01*
X159282446Y-110098535D01*
X159247268Y-110091538D01*
X159185357Y-110059153D01*
X159165923Y-110035021D01*
X159145340Y-110001650D01*
X159072438Y-109928748D01*
X159038953Y-109867425D01*
X159043077Y-109800113D01*
X159073798Y-109712320D01*
X159085367Y-109679259D01*
X159085369Y-109679249D01*
X159105565Y-109500003D01*
X159105565Y-109499996D01*
X159085369Y-109320753D01*
X159085368Y-109320746D01*
X159085368Y-109320745D01*
X159056807Y-109239125D01*
X159053245Y-109169350D01*
X159068309Y-109133079D01*
X159110908Y-109064016D01*
X159127265Y-109014655D01*
X161462500Y-109014655D01*
X161462500Y-109662500D01*
X162212500Y-109662500D01*
X162712500Y-109662500D01*
X163462500Y-109662500D01*
X163462500Y-109014672D01*
X163462499Y-109014655D01*
X163456098Y-108955127D01*
X163456096Y-108955120D01*
X163405854Y-108820413D01*
X163405850Y-108820406D01*
X163319690Y-108705312D01*
X163319687Y-108705309D01*
X163204593Y-108619149D01*
X163204586Y-108619145D01*
X163069879Y-108568903D01*
X163069872Y-108568901D01*
X163010344Y-108562500D01*
X162712500Y-108562500D01*
X162712500Y-109662500D01*
X162212500Y-109662500D01*
X162212500Y-108562500D01*
X161914655Y-108562500D01*
X161855127Y-108568901D01*
X161855120Y-108568903D01*
X161720413Y-108619145D01*
X161720406Y-108619149D01*
X161605312Y-108705309D01*
X161605309Y-108705312D01*
X161519149Y-108820406D01*
X161519145Y-108820413D01*
X161468903Y-108955120D01*
X161468901Y-108955127D01*
X161462500Y-109014655D01*
X159127265Y-109014655D01*
X159165174Y-108900253D01*
X159175500Y-108799177D01*
X159175499Y-108200824D01*
X159165174Y-108099747D01*
X159110908Y-107935984D01*
X159020340Y-107789150D01*
X158906371Y-107675181D01*
X158872886Y-107613858D01*
X158877870Y-107544166D01*
X158906371Y-107499819D01*
X158962556Y-107443634D01*
X159020340Y-107385850D01*
X159110908Y-107239016D01*
X159165174Y-107075253D01*
X159175500Y-106974177D01*
X159175499Y-106375824D01*
X159174929Y-106370247D01*
X159165174Y-106274747D01*
X159161273Y-106262976D01*
X159110908Y-106110984D01*
X159020340Y-105964150D01*
X158898350Y-105842160D01*
X158800671Y-105781911D01*
X158751518Y-105751593D01*
X158751513Y-105751591D01*
X158750069Y-105751112D01*
X158587753Y-105697326D01*
X158587751Y-105697325D01*
X158486678Y-105687000D01*
X157913330Y-105687000D01*
X157913312Y-105687001D01*
X157812247Y-105697325D01*
X157648484Y-105751592D01*
X157648481Y-105751593D01*
X157501648Y-105842161D01*
X157393129Y-105950681D01*
X157331806Y-105984166D01*
X157305448Y-105987000D01*
X156035967Y-105987000D01*
X155968928Y-105967315D01*
X155923173Y-105914511D01*
X155919785Y-105906334D01*
X155906296Y-105870169D01*
X155906293Y-105870164D01*
X155840226Y-105781911D01*
X155820046Y-105754954D01*
X155762354Y-105711765D01*
X155720484Y-105655833D01*
X155715500Y-105586141D01*
X155748985Y-105524818D01*
X155762354Y-105513234D01*
X155820046Y-105470046D01*
X155906296Y-105354831D01*
X155956591Y-105219983D01*
X155963000Y-105160373D01*
X155962999Y-104444046D01*
X155982683Y-104377008D01*
X156035487Y-104331253D01*
X156046040Y-104327007D01*
X156049522Y-104325789D01*
X156202262Y-104229816D01*
X156329816Y-104102262D01*
X156425789Y-103949522D01*
X156485368Y-103779255D01*
X156490073Y-103737498D01*
X156505565Y-103600003D01*
X156505565Y-103599996D01*
X156485369Y-103420750D01*
X156485368Y-103420745D01*
X156463940Y-103359507D01*
X156425789Y-103250478D01*
X156413747Y-103231314D01*
X156374719Y-103169200D01*
X156329816Y-103097738D01*
X156202262Y-102970184D01*
X156131769Y-102925890D01*
X156049524Y-102874212D01*
X156049520Y-102874210D01*
X156046034Y-102872990D01*
X156044090Y-102871595D01*
X156043254Y-102871193D01*
X156043324Y-102871046D01*
X155989262Y-102832263D01*
X155963520Y-102767308D01*
X155962999Y-102755952D01*
X155962999Y-102064629D01*
X155962998Y-102064623D01*
X155962997Y-102064616D01*
X155956591Y-102005017D01*
X155941451Y-101964425D01*
X155906297Y-101870171D01*
X155906293Y-101870164D01*
X155854623Y-101801143D01*
X155820046Y-101754954D01*
X155762354Y-101711765D01*
X155720484Y-101655833D01*
X155715500Y-101586141D01*
X155748985Y-101524818D01*
X155762354Y-101513234D01*
X155820046Y-101470046D01*
X155906296Y-101354831D01*
X155919785Y-101318666D01*
X155961657Y-101262733D01*
X156027121Y-101238316D01*
X156035967Y-101238000D01*
X156902048Y-101238000D01*
X156969087Y-101257685D01*
X156989723Y-101274313D01*
X157126641Y-101411232D01*
X157126642Y-101411233D01*
X157171124Y-101455715D01*
X157213769Y-101498360D01*
X157213771Y-101498361D01*
X157278798Y-101541811D01*
X157300477Y-101556296D01*
X157316214Y-101566811D01*
X157430048Y-101613963D01*
X157534931Y-101634825D01*
X157550888Y-101637999D01*
X157550892Y-101638000D01*
X157550893Y-101638000D01*
X157550894Y-101638000D01*
X158637273Y-101638000D01*
X158704312Y-101657685D01*
X158738848Y-101690877D01*
X158874001Y-101883896D01*
X158874006Y-101883902D01*
X159041097Y-102050993D01*
X159041103Y-102050998D01*
X159227094Y-102181230D01*
X159270719Y-102235807D01*
X159277913Y-102305305D01*
X159246390Y-102367660D01*
X159227095Y-102384380D01*
X159041422Y-102514390D01*
X159041420Y-102514391D01*
X158874391Y-102681420D01*
X158874386Y-102681426D01*
X158738900Y-102874920D01*
X158738899Y-102874922D01*
X158639070Y-103089007D01*
X158639067Y-103089013D01*
X158581864Y-103302499D01*
X158581864Y-103302500D01*
X159479488Y-103302500D01*
X159446575Y-103359507D01*
X159412500Y-103486674D01*
X159412500Y-103618326D01*
X159446575Y-103745493D01*
X159479488Y-103802500D01*
X158581864Y-103802500D01*
X158639067Y-104015986D01*
X158639070Y-104015992D01*
X158738899Y-104230078D01*
X158874394Y-104423582D01*
X159041417Y-104590605D01*
X159234921Y-104726100D01*
X159449007Y-104825929D01*
X159449016Y-104825933D01*
X159662500Y-104883134D01*
X159662500Y-103985512D01*
X159719507Y-104018425D01*
X159846674Y-104052500D01*
X159978326Y-104052500D01*
X160105493Y-104018425D01*
X160162500Y-103985512D01*
X160162500Y-104883133D01*
X160375983Y-104825933D01*
X160375992Y-104825929D01*
X160590078Y-104726100D01*
X160783582Y-104590605D01*
X160950605Y-104423582D01*
X161086100Y-104230078D01*
X161185929Y-104015992D01*
X161185932Y-104015986D01*
X161243136Y-103802500D01*
X160345512Y-103802500D01*
X160378425Y-103745493D01*
X160412500Y-103618326D01*
X160412500Y-103486674D01*
X160378425Y-103359507D01*
X160345512Y-103302500D01*
X161243136Y-103302500D01*
X161243135Y-103302499D01*
X161185932Y-103089013D01*
X161185929Y-103089007D01*
X161086100Y-102874922D01*
X161086099Y-102874920D01*
X160950613Y-102681426D01*
X160950608Y-102681420D01*
X160783578Y-102514390D01*
X160597905Y-102384379D01*
X160554280Y-102329802D01*
X160547088Y-102260304D01*
X160578610Y-102197949D01*
X160597906Y-102181230D01*
X160633647Y-102156204D01*
X160783901Y-102050995D01*
X160950995Y-101883901D01*
X161086535Y-101690330D01*
X161186403Y-101476163D01*
X161247563Y-101247908D01*
X161268159Y-101012500D01*
X161247563Y-100777092D01*
X161192164Y-100570338D01*
X161186405Y-100548844D01*
X161186404Y-100548843D01*
X161186403Y-100548837D01*
X161086535Y-100334671D01*
X161086152Y-100334123D01*
X160950994Y-100141097D01*
X160783902Y-99974006D01*
X160783896Y-99974001D01*
X160598342Y-99844075D01*
X160554717Y-99789498D01*
X160547523Y-99720000D01*
X160579046Y-99657645D01*
X160598342Y-99640925D01*
X160643030Y-99609634D01*
X160783901Y-99510995D01*
X160950995Y-99343901D01*
X161086152Y-99150877D01*
X161140729Y-99107252D01*
X161187727Y-99098000D01*
X161517812Y-99098000D01*
X161584851Y-99117685D01*
G37*
%TD.AperFunction*%
%TA.AperFunction,Conductor*%
G36*
X111043843Y-116405773D02*
G01*
X111099773Y-116447648D01*
X111124185Y-116513114D01*
X111124500Y-116521951D01*
X111124500Y-116842947D01*
X111127390Y-116879673D01*
X111127391Y-116879679D01*
X111173067Y-117036892D01*
X111173070Y-117036901D01*
X111176308Y-117042376D01*
X111193486Y-117110101D01*
X111176308Y-117168605D01*
X111173534Y-117173294D01*
X111173529Y-117173308D01*
X111128005Y-117329998D01*
X111128007Y-117330000D01*
X111399824Y-117330000D01*
X111462943Y-117347266D01*
X111513103Y-117376931D01*
X111513105Y-117376931D01*
X111513106Y-117376932D01*
X111513107Y-117376933D01*
X111670320Y-117422608D01*
X111670323Y-117422608D01*
X111670325Y-117422609D01*
X111707060Y-117425500D01*
X112356000Y-117425500D01*
X112423039Y-117445185D01*
X112468794Y-117497989D01*
X112480000Y-117549500D01*
X112480000Y-117610500D01*
X112460315Y-117677539D01*
X112407511Y-117723294D01*
X112356000Y-117734500D01*
X111707052Y-117734500D01*
X111670326Y-117737390D01*
X111670320Y-117737391D01*
X111513107Y-117783066D01*
X111513106Y-117783067D01*
X111513103Y-117783069D01*
X111474576Y-117805854D01*
X111462944Y-117812733D01*
X111399824Y-117830000D01*
X111128007Y-117830000D01*
X111128005Y-117830001D01*
X111145700Y-117890903D01*
X111145501Y-117960773D01*
X111107559Y-118019443D01*
X111043921Y-118048287D01*
X111026624Y-118049499D01*
X110865321Y-118049499D01*
X110798282Y-118029814D01*
X110759782Y-117990595D01*
X110758889Y-117989148D01*
X110720340Y-117926649D01*
X110681371Y-117887680D01*
X110647887Y-117826358D01*
X110652871Y-117756666D01*
X110681372Y-117712319D01*
X110696094Y-117697597D01*
X110720340Y-117673351D01*
X110810908Y-117526517D01*
X110865174Y-117362754D01*
X110875500Y-117261678D01*
X110875499Y-116588325D01*
X110870667Y-116541025D01*
X110883436Y-116472335D01*
X110906348Y-116440740D01*
X110912826Y-116434263D01*
X110974151Y-116400783D01*
X111043843Y-116405773D01*
G37*
%TD.AperFunction*%
%TA.AperFunction,Conductor*%
G36*
X122510966Y-115700868D02*
G01*
X122510966Y-115700000D01*
X122830685Y-115700000D01*
X122893806Y-115717268D01*
X122952102Y-115751744D01*
X122983906Y-115760984D01*
X123109926Y-115797597D01*
X123109929Y-115797597D01*
X123109931Y-115797598D01*
X123146806Y-115800500D01*
X123146814Y-115800500D01*
X123851000Y-115800500D01*
X123918039Y-115820185D01*
X123963794Y-115872989D01*
X123975000Y-115924500D01*
X123975000Y-115975500D01*
X123955315Y-116042539D01*
X123902511Y-116088294D01*
X123851000Y-116099500D01*
X123146798Y-116099500D01*
X123109932Y-116102401D01*
X123109926Y-116102402D01*
X122952106Y-116148254D01*
X122952103Y-116148255D01*
X122893806Y-116182732D01*
X122830685Y-116200000D01*
X122565204Y-116200000D01*
X122537381Y-116230098D01*
X122477420Y-116265964D01*
X122407586Y-116263719D01*
X122350052Y-116224076D01*
X122347060Y-116220237D01*
X122307547Y-116167456D01*
X122307548Y-116167456D01*
X122307546Y-116167454D01*
X122256532Y-116129265D01*
X122214663Y-116073333D01*
X122209679Y-116003641D01*
X122243164Y-115942318D01*
X122256528Y-115930737D01*
X122307546Y-115892546D01*
X122393796Y-115777331D01*
X122393797Y-115777326D01*
X122398047Y-115769546D01*
X122399599Y-115770393D01*
X122435050Y-115723023D01*
X122500511Y-115698596D01*
X122510966Y-115700868D01*
G37*
%TD.AperFunction*%
%TA.AperFunction,Conductor*%
G36*
X133476780Y-111882809D02*
G01*
X133532714Y-111924679D01*
X133557132Y-111990143D01*
X133548011Y-112046440D01*
X133546605Y-112049834D01*
X133546603Y-112049841D01*
X133512000Y-112223803D01*
X133512000Y-112401196D01*
X133546603Y-112575158D01*
X133546603Y-112575160D01*
X133546604Y-112575163D01*
X133546605Y-112575166D01*
X133566487Y-112623164D01*
X133614486Y-112739045D01*
X133634304Y-112768704D01*
X133713036Y-112886536D01*
X133875682Y-113049181D01*
X133909166Y-113110502D01*
X133912000Y-113136861D01*
X133912000Y-113485204D01*
X133892315Y-113552243D01*
X133839511Y-113597998D01*
X133775398Y-113608562D01*
X133686679Y-113599499D01*
X133113330Y-113599499D01*
X133113312Y-113599500D01*
X133012247Y-113609824D01*
X132848484Y-113664091D01*
X132848477Y-113664094D01*
X132760210Y-113718538D01*
X132695114Y-113736999D01*
X131404886Y-113736999D01*
X131339790Y-113718538D01*
X131251522Y-113664094D01*
X131251517Y-113664092D01*
X131251516Y-113664091D01*
X131087753Y-113609825D01*
X131087751Y-113609824D01*
X130986684Y-113599499D01*
X130749096Y-113599499D01*
X130682057Y-113579814D01*
X130636302Y-113527010D01*
X130626358Y-113457852D01*
X130655383Y-113394296D01*
X130661401Y-113387832D01*
X132120897Y-111928337D01*
X132182220Y-111894852D01*
X132251912Y-111899836D01*
X132296259Y-111928337D01*
X132310238Y-111942316D01*
X132462978Y-112038289D01*
X132602706Y-112087182D01*
X132633245Y-112097868D01*
X132633250Y-112097869D01*
X132812496Y-112118065D01*
X132812500Y-112118065D01*
X132812504Y-112118065D01*
X132991749Y-112097869D01*
X132991752Y-112097868D01*
X132991755Y-112097868D01*
X133162022Y-112038289D01*
X133314762Y-111942316D01*
X133345768Y-111911309D01*
X133407088Y-111877825D01*
X133476780Y-111882809D01*
G37*
%TD.AperFunction*%
%TA.AperFunction,Conductor*%
G36*
X135373267Y-108258440D02*
G01*
X135380706Y-108265296D01*
X137225681Y-110110271D01*
X137259166Y-110171594D01*
X137262000Y-110197952D01*
X137262000Y-111160370D01*
X137262001Y-111160376D01*
X137268408Y-111219983D01*
X137318702Y-111354828D01*
X137318706Y-111354835D01*
X137404952Y-111470044D01*
X137404953Y-111470044D01*
X137404954Y-111470046D01*
X137431950Y-111490255D01*
X137462645Y-111513234D01*
X137504515Y-111569168D01*
X137509499Y-111638860D01*
X137476013Y-111700183D01*
X137462645Y-111711766D01*
X137404952Y-111754955D01*
X137318706Y-111870164D01*
X137318702Y-111870171D01*
X137268408Y-112005017D01*
X137262001Y-112064616D01*
X137262000Y-112064635D01*
X137262000Y-113038137D01*
X137242315Y-113105176D01*
X137225681Y-113125818D01*
X136666746Y-113684753D01*
X136605423Y-113718238D01*
X136535731Y-113713254D01*
X136513970Y-113702611D01*
X136451527Y-113664097D01*
X136451520Y-113664093D01*
X136451516Y-113664091D01*
X136287753Y-113609825D01*
X136287751Y-113609824D01*
X136186684Y-113599499D01*
X136186677Y-113599499D01*
X135837000Y-113599499D01*
X135769961Y-113579814D01*
X135724206Y-113527010D01*
X135713000Y-113475499D01*
X135713000Y-112623806D01*
X135712999Y-112623804D01*
X135678396Y-112449841D01*
X135678393Y-112449832D01*
X135666014Y-112419947D01*
X135646861Y-112373706D01*
X135610516Y-112285959D01*
X135610509Y-112285946D01*
X135511965Y-112138466D01*
X135460681Y-112087182D01*
X135386535Y-112013036D01*
X135192015Y-111818516D01*
X134994770Y-111621270D01*
X134961285Y-111559947D01*
X134966269Y-111490255D01*
X135008141Y-111434322D01*
X135020329Y-111427026D01*
X135020156Y-111426745D01*
X135173034Y-111332447D01*
X135173038Y-111332444D01*
X135294944Y-111210538D01*
X135294947Y-111210534D01*
X135385448Y-111063811D01*
X135385453Y-111063800D01*
X135439680Y-110900152D01*
X135449999Y-110799154D01*
X135450000Y-110799141D01*
X135450000Y-110762500D01*
X134286500Y-110762500D01*
X134219461Y-110742815D01*
X134173706Y-110690011D01*
X134162500Y-110638500D01*
X134162500Y-110262500D01*
X134662500Y-110262500D01*
X135449999Y-110262500D01*
X135449999Y-110225860D01*
X135449998Y-110225845D01*
X135439680Y-110124847D01*
X135385453Y-109961199D01*
X135385448Y-109961188D01*
X135294947Y-109814465D01*
X135294944Y-109814461D01*
X135173038Y-109692555D01*
X135173034Y-109692552D01*
X135026311Y-109602051D01*
X135026300Y-109602046D01*
X134862652Y-109547819D01*
X134761654Y-109537500D01*
X134662500Y-109537500D01*
X134662500Y-110262500D01*
X134162500Y-110262500D01*
X134162500Y-109508383D01*
X134182185Y-109441344D01*
X134221403Y-109402845D01*
X134335534Y-109332447D01*
X134335538Y-109332444D01*
X134457444Y-109210538D01*
X134457447Y-109210534D01*
X134547948Y-109063811D01*
X134547953Y-109063800D01*
X134602180Y-108900152D01*
X134612499Y-108799153D01*
X134612499Y-108758586D01*
X134632182Y-108691546D01*
X134684985Y-108645790D01*
X134695529Y-108641547D01*
X134862022Y-108583289D01*
X135014762Y-108487316D01*
X135142316Y-108359762D01*
X135188032Y-108287004D01*
X135240365Y-108240714D01*
X135309418Y-108230065D01*
X135373267Y-108258440D01*
G37*
%TD.AperFunction*%
%TA.AperFunction,Conductor*%
G36*
X126415039Y-109392684D02*
G01*
X126460794Y-109445488D01*
X126472000Y-109496999D01*
X126472000Y-109940370D01*
X126472001Y-109940376D01*
X126478408Y-109999983D01*
X126528702Y-110134828D01*
X126528703Y-110134830D01*
X126560167Y-110176860D01*
X126584584Y-110242324D01*
X126569733Y-110310597D01*
X126566439Y-110316268D01*
X126477047Y-110461194D01*
X126477045Y-110461199D01*
X126422818Y-110624847D01*
X126412499Y-110725845D01*
X126412499Y-110762500D01*
X127575999Y-110762500D01*
X127643038Y-110782185D01*
X127688793Y-110834989D01*
X127699999Y-110886500D01*
X127699999Y-111987499D01*
X127799139Y-111987499D01*
X127799153Y-111987498D01*
X127900151Y-111977180D01*
X128063799Y-111922953D01*
X128063810Y-111922948D01*
X128210534Y-111832447D01*
X128224460Y-111818520D01*
X128285782Y-111785032D01*
X128355473Y-111790013D01*
X128399827Y-111818516D01*
X128414151Y-111832840D01*
X128560985Y-111923408D01*
X128724748Y-111977674D01*
X128825824Y-111988000D01*
X129524177Y-111987999D01*
X129524185Y-111987998D01*
X129524188Y-111987998D01*
X129590501Y-111981224D01*
X129625254Y-111977674D01*
X129789017Y-111923408D01*
X129935851Y-111832840D01*
X130057841Y-111710850D01*
X130148409Y-111564016D01*
X130202675Y-111400253D01*
X130213001Y-111299177D01*
X130213000Y-110725824D01*
X130208017Y-110677047D01*
X130202675Y-110624747D01*
X130196781Y-110606961D01*
X130148409Y-110460984D01*
X130057841Y-110314150D01*
X130048932Y-110305241D01*
X130015447Y-110243918D01*
X130020431Y-110174226D01*
X130062303Y-110118293D01*
X130095663Y-110100517D01*
X130097899Y-110099734D01*
X130102024Y-110098291D01*
X130231385Y-110017007D01*
X130297357Y-109998002D01*
X130484106Y-109998002D01*
X130484106Y-109998001D01*
X130548476Y-109985198D01*
X130548477Y-109985198D01*
X130562691Y-109982370D01*
X130604950Y-109973965D01*
X130650617Y-109955049D01*
X130718784Y-109926814D01*
X130789353Y-109879660D01*
X130821231Y-109858360D01*
X130908356Y-109771235D01*
X130908357Y-109771233D01*
X130915423Y-109764167D01*
X130915426Y-109764163D01*
X130996229Y-109683360D01*
X130996233Y-109683358D01*
X131083358Y-109596233D01*
X131128655Y-109528442D01*
X131153105Y-109491850D01*
X131206717Y-109447044D01*
X131276042Y-109438337D01*
X131295211Y-109443034D01*
X131399747Y-109477674D01*
X131500823Y-109488000D01*
X131831448Y-109487999D01*
X131898487Y-109507683D01*
X131944242Y-109560487D01*
X131954186Y-109629646D01*
X131925161Y-109693201D01*
X131919130Y-109699680D01*
X131804659Y-109814151D01*
X131714093Y-109960981D01*
X131714091Y-109960986D01*
X131693830Y-110022129D01*
X131659826Y-110124747D01*
X131659826Y-110124748D01*
X131659825Y-110124748D01*
X131649500Y-110225815D01*
X131649500Y-110649902D01*
X131629815Y-110716941D01*
X131613181Y-110737583D01*
X129920086Y-112430679D01*
X129858763Y-112464164D01*
X129832405Y-112466998D01*
X127067596Y-112466998D01*
X127000557Y-112447313D01*
X126979915Y-112430679D01*
X126636418Y-112087182D01*
X126602933Y-112025859D01*
X126607917Y-111956167D01*
X126649789Y-111900234D01*
X126715253Y-111875817D01*
X126783526Y-111890669D01*
X126789197Y-111893963D01*
X126836191Y-111922950D01*
X126836198Y-111922953D01*
X126999846Y-111977180D01*
X127100850Y-111987499D01*
X127199999Y-111987498D01*
X127199999Y-111262500D01*
X126412500Y-111262500D01*
X126412500Y-111299154D01*
X126422818Y-111400152D01*
X126477045Y-111563800D01*
X126477050Y-111563811D01*
X126506035Y-111610802D01*
X126524476Y-111678194D01*
X126503554Y-111744858D01*
X126449912Y-111789627D01*
X126380581Y-111798289D01*
X126317574Y-111768093D01*
X126312816Y-111763580D01*
X125868685Y-111319449D01*
X125835200Y-111258126D01*
X125838660Y-111192764D01*
X125865174Y-111112752D01*
X125875500Y-111011676D01*
X125875499Y-110338323D01*
X125865174Y-110237246D01*
X125810908Y-110073483D01*
X125720340Y-109926649D01*
X125681371Y-109887680D01*
X125647887Y-109826358D01*
X125652871Y-109756666D01*
X125681372Y-109712319D01*
X125700490Y-109693201D01*
X125720340Y-109673351D01*
X125810908Y-109526517D01*
X125833614Y-109457991D01*
X125873383Y-109400552D01*
X125937898Y-109373727D01*
X125951301Y-109372999D01*
X126348000Y-109372999D01*
X126415039Y-109392684D01*
G37*
%TD.AperFunction*%
%TA.AperFunction,Conductor*%
G36*
X133768039Y-108357685D02*
G01*
X133813794Y-108410489D01*
X133825000Y-108462000D01*
X133825000Y-109516616D01*
X133805315Y-109583655D01*
X133766098Y-109622154D01*
X133651963Y-109692553D01*
X133638032Y-109706485D01*
X133576708Y-109739968D01*
X133507016Y-109734982D01*
X133462672Y-109706482D01*
X133448350Y-109692160D01*
X133448346Y-109692157D01*
X133378949Y-109649352D01*
X133332224Y-109597404D01*
X133321003Y-109528442D01*
X133325000Y-109519242D01*
X133325000Y-108462000D01*
X133344685Y-108394961D01*
X133397489Y-108349206D01*
X133449000Y-108338000D01*
X133701000Y-108338000D01*
X133768039Y-108357685D01*
G37*
%TD.AperFunction*%
%TD*%
M02*
