%TF.GenerationSoftware,KiCad,Pcbnew,8.0.9-1.fc41*%
%TF.CreationDate,2025-06-12T13:42:16-04:00*%
%TF.ProjectId,OS-41,4f532d34-312e-46b6-9963-61645f706362,rev?*%
%TF.SameCoordinates,Original*%
%TF.FileFunction,Copper,L1,Top*%
%TF.FilePolarity,Positive*%
%FSLAX46Y46*%
G04 Gerber Fmt 4.6, Leading zero omitted, Abs format (unit mm)*
G04 Created by KiCad (PCBNEW 8.0.9-1.fc41) date 2025-06-12 13:42:16*
%MOMM*%
%LPD*%
G01*
G04 APERTURE LIST*
G04 Aperture macros list*
%AMRoundRect*
0 Rectangle with rounded corners*
0 $1 Rounding radius*
0 $2 $3 $4 $5 $6 $7 $8 $9 X,Y pos of 4 corners*
0 Add a 4 corners polygon primitive as box body*
4,1,4,$2,$3,$4,$5,$6,$7,$8,$9,$2,$3,0*
0 Add four circle primitives for the rounded corners*
1,1,$1+$1,$2,$3*
1,1,$1+$1,$4,$5*
1,1,$1+$1,$6,$7*
1,1,$1+$1,$8,$9*
0 Add four rect primitives between the rounded corners*
20,1,$1+$1,$2,$3,$4,$5,0*
20,1,$1+$1,$4,$5,$6,$7,0*
20,1,$1+$1,$6,$7,$8,$9,0*
20,1,$1+$1,$8,$9,$2,$3,0*%
G04 Aperture macros list end*
%TA.AperFunction,SMDPad,CuDef*%
%ADD10RoundRect,0.237500X-0.300000X-0.237500X0.300000X-0.237500X0.300000X0.237500X-0.300000X0.237500X0*%
%TD*%
%TA.AperFunction,SMDPad,CuDef*%
%ADD11RoundRect,0.062500X0.062500X-0.287500X0.062500X0.287500X-0.062500X0.287500X-0.062500X-0.287500X0*%
%TD*%
%TA.AperFunction,SMDPad,CuDef*%
%ADD12RoundRect,0.062500X0.287500X-0.062500X0.287500X0.062500X-0.287500X0.062500X-0.287500X-0.062500X0*%
%TD*%
%TA.AperFunction,SMDPad,CuDef*%
%ADD13RoundRect,0.135000X1.215000X-1.215000X1.215000X1.215000X-1.215000X1.215000X-1.215000X-1.215000X0*%
%TD*%
%TA.AperFunction,SMDPad,CuDef*%
%ADD14RoundRect,0.237500X-0.237500X0.250000X-0.237500X-0.250000X0.237500X-0.250000X0.237500X0.250000X0*%
%TD*%
%TA.AperFunction,SMDPad,CuDef*%
%ADD15RoundRect,0.237500X-0.237500X0.287500X-0.237500X-0.287500X0.237500X-0.287500X0.237500X0.287500X0*%
%TD*%
%TA.AperFunction,SMDPad,CuDef*%
%ADD16RoundRect,0.237500X0.237500X-0.250000X0.237500X0.250000X-0.237500X0.250000X-0.237500X-0.250000X0*%
%TD*%
%TA.AperFunction,SMDPad,CuDef*%
%ADD17R,1.200000X1.400000*%
%TD*%
%TA.AperFunction,ComponentPad*%
%ADD18R,1.700000X1.700000*%
%TD*%
%TA.AperFunction,ComponentPad*%
%ADD19O,1.700000X1.700000*%
%TD*%
%TA.AperFunction,SMDPad,CuDef*%
%ADD20RoundRect,0.160000X0.160000X-0.222500X0.160000X0.222500X-0.160000X0.222500X-0.160000X-0.222500X0*%
%TD*%
%TA.AperFunction,SMDPad,CuDef*%
%ADD21R,3.500000X1.750000*%
%TD*%
%TA.AperFunction,SMDPad,CuDef*%
%ADD22RoundRect,0.250000X-0.450000X0.325000X-0.450000X-0.325000X0.450000X-0.325000X0.450000X0.325000X0*%
%TD*%
%TA.AperFunction,SMDPad,CuDef*%
%ADD23RoundRect,0.237500X0.300000X0.237500X-0.300000X0.237500X-0.300000X-0.237500X0.300000X-0.237500X0*%
%TD*%
%TA.AperFunction,SMDPad,CuDef*%
%ADD24R,0.300000X0.300000*%
%TD*%
%TA.AperFunction,ComponentPad*%
%ADD25C,2.050000*%
%TD*%
%TA.AperFunction,ComponentPad*%
%ADD26C,2.250000*%
%TD*%
%TA.AperFunction,SMDPad,CuDef*%
%ADD27RoundRect,0.150000X0.150000X-0.512500X0.150000X0.512500X-0.150000X0.512500X-0.150000X-0.512500X0*%
%TD*%
%TA.AperFunction,SMDPad,CuDef*%
%ADD28RoundRect,0.237500X-0.250000X-0.237500X0.250000X-0.237500X0.250000X0.237500X-0.250000X0.237500X0*%
%TD*%
%TA.AperFunction,SMDPad,CuDef*%
%ADD29RoundRect,0.237500X0.237500X-0.300000X0.237500X0.300000X-0.237500X0.300000X-0.237500X-0.300000X0*%
%TD*%
%TA.AperFunction,SMDPad,CuDef*%
%ADD30R,1.000000X1.800000*%
%TD*%
%TA.AperFunction,SMDPad,CuDef*%
%ADD31RoundRect,0.237500X0.250000X0.237500X-0.250000X0.237500X-0.250000X-0.237500X0.250000X-0.237500X0*%
%TD*%
%TA.AperFunction,SMDPad,CuDef*%
%ADD32O,0.700000X1.770000*%
%TD*%
%TA.AperFunction,SMDPad,CuDef*%
%ADD33RoundRect,0.237500X-0.237500X0.300000X-0.237500X-0.300000X0.237500X-0.300000X0.237500X0.300000X0*%
%TD*%
%TA.AperFunction,SMDPad,CuDef*%
%ADD34RoundRect,0.062500X-0.375000X-0.062500X0.375000X-0.062500X0.375000X0.062500X-0.375000X0.062500X0*%
%TD*%
%TA.AperFunction,SMDPad,CuDef*%
%ADD35RoundRect,0.062500X-0.062500X-0.375000X0.062500X-0.375000X0.062500X0.375000X-0.062500X0.375000X0*%
%TD*%
%TA.AperFunction,HeatsinkPad*%
%ADD36R,5.600000X5.600000*%
%TD*%
%TA.AperFunction,SMDPad,CuDef*%
%ADD37R,1.168400X2.209800*%
%TD*%
%TA.AperFunction,SMDPad,CuDef*%
%ADD38RoundRect,0.237500X-0.287500X-0.237500X0.287500X-0.237500X0.287500X0.237500X-0.287500X0.237500X0*%
%TD*%
%TA.AperFunction,SMDPad,CuDef*%
%ADD39RoundRect,0.237500X0.237500X-0.287500X0.237500X0.287500X-0.237500X0.287500X-0.237500X-0.287500X0*%
%TD*%
%TA.AperFunction,SMDPad,CuDef*%
%ADD40RoundRect,0.155000X0.212500X0.155000X-0.212500X0.155000X-0.212500X-0.155000X0.212500X-0.155000X0*%
%TD*%
%TA.AperFunction,ViaPad*%
%ADD41C,0.600000*%
%TD*%
%TA.AperFunction,Conductor*%
%ADD42C,1.000000*%
%TD*%
%TA.AperFunction,Conductor*%
%ADD43C,0.200000*%
%TD*%
%TA.AperFunction,Conductor*%
%ADD44C,0.250000*%
%TD*%
%TA.AperFunction,Conductor*%
%ADD45C,0.100000*%
%TD*%
%TA.AperFunction,Conductor*%
%ADD46C,0.800000*%
%TD*%
%TA.AperFunction,Conductor*%
%ADD47C,0.700000*%
%TD*%
%TA.AperFunction,Conductor*%
%ADD48C,0.300000*%
%TD*%
G04 APERTURE END LIST*
D10*
%TO.P,C2,1*%
%TO.N,GND*%
X135175000Y-124200000D03*
%TO.P,C2,2*%
%TO.N,Net-(C2-Pad2)*%
X136900000Y-124200000D03*
%TD*%
D11*
%TO.P,U2,1,VDD_RF*%
%TO.N,VCC*%
X138000000Y-115875000D03*
%TO.P,U2,2,TX*%
%TO.N,Net-(U2-TX)*%
X138500000Y-115875000D03*
%TO.P,U2,3,RXP*%
%TO.N,unconnected-(U2-RXP-Pad3)*%
X139000000Y-115875000D03*
%TO.P,U2,4,RXN*%
%TO.N,unconnected-(U2-RXN-Pad4)*%
X139500000Y-115875000D03*
%TO.P,U2,5,NC_1*%
%TO.N,unconnected-(U2-NC_1-Pad5)*%
X140000000Y-115875000D03*
D12*
%TO.P,U2,6,ANT*%
%TO.N,unconnected-(U2-ANT-Pad6)*%
X140975000Y-114900000D03*
%TO.P,U2,7,GPIO_0*%
%TO.N,unconnected-(U2-GPIO_0-Pad7)*%
X140975000Y-114400000D03*
%TO.P,U2,8,GPIO_1*%
%TO.N,unconnected-(U2-GPIO_1-Pad8)*%
X140975000Y-113900000D03*
%TO.P,U2,9,GPIO_2*%
%TO.N,unconnected-(U2-GPIO_2-Pad9)*%
X140975000Y-113400000D03*
%TO.P,U2,10,VR_DIG*%
%TO.N,Net-(U2-VR_DIG)*%
X140975000Y-112900000D03*
D11*
%TO.P,U2,11,NC_2*%
%TO.N,unconnected-(U2-NC_2-Pad11)*%
X140000000Y-111925000D03*
%TO.P,U2,12,VDD_DIG*%
%TO.N,VCC*%
X139500000Y-111925000D03*
%TO.P,U2,13,SDO*%
%TO.N,SDO*%
X139000000Y-111925000D03*
%TO.P,U2,14,SDI*%
%TO.N,SDI*%
X138500000Y-111925000D03*
%TO.P,U2,15,SCLK*%
%TO.N,SCLK*%
X138000000Y-111925000D03*
D12*
%TO.P,U2,16,NSEL*%
%TO.N,NSEL*%
X137025000Y-112900000D03*
%TO.P,U2,17,NIRQ*%
%TO.N,NIRQ*%
X137025000Y-113400000D03*
%TO.P,U2,18,XOUT*%
%TO.N,Net-(U2-XOUT)*%
X137025000Y-113900000D03*
%TO.P,U2,19,XIN*%
%TO.N,Net-(U2-XIN)*%
X137025000Y-114400000D03*
%TO.P,U2,20,SDN*%
%TO.N,SDN*%
X137025000Y-114900000D03*
D13*
%TO.P,U2,21,EP*%
%TO.N,GND*%
X139000000Y-113900000D03*
%TD*%
D14*
%TO.P,R13,1*%
%TO.N,VCC*%
X134200000Y-93987500D03*
%TO.P,R13,2*%
%TO.N,SDA*%
X134200000Y-95812500D03*
%TD*%
D15*
%TO.P,L3,1,1*%
%TO.N,Net-(C1-Pad2)*%
X138500000Y-120925001D03*
%TO.P,L3,2,2*%
%TO.N,Net-(C2-Pad2)*%
X138500000Y-122674999D03*
%TD*%
%TO.P,L4,1,1*%
%TO.N,Net-(C2-Pad2)*%
X138500000Y-124225001D03*
%TO.P,L4,2,2*%
%TO.N,Net-(C3-Pad2)*%
X138500000Y-125974999D03*
%TD*%
D16*
%TO.P,R5,1*%
%TO.N,BOOT0*%
X129600000Y-97712500D03*
%TO.P,R5,2*%
%TO.N,GND*%
X129600000Y-95887500D03*
%TD*%
D17*
%TO.P,Y1,1,1*%
%TO.N,OSC_OUT*%
X131900000Y-108800000D03*
%TO.P,Y1,2,2*%
%TO.N,GND*%
X131900000Y-106600000D03*
%TO.P,Y1,3,3*%
%TO.N,OSC_IN*%
X130200000Y-106600000D03*
%TO.P,Y1,4,4*%
%TO.N,GND*%
X130200000Y-108800000D03*
%TD*%
D18*
%TO.P,J2,1,Pin_1*%
%TO.N,VCC*%
X148200000Y-111960000D03*
D19*
%TO.P,J2,2,Pin_2*%
%TO.N,GND*%
X148200000Y-114500000D03*
%TD*%
D14*
%TO.P,R7,1*%
%TO.N,NRST*%
X126900000Y-111775000D03*
%TO.P,R7,2*%
%TO.N,VCC*%
X126900000Y-113600000D03*
%TD*%
D10*
%TO.P,C8,1*%
%TO.N,Net-(U2-VR_DIG)*%
X142637500Y-112900000D03*
%TO.P,C8,2*%
%TO.N,GND*%
X144362500Y-112900000D03*
%TD*%
D20*
%TO.P,L9,1,1*%
%TO.N,GND*%
X138850000Y-82822501D03*
%TO.P,L9,2,2*%
%TO.N,Net-(U4-RF_IN)*%
X138850000Y-81677499D03*
%TD*%
D21*
%TO.P,L6,1,1*%
%TO.N,BATT*%
X142100000Y-125330000D03*
%TO.P,L6,2,2*%
%TO.N,Net-(U3-SW)*%
X142100000Y-128070000D03*
%TD*%
D22*
%TO.P,D1,1,K*%
%TO.N,GND*%
X127800000Y-86900002D03*
%TO.P,D1,2,A*%
%TO.N,Net-(D1-A)*%
X127800000Y-88950000D03*
%TD*%
D23*
%TO.P,C13,1*%
%TO.N,VCC*%
X145462501Y-117400000D03*
%TO.P,C13,2*%
%TO.N,GND*%
X143737499Y-117400000D03*
%TD*%
D24*
%TO.P,U6,1,VDDIO*%
%TO.N,VCC*%
X136420000Y-97750000D03*
%TO.P,U6,2,SCK*%
%TO.N,SCL*%
X136420000Y-98250000D03*
%TO.P,U6,3,GND*%
%TO.N,GND*%
X136700000Y-98780000D03*
%TO.P,U6,4,SDI*%
%TO.N,SDA*%
X137200000Y-98780000D03*
%TO.P,U6,5,SDO*%
%TO.N,Net-(U6-SDO)*%
X137700000Y-98780000D03*
%TO.P,U6,6,CSB*%
%TO.N,Net-(U6-CSB)*%
X137980000Y-98250000D03*
%TO.P,U6,7,INT*%
%TO.N,unconnected-(U6-INT-Pad7)*%
X137980000Y-97750000D03*
%TO.P,U6,8,GND*%
%TO.N,GND*%
X137700000Y-97220000D03*
%TO.P,U6,9,GND*%
X137200000Y-97220000D03*
%TO.P,U6,10,VDD*%
%TO.N,VCC*%
X136700000Y-97220000D03*
%TD*%
D25*
%TO.P,J4,1,In*%
%TO.N,Net-(J4-In)*%
X132560000Y-129260000D03*
D26*
%TO.P,J4,2,Ext*%
%TO.N,GND*%
X130020000Y-126720000D03*
X130020000Y-131800000D03*
X135100000Y-126720000D03*
X135100000Y-131800000D03*
%TD*%
D22*
%TO.P,D3,1,K*%
%TO.N,GND*%
X134400000Y-86900002D03*
%TO.P,D3,2,A*%
%TO.N,Net-(D3-A)*%
X134400000Y-88950000D03*
%TD*%
D10*
%TO.P,C9,1*%
%TO.N,VCC*%
X142700000Y-111200000D03*
%TO.P,C9,2*%
%TO.N,GND*%
X144425000Y-111200000D03*
%TD*%
D27*
%TO.P,U3,1,SW*%
%TO.N,Net-(U3-SW)*%
X145265002Y-127875000D03*
%TO.P,U3,2,GND*%
%TO.N,GND*%
X146215001Y-127875000D03*
%TO.P,U3,3,EN*%
%TO.N,BATT*%
X147165000Y-127875000D03*
%TO.P,U3,4,V_{FB}*%
%TO.N,Net-(U3-V_{FB})*%
X147165000Y-125600000D03*
%TO.P,U3,5,V_{OUT}*%
%TO.N,VCC*%
X146215001Y-125600000D03*
%TO.P,U3,6,V_{IN}*%
%TO.N,BATT*%
X145265002Y-125600000D03*
%TD*%
D28*
%TO.P,R4,1*%
%TO.N,Net-(U3-V_{FB})*%
X147175000Y-123800000D03*
%TO.P,R4,2*%
%TO.N,GND*%
X149000000Y-123800000D03*
%TD*%
D18*
%TO.P,J9,1,Pin_1*%
%TO.N,GND*%
X126900000Y-106660000D03*
D19*
%TO.P,J9,2,Pin_2*%
%TO.N,NRST*%
X126900000Y-109200000D03*
%TD*%
D18*
%TO.P,J3,1,Pin_1*%
%TO.N,BATT*%
X145225000Y-132000000D03*
D19*
%TO.P,J3,2,Pin_2*%
%TO.N,GND*%
X147765000Y-132000000D03*
%TD*%
D23*
%TO.P,C12,1*%
%TO.N,VCC*%
X145425001Y-120100000D03*
%TO.P,C12,2*%
%TO.N,GND*%
X143699999Y-120100000D03*
%TD*%
D29*
%TO.P,C3,1*%
%TO.N,GND*%
X140200000Y-131762501D03*
%TO.P,C3,2*%
%TO.N,Net-(C3-Pad2)*%
X140200000Y-130037499D03*
%TD*%
D23*
%TO.P,C23,1*%
%TO.N,OSC_OUT*%
X131862501Y-110700000D03*
%TO.P,C23,2*%
%TO.N,GND*%
X130137499Y-110700000D03*
%TD*%
D29*
%TO.P,C11,1*%
%TO.N,VCC*%
X141100000Y-119162501D03*
%TO.P,C11,2*%
%TO.N,GND*%
X141100000Y-117437499D03*
%TD*%
D30*
%TO.P,Y2,1,1*%
%TO.N,OSC32_OUT*%
X130650001Y-100600000D03*
%TO.P,Y2,2,2*%
%TO.N,OSC32_IN*%
X133149999Y-100600000D03*
%TD*%
D10*
%TO.P,C1,1*%
%TO.N,Net-(C1-Pad1)*%
X135100000Y-120100000D03*
%TO.P,C1,2*%
%TO.N,Net-(C1-Pad2)*%
X136825000Y-120100000D03*
%TD*%
D29*
%TO.P,C5,1*%
%TO.N,GND*%
X149000000Y-129362501D03*
%TO.P,C5,2*%
%TO.N,BATT*%
X149000000Y-127637499D03*
%TD*%
D31*
%TO.P,R6,1*%
%TO.N,PB2*%
X129200000Y-118000000D03*
%TO.P,R6,2*%
%TO.N,GND*%
X127375000Y-118000000D03*
%TD*%
D10*
%TO.P,C24,1*%
%TO.N,OSC_IN*%
X130137500Y-104600000D03*
%TO.P,C24,2*%
%TO.N,GND*%
X131862500Y-104600000D03*
%TD*%
D32*
%TO.P,U4,1,GND*%
%TO.N,GND*%
X139200000Y-96120001D03*
%TO.P,U4,2,TXD*%
%TO.N,TXD*%
X140300000Y-96120001D03*
%TO.P,U4,3,RXD*%
%TO.N,RXD*%
X141400000Y-96120002D03*
%TO.P,U4,4,1PPS*%
%TO.N,unconnected-(U4-1PPS-Pad4)*%
X142500000Y-96120001D03*
%TO.P,U4,5,ON/OFF*%
%TO.N,GPSPAUSE*%
X143600000Y-96120002D03*
%TO.P,U4,6,VBAT*%
%TO.N,VCC*%
X144700000Y-96120001D03*
%TO.P,U4,7,NC*%
%TO.N,unconnected-(U4-NC-Pad7)*%
X145800000Y-96120002D03*
%TO.P,U4,8,VCC*%
%TO.N,VCC*%
X146900000Y-96120001D03*
%TO.P,U4,9,NRESET*%
X148000000Y-96120001D03*
%TO.P,U4,10,GND*%
%TO.N,GND*%
X148000000Y-86500001D03*
%TO.P,U4,11,RF_IN*%
%TO.N,Net-(U4-RF_IN)*%
X146900000Y-86500001D03*
%TO.P,U4,12,GND*%
%TO.N,GND*%
X145800000Y-86500000D03*
%TO.P,U4,13,NC*%
%TO.N,unconnected-(U4-NC-Pad13)*%
X144700000Y-86500001D03*
%TO.P,U4,14,VCC_RF*%
%TO.N,unconnected-(U4-VCC_RF-Pad14)*%
X143600000Y-86500000D03*
%TO.P,U4,15,Reserved*%
%TO.N,unconnected-(U4-Reserved-Pad15)*%
X142500000Y-86500001D03*
%TO.P,U4,16,SDA*%
%TO.N,unconnected-(U4-SDA-Pad16)*%
X141400000Y-86500000D03*
%TO.P,U4,17,SCL*%
%TO.N,unconnected-(U4-SCL-Pad17)*%
X140300000Y-86500001D03*
%TO.P,U4,18,Reserved*%
%TO.N,unconnected-(U4-Reserved-Pad18)*%
X139200000Y-86500001D03*
%TD*%
D33*
%TO.P,C22,1*%
%TO.N,NRST*%
X126900000Y-120937499D03*
%TO.P,C22,2*%
%TO.N,GND*%
X126900000Y-122662501D03*
%TD*%
D23*
%TO.P,C25,1*%
%TO.N,OSC32_OUT*%
X130462501Y-102500000D03*
%TO.P,C25,2*%
%TO.N,GND*%
X128737499Y-102500000D03*
%TD*%
D34*
%TO.P,U7,1,VBAT*%
%TO.N,VCC*%
X136300000Y-102300000D03*
%TO.P,U7,2,PC13*%
%TO.N,LED_OK*%
X136300000Y-102800000D03*
%TO.P,U7,3,RCC_OSC32_IN*%
%TO.N,OSC32_IN*%
X136300000Y-103300000D03*
%TO.P,U7,4,RCC_OSC32_OUT*%
%TO.N,OSC32_OUT*%
X136300000Y-103800000D03*
%TO.P,U7,5,RCC_OSC_IN*%
%TO.N,OSC_IN*%
X136300000Y-104300000D03*
%TO.P,U7,6,RCC_OSC_OUT*%
%TO.N,OSC_OUT*%
X136300000Y-104800000D03*
%TO.P,U7,7,NRST*%
%TO.N,NRST*%
X136300000Y-105300000D03*
%TO.P,U7,8,VSSA*%
%TO.N,GND*%
X136300000Y-105800000D03*
%TO.P,U7,9,VDDA*%
%TO.N,VREF*%
X136300000Y-106300000D03*
%TO.P,U7,10,PA0*%
%TO.N,unconnected-(U7-PA0-Pad10)*%
X136300000Y-106800000D03*
%TO.P,U7,11,ADC1_IN1*%
%TO.N,BATT*%
X136300000Y-107300000D03*
%TO.P,U7,12,USART2_TX*%
%TO.N,RXD*%
X136300000Y-107800000D03*
D35*
%TO.P,U7,13,USART2_RX*%
%TO.N,TXD*%
X136987500Y-108487500D03*
%TO.P,U7,14,SPI1_NSS*%
%TO.N,NSEL*%
X137487500Y-108487500D03*
%TO.P,U7,15,SPI1_SCK*%
%TO.N,SCLK*%
X137987500Y-108487500D03*
%TO.P,U7,16,SPI1_MISO*%
%TO.N,SDO*%
X138487500Y-108487500D03*
%TO.P,U7,17,SPI1_MOSI*%
%TO.N,SDI*%
X138987500Y-108487500D03*
%TO.P,U7,18,PB0*%
%TO.N,unconnected-(U7-PB0-Pad18)*%
X139487500Y-108487500D03*
%TO.P,U7,19,PB1*%
%TO.N,LED_ERR*%
X139987500Y-108487500D03*
%TO.P,U7,20,PB2*%
%TO.N,PB2*%
X140487500Y-108487500D03*
%TO.P,U7,21,PB10*%
%TO.N,unconnected-(U7-PB10-Pad21)*%
X140987500Y-108487500D03*
%TO.P,U7,22,VCAP1*%
%TO.N,Net-(U7-VCAP1)*%
X141487500Y-108487500D03*
%TO.P,U7,23,VSS*%
%TO.N,GND*%
X141987500Y-108487500D03*
%TO.P,U7,24,VDD*%
%TO.N,VCC*%
X142487500Y-108487500D03*
D34*
%TO.P,U7,25,PB12*%
%TO.N,NIRQ*%
X143175000Y-107800000D03*
%TO.P,U7,26,PB13*%
%TO.N,SDN*%
X143175000Y-107300000D03*
%TO.P,U7,27,PB14*%
%TO.N,GPIO4*%
X143175000Y-106800000D03*
%TO.P,U7,28,PB15*%
%TO.N,GPIO5*%
X143175000Y-106300000D03*
%TO.P,U7,29,PA8*%
%TO.N,GPIO7*%
X143175000Y-105800000D03*
%TO.P,U7,30,PA9*%
%TO.N,GPIO0*%
X143175000Y-105300000D03*
%TO.P,U7,31,PA10*%
%TO.N,GPIO1*%
X143175000Y-104800000D03*
%TO.P,U7,32,PA11*%
%TO.N,unconnected-(U7-PA11-Pad32)*%
X143175000Y-104300000D03*
%TO.P,U7,33,PA12*%
%TO.N,unconnected-(U7-PA12-Pad33)*%
X143175000Y-103800000D03*
%TO.P,U7,34,SYS_JTMS-SWDIO*%
%TO.N,SWDIO*%
X143175000Y-103300000D03*
%TO.P,U7,35,VSS*%
%TO.N,GND*%
X143175000Y-102800000D03*
%TO.P,U7,36,VDD*%
%TO.N,VCC*%
X143175000Y-102300000D03*
D35*
%TO.P,U7,37,SYS_JTCK-SWCLK*%
%TO.N,SWCLK*%
X142487500Y-101612500D03*
%TO.P,U7,38,PA15*%
%TO.N,unconnected-(U7-PA15-Pad38)*%
X141987500Y-101612500D03*
%TO.P,U7,39,PB3*%
%TO.N,DQ*%
X141487500Y-101612500D03*
%TO.P,U7,40,PB4*%
%TO.N,unconnected-(U7-PB4-Pad40)*%
X140987500Y-101612500D03*
%TO.P,U7,41,PB5*%
%TO.N,unconnected-(U7-PB5-Pad41)*%
X140487500Y-101612500D03*
%TO.P,U7,42,I2C1_SCL*%
%TO.N,SCL*%
X139987500Y-101612500D03*
%TO.P,U7,43,I2C1_SDA*%
%TO.N,SDA*%
X139487500Y-101612500D03*
%TO.P,U7,44,BOOT0*%
%TO.N,BOOT0*%
X138987500Y-101612500D03*
%TO.P,U7,45,PB8*%
%TO.N,GPIO6*%
X138487500Y-101612500D03*
%TO.P,U7,46,PB9*%
%TO.N,unconnected-(U7-PB9-Pad46)*%
X137987500Y-101612500D03*
%TO.P,U7,47,VSS*%
%TO.N,GND*%
X137487500Y-101612500D03*
%TO.P,U7,48,VDD*%
%TO.N,VCC*%
X136987500Y-101612500D03*
D36*
%TO.P,U7,49,VSS*%
%TO.N,GND*%
X139737500Y-105050000D03*
%TD*%
D33*
%TO.P,C6,1*%
%TO.N,Net-(U2-TX)*%
X138495000Y-117587499D03*
%TO.P,C6,2*%
%TO.N,Net-(C1-Pad2)*%
X138495000Y-119312501D03*
%TD*%
D14*
%TO.P,R11,1*%
%TO.N,Net-(D2-A)*%
X131100000Y-90512501D03*
%TO.P,R11,2*%
%TO.N,LED_ERR*%
X131100000Y-92337501D03*
%TD*%
D18*
%TO.P,J8,1,Pin_1*%
%TO.N,VCC*%
X126800000Y-96400000D03*
D19*
%TO.P,J8,2,Pin_2*%
%TO.N,BOOT0*%
X126800000Y-98940000D03*
%TD*%
D20*
%TO.P,L8,1,1*%
%TO.N,GND*%
X135460000Y-82812501D03*
%TO.P,L8,2,2*%
%TO.N,Net-(AE2-A)*%
X135460000Y-81667499D03*
%TD*%
D23*
%TO.P,C10,1*%
%TO.N,VCC*%
X145462501Y-123000000D03*
%TO.P,C10,2*%
%TO.N,GND*%
X143737499Y-123000000D03*
%TD*%
D37*
%TO.P,AE2,1,A*%
%TO.N,Net-(AE2-A)*%
X132155500Y-81680000D03*
%TO.P,AE2,2*%
%TO.N,N/C*%
X125424500Y-81680000D03*
%TD*%
D15*
%TO.P,L5,1,1*%
%TO.N,Net-(C3-Pad2)*%
X138500000Y-127500000D03*
%TO.P,L5,2,2*%
%TO.N,Net-(J4-In)*%
X138500000Y-129249998D03*
%TD*%
D38*
%TO.P,L1,1,1*%
%TO.N,VCC*%
X135150000Y-117500000D03*
%TO.P,L1,2,2*%
%TO.N,Net-(U2-TX)*%
X136900000Y-117500000D03*
%TD*%
D14*
%TO.P,R12,1*%
%TO.N,Net-(D3-A)*%
X134400000Y-90512501D03*
%TO.P,R12,2*%
%TO.N,VCC*%
X134400000Y-92337501D03*
%TD*%
D38*
%TO.P,L2,1,1*%
%TO.N,Net-(C1-Pad1)*%
X135125000Y-121600000D03*
%TO.P,L2,2,2*%
%TO.N,Net-(C1-Pad2)*%
X136875000Y-121600000D03*
%TD*%
D39*
%TO.P,L7,1,1*%
%TO.N,VCC*%
X129000000Y-115574999D03*
%TO.P,L7,2,2*%
%TO.N,VREF*%
X129000000Y-113825001D03*
%TD*%
D17*
%TO.P,Y3,1,1*%
%TO.N,Net-(U2-XIN)*%
X134000000Y-115640000D03*
%TO.P,Y3,2,2*%
%TO.N,GND*%
X134000000Y-113440000D03*
%TO.P,Y3,3,3*%
%TO.N,Net-(U2-XOUT)*%
X132300000Y-113440000D03*
%TO.P,Y3,4,4*%
%TO.N,GND*%
X132300000Y-115640000D03*
%TD*%
D40*
%TO.P,C29,1*%
%TO.N,Net-(U4-RF_IN)*%
X137727500Y-81580000D03*
%TO.P,C29,2*%
%TO.N,Net-(AE2-A)*%
X136592500Y-81580000D03*
%TD*%
D28*
%TO.P,R9,1*%
%TO.N,Net-(U6-CSB)*%
X142087500Y-99800000D03*
%TO.P,R9,2*%
%TO.N,VCC*%
X143912500Y-99800000D03*
%TD*%
D31*
%TO.P,R2,1*%
%TO.N,VCC*%
X143912500Y-98200000D03*
%TO.P,R2,2*%
%TO.N,GPSPAUSE*%
X142087500Y-98200000D03*
%TD*%
D14*
%TO.P,R10,1*%
%TO.N,Net-(D1-A)*%
X127800000Y-90512501D03*
%TO.P,R10,2*%
%TO.N,LED_OK*%
X127800000Y-92337501D03*
%TD*%
D29*
%TO.P,C26,1*%
%TO.N,GND*%
X134700000Y-102225002D03*
%TO.P,C26,2*%
%TO.N,OSC32_IN*%
X134700000Y-100500000D03*
%TD*%
D22*
%TO.P,D2,1,K*%
%TO.N,GND*%
X131100000Y-86900002D03*
%TO.P,D2,2,A*%
%TO.N,Net-(D2-A)*%
X131100000Y-88950000D03*
%TD*%
D18*
%TO.P,J6,1,Pin_1*%
%TO.N,VCC*%
X146800000Y-107700000D03*
D19*
%TO.P,J6,2,Pin_2*%
%TO.N,SWDIO*%
X146800000Y-105160000D03*
%TO.P,J6,3,Pin_3*%
%TO.N,SWCLK*%
X146800000Y-102620001D03*
%TO.P,J6,4,Pin_4*%
%TO.N,GND*%
X146800000Y-100080000D03*
%TD*%
D14*
%TO.P,R3,1*%
%TO.N,VCC*%
X147100000Y-120300000D03*
%TO.P,R3,2*%
%TO.N,Net-(U3-V_{FB})*%
X147100000Y-122125000D03*
%TD*%
D28*
%TO.P,R1,1*%
%TO.N,GND*%
X131687500Y-120100000D03*
%TO.P,R1,2*%
%TO.N,Net-(C1-Pad1)*%
X133512500Y-120100000D03*
%TD*%
D16*
%TO.P,R14,1*%
%TO.N,SCL*%
X137400000Y-95412500D03*
%TO.P,R14,2*%
%TO.N,VCC*%
X137400000Y-93587500D03*
%TD*%
D41*
%TO.N,GND*%
X135420000Y-80690000D03*
X133200000Y-106300000D03*
X137750000Y-89000000D03*
X140460000Y-80610000D03*
X146290000Y-83420000D03*
X136800000Y-132500000D03*
X137750000Y-87500000D03*
X146970000Y-84200000D03*
X134100000Y-124000000D03*
X143000000Y-88000000D03*
X145047142Y-79535329D03*
X142000000Y-117700000D03*
X145000000Y-90000000D03*
X135584945Y-79437637D03*
X148900000Y-125000000D03*
X147750000Y-84880000D03*
X139590000Y-114560000D03*
X136448529Y-98900000D03*
X137750000Y-88250000D03*
X141000000Y-88000000D03*
X137400000Y-105800000D03*
X137750000Y-91250000D03*
X139737500Y-105050000D03*
X147000000Y-91000000D03*
X148000000Y-90000000D03*
X149440000Y-83110000D03*
X143000000Y-89000000D03*
X134345735Y-112540000D03*
X149500000Y-81100000D03*
X141743750Y-103043750D03*
X142370000Y-84640000D03*
X145000000Y-89000000D03*
X128600000Y-109600000D03*
X133000000Y-86275001D03*
X142000000Y-92000000D03*
X134680000Y-80720000D03*
X138910000Y-80650000D03*
X138000000Y-107000000D03*
X139000000Y-90000000D03*
X144000000Y-89000000D03*
X140930109Y-82494010D03*
X149250000Y-87000000D03*
X139650000Y-80620000D03*
X142500000Y-117100000D03*
X143000000Y-93000000D03*
X144000000Y-88000000D03*
X133774999Y-102100000D03*
X142500000Y-120100000D03*
X141700000Y-104100000D03*
X142700000Y-94200000D03*
X148000000Y-89000000D03*
X130900000Y-95100000D03*
X137600000Y-96500000D03*
X145500000Y-112800000D03*
X149250000Y-90750000D03*
X149250000Y-95250000D03*
X140000000Y-89000000D03*
X136190000Y-84780000D03*
X139904159Y-114104368D03*
X147000000Y-90000000D03*
X138445934Y-79633021D03*
X138215000Y-113185000D03*
X139000000Y-88000000D03*
X149250000Y-89250000D03*
X145300000Y-111200000D03*
X136480000Y-85950000D03*
X149250000Y-87750000D03*
X142400000Y-122300000D03*
X139000000Y-91000000D03*
X142000000Y-89000000D03*
X144320000Y-81380000D03*
X126400000Y-118000000D03*
X139737500Y-105050000D03*
X128500000Y-103800000D03*
X137750000Y-90500000D03*
X145500000Y-129300000D03*
X148000000Y-91000000D03*
X144130000Y-83850000D03*
X140000000Y-91000000D03*
X146000000Y-91000000D03*
X142000000Y-88000000D03*
X140000000Y-90000000D03*
X133700000Y-104425000D03*
X126450000Y-86375001D03*
X141000000Y-91000000D03*
X142000000Y-90000000D03*
X137301538Y-83666318D03*
X129800000Y-86425001D03*
X143000000Y-90000000D03*
X146000000Y-89000000D03*
X146305000Y-129230000D03*
X144770000Y-84380000D03*
X148857142Y-84433901D03*
X144000000Y-90000000D03*
X138700000Y-132200000D03*
X145000000Y-88000000D03*
X142000000Y-91000000D03*
X142000000Y-93900000D03*
X137750000Y-89750000D03*
X144949450Y-81935769D03*
X138040000Y-85760000D03*
X137750000Y-86750000D03*
X140370000Y-83540000D03*
X145326263Y-85145659D03*
X127000000Y-123900000D03*
X145000000Y-91000000D03*
X139000000Y-89000000D03*
X141000000Y-90000000D03*
X147000000Y-89000000D03*
X141306923Y-84671153D03*
X141810000Y-80690000D03*
X145690000Y-82730000D03*
X149250000Y-88500000D03*
X143360000Y-84460000D03*
X139394945Y-84824670D03*
X137416433Y-102415600D03*
X140000000Y-88000000D03*
X149250000Y-96000000D03*
X133800000Y-125300000D03*
X130700000Y-120100000D03*
X141630000Y-79280000D03*
X136338571Y-83596538D03*
X136950000Y-86820000D03*
X146000000Y-90000000D03*
X141000000Y-89000000D03*
X149250000Y-90000000D03*
X129900000Y-125000000D03*
%TO.N,VCC*%
X126300000Y-115400000D03*
X136300000Y-102100000D03*
X137352083Y-115583421D03*
X136222465Y-100780477D03*
X135700000Y-116600000D03*
X147000000Y-95000000D03*
X140086381Y-110586381D03*
X137400000Y-92612500D03*
X136678335Y-96603578D03*
X147300000Y-119400000D03*
X145000000Y-99800000D03*
X134600000Y-118500000D03*
X146400000Y-117300000D03*
X141085395Y-110584586D03*
X136585802Y-116514198D03*
X130100000Y-116000000D03*
X142100000Y-118900000D03*
X143825014Y-102245978D03*
X143187406Y-108487407D03*
%TO.N,BATT*%
X141100000Y-123900000D03*
X134400000Y-108800000D03*
%TO.N,VREF*%
X130400000Y-112500000D03*
%TO.N,Net-(U7-VCAP1)*%
X141850000Y-109440000D03*
%TO.N,Net-(U6-CSB)*%
X138751471Y-98251471D03*
X141400000Y-100600000D03*
%TO.N,LED_OK*%
X135549006Y-101212283D03*
X127800000Y-93950000D03*
%TO.N,LED_ERR*%
X136600000Y-110000000D03*
X139800000Y-109408664D03*
X134345735Y-109900000D03*
X131000000Y-98100000D03*
%TO.N,SDA*%
X139438832Y-100765266D03*
X134200000Y-97800000D03*
X139700000Y-99200001D03*
%TO.N,Net-(U6-SDO)*%
X140001470Y-98457217D03*
%TO.N,NIRQ*%
X143825014Y-107854024D03*
X135700000Y-111940000D03*
%TO.N,SDO*%
X138600000Y-109400000D03*
X139100000Y-110800000D03*
%TO.N,SDN*%
X136313239Y-115160428D03*
X145025014Y-107900000D03*
%TO.N,RXD*%
X135600000Y-108200000D03*
X140900000Y-97500000D03*
%TO.N,TXD*%
X136958321Y-109176539D03*
X140100277Y-97478956D03*
%TD*%
D42*
%TO.N,Net-(C1-Pad1)*%
X135100000Y-120100000D02*
X133512500Y-120100000D01*
X135100000Y-120100000D02*
X135100000Y-121575000D01*
X135100000Y-121575000D02*
X135125000Y-121600000D01*
%TO.N,Net-(C1-Pad2)*%
X136825000Y-121550000D02*
X136875000Y-121600000D01*
X136825000Y-120100000D02*
X138500000Y-120100000D01*
X138500000Y-120100000D02*
X138500000Y-119317501D01*
X138500000Y-120925001D02*
X138500000Y-120100000D01*
X136825000Y-120100000D02*
X136825000Y-121550000D01*
X138500000Y-119317501D02*
X138495000Y-119312501D01*
D43*
%TO.N,GND*%
X137200000Y-97220000D02*
X137700000Y-97220000D01*
X144362500Y-112900000D02*
X145400000Y-112900000D01*
D44*
X127375000Y-118000000D02*
X126400000Y-118000000D01*
X130137499Y-110700000D02*
X129700000Y-110700000D01*
D43*
X130624999Y-86425001D02*
X131100000Y-86900002D01*
D45*
X136700000Y-98780000D02*
X136568529Y-98780000D01*
D43*
X132480000Y-115030000D02*
X134180000Y-113330000D01*
D46*
X130020000Y-131800000D02*
X135100000Y-131800000D01*
X139137499Y-131762501D02*
X138700000Y-132200000D01*
D47*
X143699999Y-120100000D02*
X143699999Y-117437500D01*
D44*
X131862500Y-106562500D02*
X131900000Y-106600000D01*
D46*
X146485001Y-87985001D02*
X145800000Y-87300000D01*
X135100000Y-126600000D02*
X133800000Y-125300000D01*
D43*
X146215001Y-127875000D02*
X146215001Y-129140001D01*
X139699791Y-113900000D02*
X139904159Y-114104368D01*
D47*
X149000000Y-123800000D02*
X149000000Y-124900000D01*
D44*
X130200000Y-108550000D02*
X130200000Y-108800000D01*
X131900000Y-106600000D02*
X131900000Y-106850000D01*
D46*
X148000000Y-87278504D02*
X147293503Y-87985001D01*
D44*
X128500000Y-103800000D02*
X128500000Y-102737499D01*
D43*
X132480000Y-115130000D02*
X132480000Y-115030000D01*
X139737500Y-105050000D02*
X137487500Y-102800000D01*
D44*
X129700000Y-110700000D02*
X128600000Y-109600000D01*
D43*
X144425000Y-111200000D02*
X145300000Y-111200000D01*
D44*
X133200000Y-106300000D02*
X132900000Y-106600000D01*
D43*
X139000000Y-113970000D02*
X139590000Y-114560000D01*
D47*
X143737499Y-120137500D02*
X143699999Y-120100000D01*
X143699999Y-117437500D02*
X143737499Y-117400000D01*
X149000000Y-124900000D02*
X148900000Y-125000000D01*
D43*
X137416433Y-101683567D02*
X137487500Y-101612500D01*
X129800000Y-86425001D02*
X130624999Y-86425001D01*
X127274999Y-86375001D02*
X127800000Y-86900002D01*
X137200000Y-96900000D02*
X137600000Y-96500000D01*
X149000000Y-129362501D02*
X149000000Y-130765000D01*
D44*
X133700000Y-104425000D02*
X133525000Y-104600000D01*
D46*
X135470000Y-82822501D02*
X135460000Y-82812501D01*
D44*
X134574998Y-102100000D02*
X134700000Y-102225002D01*
D42*
X134300000Y-124200000D02*
X134100000Y-124000000D01*
D43*
X137400000Y-105800000D02*
X136300000Y-105800000D01*
D46*
X138850000Y-82822501D02*
X138850000Y-83580000D01*
D43*
X145400000Y-112900000D02*
X145500000Y-112800000D01*
X149000000Y-130765000D02*
X147765000Y-132000000D01*
X133000000Y-86275001D02*
X133774999Y-86275001D01*
X133774999Y-86275001D02*
X134400000Y-86900002D01*
X141100000Y-117437499D02*
X141737499Y-117437499D01*
X134400000Y-86900002D02*
X134400000Y-83872501D01*
D44*
X131900000Y-106850000D02*
X130200000Y-108550000D01*
D42*
X131687500Y-120100000D02*
X130700000Y-120100000D01*
D43*
X134000000Y-112885735D02*
X134345735Y-112540000D01*
D47*
X143100000Y-123000000D02*
X142400000Y-122300000D01*
X142800000Y-117400000D02*
X142500000Y-117100000D01*
D43*
X146215001Y-127875000D02*
X146215001Y-128584999D01*
X134400000Y-83872501D02*
X135460000Y-82812501D01*
D46*
X148000000Y-86500001D02*
X148000000Y-87278504D01*
X145800000Y-87300000D02*
X145800000Y-86500000D01*
D43*
X138987500Y-105800000D02*
X137400000Y-105800000D01*
X126900000Y-123800000D02*
X127000000Y-123900000D01*
D46*
X130020000Y-131800000D02*
X130020000Y-126720000D01*
D44*
X130200000Y-108800000D02*
X130200000Y-110637499D01*
D46*
X135100000Y-131800000D02*
X136100000Y-131800000D01*
D43*
X126450000Y-86375001D02*
X127274999Y-86375001D01*
X146215001Y-129140001D02*
X146305000Y-129230000D01*
X127800000Y-86900002D02*
X134400000Y-86900002D01*
X139000000Y-113900000D02*
X139000000Y-113970000D01*
X141737499Y-117437499D02*
X142000000Y-117700000D01*
X137200000Y-97220000D02*
X137200000Y-96900000D01*
X134000000Y-113440000D02*
X134000000Y-112885735D01*
D47*
X143737499Y-117400000D02*
X142800000Y-117400000D01*
D43*
X141743750Y-103043750D02*
X141987500Y-102800000D01*
D44*
X130112500Y-95887500D02*
X130900000Y-95100000D01*
D43*
X146215001Y-128584999D02*
X145500000Y-129300000D01*
D44*
X133774999Y-102100000D02*
X134574998Y-102100000D01*
X130200000Y-110637499D02*
X130137499Y-110700000D01*
D46*
X135100000Y-126720000D02*
X135100000Y-126600000D01*
D47*
X143737499Y-123000000D02*
X143737499Y-120137500D01*
D46*
X136100000Y-131800000D02*
X136800000Y-132500000D01*
D43*
X141987500Y-102800000D02*
X143175000Y-102800000D01*
X134180000Y-113330000D02*
X134180000Y-112930000D01*
D46*
X138850000Y-82822501D02*
X135470000Y-82822501D01*
D44*
X132900000Y-106600000D02*
X131900000Y-106600000D01*
D42*
X135175000Y-124200000D02*
X134300000Y-124200000D01*
D45*
X136568529Y-98780000D02*
X136448529Y-98900000D01*
D43*
X126900000Y-122662501D02*
X126900000Y-123800000D01*
D46*
X130020000Y-126720000D02*
X130020000Y-125120000D01*
D43*
X137416433Y-102415600D02*
X137416433Y-101683567D01*
X139000000Y-113900000D02*
X139699791Y-113900000D01*
X139737500Y-105050000D02*
X141743750Y-103043750D01*
D46*
X130020000Y-125120000D02*
X129900000Y-125000000D01*
D43*
X141987500Y-107300000D02*
X141987500Y-108487500D01*
D44*
X133525000Y-104600000D02*
X131862500Y-104600000D01*
D43*
X139737500Y-105050000D02*
X141987500Y-107300000D01*
D44*
X128500000Y-102737499D02*
X128737499Y-102500000D01*
D47*
X143699999Y-120100000D02*
X142500000Y-120100000D01*
X143737499Y-123000000D02*
X143100000Y-123000000D01*
D46*
X138850000Y-83580000D02*
X136480000Y-85950000D01*
X147293503Y-87985001D02*
X146485001Y-87985001D01*
X130020000Y-126720000D02*
X135100000Y-126720000D01*
D44*
X129600000Y-95887500D02*
X130112500Y-95887500D01*
D46*
X140200000Y-131762501D02*
X139137499Y-131762501D01*
D43*
X137487500Y-102800000D02*
X137487500Y-101612500D01*
X139737500Y-105050000D02*
X138987500Y-105800000D01*
D42*
%TO.N,Net-(C2-Pad2)*%
X136900000Y-124200000D02*
X138474999Y-124200000D01*
X138474999Y-124200000D02*
X138500000Y-124225001D01*
X138500000Y-122674999D02*
X138500000Y-124225001D01*
%TO.N,Net-(C3-Pad2)*%
X138500000Y-125974999D02*
X138500000Y-127500000D01*
D46*
X140200000Y-130037499D02*
X139750000Y-129587499D01*
X139750000Y-129587499D02*
X139750000Y-128750000D01*
X139750000Y-128750000D02*
X138500000Y-127500000D01*
D43*
%TO.N,VCC*%
X144700000Y-97412500D02*
X144700000Y-96120001D01*
X137360802Y-116514198D02*
X138000000Y-115875000D01*
D44*
X126900000Y-113600000D02*
X126900000Y-114800000D01*
D43*
X136700000Y-97220000D02*
X136700000Y-96625243D01*
X136420000Y-97500000D02*
X136700000Y-97220000D01*
X137125001Y-92337501D02*
X134400000Y-92337501D01*
D47*
X147100000Y-119600000D02*
X147300000Y-119400000D01*
D43*
X145424999Y-97380000D02*
X146175001Y-97380000D01*
X146012500Y-108487500D02*
X146800000Y-107700000D01*
D47*
X145425001Y-120100000D02*
X145425001Y-117437500D01*
D43*
X136300000Y-102300000D02*
X136300000Y-100858012D01*
X141100000Y-119162501D02*
X141837499Y-119162501D01*
X144700000Y-96655001D02*
X145424999Y-97380000D01*
D44*
X129000000Y-115574999D02*
X128874999Y-115574999D01*
D43*
X141700809Y-111200000D02*
X141085395Y-110584586D01*
D47*
X145462501Y-117400000D02*
X146300000Y-117400000D01*
D43*
X142700000Y-111200000D02*
X139860614Y-111200000D01*
X144700000Y-96120001D02*
X144700000Y-96655001D01*
X134200000Y-92537501D02*
X134400000Y-92337501D01*
X139500000Y-111560614D02*
X139500000Y-111925000D01*
X140086381Y-110586381D02*
X140086381Y-110662148D01*
D47*
X146215001Y-124447775D02*
X145462501Y-123695275D01*
D44*
X126900000Y-114800000D02*
X126300000Y-115400000D01*
D43*
X136700000Y-96625243D02*
X136678335Y-96603578D01*
X143912500Y-98200000D02*
X144700000Y-97412500D01*
X136222465Y-100780477D02*
X136222465Y-100847465D01*
D47*
X145462501Y-120137500D02*
X145425001Y-120100000D01*
X146900000Y-120100000D02*
X147100000Y-120300000D01*
X146215001Y-125600000D02*
X146215001Y-124447775D01*
D43*
X140086381Y-110662148D02*
X139500000Y-111248529D01*
X137643662Y-115875000D02*
X137352083Y-115583421D01*
X147000000Y-96020001D02*
X146900000Y-96120001D01*
X146175001Y-97380000D02*
X146900000Y-96655001D01*
D44*
X143912500Y-99800000D02*
X145000000Y-99800000D01*
D43*
X143187406Y-108487407D02*
X143187313Y-108487500D01*
X139500000Y-111248529D02*
X139500000Y-111925000D01*
X138000000Y-115875000D02*
X137643662Y-115875000D01*
D44*
X143770992Y-102300000D02*
X143825014Y-102245978D01*
D43*
X136222465Y-100847465D02*
X136987500Y-101612500D01*
X135150000Y-117950000D02*
X134600000Y-118500000D01*
X135150000Y-117500000D02*
X135150000Y-117950000D01*
X141837499Y-119162501D02*
X142100000Y-118900000D01*
D44*
X143912500Y-99800000D02*
X143912500Y-98200000D01*
X129674999Y-115574999D02*
X130100000Y-116000000D01*
D43*
X136987500Y-101612500D02*
X136787500Y-101612500D01*
X146900000Y-96120001D02*
X148000000Y-96120001D01*
X135150000Y-117150000D02*
X135700000Y-116600000D01*
D47*
X145462501Y-123695275D02*
X145462501Y-123000000D01*
D43*
X134400000Y-93787500D02*
X134200000Y-93987500D01*
X142700000Y-111200000D02*
X141700809Y-111200000D01*
X146900000Y-96655001D02*
X146900000Y-96120001D01*
X136787500Y-101612500D02*
X136300000Y-102100000D01*
D47*
X145462501Y-123000000D02*
X145462501Y-120137500D01*
D43*
X136420000Y-97750000D02*
X136420000Y-97500000D01*
X139860614Y-111200000D02*
X139500000Y-111560614D01*
D44*
X143175000Y-102300000D02*
X143770992Y-102300000D01*
X128874999Y-115574999D02*
X126900000Y-113600000D01*
D43*
X136300000Y-100858012D02*
X136222465Y-100780477D01*
X136585802Y-116514198D02*
X137360802Y-116514198D01*
D44*
X129000000Y-115574999D02*
X129674999Y-115574999D01*
D43*
X143187313Y-108487500D02*
X142487500Y-108487500D01*
X135150000Y-117500000D02*
X135150000Y-117150000D01*
X134400000Y-92337501D02*
X134275000Y-92337501D01*
D47*
X145425001Y-117437500D02*
X145462501Y-117400000D01*
D43*
X137400000Y-93587500D02*
X137400000Y-92612500D01*
X137400000Y-92612500D02*
X137125001Y-92337501D01*
X134200000Y-93987500D02*
X134200000Y-92537501D01*
X147000000Y-95000000D02*
X147000000Y-96020001D01*
D47*
X146300000Y-117400000D02*
X146400000Y-117300000D01*
X147100000Y-120300000D02*
X147100000Y-119600000D01*
X145425001Y-120100000D02*
X146900000Y-120100000D01*
D44*
%TO.N,BATT*%
X134400000Y-108800000D02*
X134400000Y-108100000D01*
X145265002Y-126262499D02*
X145890003Y-126887500D01*
D46*
X147165000Y-127875000D02*
X147465000Y-128175000D01*
D44*
X141100000Y-123900000D02*
X141100000Y-124330000D01*
D46*
X142370000Y-125600000D02*
X142100000Y-125330000D01*
D43*
X147402501Y-127637499D02*
X147165000Y-127875000D01*
D44*
X135200000Y-107300000D02*
X136300000Y-107300000D01*
D43*
X149000000Y-127637499D02*
X147402501Y-127637499D01*
D44*
X145890003Y-126887500D02*
X146787500Y-126887500D01*
X147165000Y-127265000D02*
X147165000Y-127875000D01*
D46*
X147465000Y-128175000D02*
X147465000Y-129760000D01*
X142205000Y-125600000D02*
X141955000Y-125350000D01*
D44*
X141100000Y-124330000D02*
X142100000Y-125330000D01*
X146787500Y-126887500D02*
X147165000Y-127265000D01*
D46*
X145285001Y-125500000D02*
X142314999Y-125500000D01*
X147465000Y-129760000D02*
X145225000Y-132000000D01*
D44*
X145265002Y-125600000D02*
X145265002Y-126262499D01*
X134400000Y-108100000D02*
X135200000Y-107300000D01*
D42*
%TO.N,Net-(U2-TX)*%
X138407501Y-117500000D02*
X138495000Y-117587499D01*
D43*
X138500001Y-117582498D02*
X138495000Y-117587499D01*
D42*
X136900000Y-117500000D02*
X138407501Y-117500000D01*
D43*
X138500001Y-115800000D02*
X138500001Y-117582498D01*
X138500000Y-115875000D02*
X138500000Y-117582499D01*
X138500000Y-117582499D02*
X138495000Y-117587499D01*
%TO.N,Net-(U2-VR_DIG)*%
X140975000Y-112900000D02*
X142637500Y-112900000D01*
D44*
%TO.N,VREF*%
X133225000Y-108638604D02*
X133225000Y-111242763D01*
X135563604Y-106300000D02*
X133225000Y-108638604D01*
X130925001Y-111900000D02*
X129000000Y-113825001D01*
X132567763Y-111900000D02*
X130925001Y-111900000D01*
X136300000Y-106300000D02*
X135563604Y-106300000D01*
X133225000Y-111242763D02*
X132567763Y-111900000D01*
D43*
%TO.N,Net-(U7-VCAP1)*%
X141487500Y-109077500D02*
X141487500Y-108487500D01*
X141850000Y-109440000D02*
X141487500Y-109077500D01*
%TO.N,NRST*%
X125700000Y-119737499D02*
X125700000Y-112975000D01*
X132391723Y-111475000D02*
X129175000Y-111475000D01*
X125700000Y-112975000D02*
X126900000Y-111775000D01*
X126900000Y-120937499D02*
X125700000Y-119737499D01*
X132800000Y-111066723D02*
X132391723Y-111475000D01*
X132800000Y-108348114D02*
X132800000Y-111066723D01*
D44*
X126900000Y-111775000D02*
X126900000Y-109200000D01*
D43*
X136300000Y-105300000D02*
X135848114Y-105300000D01*
X135848114Y-105300000D02*
X132800000Y-108348114D01*
X129175000Y-111475000D02*
X126900000Y-109200000D01*
D44*
%TO.N,OSC_OUT*%
X131862501Y-108837499D02*
X131900000Y-108800000D01*
D43*
X136300000Y-104800000D02*
X135848114Y-104800000D01*
D44*
X131900000Y-108800000D02*
X131900000Y-108647073D01*
X131862501Y-110700000D02*
X131862501Y-108837499D01*
X131900000Y-108647073D02*
X135747073Y-104800000D01*
X135747073Y-104800000D02*
X136300000Y-104800000D01*
%TO.N,OSC_IN*%
X130137500Y-106537500D02*
X130200000Y-106600000D01*
X131150000Y-105400000D02*
X134510677Y-105400000D01*
X130200000Y-106350000D02*
X131150000Y-105400000D01*
X134510677Y-105400000D02*
X135610677Y-104300000D01*
X135610677Y-104300000D02*
X136300000Y-104300000D01*
X130137500Y-104600000D02*
X130137500Y-106537500D01*
X130200000Y-106600000D02*
X130200000Y-106350000D01*
%TO.N,OSC32_OUT*%
X130462501Y-102500000D02*
X131762501Y-103800000D01*
X130650001Y-102312500D02*
X130462501Y-102500000D01*
X130650001Y-100600000D02*
X130650001Y-102312500D01*
X131762501Y-103800000D02*
X136300000Y-103800000D01*
%TO.N,OSC32_IN*%
X133149999Y-100600000D02*
X133149999Y-102849999D01*
X133149999Y-102849999D02*
X133600000Y-103300000D01*
X134600000Y-100600000D02*
X134700000Y-100500000D01*
X133600000Y-103300000D02*
X136300000Y-103300000D01*
X133149999Y-100600000D02*
X134600000Y-100600000D01*
D43*
%TO.N,Net-(D1-A)*%
X127800000Y-90512501D02*
X127800000Y-88950000D01*
%TO.N,Net-(D2-A)*%
X131100000Y-90512501D02*
X131100000Y-88950000D01*
%TO.N,Net-(D3-A)*%
X134400000Y-90512501D02*
X134400000Y-88950000D01*
D42*
%TO.N,Net-(J4-In)*%
X132570002Y-129249998D02*
X132560000Y-129260000D01*
X138500000Y-129249998D02*
X132570002Y-129249998D01*
D43*
%TO.N,SWDIO*%
X143175000Y-103300000D02*
X144940000Y-103300000D01*
X144940000Y-103300000D02*
X146800000Y-105160000D01*
%TO.N,SWCLK*%
X142700000Y-100800000D02*
X144979999Y-100800000D01*
X144979999Y-100800000D02*
X146800000Y-102620001D01*
X142487500Y-101012500D02*
X142700000Y-100800000D01*
X142487500Y-101612500D02*
X142487500Y-101012500D01*
%TO.N,BOOT0*%
X138987500Y-101160614D02*
X138231627Y-100404741D01*
D44*
X128027500Y-97712500D02*
X126800000Y-98940000D01*
D43*
X138987500Y-101612500D02*
X138987500Y-101160614D01*
X136290517Y-100000000D02*
X136000000Y-100000000D01*
X134940000Y-98940000D02*
X126800000Y-98940000D01*
D44*
X129600000Y-97712500D02*
X128027500Y-97712500D01*
D43*
X136695258Y-100404741D02*
X136290517Y-100000000D01*
X134940000Y-98940000D02*
X136000000Y-100000000D01*
X138231627Y-100404741D02*
X136695258Y-100404741D01*
D46*
%TO.N,Net-(U3-SW)*%
X145265002Y-127875000D02*
X142295000Y-127875000D01*
X142295000Y-127875000D02*
X142100000Y-128070000D01*
D47*
X142170000Y-127875000D02*
X141955000Y-128090000D01*
D43*
%TO.N,GPSPAUSE*%
X142087500Y-98200000D02*
X143600000Y-96687500D01*
X143600000Y-96687500D02*
X143600000Y-96120002D01*
D48*
%TO.N,Net-(U3-V_{FB})*%
X147100000Y-123725000D02*
X147175000Y-123800000D01*
X147175000Y-123800000D02*
X147175000Y-125590000D01*
X147175000Y-125590000D02*
X147165000Y-125600000D01*
X147100000Y-122125000D02*
X147100000Y-123725000D01*
D44*
%TO.N,PB2*%
X137100000Y-119125000D02*
X137775001Y-118449999D01*
X140487500Y-108974740D02*
X140487500Y-108487500D01*
X130325000Y-119125000D02*
X137100000Y-119125000D01*
X140300000Y-116897923D02*
X143497923Y-113700000D01*
X129200000Y-118000000D02*
X130325000Y-119125000D01*
X139150001Y-118449999D02*
X140300000Y-117300000D01*
X141587760Y-110075000D02*
X140487500Y-108974740D01*
X140300000Y-117300000D02*
X140300000Y-116897923D01*
X145483884Y-113700000D02*
X146125000Y-113058884D01*
X145058884Y-110075000D02*
X141587760Y-110075000D01*
X143497923Y-113700000D02*
X145483884Y-113700000D01*
X146125000Y-111141116D02*
X145058884Y-110075000D01*
X146125000Y-113058884D02*
X146125000Y-111141116D01*
X137775001Y-118449999D02*
X139150001Y-118449999D01*
D45*
%TO.N,Net-(U6-CSB)*%
X137980000Y-98250000D02*
X138750000Y-98250000D01*
X138750000Y-98250000D02*
X138751471Y-98251471D01*
X141400000Y-100487500D02*
X142087500Y-99800000D01*
X141400000Y-100600000D02*
X141400000Y-100487500D01*
D44*
%TO.N,LED_OK*%
X135500000Y-102487240D02*
X135500000Y-101261289D01*
X136300000Y-102800000D02*
X135812760Y-102800000D01*
X135812760Y-102800000D02*
X135500000Y-102487240D01*
X127900000Y-92437501D02*
X127800000Y-92337501D01*
X135500000Y-101261289D02*
X135549006Y-101212283D01*
X127800000Y-92337501D02*
X127800000Y-93950000D01*
%TO.N,LED_ERR*%
X136500000Y-109900000D02*
X136600000Y-110000000D01*
X139800000Y-109408664D02*
X139987500Y-109221164D01*
X131525000Y-92762501D02*
X131100000Y-92337501D01*
X131525000Y-97575000D02*
X131525000Y-92762501D01*
X134345735Y-109900000D02*
X136500000Y-109900000D01*
X139987500Y-109221164D02*
X139987500Y-108487500D01*
X131000000Y-98100000D02*
X131525000Y-97575000D01*
D43*
%TO.N,SDA*%
X137200000Y-99180000D02*
X137200000Y-98780000D01*
X137320000Y-99300000D02*
X137200000Y-99180000D01*
X138900000Y-99300000D02*
X139600001Y-99300000D01*
X138900000Y-99300000D02*
X137320000Y-99300000D01*
X134200000Y-97200000D02*
X134200000Y-97800000D01*
X139438832Y-100765266D02*
X139438832Y-101563832D01*
X134200000Y-95812500D02*
X134200000Y-97200000D01*
X139438832Y-101563832D02*
X139487500Y-101612500D01*
X139700000Y-99200001D02*
X139600001Y-99300000D01*
%TO.N,SCL*%
X135700000Y-98400000D02*
X135850000Y-98250000D01*
X140038832Y-100438832D02*
X139500000Y-99900000D01*
X139987500Y-101612500D02*
X140038832Y-101561168D01*
X136700000Y-99600000D02*
X136300000Y-99600000D01*
D44*
X135945000Y-98095000D02*
X135945000Y-96453029D01*
D43*
X135850000Y-98250000D02*
X136420000Y-98250000D01*
D44*
X136985529Y-95412500D02*
X137400000Y-95412500D01*
X135945000Y-96453029D02*
X136985529Y-95412500D01*
X136100000Y-98250000D02*
X135945000Y-98095000D01*
D43*
X136300000Y-99600000D02*
X135700000Y-99000000D01*
X137000000Y-99900000D02*
X136700000Y-99600000D01*
D44*
X136420000Y-98250000D02*
X136100000Y-98250000D01*
D43*
X135700000Y-99000000D02*
X135700000Y-98400000D01*
X140038832Y-101561168D02*
X140038832Y-100438832D01*
X139500000Y-99900000D02*
X137000000Y-99900000D01*
D45*
%TO.N,Net-(U6-SDO)*%
X139298529Y-98801471D02*
X139642783Y-98457217D01*
X139642783Y-98457217D02*
X140001470Y-98457217D01*
X137700000Y-98780000D02*
X137721471Y-98801471D01*
X137721471Y-98801471D02*
X139298529Y-98801471D01*
D43*
%TO.N,NIRQ*%
X136434314Y-113400000D02*
X137025000Y-113400000D01*
X135700000Y-111940000D02*
X135700000Y-112665686D01*
X135700000Y-112665686D02*
X136434314Y-113400000D01*
X143825014Y-107854024D02*
X143229024Y-107854024D01*
X143229024Y-107854024D02*
X143175000Y-107800000D01*
%TO.N,SCLK*%
X138000000Y-108500000D02*
X137987500Y-108487500D01*
X138000000Y-111925000D02*
X138000000Y-108500000D01*
%TO.N,SDO*%
X138487500Y-109287500D02*
X138487500Y-108487500D01*
X139000000Y-110900000D02*
X139000000Y-111925000D01*
X139100000Y-110800000D02*
X139000000Y-110900000D01*
X138600000Y-109400000D02*
X138487500Y-109287500D01*
%TO.N,Net-(U2-XIN)*%
X134000000Y-115640000D02*
X135240002Y-114399998D01*
X135240002Y-114399998D02*
X137100000Y-114399998D01*
%TO.N,SDI*%
X139200000Y-109151886D02*
X138987500Y-108939386D01*
X138987500Y-108939386D02*
X138987500Y-108487500D01*
X139200000Y-109648529D02*
X139200000Y-109151886D01*
X138500000Y-110348529D02*
X139200000Y-109648529D01*
X138500000Y-111925000D02*
X138500000Y-110348529D01*
%TO.N,SDN*%
X145025014Y-107900000D02*
X144805495Y-107680481D01*
X144500000Y-107680481D02*
X144073543Y-107254024D01*
X144805495Y-107680481D02*
X144500000Y-107680481D01*
X136313239Y-115160428D02*
X136764572Y-115160428D01*
X143220976Y-107254024D02*
X143175000Y-107300000D01*
X136764572Y-115160428D02*
X137025000Y-114900000D01*
X144073543Y-107254024D02*
X143220976Y-107254024D01*
%TO.N,Net-(U2-XOUT)*%
X135891471Y-113900000D02*
X135180000Y-113188529D01*
X135180000Y-112370000D02*
X134750000Y-111940000D01*
X132300000Y-113340000D02*
X132300000Y-113440000D01*
X133700000Y-111940000D02*
X132300000Y-113340000D01*
X134750000Y-111940000D02*
X133700000Y-111940000D01*
X137100000Y-113900000D02*
X135891471Y-113900000D01*
X135180000Y-113188529D02*
X135180000Y-112370000D01*
%TO.N,NSEL*%
X137025000Y-112900000D02*
X136500000Y-112900000D01*
X136300000Y-111900000D02*
X137558321Y-110641679D01*
X137558321Y-108558321D02*
X137487500Y-108487500D01*
X136300000Y-112700000D02*
X136300000Y-111900000D01*
X136500000Y-112900000D02*
X136300000Y-112700000D01*
X137558321Y-110641679D02*
X137558321Y-108558321D01*
%TO.N,RXD*%
X135900000Y-108200000D02*
X136300000Y-107800000D01*
X135600000Y-108200000D02*
X135900000Y-108200000D01*
X141400000Y-96120002D02*
X141400000Y-97000000D01*
X141400000Y-97000000D02*
X140900000Y-97500000D01*
D44*
%TO.N,TXD*%
X140300000Y-97279233D02*
X140100277Y-97478956D01*
D43*
X136958321Y-108516679D02*
X136987500Y-108487500D01*
D44*
X140300000Y-96120001D02*
X140300000Y-97279233D01*
D43*
X136958321Y-109176539D02*
X136958321Y-108516679D01*
D46*
%TO.N,Net-(AE2-A)*%
X135447499Y-81680000D02*
X135460000Y-81667499D01*
X135460000Y-81667499D02*
X136505001Y-81667499D01*
X136505001Y-81667499D02*
X136592500Y-81580000D01*
X132155500Y-81680000D02*
X135447499Y-81680000D01*
%TO.N,Net-(U4-RF_IN)*%
X143227499Y-81677499D02*
X146900000Y-85350000D01*
X137727500Y-81580000D02*
X138752501Y-81580000D01*
X138752501Y-81580000D02*
X138850000Y-81677499D01*
X138850000Y-81677499D02*
X143227499Y-81677499D01*
X146900000Y-85350000D02*
X146900000Y-86500001D01*
%TD*%
%TA.AperFunction,Conductor*%
%TO.N,GND*%
G36*
X145489235Y-110969685D02*
G01*
X145509877Y-110986319D01*
X145763181Y-111239623D01*
X145796666Y-111300946D01*
X145799500Y-111327304D01*
X145799500Y-112872694D01*
X145779815Y-112939733D01*
X145763181Y-112960375D01*
X145574459Y-113149097D01*
X145513136Y-113182582D01*
X145443444Y-113177598D01*
X145400502Y-113150000D01*
X144486500Y-113150000D01*
X144419461Y-113130315D01*
X144373706Y-113077511D01*
X144362500Y-113026000D01*
X144362500Y-112900000D01*
X144236500Y-112900000D01*
X144169461Y-112880315D01*
X144123706Y-112827511D01*
X144112500Y-112776000D01*
X144112500Y-112305000D01*
X144612500Y-112305000D01*
X144612500Y-112650000D01*
X145399999Y-112650000D01*
X145399999Y-112613360D01*
X145399998Y-112613345D01*
X145389680Y-112512347D01*
X145335453Y-112348699D01*
X145335448Y-112348688D01*
X145244947Y-112201965D01*
X145244944Y-112201961D01*
X145211914Y-112168931D01*
X145178429Y-112107608D01*
X145183413Y-112037916D01*
X145211914Y-111993569D01*
X145307444Y-111898038D01*
X145307447Y-111898034D01*
X145397948Y-111751311D01*
X145397953Y-111751300D01*
X145452180Y-111587652D01*
X145462499Y-111486654D01*
X145462500Y-111486641D01*
X145462500Y-111450000D01*
X144675000Y-111450000D01*
X144675000Y-112191138D01*
X144655315Y-112258177D01*
X144638681Y-112278819D01*
X144612500Y-112305000D01*
X144112500Y-112305000D01*
X144112500Y-111908862D01*
X144132185Y-111841823D01*
X144148819Y-111821181D01*
X144175000Y-111795000D01*
X144175000Y-111324000D01*
X144194685Y-111256961D01*
X144247489Y-111211206D01*
X144299000Y-111200000D01*
X144425000Y-111200000D01*
X144425000Y-111074000D01*
X144444685Y-111006961D01*
X144497489Y-110961206D01*
X144549000Y-110950000D01*
X145422196Y-110950000D01*
X145489235Y-110969685D01*
G37*
%TD.AperFunction*%
%TA.AperFunction,Conductor*%
G36*
X137555539Y-101632185D02*
G01*
X137601294Y-101684989D01*
X137612500Y-101736500D01*
X137612500Y-102546624D01*
X137612501Y-102546625D01*
X137696834Y-102535523D01*
X137696842Y-102535521D01*
X137833675Y-102478843D01*
X137951181Y-102388678D01*
X138025431Y-102291913D01*
X138081859Y-102250710D01*
X138099608Y-102245783D01*
X138152617Y-102235240D01*
X138168607Y-102224555D01*
X138235283Y-102203676D01*
X138302664Y-102222159D01*
X138306371Y-102224541D01*
X138314101Y-102229706D01*
X138322383Y-102235240D01*
X138322387Y-102235241D01*
X138360741Y-102242870D01*
X138399099Y-102250500D01*
X138575900Y-102250499D01*
X138652617Y-102235240D01*
X138668607Y-102224555D01*
X138735283Y-102203676D01*
X138802664Y-102222159D01*
X138806371Y-102224541D01*
X138814101Y-102229706D01*
X138822383Y-102235240D01*
X138822387Y-102235241D01*
X138860741Y-102242870D01*
X138899099Y-102250500D01*
X139075900Y-102250499D01*
X139152617Y-102235240D01*
X139168607Y-102224555D01*
X139235283Y-102203676D01*
X139302664Y-102222159D01*
X139306371Y-102224541D01*
X139314101Y-102229706D01*
X139322383Y-102235240D01*
X139322387Y-102235241D01*
X139360741Y-102242870D01*
X139399099Y-102250500D01*
X139575900Y-102250499D01*
X139652617Y-102235240D01*
X139668607Y-102224555D01*
X139735283Y-102203676D01*
X139802664Y-102222159D01*
X139806371Y-102224541D01*
X139814101Y-102229706D01*
X139822383Y-102235240D01*
X139822387Y-102235241D01*
X139860741Y-102242870D01*
X139899099Y-102250500D01*
X140075900Y-102250499D01*
X140152617Y-102235240D01*
X140168607Y-102224555D01*
X140235283Y-102203676D01*
X140302664Y-102222159D01*
X140306371Y-102224541D01*
X140314101Y-102229706D01*
X140322383Y-102235240D01*
X140322387Y-102235241D01*
X140360741Y-102242870D01*
X140399099Y-102250500D01*
X140575900Y-102250499D01*
X140652617Y-102235240D01*
X140668607Y-102224555D01*
X140735283Y-102203676D01*
X140802664Y-102222159D01*
X140806371Y-102224541D01*
X140814101Y-102229706D01*
X140822383Y-102235240D01*
X140822387Y-102235241D01*
X140860741Y-102242870D01*
X140899099Y-102250500D01*
X141075900Y-102250499D01*
X141152617Y-102235240D01*
X141168607Y-102224555D01*
X141235283Y-102203676D01*
X141302664Y-102222159D01*
X141306371Y-102224541D01*
X141314101Y-102229706D01*
X141322383Y-102235240D01*
X141322387Y-102235241D01*
X141360741Y-102242870D01*
X141399099Y-102250500D01*
X141575900Y-102250499D01*
X141652617Y-102235240D01*
X141668607Y-102224555D01*
X141735283Y-102203676D01*
X141802664Y-102222159D01*
X141806371Y-102224541D01*
X141814101Y-102229706D01*
X141822383Y-102235240D01*
X141822387Y-102235241D01*
X141860741Y-102242870D01*
X141899099Y-102250500D01*
X142075900Y-102250499D01*
X142152617Y-102235240D01*
X142168607Y-102224555D01*
X142235283Y-102203676D01*
X142302664Y-102222159D01*
X142306369Y-102224539D01*
X142314103Y-102229707D01*
X142358908Y-102283317D01*
X142367618Y-102352641D01*
X142343591Y-102408295D01*
X142308657Y-102453822D01*
X142251978Y-102590657D01*
X142251978Y-102590659D01*
X142240873Y-102675000D01*
X143530422Y-102675000D01*
X143597461Y-102694685D01*
X143597462Y-102694685D01*
X143600574Y-102696685D01*
X143646329Y-102749490D01*
X143656272Y-102818648D01*
X143627246Y-102882204D01*
X143568468Y-102919977D01*
X143533534Y-102925000D01*
X142240874Y-102925000D01*
X142251978Y-103009340D01*
X142251978Y-103009342D01*
X142308656Y-103146175D01*
X142398821Y-103263681D01*
X142495586Y-103337931D01*
X142536789Y-103394359D01*
X142541717Y-103412116D01*
X142552259Y-103465115D01*
X142552260Y-103465118D01*
X142562946Y-103481111D01*
X142583823Y-103547788D01*
X142565337Y-103615168D01*
X142562946Y-103618889D01*
X142552259Y-103634882D01*
X142537000Y-103711596D01*
X142537000Y-103888398D01*
X142552260Y-103965119D01*
X142562946Y-103981111D01*
X142583823Y-104047788D01*
X142565337Y-104115168D01*
X142562946Y-104118889D01*
X142552259Y-104134882D01*
X142537000Y-104211596D01*
X142537000Y-104388398D01*
X142552260Y-104465119D01*
X142562946Y-104481111D01*
X142583823Y-104547788D01*
X142565337Y-104615168D01*
X142562946Y-104618889D01*
X142552259Y-104634882D01*
X142537000Y-104711596D01*
X142537000Y-104888398D01*
X142552260Y-104965119D01*
X142562946Y-104981111D01*
X142583823Y-105047788D01*
X142565337Y-105115168D01*
X142562946Y-105118889D01*
X142552259Y-105134882D01*
X142537000Y-105211596D01*
X142537000Y-105388398D01*
X142552260Y-105465119D01*
X142562946Y-105481111D01*
X142583823Y-105547788D01*
X142565337Y-105615168D01*
X142562946Y-105618889D01*
X142552259Y-105634882D01*
X142537000Y-105711596D01*
X142537000Y-105888398D01*
X142552260Y-105965119D01*
X142562946Y-105981111D01*
X142583823Y-106047788D01*
X142565337Y-106115168D01*
X142562946Y-106118889D01*
X142552259Y-106134882D01*
X142537000Y-106211596D01*
X142537000Y-106388398D01*
X142552260Y-106465119D01*
X142562946Y-106481111D01*
X142583823Y-106547788D01*
X142565337Y-106615168D01*
X142562946Y-106618889D01*
X142552259Y-106634882D01*
X142537000Y-106711596D01*
X142537000Y-106888398D01*
X142552260Y-106965119D01*
X142562946Y-106981111D01*
X142583823Y-107047788D01*
X142565337Y-107115168D01*
X142562946Y-107118889D01*
X142552259Y-107134882D01*
X142537000Y-107211596D01*
X142537000Y-107388398D01*
X142552260Y-107465119D01*
X142562946Y-107481111D01*
X142583823Y-107547788D01*
X142565337Y-107615168D01*
X142562941Y-107618897D01*
X142557786Y-107626611D01*
X142504171Y-107671413D01*
X142434846Y-107680116D01*
X142379201Y-107656089D01*
X142333678Y-107621157D01*
X142196841Y-107564478D01*
X142112500Y-107553373D01*
X142112500Y-108363500D01*
X142092815Y-108430539D01*
X142040011Y-108476294D01*
X141988500Y-108487500D01*
X141986500Y-108487500D01*
X141919461Y-108467815D01*
X141873706Y-108415011D01*
X141862500Y-108363500D01*
X141862500Y-107553373D01*
X141778159Y-107564478D01*
X141778157Y-107564478D01*
X141641324Y-107621156D01*
X141523818Y-107711322D01*
X141449567Y-107808087D01*
X141393139Y-107849289D01*
X141375384Y-107854217D01*
X141322383Y-107864759D01*
X141322381Y-107864760D01*
X141306389Y-107875446D01*
X141239712Y-107896323D01*
X141172332Y-107877837D01*
X141168611Y-107875446D01*
X141152617Y-107864759D01*
X141075903Y-107849500D01*
X140899101Y-107849500D01*
X140822380Y-107864760D01*
X140806389Y-107875446D01*
X140739712Y-107896323D01*
X140672332Y-107877837D01*
X140668611Y-107875446D01*
X140652617Y-107864759D01*
X140575903Y-107849500D01*
X140399101Y-107849500D01*
X140322380Y-107864760D01*
X140306389Y-107875446D01*
X140239712Y-107896323D01*
X140172332Y-107877837D01*
X140168611Y-107875446D01*
X140152617Y-107864759D01*
X140075903Y-107849500D01*
X139899101Y-107849500D01*
X139822380Y-107864760D01*
X139806389Y-107875446D01*
X139739712Y-107896323D01*
X139672332Y-107877837D01*
X139668611Y-107875446D01*
X139652617Y-107864759D01*
X139575903Y-107849500D01*
X139399101Y-107849500D01*
X139322380Y-107864760D01*
X139306389Y-107875446D01*
X139239712Y-107896323D01*
X139172332Y-107877837D01*
X139168611Y-107875446D01*
X139152617Y-107864759D01*
X139075903Y-107849500D01*
X138899101Y-107849500D01*
X138822380Y-107864760D01*
X138806389Y-107875446D01*
X138739712Y-107896323D01*
X138672332Y-107877837D01*
X138668611Y-107875446D01*
X138652617Y-107864759D01*
X138575903Y-107849500D01*
X138399101Y-107849500D01*
X138322380Y-107864760D01*
X138306389Y-107875446D01*
X138239712Y-107896323D01*
X138172332Y-107877837D01*
X138168611Y-107875446D01*
X138152617Y-107864759D01*
X138075903Y-107849500D01*
X137899101Y-107849500D01*
X137822380Y-107864760D01*
X137806389Y-107875446D01*
X137739712Y-107896323D01*
X137672332Y-107877837D01*
X137668611Y-107875446D01*
X137652617Y-107864759D01*
X137575903Y-107849500D01*
X137399101Y-107849500D01*
X137322380Y-107864760D01*
X137306389Y-107875446D01*
X137239712Y-107896323D01*
X137172332Y-107877837D01*
X137168611Y-107875446D01*
X137152617Y-107864759D01*
X137075903Y-107849500D01*
X137075901Y-107849500D01*
X137061999Y-107849500D01*
X136994960Y-107829815D01*
X136949205Y-107777011D01*
X136937999Y-107725500D01*
X136937999Y-107711602D01*
X136937999Y-107711600D01*
X136922740Y-107634883D01*
X136922739Y-107634881D01*
X136922738Y-107634878D01*
X136912055Y-107618891D01*
X136891176Y-107552214D01*
X136909660Y-107484833D01*
X136912017Y-107481164D01*
X136922740Y-107465117D01*
X136938000Y-107388401D01*
X136937999Y-107211600D01*
X136922740Y-107134883D01*
X136922739Y-107134881D01*
X136922738Y-107134878D01*
X136912055Y-107118891D01*
X136891176Y-107052214D01*
X136909660Y-106984833D01*
X136912017Y-106981164D01*
X136922740Y-106965117D01*
X136938000Y-106888401D01*
X136937999Y-106711600D01*
X136922740Y-106634883D01*
X136922739Y-106634881D01*
X136922738Y-106634878D01*
X136912055Y-106618891D01*
X136891176Y-106552214D01*
X136909660Y-106484833D01*
X136912017Y-106481164D01*
X136922740Y-106465117D01*
X136933283Y-106412113D01*
X136965667Y-106350204D01*
X136979414Y-106337930D01*
X137076178Y-106263681D01*
X137166343Y-106146175D01*
X137223021Y-106009342D01*
X137223021Y-106009340D01*
X137234126Y-105925000D01*
X136424000Y-105925000D01*
X136356961Y-105905315D01*
X136311206Y-105852511D01*
X136300000Y-105801000D01*
X136300000Y-105799000D01*
X136319685Y-105731961D01*
X136372489Y-105686206D01*
X136424000Y-105675000D01*
X137234126Y-105675000D01*
X137223021Y-105590659D01*
X137223021Y-105590657D01*
X137166343Y-105453824D01*
X137076179Y-105336320D01*
X136979412Y-105262068D01*
X136938210Y-105205640D01*
X136933281Y-105187882D01*
X136922740Y-105134883D01*
X136922739Y-105134881D01*
X136922738Y-105134878D01*
X136912055Y-105118891D01*
X136891176Y-105052214D01*
X136909660Y-104984833D01*
X136912017Y-104981164D01*
X136922740Y-104965117D01*
X136938000Y-104888401D01*
X136937999Y-104711600D01*
X136922740Y-104634883D01*
X136922739Y-104634881D01*
X136922738Y-104634878D01*
X136912055Y-104618891D01*
X136891176Y-104552214D01*
X136909660Y-104484833D01*
X136912017Y-104481164D01*
X136922740Y-104465117D01*
X136938000Y-104388401D01*
X136937999Y-104211600D01*
X136922740Y-104134883D01*
X136922739Y-104134881D01*
X136922738Y-104134878D01*
X136912055Y-104118891D01*
X136891176Y-104052214D01*
X136909660Y-103984833D01*
X136912017Y-103981164D01*
X136922740Y-103965117D01*
X136938000Y-103888401D01*
X136937999Y-103711600D01*
X136922740Y-103634883D01*
X136922739Y-103634881D01*
X136922738Y-103634878D01*
X136912055Y-103618891D01*
X136891176Y-103552214D01*
X136909660Y-103484833D01*
X136912017Y-103481164D01*
X136922740Y-103465117D01*
X136938000Y-103388401D01*
X136937999Y-103211600D01*
X136922740Y-103134883D01*
X136922739Y-103134881D01*
X136922738Y-103134878D01*
X136912055Y-103118891D01*
X136891176Y-103052214D01*
X136909660Y-102984833D01*
X136912017Y-102981164D01*
X136922740Y-102965117D01*
X136938000Y-102888401D01*
X136937999Y-102711600D01*
X136922740Y-102634883D01*
X136922739Y-102634881D01*
X136922738Y-102634878D01*
X136912055Y-102618891D01*
X136891176Y-102552214D01*
X136909660Y-102484833D01*
X136912022Y-102481156D01*
X136917209Y-102473394D01*
X136970817Y-102428591D01*
X137040141Y-102419881D01*
X137095797Y-102443909D01*
X137141324Y-102478843D01*
X137278157Y-102535521D01*
X137278165Y-102535523D01*
X137362498Y-102546625D01*
X137362500Y-102546624D01*
X137362500Y-101736500D01*
X137382185Y-101669461D01*
X137434989Y-101623706D01*
X137486500Y-101612500D01*
X137488500Y-101612500D01*
X137555539Y-101632185D01*
G37*
%TD.AperFunction*%
%TA.AperFunction,Conductor*%
G36*
X134128924Y-105745185D02*
G01*
X134174679Y-105797989D01*
X134184623Y-105867147D01*
X134155598Y-105930703D01*
X134149566Y-105937181D01*
X133206054Y-106880692D01*
X133144731Y-106914177D01*
X133075039Y-106909193D01*
X133030692Y-106880692D01*
X133000000Y-106850000D01*
X132824000Y-106850000D01*
X132756961Y-106830315D01*
X132711206Y-106777511D01*
X132700000Y-106726000D01*
X132700000Y-106474000D01*
X132719685Y-106406961D01*
X132772489Y-106361206D01*
X132824000Y-106350000D01*
X133000000Y-106350000D01*
X133000000Y-105849500D01*
X133019685Y-105782461D01*
X133072489Y-105736706D01*
X133124000Y-105725500D01*
X134061885Y-105725500D01*
X134128924Y-105745185D01*
G37*
%TD.AperFunction*%
%TA.AperFunction,Conductor*%
G36*
X135092527Y-104145185D02*
G01*
X135138282Y-104197989D01*
X135148226Y-104267147D01*
X135119201Y-104330703D01*
X135113169Y-104337181D01*
X134412169Y-105038181D01*
X134350846Y-105071666D01*
X134324488Y-105074500D01*
X133018122Y-105074500D01*
X132951083Y-105054815D01*
X132905328Y-105002011D01*
X132894764Y-104937897D01*
X132899999Y-104886654D01*
X132900000Y-104886641D01*
X132900000Y-104850000D01*
X132824000Y-104850000D01*
X132756961Y-104830315D01*
X132711206Y-104777511D01*
X132700000Y-104726000D01*
X132700000Y-104474000D01*
X132719685Y-104406961D01*
X132772489Y-104361206D01*
X132824000Y-104350000D01*
X132899999Y-104350000D01*
X132899999Y-104313360D01*
X132899998Y-104313347D01*
X132894763Y-104262103D01*
X132907532Y-104193410D01*
X132955412Y-104142525D01*
X133018121Y-104125500D01*
X135025488Y-104125500D01*
X135092527Y-104145185D01*
G37*
%TD.AperFunction*%
%TA.AperFunction,Conductor*%
G36*
X137293039Y-96803358D02*
G01*
X137338794Y-96856162D01*
X137350000Y-96907674D01*
X137350000Y-97870000D01*
X137397821Y-97870000D01*
X137397831Y-97869999D01*
X137436742Y-97865815D01*
X137463258Y-97865815D01*
X137502168Y-97869999D01*
X137502179Y-97870000D01*
X137517840Y-97870000D01*
X137584879Y-97889685D01*
X137630634Y-97942489D01*
X137639459Y-97969818D01*
X137640652Y-97975818D01*
X137640651Y-98024190D01*
X137629500Y-98080252D01*
X137629500Y-98307993D01*
X137609815Y-98375032D01*
X137557011Y-98420787D01*
X137529692Y-98429610D01*
X137474192Y-98440650D01*
X137425810Y-98440651D01*
X137363775Y-98428312D01*
X137364307Y-98425632D01*
X137310426Y-98403848D01*
X137288143Y-98380950D01*
X137207190Y-98272812D01*
X137207187Y-98272809D01*
X137092093Y-98186649D01*
X137092086Y-98186645D01*
X136957379Y-98136403D01*
X136957372Y-98136401D01*
X136897844Y-98130000D01*
X136882160Y-98130000D01*
X136815121Y-98110315D01*
X136769366Y-98057511D01*
X136760545Y-98030201D01*
X136759351Y-98024201D01*
X136759349Y-97975808D01*
X136764359Y-97950622D01*
X136796744Y-97888711D01*
X136857460Y-97854137D01*
X136927230Y-97857878D01*
X136929309Y-97858632D01*
X136942620Y-97863596D01*
X136942627Y-97863598D01*
X137002155Y-97869999D01*
X137002172Y-97870000D01*
X137050000Y-97870000D01*
X137050000Y-97400915D01*
X137050500Y-97390747D01*
X137050500Y-97049262D01*
X137050000Y-97039084D01*
X137050000Y-96985186D01*
X137069685Y-96918147D01*
X137080280Y-96903992D01*
X137103712Y-96876951D01*
X137113206Y-96856161D01*
X137158960Y-96803359D01*
X137226000Y-96783674D01*
X137293039Y-96803358D01*
G37*
%TD.AperFunction*%
%TA.AperFunction,Conductor*%
G36*
X148143778Y-76934399D02*
G01*
X148189533Y-76987203D01*
X148199477Y-77056361D01*
X148170452Y-77119917D01*
X148164420Y-77126395D01*
X148048032Y-77242782D01*
X148048028Y-77242786D01*
X147927715Y-77408386D01*
X147834781Y-77590776D01*
X147771522Y-77785465D01*
X147739500Y-77987648D01*
X147739500Y-78192351D01*
X147771522Y-78394534D01*
X147834781Y-78589223D01*
X147927715Y-78771613D01*
X148048028Y-78937213D01*
X148192786Y-79081971D01*
X148347749Y-79194556D01*
X148358390Y-79202287D01*
X148474607Y-79261503D01*
X148540776Y-79295218D01*
X148540778Y-79295218D01*
X148540781Y-79295220D01*
X148645137Y-79329127D01*
X148735465Y-79358477D01*
X148836557Y-79374488D01*
X148937648Y-79390500D01*
X148937649Y-79390500D01*
X149142351Y-79390500D01*
X149142352Y-79390500D01*
X149344534Y-79358477D01*
X149539219Y-79295220D01*
X149721610Y-79202287D01*
X149887219Y-79081966D01*
X149887218Y-79081966D01*
X149887785Y-79081555D01*
X149953591Y-79058075D01*
X150021645Y-79073901D01*
X150070340Y-79124006D01*
X150084670Y-79181972D01*
X150049566Y-123019908D01*
X150029828Y-123086932D01*
X149976987Y-123132645D01*
X149907821Y-123142533D01*
X149844288Y-123113457D01*
X149837875Y-123106745D01*
X149837552Y-123107069D01*
X149710538Y-122980055D01*
X149710534Y-122980052D01*
X149563811Y-122889551D01*
X149563800Y-122889546D01*
X149400152Y-122835319D01*
X149299154Y-122825000D01*
X149250000Y-122825000D01*
X149250000Y-124774999D01*
X149299140Y-124774999D01*
X149299154Y-124774998D01*
X149400152Y-124764680D01*
X149563800Y-124710453D01*
X149563811Y-124710448D01*
X149710533Y-124619948D01*
X149836633Y-124493848D01*
X149897956Y-124460363D01*
X149967648Y-124465347D01*
X150023582Y-124507218D01*
X150047999Y-124572682D01*
X150048315Y-124581628D01*
X150045154Y-128530137D01*
X150025416Y-128597161D01*
X149972575Y-128642874D01*
X149903409Y-128652762D01*
X149839876Y-128623686D01*
X149823890Y-128606952D01*
X149819944Y-128601962D01*
X149698038Y-128480056D01*
X149698034Y-128480053D01*
X149595178Y-128416610D01*
X149548453Y-128364662D01*
X149537232Y-128295699D01*
X149560505Y-128237439D01*
X149629116Y-128144474D01*
X149672725Y-128019848D01*
X149674680Y-127999000D01*
X149675500Y-127990259D01*
X149675500Y-127284738D01*
X149672725Y-127255149D01*
X149629115Y-127130522D01*
X149550711Y-127024288D01*
X149550710Y-127024287D01*
X149444476Y-126945883D01*
X149319848Y-126902273D01*
X149319849Y-126902273D01*
X149290260Y-126899499D01*
X149290256Y-126899499D01*
X148709744Y-126899499D01*
X148709740Y-126899499D01*
X148680150Y-126902273D01*
X148555523Y-126945883D01*
X148449289Y-127024287D01*
X148449288Y-127024288D01*
X148370884Y-127130522D01*
X148370884Y-127130523D01*
X148327693Y-127253954D01*
X148286971Y-127310730D01*
X148222018Y-127336477D01*
X148210652Y-127336999D01*
X147770079Y-127336999D01*
X147703040Y-127317314D01*
X147658678Y-127267459D01*
X147652076Y-127253954D01*
X147604198Y-127156017D01*
X147604196Y-127156015D01*
X147604196Y-127156014D01*
X147521485Y-127073303D01*
X147416388Y-127021924D01*
X147407192Y-127019083D01*
X147407628Y-127017670D01*
X147353637Y-126992888D01*
X147347338Y-126987012D01*
X147035008Y-126674681D01*
X147001523Y-126613358D01*
X147006507Y-126543666D01*
X147048379Y-126487733D01*
X147113843Y-126463316D01*
X147122689Y-126463000D01*
X147348261Y-126463000D01*
X147370971Y-126459691D01*
X147416393Y-126453073D01*
X147521483Y-126401698D01*
X147604198Y-126318983D01*
X147655573Y-126213893D01*
X147665500Y-126145760D01*
X147665500Y-125054240D01*
X147655573Y-124986107D01*
X147604198Y-124881017D01*
X147604196Y-124881015D01*
X147604196Y-124881014D01*
X147561819Y-124838637D01*
X147528334Y-124777314D01*
X147525500Y-124750956D01*
X147525500Y-124554356D01*
X147545185Y-124487317D01*
X147597989Y-124441562D01*
X147608546Y-124437314D01*
X147614439Y-124435252D01*
X147631975Y-124429116D01*
X147738211Y-124350711D01*
X147816616Y-124244475D01*
X147816617Y-124244470D01*
X147819055Y-124239859D01*
X147867782Y-124189785D01*
X147935846Y-124174004D01*
X148001638Y-124197526D01*
X148044267Y-124252884D01*
X148046393Y-124258793D01*
X148077046Y-124351300D01*
X148077051Y-124351311D01*
X148167552Y-124498034D01*
X148167555Y-124498038D01*
X148289461Y-124619944D01*
X148289465Y-124619947D01*
X148436188Y-124710448D01*
X148436199Y-124710453D01*
X148599847Y-124764680D01*
X148700851Y-124774999D01*
X148749999Y-124774998D01*
X148750000Y-124774998D01*
X148750000Y-122825000D01*
X148749999Y-122824999D01*
X148700861Y-122825000D01*
X148700843Y-122825001D01*
X148599847Y-122835319D01*
X148436199Y-122889546D01*
X148436188Y-122889551D01*
X148289465Y-122980052D01*
X148289461Y-122980055D01*
X148167555Y-123101961D01*
X148167552Y-123101965D01*
X148077051Y-123248688D01*
X148077046Y-123248699D01*
X148046393Y-123341206D01*
X148006620Y-123398651D01*
X147942105Y-123425474D01*
X147873329Y-123413159D01*
X147822129Y-123365616D01*
X147819057Y-123360144D01*
X147816617Y-123355529D01*
X147816616Y-123355525D01*
X147738211Y-123249289D01*
X147737397Y-123248688D01*
X147631976Y-123170884D01*
X147631977Y-123170884D01*
X147533544Y-123136440D01*
X147476768Y-123095717D01*
X147451022Y-123030764D01*
X147450500Y-123019399D01*
X147450500Y-122887482D01*
X147470185Y-122820443D01*
X147522989Y-122774688D01*
X147533547Y-122770440D01*
X147544472Y-122766617D01*
X147544471Y-122766617D01*
X147544475Y-122766616D01*
X147650711Y-122688211D01*
X147729116Y-122581975D01*
X147772725Y-122457349D01*
X147773537Y-122448688D01*
X147775500Y-122427760D01*
X147775500Y-121822239D01*
X147772725Y-121792650D01*
X147729115Y-121668023D01*
X147650711Y-121561789D01*
X147650710Y-121561788D01*
X147544476Y-121483384D01*
X147419848Y-121439774D01*
X147419849Y-121439774D01*
X147390260Y-121437000D01*
X147390256Y-121437000D01*
X146809744Y-121437000D01*
X146809740Y-121437000D01*
X146780150Y-121439774D01*
X146655523Y-121483384D01*
X146549289Y-121561788D01*
X146549288Y-121561789D01*
X146470884Y-121668023D01*
X146427274Y-121792650D01*
X146424500Y-121822239D01*
X146424500Y-122427760D01*
X146427274Y-122457349D01*
X146470884Y-122581976D01*
X146549288Y-122688210D01*
X146549289Y-122688211D01*
X146655522Y-122766614D01*
X146655527Y-122766617D01*
X146666453Y-122770440D01*
X146723230Y-122811161D01*
X146748978Y-122876113D01*
X146749500Y-122887482D01*
X146749500Y-123085056D01*
X146729815Y-123152095D01*
X146699134Y-123184826D01*
X146611787Y-123249290D01*
X146533384Y-123355523D01*
X146489774Y-123480150D01*
X146487000Y-123509739D01*
X146487000Y-123641887D01*
X146467315Y-123708926D01*
X146414511Y-123754681D01*
X146345353Y-123764625D01*
X146281797Y-123735600D01*
X146275319Y-123729568D01*
X146159978Y-123614227D01*
X146126493Y-123552904D01*
X146131477Y-123483212D01*
X146147892Y-123452909D01*
X146154117Y-123444475D01*
X146197726Y-123319849D01*
X146200501Y-123290256D01*
X146200501Y-122709744D01*
X146197726Y-122680151D01*
X146154117Y-122555525D01*
X146154116Y-122555523D01*
X146075714Y-122449291D01*
X146075706Y-122449283D01*
X146063365Y-122440175D01*
X146021116Y-122384527D01*
X146013001Y-122340407D01*
X146013001Y-120774500D01*
X146032686Y-120707461D01*
X146085490Y-120661706D01*
X146137001Y-120650500D01*
X146345644Y-120650500D01*
X146412683Y-120670185D01*
X146458438Y-120722989D01*
X146462685Y-120733544D01*
X146470884Y-120756976D01*
X146549288Y-120863210D01*
X146549289Y-120863211D01*
X146655523Y-120941615D01*
X146655524Y-120941615D01*
X146655525Y-120941616D01*
X146780151Y-120985225D01*
X146780150Y-120985225D01*
X146809740Y-120988000D01*
X146809744Y-120988000D01*
X147390260Y-120988000D01*
X147419849Y-120985225D01*
X147544475Y-120941616D01*
X147650711Y-120863211D01*
X147729116Y-120756975D01*
X147772725Y-120632349D01*
X147775500Y-120602756D01*
X147775500Y-119997244D01*
X147773320Y-119974000D01*
X147772725Y-119967650D01*
X147732777Y-119853488D01*
X147729324Y-119843622D01*
X147725762Y-119773844D01*
X147738979Y-119740668D01*
X147792403Y-119648133D01*
X147812984Y-119612485D01*
X147850500Y-119472474D01*
X147850500Y-119327526D01*
X147812984Y-119187515D01*
X147740510Y-119061985D01*
X147638015Y-118959490D01*
X147512485Y-118887016D01*
X147512486Y-118887016D01*
X147477482Y-118877637D01*
X147372474Y-118849500D01*
X147227526Y-118849500D01*
X147122517Y-118877637D01*
X147087514Y-118887016D01*
X146961986Y-118959489D01*
X146961983Y-118959491D01*
X146659489Y-119261985D01*
X146634945Y-119304498D01*
X146610400Y-119347012D01*
X146602929Y-119359953D01*
X146587017Y-119387512D01*
X146587017Y-119387513D01*
X146587016Y-119387515D01*
X146568237Y-119457596D01*
X146531874Y-119517254D01*
X146469027Y-119547783D01*
X146448464Y-119549500D01*
X146099501Y-119549500D01*
X146032462Y-119529815D01*
X145986707Y-119477011D01*
X145975501Y-119425500D01*
X145975501Y-118087267D01*
X145995186Y-118020228D01*
X146025868Y-117987496D01*
X146043171Y-117974727D01*
X146108801Y-117950758D01*
X146116801Y-117950500D01*
X146372472Y-117950500D01*
X146372474Y-117950500D01*
X146372475Y-117950500D01*
X146512485Y-117912984D01*
X146513421Y-117912443D01*
X146516894Y-117910439D01*
X146631147Y-117844475D01*
X146638015Y-117840510D01*
X146840510Y-117638015D01*
X146912984Y-117512485D01*
X146950499Y-117372474D01*
X146950499Y-117227526D01*
X146912984Y-117087515D01*
X146840510Y-116961986D01*
X146738014Y-116859490D01*
X146738013Y-116859489D01*
X146738010Y-116859487D01*
X146612487Y-116787017D01*
X146612486Y-116787016D01*
X146612485Y-116787016D01*
X146472474Y-116749501D01*
X146327526Y-116749501D01*
X146327524Y-116749501D01*
X146187517Y-116787014D01*
X146187514Y-116787016D01*
X146147750Y-116809973D01*
X146079850Y-116826444D01*
X146013823Y-116803591D01*
X146012119Y-116802356D01*
X146008249Y-116799500D01*
X145971373Y-116772284D01*
X145969475Y-116770883D01*
X145844849Y-116727274D01*
X145844850Y-116727274D01*
X145815261Y-116724500D01*
X145815257Y-116724500D01*
X145109745Y-116724500D01*
X145109741Y-116724500D01*
X145080151Y-116727274D01*
X144955526Y-116770883D01*
X144862560Y-116839495D01*
X144796931Y-116863465D01*
X144728760Y-116848149D01*
X144683389Y-116804821D01*
X144619946Y-116701965D01*
X144619943Y-116701961D01*
X144498037Y-116580055D01*
X144498033Y-116580052D01*
X144351310Y-116489551D01*
X144351299Y-116489546D01*
X144187651Y-116435319D01*
X144086653Y-116425000D01*
X143987499Y-116425000D01*
X143987499Y-118374999D01*
X144086639Y-118374999D01*
X144086653Y-118374998D01*
X144187651Y-118364680D01*
X144351299Y-118310453D01*
X144351310Y-118310448D01*
X144498033Y-118219947D01*
X144498037Y-118219944D01*
X144619943Y-118098038D01*
X144619946Y-118098034D01*
X144644963Y-118057477D01*
X144696911Y-118010752D01*
X144765873Y-117999531D01*
X144829955Y-118027374D01*
X144868811Y-118085443D01*
X144874501Y-118122574D01*
X144874501Y-119438222D01*
X144854816Y-119505261D01*
X144802012Y-119551016D01*
X144732854Y-119560960D01*
X144669298Y-119531935D01*
X144644963Y-119503319D01*
X144582446Y-119401965D01*
X144582443Y-119401961D01*
X144460537Y-119280055D01*
X144460533Y-119280052D01*
X144313810Y-119189551D01*
X144313799Y-119189546D01*
X144150151Y-119135319D01*
X144049153Y-119125000D01*
X143949999Y-119125000D01*
X143949999Y-121074999D01*
X144049139Y-121074999D01*
X144049153Y-121074998D01*
X144150151Y-121064680D01*
X144313799Y-121010453D01*
X144313810Y-121010448D01*
X144460533Y-120919947D01*
X144460537Y-120919944D01*
X144582442Y-120798039D01*
X144645888Y-120695178D01*
X144697836Y-120648454D01*
X144766799Y-120637231D01*
X144825059Y-120660504D01*
X144861633Y-120687496D01*
X144903885Y-120743143D01*
X144912001Y-120787267D01*
X144912001Y-122338222D01*
X144892316Y-122405261D01*
X144839512Y-122451016D01*
X144770354Y-122460960D01*
X144706798Y-122431935D01*
X144682463Y-122403319D01*
X144619946Y-122301965D01*
X144619943Y-122301961D01*
X144498037Y-122180055D01*
X144498033Y-122180052D01*
X144351310Y-122089551D01*
X144351299Y-122089546D01*
X144187651Y-122035319D01*
X144086653Y-122025000D01*
X143987499Y-122025000D01*
X143987499Y-123974999D01*
X144086639Y-123974999D01*
X144086653Y-123974998D01*
X144187651Y-123964680D01*
X144351299Y-123910453D01*
X144351310Y-123910448D01*
X144498033Y-123819947D01*
X144498037Y-123819944D01*
X144619943Y-123698038D01*
X144619946Y-123698034D01*
X144682463Y-123596680D01*
X144734410Y-123549955D01*
X144803373Y-123538734D01*
X144867455Y-123566577D01*
X144906311Y-123624646D01*
X144912001Y-123661777D01*
X144912001Y-123767749D01*
X144913771Y-123774354D01*
X144913772Y-123774362D01*
X144913773Y-123774362D01*
X144949517Y-123907760D01*
X144988336Y-123974998D01*
X145021990Y-124033288D01*
X145021992Y-124033291D01*
X145514020Y-124525319D01*
X145547505Y-124586642D01*
X145542521Y-124656334D01*
X145500649Y-124712267D01*
X145435185Y-124736684D01*
X145426339Y-124737000D01*
X145081741Y-124737000D01*
X145013610Y-124746926D01*
X144908516Y-124798303D01*
X144843639Y-124863181D01*
X144782316Y-124896666D01*
X144755958Y-124899500D01*
X144174500Y-124899500D01*
X144107461Y-124879815D01*
X144061706Y-124827011D01*
X144050500Y-124775500D01*
X144050500Y-124435249D01*
X144050499Y-124435247D01*
X144038868Y-124376770D01*
X144038867Y-124376769D01*
X143994552Y-124310447D01*
X143928230Y-124266132D01*
X143928229Y-124266131D01*
X143869752Y-124254500D01*
X143869748Y-124254500D01*
X141681276Y-124254500D01*
X141614237Y-124234815D01*
X141568482Y-124182011D01*
X141558538Y-124112853D01*
X141568481Y-124078989D01*
X141569846Y-124076000D01*
X141585165Y-124042457D01*
X141605647Y-123900000D01*
X141585165Y-123757543D01*
X141525377Y-123626627D01*
X141431128Y-123517857D01*
X141310053Y-123440047D01*
X141310051Y-123440046D01*
X141310049Y-123440045D01*
X141310050Y-123440045D01*
X141171963Y-123399500D01*
X141171961Y-123399500D01*
X141028039Y-123399500D01*
X141028036Y-123399500D01*
X140889949Y-123440045D01*
X140768873Y-123517856D01*
X140674623Y-123626626D01*
X140674622Y-123626628D01*
X140614834Y-123757543D01*
X140594353Y-123900000D01*
X140614834Y-124042454D01*
X140631519Y-124078989D01*
X140641462Y-124148148D01*
X140612437Y-124211703D01*
X140553658Y-124249477D01*
X140518724Y-124254500D01*
X140330247Y-124254500D01*
X140271770Y-124266131D01*
X140271769Y-124266132D01*
X140205447Y-124310447D01*
X140161132Y-124376769D01*
X140161131Y-124376770D01*
X140149500Y-124435247D01*
X140149500Y-126224752D01*
X140161131Y-126283229D01*
X140161132Y-126283230D01*
X140205447Y-126349552D01*
X140271769Y-126393867D01*
X140271770Y-126393868D01*
X140330247Y-126405499D01*
X140330250Y-126405500D01*
X140330252Y-126405500D01*
X143869750Y-126405500D01*
X143869751Y-126405499D01*
X143888872Y-126401696D01*
X143928229Y-126393868D01*
X143928229Y-126393867D01*
X143928231Y-126393867D01*
X143994552Y-126349552D01*
X144038867Y-126283231D01*
X144038867Y-126283229D01*
X144038868Y-126283229D01*
X144050499Y-126224752D01*
X144050500Y-126224750D01*
X144050500Y-126224500D01*
X144050537Y-126224373D01*
X144051097Y-126218688D01*
X144052175Y-126218794D01*
X144070185Y-126157461D01*
X144122989Y-126111706D01*
X144174500Y-126100500D01*
X144650665Y-126100500D01*
X144717704Y-126120185D01*
X144763459Y-126172989D01*
X144773369Y-126206620D01*
X144774428Y-126213891D01*
X144825805Y-126318985D01*
X144908516Y-126401696D01*
X144908517Y-126401696D01*
X144908519Y-126401698D01*
X144961508Y-126427602D01*
X144997977Y-126457426D01*
X144998790Y-126456614D01*
X145342495Y-126800319D01*
X145375980Y-126861642D01*
X145370996Y-126931334D01*
X145329124Y-126987267D01*
X145263660Y-127011684D01*
X145254814Y-127012000D01*
X145081741Y-127012000D01*
X145013610Y-127021926D01*
X144908516Y-127073303D01*
X144825805Y-127156014D01*
X144825804Y-127156017D01*
X144801876Y-127204961D01*
X144754750Y-127256542D01*
X144690477Y-127274500D01*
X144172006Y-127274500D01*
X144104967Y-127254815D01*
X144059212Y-127202011D01*
X144050389Y-127174691D01*
X144038868Y-127116770D01*
X144038867Y-127116769D01*
X143994552Y-127050447D01*
X143928230Y-127006132D01*
X143928229Y-127006131D01*
X143869752Y-126994500D01*
X143869748Y-126994500D01*
X140330252Y-126994500D01*
X140330247Y-126994500D01*
X140271770Y-127006131D01*
X140271769Y-127006132D01*
X140205447Y-127050447D01*
X140161132Y-127116769D01*
X140161131Y-127116770D01*
X140149500Y-127175247D01*
X140149500Y-128000903D01*
X140129815Y-128067942D01*
X140077011Y-128113697D01*
X140007853Y-128123641D01*
X139944297Y-128094616D01*
X139937819Y-128088584D01*
X139236819Y-127387584D01*
X139203334Y-127326261D01*
X139200500Y-127299903D01*
X139200500Y-125906003D01*
X139177883Y-125792303D01*
X139175500Y-125768111D01*
X139175500Y-125634738D01*
X139172725Y-125605149D01*
X139129115Y-125480522D01*
X139050711Y-125374288D01*
X139050710Y-125374287D01*
X138944476Y-125295883D01*
X138819848Y-125252273D01*
X138819849Y-125252273D01*
X138790260Y-125249499D01*
X138790256Y-125249499D01*
X138209744Y-125249499D01*
X138209740Y-125249499D01*
X138180150Y-125252273D01*
X138055523Y-125295883D01*
X137949289Y-125374287D01*
X137949288Y-125374288D01*
X137870884Y-125480522D01*
X137827274Y-125605149D01*
X137824500Y-125634738D01*
X137824500Y-125768111D01*
X137822117Y-125792303D01*
X137799500Y-125906003D01*
X137799500Y-125906006D01*
X137799500Y-127568993D01*
X137799500Y-127568995D01*
X137799499Y-127568995D01*
X137822117Y-127682694D01*
X137824500Y-127706886D01*
X137824500Y-127840260D01*
X137827274Y-127869849D01*
X137870884Y-127994476D01*
X137949288Y-128100710D01*
X137949289Y-128100711D01*
X138055523Y-128179115D01*
X138055524Y-128179115D01*
X138055525Y-128179116D01*
X138180151Y-128222725D01*
X138180150Y-128222725D01*
X138209740Y-128225500D01*
X138209744Y-128225500D01*
X138324903Y-128225500D01*
X138391942Y-128245185D01*
X138412584Y-128261819D01*
X138463582Y-128312817D01*
X138497067Y-128374140D01*
X138492083Y-128443832D01*
X138450211Y-128499765D01*
X138384747Y-128524182D01*
X138375901Y-128524498D01*
X138209740Y-128524498D01*
X138180155Y-128527272D01*
X138180146Y-128527274D01*
X138136524Y-128542539D01*
X138095568Y-128549498D01*
X135488209Y-128549498D01*
X135421170Y-128529813D01*
X135375415Y-128477009D01*
X135365471Y-128407851D01*
X135394496Y-128344295D01*
X135453274Y-128306521D01*
X135459262Y-128304924D01*
X135603702Y-128270247D01*
X135840012Y-128172365D01*
X135840015Y-128172363D01*
X136058103Y-128038719D01*
X136061912Y-128035464D01*
X135500562Y-127474114D01*
X135502626Y-127473260D01*
X135641844Y-127380238D01*
X135760238Y-127261844D01*
X135853260Y-127122626D01*
X135854114Y-127120562D01*
X136415464Y-127681912D01*
X136418719Y-127678103D01*
X136552363Y-127460015D01*
X136552365Y-127460012D01*
X136650247Y-127223702D01*
X136709957Y-126974989D01*
X136730024Y-126720000D01*
X136709957Y-126465010D01*
X136650247Y-126216297D01*
X136552365Y-125979987D01*
X136552363Y-125979984D01*
X136418719Y-125761898D01*
X136418712Y-125761888D01*
X136415465Y-125758087D01*
X136415464Y-125758087D01*
X135854114Y-126319437D01*
X135853260Y-126317374D01*
X135760238Y-126178156D01*
X135641844Y-126059762D01*
X135502626Y-125966740D01*
X135500561Y-125965884D01*
X136061911Y-125404535D01*
X136061911Y-125404533D01*
X136058110Y-125401286D01*
X136058095Y-125401275D01*
X135858462Y-125278940D01*
X135811587Y-125227129D01*
X135800164Y-125158199D01*
X135827821Y-125094036D01*
X135858156Y-125067674D01*
X135935537Y-125019945D01*
X136057445Y-124898037D01*
X136120888Y-124795180D01*
X136172836Y-124748455D01*
X136241798Y-124737232D01*
X136300058Y-124760504D01*
X136356716Y-124802319D01*
X136393025Y-124829116D01*
X136517651Y-124872725D01*
X136517650Y-124872725D01*
X136547240Y-124875500D01*
X136547244Y-124875500D01*
X136693113Y-124875500D01*
X136717303Y-124877882D01*
X136727017Y-124879815D01*
X136831004Y-124900500D01*
X136831007Y-124900500D01*
X138024120Y-124900500D01*
X138065076Y-124907459D01*
X138180151Y-124947726D01*
X138180150Y-124947726D01*
X138209740Y-124950501D01*
X138209744Y-124950501D01*
X138790260Y-124950501D01*
X138819849Y-124947726D01*
X138944475Y-124904117D01*
X139050711Y-124825712D01*
X139129116Y-124719476D01*
X139172725Y-124594850D01*
X139175500Y-124565257D01*
X139175500Y-124431888D01*
X139177883Y-124407696D01*
X139200500Y-124293997D01*
X139200500Y-123286654D01*
X142700000Y-123286654D01*
X142710318Y-123387652D01*
X142764545Y-123551300D01*
X142764550Y-123551311D01*
X142855051Y-123698034D01*
X142855054Y-123698038D01*
X142976960Y-123819944D01*
X142976964Y-123819947D01*
X143123687Y-123910448D01*
X143123698Y-123910453D01*
X143287346Y-123964680D01*
X143388350Y-123974999D01*
X143487499Y-123974998D01*
X143487499Y-123250000D01*
X142700000Y-123250000D01*
X142700000Y-123286654D01*
X139200500Y-123286654D01*
X139200500Y-122713345D01*
X142699999Y-122713345D01*
X142699999Y-122750000D01*
X143487499Y-122750000D01*
X143487499Y-122024999D01*
X143388359Y-122025000D01*
X143388343Y-122025001D01*
X143287346Y-122035319D01*
X143123698Y-122089546D01*
X143123687Y-122089551D01*
X142976964Y-122180052D01*
X142976960Y-122180055D01*
X142855054Y-122301961D01*
X142855051Y-122301965D01*
X142764550Y-122448688D01*
X142764545Y-122448699D01*
X142710318Y-122612347D01*
X142699999Y-122713345D01*
X139200500Y-122713345D01*
X139200500Y-122606003D01*
X139177883Y-122492303D01*
X139175500Y-122468111D01*
X139175500Y-122334738D01*
X139172725Y-122305149D01*
X139129115Y-122180522D01*
X139050711Y-122074288D01*
X139050710Y-122074287D01*
X138944476Y-121995883D01*
X138819848Y-121952273D01*
X138819849Y-121952273D01*
X138790260Y-121949499D01*
X138790256Y-121949499D01*
X138209744Y-121949499D01*
X138209740Y-121949499D01*
X138180150Y-121952273D01*
X138055523Y-121995883D01*
X137949289Y-122074287D01*
X137949288Y-122074288D01*
X137870884Y-122180522D01*
X137827274Y-122305149D01*
X137824500Y-122334738D01*
X137824500Y-122468111D01*
X137822117Y-122492303D01*
X137799500Y-122606003D01*
X137799500Y-123375500D01*
X137779815Y-123442539D01*
X137727011Y-123488294D01*
X137675500Y-123499500D01*
X136831005Y-123499500D01*
X136752494Y-123515117D01*
X136717303Y-123522117D01*
X136693113Y-123524500D01*
X136547240Y-123524500D01*
X136517650Y-123527274D01*
X136393025Y-123570883D01*
X136300060Y-123639494D01*
X136234430Y-123663464D01*
X136166260Y-123648148D01*
X136120888Y-123604820D01*
X136057443Y-123501960D01*
X135935538Y-123380055D01*
X135935534Y-123380052D01*
X135788811Y-123289551D01*
X135788800Y-123289546D01*
X135625152Y-123235319D01*
X135524154Y-123225000D01*
X135425000Y-123225000D01*
X135425000Y-124076000D01*
X135405315Y-124143039D01*
X135352511Y-124188794D01*
X135301000Y-124200000D01*
X135175000Y-124200000D01*
X135175000Y-124326000D01*
X135155315Y-124393039D01*
X135102511Y-124438794D01*
X135051000Y-124450000D01*
X134137501Y-124450000D01*
X134137501Y-124486654D01*
X134147819Y-124587652D01*
X134202046Y-124751300D01*
X134202051Y-124751311D01*
X134292552Y-124898034D01*
X134292555Y-124898038D01*
X134414461Y-125019944D01*
X134426428Y-125027326D01*
X134473151Y-125079275D01*
X134484371Y-125148238D01*
X134456526Y-125212319D01*
X134408781Y-125247424D01*
X134359983Y-125267636D01*
X134141897Y-125401280D01*
X134138087Y-125404534D01*
X134699438Y-125965884D01*
X134697374Y-125966740D01*
X134558156Y-126059762D01*
X134439762Y-126178156D01*
X134346740Y-126317374D01*
X134345884Y-126319438D01*
X133784533Y-125758087D01*
X133781280Y-125761897D01*
X133647636Y-125979984D01*
X133647634Y-125979987D01*
X133549752Y-126216297D01*
X133490042Y-126465010D01*
X133469975Y-126720000D01*
X133490042Y-126974989D01*
X133549752Y-127223702D01*
X133647634Y-127460012D01*
X133647636Y-127460015D01*
X133781275Y-127678095D01*
X133781286Y-127678110D01*
X133784533Y-127681911D01*
X133784535Y-127681911D01*
X134345884Y-127120561D01*
X134346740Y-127122626D01*
X134439762Y-127261844D01*
X134558156Y-127380238D01*
X134697374Y-127473260D01*
X134699437Y-127474114D01*
X134138087Y-128035464D01*
X134138087Y-128035465D01*
X134141888Y-128038712D01*
X134141898Y-128038719D01*
X134359984Y-128172363D01*
X134359987Y-128172365D01*
X134596297Y-128270247D01*
X134740738Y-128304924D01*
X134801330Y-128339715D01*
X134833494Y-128401741D01*
X134827018Y-128471310D01*
X134783958Y-128526334D01*
X134717986Y-128549343D01*
X134711791Y-128549498D01*
X133623110Y-128549498D01*
X133556071Y-128529813D01*
X133521536Y-128496623D01*
X133517925Y-128491466D01*
X133502373Y-128469255D01*
X133350745Y-128317627D01*
X133283080Y-128270247D01*
X133175090Y-128194631D01*
X133067527Y-128144474D01*
X132980747Y-128104008D01*
X132980743Y-128104007D01*
X132980739Y-128104005D01*
X132773624Y-128048509D01*
X132773620Y-128048508D01*
X132773619Y-128048508D01*
X132773618Y-128048507D01*
X132773613Y-128048507D01*
X132560002Y-128029819D01*
X132559998Y-128029819D01*
X132346386Y-128048507D01*
X132346375Y-128048509D01*
X132139260Y-128104005D01*
X132139251Y-128104009D01*
X131944910Y-128194631D01*
X131944908Y-128194632D01*
X131769259Y-128317623D01*
X131769253Y-128317628D01*
X131617628Y-128469253D01*
X131617623Y-128469259D01*
X131494632Y-128644908D01*
X131494631Y-128644910D01*
X131404009Y-128839251D01*
X131404005Y-128839260D01*
X131348509Y-129046375D01*
X131348507Y-129046386D01*
X131329819Y-129259998D01*
X131329819Y-129260001D01*
X131348507Y-129473613D01*
X131348509Y-129473624D01*
X131404005Y-129680739D01*
X131404007Y-129680743D01*
X131404008Y-129680747D01*
X131433724Y-129744473D01*
X131494631Y-129875090D01*
X131602181Y-130028686D01*
X131617627Y-130050745D01*
X131769255Y-130202373D01*
X131944909Y-130325368D01*
X132139253Y-130415992D01*
X132139259Y-130415993D01*
X132139260Y-130415994D01*
X132189109Y-130429350D01*
X132346381Y-130471492D01*
X132495442Y-130484533D01*
X132559998Y-130490181D01*
X132560000Y-130490181D01*
X132560002Y-130490181D01*
X132613404Y-130485508D01*
X132773619Y-130471492D01*
X132980747Y-130415992D01*
X133175091Y-130325368D01*
X133350745Y-130202373D01*
X133502373Y-130050745D01*
X133535543Y-130003374D01*
X133590120Y-129959749D01*
X133637117Y-129950498D01*
X134795115Y-129950498D01*
X134862154Y-129970183D01*
X134907909Y-130022987D01*
X134917853Y-130092145D01*
X134888828Y-130155701D01*
X134830050Y-130193475D01*
X134824062Y-130195072D01*
X134596297Y-130249752D01*
X134359987Y-130347634D01*
X134359984Y-130347636D01*
X134141897Y-130481280D01*
X134138087Y-130484534D01*
X134699438Y-131045884D01*
X134697374Y-131046740D01*
X134558156Y-131139762D01*
X134439762Y-131258156D01*
X134346740Y-131397374D01*
X134345884Y-131399438D01*
X133784533Y-130838087D01*
X133781280Y-130841897D01*
X133647636Y-131059984D01*
X133647634Y-131059987D01*
X133549752Y-131296297D01*
X133490042Y-131545010D01*
X133469975Y-131800000D01*
X133490042Y-132054989D01*
X133549752Y-132303702D01*
X133647634Y-132540012D01*
X133647636Y-132540015D01*
X133781275Y-132758095D01*
X133781286Y-132758110D01*
X133784533Y-132761911D01*
X133784535Y-132761911D01*
X134345884Y-132200561D01*
X134346740Y-132202626D01*
X134439762Y-132341844D01*
X134558156Y-132460238D01*
X134697374Y-132553260D01*
X134699437Y-132554114D01*
X134138087Y-133115464D01*
X134138087Y-133115465D01*
X134141888Y-133118712D01*
X134141898Y-133118719D01*
X134359984Y-133252363D01*
X134359987Y-133252365D01*
X134596297Y-133350247D01*
X134845011Y-133409957D01*
X134845010Y-133409957D01*
X135100000Y-133430024D01*
X135354989Y-133409957D01*
X135603702Y-133350247D01*
X135840012Y-133252365D01*
X135840015Y-133252363D01*
X136058103Y-133118719D01*
X136061912Y-133115464D01*
X135500562Y-132554114D01*
X135502626Y-132553260D01*
X135641844Y-132460238D01*
X135760238Y-132341844D01*
X135853260Y-132202626D01*
X135854114Y-132200562D01*
X136415464Y-132761912D01*
X136418719Y-132758103D01*
X136552363Y-132540015D01*
X136552365Y-132540012D01*
X136650247Y-132303702D01*
X136696353Y-132111655D01*
X139225001Y-132111655D01*
X139235319Y-132212653D01*
X139289546Y-132376301D01*
X139289551Y-132376312D01*
X139380052Y-132523035D01*
X139380055Y-132523039D01*
X139501961Y-132644945D01*
X139501965Y-132644948D01*
X139648688Y-132735449D01*
X139648699Y-132735454D01*
X139812347Y-132789681D01*
X139913352Y-132800000D01*
X139950000Y-132800000D01*
X140450000Y-132800000D01*
X140486640Y-132800000D01*
X140486654Y-132799999D01*
X140587652Y-132789681D01*
X140751300Y-132735454D01*
X140751311Y-132735449D01*
X140898034Y-132644948D01*
X140898038Y-132644945D01*
X141019944Y-132523039D01*
X141019947Y-132523035D01*
X141110448Y-132376312D01*
X141110453Y-132376301D01*
X141164680Y-132212653D01*
X141174999Y-132111655D01*
X141175000Y-132111642D01*
X141175000Y-132012501D01*
X140450000Y-132012501D01*
X140450000Y-132800000D01*
X139950000Y-132800000D01*
X139950000Y-132012501D01*
X139225001Y-132012501D01*
X139225001Y-132111655D01*
X136696353Y-132111655D01*
X136709957Y-132054989D01*
X136730024Y-131800000D01*
X136709957Y-131545010D01*
X136650247Y-131296297D01*
X136552365Y-131059987D01*
X136552363Y-131059984D01*
X136418719Y-130841898D01*
X136418712Y-130841888D01*
X136415465Y-130838087D01*
X136415464Y-130838087D01*
X135854114Y-131399437D01*
X135853260Y-131397374D01*
X135760238Y-131258156D01*
X135641844Y-131139762D01*
X135502626Y-131046740D01*
X135500561Y-131045884D01*
X136061911Y-130484535D01*
X136061911Y-130484533D01*
X136058110Y-130481286D01*
X136058095Y-130481275D01*
X135840015Y-130347636D01*
X135840012Y-130347634D01*
X135603702Y-130249752D01*
X135375938Y-130195072D01*
X135315346Y-130160281D01*
X135283182Y-130098255D01*
X135289658Y-130028686D01*
X135332718Y-129973662D01*
X135398690Y-129950653D01*
X135404885Y-129950498D01*
X138095568Y-129950498D01*
X138136523Y-129957456D01*
X138180151Y-129972723D01*
X138194947Y-129974110D01*
X138209740Y-129975498D01*
X138209744Y-129975498D01*
X138790260Y-129975498D01*
X138819849Y-129972723D01*
X138863476Y-129957457D01*
X138944475Y-129929114D01*
X139049762Y-129851408D01*
X139115385Y-129827440D01*
X139183556Y-129842755D01*
X139230778Y-129889182D01*
X139269475Y-129956208D01*
X139269481Y-129956216D01*
X139388349Y-130075084D01*
X139388355Y-130075089D01*
X139488181Y-130174915D01*
X139521666Y-130236238D01*
X139524500Y-130262596D01*
X139524500Y-130390259D01*
X139527274Y-130419848D01*
X139570883Y-130544473D01*
X139639495Y-130637439D01*
X139663465Y-130703068D01*
X139648149Y-130771238D01*
X139604822Y-130816610D01*
X139501962Y-130880055D01*
X139380055Y-131001962D01*
X139380052Y-131001966D01*
X139289551Y-131148689D01*
X139289546Y-131148700D01*
X139235319Y-131312348D01*
X139225000Y-131413346D01*
X139225000Y-131512501D01*
X141174999Y-131512501D01*
X141174999Y-131413361D01*
X141174998Y-131413346D01*
X141164680Y-131312348D01*
X141110453Y-131148700D01*
X141110448Y-131148689D01*
X141019947Y-131001966D01*
X141019944Y-131001962D01*
X140898038Y-130880056D01*
X140898034Y-130880053D01*
X140795178Y-130816610D01*
X140748453Y-130764662D01*
X140737232Y-130695699D01*
X140760505Y-130637439D01*
X140829116Y-130544474D01*
X140872725Y-130419848D01*
X140874586Y-130400000D01*
X140875500Y-130390259D01*
X140875500Y-129684738D01*
X140872725Y-129655149D01*
X140849251Y-129588066D01*
X140829116Y-129530524D01*
X140826472Y-129526942D01*
X140750711Y-129424288D01*
X140750710Y-129424287D01*
X140676164Y-129369270D01*
X140633913Y-129313623D01*
X140628454Y-129243967D01*
X140661521Y-129182417D01*
X140722615Y-129148516D01*
X140749797Y-129145500D01*
X143869750Y-129145500D01*
X143869751Y-129145499D01*
X143884568Y-129142552D01*
X143928229Y-129133868D01*
X143928229Y-129133867D01*
X143928231Y-129133867D01*
X143994552Y-129089552D01*
X144038867Y-129023231D01*
X144038867Y-129023229D01*
X144038868Y-129023229D01*
X144050499Y-128964752D01*
X144050500Y-128964750D01*
X144050500Y-128599500D01*
X144070185Y-128532461D01*
X144122989Y-128486706D01*
X144174500Y-128475500D01*
X144690477Y-128475500D01*
X144757516Y-128495185D01*
X144801876Y-128545038D01*
X144804057Y-128549498D01*
X144825805Y-128593985D01*
X144908516Y-128676696D01*
X144908517Y-128676696D01*
X144908519Y-128676698D01*
X145013609Y-128728073D01*
X145047675Y-128733036D01*
X145081741Y-128738000D01*
X145446968Y-128738000D01*
X145514007Y-128757685D01*
X145544950Y-128786003D01*
X145547321Y-128789060D01*
X145663439Y-128905178D01*
X145663448Y-128905185D01*
X145804802Y-128988781D01*
X145962515Y-129034600D01*
X145962512Y-129034600D01*
X145964999Y-129034795D01*
X145965001Y-129034795D01*
X145965001Y-127999000D01*
X145984686Y-127931961D01*
X146037490Y-127886206D01*
X146089001Y-127875000D01*
X146341001Y-127875000D01*
X146408040Y-127894685D01*
X146453795Y-127947489D01*
X146465001Y-127999000D01*
X146465001Y-129034795D01*
X146465002Y-129034795D01*
X146467487Y-129034600D01*
X146625197Y-128988782D01*
X146677378Y-128957922D01*
X146745102Y-128940739D01*
X146811365Y-128962898D01*
X146855128Y-129017364D01*
X146864500Y-129064654D01*
X146864500Y-129459903D01*
X146844815Y-129526942D01*
X146828181Y-129547584D01*
X145462584Y-130913181D01*
X145401261Y-130946666D01*
X145374903Y-130949500D01*
X144355247Y-130949500D01*
X144296770Y-130961131D01*
X144296769Y-130961132D01*
X144230447Y-131005447D01*
X144186132Y-131071769D01*
X144186131Y-131071770D01*
X144174500Y-131130247D01*
X144174500Y-132869752D01*
X144186131Y-132928229D01*
X144186132Y-132928230D01*
X144230447Y-132994552D01*
X144296769Y-133038867D01*
X144296770Y-133038868D01*
X144355247Y-133050499D01*
X144355250Y-133050500D01*
X144355252Y-133050500D01*
X146094750Y-133050500D01*
X146094751Y-133050499D01*
X146109568Y-133047552D01*
X146153229Y-133038868D01*
X146153229Y-133038867D01*
X146153231Y-133038867D01*
X146219552Y-132994552D01*
X146263867Y-132928231D01*
X146263867Y-132928229D01*
X146263868Y-132928229D01*
X146272707Y-132883787D01*
X146275500Y-132869748D01*
X146275500Y-132559456D01*
X146295185Y-132492417D01*
X146347989Y-132446662D01*
X146417147Y-132436718D01*
X146480703Y-132465743D01*
X146511882Y-132507051D01*
X146591400Y-132677578D01*
X146726894Y-132871082D01*
X146893917Y-133038105D01*
X147087421Y-133173600D01*
X147301507Y-133273429D01*
X147301516Y-133273433D01*
X147515000Y-133330634D01*
X147515000Y-132433012D01*
X147572007Y-132465925D01*
X147699174Y-132500000D01*
X147830826Y-132500000D01*
X147957993Y-132465925D01*
X148015000Y-132433012D01*
X148015000Y-133330633D01*
X148228483Y-133273433D01*
X148228492Y-133273429D01*
X148442578Y-133173600D01*
X148636082Y-133038105D01*
X148803105Y-132871082D01*
X148938600Y-132677578D01*
X149038429Y-132463492D01*
X149038432Y-132463486D01*
X149095636Y-132250000D01*
X148198012Y-132250000D01*
X148230925Y-132192993D01*
X148265000Y-132065826D01*
X148265000Y-131934174D01*
X148230925Y-131807007D01*
X148198012Y-131750000D01*
X149095636Y-131750000D01*
X149095635Y-131749999D01*
X149038432Y-131536513D01*
X149038429Y-131536507D01*
X148938600Y-131322422D01*
X148938599Y-131322420D01*
X148803113Y-131128926D01*
X148803108Y-131128920D01*
X148636082Y-130961894D01*
X148442578Y-130826399D01*
X148228492Y-130726570D01*
X148228486Y-130726567D01*
X148015000Y-130669364D01*
X148015000Y-131566988D01*
X147957993Y-131534075D01*
X147830826Y-131500000D01*
X147699174Y-131500000D01*
X147572007Y-131534075D01*
X147515000Y-131566988D01*
X147515000Y-130610595D01*
X147534685Y-130543556D01*
X147551314Y-130522920D01*
X147823506Y-130250727D01*
X147823511Y-130250724D01*
X147833714Y-130240520D01*
X147833716Y-130240520D01*
X147945520Y-130128716D01*
X147956736Y-130109288D01*
X148007302Y-130061073D01*
X148075908Y-130047848D01*
X148140774Y-130073815D01*
X148169663Y-130106190D01*
X148180056Y-130123040D01*
X148301961Y-130244945D01*
X148301965Y-130244948D01*
X148448688Y-130335449D01*
X148448699Y-130335454D01*
X148612347Y-130389681D01*
X148713352Y-130400000D01*
X148750000Y-130400000D01*
X148750000Y-129486501D01*
X148769685Y-129419462D01*
X148822489Y-129373707D01*
X148874000Y-129362501D01*
X149126000Y-129362501D01*
X149193039Y-129382186D01*
X149238794Y-129434990D01*
X149250000Y-129486501D01*
X149250000Y-130400000D01*
X149286640Y-130400000D01*
X149286654Y-130399999D01*
X149387652Y-130389681D01*
X149551300Y-130335454D01*
X149551311Y-130335449D01*
X149698034Y-130244948D01*
X149698038Y-130244945D01*
X149819939Y-130123044D01*
X149822550Y-130119743D01*
X149824917Y-130118066D01*
X149825052Y-130117932D01*
X149825074Y-130117954D01*
X149879571Y-130079365D01*
X149949370Y-130076224D01*
X150009787Y-130111317D01*
X150041639Y-130173504D01*
X150043819Y-130196750D01*
X150042058Y-132395706D01*
X150042000Y-132396604D01*
X150042000Y-132465565D01*
X150041684Y-132474411D01*
X150027369Y-132674556D01*
X150024851Y-132692068D01*
X149983146Y-132883787D01*
X149978162Y-132900763D01*
X149909590Y-133084609D01*
X149902240Y-133100701D01*
X149808211Y-133272904D01*
X149798646Y-133287789D01*
X149681058Y-133444867D01*
X149669472Y-133458237D01*
X149530737Y-133596972D01*
X149517367Y-133608558D01*
X149360289Y-133726146D01*
X149345404Y-133735711D01*
X149173201Y-133829740D01*
X149157109Y-133837090D01*
X148973263Y-133905662D01*
X148956287Y-133910646D01*
X148764568Y-133952351D01*
X148747057Y-133954869D01*
X148566279Y-133967799D01*
X148546917Y-133969184D01*
X148538072Y-133969500D01*
X126461928Y-133969500D01*
X126453082Y-133969184D01*
X126431122Y-133967613D01*
X126252942Y-133954869D01*
X126235431Y-133952351D01*
X126043712Y-133910646D01*
X126026736Y-133905662D01*
X125842890Y-133837090D01*
X125826798Y-133829740D01*
X125654595Y-133735711D01*
X125639710Y-133726146D01*
X125482632Y-133608558D01*
X125469262Y-133596972D01*
X125330527Y-133458237D01*
X125318941Y-133444867D01*
X125233426Y-133330633D01*
X125201349Y-133287784D01*
X125191788Y-133272904D01*
X125097759Y-133100701D01*
X125090409Y-133084609D01*
X125077687Y-133050500D01*
X125021834Y-132900755D01*
X125016855Y-132883797D01*
X124975147Y-132692063D01*
X124972630Y-132674556D01*
X124970874Y-132650000D01*
X124958318Y-132474452D01*
X124958003Y-132465539D01*
X124958536Y-131800000D01*
X128389975Y-131800000D01*
X128410042Y-132054989D01*
X128469752Y-132303702D01*
X128567634Y-132540012D01*
X128567636Y-132540015D01*
X128701275Y-132758095D01*
X128701286Y-132758110D01*
X128704533Y-132761911D01*
X128704535Y-132761911D01*
X129265884Y-132200561D01*
X129266740Y-132202626D01*
X129359762Y-132341844D01*
X129478156Y-132460238D01*
X129617374Y-132553260D01*
X129619437Y-132554114D01*
X129058087Y-133115464D01*
X129058087Y-133115465D01*
X129061888Y-133118712D01*
X129061898Y-133118719D01*
X129279984Y-133252363D01*
X129279987Y-133252365D01*
X129516297Y-133350247D01*
X129765011Y-133409957D01*
X129765010Y-133409957D01*
X130020000Y-133430024D01*
X130274989Y-133409957D01*
X130523702Y-133350247D01*
X130760012Y-133252365D01*
X130760015Y-133252363D01*
X130978103Y-133118719D01*
X130981912Y-133115464D01*
X130420562Y-132554114D01*
X130422626Y-132553260D01*
X130561844Y-132460238D01*
X130680238Y-132341844D01*
X130773260Y-132202626D01*
X130774114Y-132200562D01*
X131335464Y-132761912D01*
X131338719Y-132758103D01*
X131472363Y-132540015D01*
X131472365Y-132540012D01*
X131570247Y-132303702D01*
X131629957Y-132054989D01*
X131650024Y-131800000D01*
X131629957Y-131545010D01*
X131570247Y-131296297D01*
X131472365Y-131059987D01*
X131472363Y-131059984D01*
X131338719Y-130841898D01*
X131338712Y-130841888D01*
X131335465Y-130838087D01*
X131335464Y-130838087D01*
X130774114Y-131399437D01*
X130773260Y-131397374D01*
X130680238Y-131258156D01*
X130561844Y-131139762D01*
X130422626Y-131046740D01*
X130420561Y-131045884D01*
X130981911Y-130484535D01*
X130981911Y-130484533D01*
X130978110Y-130481286D01*
X130978095Y-130481275D01*
X130760015Y-130347636D01*
X130760012Y-130347634D01*
X130523702Y-130249752D01*
X130274988Y-130190042D01*
X130274989Y-130190042D01*
X130020000Y-130169975D01*
X129765010Y-130190042D01*
X129516297Y-130249752D01*
X129279987Y-130347634D01*
X129279984Y-130347636D01*
X129061897Y-130481280D01*
X129058087Y-130484534D01*
X129619438Y-131045884D01*
X129617374Y-131046740D01*
X129478156Y-131139762D01*
X129359762Y-131258156D01*
X129266740Y-131397374D01*
X129265885Y-131399438D01*
X128704534Y-130838087D01*
X128701280Y-130841897D01*
X128567636Y-131059984D01*
X128567634Y-131059987D01*
X128469752Y-131296297D01*
X128410042Y-131545010D01*
X128389975Y-131800000D01*
X124958536Y-131800000D01*
X124962604Y-126720000D01*
X128389975Y-126720000D01*
X128410042Y-126974989D01*
X128469752Y-127223702D01*
X128567634Y-127460012D01*
X128567636Y-127460015D01*
X128701275Y-127678095D01*
X128701286Y-127678110D01*
X128704533Y-127681911D01*
X128704535Y-127681911D01*
X129265884Y-127120561D01*
X129266740Y-127122626D01*
X129359762Y-127261844D01*
X129478156Y-127380238D01*
X129617374Y-127473260D01*
X129619437Y-127474114D01*
X129058087Y-128035464D01*
X129058087Y-128035465D01*
X129061888Y-128038712D01*
X129061898Y-128038719D01*
X129279984Y-128172363D01*
X129279987Y-128172365D01*
X129516297Y-128270247D01*
X129765011Y-128329957D01*
X129765010Y-128329957D01*
X130020000Y-128350024D01*
X130274989Y-128329957D01*
X130523702Y-128270247D01*
X130760012Y-128172365D01*
X130760015Y-128172363D01*
X130978103Y-128038719D01*
X130981912Y-128035464D01*
X130420562Y-127474114D01*
X130422626Y-127473260D01*
X130561844Y-127380238D01*
X130680238Y-127261844D01*
X130773260Y-127122626D01*
X130774114Y-127120562D01*
X131335464Y-127681912D01*
X131338719Y-127678103D01*
X131472363Y-127460015D01*
X131472365Y-127460012D01*
X131570247Y-127223702D01*
X131629957Y-126974989D01*
X131650024Y-126720000D01*
X131629957Y-126465010D01*
X131570247Y-126216297D01*
X131472365Y-125979987D01*
X131472363Y-125979984D01*
X131338719Y-125761898D01*
X131338712Y-125761888D01*
X131335465Y-125758087D01*
X131335464Y-125758087D01*
X130774114Y-126319437D01*
X130773260Y-126317374D01*
X130680238Y-126178156D01*
X130561844Y-126059762D01*
X130422626Y-125966740D01*
X130420561Y-125965884D01*
X130981911Y-125404535D01*
X130981911Y-125404533D01*
X130978110Y-125401286D01*
X130978095Y-125401275D01*
X130760015Y-125267636D01*
X130760012Y-125267634D01*
X130523702Y-125169752D01*
X130274988Y-125110042D01*
X130274989Y-125110042D01*
X130020000Y-125089975D01*
X129765010Y-125110042D01*
X129516297Y-125169752D01*
X129279987Y-125267634D01*
X129279984Y-125267636D01*
X129061897Y-125401280D01*
X129058087Y-125404534D01*
X129619438Y-125965884D01*
X129617374Y-125966740D01*
X129478156Y-126059762D01*
X129359762Y-126178156D01*
X129266740Y-126317374D01*
X129265885Y-126319438D01*
X128704534Y-125758087D01*
X128701280Y-125761897D01*
X128567636Y-125979984D01*
X128567634Y-125979987D01*
X128469752Y-126216297D01*
X128410042Y-126465010D01*
X128389975Y-126720000D01*
X124962604Y-126720000D01*
X124964851Y-123913345D01*
X134137500Y-123913345D01*
X134137500Y-123950000D01*
X134925000Y-123950000D01*
X134925000Y-123224999D01*
X134825860Y-123225000D01*
X134825844Y-123225001D01*
X134724847Y-123235319D01*
X134561199Y-123289546D01*
X134561188Y-123289551D01*
X134414465Y-123380052D01*
X134414461Y-123380055D01*
X134292555Y-123501961D01*
X134292552Y-123501965D01*
X134202051Y-123648688D01*
X134202046Y-123648699D01*
X134147819Y-123812347D01*
X134137500Y-123913345D01*
X124964851Y-123913345D01*
X124965573Y-123011655D01*
X125925001Y-123011655D01*
X125935319Y-123112653D01*
X125989546Y-123276301D01*
X125989551Y-123276312D01*
X126080052Y-123423035D01*
X126080055Y-123423039D01*
X126201961Y-123544945D01*
X126201965Y-123544948D01*
X126348688Y-123635449D01*
X126348699Y-123635454D01*
X126512347Y-123689681D01*
X126613352Y-123700000D01*
X126650000Y-123700000D01*
X127150000Y-123700000D01*
X127186640Y-123700000D01*
X127186654Y-123699999D01*
X127287652Y-123689681D01*
X127451300Y-123635454D01*
X127451311Y-123635449D01*
X127598034Y-123544948D01*
X127598038Y-123544945D01*
X127719944Y-123423039D01*
X127719947Y-123423035D01*
X127810448Y-123276312D01*
X127810453Y-123276301D01*
X127864680Y-123112653D01*
X127874999Y-123011655D01*
X127875000Y-123011642D01*
X127875000Y-122912501D01*
X127150000Y-122912501D01*
X127150000Y-123700000D01*
X126650000Y-123700000D01*
X126650000Y-122912501D01*
X125925001Y-122912501D01*
X125925001Y-123011655D01*
X124965573Y-123011655D01*
X124973642Y-112935438D01*
X125399500Y-112935438D01*
X125399500Y-119777061D01*
X125409739Y-119815274D01*
X125419979Y-119853490D01*
X125419981Y-119853493D01*
X125444332Y-119895669D01*
X125444333Y-119895672D01*
X125459535Y-119922003D01*
X125459541Y-119922011D01*
X126188181Y-120650651D01*
X126221666Y-120711974D01*
X126224500Y-120738332D01*
X126224500Y-121290259D01*
X126227274Y-121319848D01*
X126270883Y-121444473D01*
X126339495Y-121537439D01*
X126363465Y-121603068D01*
X126348149Y-121671238D01*
X126304822Y-121716610D01*
X126201962Y-121780055D01*
X126080055Y-121901962D01*
X126080052Y-121901966D01*
X125989551Y-122048689D01*
X125989546Y-122048700D01*
X125935319Y-122212348D01*
X125925000Y-122313346D01*
X125925000Y-122412501D01*
X127874999Y-122412501D01*
X127874999Y-122313361D01*
X127874998Y-122313346D01*
X127864680Y-122212348D01*
X127810453Y-122048700D01*
X127810448Y-122048689D01*
X127719947Y-121901966D01*
X127719944Y-121901962D01*
X127598038Y-121780056D01*
X127598034Y-121780053D01*
X127495178Y-121716610D01*
X127448453Y-121664662D01*
X127437232Y-121595699D01*
X127460505Y-121537439D01*
X127529116Y-121444474D01*
X127572725Y-121319848D01*
X127575500Y-121290259D01*
X127575500Y-120584738D01*
X127572725Y-120555149D01*
X127529115Y-120430522D01*
X127496739Y-120386654D01*
X130700001Y-120386654D01*
X130710319Y-120487652D01*
X130764546Y-120651300D01*
X130764551Y-120651311D01*
X130855052Y-120798034D01*
X130855055Y-120798038D01*
X130976961Y-120919944D01*
X130976965Y-120919947D01*
X131123688Y-121010448D01*
X131123699Y-121010453D01*
X131287347Y-121064680D01*
X131388351Y-121074999D01*
X131437499Y-121074998D01*
X131437500Y-121074998D01*
X131437500Y-120350000D01*
X130700001Y-120350000D01*
X130700001Y-120386654D01*
X127496739Y-120386654D01*
X127450711Y-120324288D01*
X127450710Y-120324287D01*
X127344476Y-120245883D01*
X127219848Y-120202273D01*
X127219849Y-120202273D01*
X127190260Y-120199499D01*
X127190256Y-120199499D01*
X126638333Y-120199499D01*
X126571294Y-120179814D01*
X126550652Y-120163180D01*
X126036819Y-119649347D01*
X126003334Y-119588024D01*
X126000500Y-119561666D01*
X126000500Y-118286654D01*
X126387501Y-118286654D01*
X126397819Y-118387652D01*
X126452046Y-118551300D01*
X126452051Y-118551311D01*
X126542552Y-118698034D01*
X126542555Y-118698038D01*
X126664461Y-118819944D01*
X126664465Y-118819947D01*
X126811188Y-118910448D01*
X126811199Y-118910453D01*
X126974847Y-118964680D01*
X127075851Y-118974999D01*
X127124999Y-118974998D01*
X127125000Y-118974998D01*
X127125000Y-118250000D01*
X126387501Y-118250000D01*
X126387501Y-118286654D01*
X126000500Y-118286654D01*
X126000500Y-117713345D01*
X126387500Y-117713345D01*
X126387500Y-117750000D01*
X127125000Y-117750000D01*
X127125000Y-117025000D01*
X127124999Y-117024999D01*
X127075861Y-117025000D01*
X127075843Y-117025001D01*
X126974847Y-117035319D01*
X126811199Y-117089546D01*
X126811188Y-117089551D01*
X126664465Y-117180052D01*
X126664461Y-117180055D01*
X126542555Y-117301961D01*
X126542552Y-117301965D01*
X126452051Y-117448688D01*
X126452046Y-117448699D01*
X126397819Y-117612347D01*
X126387500Y-117713345D01*
X126000500Y-117713345D01*
X126000500Y-115999333D01*
X126020185Y-115932294D01*
X126072989Y-115886539D01*
X126142147Y-115876595D01*
X126159431Y-115880355D01*
X126180492Y-115886539D01*
X126228038Y-115900500D01*
X126228039Y-115900500D01*
X126371962Y-115900500D01*
X126371962Y-115900499D01*
X126510053Y-115859953D01*
X126631128Y-115782143D01*
X126725377Y-115673373D01*
X126785165Y-115542457D01*
X126805647Y-115400000D01*
X126805646Y-115399999D01*
X126806909Y-115391222D01*
X126809873Y-115391648D01*
X126825332Y-115339002D01*
X126841966Y-115318360D01*
X126978294Y-115182032D01*
X127160465Y-114999862D01*
X127203318Y-114925639D01*
X127225500Y-114842853D01*
X127225500Y-114757147D01*
X127225500Y-114685189D01*
X127245185Y-114618150D01*
X127297989Y-114572395D01*
X127367147Y-114562451D01*
X127430703Y-114591476D01*
X127437181Y-114597508D01*
X128288181Y-115448508D01*
X128321666Y-115509831D01*
X128324500Y-115536189D01*
X128324500Y-115915259D01*
X128327274Y-115944848D01*
X128370884Y-116069475D01*
X128449288Y-116175709D01*
X128449289Y-116175710D01*
X128555523Y-116254114D01*
X128555524Y-116254114D01*
X128555525Y-116254115D01*
X128680151Y-116297724D01*
X128680150Y-116297724D01*
X128709740Y-116300499D01*
X128709744Y-116300499D01*
X129290260Y-116300499D01*
X129319849Y-116297724D01*
X129413033Y-116265117D01*
X129444475Y-116254115D01*
X129487081Y-116222669D01*
X129552707Y-116198700D01*
X129620878Y-116214015D01*
X129669946Y-116263755D01*
X129673505Y-116270925D01*
X129674623Y-116273373D01*
X129768872Y-116382143D01*
X129889947Y-116459953D01*
X129889950Y-116459954D01*
X129889949Y-116459954D01*
X130028036Y-116500499D01*
X130028038Y-116500500D01*
X130028039Y-116500500D01*
X130171962Y-116500500D01*
X130171962Y-116500499D01*
X130294414Y-116464545D01*
X130310050Y-116459954D01*
X130310050Y-116459953D01*
X130310053Y-116459953D01*
X130431128Y-116382143D01*
X130525377Y-116273373D01*
X130585165Y-116142457D01*
X130605647Y-116000000D01*
X130585165Y-115857543D01*
X130525377Y-115726627D01*
X130431128Y-115617857D01*
X130310053Y-115540047D01*
X130310051Y-115540046D01*
X130310049Y-115540045D01*
X130310050Y-115540045D01*
X130171963Y-115499500D01*
X130171961Y-115499500D01*
X130111189Y-115499500D01*
X130044150Y-115479815D01*
X130023508Y-115463181D01*
X129874863Y-115314536D01*
X129874861Y-115314534D01*
X129837749Y-115293107D01*
X129800639Y-115271681D01*
X129748482Y-115257706D01*
X129688821Y-115221340D01*
X129663535Y-115178886D01*
X129640631Y-115113432D01*
X129629116Y-115080524D01*
X129617745Y-115065117D01*
X129550711Y-114974288D01*
X129550710Y-114974287D01*
X129444476Y-114895883D01*
X129319848Y-114852273D01*
X129319849Y-114852273D01*
X129290260Y-114849499D01*
X129290256Y-114849499D01*
X128709744Y-114849499D01*
X128684184Y-114851895D01*
X128676428Y-114852623D01*
X128607844Y-114839282D01*
X128577172Y-114816845D01*
X128491923Y-114731596D01*
X128458438Y-114670273D01*
X128463422Y-114600581D01*
X128505294Y-114544648D01*
X128570758Y-114520231D01*
X128620560Y-114526874D01*
X128680151Y-114547726D01*
X128680150Y-114547726D01*
X128709740Y-114550501D01*
X128709744Y-114550501D01*
X129290260Y-114550501D01*
X129319849Y-114547726D01*
X129328645Y-114544648D01*
X129444475Y-114504117D01*
X129550711Y-114425712D01*
X129629116Y-114319476D01*
X129672725Y-114194850D01*
X129675500Y-114165257D01*
X129675500Y-113661188D01*
X129695185Y-113594149D01*
X129711815Y-113573511D01*
X130248507Y-113036818D01*
X130309830Y-113003334D01*
X130336188Y-113000500D01*
X130471962Y-113000500D01*
X130471962Y-113000499D01*
X130610053Y-112959953D01*
X130731128Y-112882143D01*
X130825377Y-112773373D01*
X130885165Y-112642457D01*
X130905647Y-112500000D01*
X130899355Y-112456240D01*
X130909298Y-112387083D01*
X130934410Y-112350916D01*
X131023509Y-112261818D01*
X131084832Y-112228333D01*
X131111189Y-112225500D01*
X131332494Y-112225500D01*
X131399533Y-112245185D01*
X131445288Y-112297989D01*
X131455232Y-112367147D01*
X131432704Y-112416475D01*
X131419999Y-112479999D01*
X131438651Y-114447814D01*
X131419603Y-114515037D01*
X131388970Y-114548254D01*
X131342816Y-114582806D01*
X131342808Y-114582814D01*
X131256649Y-114697906D01*
X131256645Y-114697913D01*
X131206403Y-114832620D01*
X131206401Y-114832627D01*
X131200000Y-114892155D01*
X131200000Y-115390000D01*
X131324753Y-115390000D01*
X131391792Y-115409685D01*
X131437547Y-115462489D01*
X131448747Y-115512825D01*
X131451136Y-115764825D01*
X131432088Y-115832048D01*
X131379720Y-115878301D01*
X131327142Y-115890000D01*
X131200000Y-115890000D01*
X131200000Y-116387844D01*
X131206401Y-116447372D01*
X131206403Y-116447379D01*
X131256645Y-116582086D01*
X131256649Y-116582093D01*
X131342809Y-116697187D01*
X131342812Y-116697190D01*
X131457906Y-116783350D01*
X131457913Y-116783354D01*
X131592620Y-116833596D01*
X131592627Y-116833598D01*
X131652155Y-116839999D01*
X131652172Y-116840000D01*
X132050000Y-116840000D01*
X132050000Y-116826105D01*
X132069685Y-116759066D01*
X132122489Y-116713311D01*
X132174360Y-116702107D01*
X132426368Y-116702850D01*
X132493347Y-116722732D01*
X132538946Y-116775671D01*
X132550000Y-116826849D01*
X132550000Y-116840000D01*
X132947828Y-116840000D01*
X132947844Y-116839999D01*
X133007372Y-116833598D01*
X133007376Y-116833597D01*
X133142091Y-116783351D01*
X133213190Y-116730125D01*
X133278654Y-116705706D01*
X133287843Y-116705391D01*
X134490935Y-116708940D01*
X134498455Y-116708963D01*
X134565436Y-116728845D01*
X134611035Y-116781784D01*
X134620774Y-116850971D01*
X134591562Y-116914441D01*
X134571724Y-116932731D01*
X134549288Y-116949289D01*
X134470884Y-117055523D01*
X134427274Y-117180150D01*
X134424500Y-117209739D01*
X134424500Y-117790260D01*
X134427274Y-117819848D01*
X134451208Y-117888245D01*
X134454771Y-117958024D01*
X134420042Y-118018652D01*
X134396860Y-118034403D01*
X134397407Y-118035253D01*
X134389947Y-118040046D01*
X134389947Y-118040047D01*
X134362825Y-118057477D01*
X134268873Y-118117856D01*
X134174623Y-118226626D01*
X134174622Y-118226628D01*
X134114834Y-118357543D01*
X134094353Y-118500000D01*
X134116097Y-118651235D01*
X134114279Y-118651496D01*
X134114278Y-118710438D01*
X134076502Y-118769215D01*
X134012945Y-118798238D01*
X133995302Y-118799500D01*
X130511189Y-118799500D01*
X130444150Y-118779815D01*
X130423508Y-118763181D01*
X129924319Y-118263992D01*
X129890834Y-118202669D01*
X129888000Y-118176311D01*
X129888000Y-117709739D01*
X129885225Y-117680150D01*
X129860755Y-117610220D01*
X129841616Y-117555525D01*
X129835401Y-117547104D01*
X129763211Y-117449289D01*
X129763210Y-117449288D01*
X129656976Y-117370884D01*
X129532348Y-117327274D01*
X129532349Y-117327274D01*
X129502760Y-117324500D01*
X129502756Y-117324500D01*
X128897244Y-117324500D01*
X128897240Y-117324500D01*
X128867650Y-117327274D01*
X128743023Y-117370884D01*
X128636789Y-117449288D01*
X128636788Y-117449289D01*
X128558384Y-117555523D01*
X128555939Y-117560150D01*
X128507207Y-117610220D01*
X128439141Y-117625994D01*
X128373352Y-117602466D01*
X128330727Y-117547104D01*
X128328606Y-117541205D01*
X128297954Y-117448701D01*
X128297948Y-117448688D01*
X128207447Y-117301965D01*
X128207444Y-117301961D01*
X128085538Y-117180055D01*
X128085534Y-117180052D01*
X127938811Y-117089551D01*
X127938800Y-117089546D01*
X127775152Y-117035319D01*
X127674154Y-117025000D01*
X127625000Y-117025000D01*
X127625000Y-118974999D01*
X127674140Y-118974999D01*
X127674154Y-118974998D01*
X127775152Y-118964680D01*
X127938800Y-118910453D01*
X127938811Y-118910448D01*
X128085534Y-118819947D01*
X128085538Y-118819944D01*
X128207444Y-118698038D01*
X128207447Y-118698034D01*
X128297948Y-118551311D01*
X128297954Y-118551298D01*
X128328606Y-118458794D01*
X128368377Y-118401349D01*
X128432893Y-118374525D01*
X128501669Y-118386839D01*
X128552869Y-118434382D01*
X128555941Y-118439852D01*
X128558382Y-118444470D01*
X128558384Y-118444475D01*
X128558387Y-118444479D01*
X128636788Y-118550710D01*
X128636789Y-118550711D01*
X128743023Y-118629115D01*
X128743024Y-118629115D01*
X128743025Y-118629116D01*
X128867651Y-118672725D01*
X128867650Y-118672725D01*
X128897240Y-118675500D01*
X128897244Y-118675500D01*
X129363811Y-118675500D01*
X129430850Y-118695185D01*
X129451492Y-118711819D01*
X130125138Y-119385465D01*
X130199361Y-119428318D01*
X130282147Y-119450500D01*
X130367853Y-119450500D01*
X130625367Y-119450500D01*
X130692406Y-119470185D01*
X130738161Y-119522989D01*
X130748105Y-119592147D01*
X130743073Y-119613504D01*
X130710319Y-119712348D01*
X130700000Y-119813345D01*
X130700000Y-119850000D01*
X131563500Y-119850000D01*
X131630539Y-119869685D01*
X131676294Y-119922489D01*
X131687500Y-119974000D01*
X131687500Y-120100000D01*
X131813500Y-120100000D01*
X131880539Y-120119685D01*
X131926294Y-120172489D01*
X131937500Y-120224000D01*
X131937500Y-121074999D01*
X131986640Y-121074999D01*
X131986654Y-121074998D01*
X132087652Y-121064680D01*
X132251300Y-121010453D01*
X132251311Y-121010448D01*
X132398034Y-120919947D01*
X132398038Y-120919944D01*
X132519944Y-120798038D01*
X132519947Y-120798034D01*
X132610448Y-120651311D01*
X132610454Y-120651298D01*
X132641106Y-120558794D01*
X132680877Y-120501349D01*
X132745393Y-120474525D01*
X132814169Y-120486839D01*
X132865369Y-120534382D01*
X132868441Y-120539852D01*
X132870882Y-120544470D01*
X132870884Y-120544475D01*
X132870887Y-120544479D01*
X132949288Y-120650710D01*
X132949289Y-120650711D01*
X133055523Y-120729115D01*
X133055524Y-120729115D01*
X133055525Y-120729116D01*
X133180151Y-120772725D01*
X133180150Y-120772725D01*
X133209740Y-120775500D01*
X133209744Y-120775500D01*
X133305613Y-120775500D01*
X133329803Y-120777882D01*
X133355963Y-120783086D01*
X133443504Y-120800500D01*
X133443507Y-120800500D01*
X134275500Y-120800500D01*
X134342539Y-120820185D01*
X134388294Y-120872989D01*
X134399500Y-120924500D01*
X134399500Y-121890260D01*
X134402274Y-121919849D01*
X134445884Y-122044476D01*
X134524288Y-122150710D01*
X134524289Y-122150711D01*
X134630523Y-122229115D01*
X134630524Y-122229115D01*
X134630525Y-122229116D01*
X134755151Y-122272725D01*
X134755150Y-122272725D01*
X134784740Y-122275500D01*
X134784744Y-122275500D01*
X134918109Y-122275500D01*
X134942299Y-122277882D01*
X135056006Y-122300499D01*
X135056007Y-122300499D01*
X135193995Y-122300499D01*
X135193996Y-122300498D01*
X135307695Y-122277883D01*
X135331886Y-122275500D01*
X135465260Y-122275500D01*
X135494849Y-122272725D01*
X135619475Y-122229116D01*
X135725711Y-122150711D01*
X135804116Y-122044475D01*
X135847725Y-121919849D01*
X135849402Y-121901966D01*
X135850500Y-121890260D01*
X135850500Y-121309739D01*
X135847725Y-121280150D01*
X135847724Y-121280148D01*
X135807459Y-121165076D01*
X135800500Y-121124121D01*
X135800500Y-120540154D01*
X135807459Y-120499198D01*
X135816093Y-120474525D01*
X135835225Y-120419849D01*
X135838000Y-120390256D01*
X135838000Y-119809744D01*
X135835225Y-119780151D01*
X135833671Y-119775711D01*
X135796498Y-119669477D01*
X135791616Y-119655525D01*
X135791615Y-119655523D01*
X135786161Y-119648133D01*
X135762190Y-119582504D01*
X135777506Y-119514334D01*
X135827246Y-119465266D01*
X135885931Y-119450500D01*
X136039069Y-119450500D01*
X136106108Y-119470185D01*
X136151863Y-119522989D01*
X136161807Y-119592147D01*
X136138839Y-119648133D01*
X136133384Y-119655523D01*
X136089774Y-119780150D01*
X136087000Y-119809739D01*
X136087000Y-120390260D01*
X136089774Y-120419848D01*
X136117541Y-120499198D01*
X136124500Y-120540154D01*
X136124500Y-121481006D01*
X136124500Y-121618994D01*
X136124500Y-121618996D01*
X136124499Y-121618996D01*
X136147117Y-121732695D01*
X136149500Y-121756887D01*
X136149500Y-121890260D01*
X136152274Y-121919849D01*
X136195884Y-122044476D01*
X136274288Y-122150710D01*
X136274289Y-122150711D01*
X136380523Y-122229115D01*
X136380524Y-122229115D01*
X136380525Y-122229116D01*
X136505151Y-122272725D01*
X136505150Y-122272725D01*
X136534740Y-122275500D01*
X136534744Y-122275500D01*
X136668113Y-122275500D01*
X136692303Y-122277882D01*
X136720553Y-122283502D01*
X136806003Y-122300500D01*
X136806006Y-122300500D01*
X136943996Y-122300500D01*
X137022506Y-122284882D01*
X137057697Y-122277882D01*
X137081888Y-122275500D01*
X137215260Y-122275500D01*
X137244849Y-122272725D01*
X137369475Y-122229116D01*
X137475711Y-122150711D01*
X137554116Y-122044475D01*
X137597725Y-121919849D01*
X137599402Y-121901966D01*
X137600500Y-121890260D01*
X137600500Y-121376576D01*
X137620185Y-121309537D01*
X137633028Y-121298407D01*
X137619297Y-121292137D01*
X137583459Y-121239380D01*
X137554116Y-121155526D01*
X137554116Y-121155525D01*
X137554113Y-121155521D01*
X137554111Y-121155517D01*
X137549727Y-121149576D01*
X137525758Y-121083947D01*
X137525500Y-121075947D01*
X137525500Y-120924500D01*
X137545185Y-120857461D01*
X137597989Y-120811706D01*
X137649500Y-120800500D01*
X137675500Y-120800500D01*
X137742539Y-120820185D01*
X137788294Y-120872989D01*
X137799500Y-120924500D01*
X137799500Y-120993994D01*
X137799500Y-120993996D01*
X137799499Y-120993996D01*
X137822117Y-121107695D01*
X137824500Y-121131887D01*
X137824500Y-121198424D01*
X137804815Y-121265463D01*
X137791971Y-121276592D01*
X137805703Y-121282863D01*
X137841541Y-121335621D01*
X137870883Y-121419476D01*
X137870884Y-121419477D01*
X137949288Y-121525711D01*
X137949289Y-121525712D01*
X138055523Y-121604116D01*
X138055524Y-121604116D01*
X138055525Y-121604117D01*
X138180151Y-121647726D01*
X138180150Y-121647726D01*
X138209740Y-121650501D01*
X138209744Y-121650501D01*
X138790260Y-121650501D01*
X138819849Y-121647726D01*
X138944475Y-121604117D01*
X139050711Y-121525712D01*
X139129116Y-121419476D01*
X139172725Y-121294850D01*
X139173849Y-121282863D01*
X139175500Y-121265261D01*
X139175500Y-121131887D01*
X139177883Y-121107695D01*
X139200500Y-120993996D01*
X139200500Y-120386654D01*
X142662500Y-120386654D01*
X142672818Y-120487652D01*
X142727045Y-120651300D01*
X142727050Y-120651311D01*
X142817551Y-120798034D01*
X142817554Y-120798038D01*
X142939460Y-120919944D01*
X142939464Y-120919947D01*
X143086187Y-121010448D01*
X143086198Y-121010453D01*
X143249846Y-121064680D01*
X143350850Y-121074999D01*
X143449999Y-121074998D01*
X143449999Y-120350000D01*
X142662500Y-120350000D01*
X142662500Y-120386654D01*
X139200500Y-120386654D01*
X139200500Y-119248507D01*
X139191261Y-119202065D01*
X139191261Y-119202063D01*
X139173580Y-119113173D01*
X139173578Y-119113170D01*
X139172882Y-119109667D01*
X139170500Y-119085476D01*
X139170500Y-118959740D01*
X139167725Y-118930151D01*
X139167724Y-118930149D01*
X139164542Y-118921053D01*
X139160980Y-118851274D01*
X139195708Y-118790647D01*
X139249489Y-118760323D01*
X139275640Y-118753317D01*
X139349863Y-118710464D01*
X140009789Y-118050537D01*
X140071110Y-118017054D01*
X140140801Y-118022038D01*
X140196735Y-118063909D01*
X140203006Y-118073123D01*
X140280052Y-118198033D01*
X140280055Y-118198037D01*
X140401961Y-118319943D01*
X140401965Y-118319946D01*
X140504821Y-118383389D01*
X140551546Y-118435337D01*
X140562767Y-118504299D01*
X140539495Y-118562560D01*
X140470883Y-118655526D01*
X140427274Y-118780151D01*
X140424500Y-118809740D01*
X140424500Y-119515261D01*
X140427274Y-119544850D01*
X140470884Y-119669477D01*
X140549288Y-119775711D01*
X140549289Y-119775712D01*
X140655523Y-119854116D01*
X140655524Y-119854116D01*
X140655525Y-119854117D01*
X140780151Y-119897726D01*
X140780150Y-119897726D01*
X140809740Y-119900501D01*
X140809744Y-119900501D01*
X141390260Y-119900501D01*
X141419849Y-119897726D01*
X141425719Y-119895672D01*
X141544475Y-119854117D01*
X141599720Y-119813345D01*
X142662499Y-119813345D01*
X142662499Y-119850000D01*
X143449999Y-119850000D01*
X143449999Y-119124999D01*
X143350859Y-119125000D01*
X143350843Y-119125001D01*
X143249846Y-119135319D01*
X143086198Y-119189546D01*
X143086187Y-119189551D01*
X142939464Y-119280052D01*
X142939460Y-119280055D01*
X142817554Y-119401961D01*
X142817551Y-119401965D01*
X142727050Y-119548688D01*
X142727045Y-119548699D01*
X142672818Y-119712347D01*
X142662499Y-119813345D01*
X141599720Y-119813345D01*
X141650711Y-119775712D01*
X141729116Y-119669476D01*
X141767088Y-119560960D01*
X141772508Y-119545471D01*
X141813230Y-119488695D01*
X141869241Y-119465217D01*
X141869211Y-119465104D01*
X141870042Y-119464881D01*
X141873371Y-119463486D01*
X141877053Y-119463001D01*
X141877061Y-119463001D01*
X141953488Y-119442522D01*
X141997498Y-119417113D01*
X142059498Y-119400500D01*
X142171962Y-119400500D01*
X142171962Y-119400499D01*
X142310053Y-119359953D01*
X142431128Y-119282143D01*
X142525377Y-119173373D01*
X142585165Y-119042457D01*
X142605647Y-118900000D01*
X142585165Y-118757543D01*
X142525377Y-118626627D01*
X142431128Y-118517857D01*
X142310053Y-118440047D01*
X142310051Y-118440046D01*
X142310049Y-118440045D01*
X142310050Y-118440045D01*
X142171963Y-118399500D01*
X142171961Y-118399500D01*
X142028039Y-118399500D01*
X142019170Y-118399500D01*
X142019170Y-118396481D01*
X141964930Y-118388671D01*
X141912136Y-118342904D01*
X141892467Y-118275860D01*
X141912167Y-118208825D01*
X141919206Y-118198971D01*
X141919948Y-118198031D01*
X142010448Y-118051310D01*
X142010453Y-118051299D01*
X142064680Y-117887651D01*
X142074999Y-117786653D01*
X142075000Y-117786640D01*
X142075000Y-117687499D01*
X141224000Y-117687499D01*
X141221122Y-117686654D01*
X142700000Y-117686654D01*
X142710318Y-117787652D01*
X142764545Y-117951300D01*
X142764550Y-117951311D01*
X142855051Y-118098034D01*
X142855054Y-118098038D01*
X142976960Y-118219944D01*
X142976964Y-118219947D01*
X143123687Y-118310448D01*
X143123698Y-118310453D01*
X143287346Y-118364680D01*
X143388350Y-118374999D01*
X143487499Y-118374998D01*
X143487499Y-117650000D01*
X142700000Y-117650000D01*
X142700000Y-117686654D01*
X141221122Y-117686654D01*
X141156961Y-117667814D01*
X141111206Y-117615010D01*
X141100000Y-117563499D01*
X141100000Y-117311499D01*
X141119685Y-117244460D01*
X141172489Y-117198705D01*
X141224000Y-117187499D01*
X142074999Y-117187499D01*
X142074999Y-117113345D01*
X142699999Y-117113345D01*
X142699999Y-117150000D01*
X143487499Y-117150000D01*
X143487499Y-116424999D01*
X143388359Y-116425000D01*
X143388343Y-116425001D01*
X143287346Y-116435319D01*
X143123698Y-116489546D01*
X143123687Y-116489551D01*
X142976964Y-116580052D01*
X142976960Y-116580055D01*
X142855054Y-116701961D01*
X142855051Y-116701965D01*
X142764550Y-116848688D01*
X142764545Y-116848699D01*
X142710318Y-117012347D01*
X142699999Y-117113345D01*
X142074999Y-117113345D01*
X142074999Y-117088359D01*
X142074998Y-117088344D01*
X142064680Y-116987346D01*
X142010453Y-116823698D01*
X142010448Y-116823687D01*
X141919947Y-116676964D01*
X141919944Y-116676960D01*
X141798038Y-116555054D01*
X141798034Y-116555051D01*
X141651311Y-116464550D01*
X141651300Y-116464545D01*
X141498425Y-116413887D01*
X141440980Y-116374114D01*
X141414157Y-116309598D01*
X141426472Y-116240822D01*
X141449742Y-116208507D01*
X143408251Y-114249999D01*
X146869364Y-114249999D01*
X146869364Y-114250000D01*
X147766988Y-114250000D01*
X147734075Y-114307007D01*
X147700000Y-114434174D01*
X147700000Y-114565826D01*
X147734075Y-114692993D01*
X147766988Y-114750000D01*
X146869364Y-114750000D01*
X146926567Y-114963486D01*
X146926570Y-114963492D01*
X147026399Y-115177578D01*
X147161894Y-115371082D01*
X147328917Y-115538105D01*
X147522421Y-115673600D01*
X147736507Y-115773429D01*
X147736516Y-115773433D01*
X147950000Y-115830634D01*
X147950000Y-114933012D01*
X148007007Y-114965925D01*
X148134174Y-115000000D01*
X148265826Y-115000000D01*
X148392993Y-114965925D01*
X148450000Y-114933012D01*
X148450000Y-115830633D01*
X148663483Y-115773433D01*
X148663492Y-115773429D01*
X148877578Y-115673600D01*
X149071082Y-115538105D01*
X149238105Y-115371082D01*
X149373600Y-115177578D01*
X149473429Y-114963492D01*
X149473432Y-114963486D01*
X149530636Y-114750000D01*
X148633012Y-114750000D01*
X148665925Y-114692993D01*
X148700000Y-114565826D01*
X148700000Y-114434174D01*
X148665925Y-114307007D01*
X148633012Y-114250000D01*
X149530636Y-114250000D01*
X149530635Y-114249999D01*
X149473432Y-114036513D01*
X149473429Y-114036507D01*
X149373600Y-113822422D01*
X149373599Y-113822420D01*
X149238113Y-113628926D01*
X149238108Y-113628920D01*
X149071082Y-113461894D01*
X148877578Y-113326399D01*
X148707052Y-113246882D01*
X148654613Y-113200710D01*
X148635461Y-113133516D01*
X148655677Y-113066635D01*
X148708842Y-113021300D01*
X148759457Y-113010500D01*
X149069750Y-113010500D01*
X149069751Y-113010499D01*
X149084568Y-113007552D01*
X149128229Y-112998868D01*
X149128229Y-112998867D01*
X149128231Y-112998867D01*
X149194552Y-112954552D01*
X149238867Y-112888231D01*
X149238867Y-112888229D01*
X149238868Y-112888229D01*
X149250499Y-112829752D01*
X149250500Y-112829750D01*
X149250500Y-111090249D01*
X149250499Y-111090247D01*
X149238868Y-111031770D01*
X149238867Y-111031769D01*
X149194552Y-110965447D01*
X149128230Y-110921132D01*
X149128229Y-110921131D01*
X149069752Y-110909500D01*
X149069748Y-110909500D01*
X147330252Y-110909500D01*
X147330247Y-110909500D01*
X147271770Y-110921131D01*
X147271769Y-110921132D01*
X147205447Y-110965447D01*
X147161132Y-111031769D01*
X147161131Y-111031770D01*
X147149500Y-111090247D01*
X147149500Y-112829752D01*
X147161131Y-112888229D01*
X147161132Y-112888230D01*
X147205447Y-112954552D01*
X147271769Y-112998867D01*
X147271770Y-112998868D01*
X147330247Y-113010499D01*
X147330250Y-113010500D01*
X147640543Y-113010500D01*
X147707582Y-113030185D01*
X147753337Y-113082989D01*
X147763281Y-113152147D01*
X147734256Y-113215703D01*
X147692948Y-113246882D01*
X147522422Y-113326399D01*
X147522420Y-113326400D01*
X147328926Y-113461886D01*
X147328920Y-113461891D01*
X147161891Y-113628920D01*
X147161886Y-113628926D01*
X147026400Y-113822420D01*
X147026399Y-113822422D01*
X146926570Y-114036507D01*
X146926567Y-114036513D01*
X146869364Y-114249999D01*
X143408251Y-114249999D01*
X143596431Y-114061819D01*
X143657754Y-114028334D01*
X143684112Y-114025500D01*
X145526735Y-114025500D01*
X145526737Y-114025500D01*
X145609523Y-114003318D01*
X145683746Y-113960465D01*
X146385465Y-113258746D01*
X146428318Y-113184523D01*
X146450500Y-113101737D01*
X146450500Y-113016031D01*
X146450500Y-111193971D01*
X146450501Y-111193958D01*
X146450501Y-111098264D01*
X146448354Y-111090252D01*
X146428318Y-111015477D01*
X146421559Y-111003770D01*
X146396022Y-110959539D01*
X146396020Y-110959537D01*
X146385464Y-110941253D01*
X146385461Y-110941249D01*
X146320543Y-110876331D01*
X146320520Y-110876310D01*
X145258748Y-109814537D01*
X145258747Y-109814536D01*
X145258746Y-109814535D01*
X145212814Y-109788016D01*
X145184524Y-109771682D01*
X145131754Y-109757543D01*
X145101737Y-109749500D01*
X145101736Y-109749500D01*
X142451761Y-109749500D01*
X142384722Y-109729815D01*
X142338967Y-109677011D01*
X142329023Y-109607853D01*
X142332785Y-109590562D01*
X142335165Y-109582457D01*
X142339670Y-109551121D01*
X142355647Y-109440000D01*
X142352636Y-109419059D01*
X142362579Y-109349902D01*
X142399889Y-109303036D01*
X142451178Y-109263681D01*
X142525431Y-109166913D01*
X142581859Y-109125710D01*
X142599608Y-109120783D01*
X142652617Y-109110240D01*
X142739612Y-109052112D01*
X142792328Y-108973216D01*
X142845937Y-108928414D01*
X142915262Y-108919706D01*
X142962468Y-108937794D01*
X142977354Y-108947361D01*
X143115442Y-108987906D01*
X143115444Y-108987907D01*
X143115445Y-108987907D01*
X143259368Y-108987907D01*
X143259368Y-108987906D01*
X143397459Y-108947360D01*
X143518534Y-108869550D01*
X143612783Y-108760780D01*
X143672571Y-108629864D01*
X143693053Y-108487407D01*
X143693053Y-108487406D01*
X143693053Y-108478538D01*
X143696832Y-108478538D01*
X143704303Y-108426911D01*
X143750106Y-108374148D01*
X143817051Y-108354524D01*
X143896976Y-108354524D01*
X143896976Y-108354523D01*
X144035067Y-108313977D01*
X144156142Y-108236167D01*
X144250391Y-108127397D01*
X144289297Y-108042205D01*
X144335049Y-107989405D01*
X144402088Y-107969720D01*
X144434184Y-107973946D01*
X144462501Y-107981534D01*
X144522161Y-108017900D01*
X144543200Y-108049796D01*
X144586413Y-108144417D01*
X144599637Y-108173373D01*
X144693886Y-108282143D01*
X144814961Y-108359953D01*
X144814964Y-108359954D01*
X144814963Y-108359954D01*
X144953050Y-108400499D01*
X144953052Y-108400500D01*
X144953053Y-108400500D01*
X145096976Y-108400500D01*
X145096976Y-108400499D01*
X145221277Y-108364002D01*
X145235064Y-108359954D01*
X145235064Y-108359953D01*
X145235067Y-108359953D01*
X145356142Y-108282143D01*
X145450391Y-108173373D01*
X145510179Y-108042457D01*
X145510179Y-108042455D01*
X145512706Y-108036923D01*
X145558461Y-107984119D01*
X145625500Y-107964435D01*
X145692540Y-107984120D01*
X145738294Y-108036924D01*
X145749500Y-108088435D01*
X145749500Y-108308804D01*
X145734799Y-108363674D01*
X145735590Y-108364002D01*
X145733104Y-108370002D01*
X145732892Y-108370796D01*
X145732481Y-108371507D01*
X145732480Y-108371509D01*
X145732479Y-108371511D01*
X145732479Y-108371512D01*
X145712000Y-108447938D01*
X145712000Y-108527062D01*
X145732479Y-108603487D01*
X145732479Y-108603488D01*
X145746763Y-108628230D01*
X145772040Y-108672011D01*
X145827989Y-108727960D01*
X145896512Y-108767521D01*
X145972938Y-108788000D01*
X145972940Y-108788000D01*
X146052059Y-108788000D01*
X146052062Y-108788000D01*
X146128488Y-108767521D01*
X146128968Y-108767243D01*
X146129197Y-108767112D01*
X146129983Y-108766901D01*
X146135998Y-108764410D01*
X146136325Y-108765201D01*
X146191195Y-108750500D01*
X147669750Y-108750500D01*
X147669751Y-108750499D01*
X147684568Y-108747552D01*
X147728229Y-108738868D01*
X147728229Y-108738867D01*
X147728231Y-108738867D01*
X147794552Y-108694552D01*
X147838867Y-108628231D01*
X147838867Y-108628229D01*
X147838868Y-108628229D01*
X147850499Y-108569752D01*
X147850500Y-108569750D01*
X147850500Y-106830249D01*
X147850499Y-106830247D01*
X147838868Y-106771770D01*
X147838867Y-106771769D01*
X147794552Y-106705447D01*
X147728230Y-106661132D01*
X147728229Y-106661131D01*
X147669752Y-106649500D01*
X147669748Y-106649500D01*
X145930252Y-106649500D01*
X145930247Y-106649500D01*
X145871770Y-106661131D01*
X145871769Y-106661132D01*
X145805447Y-106705447D01*
X145761132Y-106771769D01*
X145761131Y-106771770D01*
X145749500Y-106830247D01*
X145749500Y-107711564D01*
X145729815Y-107778603D01*
X145677011Y-107824358D01*
X145607853Y-107834302D01*
X145544297Y-107805277D01*
X145512706Y-107763076D01*
X145489070Y-107711322D01*
X145450391Y-107626627D01*
X145356142Y-107517857D01*
X145235067Y-107440047D01*
X145235065Y-107440046D01*
X145235063Y-107440045D01*
X145235064Y-107440045D01*
X145096977Y-107399500D01*
X145096975Y-107399500D01*
X144953053Y-107399500D01*
X144944185Y-107399500D01*
X144944185Y-107398506D01*
X144905610Y-107396206D01*
X144845057Y-107379981D01*
X144675833Y-107379981D01*
X144608794Y-107360296D01*
X144588152Y-107343662D01*
X144258055Y-107013565D01*
X144258047Y-107013559D01*
X144228813Y-106996681D01*
X144228809Y-106996680D01*
X144208290Y-106984833D01*
X144189533Y-106974003D01*
X144189534Y-106974003D01*
X144151318Y-106963763D01*
X144113105Y-106953524D01*
X144113103Y-106953524D01*
X143937000Y-106953524D01*
X143869961Y-106933839D01*
X143824206Y-106881035D01*
X143813000Y-106829525D01*
X143812999Y-106711601D01*
X143802961Y-106661133D01*
X143797740Y-106634883D01*
X143797739Y-106634881D01*
X143797738Y-106634878D01*
X143787055Y-106618891D01*
X143766176Y-106552214D01*
X143784660Y-106484833D01*
X143787017Y-106481164D01*
X143797740Y-106465117D01*
X143813000Y-106388401D01*
X143812999Y-106211600D01*
X143797740Y-106134883D01*
X143797739Y-106134881D01*
X143797738Y-106134878D01*
X143787055Y-106118891D01*
X143766176Y-106052214D01*
X143784660Y-105984833D01*
X143787017Y-105981164D01*
X143797740Y-105965117D01*
X143813000Y-105888401D01*
X143812999Y-105711600D01*
X143797740Y-105634883D01*
X143797739Y-105634881D01*
X143797738Y-105634878D01*
X143787055Y-105618891D01*
X143766176Y-105552214D01*
X143784660Y-105484833D01*
X143787017Y-105481164D01*
X143797740Y-105465117D01*
X143813000Y-105388401D01*
X143812999Y-105211600D01*
X143797740Y-105134883D01*
X143797739Y-105134881D01*
X143797738Y-105134878D01*
X143787055Y-105118891D01*
X143766176Y-105052214D01*
X143784660Y-104984833D01*
X143787017Y-104981164D01*
X143797740Y-104965117D01*
X143813000Y-104888401D01*
X143812999Y-104711600D01*
X143797740Y-104634883D01*
X143797739Y-104634881D01*
X143797738Y-104634878D01*
X143787055Y-104618891D01*
X143766176Y-104552214D01*
X143784660Y-104484833D01*
X143787017Y-104481164D01*
X143797740Y-104465117D01*
X143813000Y-104388401D01*
X143812999Y-104211600D01*
X143797740Y-104134883D01*
X143797739Y-104134881D01*
X143797738Y-104134878D01*
X143787055Y-104118891D01*
X143766176Y-104052214D01*
X143784660Y-103984833D01*
X143787017Y-103981164D01*
X143797740Y-103965117D01*
X143813000Y-103888401D01*
X143812999Y-103724500D01*
X143832683Y-103657461D01*
X143885487Y-103611706D01*
X143936999Y-103600500D01*
X144764167Y-103600500D01*
X144831206Y-103620185D01*
X144851848Y-103636819D01*
X145810701Y-104595672D01*
X145844186Y-104656995D01*
X145839202Y-104726687D01*
X145832381Y-104741800D01*
X145824770Y-104756039D01*
X145764699Y-104954067D01*
X145744417Y-105160000D01*
X145764699Y-105365932D01*
X145771514Y-105388398D01*
X145824768Y-105563954D01*
X145922315Y-105746450D01*
X145922317Y-105746452D01*
X146053589Y-105906410D01*
X146136558Y-105974500D01*
X146213550Y-106037685D01*
X146396046Y-106135232D01*
X146594066Y-106195300D01*
X146594065Y-106195300D01*
X146612529Y-106197118D01*
X146800000Y-106215583D01*
X147005934Y-106195300D01*
X147203954Y-106135232D01*
X147386450Y-106037685D01*
X147546410Y-105906410D01*
X147677685Y-105746450D01*
X147775232Y-105563954D01*
X147835300Y-105365934D01*
X147855583Y-105160000D01*
X147835300Y-104954066D01*
X147775232Y-104756046D01*
X147677685Y-104573550D01*
X147588697Y-104465117D01*
X147546410Y-104413589D01*
X147386452Y-104282317D01*
X147386453Y-104282317D01*
X147386450Y-104282315D01*
X147203954Y-104184768D01*
X147005934Y-104124700D01*
X147005932Y-104124699D01*
X147005934Y-104124699D01*
X146800000Y-104104417D01*
X146594067Y-104124699D01*
X146396039Y-104184770D01*
X146381800Y-104192381D01*
X146313397Y-104206620D01*
X146248154Y-104181616D01*
X146235672Y-104170701D01*
X145124512Y-103059541D01*
X145124511Y-103059540D01*
X145111645Y-103052112D01*
X145111645Y-103052111D01*
X145111643Y-103052111D01*
X145080528Y-103034146D01*
X145055990Y-103019979D01*
X145030513Y-103013152D01*
X144979562Y-102999500D01*
X144979560Y-102999500D01*
X144230645Y-102999500D01*
X144163606Y-102979815D01*
X144137417Y-102957259D01*
X144106571Y-102922086D01*
X144049455Y-102905315D01*
X144003700Y-102852511D01*
X143993756Y-102783353D01*
X144022781Y-102719797D01*
X144049454Y-102696685D01*
X144052566Y-102694685D01*
X144105490Y-102679144D01*
X144131101Y-102649940D01*
X144149544Y-102634055D01*
X144149437Y-102633931D01*
X144156134Y-102628125D01*
X144156142Y-102628121D01*
X144250391Y-102519351D01*
X144310179Y-102388435D01*
X144330661Y-102245978D01*
X144310179Y-102103521D01*
X144250391Y-101972605D01*
X144156142Y-101863835D01*
X144035067Y-101786025D01*
X144035065Y-101786024D01*
X144035063Y-101786023D01*
X144035064Y-101786023D01*
X143896977Y-101745478D01*
X143896975Y-101745478D01*
X143753053Y-101745478D01*
X143753050Y-101745478D01*
X143614963Y-101786023D01*
X143493887Y-101863834D01*
X143493886Y-101863834D01*
X143493886Y-101863835D01*
X143444227Y-101921146D01*
X143435079Y-101931703D01*
X143376301Y-101969477D01*
X143341366Y-101974500D01*
X142936999Y-101974500D01*
X142869960Y-101954815D01*
X142824205Y-101902011D01*
X142812999Y-101850500D01*
X142812999Y-101224500D01*
X142832684Y-101157461D01*
X142885488Y-101111706D01*
X142936999Y-101100500D01*
X144804166Y-101100500D01*
X144871205Y-101120185D01*
X144891847Y-101136819D01*
X145810701Y-102055673D01*
X145844186Y-102116996D01*
X145839202Y-102186688D01*
X145832381Y-102201801D01*
X145824770Y-102216040D01*
X145764699Y-102414068D01*
X145744417Y-102620001D01*
X145764699Y-102825933D01*
X145788779Y-102905315D01*
X145824768Y-103023955D01*
X145922315Y-103206451D01*
X145956969Y-103248678D01*
X146053589Y-103366411D01*
X146144175Y-103440752D01*
X146213550Y-103497686D01*
X146396046Y-103595233D01*
X146594066Y-103655301D01*
X146594065Y-103655301D01*
X146612529Y-103657119D01*
X146800000Y-103675584D01*
X147005934Y-103655301D01*
X147203954Y-103595233D01*
X147386450Y-103497686D01*
X147546410Y-103366411D01*
X147677685Y-103206451D01*
X147775232Y-103023955D01*
X147835300Y-102825935D01*
X147855583Y-102620001D01*
X147835300Y-102414067D01*
X147775232Y-102216047D01*
X147677685Y-102033551D01*
X147625101Y-101969477D01*
X147546410Y-101873590D01*
X147386452Y-101742318D01*
X147386453Y-101742318D01*
X147386450Y-101742316D01*
X147203954Y-101644769D01*
X147137445Y-101624593D01*
X147079007Y-101586295D01*
X147050551Y-101522483D01*
X147061112Y-101453416D01*
X147107337Y-101401023D01*
X147141350Y-101386158D01*
X147263481Y-101353434D01*
X147263492Y-101353429D01*
X147477578Y-101253600D01*
X147671082Y-101118105D01*
X147838105Y-100951082D01*
X147973600Y-100757578D01*
X148073429Y-100543492D01*
X148073432Y-100543486D01*
X148130636Y-100330000D01*
X147233012Y-100330000D01*
X147265925Y-100272993D01*
X147300000Y-100145826D01*
X147300000Y-100014174D01*
X147265925Y-99887007D01*
X147233012Y-99830000D01*
X148130636Y-99830000D01*
X148130635Y-99829999D01*
X148073432Y-99616513D01*
X148073429Y-99616507D01*
X147973600Y-99402422D01*
X147973599Y-99402420D01*
X147838113Y-99208926D01*
X147838108Y-99208920D01*
X147671082Y-99041894D01*
X147477578Y-98906399D01*
X147263492Y-98806570D01*
X147263486Y-98806567D01*
X147050000Y-98749364D01*
X147050000Y-99646988D01*
X146992993Y-99614075D01*
X146865826Y-99580000D01*
X146734174Y-99580000D01*
X146607007Y-99614075D01*
X146550000Y-99646988D01*
X146550000Y-98749364D01*
X146549999Y-98749364D01*
X146336513Y-98806567D01*
X146336507Y-98806570D01*
X146122422Y-98906399D01*
X146122420Y-98906400D01*
X145928926Y-99041886D01*
X145928920Y-99041891D01*
X145761891Y-99208920D01*
X145761886Y-99208926D01*
X145626401Y-99402419D01*
X145599250Y-99460644D01*
X145553077Y-99513083D01*
X145485883Y-99532234D01*
X145419002Y-99512017D01*
X145393155Y-99489441D01*
X145331128Y-99417857D01*
X145210053Y-99340047D01*
X145210051Y-99340046D01*
X145210049Y-99340045D01*
X145210050Y-99340045D01*
X145071963Y-99299500D01*
X145071961Y-99299500D01*
X144928039Y-99299500D01*
X144928036Y-99299500D01*
X144789949Y-99340045D01*
X144789946Y-99340047D01*
X144720021Y-99384984D01*
X144652982Y-99404668D01*
X144585942Y-99384983D01*
X144553213Y-99354301D01*
X144475711Y-99249289D01*
X144475710Y-99249288D01*
X144369476Y-99170884D01*
X144321044Y-99153937D01*
X144264269Y-99113215D01*
X144238522Y-99048262D01*
X144238000Y-99036896D01*
X144238000Y-98963103D01*
X144257685Y-98896064D01*
X144310489Y-98850309D01*
X144321022Y-98846070D01*
X144369475Y-98829116D01*
X144475711Y-98750711D01*
X144554116Y-98644475D01*
X144597725Y-98519849D01*
X144599199Y-98504134D01*
X144600500Y-98490260D01*
X144600500Y-97988333D01*
X144620185Y-97921294D01*
X144636819Y-97900652D01*
X144786500Y-97750971D01*
X144940460Y-97597011D01*
X144960894Y-97561616D01*
X145011461Y-97513401D01*
X145080067Y-97500177D01*
X145144933Y-97526144D01*
X145155963Y-97535935D01*
X145184539Y-97564511D01*
X145240488Y-97620460D01*
X145240490Y-97620461D01*
X145240494Y-97620464D01*
X145301531Y-97655703D01*
X145309010Y-97660021D01*
X145385437Y-97680500D01*
X145385439Y-97680500D01*
X146214561Y-97680500D01*
X146214563Y-97680500D01*
X146290990Y-97660021D01*
X146359512Y-97620460D01*
X146415461Y-97564511D01*
X146738151Y-97241819D01*
X146799474Y-97208335D01*
X146825832Y-97205501D01*
X146972472Y-97205501D01*
X146972475Y-97205501D01*
X147112485Y-97167985D01*
X147238015Y-97095510D01*
X147340509Y-96993016D01*
X147342612Y-96989372D01*
X147345190Y-96986914D01*
X147345457Y-96986567D01*
X147345511Y-96986608D01*
X147393177Y-96941157D01*
X147461783Y-96927932D01*
X147526649Y-96953898D01*
X147557386Y-96989371D01*
X147559491Y-96993016D01*
X147661985Y-97095510D01*
X147661986Y-97095511D01*
X147661988Y-97095512D01*
X147787511Y-97167983D01*
X147787512Y-97167983D01*
X147787515Y-97167985D01*
X147927525Y-97205501D01*
X147927528Y-97205501D01*
X148072472Y-97205501D01*
X148072475Y-97205501D01*
X148212485Y-97167985D01*
X148338015Y-97095510D01*
X148440509Y-96993016D01*
X148512984Y-96867486D01*
X148550500Y-96727476D01*
X148550500Y-95512526D01*
X148512984Y-95372516D01*
X148506411Y-95361132D01*
X148440511Y-95246989D01*
X148440510Y-95246987D01*
X148440509Y-95246986D01*
X148338015Y-95144492D01*
X148338012Y-95144490D01*
X148338011Y-95144489D01*
X148212488Y-95072018D01*
X148212489Y-95072018D01*
X148175493Y-95062105D01*
X148072475Y-95034501D01*
X147927525Y-95034501D01*
X147824507Y-95062105D01*
X147787511Y-95072018D01*
X147689904Y-95128372D01*
X147622004Y-95144845D01*
X147555977Y-95121992D01*
X147512786Y-95067071D01*
X147505830Y-95008869D01*
X147505647Y-95008869D01*
X147505647Y-95007335D01*
X147505168Y-95003329D01*
X147505647Y-95000000D01*
X147485165Y-94857543D01*
X147425377Y-94726627D01*
X147331128Y-94617857D01*
X147210053Y-94540047D01*
X147210051Y-94540046D01*
X147210049Y-94540045D01*
X147210050Y-94540045D01*
X147071963Y-94499500D01*
X147071961Y-94499500D01*
X146928039Y-94499500D01*
X146928036Y-94499500D01*
X146789949Y-94540045D01*
X146668873Y-94617856D01*
X146574623Y-94726626D01*
X146574622Y-94726628D01*
X146514834Y-94857543D01*
X146494353Y-95000000D01*
X146512184Y-95124020D01*
X146502240Y-95193179D01*
X146477129Y-95229346D01*
X146459492Y-95246983D01*
X146457381Y-95250640D01*
X146454797Y-95253102D01*
X146454549Y-95253427D01*
X146454498Y-95253388D01*
X146406810Y-95298851D01*
X146338202Y-95312069D01*
X146273339Y-95286095D01*
X146242611Y-95250628D01*
X146240509Y-95246987D01*
X146138015Y-95144493D01*
X146138013Y-95144492D01*
X146138011Y-95144490D01*
X146012488Y-95072019D01*
X146012489Y-95072019D01*
X145994023Y-95067071D01*
X145872475Y-95034502D01*
X145727525Y-95034502D01*
X145605977Y-95067071D01*
X145587511Y-95072019D01*
X145461988Y-95144490D01*
X145461982Y-95144495D01*
X145359493Y-95246984D01*
X145359489Y-95246990D01*
X145357384Y-95250636D01*
X145354804Y-95253095D01*
X145354543Y-95253436D01*
X145354489Y-95253395D01*
X145306814Y-95298849D01*
X145238207Y-95312068D01*
X145173343Y-95286097D01*
X145142614Y-95250631D01*
X145140513Y-95246992D01*
X145140510Y-95246989D01*
X145140509Y-95246986D01*
X145038015Y-95144492D01*
X145038012Y-95144490D01*
X145038011Y-95144489D01*
X144912488Y-95072018D01*
X144912489Y-95072018D01*
X144875493Y-95062105D01*
X144772475Y-95034501D01*
X144627525Y-95034501D01*
X144524507Y-95062105D01*
X144487511Y-95072018D01*
X144361988Y-95144489D01*
X144361982Y-95144494D01*
X144259493Y-95246983D01*
X144259486Y-95246992D01*
X144257381Y-95250639D01*
X144254801Y-95253098D01*
X144254543Y-95253435D01*
X144254490Y-95253394D01*
X144206810Y-95298850D01*
X144138202Y-95312068D01*
X144073339Y-95286094D01*
X144042611Y-95250628D01*
X144041837Y-95249288D01*
X144040509Y-95246987D01*
X143938015Y-95144493D01*
X143938013Y-95144492D01*
X143938011Y-95144490D01*
X143812488Y-95072019D01*
X143812489Y-95072019D01*
X143794023Y-95067071D01*
X143672475Y-95034502D01*
X143527525Y-95034502D01*
X143405977Y-95067071D01*
X143387511Y-95072019D01*
X143261988Y-95144490D01*
X143261982Y-95144495D01*
X143159493Y-95246984D01*
X143159489Y-95246990D01*
X143157384Y-95250636D01*
X143154804Y-95253095D01*
X143154543Y-95253436D01*
X143154489Y-95253395D01*
X143106814Y-95298849D01*
X143038207Y-95312068D01*
X142973343Y-95286097D01*
X142942614Y-95250631D01*
X142940513Y-95246992D01*
X142940510Y-95246989D01*
X142940509Y-95246986D01*
X142838015Y-95144492D01*
X142838012Y-95144490D01*
X142838011Y-95144489D01*
X142712488Y-95072018D01*
X142712489Y-95072018D01*
X142675493Y-95062105D01*
X142572475Y-95034501D01*
X142427525Y-95034501D01*
X142324507Y-95062105D01*
X142287511Y-95072018D01*
X142161988Y-95144489D01*
X142161982Y-95144494D01*
X142059493Y-95246983D01*
X142059486Y-95246992D01*
X142057381Y-95250639D01*
X142054801Y-95253098D01*
X142054543Y-95253435D01*
X142054490Y-95253394D01*
X142006810Y-95298850D01*
X141938202Y-95312068D01*
X141873339Y-95286094D01*
X141842611Y-95250628D01*
X141841837Y-95249288D01*
X141840509Y-95246987D01*
X141738015Y-95144493D01*
X141738013Y-95144492D01*
X141738011Y-95144490D01*
X141612488Y-95072019D01*
X141612489Y-95072019D01*
X141594023Y-95067071D01*
X141472475Y-95034502D01*
X141327525Y-95034502D01*
X141205977Y-95067071D01*
X141187511Y-95072019D01*
X141061988Y-95144490D01*
X141061982Y-95144495D01*
X140959493Y-95246984D01*
X140959489Y-95246990D01*
X140957384Y-95250636D01*
X140954804Y-95253095D01*
X140954543Y-95253436D01*
X140954489Y-95253395D01*
X140906814Y-95298849D01*
X140838207Y-95312068D01*
X140773343Y-95286097D01*
X140742614Y-95250631D01*
X140740513Y-95246992D01*
X140740510Y-95246989D01*
X140740509Y-95246986D01*
X140638015Y-95144492D01*
X140638012Y-95144490D01*
X140638011Y-95144489D01*
X140512488Y-95072018D01*
X140512489Y-95072018D01*
X140475493Y-95062105D01*
X140372475Y-95034501D01*
X140227525Y-95034501D01*
X140124507Y-95062105D01*
X140087511Y-95072018D01*
X140038001Y-95100603D01*
X139970100Y-95117076D01*
X139904074Y-95094223D01*
X139872897Y-95062105D01*
X139860232Y-95043150D01*
X139741844Y-94924762D01*
X139602632Y-94831744D01*
X139602622Y-94831739D01*
X139450000Y-94768520D01*
X139450000Y-97471480D01*
X139454739Y-97474647D01*
X139507480Y-97468977D01*
X139569960Y-97500251D01*
X139605613Y-97560340D01*
X139608203Y-97573360D01*
X139615111Y-97621412D01*
X139659157Y-97717857D01*
X139674900Y-97752329D01*
X139759186Y-97849602D01*
X139788211Y-97913156D01*
X139778267Y-97982314D01*
X139732513Y-98035118D01*
X139670344Y-98075072D01*
X139576093Y-98183843D01*
X139571299Y-98191304D01*
X139568251Y-98189345D01*
X139533681Y-98229160D01*
X139514205Y-98239336D01*
X139500886Y-98244853D01*
X139500884Y-98244854D01*
X139462092Y-98283646D01*
X139400769Y-98317130D01*
X139331077Y-98312145D01*
X139275144Y-98270273D01*
X139251674Y-98213610D01*
X139248185Y-98189345D01*
X139236636Y-98109014D01*
X139176848Y-97978098D01*
X139082599Y-97869328D01*
X138961524Y-97791518D01*
X138961522Y-97791517D01*
X138961520Y-97791516D01*
X138961521Y-97791516D01*
X138823434Y-97750971D01*
X138823432Y-97750971D01*
X138679510Y-97750971D01*
X138679507Y-97750971D01*
X138541421Y-97791516D01*
X138521538Y-97804294D01*
X138454498Y-97823977D01*
X138387459Y-97804291D01*
X138341705Y-97751486D01*
X138330500Y-97699977D01*
X138330500Y-97580248D01*
X138328580Y-97570598D01*
X138334015Y-97503066D01*
X138343598Y-97477373D01*
X138349999Y-97417844D01*
X138350000Y-97417827D01*
X138350000Y-97370000D01*
X137824000Y-97370000D01*
X137756961Y-97350315D01*
X137711206Y-97297511D01*
X137700000Y-97246000D01*
X137700000Y-97220000D01*
X137674000Y-97220000D01*
X137606961Y-97200315D01*
X137561206Y-97147511D01*
X137550000Y-97096000D01*
X137550000Y-96570000D01*
X137850000Y-96570000D01*
X137850000Y-97070000D01*
X138388728Y-97070000D01*
X138455767Y-97089685D01*
X138491830Y-97125109D01*
X138539763Y-97196847D01*
X138658152Y-97315236D01*
X138658160Y-97315242D01*
X138797372Y-97408260D01*
X138949999Y-97471480D01*
X138950000Y-97471480D01*
X138950000Y-96370001D01*
X138350000Y-96370001D01*
X138350000Y-96571997D01*
X138330315Y-96639036D01*
X138277511Y-96684791D01*
X138208353Y-96694735D01*
X138151689Y-96671263D01*
X138092093Y-96626649D01*
X138092086Y-96626645D01*
X137957379Y-96576403D01*
X137957372Y-96576401D01*
X137897844Y-96570000D01*
X137850000Y-96570000D01*
X137550000Y-96570000D01*
X137502164Y-96570000D01*
X137463252Y-96574183D01*
X137436748Y-96574183D01*
X137397835Y-96570000D01*
X137328551Y-96570000D01*
X137314466Y-96577690D01*
X137244775Y-96572703D01*
X137188843Y-96530829D01*
X137165376Y-96474169D01*
X137163500Y-96461121D01*
X137124494Y-96375711D01*
X137103712Y-96330205D01*
X137103710Y-96330203D01*
X137103709Y-96330200D01*
X137082481Y-96305702D01*
X137053456Y-96242146D01*
X137063400Y-96172988D01*
X137109155Y-96120184D01*
X137176194Y-96100500D01*
X137690260Y-96100500D01*
X137719849Y-96097725D01*
X137844475Y-96054116D01*
X137950711Y-95975711D01*
X138029116Y-95869475D01*
X138072725Y-95744849D01*
X138075500Y-95715256D01*
X138075500Y-95501278D01*
X138350000Y-95501278D01*
X138350000Y-95870001D01*
X138950000Y-95870001D01*
X138950000Y-94768520D01*
X138797377Y-94831739D01*
X138797367Y-94831744D01*
X138658155Y-94924762D01*
X138539764Y-95043153D01*
X138539758Y-95043161D01*
X138446740Y-95182372D01*
X138446740Y-95182373D01*
X138382665Y-95337064D01*
X138382663Y-95337072D01*
X138350000Y-95501278D01*
X138075500Y-95501278D01*
X138075500Y-95109744D01*
X138072725Y-95080151D01*
X138069879Y-95072019D01*
X138032274Y-94964551D01*
X138029116Y-94955525D01*
X137950711Y-94849289D01*
X137950710Y-94849288D01*
X137844476Y-94770884D01*
X137719848Y-94727274D01*
X137719849Y-94727274D01*
X137690260Y-94724500D01*
X137690256Y-94724500D01*
X137109744Y-94724500D01*
X137109740Y-94724500D01*
X137080150Y-94727274D01*
X136955523Y-94770884D01*
X136849289Y-94849288D01*
X136849288Y-94849289D01*
X136770884Y-94955523D01*
X136727274Y-95080150D01*
X136724500Y-95109739D01*
X136724500Y-95161840D01*
X136704815Y-95228879D01*
X136688181Y-95249521D01*
X135684537Y-96253164D01*
X135684533Y-96253170D01*
X135641681Y-96327391D01*
X135641680Y-96327392D01*
X135628931Y-96374978D01*
X135628931Y-96374979D01*
X135619500Y-96410175D01*
X135619500Y-98004167D01*
X135599815Y-98071206D01*
X135583181Y-98091848D01*
X135459541Y-98215487D01*
X135459535Y-98215495D01*
X135419982Y-98284004D01*
X135419979Y-98284009D01*
X135406326Y-98334962D01*
X135401347Y-98353547D01*
X135399500Y-98360439D01*
X135399500Y-98675166D01*
X135379815Y-98742205D01*
X135327011Y-98787960D01*
X135257853Y-98797904D01*
X135194297Y-98768879D01*
X135187819Y-98762847D01*
X135124512Y-98699540D01*
X135117618Y-98695559D01*
X135117618Y-98695560D01*
X135055989Y-98659979D01*
X135055990Y-98659979D01*
X135030513Y-98653152D01*
X134979562Y-98639500D01*
X134979560Y-98639500D01*
X131466299Y-98639500D01*
X131399260Y-98619815D01*
X131353505Y-98567011D01*
X131343561Y-98497853D01*
X131372586Y-98434297D01*
X131425377Y-98373373D01*
X131485165Y-98242457D01*
X131505647Y-98100000D01*
X131505646Y-98099999D01*
X131506909Y-98091222D01*
X131509873Y-98091648D01*
X131525332Y-98039002D01*
X131541961Y-98018364D01*
X131785465Y-97774862D01*
X131828318Y-97700639D01*
X131850500Y-97617853D01*
X131850500Y-97532147D01*
X131850500Y-95509739D01*
X133524500Y-95509739D01*
X133524500Y-96115260D01*
X133527274Y-96144849D01*
X133570884Y-96269476D01*
X133649288Y-96375710D01*
X133649289Y-96375711D01*
X133695986Y-96410175D01*
X133755525Y-96454116D01*
X133816457Y-96475437D01*
X133873230Y-96516157D01*
X133898978Y-96581109D01*
X133899500Y-96592477D01*
X133899500Y-97336260D01*
X133879815Y-97403299D01*
X133869213Y-97417462D01*
X133774625Y-97526622D01*
X133774622Y-97526628D01*
X133714834Y-97657543D01*
X133694353Y-97800000D01*
X133714834Y-97942456D01*
X133758926Y-98039002D01*
X133774623Y-98073373D01*
X133868872Y-98182143D01*
X133989947Y-98259953D01*
X133989950Y-98259954D01*
X133989949Y-98259954D01*
X134128036Y-98300499D01*
X134128038Y-98300500D01*
X134128039Y-98300500D01*
X134271962Y-98300500D01*
X134271962Y-98300499D01*
X134410053Y-98259953D01*
X134531128Y-98182143D01*
X134625377Y-98073373D01*
X134685165Y-97942457D01*
X134705647Y-97800000D01*
X134685165Y-97657543D01*
X134625377Y-97526627D01*
X134625375Y-97526625D01*
X134625374Y-97526622D01*
X134530787Y-97417462D01*
X134501762Y-97353906D01*
X134500500Y-97336260D01*
X134500500Y-96592477D01*
X134520185Y-96525438D01*
X134572989Y-96479683D01*
X134583522Y-96475444D01*
X134644475Y-96454116D01*
X134750711Y-96375711D01*
X134829116Y-96269475D01*
X134872725Y-96144849D01*
X134875500Y-96115256D01*
X134875500Y-95509744D01*
X134872725Y-95480151D01*
X134869792Y-95471770D01*
X134831078Y-95361132D01*
X134829116Y-95355525D01*
X134824669Y-95349500D01*
X134750711Y-95249289D01*
X134750710Y-95249288D01*
X134644476Y-95170884D01*
X134519848Y-95127274D01*
X134519849Y-95127274D01*
X134490260Y-95124500D01*
X134490256Y-95124500D01*
X133909744Y-95124500D01*
X133909740Y-95124500D01*
X133880150Y-95127274D01*
X133755523Y-95170884D01*
X133649289Y-95249288D01*
X133649288Y-95249289D01*
X133570884Y-95355523D01*
X133527274Y-95480150D01*
X133524500Y-95509739D01*
X131850500Y-95509739D01*
X131850500Y-93684739D01*
X133524500Y-93684739D01*
X133524500Y-94290260D01*
X133527274Y-94319849D01*
X133570884Y-94444476D01*
X133649288Y-94550710D01*
X133649289Y-94550711D01*
X133755523Y-94629115D01*
X133755524Y-94629115D01*
X133755525Y-94629116D01*
X133880151Y-94672725D01*
X133880150Y-94672725D01*
X133909740Y-94675500D01*
X133909744Y-94675500D01*
X134490260Y-94675500D01*
X134519849Y-94672725D01*
X134644475Y-94629116D01*
X134750711Y-94550711D01*
X134829116Y-94444475D01*
X134872725Y-94319849D01*
X134875500Y-94290256D01*
X134875500Y-93684744D01*
X134874738Y-93676622D01*
X134872725Y-93655150D01*
X134842179Y-93567857D01*
X134829116Y-93530525D01*
X134750711Y-93424289D01*
X134750710Y-93424288D01*
X134644476Y-93345884D01*
X134644475Y-93345883D01*
X134583545Y-93324563D01*
X134526769Y-93283841D01*
X134501022Y-93218888D01*
X134500500Y-93207522D01*
X134500500Y-93149501D01*
X134520185Y-93082462D01*
X134572989Y-93036707D01*
X134624500Y-93025501D01*
X134690260Y-93025501D01*
X134719849Y-93022726D01*
X134725502Y-93020748D01*
X134844475Y-92979117D01*
X134950711Y-92900712D01*
X135029116Y-92794476D01*
X135054811Y-92721046D01*
X135095533Y-92664270D01*
X135160486Y-92638523D01*
X135171852Y-92638001D01*
X136790572Y-92638001D01*
X136857611Y-92657686D01*
X136903366Y-92710490D01*
X136913310Y-92744352D01*
X136914834Y-92754954D01*
X136914836Y-92754961D01*
X136948505Y-92828685D01*
X136958449Y-92897843D01*
X136929424Y-92961399D01*
X136909345Y-92979966D01*
X136849287Y-93024290D01*
X136770884Y-93130523D01*
X136727274Y-93255150D01*
X136724500Y-93284739D01*
X136724500Y-93890260D01*
X136727274Y-93919849D01*
X136770884Y-94044476D01*
X136849288Y-94150710D01*
X136849289Y-94150711D01*
X136955523Y-94229115D01*
X136955524Y-94229115D01*
X136955525Y-94229116D01*
X137080151Y-94272725D01*
X137080150Y-94272725D01*
X137109740Y-94275500D01*
X137109744Y-94275500D01*
X137690260Y-94275500D01*
X137719849Y-94272725D01*
X137844475Y-94229116D01*
X137950711Y-94150711D01*
X138029116Y-94044475D01*
X138072725Y-93919849D01*
X138075500Y-93890256D01*
X138075500Y-93284744D01*
X138075415Y-93283841D01*
X138072725Y-93255150D01*
X138029115Y-93130523D01*
X137989913Y-93077407D01*
X137950711Y-93024289D01*
X137890653Y-92979964D01*
X137848404Y-92924319D01*
X137842945Y-92854663D01*
X137851491Y-92828691D01*
X137885165Y-92754957D01*
X137905647Y-92612500D01*
X137885165Y-92470043D01*
X137825377Y-92339127D01*
X137731128Y-92230357D01*
X137610053Y-92152547D01*
X137610051Y-92152546D01*
X137610049Y-92152545D01*
X137610050Y-92152545D01*
X137471963Y-92112000D01*
X137471961Y-92112000D01*
X137368648Y-92112000D01*
X137306650Y-92095388D01*
X137274864Y-92077037D01*
X137274861Y-92077035D01*
X137240995Y-92057482D01*
X137240994Y-92057481D01*
X137231961Y-92055060D01*
X137164563Y-92037001D01*
X137164561Y-92037001D01*
X135171852Y-92037001D01*
X135104813Y-92017316D01*
X135059058Y-91964512D01*
X135054811Y-91953956D01*
X135044286Y-91923880D01*
X135029116Y-91880526D01*
X134950711Y-91774290D01*
X134950710Y-91774289D01*
X134844476Y-91695885D01*
X134719848Y-91652275D01*
X134719849Y-91652275D01*
X134690260Y-91649501D01*
X134690256Y-91649501D01*
X134109744Y-91649501D01*
X134109740Y-91649501D01*
X134080150Y-91652275D01*
X133955523Y-91695885D01*
X133849289Y-91774289D01*
X133849288Y-91774290D01*
X133770884Y-91880524D01*
X133727274Y-92005151D01*
X133724500Y-92034740D01*
X133724500Y-92640261D01*
X133727274Y-92669850D01*
X133770884Y-92794477D01*
X133849288Y-92900711D01*
X133855860Y-92907283D01*
X133854921Y-92908221D01*
X133891384Y-92956243D01*
X133899500Y-93000367D01*
X133899500Y-93207522D01*
X133879815Y-93274561D01*
X133827011Y-93320316D01*
X133816455Y-93324563D01*
X133755524Y-93345883D01*
X133755523Y-93345884D01*
X133649289Y-93424288D01*
X133649288Y-93424289D01*
X133570884Y-93530523D01*
X133527274Y-93655150D01*
X133524500Y-93684739D01*
X131850500Y-93684739D01*
X131850500Y-92815356D01*
X131850501Y-92815343D01*
X131850501Y-92719649D01*
X131835662Y-92664270D01*
X131828318Y-92636862D01*
X131794311Y-92577961D01*
X131792112Y-92574153D01*
X131775500Y-92512153D01*
X131775500Y-92034740D01*
X131772725Y-92005151D01*
X131729115Y-91880524D01*
X131650711Y-91774290D01*
X131650710Y-91774289D01*
X131544476Y-91695885D01*
X131419848Y-91652275D01*
X131419849Y-91652275D01*
X131390260Y-91649501D01*
X131390256Y-91649501D01*
X130809744Y-91649501D01*
X130809740Y-91649501D01*
X130780150Y-91652275D01*
X130655523Y-91695885D01*
X130549289Y-91774289D01*
X130549288Y-91774290D01*
X130470884Y-91880524D01*
X130427274Y-92005151D01*
X130424500Y-92034740D01*
X130424500Y-92640261D01*
X130427274Y-92669850D01*
X130470884Y-92794477D01*
X130549288Y-92900711D01*
X130549289Y-92900712D01*
X130655523Y-92979116D01*
X130655524Y-92979116D01*
X130655525Y-92979117D01*
X130780151Y-93022726D01*
X130780150Y-93022726D01*
X130809740Y-93025501D01*
X130809744Y-93025501D01*
X131075500Y-93025501D01*
X131142539Y-93045186D01*
X131188294Y-93097990D01*
X131199500Y-93149501D01*
X131199500Y-97388811D01*
X131179815Y-97455850D01*
X131163181Y-97476492D01*
X131076492Y-97563181D01*
X131015169Y-97596666D01*
X130988811Y-97599500D01*
X130928036Y-97599500D01*
X130789949Y-97640045D01*
X130668873Y-97717856D01*
X130574623Y-97826626D01*
X130574622Y-97826628D01*
X130512294Y-97963107D01*
X130466539Y-98015911D01*
X130434494Y-98025319D01*
X130481254Y-98070210D01*
X130496394Y-98114197D01*
X130514834Y-98242456D01*
X130568716Y-98360438D01*
X130574623Y-98373373D01*
X130623352Y-98429610D01*
X130627414Y-98434297D01*
X130656439Y-98497853D01*
X130646495Y-98567012D01*
X130600740Y-98619816D01*
X130533701Y-98639500D01*
X129958709Y-98639500D01*
X129891670Y-98619815D01*
X129845915Y-98567011D01*
X129835971Y-98497853D01*
X129864996Y-98434297D01*
X129917753Y-98398459D01*
X129989448Y-98373371D01*
X130044475Y-98354116D01*
X130150711Y-98275711D01*
X130229116Y-98169475D01*
X130256615Y-98090889D01*
X130297337Y-98034113D01*
X130338662Y-98017731D01*
X130332460Y-98015910D01*
X130286705Y-97963106D01*
X130275500Y-97911595D01*
X130275500Y-97409739D01*
X130272725Y-97380150D01*
X130229115Y-97255523D01*
X130150711Y-97149289D01*
X130150710Y-97149288D01*
X130044479Y-97070887D01*
X130044475Y-97070884D01*
X130044470Y-97070882D01*
X130039852Y-97068441D01*
X129989781Y-97019710D01*
X129974004Y-96951645D01*
X129997531Y-96885855D01*
X130052891Y-96843229D01*
X130058794Y-96841106D01*
X130151298Y-96810454D01*
X130151311Y-96810448D01*
X130298034Y-96719947D01*
X130298038Y-96719944D01*
X130419944Y-96598038D01*
X130419947Y-96598034D01*
X130510448Y-96451311D01*
X130510453Y-96451300D01*
X130564680Y-96287652D01*
X130574999Y-96186654D01*
X130575000Y-96186641D01*
X130575000Y-96137500D01*
X128625001Y-96137500D01*
X128625001Y-96186654D01*
X128635319Y-96287652D01*
X128689546Y-96451300D01*
X128689551Y-96451311D01*
X128780052Y-96598034D01*
X128780055Y-96598038D01*
X128901961Y-96719944D01*
X128901965Y-96719947D01*
X129048688Y-96810448D01*
X129048701Y-96810454D01*
X129141205Y-96841106D01*
X129198650Y-96880878D01*
X129225474Y-96945393D01*
X129213160Y-97014169D01*
X129165617Y-97065370D01*
X129160150Y-97068439D01*
X129155523Y-97070884D01*
X129049289Y-97149288D01*
X129049288Y-97149289D01*
X128970884Y-97255523D01*
X128953937Y-97303956D01*
X128913215Y-97360731D01*
X128848262Y-97386478D01*
X128836896Y-97387000D01*
X127976520Y-97387000D01*
X127976520Y-97384005D01*
X127921599Y-97375414D01*
X127869364Y-97329010D01*
X127850500Y-97263265D01*
X127850500Y-95588345D01*
X128625000Y-95588345D01*
X128625000Y-95637500D01*
X129350000Y-95637500D01*
X129850000Y-95637500D01*
X130574999Y-95637500D01*
X130574999Y-95588360D01*
X130574998Y-95588345D01*
X130564680Y-95487347D01*
X130510453Y-95323699D01*
X130510448Y-95323688D01*
X130419947Y-95176965D01*
X130419944Y-95176961D01*
X130298038Y-95055055D01*
X130298034Y-95055052D01*
X130151311Y-94964551D01*
X130151300Y-94964546D01*
X129987652Y-94910319D01*
X129886654Y-94900000D01*
X129850000Y-94900000D01*
X129850000Y-95637500D01*
X129350000Y-95637500D01*
X129350000Y-94900000D01*
X129313361Y-94900000D01*
X129313343Y-94900001D01*
X129212347Y-94910319D01*
X129048699Y-94964546D01*
X129048688Y-94964551D01*
X128901965Y-95055052D01*
X128901961Y-95055055D01*
X128780055Y-95176961D01*
X128780052Y-95176965D01*
X128689551Y-95323688D01*
X128689546Y-95323699D01*
X128635319Y-95487347D01*
X128625000Y-95588345D01*
X127850500Y-95588345D01*
X127850500Y-95530249D01*
X127850499Y-95530247D01*
X127838868Y-95471770D01*
X127838867Y-95471769D01*
X127794552Y-95405447D01*
X127728230Y-95361132D01*
X127728229Y-95361131D01*
X127669752Y-95349500D01*
X127669748Y-95349500D01*
X125930252Y-95349500D01*
X125930247Y-95349500D01*
X125871770Y-95361131D01*
X125871769Y-95361132D01*
X125805447Y-95405447D01*
X125761132Y-95471769D01*
X125761131Y-95471770D01*
X125749500Y-95530247D01*
X125749500Y-97269752D01*
X125761131Y-97328229D01*
X125761132Y-97328230D01*
X125805447Y-97394552D01*
X125871769Y-97438867D01*
X125871770Y-97438868D01*
X125930247Y-97450499D01*
X125930250Y-97450500D01*
X127529811Y-97450500D01*
X127596850Y-97470185D01*
X127642605Y-97522989D01*
X127652549Y-97592147D01*
X127623524Y-97655703D01*
X127617510Y-97662161D01*
X127409673Y-97869999D01*
X127340994Y-97938678D01*
X127279671Y-97972162D01*
X127209979Y-97967178D01*
X127205869Y-97965561D01*
X127203958Y-97964769D01*
X127104944Y-97934734D01*
X127005934Y-97904700D01*
X127005932Y-97904699D01*
X127005934Y-97904699D01*
X126800000Y-97884417D01*
X126594067Y-97904699D01*
X126396043Y-97964769D01*
X126323743Y-98003415D01*
X126213550Y-98062315D01*
X126213548Y-98062316D01*
X126213547Y-98062317D01*
X126053589Y-98193589D01*
X125922317Y-98353547D01*
X125922315Y-98353550D01*
X125896314Y-98402194D01*
X125824769Y-98536043D01*
X125764699Y-98734067D01*
X125744417Y-98940000D01*
X125764699Y-99145932D01*
X125793386Y-99240500D01*
X125824768Y-99343954D01*
X125922315Y-99526450D01*
X125927062Y-99532234D01*
X126053589Y-99686410D01*
X126150209Y-99765702D01*
X126213550Y-99817685D01*
X126396046Y-99915232D01*
X126594066Y-99975300D01*
X126594065Y-99975300D01*
X126612529Y-99977118D01*
X126800000Y-99995583D01*
X127005934Y-99975300D01*
X127203954Y-99915232D01*
X127386450Y-99817685D01*
X127546410Y-99686410D01*
X127677685Y-99526450D01*
X127775232Y-99343954D01*
X127779919Y-99328503D01*
X127818217Y-99270065D01*
X127882030Y-99241609D01*
X127898579Y-99240500D01*
X128976000Y-99240500D01*
X129043039Y-99260185D01*
X129088794Y-99312989D01*
X129100000Y-99364500D01*
X129100000Y-100776000D01*
X129080315Y-100843039D01*
X129027511Y-100888794D01*
X128976000Y-100900000D01*
X127800000Y-100900000D01*
X127800000Y-101856050D01*
X127781539Y-101921146D01*
X127764550Y-101948690D01*
X127764545Y-101948699D01*
X127710318Y-102112347D01*
X127699999Y-102213345D01*
X127699999Y-102250000D01*
X127709975Y-102259976D01*
X127743039Y-102269685D01*
X127788794Y-102322489D01*
X127800000Y-102374000D01*
X127800000Y-102626000D01*
X127780315Y-102693039D01*
X127727511Y-102738794D01*
X127706672Y-102743327D01*
X127700000Y-102750000D01*
X127700000Y-102786654D01*
X127710318Y-102887652D01*
X127764547Y-103051305D01*
X127781538Y-103078851D01*
X127800000Y-103143949D01*
X127800000Y-103400000D01*
X128073790Y-103400000D01*
X128116420Y-103409450D01*
X128116841Y-103408181D01*
X128287346Y-103464680D01*
X128388350Y-103474999D01*
X128487499Y-103474998D01*
X128523818Y-103438680D01*
X128525890Y-103440752D01*
X128559988Y-103411206D01*
X128611499Y-103400000D01*
X128863499Y-103400000D01*
X128930538Y-103419685D01*
X128948939Y-103440920D01*
X128951180Y-103438680D01*
X128987499Y-103474999D01*
X129086639Y-103474999D01*
X129086653Y-103474998D01*
X129187651Y-103464680D01*
X129358157Y-103408181D01*
X129358577Y-103409450D01*
X129401208Y-103400000D01*
X130850813Y-103400000D01*
X130917852Y-103419685D01*
X130938494Y-103436319D01*
X131104414Y-103602239D01*
X131137899Y-103663562D01*
X131132915Y-103733254D01*
X131104415Y-103777601D01*
X130980053Y-103901964D01*
X130955917Y-103941096D01*
X130903969Y-103987821D01*
X130850378Y-104000000D01*
X130724729Y-104000000D01*
X130657690Y-103980315D01*
X130651096Y-103975770D01*
X130644476Y-103970884D01*
X130519848Y-103927274D01*
X130519849Y-103927274D01*
X130490260Y-103924500D01*
X130490256Y-103924500D01*
X129784744Y-103924500D01*
X129784740Y-103924500D01*
X129755150Y-103927274D01*
X129630523Y-103970884D01*
X129623904Y-103975770D01*
X129558275Y-103999741D01*
X129550271Y-104000000D01*
X129300000Y-104000000D01*
X129300000Y-107637929D01*
X129280315Y-107704968D01*
X129250313Y-107737194D01*
X129242816Y-107742806D01*
X129242808Y-107742814D01*
X129156649Y-107857906D01*
X129156645Y-107857913D01*
X129106403Y-107992620D01*
X129106401Y-107992627D01*
X129100000Y-108052155D01*
X129100000Y-108550000D01*
X129176000Y-108550000D01*
X129243039Y-108569685D01*
X129288794Y-108622489D01*
X129300000Y-108674000D01*
X129300000Y-108926000D01*
X129280315Y-108993039D01*
X129227511Y-109038794D01*
X129176000Y-109050000D01*
X129100000Y-109050000D01*
X129100000Y-109547844D01*
X129106401Y-109607372D01*
X129106403Y-109607379D01*
X129156645Y-109742086D01*
X129156647Y-109742088D01*
X129247899Y-109863986D01*
X129272316Y-109929450D01*
X129257465Y-109997723D01*
X129254170Y-110003394D01*
X129164550Y-110148688D01*
X129164545Y-110148699D01*
X129110318Y-110312347D01*
X129099999Y-110413345D01*
X129099999Y-110450000D01*
X129176000Y-110450000D01*
X129243039Y-110469685D01*
X129288794Y-110522489D01*
X129300000Y-110574000D01*
X129300000Y-110826000D01*
X129280315Y-110893039D01*
X129227511Y-110938794D01*
X129176000Y-110950000D01*
X129126333Y-110950000D01*
X129059294Y-110930315D01*
X129038652Y-110913681D01*
X127889298Y-109764327D01*
X127855813Y-109703004D01*
X127860797Y-109633312D01*
X127867618Y-109618197D01*
X127875232Y-109603954D01*
X127935300Y-109405934D01*
X127955583Y-109200000D01*
X127935300Y-108994066D01*
X127875232Y-108796046D01*
X127777685Y-108613550D01*
X127706705Y-108527060D01*
X127646410Y-108453589D01*
X127486452Y-108322317D01*
X127486453Y-108322317D01*
X127486450Y-108322315D01*
X127338732Y-108243357D01*
X127288889Y-108194395D01*
X127273429Y-108126257D01*
X127297261Y-108060578D01*
X127352819Y-108018209D01*
X127397187Y-108010000D01*
X127797828Y-108010000D01*
X127797844Y-108009999D01*
X127857372Y-108003598D01*
X127857379Y-108003596D01*
X127992086Y-107953354D01*
X127992093Y-107953350D01*
X128107187Y-107867190D01*
X128107190Y-107867187D01*
X128193350Y-107752093D01*
X128193354Y-107752086D01*
X128243596Y-107617379D01*
X128243598Y-107617372D01*
X128249999Y-107557844D01*
X128250000Y-107557827D01*
X128250000Y-106910000D01*
X127333012Y-106910000D01*
X127365925Y-106852993D01*
X127400000Y-106725826D01*
X127400000Y-106594174D01*
X127365925Y-106467007D01*
X127333012Y-106410000D01*
X128250000Y-106410000D01*
X128250000Y-105762172D01*
X128249999Y-105762155D01*
X128243598Y-105702627D01*
X128243596Y-105702620D01*
X128193354Y-105567913D01*
X128193350Y-105567906D01*
X128107190Y-105452812D01*
X128107187Y-105452809D01*
X127992093Y-105366649D01*
X127992086Y-105366645D01*
X127857379Y-105316403D01*
X127857372Y-105316401D01*
X127797844Y-105310000D01*
X127150000Y-105310000D01*
X127150000Y-106226988D01*
X127092993Y-106194075D01*
X126965826Y-106160000D01*
X126834174Y-106160000D01*
X126707007Y-106194075D01*
X126650000Y-106226988D01*
X126650000Y-105310000D01*
X126002155Y-105310000D01*
X125942627Y-105316401D01*
X125942620Y-105316403D01*
X125807913Y-105366645D01*
X125807906Y-105366649D01*
X125692812Y-105452809D01*
X125692809Y-105452812D01*
X125606649Y-105567906D01*
X125606645Y-105567913D01*
X125556403Y-105702620D01*
X125556401Y-105702627D01*
X125550000Y-105762155D01*
X125550000Y-106410000D01*
X126466988Y-106410000D01*
X126434075Y-106467007D01*
X126400000Y-106594174D01*
X126400000Y-106725826D01*
X126434075Y-106852993D01*
X126466988Y-106910000D01*
X125550000Y-106910000D01*
X125550000Y-107557844D01*
X125556401Y-107617372D01*
X125556403Y-107617379D01*
X125606645Y-107752086D01*
X125606649Y-107752093D01*
X125692809Y-107867187D01*
X125692812Y-107867190D01*
X125807906Y-107953350D01*
X125807913Y-107953354D01*
X125942620Y-108003596D01*
X125942627Y-108003598D01*
X126002155Y-108009999D01*
X126002172Y-108010000D01*
X126402813Y-108010000D01*
X126469852Y-108029685D01*
X126515607Y-108082489D01*
X126525551Y-108151647D01*
X126496526Y-108215203D01*
X126461267Y-108243357D01*
X126313550Y-108322315D01*
X126313548Y-108322316D01*
X126313547Y-108322317D01*
X126153589Y-108453589D01*
X126022317Y-108613547D01*
X126022315Y-108613550D01*
X126013595Y-108629864D01*
X125924769Y-108796043D01*
X125864699Y-108994067D01*
X125844417Y-109200000D01*
X125864699Y-109405932D01*
X125884665Y-109471751D01*
X125924768Y-109603954D01*
X126022315Y-109786450D01*
X126045364Y-109814535D01*
X126153589Y-109946410D01*
X126235208Y-110013392D01*
X126313550Y-110077685D01*
X126496046Y-110175232D01*
X126496051Y-110175233D01*
X126497951Y-110176021D01*
X126498796Y-110176701D01*
X126501419Y-110178104D01*
X126501153Y-110178601D01*
X126552355Y-110219862D01*
X126574421Y-110286156D01*
X126574500Y-110290583D01*
X126574500Y-111003770D01*
X126554815Y-111070809D01*
X126502011Y-111116564D01*
X126491456Y-111120811D01*
X126455523Y-111133384D01*
X126349289Y-111211788D01*
X126349288Y-111211789D01*
X126270884Y-111318023D01*
X126227274Y-111442650D01*
X126224500Y-111472239D01*
X126224500Y-111974167D01*
X126204815Y-112041206D01*
X126188181Y-112061848D01*
X125459541Y-112790487D01*
X125459535Y-112790495D01*
X125419982Y-112859004D01*
X125419979Y-112859009D01*
X125412149Y-112888231D01*
X125399500Y-112935438D01*
X124973642Y-112935438D01*
X124990378Y-92034740D01*
X127124500Y-92034740D01*
X127124500Y-92640261D01*
X127127274Y-92669850D01*
X127170884Y-92794477D01*
X127249288Y-92900711D01*
X127249289Y-92900712D01*
X127355522Y-92979115D01*
X127355525Y-92979117D01*
X127391454Y-92991689D01*
X127448230Y-93032411D01*
X127473978Y-93097363D01*
X127474500Y-93108731D01*
X127474500Y-93515112D01*
X127454815Y-93582151D01*
X127444213Y-93596314D01*
X127374625Y-93676622D01*
X127374622Y-93676628D01*
X127314834Y-93807543D01*
X127294353Y-93950000D01*
X127314834Y-94092456D01*
X127341439Y-94150711D01*
X127374623Y-94223373D01*
X127468872Y-94332143D01*
X127589947Y-94409953D01*
X127589950Y-94409954D01*
X127589949Y-94409954D01*
X127697107Y-94441417D01*
X127707519Y-94444475D01*
X127728036Y-94450499D01*
X127728038Y-94450500D01*
X127728039Y-94450500D01*
X127871962Y-94450500D01*
X127871962Y-94450499D01*
X128010053Y-94409953D01*
X128131128Y-94332143D01*
X128225377Y-94223373D01*
X128285165Y-94092457D01*
X128305647Y-93950000D01*
X128285165Y-93807543D01*
X128225377Y-93676627D01*
X128225375Y-93676625D01*
X128225374Y-93676622D01*
X128155787Y-93596314D01*
X128126762Y-93532758D01*
X128125500Y-93515112D01*
X128125500Y-93108731D01*
X128145185Y-93041692D01*
X128197989Y-92995937D01*
X128208546Y-92991689D01*
X128244475Y-92979117D01*
X128350711Y-92900712D01*
X128429116Y-92794476D01*
X128472725Y-92669850D01*
X128475500Y-92640257D01*
X128475500Y-92034745D01*
X128472725Y-92005152D01*
X128429116Y-91880526D01*
X128350711Y-91774290D01*
X128350710Y-91774289D01*
X128244476Y-91695885D01*
X128119848Y-91652275D01*
X128119849Y-91652275D01*
X128090260Y-91649501D01*
X128090256Y-91649501D01*
X127509744Y-91649501D01*
X127509740Y-91649501D01*
X127480150Y-91652275D01*
X127355523Y-91695885D01*
X127249289Y-91774289D01*
X127249288Y-91774290D01*
X127170884Y-91880524D01*
X127127274Y-92005151D01*
X127124500Y-92034740D01*
X124990378Y-92034740D01*
X124994189Y-87274988D01*
X126600001Y-87274988D01*
X126610494Y-87377699D01*
X126665641Y-87544121D01*
X126665643Y-87544126D01*
X126757684Y-87693347D01*
X126881654Y-87817317D01*
X127030875Y-87909358D01*
X127030882Y-87909361D01*
X127199078Y-87965095D01*
X127256523Y-88004867D01*
X127283347Y-88069383D01*
X127271032Y-88138159D01*
X127223490Y-88189359D01*
X127201032Y-88199842D01*
X127158202Y-88214829D01*
X127137118Y-88222207D01*
X127137117Y-88222207D01*
X127137116Y-88222208D01*
X127027850Y-88302850D01*
X126947207Y-88412117D01*
X126947206Y-88412119D01*
X126902353Y-88540298D01*
X126902353Y-88540300D01*
X126899500Y-88570730D01*
X126899500Y-89329269D01*
X126902353Y-89359699D01*
X126902353Y-89359701D01*
X126947206Y-89487880D01*
X126947207Y-89487882D01*
X127027850Y-89597150D01*
X127137118Y-89677793D01*
X127180958Y-89693133D01*
X127241308Y-89714251D01*
X127298084Y-89754973D01*
X127323831Y-89819925D01*
X127310375Y-89888487D01*
X127273988Y-89931061D01*
X127249288Y-89949290D01*
X127170884Y-90055524D01*
X127127274Y-90180151D01*
X127124500Y-90209740D01*
X127124500Y-90815261D01*
X127127274Y-90844850D01*
X127170884Y-90969477D01*
X127249288Y-91075711D01*
X127249289Y-91075712D01*
X127355523Y-91154116D01*
X127355524Y-91154116D01*
X127355525Y-91154117D01*
X127480151Y-91197726D01*
X127480150Y-91197726D01*
X127509740Y-91200501D01*
X127509744Y-91200501D01*
X128090260Y-91200501D01*
X128119849Y-91197726D01*
X128244475Y-91154117D01*
X128350711Y-91075712D01*
X128429116Y-90969476D01*
X128472725Y-90844850D01*
X128475500Y-90815257D01*
X128475500Y-90209745D01*
X128472725Y-90180152D01*
X128429116Y-90055526D01*
X128350711Y-89949290D01*
X128326013Y-89931062D01*
X128283762Y-89875415D01*
X128278303Y-89805759D01*
X128311370Y-89744209D01*
X128358691Y-89714251D01*
X128375200Y-89708473D01*
X128462882Y-89677793D01*
X128572150Y-89597150D01*
X128652793Y-89487882D01*
X128675219Y-89423790D01*
X128697646Y-89359701D01*
X128697646Y-89359699D01*
X128700500Y-89329269D01*
X128700500Y-88570730D01*
X128697646Y-88540300D01*
X128697646Y-88540298D01*
X128652793Y-88412119D01*
X128652792Y-88412117D01*
X128572150Y-88302850D01*
X128462882Y-88222207D01*
X128462880Y-88222206D01*
X128398970Y-88199843D01*
X128342194Y-88159121D01*
X128316447Y-88094168D01*
X128329904Y-88025607D01*
X128378291Y-87975204D01*
X128400921Y-87965096D01*
X128569119Y-87909360D01*
X128569124Y-87909358D01*
X128718345Y-87817317D01*
X128842315Y-87693347D01*
X128934356Y-87544126D01*
X128934358Y-87544121D01*
X128989505Y-87377699D01*
X128989506Y-87377692D01*
X128999999Y-87274988D01*
X129900001Y-87274988D01*
X129910494Y-87377699D01*
X129965641Y-87544121D01*
X129965643Y-87544126D01*
X130057684Y-87693347D01*
X130181654Y-87817317D01*
X130330875Y-87909358D01*
X130330882Y-87909361D01*
X130499078Y-87965095D01*
X130556523Y-88004867D01*
X130583347Y-88069383D01*
X130571032Y-88138159D01*
X130523490Y-88189359D01*
X130501032Y-88199842D01*
X130458202Y-88214829D01*
X130437118Y-88222207D01*
X130437117Y-88222207D01*
X130437116Y-88222208D01*
X130327850Y-88302850D01*
X130247207Y-88412117D01*
X130247206Y-88412119D01*
X130202353Y-88540298D01*
X130202353Y-88540300D01*
X130199500Y-88570730D01*
X130199500Y-89329269D01*
X130202353Y-89359699D01*
X130202353Y-89359701D01*
X130247206Y-89487880D01*
X130247207Y-89487882D01*
X130327850Y-89597150D01*
X130437118Y-89677793D01*
X130480958Y-89693133D01*
X130541308Y-89714251D01*
X130598084Y-89754973D01*
X130623831Y-89819925D01*
X130610375Y-89888487D01*
X130573988Y-89931061D01*
X130549288Y-89949290D01*
X130470884Y-90055524D01*
X130427274Y-90180151D01*
X130424500Y-90209740D01*
X130424500Y-90815261D01*
X130427274Y-90844850D01*
X130470884Y-90969477D01*
X130549288Y-91075711D01*
X130549289Y-91075712D01*
X130655523Y-91154116D01*
X130655524Y-91154116D01*
X130655525Y-91154117D01*
X130780151Y-91197726D01*
X130780150Y-91197726D01*
X130809740Y-91200501D01*
X130809744Y-91200501D01*
X131390260Y-91200501D01*
X131419849Y-91197726D01*
X131544475Y-91154117D01*
X131650711Y-91075712D01*
X131729116Y-90969476D01*
X131772725Y-90844850D01*
X131775500Y-90815257D01*
X131775500Y-90209745D01*
X131772725Y-90180152D01*
X131729116Y-90055526D01*
X131650711Y-89949290D01*
X131626013Y-89931062D01*
X131583762Y-89875415D01*
X131578303Y-89805759D01*
X131611370Y-89744209D01*
X131658691Y-89714251D01*
X131675200Y-89708473D01*
X131762882Y-89677793D01*
X131872150Y-89597150D01*
X131952793Y-89487882D01*
X131975219Y-89423790D01*
X131997646Y-89359701D01*
X131997646Y-89359699D01*
X132000500Y-89329269D01*
X132000500Y-88570730D01*
X131997646Y-88540300D01*
X131997646Y-88540298D01*
X131952793Y-88412119D01*
X131952792Y-88412117D01*
X131872150Y-88302850D01*
X131762882Y-88222207D01*
X131762880Y-88222206D01*
X131698970Y-88199843D01*
X131642194Y-88159121D01*
X131616447Y-88094168D01*
X131629904Y-88025607D01*
X131678291Y-87975204D01*
X131700921Y-87965096D01*
X131869119Y-87909360D01*
X131869124Y-87909358D01*
X132018345Y-87817317D01*
X132142315Y-87693347D01*
X132234356Y-87544126D01*
X132234358Y-87544121D01*
X132289505Y-87377699D01*
X132289506Y-87377692D01*
X132299999Y-87274988D01*
X133200001Y-87274988D01*
X133210494Y-87377699D01*
X133265641Y-87544121D01*
X133265643Y-87544126D01*
X133357684Y-87693347D01*
X133481654Y-87817317D01*
X133630875Y-87909358D01*
X133630882Y-87909361D01*
X133799078Y-87965095D01*
X133856523Y-88004867D01*
X133883347Y-88069383D01*
X133871032Y-88138159D01*
X133823490Y-88189359D01*
X133801032Y-88199842D01*
X133758202Y-88214829D01*
X133737118Y-88222207D01*
X133737117Y-88222207D01*
X133737116Y-88222208D01*
X133627850Y-88302850D01*
X133547207Y-88412117D01*
X133547206Y-88412119D01*
X133502353Y-88540298D01*
X133502353Y-88540300D01*
X133499500Y-88570730D01*
X133499500Y-89329269D01*
X133502353Y-89359699D01*
X133502353Y-89359701D01*
X133547206Y-89487880D01*
X133547207Y-89487882D01*
X133627850Y-89597150D01*
X133737118Y-89677793D01*
X133780958Y-89693133D01*
X133841308Y-89714251D01*
X133898084Y-89754973D01*
X133923831Y-89819925D01*
X133910375Y-89888487D01*
X133873988Y-89931061D01*
X133849288Y-89949290D01*
X133770884Y-90055524D01*
X133727274Y-90180151D01*
X133724500Y-90209740D01*
X133724500Y-90815261D01*
X133727274Y-90844850D01*
X133770884Y-90969477D01*
X133849288Y-91075711D01*
X133849289Y-91075712D01*
X133955523Y-91154116D01*
X133955524Y-91154116D01*
X133955525Y-91154117D01*
X134080151Y-91197726D01*
X134080150Y-91197726D01*
X134109740Y-91200501D01*
X134109744Y-91200501D01*
X134690260Y-91200501D01*
X134719849Y-91197726D01*
X134844475Y-91154117D01*
X134950711Y-91075712D01*
X135029116Y-90969476D01*
X135072725Y-90844850D01*
X135075500Y-90815257D01*
X135075500Y-90209745D01*
X135072725Y-90180152D01*
X135029116Y-90055526D01*
X134950711Y-89949290D01*
X134926013Y-89931062D01*
X134883762Y-89875415D01*
X134878303Y-89805759D01*
X134911370Y-89744209D01*
X134958691Y-89714251D01*
X134975200Y-89708473D01*
X135062882Y-89677793D01*
X135172150Y-89597150D01*
X135252793Y-89487882D01*
X135275219Y-89423790D01*
X135297646Y-89359701D01*
X135297646Y-89359699D01*
X135300500Y-89329269D01*
X135300500Y-88570730D01*
X135297646Y-88540300D01*
X135297646Y-88540298D01*
X135252793Y-88412119D01*
X135252792Y-88412117D01*
X135172150Y-88302850D01*
X135062882Y-88222207D01*
X135062880Y-88222206D01*
X134998970Y-88199843D01*
X134942194Y-88159121D01*
X134916447Y-88094168D01*
X134929904Y-88025607D01*
X134978291Y-87975204D01*
X135000921Y-87965096D01*
X135169119Y-87909360D01*
X135169124Y-87909358D01*
X135318345Y-87817317D01*
X135442315Y-87693347D01*
X135534356Y-87544126D01*
X135534358Y-87544121D01*
X135589505Y-87377699D01*
X135589506Y-87377692D01*
X135599999Y-87274988D01*
X135600000Y-87274975D01*
X135600000Y-87150002D01*
X133200001Y-87150002D01*
X133200001Y-87274988D01*
X132299999Y-87274988D01*
X132300000Y-87274975D01*
X132300000Y-87150002D01*
X129900001Y-87150002D01*
X129900001Y-87274988D01*
X128999999Y-87274988D01*
X129000000Y-87274975D01*
X129000000Y-87150002D01*
X126600001Y-87150002D01*
X126600001Y-87274988D01*
X124994189Y-87274988D01*
X124994790Y-86525015D01*
X126600000Y-86525015D01*
X126600000Y-86650002D01*
X127550000Y-86650002D01*
X128050000Y-86650002D01*
X128999999Y-86650002D01*
X128999999Y-86525030D01*
X128999998Y-86525015D01*
X129900000Y-86525015D01*
X129900000Y-86650002D01*
X130850000Y-86650002D01*
X131350000Y-86650002D01*
X132299999Y-86650002D01*
X132299999Y-86525030D01*
X132299998Y-86525015D01*
X133200000Y-86525015D01*
X133200000Y-86650002D01*
X134150000Y-86650002D01*
X134650000Y-86650002D01*
X135599999Y-86650002D01*
X135599999Y-86525030D01*
X135599998Y-86525015D01*
X135589505Y-86422304D01*
X135534358Y-86255882D01*
X135534356Y-86255877D01*
X135442315Y-86106656D01*
X135318345Y-85982686D01*
X135169124Y-85890645D01*
X135169119Y-85890643D01*
X135002697Y-85835496D01*
X135002690Y-85835495D01*
X134899986Y-85825002D01*
X134650000Y-85825002D01*
X134650000Y-86650002D01*
X134150000Y-86650002D01*
X134150000Y-85825002D01*
X133900029Y-85825002D01*
X133900012Y-85825003D01*
X133797302Y-85835496D01*
X133630880Y-85890643D01*
X133630875Y-85890645D01*
X133481654Y-85982686D01*
X133357684Y-86106656D01*
X133265643Y-86255877D01*
X133265641Y-86255882D01*
X133210494Y-86422304D01*
X133210493Y-86422311D01*
X133200000Y-86525015D01*
X132299998Y-86525015D01*
X132289505Y-86422304D01*
X132234358Y-86255882D01*
X132234356Y-86255877D01*
X132142315Y-86106656D01*
X132018345Y-85982686D01*
X131869124Y-85890645D01*
X131869119Y-85890643D01*
X131702697Y-85835496D01*
X131702690Y-85835495D01*
X131599986Y-85825002D01*
X131350000Y-85825002D01*
X131350000Y-86650002D01*
X130850000Y-86650002D01*
X130850000Y-85825002D01*
X130600029Y-85825002D01*
X130600012Y-85825003D01*
X130497302Y-85835496D01*
X130330880Y-85890643D01*
X130330875Y-85890645D01*
X130181654Y-85982686D01*
X130057684Y-86106656D01*
X129965643Y-86255877D01*
X129965641Y-86255882D01*
X129910494Y-86422304D01*
X129910493Y-86422311D01*
X129900000Y-86525015D01*
X128999998Y-86525015D01*
X128989505Y-86422304D01*
X128934358Y-86255882D01*
X128934356Y-86255877D01*
X128842315Y-86106656D01*
X128718345Y-85982686D01*
X128569124Y-85890645D01*
X128569119Y-85890643D01*
X128402697Y-85835496D01*
X128402690Y-85835495D01*
X128299986Y-85825002D01*
X128050000Y-85825002D01*
X128050000Y-86650002D01*
X127550000Y-86650002D01*
X127550000Y-85825002D01*
X127300029Y-85825002D01*
X127300012Y-85825003D01*
X127197302Y-85835496D01*
X127030880Y-85890643D01*
X127030875Y-85890645D01*
X126881654Y-85982686D01*
X126757684Y-86106656D01*
X126665643Y-86255877D01*
X126665641Y-86255882D01*
X126610494Y-86422304D01*
X126610493Y-86422311D01*
X126600000Y-86525015D01*
X124994790Y-86525015D01*
X124996546Y-84332522D01*
X125016284Y-84265502D01*
X125069125Y-84219789D01*
X125120289Y-84208625D01*
X134210000Y-84190000D01*
X134212598Y-83088338D01*
X134640000Y-83088338D01*
X134646043Y-83154844D01*
X134693724Y-83307860D01*
X134693726Y-83307864D01*
X134776639Y-83445020D01*
X134776642Y-83445024D01*
X134889976Y-83558358D01*
X134889980Y-83558361D01*
X135027136Y-83641274D01*
X135027138Y-83641275D01*
X135180155Y-83688957D01*
X135180161Y-83688959D01*
X135209999Y-83691669D01*
X135210000Y-83691669D01*
X135710000Y-83691669D01*
X135739838Y-83688959D01*
X135739844Y-83688957D01*
X135892861Y-83641275D01*
X135892863Y-83641274D01*
X136030019Y-83558361D01*
X136030023Y-83558358D01*
X136143357Y-83445024D01*
X136143360Y-83445020D01*
X136226273Y-83307864D01*
X136226275Y-83307860D01*
X136273956Y-83154844D01*
X136279091Y-83098338D01*
X138030000Y-83098338D01*
X138036043Y-83164844D01*
X138083724Y-83317860D01*
X138083726Y-83317864D01*
X138166639Y-83455020D01*
X138166642Y-83455024D01*
X138279976Y-83568358D01*
X138279980Y-83568361D01*
X138417136Y-83651274D01*
X138417138Y-83651275D01*
X138570155Y-83698957D01*
X138570161Y-83698959D01*
X138599999Y-83701669D01*
X138600000Y-83701669D01*
X139100000Y-83701669D01*
X139129838Y-83698959D01*
X139129844Y-83698957D01*
X139282861Y-83651275D01*
X139282863Y-83651274D01*
X139420019Y-83568361D01*
X139420023Y-83568358D01*
X139533357Y-83455024D01*
X139533360Y-83455020D01*
X139616273Y-83317864D01*
X139616275Y-83317860D01*
X139663956Y-83164844D01*
X139670000Y-83098338D01*
X139670000Y-83072501D01*
X139100000Y-83072501D01*
X139100000Y-83701669D01*
X138600000Y-83701669D01*
X138600000Y-83072501D01*
X138030000Y-83072501D01*
X138030000Y-83098338D01*
X136279091Y-83098338D01*
X136280000Y-83088338D01*
X136280000Y-83062501D01*
X135710000Y-83062501D01*
X135710000Y-83691669D01*
X135210000Y-83691669D01*
X135210000Y-83062501D01*
X134640000Y-83062501D01*
X134640000Y-83088338D01*
X134212598Y-83088338D01*
X134214212Y-82404207D01*
X134234055Y-82337215D01*
X134286967Y-82291584D01*
X134338212Y-82280500D01*
X134536623Y-82280500D01*
X134603662Y-82300185D01*
X134649417Y-82352989D01*
X134659361Y-82422147D01*
X134655008Y-82441391D01*
X134646043Y-82470159D01*
X134640000Y-82536663D01*
X134640000Y-82562501D01*
X136280000Y-82562501D01*
X136280000Y-82536663D01*
X136273957Y-82470162D01*
X136261096Y-82428889D01*
X136259946Y-82359029D01*
X136296747Y-82299636D01*
X136359816Y-82269568D01*
X136379482Y-82267999D01*
X136418332Y-82267999D01*
X136418348Y-82268000D01*
X136425944Y-82268000D01*
X136584055Y-82268000D01*
X136584058Y-82268000D01*
X136736786Y-82227076D01*
X136805423Y-82187448D01*
X136817458Y-82180500D01*
X136873712Y-82148022D01*
X136873712Y-82148021D01*
X136873717Y-82148019D01*
X136958677Y-82063057D01*
X136991896Y-82039339D01*
X137014429Y-82028324D01*
X137014432Y-82028321D01*
X137072319Y-81970435D01*
X137133642Y-81936950D01*
X137203334Y-81941934D01*
X137247681Y-81970435D01*
X137305570Y-82028324D01*
X137328100Y-82039338D01*
X137351808Y-82056265D01*
X137352339Y-82055574D01*
X137358781Y-82060517D01*
X137358784Y-82060520D01*
X137358787Y-82060521D01*
X137358790Y-82060524D01*
X137495709Y-82139573D01*
X137495716Y-82139577D01*
X137648443Y-82180500D01*
X137960900Y-82180500D01*
X138027939Y-82200185D01*
X138073694Y-82252989D01*
X138083638Y-82322147D01*
X138079285Y-82341390D01*
X138036043Y-82480157D01*
X138030000Y-82546663D01*
X138030000Y-82572501D01*
X139670000Y-82572501D01*
X139670000Y-82546663D01*
X139663957Y-82480162D01*
X139651096Y-82438889D01*
X139649946Y-82369029D01*
X139686747Y-82309636D01*
X139749816Y-82279568D01*
X139769482Y-82277999D01*
X142927402Y-82277999D01*
X142994441Y-82297684D01*
X143015083Y-82314318D01*
X145635219Y-84934454D01*
X145668704Y-84995777D01*
X145663720Y-85065469D01*
X145621848Y-85121402D01*
X145571733Y-85143752D01*
X145552065Y-85147664D01*
X145552063Y-85147665D01*
X145397372Y-85211740D01*
X145397371Y-85211740D01*
X145258160Y-85304758D01*
X145258152Y-85304764D01*
X145139762Y-85423154D01*
X145127098Y-85442108D01*
X145073485Y-85486912D01*
X145004160Y-85495618D01*
X144961997Y-85480602D01*
X144912488Y-85452018D01*
X144912489Y-85452018D01*
X144901006Y-85448941D01*
X144772475Y-85414501D01*
X144627525Y-85414501D01*
X144498993Y-85448941D01*
X144487511Y-85452018D01*
X144361988Y-85524489D01*
X144361982Y-85524494D01*
X144259493Y-85626983D01*
X144259489Y-85626989D01*
X144257384Y-85630635D01*
X144254804Y-85633094D01*
X144254543Y-85633435D01*
X144254489Y-85633394D01*
X144206814Y-85678848D01*
X144138207Y-85692067D01*
X144073343Y-85666096D01*
X144042614Y-85630630D01*
X144040513Y-85626991D01*
X144040510Y-85626988D01*
X144040509Y-85626985D01*
X143938015Y-85524491D01*
X143938012Y-85524489D01*
X143938011Y-85524488D01*
X143812488Y-85452017D01*
X143812489Y-85452017D01*
X143775508Y-85442108D01*
X143672475Y-85414500D01*
X143527525Y-85414500D01*
X143424492Y-85442108D01*
X143387511Y-85452017D01*
X143261988Y-85524488D01*
X143261982Y-85524493D01*
X143159493Y-85626982D01*
X143159486Y-85626991D01*
X143157381Y-85630638D01*
X143154801Y-85633097D01*
X143154543Y-85633434D01*
X143154490Y-85633393D01*
X143106810Y-85678849D01*
X143038202Y-85692067D01*
X142973339Y-85666093D01*
X142942611Y-85630627D01*
X142940512Y-85626992D01*
X142940509Y-85626986D01*
X142838015Y-85524492D01*
X142838013Y-85524491D01*
X142838011Y-85524489D01*
X142712488Y-85452018D01*
X142712489Y-85452018D01*
X142701006Y-85448941D01*
X142572475Y-85414501D01*
X142427525Y-85414501D01*
X142298993Y-85448941D01*
X142287511Y-85452018D01*
X142161988Y-85524489D01*
X142161982Y-85524494D01*
X142059493Y-85626983D01*
X142059489Y-85626989D01*
X142057384Y-85630635D01*
X142054804Y-85633094D01*
X142054543Y-85633435D01*
X142054489Y-85633394D01*
X142006814Y-85678848D01*
X141938207Y-85692067D01*
X141873343Y-85666096D01*
X141842614Y-85630630D01*
X141840513Y-85626991D01*
X141840510Y-85626988D01*
X141840509Y-85626985D01*
X141738015Y-85524491D01*
X141738012Y-85524489D01*
X141738011Y-85524488D01*
X141612488Y-85452017D01*
X141612489Y-85452017D01*
X141575508Y-85442108D01*
X141472475Y-85414500D01*
X141327525Y-85414500D01*
X141224492Y-85442108D01*
X141187511Y-85452017D01*
X141061988Y-85524488D01*
X141061982Y-85524493D01*
X140959493Y-85626982D01*
X140959486Y-85626991D01*
X140957381Y-85630638D01*
X140954801Y-85633097D01*
X140954543Y-85633434D01*
X140954490Y-85633393D01*
X140906810Y-85678849D01*
X140838202Y-85692067D01*
X140773339Y-85666093D01*
X140742611Y-85630627D01*
X140740512Y-85626992D01*
X140740509Y-85626986D01*
X140638015Y-85524492D01*
X140638013Y-85524491D01*
X140638011Y-85524489D01*
X140512488Y-85452018D01*
X140512489Y-85452018D01*
X140501006Y-85448941D01*
X140372475Y-85414501D01*
X140227525Y-85414501D01*
X140098993Y-85448941D01*
X140087511Y-85452018D01*
X139961988Y-85524489D01*
X139961982Y-85524494D01*
X139859493Y-85626983D01*
X139859486Y-85626992D01*
X139857386Y-85630631D01*
X139854809Y-85633087D01*
X139854543Y-85633435D01*
X139854488Y-85633393D01*
X139806819Y-85678846D01*
X139738212Y-85692068D01*
X139673347Y-85666100D01*
X139642614Y-85630631D01*
X139640513Y-85626992D01*
X139640510Y-85626989D01*
X139640509Y-85626986D01*
X139538015Y-85524492D01*
X139538013Y-85524491D01*
X139538011Y-85524489D01*
X139412488Y-85452018D01*
X139412489Y-85452018D01*
X139401006Y-85448941D01*
X139272475Y-85414501D01*
X139127525Y-85414501D01*
X138998993Y-85448941D01*
X138987511Y-85452018D01*
X138861988Y-85524489D01*
X138861982Y-85524494D01*
X138759493Y-85626983D01*
X138759488Y-85626989D01*
X138687017Y-85752512D01*
X138687016Y-85752516D01*
X138649500Y-85892526D01*
X138649500Y-87107476D01*
X138687016Y-87247485D01*
X138687017Y-87247489D01*
X138759488Y-87373012D01*
X138759490Y-87373014D01*
X138759491Y-87373016D01*
X138861985Y-87475510D01*
X138861986Y-87475511D01*
X138861988Y-87475512D01*
X138987511Y-87547983D01*
X138987512Y-87547983D01*
X138987515Y-87547985D01*
X139127525Y-87585501D01*
X139127528Y-87585501D01*
X139272472Y-87585501D01*
X139272475Y-87585501D01*
X139412485Y-87547985D01*
X139538015Y-87475510D01*
X139640509Y-87373016D01*
X139642612Y-87369372D01*
X139645190Y-87366914D01*
X139645457Y-87366567D01*
X139645511Y-87366608D01*
X139693177Y-87321157D01*
X139761783Y-87307932D01*
X139826649Y-87333898D01*
X139857386Y-87369370D01*
X139859491Y-87373016D01*
X139961985Y-87475510D01*
X139961986Y-87475511D01*
X139961988Y-87475512D01*
X140087511Y-87547983D01*
X140087512Y-87547983D01*
X140087515Y-87547985D01*
X140227525Y-87585501D01*
X140227528Y-87585501D01*
X140372472Y-87585501D01*
X140372475Y-87585501D01*
X140512485Y-87547985D01*
X140638015Y-87475510D01*
X140740509Y-87373016D01*
X140742612Y-87369372D01*
X140745190Y-87366914D01*
X140745457Y-87366567D01*
X140745511Y-87366608D01*
X140793177Y-87321157D01*
X140861783Y-87307932D01*
X140926649Y-87333898D01*
X140957386Y-87369370D01*
X140959486Y-87373008D01*
X140959489Y-87373012D01*
X140959491Y-87373015D01*
X141061985Y-87475509D01*
X141061986Y-87475510D01*
X141061988Y-87475511D01*
X141187511Y-87547982D01*
X141187512Y-87547982D01*
X141187515Y-87547984D01*
X141327525Y-87585500D01*
X141327528Y-87585500D01*
X141472472Y-87585500D01*
X141472475Y-87585500D01*
X141612485Y-87547984D01*
X141738015Y-87475509D01*
X141840509Y-87373015D01*
X141842611Y-87369374D01*
X141845187Y-87366917D01*
X141845457Y-87366566D01*
X141845511Y-87366607D01*
X141893172Y-87321159D01*
X141961779Y-87307932D01*
X142026645Y-87333896D01*
X142057384Y-87369367D01*
X142059488Y-87373012D01*
X142059490Y-87373014D01*
X142059491Y-87373016D01*
X142161985Y-87475510D01*
X142161986Y-87475511D01*
X142161988Y-87475512D01*
X142287511Y-87547983D01*
X142287512Y-87547983D01*
X142287515Y-87547985D01*
X142427525Y-87585501D01*
X142427528Y-87585501D01*
X142572472Y-87585501D01*
X142572475Y-87585501D01*
X142712485Y-87547985D01*
X142838015Y-87475510D01*
X142940509Y-87373016D01*
X142942612Y-87369372D01*
X142945190Y-87366914D01*
X142945457Y-87366567D01*
X142945511Y-87366608D01*
X142993177Y-87321157D01*
X143061783Y-87307932D01*
X143126649Y-87333898D01*
X143157386Y-87369370D01*
X143159486Y-87373008D01*
X143159489Y-87373012D01*
X143159491Y-87373015D01*
X143261985Y-87475509D01*
X143261986Y-87475510D01*
X143261988Y-87475511D01*
X143387511Y-87547982D01*
X143387512Y-87547982D01*
X143387515Y-87547984D01*
X143527525Y-87585500D01*
X143527528Y-87585500D01*
X143672472Y-87585500D01*
X143672475Y-87585500D01*
X143812485Y-87547984D01*
X143938015Y-87475509D01*
X144040509Y-87373015D01*
X144042611Y-87369374D01*
X144045187Y-87366917D01*
X144045457Y-87366566D01*
X144045511Y-87366607D01*
X144093172Y-87321159D01*
X144161779Y-87307932D01*
X144226645Y-87333896D01*
X144257384Y-87369367D01*
X144259488Y-87373012D01*
X144259490Y-87373014D01*
X144259491Y-87373016D01*
X144361985Y-87475510D01*
X144361986Y-87475511D01*
X144361988Y-87475512D01*
X144487511Y-87547983D01*
X144487512Y-87547983D01*
X144487515Y-87547985D01*
X144627525Y-87585501D01*
X144627528Y-87585501D01*
X144772472Y-87585501D01*
X144772475Y-87585501D01*
X144912485Y-87547985D01*
X144961998Y-87519398D01*
X145029896Y-87502925D01*
X145095923Y-87525776D01*
X145127101Y-87557895D01*
X145139763Y-87576846D01*
X145258152Y-87695235D01*
X145258160Y-87695241D01*
X145397372Y-87788259D01*
X145549999Y-87851479D01*
X145550000Y-87851479D01*
X145550000Y-86624000D01*
X145569685Y-86556961D01*
X145622489Y-86511206D01*
X145674000Y-86500000D01*
X145926000Y-86500000D01*
X145993039Y-86519685D01*
X146038794Y-86572489D01*
X146050000Y-86624000D01*
X146050000Y-87851479D01*
X146202627Y-87788259D01*
X146202628Y-87788259D01*
X146341839Y-87695241D01*
X146341847Y-87695235D01*
X146460232Y-87576850D01*
X146472897Y-87557896D01*
X146526509Y-87513090D01*
X146595834Y-87504381D01*
X146637999Y-87519397D01*
X146687515Y-87547985D01*
X146827525Y-87585501D01*
X146827528Y-87585501D01*
X146972472Y-87585501D01*
X146972475Y-87585501D01*
X147112485Y-87547985D01*
X147161998Y-87519398D01*
X147229896Y-87502925D01*
X147295923Y-87525776D01*
X147327101Y-87557895D01*
X147339766Y-87576849D01*
X147339766Y-87576850D01*
X147458152Y-87695236D01*
X147458160Y-87695242D01*
X147597372Y-87788260D01*
X147749999Y-87851480D01*
X147750000Y-87851480D01*
X148250000Y-87851480D01*
X148402627Y-87788260D01*
X148402628Y-87788260D01*
X148541839Y-87695242D01*
X148541847Y-87695236D01*
X148660235Y-87576848D01*
X148660241Y-87576840D01*
X148753259Y-87437629D01*
X148753259Y-87437628D01*
X148817334Y-87282937D01*
X148817336Y-87282929D01*
X148849999Y-87118723D01*
X148850000Y-87118721D01*
X148850000Y-86750001D01*
X148250000Y-86750001D01*
X148250000Y-87851480D01*
X147750000Y-87851480D01*
X147750000Y-86250001D01*
X148250000Y-86250001D01*
X148850000Y-86250001D01*
X148850000Y-85881280D01*
X148849999Y-85881278D01*
X148817336Y-85717072D01*
X148817334Y-85717064D01*
X148753259Y-85562373D01*
X148753259Y-85562372D01*
X148660241Y-85423161D01*
X148660235Y-85423153D01*
X148541844Y-85304762D01*
X148402632Y-85211744D01*
X148402622Y-85211739D01*
X148250000Y-85148520D01*
X148250000Y-86250001D01*
X147750000Y-86250001D01*
X147750000Y-85148520D01*
X147749999Y-85148520D01*
X147626531Y-85199663D01*
X147557062Y-85207132D01*
X147494582Y-85175857D01*
X147464083Y-85125143D01*
X147462686Y-85125723D01*
X147459579Y-85118223D01*
X147459577Y-85118216D01*
X147429124Y-85065469D01*
X147380524Y-84981290D01*
X147380518Y-84981282D01*
X143715089Y-81315854D01*
X143715087Y-81315851D01*
X143596216Y-81196980D01*
X143596208Y-81196974D01*
X143483107Y-81131676D01*
X143483107Y-81131675D01*
X143483102Y-81131674D01*
X143474790Y-81126875D01*
X143459285Y-81117922D01*
X143421102Y-81107691D01*
X143306556Y-81076998D01*
X143148442Y-81076998D01*
X143140846Y-81076998D01*
X143140830Y-81076999D01*
X139115504Y-81076999D01*
X139053506Y-81060387D01*
X139034406Y-81049360D01*
X139034406Y-81049359D01*
X139034401Y-81049358D01*
X138984286Y-81020423D01*
X138831558Y-80979499D01*
X138673444Y-80979499D01*
X138665848Y-80979499D01*
X138665832Y-80979500D01*
X137648443Y-80979500D01*
X137495716Y-81020423D01*
X137495713Y-81020424D01*
X137358782Y-81099480D01*
X137352335Y-81104428D01*
X137351806Y-81103738D01*
X137328104Y-81120659D01*
X137305573Y-81131674D01*
X137247681Y-81189566D01*
X137186357Y-81223050D01*
X137116666Y-81218065D01*
X137072319Y-81189566D01*
X137014427Y-81131674D01*
X136991893Y-81120658D01*
X136968193Y-81103735D01*
X136967662Y-81104428D01*
X136961212Y-81099478D01*
X136824286Y-81020424D01*
X136824285Y-81020423D01*
X136824284Y-81020423D01*
X136671557Y-80979500D01*
X136513442Y-80979500D01*
X136360715Y-81020423D01*
X136360714Y-81020423D01*
X136360712Y-81020424D01*
X136360711Y-81020424D01*
X136308817Y-81050386D01*
X136246817Y-81066999D01*
X135539057Y-81066999D01*
X135380943Y-81066999D01*
X135350055Y-81075275D01*
X135317964Y-81079500D01*
X134341629Y-81079500D01*
X134274590Y-81059815D01*
X134228835Y-81007011D01*
X134217629Y-80955208D01*
X134226867Y-77038421D01*
X134246710Y-76971429D01*
X134299622Y-76925798D01*
X134350867Y-76914714D01*
X148076739Y-76914714D01*
X148143778Y-76934399D01*
G37*
%TD.AperFunction*%
%TD*%
M02*
